<svg xmlns="http://www.w3.org/2000/svg" width="239.685" height="239.684" viewBox="0 0 239.685 239.684">
  <g id="Grupo_58443" data-name="Grupo 58443" transform="translate(-285 -464)">
    <g id="Grupo_54284" data-name="Grupo 54284" transform="translate(-575.444 -107.053)">
      <g id="Grupo_54283" data-name="Grupo 54283" transform="translate(860.444 571.053)">
        <g id="Grupo_54260" data-name="Grupo 54260" transform="translate(4.054 35.1)">
          <g id="Grupo_54259" data-name="Grupo 54259">
            <path id="Trazado_100946" data-name="Trazado 100946" d="M905.645,652.588l-43.329-11.609a119.724,119.724,0,0,1,31.047-53.717l31.711,31.711A74.937,74.937,0,0,0,905.645,652.588Z" transform="translate(-862.316 -587.262)" fill="#f69f23"/>
          </g>
        </g>
        <g id="Grupo_54262" data-name="Grupo 54262" transform="translate(88.815 192.299)">
          <g id="Grupo_54261" data-name="Grupo 54261">
            <path id="Trazado_100947" data-name="Trazado 100947" d="M932.485,662.393a75.114,75.114,0,0,0,19.413-2.536l11.609,43.329a120.719,120.719,0,0,1-62.05,0l11.611-43.329A75.025,75.025,0,0,0,932.485,662.393Z" transform="translate(-901.458 -659.855)" fill="#7421b0"/>
          </g>
        </g>
        <g id="Grupo_54264" data-name="Grupo 54264" transform="translate(139.256 172.873)">
          <g id="Grupo_54263" data-name="Grupo 54263">
            <path id="Trazado_100948" data-name="Trazado 100948" d="M958.368,650.884,990.077,682.6a119.712,119.712,0,0,1-53.717,31.047l-11.609-43.329A74.931,74.931,0,0,0,958.368,650.884Z" transform="translate(-924.751 -650.884)" fill="#3a48ba"/>
          </g>
        </g>
        <g id="Grupo_54266" data-name="Grupo 54266" transform="translate(35.1 172.871)">
          <g id="Grupo_54265" data-name="Grupo 54265">
            <path id="Trazado_100949" data-name="Trazado 100949" d="M941.979,670.312l-11.611,43.329a119.717,119.717,0,0,1-53.715-31.047l31.711-31.711A74.891,74.891,0,0,0,941.979,670.312Z" transform="translate(-876.653 -650.883)" fill="#d2298e"/>
          </g>
        </g>
        <g id="Grupo_54268" data-name="Grupo 54268" transform="translate(172.873 139.258)">
          <g id="Grupo_54267" data-name="Grupo 54267">
            <path id="Trazado_100950" data-name="Trazado 100950" d="M959.7,635.361l43.329,11.609a119.705,119.705,0,0,1-31.049,53.717l-31.709-31.711A74.944,74.944,0,0,0,959.7,635.361Z" transform="translate(-940.275 -635.361)" fill="#006fc4"/>
          </g>
        </g>
        <g id="Grupo_54270" data-name="Grupo 54270" transform="translate(4.054 139.256)">
          <g id="Grupo_54269" data-name="Grupo 54269">
            <path id="Trazado_100951" data-name="Trazado 100951" d="M905.645,635.36a74.914,74.914,0,0,0,19.429,33.615l-31.711,31.711a119.716,119.716,0,0,1-31.047-53.715Z" transform="translate(-862.316 -635.36)" fill="#ff2600"/>
          </g>
        </g>
        <g id="Grupo_54272" data-name="Grupo 54272" transform="translate(35.1 4.054)">
          <g id="Grupo_54271" data-name="Grupo 54271">
            <path id="Trazado_100952" data-name="Trazado 100952" d="M908.364,635.683l-31.711-31.711a119.717,119.717,0,0,1,53.715-31.047l11.611,43.329A74.933,74.933,0,0,0,908.364,635.683Z" transform="translate(-876.653 -572.925)" fill="#fac712"/>
          </g>
        </g>
        <g id="Grupo_54274" data-name="Grupo 54274" transform="translate(88.815)">
          <g id="Grupo_54273" data-name="Grupo 54273">
            <path id="Trazado_100953" data-name="Trazado 100953" d="M932.485,615.9a75.115,75.115,0,0,0-19.416,2.538l-11.611-43.329a120.751,120.751,0,0,1,62.05,0c-2.809,10.483-5.836,21.787-11.609,43.329A75.109,75.109,0,0,0,932.485,615.9Z" transform="translate(-901.458 -571.053)" fill="#feef00"/>
          </g>
        </g>
        <g id="Grupo_54276" data-name="Grupo 54276" transform="translate(0 88.817)">
          <g id="Grupo_54275" data-name="Grupo 54275">
            <path id="Trazado_100954" data-name="Trazado 100954" d="M905.289,643.093a75.114,75.114,0,0,0,2.538,19.413L864.5,674.118a120.743,120.743,0,0,1,0-62.05l43.329,11.609A75.13,75.13,0,0,0,905.289,643.093Z" transform="translate(-860.444 -612.068)" fill="#fb6312"/>
          </g>
        </g>
        <g id="Grupo_54278" data-name="Grupo 54278" transform="translate(192.302 88.815)">
          <g id="Grupo_54277" data-name="Grupo 54277">
            <path id="Trazado_100955" data-name="Trazado 100955" d="M951.785,643.094a75.131,75.131,0,0,0-2.538-19.416l43.329-11.611a120.751,120.751,0,0,1,0,62.052L949.247,662.51A75.145,75.145,0,0,0,951.785,643.094Z" transform="translate(-949.247 -612.067)" fill="#00afcf"/>
          </g>
        </g>
        <g id="Grupo_54280" data-name="Grupo 54280" transform="translate(139.256 4.054)">
          <g id="Grupo_54279" data-name="Grupo 54279">
            <path id="Trazado_100956" data-name="Trazado 100956" d="M924.751,616.254c5.773-21.542,8.8-32.846,11.609-43.329a119.712,119.712,0,0,1,53.717,31.047l-31.709,31.709A74.926,74.926,0,0,0,924.751,616.254Z" transform="translate(-924.751 -572.925)" fill="#7fd200"/>
          </g>
        </g>
        <g id="Grupo_54282" data-name="Grupo 54282" transform="translate(172.873 35.1)">
          <g id="Grupo_54281" data-name="Grupo 54281">
            <path id="Trazado_100957" data-name="Trazado 100957" d="M940.275,618.971l31.709-31.709a119.7,119.7,0,0,1,31.049,53.715L959.7,652.588A74.951,74.951,0,0,0,940.275,618.971Z" transform="translate(-940.275 -587.262)" fill="#00b500"/>
          </g>
        </g>
      </g>
      <circle id="Elipse_4111" data-name="Elipse 4111" cx="9.753" cy="9.753" r="9.753" transform="translate(923.611 598.899)"/>
      <circle id="Elipse_4112" data-name="Elipse 4112" cx="9.753" cy="9.753" r="9.753" transform="translate(876.372 682.584)"/>
      <circle id="Elipse_4113" data-name="Elipse 4113" cx="9.753" cy="9.753" r="9.753" transform="translate(888.322 633.098)"/>
      <path id="Trazado_100958" data-name="Trazado 100958" d="M872.3,670.178a94.122,94.122,0,0,1,46.707-81.349" transform="translate(13.822 20.718)" fill="none" stroke="#000" stroke-linecap="round" stroke-linejoin="round" stroke-width="3"/>
    </g>
  </g>
</svg>
