<svg xmlns="http://www.w3.org/2000/svg" width="820" height="408.545" viewBox="0 0 820 408.545">
  <g id="Grupo_58581" data-name="Grupo 58581" transform="translate(-509 -4969)">
    <rect id="dylan-shaw-UxyWwU6n_ts-unsplash" width="820" height="195.482" transform="translate(509 5182.063)" fill="#bfeffc"/>
    <g id="Grupo_57407" data-name="Grupo 57407" transform="translate(385.563 4614.869)">
      <g id="Grupo_57405" data-name="Grupo 57405" transform="translate(290.438 354.131)">
        <rect id="Rectángulo_5967" data-name="Rectángulo 5967" width="14.389" height="80.631" transform="translate(92.786 282.774)" fill="#110239"/>
        <rect id="Rectángulo_5968" data-name="Rectángulo 5968" width="14.389" height="80.631" transform="translate(364.78 282.774)" fill="#110239"/>
        <rect id="Rectángulo_5969" data-name="Rectángulo 5969" width="471.955" height="290.114" fill="#d0d1de"/>
        <rect id="Rectángulo_5970" data-name="Rectángulo 5970" width="426.842" height="251.247" transform="translate(22.556 19.434)" fill="#fff"/>
        <path id="Trazado_103553" data-name="Trazado 103553" d="M569.912,517.913H300.693s1.338-101.444,34.383-116.024,55.158,58.8,70.71,59.774,14.175-60.076,36.807-69.125c58.318-23.328,52.364,68.642,63.053,67.669s20.282-84.919,34.99-84.919C576.716,375.288,569.912,517.913,569.912,517.913Z" transform="translate(-250.061 -270.831)" fill="#e4e5ec"/>
        <path id="Trazado_103554" data-name="Trazado 103554" d="M569.912,510.358H300.693s6.8-86.5,39.853-101.079,47.619,55.4,63.171,56.373,30.132-48.6,54.428-50.542,40.821,57.345,51.509,56.373,16.4-94.276,31.1-94.276C569.912,377.207,569.912,510.358,569.912,510.358Z" transform="translate(-250.061 -263.275)" fill="#01549e"/>
        <path id="Trazado_103555" data-name="Trazado 103555" d="M569.912,476.092H300.693s8.749-42.766,41.793-57.34,50.542,25.752,66.089,26.725,21.872-57.587,46.167-59.527,10.812,70.705,49.327,70.705c27.94,0,23.679-59.774,38.387-59.774C571.616,396.879,569.912,476.092,569.912,476.092Z" transform="translate(-250.061 -229.009)" fill="#fed55f"/>
        <rect id="Rectángulo_5971" data-name="Rectángulo 5971" width="79.816" height="13.988" transform="translate(351.19 99.944)" fill="#e4e5ec"/>
        <rect id="Rectángulo_5972" data-name="Rectángulo 5972" width="79.816" height="13.988" transform="translate(351.19 131.07)" fill="#e4e5ec"/>
        <rect id="Rectángulo_5973" data-name="Rectángulo 5973" width="79.816" height="13.988" transform="translate(351.19 162.196)" fill="#01549e"/>
        <rect id="Rectángulo_5974" data-name="Rectángulo 5974" width="79.816" height="13.988" transform="translate(351.19 193.322)" fill="#e4e5ec"/>
        <rect id="Rectángulo_5975" data-name="Rectángulo 5975" width="79.816" height="13.988" transform="translate(351.19 224.448)" fill="#fed55f"/>
        <rect id="Rectángulo_5976" data-name="Rectángulo 5976" width="14.575" height="14.575" transform="translate(43.378 34.529)" fill="#8ecae4"/>
        <rect id="Rectángulo_5977" data-name="Rectángulo 5977" width="66.108" height="14.575" transform="translate(72.008 34.529)" fill="#e4e5ec"/>
        <rect id="Rectángulo_5978" data-name="Rectángulo 5978" width="14.575" height="14.575" transform="translate(43.378 58.995)" fill="#8ecae4"/>
        <rect id="Rectángulo_5979" data-name="Rectángulo 5979" width="66.108" height="14.575" transform="translate(72.008 58.995)" fill="#e4e5ec"/>
        <rect id="Rectángulo_5980" data-name="Rectángulo 5980" width="14.575" height="14.575" transform="translate(43.378 83.46)" fill="#8ecae4"/>
        <rect id="Rectángulo_5981" data-name="Rectángulo 5981" width="66.108" height="14.575" transform="translate(72.008 83.46)" fill="#e4e5ec"/>
        <rect id="Rectángulo_5982" data-name="Rectángulo 5982" width="207.539" height="20.301" transform="translate(223.467 34.529)" fill="#e4e5ec"/>
        <rect id="Rectángulo_5983" data-name="Rectángulo 5983" width="104.108" height="17.177" transform="translate(166.852 77.734)" fill="#e4e5ec"/>
        <rect id="Rectángulo_5984" data-name="Rectángulo 5984" width="38.236" height="14.254" transform="translate(80.862 353.161)" fill="#d0d1de"/>
        <rect id="Rectángulo_5985" data-name="Rectángulo 5985" width="38.237" height="14.254" transform="translate(352.856 353.161)" fill="#d0d1de"/>
        <g id="Grupo_57404" data-name="Grupo 57404" transform="translate(167.426 31.975)">
          <g id="Grupo_57403" data-name="Grupo 57403">
            <path id="Trazado_103556" data-name="Trazado 103556" d="M339.259,367.035c5.2.39,9.958,2.617,9.988,7.821l-8.679.049c-.055-1.97-2.079-2.375-3.343-2.37-.8,0-3.377.02-3.367,1.614.02,3.565,15.992-.237,16.051,9.85.039,6.048-4.685,8.329-10.5,8.783l.415,6.428-5.3.03.291-6.478c-5.4-.528-10.432-3.031-10.462-8.472l8.674-.049.005.183c.059,2.394,2.735,2.849,4.093,2.839,1.318-.005,3.9-.114,3.886-1.852-.025-3.708-16-.232-16.056-9.988-.03-5.629,4.32-7.816,9.711-8.314l-.365-6.473,5.3-.03Z" transform="translate(-324.349 -360.607)" fill="#01549e"/>
          </g>
        </g>
        <path id="Trazado_103557" data-name="Trazado 103557" d="M347.251,376.3,339.085,360.4,330.92,376.3h5.6v23.743h5.193V376.3Z" transform="translate(-131.053 -329.432)" fill="#fed55f"/>
      </g>
      <g id="Grupo_57406" data-name="Grupo 57406" transform="translate(662.277 418.371)">
        <path id="Trazado_103558" data-name="Trazado 103558" d="M436.384,391.2s-7.662,4.665-14.081,17.477-10.427,19.68-11.193,19.067c-3.416-2.735-12.437-10.457-25.639-31.149-1.6-2.518.059-4.147.114-6.112s2.691-6.522,2.118-7.815-2.172-.983-3.723,2.123-1.037,5.016-2.281,4.137a34.162,34.162,0,0,1-5.278-6.315c-.983-1.6-4.088-4.759-4.917-4.241-.785.489-.973,1.333,3.708,8.043-1.7-2.39-5.88-7.924-7.327-6.6-1.081.992,3.037,5.959,4.9,8.166-1.595-1.851-5.233-5.752-6.532-4.463-1.575,1.565,6.172,7.45,6.172,7.45s-5.781-4.582-6.557-3.234,2.587,4.32,5.9,6.186,3.905,2.533,5.243,3.209c.859.43,2.232,2.582,3.031,3.915.054.109,24.261,51.939,32.951,47.165s20.243-21.763,20.243-21.763a40.433,40.433,0,0,0,4.473-13.558C438.818,405.619,438.131,395.641,436.384,391.2Z" transform="translate(-365.752 -323.139)" fill="#f88667"/>
        <path id="Trazado_103559" data-name="Trazado 103559" d="M376.24,407.52c1.753-4.1,11.889-24.622,19.122-27.7l9.7,3.792c4.28,5.332-1.185,17.981-2.952,19.408-1.491,1.21-8.68,16-10.171,17.537A125.292,125.292,0,0,1,376.24,407.52Z" transform="translate(-324.459 -317.239)" fill="#fed55f"/>
        <path id="Trazado_103560" data-name="Trazado 103560" d="M388.563,373.817l13.913,2.167s-3.91,12.368,2.088,22.918c0,0-10,10.837-16.979,7.969-7.455-3.061-4.675-10.59-4.675-10.59S390.5,390.268,388.563,373.817Z" transform="translate(-300.197 -340.862)" fill="#e45940"/>
        <path id="Trazado_103561" data-name="Trazado 103561" d="M418.311,426.942s3.752,14.89,1.609,17.315-33.341,7.751-36.347,5.278-2.074-7.421,4.281-10.107c6.813-2.883,10.531-1.407,14.718-3.831s2.108-9.247,2.108-9.247Z" transform="translate(-302.079 -134.031)" fill="#110239"/>
        <path id="Trazado_103562" data-name="Trazado 103562" d="M413.075,426.393s.75,18.677-1.738,20.746-34.136,2.548-36.728-.36-1.091-7.045,5.327-8.467c5.767-1.279,10.062-.148,14.51-2.049,3.905-1.669,5.856-10.422,5.856-10.422Z" transform="translate(-335.635 -136.039)" fill="#110239"/>
        <path id="Trazado_103563" data-name="Trazado 103563" d="M380.815,400.182l40.678-7.228S406.1,476.7,404.049,486.36s-8.112,73.322-8.112,73.322L378.2,557.6s.207-69.58,1.1-75.771S380.815,400.182,380.815,400.182Z" transform="translate(-316.73 -265.517)" fill="#01549e"/>
        <path id="Trazado_103564" data-name="Trazado 103564" d="M389.2,434.09c-2.014-13.133-.657-23.338-3.555-29.741-1.155-2.543-4.908-1.881-5.757-4.478a8.034,8.034,0,0,0,1.264-2l33.78-5.061s-15.32,72.2-19.294,89.911C395.639,482.721,390.81,444.571,389.2,434.09Z" transform="translate(-310.092 -266.084)" fill="#02325d"/>
        <path id="Trazado_103565" data-name="Trazado 103565" d="M382.15,393.6l32.669,8.314a62.412,62.412,0,0,1,1.975,27.1c-2.691,18.174-2.957,46.676-3.283,50.542s6.107,65.279,6.6,79.977l-17.6.745s-13.5-76.931-14.283-78.615S382.15,393.6,382.15,393.6Z" transform="translate(-301.19 -262.989)" fill="#01549e"/>
        <path id="Trazado_103566" data-name="Trazado 103566" d="M384.157,425.972c.686-13.765-3.031-34.531,5.051-39.418,6.774-4.093,12.368-7.411,12.368-7.411s2.024,4.927,6.843,5.574,12.481-6.611,12.481-6.611,8.813,5.2,16.762,8.749c-1.926,6.379,2.044,12.1,2.014,18.455a38.742,38.742,0,0,0,1.382,10.363c-3.229,6.912-6.354,13.676-7.04,18.539-1.763,12.545,3.905,31.805,3.905,31.805a220.5,220.5,0,0,1-30.265,4.587c-9.405.79-20.272-1.15-29.855-3.55C377.8,467.054,383.476,439.732,384.157,425.972Z" transform="translate(-318.305 -323.976)" fill="#fed55f"/>
        <path id="Trazado_103567" data-name="Trazado 103567" d="M409.127,401.763c-.252-.933-.4-1.906-.588-2.863-.138-.711-.331-1.4-.434-2.123a38.3,38.3,0,0,1-.356-5.357c.015-3.115-.207-6.448-.232-9.785-1.644,1.2-3.658,4.1-5.653,2.928-9.361-5.49-10.645,19.591-10.645,32.225,0,12.595-.316,27.391-5.308,38.836,12.007-1.54,20.085-3.5,20.085-3.5s-.8-2.71-1.7-6.759c-.449-2.019-.928-4.379-1.343-6.9-.143-.839-.276-1.7-.4-2.567a79.606,79.606,0,0,1-.755-7.984,42.791,42.791,0,0,1,.291-7.593C402.778,415.454,405.9,408.68,409.127,401.763Z" transform="translate(-286.378 -310.085)" fill="#dea913"/>
        <path id="Trazado_103568" data-name="Trazado 103568" d="M406.519,370.458s-19.917-3.017-22.212-.81-2.671,10.23-2.577,17.009-2.755,19.749,5.159,22.148,23.007-5,28.349-18.426C422.046,373.277,407.887,370.655,406.519,370.458Z" transform="translate(-304.507 -360.456)" fill="#f88667"/>
        <path id="Trazado_103569" data-name="Trazado 103569" d="M396.989,368.854s-9.42.321-11.074,14.515c-.745,6.393-2.355,11.326-.385,11.647s4.009-1.022,4.009-2.864.573-7.875,4.33-6.2,2.483,8.931-2.291,11.03a5.985,5.985,0,0,0,2.834,6.364s9.929-6.246,11.361-17.394S403,368.538,396.989,368.854Z" transform="translate(-291.599 -360.447)" fill="#110239"/>
        <path id="Trazado_103570" data-name="Trazado 103570" d="M417.1,376.8s-2.227-8.907-12.728-9.608-18.9,5.6-23.931,14c0,0,2.864,5.026,13.681,5.663,4.5.267,12.5-.987,16.485-3.056C416.212,380.9,417.1,376.8,417.1,376.8Z" transform="translate(-307.934 -367.142)" fill="#110239"/>
        <path id="Trazado_103571" data-name="Trazado 103571" d="M414.9,415.591c-.652-3.2-3.663-22.059-4.72-29.041-6.112,2.014-11.746,4.1-18.041,5.782,1.871,4.463,6.211,21.269,6.7,25.836.677,6.369-2.212,34.526-3.076,44.281h0c-.069.78-.128,1.442-.178,1.99a13.687,13.687,0,0,1-2.251,5.776c-1.427,1.792-6.2,7.628-5.386,10.171s4.784-2.113,6.241-3.7,1.708,3.713,1.348,6.561-6.1,7.628-5.5,9.583c.43,1.368,2.187.38,4.414-2.143-1.047,1.565-1.837,3.086-1.254,3.486.78.533,2.212-.449,3.772-2.133-.834,1.294-1.372,2.454-.819,2.735.815.429,2.454-.933,3.945-2.567-.775,1.18-1.3,2.306-.755,2.651,1.037.657,4.394-2.419,5.673-6.463,1.042-3.273-1.432-12.5-2.321-17.221a8.326,8.326,0,0,1,.3-4.2C405.692,458.791,416.722,424.542,414.9,415.591Z" transform="translate(-278.728 -290.73)" fill="#f88667"/>
        <path id="Trazado_103572" data-name="Trazado 103572" d="M393.615,425.315a103.951,103.951,0,0,0,21.985-6.606c-1.684-11.859-5.855-28.152-11.983-34.644-1.7-1.807-4.73-5.11-7.49-4.162-3.629,1.244-8.275,6.2-8.645,15.829-.089,2.355,1.96,16.441,3.639,20.963C391.872,418.709,392.613,422.4,393.615,425.315Z" transform="translate(-280.203 -317.562)" fill="#fed55f"/>
      </g>
    </g>
  </g>
</svg>
