<svg xmlns="http://www.w3.org/2000/svg" width="820" height="440.787" viewBox="0 0 820 440.787">
  <g id="Grupo_58574" data-name="Grupo 58574" transform="translate(-509 -1072.758)">
    <rect id="dylan-shaw-UxyWwU6n_ts-unsplash" width="820" height="195.482" transform="translate(509 1318.063)" fill="#bfeffc"/>
    <g id="Grupo_57347" data-name="Grupo 57347" transform="translate(385.012 825.291)">
      <g id="Grupo_57339" data-name="Grupo 57339" transform="translate(356.127 308.844)">
        <path id="Trazado_103359" data-name="Trazado 103359" d="M418.244,394.369H347.052l5.851-85.821h59.489Z" transform="translate(-188.301 -70.806)" fill="#110239"/>
        <path id="Trazado_103360" data-name="Trazado 103360" d="M444.194,324.912a4.653,4.653,0,0,0-3.864-2.067H358.205a4.653,4.653,0,0,0-3.864,2.067l-10.759,16.048a4.654,4.654,0,0,0,3.869,7.243H451.084a4.652,4.652,0,0,0,3.864-7.243Z" transform="translate(-204.92 -15.088)" fill="#110239"/>
        <rect id="Rectángulo_5909" data-name="Rectángulo 5909" width="388.695" height="260.558" rx="4.091" fill="#110239"/>
        <rect id="Rectángulo_5910" data-name="Rectángulo 5910" width="352.903" height="223.335" transform="translate(17.895 17.263)" fill="#fefefe"/>
        <rect id="Rectángulo_5911" data-name="Rectángulo 5911" width="335.27" height="199.013" transform="translate(26.712 41.585)" fill="#e5e6ed"/>
        <rect id="Rectángulo_5912" data-name="Rectángulo 5912" width="335.27" height="16.464" transform="translate(26.712 41.585)" fill="#b3eef6"/>
        <rect id="Rectángulo_5913" data-name="Rectángulo 5913" width="104.121" height="13.744" transform="translate(241.587 111.747)" fill="#fefefe"/>
        <rect id="Rectángulo_5914" data-name="Rectángulo 5914" width="104.121" height="13.745" transform="translate(241.587 136.045)" fill="#fefefe"/>
        <rect id="Rectángulo_5915" data-name="Rectángulo 5915" width="104.121" height="13.744" transform="translate(241.587 160.344)" fill="#fefefe"/>
        <rect id="Rectángulo_5916" data-name="Rectángulo 5916" width="104.122" height="13.744" transform="translate(57.634 74.57)" fill="#fefefe"/>
        <rect id="Rectángulo_5917" data-name="Rectángulo 5917" width="104.122" height="13.744" transform="translate(57.634 98.869)" fill="#fefefe"/>
      </g>
      <g id="Grupo_57342" data-name="Grupo 57342" transform="translate(303.988 247.467)">
        <g id="Grupo_57340" data-name="Grupo 57340" transform="translate(0 164.494)">
          <path id="Trazado_103361" data-name="Trazado 103361" d="M513.031,281.057H316.456a12.465,12.465,0,0,0-12.468,12.463v63.388a12.468,12.468,0,0,0,12.468,12.463H439.609l46.9,39.887-22.272-39.887h48.79a12.467,12.467,0,0,0,12.463-12.463V293.52A12.464,12.464,0,0,0,513.031,281.057Z" transform="translate(-303.988 -281.057)" fill="#fed55f"/>
          <rect id="Rectángulo_5918" data-name="Rectángulo 5918" width="132.475" height="7.627" transform="translate(74.074 17.092)" fill="#01549e"/>
          <rect id="Rectángulo_5919" data-name="Rectángulo 5919" width="132.475" height="7.627" transform="translate(74.074 32.653)" fill="#01549e"/>
          <rect id="Rectángulo_5920" data-name="Rectángulo 5920" width="132.475" height="7.627" transform="translate(74.074 48.215)" fill="#01549e"/>
          <rect id="Rectángulo_5921" data-name="Rectángulo 5921" width="87.925" height="7.627" transform="translate(74.074 63.776)" fill="#01549e"/>
          <path id="Trazado_103362" data-name="Trazado 103362" d="M357.646,310.135a25.556,25.556,0,1,1-25.558-25.558A25.557,25.557,0,0,1,357.646,310.135Z" transform="translate(-294.062 -267.339)" fill="#01549e"/>
          <ellipse id="Elipse_4199" data-name="Elipse 4199" cx="7.212" cy="7.438" rx="7.212" ry="7.438" transform="translate(30.815 27.757)" fill="#fff"/>
          <path id="Trazado_103363" data-name="Trazado 103363" d="M322.177,289.992h-.26a12.8,12.8,0,0,0-12.806,12.8v8.164a24.841,24.841,0,0,0,25.871,0v-8.164A12.8,12.8,0,0,0,322.177,289.992Z" transform="translate(-284.019 -246.236)" fill="#fff"/>
        </g>
        <g id="Grupo_57341" data-name="Grupo 57341" transform="translate(238.499)">
          <path id="Trazado_103364" data-name="Trazado 103364" d="M561.728,247.467H365.153A12.461,12.461,0,0,0,352.69,259.93v63.388a12.461,12.461,0,0,0,12.463,12.463h56.914l-15.25,39.887L446.7,335.782H561.728a12.464,12.464,0,0,0,12.463-12.463V259.93A12.464,12.464,0,0,0,561.728,247.467Z" transform="translate(-352.69 -247.467)" fill="#d0d1de"/>
          <rect id="Rectángulo_5922" data-name="Rectángulo 5922" width="132.475" height="7.628" transform="translate(74.07 17.093)" fill="#fff"/>
          <rect id="Rectángulo_5923" data-name="Rectángulo 5923" width="132.475" height="7.627" transform="translate(74.07 32.654)" fill="#fff"/>
          <rect id="Rectángulo_5924" data-name="Rectángulo 5924" width="132.475" height="7.627" transform="translate(74.07 48.216)" fill="#fff"/>
          <rect id="Rectángulo_5925" data-name="Rectángulo 5925" width="87.925" height="7.627" transform="translate(74.07 63.778)" fill="#fff"/>
          <path id="Trazado_103365" data-name="Trazado 103365" d="M406.347,276.545a25.556,25.556,0,1,1-25.553-25.558A25.556,25.556,0,0,1,406.347,276.545Z" transform="translate(-342.768 -233.749)" fill="#110239"/>
          <path id="Trazado_103366" data-name="Trazado 103366" d="M373.4,260.574a7.214,7.214,0,1,1-7.209-7.439A7.326,7.326,0,0,1,373.4,260.574Z" transform="translate(-328.169 -225.378)" fill="#fff"/>
          <path id="Trazado_103367" data-name="Trazado 103367" d="M370.878,256.4h-.259a12.807,12.807,0,0,0-12.806,12.806v8.163a24.871,24.871,0,0,0,25.872,0v-8.163A12.807,12.807,0,0,0,370.878,256.4Z" transform="translate(-332.725 -212.646)" fill="#fff"/>
        </g>
      </g>
      <g id="Grupo_57344" data-name="Grupo 57344" transform="translate(606.951 505.266)">
        <rect id="Rectángulo_5926" data-name="Rectángulo 5926" width="100.934" height="32.033" rx="2.345" fill="#fed55f"/>
        <g id="Grupo_57343" data-name="Grupo 57343" transform="translate(27.16 8.124)">
          <path id="Trazado_103368" data-name="Trazado 103368" d="M384.6,305.711a3.461,3.461,0,0,1-2.7,3.384,3.85,3.85,0,0,1,3.208,3.937c0,2.674-2.336,4.344-6.009,4.344h-7.7V301.769h7.409C382.355,301.769,384.6,303.307,384.6,305.711Zm-4.187.71c0-.935-.69-1.489-1.827-1.469h-3.115v3.031h3.115C379.725,307.983,380.416,307.4,380.416,306.421Zm.49,6.1c0-.979-.891-1.6-2.316-1.582h-3.115v3.271h3.115C380.014,314.212,380.905,313.591,380.905,312.523Z" transform="translate(-371.4 -301.769)" fill="#01549e"/>
          <path id="Trazado_103369" data-name="Trazado 103369" d="M381.855,314.08a2.955,2.955,0,0,0,3.051-3.247v-9.064h4.074v9.064c0,4.114-2.762,6.719-7.15,6.719-4.408,0-7.233-2.605-7.233-6.719v-9.064h4.074v9.064A3.042,3.042,0,0,0,381.855,314.08Z" transform="translate(-358.937 -301.769)" fill="#01549e"/>
          <path id="Trazado_103370" data-name="Trazado 103370" d="M387.582,312.391v4.985h-4.074V312.5l-5.744-10.734h4.074l3.7,6.7,3.609-6.7h4.069Z" transform="translate(-346.603 -301.769)" fill="#01549e"/>
        </g>
      </g>
      <g id="Grupo_57346" data-name="Grupo 57346" transform="translate(393.359 308.624)">
        <path id="Trazado_103371" data-name="Trazado 103371" d="M377.183,279.758a57.78,57.78,0,0,1-15.769.7,23.262,23.262,0,0,1-5.539-1.2c.255,6.567.3,21.959-4.368,28.335,0,0,1.68,7.566,15.348,7.791s15.206-10.083,15.206-10.083S377.462,289.445,377.183,279.758Z" transform="translate(-208.173 -184.766)" fill="#f88667"/>
        <path id="Trazado_103372" data-name="Trazado 103372" d="M351.581,307.824a4.633,4.633,0,0,0,.206.534l.034.069a7.785,7.785,0,0,0,.426.8l.02.039a10.353,10.353,0,0,0,.7.97l.118.137a11.055,11.055,0,0,0,2.478,2.15l.176.122a14.769,14.769,0,0,0,1.851.97c.088.039.186.074.274.113a18.054,18.054,0,0,0,2.4.818,19.231,19.231,0,0,1,4.025-9.7,24.126,24.126,0,0,1,15.387-8.932,92.656,92.656,0,0,1-2.488-16.151,57.78,57.78,0,0,1-15.769.7,23.262,23.262,0,0,1-5.539-1.2c.255,6.567.3,21.959-4.368,28.335l.044.162Z" transform="translate(-208.173 -184.766)" fill="#e45940"/>
        <path id="Trazado_103373" data-name="Trazado 103373" d="M357.566,274.472s22.395-6.611,25.96-1.19,2.919,14.182,4.407,18.041,7.042,7.928,7.635,9.471-3.722,4.5-4.324,5.7-2.855,13.879-6.743,16.675-24.735-4.628-29.9-14.471S351.562,277.714,357.566,274.472Z" transform="translate(-207.489 -216.341)" fill="#f88667"/>
        <path id="Trazado_103374" data-name="Trazado 103374" d="M377.365,280.47A22.214,22.214,0,0,1,375,292.037c-1.337,2.679,5.348,9.8,3.487,13.036-1.239,2.155-3.051,1.611-4.7-2.649-.563-1.454-2.169-2.463-3.619-3.09-5.48-2.37-6.758,5.979-1.841,8.462,3.438,1.733,1.391,10.445,1.391,10.445-3.692,2.84-15.9-.588-14.564-9.5.852-5.676,1.229-7.835-.759-9.216-3.6-2.5-8.281-9.451-2.361-15.338,8.164-8.115.72-10.7,10.157-13.036S379.431,274.569,377.365,280.47Z" transform="translate(-217.086 -218.407)" fill="#110239"/>
        <path id="Trazado_103375" data-name="Trazado 103375" d="M351.556,280.588c.529-2.057,4.255-4.711,6.1-6.082a27.153,27.153,0,0,1,9.657-4.358,24.883,24.883,0,0,1,10.764-.362c3.061.583,5.627,1.944,8.761,2.3,2.894.333,5.774.2,7.806-1.513a19.993,19.993,0,0,1,.387,7.086c-.509,2.791-2.356,5.294-4.026,7.786-4.544,6.778-16.9,10.534-25.612,6.949-4.212-1.729-7.987-3.227-10.054-6.885A22.1,22.1,0,0,0,351.556,280.588Z" transform="translate(-207.982 -223.299)" fill="#110239"/>
        <path id="Trazado_103376" data-name="Trazado 103376" d="M395.7,274.636l21.65,48.046s-6.337,7.125-8.452,5.544-34.578-40.568-37.747-42.59S395.7,274.636,395.7,274.636Z" transform="translate(-132.609 -202.744)" fill="#110239"/>
        <path id="Trazado_103377" data-name="Trazado 103377" d="M365,324.95s.088,13.815,8.536,16.983c0,0,43.3-17.943,52.007-19.662s40.391-1.988,40.391-1.988L433.99,263.261s-15.313,30.622-29.3,40.656S365,324.95,365,324.95Z" transform="translate(-155.589 -247.073)" fill="#fed55f"/>
        <path id="Trazado_103378" data-name="Trazado 103378" d="M377.558,296.544c3.428-1.362,7-2.772,10.519-4.128-5.309-5.97-8.061-14.3-9.114-19.539-3.281,1.88-6.684,3.7-9.98,5.382A39.753,39.753,0,0,0,377.558,296.544Z" transform="translate(-140.067 -209.603)" fill="#110239"/>
        <path id="Trazado_103379" data-name="Trazado 103379" d="M429.415,290.81c9.02,21.748,5.832,43.736-7.115,49.1S391.541,332,382.525,310.252s-5.832-43.736,7.116-49.1S420.4,269.057,429.415,290.81Z" transform="translate(-107.282 -259.955)" fill="#01549e"/>
        <path id="Trazado_103380" data-name="Trazado 103380" d="M422.88,287.293c7.669,18.5,4.956,37.2-6.058,41.768s-26.165-6.729-33.834-25.23-4.961-37.2,6.053-41.772S415.207,268.787,422.88,287.293Z" transform="translate(-102.491 -255.714)" fill="#110239"/>
        <path id="Trazado_103381" data-name="Trazado 103381" d="M380.084,290.631c-1.028-.627-.739-4.5-.529-5.5.328-1.577,1.415-3.629.323-5.132-1.93-2.664-4.647,4.5-5,5.539-.676,1.988-.921,3.345-.495,4.775a18.723,18.723,0,0,0,4.143,6.254c-.2.715-.421,1.454-.7,2.243a47.047,47.047,0,0,1,5.22,2.644c2.091,1.2,1.979,2.693,3.937,4.035L388.943,301C388.121,299.979,381.8,291.669,380.084,290.631Z" transform="translate(-119.841 -184.141)" fill="#f88667"/>
        <path id="Trazado_103382" data-name="Trazado 103382" d="M388.077,279.45c-1.871-2.018-4.785-1.244-7.047.411-1.655,1.2-6.415,5.054-5.132,7.845,1.068,2.326,7.194-2.816,7.194-2.816-2.258,1.944-6.464,3.5-5.406,5.441,1.18,2.164,6.528-.921,7.7-1.783-1.2.309-7.174,3.932-4.779,5.827,1.641,1.293,6.028-1.425,7.346-2.35-1.763.534-4.163,2.1-3.7,4.544.764,1.332,3.428.451,4.912-.157,2.243-.906,4.349-1.259,4.53-4.04a11.723,11.723,0,0,0,.073-1.508,15.148,15.148,0,0,0-1.969-6.053A26.307,26.307,0,0,0,388.077,279.45Z" transform="translate(-113.965 -188.684)" fill="#f88667"/>
        <path id="Trazado_103383" data-name="Trazado 103383" d="M368.443,316.745a24.577,24.577,0,0,1-2.5-5.323c-.558-1.6-.95-3.227-1.5-4.819a12.663,12.663,0,0,1-1.077-4.721,13.579,13.579,0,0,1,.583-2.884c.318-1.224.769-2.414,1.019-3.653.225-1.107.127-2.179.338-3.281a19.558,19.558,0,0,1,1.9-6.053,22.759,22.759,0,0,1,2.782-3.83,14.24,14.24,0,0,1,1.646-1.753,4.346,4.346,0,0,0,1.508-1.856,1.776,1.776,0,0,0-1.293-2.395c-1.925-.49-4.961.4-6.136,2.013-1.631,2.243-2.4,4.99-4.216,7.155-5.553,6.616-10.764-1.175-17.243-3.972a38.782,38.782,0,0,1-6.263-4.04c-1.156-.872-6.131-5.6-8.482-4.363-1.729.906,1.655,4.878,3.3,5.847.647.382,6.195,4.892,6.92,5.108-1.636-.279-5.891-3.09-9.309-5.764-2.458-1.925-4.838-3.82-6.18-2.723-4.123,3.379,12.057,11.111,13.32,11.822-1.347.113-14.015-8.854-15.21-5.558-.661,1.812,1.969,3.609,4.118,4.78,2.693,1.464,7.218,2.512,8.237,3.3-1.91.651-10.294-5.054-10.3-1.572,0,2.277,5.206,3.981,7.165,4.579,2.022.617,7.953,4.652,9.833,5.543,6.258,2.982,8.844,2.64,11.312,6.386,1.572,2.395,4.373,15.014,6.645,19.818Z" transform="translate(-322.238 -210.034)" fill="#f88667"/>
        <path id="Trazado_103384" data-name="Trazado 103384" d="M430.747,283.02c-5.583,16.253-17.522,45-21.459,42.987-7.395-3.79-23.305-16.8-35.191-24.755-9.212-6.165-13.82-7.963-13.82-7.963l8.271,39.231s39.221,29.789,47.438,25.225c6.464-3.59,22.37-48.883,27.982-67.654C443.97,290.091,430.84,283.093,430.747,283.02Z" transform="translate(-173.991 -170.07)" fill="#01c7e2"/>
        <path id="Trazado_103385" data-name="Trazado 103385" d="M387.309,314.967c-4.417-5.739-21.288-22.262-25.852-25.783l1.318,18.609s39.534,29.721,48.285,26.009C403.528,328.958,392.681,321.936,387.309,314.967Z" transform="translate(-169.396 -146.049)" fill="#00a7cc"/>
        <path id="Trazado_103386" data-name="Trazado 103386" d="M418.971,311.8s-48.236,19.471-53.486,18.1-22.737-51.1-22.737-51.1l-14.608,5.935s15.6,71.733,25.646,75.083,69.906-13.937,69.906-13.937S424.677,328.464,418.971,311.8Z" transform="translate(-299.236 -186.508)" fill="#01c7e2"/>
        <path id="Trazado_103387" data-name="Trazado 103387" d="M348.565,316.475c-4.251,1.528-8.575,3.026-12.919,4.3,20.46-2.7,58.795-13.771,58.795-13.771a104.7,104.7,0,0,0-1.048-18.232C381.517,301.637,364.627,310.711,348.565,316.475Z" transform="translate(-269.985 -147.635)" fill="#00a7cc"/>
        <path id="Trazado_103388" data-name="Trazado 103388" d="M398.762,276.512c-2.209-6.8-8.844-10.749-14.828-8.81a10.315,10.315,0,0,0-4.985,3.614,59.62,59.62,0,0,0,2.782,8.492,57.422,57.422,0,0,0,7.444,12.982,10.033,10.033,0,0,0,2.747-.446C397.9,290.4,400.965,283.314,398.762,276.512Z" transform="translate(-101.232 -231.691)" fill="#d0d1de"/>
        <g id="Grupo_57345" data-name="Grupo 57345" transform="translate(115.783 118.65)">
          <path id="Trazado_103389" data-name="Trazado 103389" d="M349.911,349.5c-1.7,16.743-3.027,51.929-4.03,56.85h79.147c1.4-26.288.931-64.358-.372-78.368-2.267-24.407-8.271-39.231-8.271-39.231s-5.911-1.871-12.919-4.569c0,0-14.569,8.9-28.134.122,0,0-24.486,5.8-27.443,7.214C345.43,292.69,351.733,331.627,349.911,349.5Z" transform="translate(-345.881 -284.184)" fill="#01c7e2"/>
          <path id="Trazado_103390" data-name="Trazado 103390" d="M370.846,350.405a62.521,62.521,0,0,0-4.53-22.83,20.852,20.852,0,0,1-1.454-5.127,34.034,34.034,0,0,0-3.35-11.69c-1.768-2.674-3.56-5.333-5.308-8.021-.975-1.312-1.993-2.708-3.12-4.353a75.273,75.273,0,0,1-4.833-8.55c.926,12.292,2.571,28.707,1.66,37.654-1.7,16.743-3.027,51.929-4.03,56.851h36.836c-4.736-6.092-7.576-13.506-10.358-22.551A40.373,40.373,0,0,1,370.846,350.405Z" transform="translate(-345.881 -262.169)" fill="#00a7cc"/>
        </g>
      </g>
    </g>
  </g>
</svg>
