<svg xmlns="http://www.w3.org/2000/svg" width="239.684" height="239.684" viewBox="0 0 239.684 239.684">
  <g id="Grupo_58444" data-name="Grupo 58444" transform="translate(-285 -831)">
    <g id="Grupo_54311" data-name="Grupo 54311" transform="translate(-709.563 259.947)">
      <g id="Grupo_54310" data-name="Grupo 54310" transform="translate(994.562 571.053)">
        <g id="Grupo_54287" data-name="Grupo 54287" transform="translate(4.054 35.1)">
          <g id="Grupo_54286" data-name="Grupo 54286">
            <path id="Trazado_100959" data-name="Trazado 100959" d="M1039.763,652.588l-43.329-11.609a119.721,119.721,0,0,1,31.046-53.717l31.709,31.711A74.934,74.934,0,0,0,1039.763,652.588Z" transform="translate(-996.434 -587.262)" fill="#f69f23"/>
          </g>
        </g>
        <g id="Grupo_54289" data-name="Grupo 54289" transform="translate(88.815 192.299)">
          <g id="Grupo_54288" data-name="Grupo 54288">
            <path id="Trazado_100960" data-name="Trazado 100960" d="M1066.6,662.393a75.134,75.134,0,0,0,19.414-2.536l11.609,43.329a120.719,120.719,0,0,1-62.05,0l11.609-43.329A75.054,75.054,0,0,0,1066.6,662.393Z" transform="translate(-1035.576 -659.855)" fill="#7421b0"/>
          </g>
        </g>
        <g id="Grupo_54291" data-name="Grupo 54291" transform="translate(139.256 172.873)">
          <g id="Grupo_54290" data-name="Grupo 54290">
            <path id="Trazado_100961" data-name="Trazado 100961" d="M1092.484,650.884,1124.2,682.6a119.725,119.725,0,0,1-53.717,31.047l-11.609-43.329A74.925,74.925,0,0,0,1092.484,650.884Z" transform="translate(-1058.869 -650.884)" fill="#3a48ba"/>
          </g>
        </g>
        <g id="Grupo_54293" data-name="Grupo 54293" transform="translate(35.098 172.871)">
          <g id="Grupo_54292" data-name="Grupo 54292">
            <path id="Trazado_100962" data-name="Trazado 100962" d="M1076.1,670.312l-11.609,43.329a119.724,119.724,0,0,1-53.717-31.047l31.711-31.711A74.917,74.917,0,0,0,1076.1,670.312Z" transform="translate(-1010.77 -650.883)" fill="#d2298e"/>
          </g>
        </g>
        <g id="Grupo_54295" data-name="Grupo 54295" transform="translate(172.87 139.258)">
          <g id="Grupo_54294" data-name="Grupo 54294">
            <path id="Trazado_100963" data-name="Trazado 100963" d="M1093.821,635.361l43.329,11.609a119.724,119.724,0,0,1-31.046,53.717l-31.711-31.711A74.9,74.9,0,0,0,1093.821,635.361Z" transform="translate(-1074.392 -635.361)" fill="#006fc4"/>
          </g>
        </g>
        <g id="Grupo_54297" data-name="Grupo 54297" transform="translate(4.054 139.256)">
          <g id="Grupo_54296" data-name="Grupo 54296">
            <path id="Trazado_100964" data-name="Trazado 100964" d="M1039.763,635.36a74.911,74.911,0,0,0,19.426,33.615l-31.711,31.711a119.73,119.73,0,0,1-31.044-53.715Z" transform="translate(-996.434 -635.36)" fill="#ff2600"/>
          </g>
        </g>
        <g id="Grupo_54299" data-name="Grupo 54299" transform="translate(35.1 4.054)">
          <g id="Grupo_54298" data-name="Grupo 54298">
            <path id="Trazado_100965" data-name="Trazado 100965" d="M1042.48,635.683l-31.709-31.711a119.705,119.705,0,0,1,53.715-31.047l11.609,43.329A74.959,74.959,0,0,0,1042.48,635.683Z" transform="translate(-1010.771 -572.925)" fill="#fac712"/>
          </g>
        </g>
        <g id="Grupo_54301" data-name="Grupo 54301" transform="translate(88.815)">
          <g id="Grupo_54300" data-name="Grupo 54300">
            <path id="Trazado_100966" data-name="Trazado 100966" d="M1066.6,615.9a75.144,75.144,0,0,0-19.418,2.538l-11.609-43.329a120.747,120.747,0,0,1,62.05,0c-2.809,10.483-5.838,21.787-11.609,43.329A75.124,75.124,0,0,0,1066.6,615.9Z" transform="translate(-1035.576 -571.053)" fill="#feef00"/>
          </g>
        </g>
        <g id="Grupo_54303" data-name="Grupo 54303" transform="translate(0 88.817)">
          <g id="Grupo_54302" data-name="Grupo 54302">
            <path id="Trazado_100967" data-name="Trazado 100967" d="M1039.407,643.093a75.11,75.11,0,0,0,2.538,19.413l-43.329,11.611a120.743,120.743,0,0,1,0-62.05l43.329,11.609A75.127,75.127,0,0,0,1039.407,643.093Z" transform="translate(-994.562 -612.068)" fill="#fb6312"/>
          </g>
        </g>
        <g id="Grupo_54305" data-name="Grupo 54305" transform="translate(192.299 88.815)">
          <g id="Grupo_54304" data-name="Grupo 54304">
            <path id="Trazado_100968" data-name="Trazado 100968" d="M1085.9,643.094a75.032,75.032,0,0,0-2.538-19.416l43.329-11.611a120.7,120.7,0,0,1,0,62.052l-43.329-11.609A75.045,75.045,0,0,0,1085.9,643.094Z" transform="translate(-1083.364 -612.067)" fill="#00afcf"/>
          </g>
        </g>
        <g id="Grupo_54307" data-name="Grupo 54307" transform="translate(139.256 4.054)">
          <g id="Grupo_54306" data-name="Grupo 54306">
            <path id="Trazado_100969" data-name="Trazado 100969" d="M1058.869,616.254c5.771-21.542,8.8-32.846,11.609-43.329a119.726,119.726,0,0,1,53.717,31.047l-31.711,31.709A74.919,74.919,0,0,0,1058.869,616.254Z" transform="translate(-1058.869 -572.925)" fill="#7fd200"/>
          </g>
        </g>
        <g id="Grupo_54309" data-name="Grupo 54309" transform="translate(172.87 35.1)">
          <g id="Grupo_54308" data-name="Grupo 54308">
            <path id="Trazado_100970" data-name="Trazado 100970" d="M1074.392,618.971l31.711-31.709a119.716,119.716,0,0,1,31.046,53.715l-43.329,11.611A74.911,74.911,0,0,0,1074.392,618.971Z" transform="translate(-1074.392 -587.262)" fill="#00b500"/>
          </g>
        </g>
      </g>
      <circle id="Elipse_4114" data-name="Elipse 4114" cx="9.753" cy="9.753" r="9.753" transform="translate(1052.571 599.795)"/>
      <circle id="Elipse_4115" data-name="Elipse 4115" cx="9.753" cy="9.753" r="9.753" transform="translate(1152.755 598.899)"/>
      <circle id="Elipse_4116" data-name="Elipse 4116" cx="9.753" cy="9.753" r="9.753" transform="translate(1104.649 777.292)"/>
      <path id="Trazado_100971" data-name="Trazado 100971" d="M1025.415,588.416l53.029,62.828,48.106-62.828" transform="translate(35.958 20.236)" fill="none" stroke="#000" stroke-linecap="round" stroke-linejoin="round" stroke-width="3"/>
      <line id="Línea_187" data-name="Línea 187" y1="115.565" transform="translate(1114.402 671.48)" fill="none" stroke="#000" stroke-linecap="round" stroke-linejoin="round" stroke-width="3"/>
    </g>
  </g>
</svg>
