<svg xmlns="http://www.w3.org/2000/svg" width="820" height="444.482" viewBox="0 0 820 444.482">
  <g id="Grupo_58573" data-name="Grupo 58573" transform="translate(-509 -538.063)">
    <rect id="dylan-shaw-UxyWwU6n_ts-unsplash" width="820" height="195.482" transform="translate(509 787.063)" fill="#bfeffc"/>
    <g id="Grupo_57338" data-name="Grupo 57338" transform="translate(492.906 295.643)">
      <g id="Grupo_57308" data-name="Grupo 57308" transform="translate(187.676 357.45)">
        <g id="Grupo_57307" data-name="Grupo 57307">
          <path id="Trazado_103307" data-name="Trazado 103307" d="M247.05,534.744q-38.47,0-56.69-19.4T171.044,450.6l53.8-7.038a139.185,139.185,0,0,0,1.409,21.584q1.407,8.755,4.066,13.369a17.8,17.8,0,0,0,5.707,6.493,13.331,13.331,0,0,0,7.116,1.876q10.633,0,10.633-15.328,0-15.013-6.8-25.8t-21.816-23.613l-16.423-13.918q-8.914-7.659-14.621-13.6a110.227,110.227,0,0,1-11.571-14.625,63.249,63.249,0,0,1-8.683-19.159,89.789,89.789,0,0,1-2.814-23.3q0-33.618,20.254-51.838t55.909-18.378q63.8,0,64.278,75.692l-55.05,5.471q0-10.162-.236-15.249a68.626,68.626,0,0,0-1.331-10.476q-1.1-5.393-3.517-7.509a9.552,9.552,0,0,0-6.493-2.107q-5.788.152-8.757,6.1a26.693,26.693,0,0,0-2.971,12.042,37.215,37.215,0,0,0,.545,6.419q.548,3.126,1.021,5.55a18.86,18.86,0,0,0,2.029,5.319q1.566,2.891,2.348,4.612A22.284,22.284,0,0,0,242.2,357.7c1.562,1.881,2.6,3.179,3.128,3.914a35.259,35.259,0,0,0,3.752,3.909q2.967,2.807,3.6,3.364c.411.365,1.77,1.562,4.062,3.595s3.544,3.152,3.757,3.359l15.014,13.295A205.742,205.742,0,0,1,291.7,405.25a128.46,128.46,0,0,1,12.745,17.282,77.378,77.378,0,0,1,9.15,21.271,96.3,96.3,0,0,1,3.05,24.782q0,28-19.159,47.074T247.05,534.744Z" transform="translate(-171.044 -267.313)" fill="#12263f"/>
          <path id="Trazado_103308" data-name="Trazado 103308" d="M208.543,527.49v-259.3H329.9v42.546H272.035V368.6H315.2v44.1H272.035v72.411h58.492V527.49Z" transform="translate(-35.26 -264.13)" fill="#12263f"/>
          <path id="Trazado_103309" data-name="Trazado 103309" d="M357.71,529.032q-15.727,5.7-37.929,5.712t-37.846-5.712q-15.631-5.7-24.861-17.051a70.04,70.04,0,0,1-13.3-26.742q-4.069-15.395-4.062-36.358v-95.71q0-20.954,4.062-36.362a70.173,70.173,0,0,1,13.3-26.742q9.226-11.333,24.861-17.047t37.846-5.707q22.215,0,37.929,5.707t25.018,17.047a70.426,70.426,0,0,1,13.452,26.742q4.145,15.4,4.145,36.362v95.71q0,20.961-4.145,36.358a70.291,70.291,0,0,1-13.452,26.742Q373.419,523.328,357.71,529.032Zm-37.929-38.239a14.582,14.582,0,0,0,8.452-2.264,12.439,12.439,0,0,0,4.691-6.649,41.222,41.222,0,0,0,1.8-7.976,86.649,86.649,0,0,0,.388-8.914V336.905a86.646,86.646,0,0,0-.388-8.914,39.893,39.893,0,0,0-1.8-7.9,12.4,12.4,0,0,0-4.691-6.566,14.584,14.584,0,0,0-8.452-2.269,14.149,14.149,0,0,0-7.195,1.719,13.115,13.115,0,0,0-4.459,3.988,17.775,17.775,0,0,0-2.264,6.257,42.505,42.505,0,0,0-.864,6.567c-.051,1.723-.069,4.094-.069,7.116V464.99c0,2.92.018,5.268.069,7.033a42.483,42.483,0,0,0,.864,6.65,17.773,17.773,0,0,0,2.264,6.257,13.743,13.743,0,0,0,11.654,5.864Z" transform="translate(77.606 -267.313)" fill="#12263f"/>
        </g>
      </g>
      <g id="Grupo_57311" data-name="Grupo 57311" transform="translate(383.433 242.42)">
        <path id="Trazado_103310" data-name="Trazado 103310" d="M231.48,254.352s7.3,26.335,10.892,30.642,15.323,10.656,15.323,10.656l-3.115,5.5s-21.317-10.864-25.013-19.75a66.887,66.887,0,0,1-4.311-13.646c-.587-3.258-2.995-11.363-1.793-14.6C224.244,251.048,229.807,249.925,231.48,254.352Z" transform="translate(-178.193 -210.255)" fill="#00bad1"/>
        <path id="Trazado_103311" data-name="Trazado 103311" d="M231.48,254.352s7.3,26.335,10.892,30.642,15.323,10.656,15.323,10.656l-3.115,5.5s-21.317-10.864-25.013-19.75a66.887,66.887,0,0,1-4.311-13.646c-.587-3.258-2.995-11.363-1.793-14.6C224.244,251.048,229.807,249.925,231.48,254.352Z" transform="translate(-178.193 -210.255)" fill="#00a1cc" opacity="0.65" style="mix-blend-mode: multiply;isolation: isolate"/>
        <path id="Trazado_103312" data-name="Trazado 103312" d="M240.769,283.59l5.379-5.028s21.52-1.58,22.777.305-20.4,12.107-23.184,11.922S241.134,285.66,240.769,283.59Z" transform="translate(-114.327 -113.796)" fill="#110239"/>
        <path id="Trazado_103313" data-name="Trazado 103313" d="M232.824,265.725s20.346-5.176,22.019-1.825,22.8,69.6,22.8,69.6l-5.379,5.028s-22.652-55.914-29.214-61.76S229.788,268.035,232.824,265.725Z" transform="translate(-145.822 -168.731)" fill="#f88667"/>
        <path id="Trazado_103314" data-name="Trazado 103314" d="M232.824,265.725s20.346-5.176,22.019-1.825,22.8,69.6,22.8,69.6l-5.379,5.028s-22.652-55.914-29.214-61.76S229.788,268.035,232.824,265.725Z" transform="translate(-145.822 -168.731)" fill="#e45940"/>
        <g id="Grupo_57309" data-name="Grupo 57309" transform="translate(73.955 82.043)">
          <path id="Trazado_103315" data-name="Trazado 103315" d="M231.963,262.926a18.071,18.071,0,0,0,4.228-1.7,5.592,5.592,0,0,1,3.59-1.017c.97.139,8.789,3.392,6.705,4.847-.675.471-2.361-.356-3.036-.6-.957-.342-1.927-.813-2.847-1.224.841-.042,5.069,1.751,4.626,2.74-.776,1.738-5.06-.582-6.058-1.141.763.116,3.41,1.109,3.406,2.075,0,1.52-3.151.25-3.835-.1a4.521,4.521,0,0,0-1.432-.7,5.75,5.75,0,0,0-1.913.337,11.208,11.208,0,0,1-3.336.065c-.651-.06-2.167.079-2.491-.481a2.394,2.394,0,0,1,.42-2.375A4.786,4.786,0,0,1,231.963,262.926Z" transform="translate(-229.411 -260.174)" fill="#f88667"/>
          <path id="Trazado_103316" data-name="Trazado 103316" d="M231.963,262.926a18.071,18.071,0,0,0,4.228-1.7,5.592,5.592,0,0,1,3.59-1.017c.97.139,8.789,3.392,6.705,4.847-.675.471-2.361-.356-3.036-.6-.957-.342-1.927-.813-2.847-1.224.841-.042,5.069,1.751,4.626,2.74-.776,1.738-5.06-.582-6.058-1.141.763.116,3.41,1.109,3.406,2.075,0,1.52-3.151.25-3.835-.1a4.521,4.521,0,0,0-1.432-.7,5.75,5.75,0,0,0-1.913.337,11.208,11.208,0,0,1-3.336.065c-.651-.06-2.167.079-2.491-.481a2.394,2.394,0,0,1,.42-2.375A4.786,4.786,0,0,1,231.963,262.926Z" transform="translate(-229.411 -260.174)" fill="#e45940"/>
        </g>
        <g id="Grupo_57310" data-name="Grupo 57310" transform="translate(65.716 49.628)">
          <path id="Trazado_103317" data-name="Trazado 103317" d="M250.515,253.16l4.786,1.964-16.44,39.67-4.84-2.614Z" transform="translate(-204.474 -253.16)" fill="#110239"/>
          <rect id="Rectángulo_5906" data-name="Rectángulo 5906" width="31.3" height="4.862" transform="translate(0 38.328)" fill="#110239"/>
        </g>
        <path id="Trazado_103318" data-name="Trazado 103318" d="M223.764,307.765c4.187-2.4,4.889-5.042,2.569-13.8s3.752-17.842,9.589-20.245c4.288-1.77,8.05-2.546,10.661-7.116s-2.334-14.316,5.924-21.539c6.017-5.259,14.653-1.058,14.653-1.058,1.858-1.026,2.625,9.806,2.759,17.953-10.457,16.007-7.481,36.922-3.669,54.842a8.134,8.134,0,0,0,.384,1.2c-.823,13.872-1.483,25.355-1.483,25.355s-25.138,14.233-42.241,2.047S215.377,312.561,223.764,307.765Z" transform="translate(-213.406 -242.42)" fill="#110239"/>
        <path id="Trazado_103319" data-name="Trazado 103319" d="M235.948,278.452l6.386,3.674s7.819,20.106,6.382,21.862-17.555-15.956-18.193-18.669S234.077,279.413,235.948,278.452Z" transform="translate(-151.664 -111.949)" fill="#110239"/>
        <path id="Trazado_103320" data-name="Trazado 103320" d="M243.266,263.2s41.016,2.874,44.847,6.543-30.993,67.443-30.993,67.443l-5.716-3.29s8.618-30.318,10.855-37.342,6.543-15.48,5.744-16.6-42.13,5.111-41.811-6.543S243.266,263.2,243.266,263.2Z" transform="translate(-167.119 -167.391)" fill="#f88667"/>
        <path id="Trazado_103321" data-name="Trazado 103321" d="M238.076,253.441s-4.307,11.728-1.677,20.466l-14.362-3.47s5.878-19.63,8.392-22.98S238.076,253.441,238.076,253.441Z" transform="translate(-182.155 -226.816)" fill="#f88667"/>
        <path id="Trazado_103322" data-name="Trazado 103322" d="M232.092,263.972c-4.7,0-7.139,3.475-7.366,7.116l-2.689-.652s5.878-19.63,8.392-22.98,7.648,5.984,7.648,5.984a48.237,48.237,0,0,0-2.412,11.386A7.6,7.6,0,0,0,232.092,263.972Z" transform="translate(-182.155 -226.816)" fill="#e45940"/>
        <path id="Trazado_103323" data-name="Trazado 103323" d="M235.487,245.176s5.582,2.666,6.913,4.917.171,5.356.282,7.412.675,5.111.365,5.61-2.366,0-2.7.444-3,2.112-3.831,4-1.945,2.056-3.891,1.114-9.381-10.776-9.464-15.383S229.965,243.29,235.487,245.176Z" transform="translate(-178.082 -233.841)" fill="#f88667"/>
        <path id="Trazado_103324" data-name="Trazado 103324" d="M235.444,243.52s2.6,5.208,2.87,7.273-1.705,8.17-2.87,8.979-.18-6.825-3.142-4.492.175,6.733,0,7.634a5.49,5.49,0,0,1-4.579,4.039c-3.054.268-8.082-14.9-4.76-18.673S231.941,243.52,235.444,243.52Z" transform="translate(-182.762 -238.438)" fill="#110239"/>
        <path id="Trazado_103325" data-name="Trazado 103325" d="M225.027,244.042a8.24,8.24,0,0,1,10.023.448c5.12,4.131,4.94,10.328,9.159,9.787,0,0-2.782,7.186-8.891,5.476S222.9,248.353,225.027,244.042Z" transform="translate(-172.853 -242.014)" fill="#110239"/>
        <path id="Trazado_103326" data-name="Trazado 103326" d="M226.066,261.551l19.025-1.437s9.9,11.053,19.676,11.053H298.2s-1.807,15.259-9.857,26.3c0,0-31.76,1-47.24-.277S210.9,278.843,226.066,261.551Z" transform="translate(-190.612 -178.351)" fill="#fed55f"/>
        <path id="Trazado_103327" data-name="Trazado 103327" d="M220.694,263.783c.545-.744,1.123-1.488,1.779-2.232l19.025-1.437s9.635,10.739,19.283,11.03C249.127,272.323,226.863,274.9,220.694,263.783Z" transform="translate(-187.018 -178.351)" fill="#f2b60b"/>
        <path id="Trazado_103328" data-name="Trazado 103328" d="M246,264.742c-4.847-.476-9.552-1.631-14.325-2.236h20.975C250.582,263.573,249.561,265.089,246,264.742Z" transform="translate(-147.245 -169.689)" fill="#f2b60b"/>
        <path id="Trazado_103329" data-name="Trazado 103329" d="M228.335,250.426s8.734,3.433,11.691,3.752c0,0,6.155,13.567,8.549,17.236s-6.072,17.717-6.548,23.78c0,0-5.083,4.857-20.494,1.867C221.532,297.061,217.512,258.961,228.335,250.426Z" transform="translate(-186.628 -213.431)" fill="#00bad1"/>
        <path id="Trazado_103330" data-name="Trazado 103330" d="M226,252.549c2.676-1.225,7.32.028,8.623,2.708,1.608,3.313-.046,9.2.148,12.791.208,3.766.444,8.78,1.4,12.453a25.888,25.888,0,0,0,5.023,9.307c-1.978,1.192-7.7,3.59-19.653,1.271,0,0-2.454-23.23,1.627-37.476C224.273,253.224,225.3,252.868,226,252.549Z" transform="translate(-186.628 -207.449)" fill="#00a1cc" opacity="0.65" style="mix-blend-mode: multiply;isolation: isolate"/>
        <path id="Trazado_103331" data-name="Trazado 103331" d="M231.317,262.926a18.23,18.23,0,0,0,4.228-1.7,5.593,5.593,0,0,1,3.59-1.017c.966.139,8.785,3.392,6.705,4.847-.679.471-2.361-.356-3.036-.6-.961-.342-1.927-.813-2.847-1.224.841-.042,5.069,1.751,4.626,2.74-.781,1.738-5.065-.582-6.058-1.141.758.116,3.406,1.109,3.406,2.075-.009,1.52-3.152.25-3.835-.1a4.547,4.547,0,0,0-1.437-.7,5.771,5.771,0,0,0-1.913.337,11.177,11.177,0,0,1-3.332.065c-.656-.06-2.172.079-2.5-.481a2.416,2.416,0,0,1,.421-2.375A4.78,4.78,0,0,1,231.317,262.926Z" transform="translate(-157.799 -178.132)" fill="#f88667"/>
        <path id="Trazado_103332" data-name="Trazado 103332" d="M264.071,295.053l-1.673,6.3s-41.173-4.787-42.134-12.089,1.677-41.289,11.613-37.758.12,28.183,1.673,30.1S264.071,295.053,264.071,295.053Z" transform="translate(-189.24 -210.453)" fill="#00bad1"/>
      </g>
      <path id="Trazado_103333" data-name="Trazado 103333" d="M339.871,332.164H273.9c-12.32,0-21.123-10.416-17.222-20.522.065-.166.125-.333.2-.5,6.211-13.651,24.547-10.051,29.4-3.711,0,0-12.389-22.449,14.075-22.449,22.2,0,15.328,21.82,15.328,21.82s4.177-16.83,17.213-15.554c21.113,2.075,8.558,23.1,8.558,23.1s21.155-4.755,20.947,6.626S339.871,332.164,339.871,332.164Z" transform="translate(364.333 140.105)" fill="#fff"/>
      <path id="Trazado_103334" data-name="Trazado 103334" d="M230.443,322.1H185.185c-8.452,0-14.5-7.149-11.816-14.08.042-.111.083-.227.134-.342,4.261-9.367,16.843-6.9,20.175-2.551,0,0-8.5-15.4,9.658-15.4,15.231,0,10.517,14.972,10.517,14.972s2.865-11.548,11.807-10.67c14.487,1.423,5.873,15.845,5.873,15.845s14.514-3.267,14.371,4.542S230.443,322.1,230.443,322.1Z" transform="translate(22.726 171.298)" fill="#fff"/>
      <path id="Trazado_103335" data-name="Trazado 103335" d="M313.7,365.174H221.915c-17.139,0-29.394-14.491-23.964-28.548.088-.231.171-.467.277-.7,8.641-19,34.154-13.988,40.91-5.166,0,0-17.236-31.233,19.584-31.233,30.887,0,21.326,30.36,21.326,30.36s5.809-23.419,23.951-21.64c29.371,2.883,11.9,32.13,11.9,32.13s29.436-6.617,29.145,9.219S313.7,365.174,313.7,365.174Z" transform="translate(109.349 206.787)" fill="#fff"/>
      <g id="Grupo_57313" data-name="Grupo 57313" transform="translate(212.043 327.339)">
        <path id="Trazado_103336" data-name="Trazado 103336" d="M246.445,300.648a31.754,31.754,0,0,0,0-9.233l-7.116-1.118a28.376,28.376,0,0,0-.869-3.184l5.642-4.552a35.091,35.091,0,0,0-4.644-7.976l-6.751,2.606a28.946,28.946,0,0,0-2.32-2.32l2.606-6.751a35.091,35.091,0,0,0-7.976-4.644l-4.552,5.647a27.426,27.426,0,0,0-3.184-.873l-1.114-7.116a31.761,31.761,0,0,0-9.233,0l-1.118,7.116a27.1,27.1,0,0,0-3.179.873l-4.556-5.647a35.094,35.094,0,0,0-7.976,4.644l2.606,6.751a28.942,28.942,0,0,0-2.32,2.32l-6.751-2.606A35.094,35.094,0,0,0,179,282.562l5.647,4.552a28.4,28.4,0,0,0-.873,3.184l-7.116,1.118a31.759,31.759,0,0,0,0,9.233l7.116,1.114a28.392,28.392,0,0,0,.873,3.184L179,309.5a35.092,35.092,0,0,0,4.644,7.976l6.751-2.606a28.906,28.906,0,0,0,2.32,2.32l-2.606,6.751a35.1,35.1,0,0,0,7.976,4.644l4.556-5.642a28.023,28.023,0,0,0,3.179.869l1.118,7.116a31.764,31.764,0,0,0,9.233,0l1.114-7.116a28.372,28.372,0,0,0,3.184-.869l4.552,5.642a35.094,35.094,0,0,0,7.976-4.644l-2.606-6.751a28.91,28.91,0,0,0,2.32-2.32l6.751,2.606A35.089,35.089,0,0,0,244.1,309.5l-5.642-4.552a28.366,28.366,0,0,0,.869-3.184Zm-34.893,13.826a18.442,18.442,0,1,1,18.442-18.442A18.44,18.44,0,0,1,211.552,314.474Z" transform="translate(-176.317 -260.797)" fill="#fed55f"/>
        <g id="Grupo_57312" data-name="Grupo 57312" transform="translate(14.496 14.496)">
          <path id="Trazado_103337" data-name="Trazado 103337" d="M200.193,263.934a20.737,20.737,0,1,0,20.739,20.739A20.737,20.737,0,0,0,200.193,263.934Zm0,33.632a12.895,12.895,0,1,1,12.893-12.893A12.9,12.9,0,0,1,200.193,297.566Z" transform="translate(-179.454 -263.934)" fill="#01549e"/>
        </g>
      </g>
      <g id="Grupo_57315" data-name="Grupo 57315" transform="translate(515.254 491.163)">
        <path id="Trazado_103338" data-name="Trazado 103338" d="M316.146,353.5a39.508,39.508,0,0,0,2.089-4.727,38.916,38.916,0,0,0,1.382-4.977l-7.056-3.849a30.742,30.742,0,0,0,.282-3.674l7.643-2.662a39.228,39.228,0,0,0-1.876-10.129l-8.077.2a31.312,31.312,0,0,0-1.567-3.308l5.282-6.114a39.222,39.222,0,0,0-6.636-7.879L300.7,310.6a33.194,33.194,0,0,0-3.018-2.112l1.5-7.9a39.876,39.876,0,0,0-4.723-2.089,39.36,39.36,0,0,0-4.977-1.382l-3.849,7.056a30.814,30.814,0,0,0-3.674-.282l-2.662-7.643a39.043,39.043,0,0,0-10.129,1.881l.2,8.073a31.323,31.323,0,0,0-3.309,1.567l-6.113-5.282a39.375,39.375,0,0,0-7.883,6.636l4.219,6.908a31.477,31.477,0,0,0-2.112,3.018l-7.9-1.5a35.721,35.721,0,0,0-3.475,9.7l7.061,3.849a30.849,30.849,0,0,0-.282,3.673l-7.648,2.662a39.429,39.429,0,0,0,1.881,10.129l8.077-.2a32.293,32.293,0,0,0,1.562,3.309l-5.277,6.114a39.379,39.379,0,0,0,6.636,7.883l6.908-4.219a30.919,30.919,0,0,0,3.017,2.112l-1.506,7.9a38.784,38.784,0,0,0,4.727,2.089,40.134,40.134,0,0,0,4.977,1.386l3.849-7.061a30.818,30.818,0,0,0,3.674.282l2.662,7.648a39.424,39.424,0,0,0,10.129-1.881l-.2-8.078a31.727,31.727,0,0,0,3.3-1.562l6.118,5.277a39.23,39.23,0,0,0,7.879-6.636l-4.214-6.908A32.506,32.506,0,0,0,308.249,352Zm-41.871,1.4a20.584,20.584,0,1,1,26.316-12.444A20.582,20.582,0,0,1,274.275,354.9Z" transform="translate(-241.933 -296.249)" fill="#fed55f"/>
        <g id="Grupo_57314" data-name="Grupo 57314" transform="translate(16.124 16.119)">
          <path id="Trazado_103339" data-name="Trazado 103339" d="M276.377,301.1a23.149,23.149,0,1,0,13.992,29.593A23.141,23.141,0,0,0,276.377,301.1Zm-12.652,35.346a14.394,14.394,0,1,1,18.4-8.7A14.393,14.393,0,0,1,263.725,336.445Z" transform="translate(-245.422 -299.737)" fill="#01549e"/>
        </g>
      </g>
      <g id="Grupo_57337" data-name="Grupo 57337" transform="translate(166.451 356.941)">
        <g id="Grupo_57316" data-name="Grupo 57316" transform="translate(36.994 0)">
          <rect id="Rectángulo_5907" data-name="Rectángulo 5907" width="5.093" height="2.975" fill="#01549e"/>
        </g>
        <g id="Grupo_57317" data-name="Grupo 57317" transform="translate(8.384)">
          <path id="Trazado_103340" data-name="Trazado 103340" d="M192.109,270.179H187.34V267.2h4.769Zm-9.538,0H177.8V267.2h4.769Zm-9.538,0h-4.769V267.2h4.769Z" transform="translate(-168.265 -267.203)" fill="#01549e"/>
        </g>
        <g id="Grupo_57318" data-name="Grupo 57318" transform="translate(0 0)">
          <path id="Trazado_103341" data-name="Trazado 103341" d="M169.43,270.818h-2.979V267.2h3.617v2.975h-.638Z" transform="translate(-166.451 -267.203)" fill="#01549e"/>
        </g>
        <g id="Grupo_57319" data-name="Grupo 57319" transform="translate(0.001 7.8)">
          <path id="Trazado_103342" data-name="Trazado 103342" d="M169.427,340.027h-2.976v-4.182h2.976Zm0-8.364h-2.976v-4.187h2.976Zm0-8.369h-2.976V319.1h2.976Zm0-8.373h-2.976v-4.186h2.976Zm0-8.369h-2.976v-4.186h2.976Zm0-8.368h-2.976V294h2.976Zm0-8.369h-2.976v-4.187h2.976Zm0-8.373h-2.976V277.26h2.976Zm0-8.369h-2.976v-4.182h2.976Z" transform="translate(-166.451 -268.891)" fill="#01549e"/>
        </g>
        <g id="Grupo_57320" data-name="Grupo 57320" transform="translate(0 83.122)">
          <path id="Trazado_103343" data-name="Trazado 103343" d="M170.067,288.805h-3.617v-3.615h2.979v.64h.638Z" transform="translate(-166.451 -285.191)" fill="#01549e"/>
        </g>
        <g id="Grupo_57321" data-name="Grupo 57321" transform="translate(7.815 83.76)">
          <path id="Trazado_103344" data-name="Trazado 103344" d="M231.089,288.3h-4.2v-2.976h4.2Zm-8.392,0h-4.2v-2.976h4.2Zm-8.4,0h-4.2v-2.976h4.2Zm-8.392,0h-4.2v-2.976h4.2Zm-8.392,0h-4.2v-2.976h4.2Zm-8.4,0h-4.2v-2.976h4.2Zm-8.392,0h-4.2v-2.976h4.2Zm-8.392,0h-4.2v-2.976h4.2Z" transform="translate(-168.142 -285.329)" fill="#01549e"/>
        </g>
        <g id="Grupo_57322" data-name="Grupo 57322" transform="translate(74.959 83.762)">
          <path id="Trazado_103345" data-name="Trazado 103345" d="M186.289,288.944H183.31v-.64h-.638v-2.975h3.617Z" transform="translate(-182.672 -285.329)" fill="#01549e"/>
        </g>
        <g id="Grupo_57323" data-name="Grupo 57323" transform="translate(75.596 91.422)">
          <path id="Trazado_103346" data-name="Trazado 103346" d="M185.791,315.258H182.81v-4.039h2.981Zm0-8.078H182.81v-4.039h2.981Zm0-8.077H182.81V295.06h2.981Zm0-8.077H182.81v-4.039h2.981Z" transform="translate(-182.81 -286.987)" fill="#01549e"/>
        </g>
        <g id="Grupo_57324" data-name="Grupo 57324" transform="translate(75.597 123.733)">
          <path id="Trazado_103347" data-name="Trazado 103347" d="M186.427,297.594H182.81v-3.615h2.979v.64h.638Z" transform="translate(-182.81 -293.979)" fill="#01549e"/>
        </g>
        <g id="Grupo_57325" data-name="Grupo 57325" transform="translate(83.549 124.374)">
          <path id="Trazado_103348" data-name="Trazado 103348" d="M258.222,297.094h-4.335v-2.976h4.335Zm-8.669,0h-4.334v-2.976h4.334Zm-8.669,0h-4.334v-2.976h4.334Zm-8.669,0H227.88v-2.976h4.335Zm-8.669,0h-4.339v-2.976h4.339Zm-8.669,0h-4.339v-2.976h4.339Zm-8.669,0h-4.339v-2.976h4.339Zm-8.674,0H193.2v-2.976h4.335Zm-8.669,0h-4.334v-2.976h4.334Z" transform="translate(-184.531 -294.118)" fill="#01549e"/>
        </g>
        <g id="Grupo_57326" data-name="Grupo 57326" transform="translate(161.574 124.373)">
          <path id="Trazado_103349" data-name="Trazado 103349" d="M205.033,297.733h-2.979v-.64h-.638v-2.975h3.617Z" transform="translate(-201.416 -294.118)" fill="#01549e"/>
        </g>
        <g id="Grupo_57327" data-name="Grupo 57327" transform="translate(162.212 132.438)">
          <path id="Trazado_103350" data-name="Trazado 103350" d="M204.535,353.727h-2.981v-4.45h2.981Zm0-8.9h-2.981v-4.45h2.981Zm0-8.9h-2.981v-4.45h2.981Zm0-8.9h-2.981v-4.45h2.981Zm0-8.9h-2.981v-4.45h2.981Zm0-8.9h-2.981v-4.45h2.981Zm0-8.9h-2.981v-4.45h2.981Z" transform="translate(-201.554 -295.863)" fill="#01549e"/>
        </g>
        <g id="Grupo_57328" data-name="Grupo 57328" transform="translate(162.212 194.754)">
          <path id="Trazado_103351" data-name="Trazado 103351" d="M205.171,312.964h-3.617v-3.615h2.979v.64h.638Z" transform="translate(-201.554 -309.349)" fill="#01549e"/>
        </g>
        <g id="Grupo_57329" data-name="Grupo 57329" transform="translate(169.971 195.394)">
          <path id="Trazado_103352" data-name="Trazado 103352" d="M298.527,312.463h-4.14v-2.976h4.14Zm-8.285,0H286.1v-2.976h4.14Zm-8.285,0h-4.145v-2.976h4.145Zm-8.285,0h-4.145v-2.976h4.145Zm-8.29,0h-4.14v-2.976h4.14Zm-8.285,0h-4.141v-2.976H257.1Zm-8.286,0h-4.145v-2.976h4.145Zm-8.285,0h-4.145v-2.976h4.145Zm-8.29,0h-4.14v-2.976h4.14Zm-8.285,0H219.8v-2.976h4.145Zm-8.285,0h-4.14v-2.976h4.14Zm-8.285,0h-4.145v-2.976h4.145Z" transform="translate(-203.233 -309.487)" fill="#01549e"/>
        </g>
        <g id="Grupo_57330" data-name="Grupo 57330" transform="translate(269.412 194.754)">
          <path id="Trazado_103353" data-name="Trazado 103353" d="M228.369,312.964h-3.617v-2.975h.638v-.64h2.979Z" transform="translate(-224.752 -309.349)" fill="#01549e"/>
        </g>
        <g id="Grupo_57331" data-name="Grupo 57331" transform="translate(270.047 101.495)">
          <path id="Trazado_103354" data-name="Trazado 103354" d="M227.871,378.19H224.89v-4.242h2.981Zm0-8.48H224.89v-4.242h2.981Zm0-8.48H224.89v-4.237h2.981Zm0-8.475H224.89v-4.242h2.981Zm0-8.48H224.89v-4.242h2.981Zm0-8.479H224.89V331.56h2.981Zm0-8.48H224.89V323.08h2.981Zm0-8.475H224.89v-4.237h2.981Zm0-8.479H224.89v-4.242h2.981Zm0-8.479H224.89v-4.237h2.981Zm0-8.479H224.89v-4.238h2.981Z" transform="translate(-224.89 -289.167)" fill="#01549e"/>
        </g>
        <g id="Grupo_57332" data-name="Grupo 57332" transform="translate(270.049 93.642)">
          <path id="Trazado_103355" data-name="Trazado 103355" d="M227.87,291.082H224.89v-3.614h3.617v2.975h-.638Z" transform="translate(-224.89 -287.468)" fill="#01549e"/>
        </g>
        <g id="Grupo_57333" data-name="Grupo 57333" transform="translate(277.885 93.644)">
          <path id="Trazado_103356" data-name="Trazado 103356" d="M332.088,290.439h-4.219v-2.971h4.219Zm-8.438,0h-4.224v-2.971h4.224Zm-8.443,0h-4.219v-2.971h4.219Zm-8.443,0H302.55v-2.971h4.214Zm-8.438,0h-4.219v-2.971h4.219Zm-8.438,0h-4.224v-2.971h4.224Zm-8.438,0h-4.224v-2.971h4.224Zm-8.442,0h-4.219v-2.971h4.219Zm-8.443,0h-4.219v-2.971h4.219Zm-8.438,0h-4.219v-2.971h4.219Zm-8.443,0h-4.219v-2.971h4.219Zm-8.438,0h-4.224v-2.971h4.224Zm-8.443,0h-4.219v-2.971H230.8Z" transform="translate(-226.586 -287.468)" fill="#01549e"/>
        </g>
        <g id="Grupo_57334" data-name="Grupo 57334" transform="translate(387.607 93.642)">
          <path id="Trazado_103357" data-name="Trazado 103357" d="M253.945,291.082H250.97v-.639h-.64v-2.975h3.615Z" transform="translate(-250.33 -287.468)" fill="#01549e"/>
        </g>
        <g id="Grupo_57335" data-name="Grupo 57335" transform="translate(388.248 101.385)">
          <path id="Trazado_103358" data-name="Trazado 103358" d="M253.445,309.78h-2.976v-4.131h2.976Zm0-8.258h-2.976V297.4h2.976Zm0-8.258h-2.976v-4.122h2.976Z" transform="translate(-250.469 -289.143)" fill="#01549e"/>
        </g>
        <g id="Grupo_57336" data-name="Grupo 57336" transform="translate(388.247 126.147)">
          <rect id="Rectángulo_5908" data-name="Rectángulo 5908" width="2.975" height="4.055" fill="#01549e"/>
        </g>
      </g>
    </g>
  </g>
</svg>
