<svg xmlns="http://www.w3.org/2000/svg" width="820" height="419.089" viewBox="0 0 820 419.089">
  <g id="Grupo_58576" data-name="Grupo 58576" transform="translate(-509 -2198.456)">
    <rect id="dylan-shaw-UxyWwU6n_ts-unsplash" width="820" height="195.482" transform="translate(509 2422.063)" fill="#bfeffc"/>
    <g id="Grupo_57369" data-name="Grupo 57369" transform="translate(649.838 2166.811)">
      <g id="Grupo_57362" data-name="Grupo 57362" transform="translate(25.163 31.645)">
        <rect id="Rectángulo_5930" data-name="Rectángulo 5930" width="343.236" height="50.399" transform="translate(72.374 239.276)" fill="#110239"/>
        <rect id="Rectángulo_5931" data-name="Rectángulo 5931" width="408.373" height="273.748" rx="4.28" transform="translate(39.805)" fill="#110239"/>
        <rect id="Rectángulo_5932" data-name="Rectángulo 5932" width="370.768" height="234.641" transform="translate(58.608 18.136)" fill="#fefefe"/>
        <g id="Grupo_57361" data-name="Grupo 57361" transform="translate(0 289.1)">
          <g id="Grupo_57360" data-name="Grupo 57360">
            <path id="Trazado_103408" data-name="Trazado 103408" d="M25.163,102.168v7.48c0,4.141,4.51,7.5,10.067,7.5H503.079c5.557,0,10.067-3.354,10.067-7.5v-7.48Z" transform="translate(-25.163 -44.43)" fill="#110239"/>
            <path id="Trazado_103409" data-name="Trazado 103409" d="M269.157,90.428H68.865c-.679.718-32.164,28.9-41.784,49.844-4.111,8.951-1.421,13.662,6.231,13.662l235.845,0H505c7.652,0,10.343-4.707,6.231-13.657-9.62-20.941-41.105-49.126-41.784-49.844Z" transform="translate(-25.163 -90.428)" fill="#110239"/>
            <path id="Trazado_103410" data-name="Trazado 103410" d="M459.227,136.044H32.456L62.031,92.261H429.652Z" transform="translate(3.413 -83.247)" fill="#9c9eb9"/>
            <g id="Grupo_57359" data-name="Grupo 57359" transform="translate(41.061 9.015)">
              <g id="Grupo_57358" data-name="Grupo 57358">
                <g id="Grupo_57357" data-name="Grupo 57357">
                  <g id="Grupo_57356" data-name="Grupo 57356">
                    <path id="Trazado_103411" data-name="Trazado 103411" d="M449.9,128.359l-.925-1.372h-28.48l-5.3-10.618H441.8L440.874,115H414.508l-5.3-10.618h24.5l-.93-1.372H408.523l-5.371-10.746h-2.459l5.282,10.746H375.488l-4.274-10.746h-2.464l4.2,10.746H342.454l-3.182-10.746h-2.459l3.1,10.746H309.424l-2.09-10.746H304.87l2.007,10.746H276.39l-1-10.746h-2.459l.915,10.746H244.9V92.261h-2.71v10.746h-30l.915-10.746h-2.459l-1,10.746H179.17l2.007-10.746h-2.459l-2.1,10.746H146.135l3.1-10.746h-2.459l-3.182,10.746H113.1l4.19-10.746h-2.459l-4.274,10.746H80.071l5.282-10.746H82.889l-5.366,10.746H50.632l-.925,1.372H76.84L71.538,115h-29l-.93,1.372H70.855l-5.307,10.618H34.437l-.925,1.372H64.869l-3.841,7.682h2.8l3.777-7.682h32.867l-3.054,7.682h2.8l3-7.682h32.862l-2.272,7.682h2.8l2.213-7.682h32.867l-1.5,7.682H173l1.431-7.682H207.3l-.713,7.682h2.8l.654-7.682h32.149v7.682h2.71v-7.682H276l.654,7.682h2.8l-.713-7.682h32.867l1.431,7.682h2.8l-1.5-7.682h32.867l2.213,7.682h2.8l-2.272-7.682h32.862l3,7.682h2.8l-3.059-7.682h32.867l3.777,7.682h2.8l-3.841-7.682ZM112.57,104.379h30.615L140.042,115H108.429Zm-33.172,0h30.615L105.788,115H74.174Zm21.625,22.608H68.283l5.223-10.618h31.736Zm35.469,0H103.752l4.141-10.618h31.741Zm35.469,0H139.22l3.064-10.618h31.741ZM174.291,115H142.678l3.064-10.618h30.615Zm33.138,11.99H174.689l1.987-10.618h31.736ZM208.54,115H176.932l1.982-10.618h30.615Zm33.654,11.99H210.163l.9-10.618h31.131Zm0-11.99H211.181l.9-10.618h30.108Zm2.71-10.618H273.96l.9,10.618H244.9Zm0,22.608V116.369h30.079l.9,10.618Zm161.745-22.608L411.867,115H380.259l-4.225-10.618Zm-33.172,0L377.618,115H346l-3.143-10.618Zm-96.959,0h30.615L309.114,115H277.506Zm2.1,22.608-.984-10.618h31.741l1.982,10.618Zm31.072-22.608H340.3L343.369,115H311.755Zm4.4,22.608-2.066-10.618h31.741l3.064,10.618Zm35.469,0-3.143-10.618h31.741l4.141,10.618Zm35.469,0L380.8,116.369h31.741l5.223,10.618Z" transform="translate(-33.512 -92.261)" fill="#d0d1de"/>
                  </g>
                </g>
              </g>
            </g>
          </g>
          <path id="Trazado_103412" data-name="Trazado 103412" d="M91.285,103.341H70.56a4.291,4.291,0,0,0,1.033,2.867,2.27,2.27,0,0,0,1.569.58h36.251a2.27,2.27,0,0,0,1.569-.58,4.291,4.291,0,0,0,1.033-2.867Z" transform="translate(152.705 -39.834)" fill="#110239"/>
        </g>
      </g>
      <g id="Grupo_57367" data-name="Grupo 57367" transform="translate(122.919 84.585)">
        <g id="Grupo_57365" data-name="Grupo 57365">
          <g id="Grupo_57364" data-name="Grupo 57364">
            <g id="Grupo_57363" data-name="Grupo 57363">
              <path id="Trazado_103413" data-name="Trazado 103413" d="M337.511,220.885H45.04V42.409H337.511ZM50.5,215.426H332.052V47.868H50.5Z" transform="translate(-45.04 -42.409)" fill="#d0d1de"/>
            </g>
          </g>
          <rect id="Rectángulo_5933" data-name="Rectángulo 5933" width="27.198" height="116.418" transform="translate(222.735 44.918)" fill="#fed55f"/>
          <rect id="Rectángulo_5934" data-name="Rectángulo 5934" width="27.199" height="53.533" transform="translate(172.337 107.803)" fill="#d0d1de"/>
          <rect id="Rectángulo_5935" data-name="Rectángulo 5935" width="27.199" height="66.487" transform="translate(121.939 94.848)" fill="#8ecae4"/>
          <rect id="Rectángulo_5936" data-name="Rectángulo 5936" width="27.198" height="104.136" transform="translate(71.54 57.199)" fill="#d0d1de"/>
          <rect id="Rectángulo_5937" data-name="Rectángulo 5937" width="27.199" height="81.28" transform="translate(21.142 80.056)" fill="#d0d1de"/>
        </g>
        <g id="Grupo_57366" data-name="Grupo 57366" transform="translate(33.838 13.767)">
          <path id="Trazado_103414" data-name="Trazado 103414" d="M204.618,118.467l-51.652-10.258L103.186,60.642,53.727,104.334l-1.807-2.047,51.34-45.348,51.017,48.75,49.141,9.757,49.888-70.236,2.223,1.578Z" transform="translate(-51.92 -45.208)" fill="#110239"/>
        </g>
        <path id="Trazado_103415" data-name="Trazado 103415" d="M63.14,61.912A6.143,6.143,0,1,1,57,55.774,6.141,6.141,0,0,1,63.14,61.912Z" transform="translate(-22.257 9.956)" fill="#fd425f"/>
        <circle id="Elipse_4202" data-name="Elipse 4202" cx="6.141" cy="6.141" r="6.141" transform="translate(78.658 21.208)" fill="#fd425f"/>
        <path id="Trazado_103416" data-name="Trazado 103416" d="M83.631,62.645A6.14,6.14,0,1,1,77.489,56.5,6.14,6.14,0,0,1,83.631,62.645Z" transform="translate(58.048 12.808)" fill="#fd425f"/>
        <path id="Trazado_103417" data-name="Trazado 103417" d="M93.883,64.409a6.143,6.143,0,1,1-6.143-6.138A6.141,6.141,0,0,1,93.883,64.409Z" transform="translate(98.196 19.739)" fill="#fd425f"/>
        <path id="Trazado_103418" data-name="Trazado 103418" d="M104.126,50.5a6.14,6.14,0,1,1-6.138-6.138A6.14,6.14,0,0,1,104.126,50.5Z" transform="translate(138.348 -34.753)" fill="#fd425f"/>
      </g>
      <g id="Grupo_57368" data-name="Grupo 57368" transform="translate(77.19 74.223)">
        <path id="Trazado_103419" data-name="Trazado 103419" d="M62.363,61.168c1.977-.615,3.866-1.234,5.252-2.725a6.7,6.7,0,0,1,2.1-1.79,14.659,14.659,0,0,0,2.607-1.83,5.677,5.677,0,0,1,2.744-1.534c1.308-.123.615,1.411,0,2.361-.664,1.038-4.249,2.459-4.087,3.752s4.412-.7,5.253-1.116c1.982-.969,2.115-2.621,3.3-4.234.689-.944,1.289-1.166,1.711.113.31.959-.344,1.938-.821,2.725a11.934,11.934,0,0,1-4.087,4.156,14,14,0,0,0,4.21-3.477c.664-.8,2.9-4.716,4.254-3.782,2.715,1.879-4.751,8.789-6.531,9.325a16.366,16.366,0,0,0,4.461-3.231c.811-.723,2.661-2.528,2.971-.6.462,2.848-5.1,4.918-7.416,6.29a19.11,19.11,0,0,0,4.79-2.125c2.075-1.043,2.12.846.182,2.287a26.772,26.772,0,0,1-3.044,1.731c-4.234,2.041-6.846,2.08-11.346,1.6-1.613-.177-4.756,1.21-5.7.172C61.321,67.237,62.295,63.474,62.363,61.168Z" transform="translate(67.317 10.522)" fill="#f88667"/>
        <path id="Trazado_103420" data-name="Trazado 103420" d="M124.809,68.015l3.3,10.908s-38.582,9.959-47.971,11.42S50.134,68.222,50.134,68.222,43.1,51.156,48.358,51.378c4.052.177,33.6,22.726,35.233,23.6S124.809,68.015,124.809,68.015Z" transform="translate(6.046 3.084)" fill="#fd425f"/>
        <path id="Trazado_103421" data-name="Trazado 103421" d="M49.768,97.879s-.275,7.382.974,10.849S60.9,117.5,60.9,117.5s-8.061,1.559-11.154-.831-10.436-14.907-9.959-16.539,2.7-6.654,2.7-6.654Z" transform="translate(-19.989 168.02)" fill="#f88667"/>
        <path id="Trazado_103422" data-name="Trazado 103422" d="M59.536,96.959s-.28,7.382.969,10.849,10.156,8.769,10.156,8.769-8.061,1.564-11.154-.831-10.436-14.907-9.959-16.535,2.7-6.659,2.7-6.659Z" transform="translate(18.263 164.415)" fill="#f88667"/>
        <path id="Trazado_103423" data-name="Trazado 103423" d="M44.4,94.368s-6.762,2.252-5.071,8.169,1.411,13.525,1.411,13.525H42.71s.418-8.454,1.687-8.169,4.087,8.169,6.9,8.169h15.92s1.692-1.692,0-2.675-12.482-.566-13.707-2.961S44.4,94.368,44.4,94.368Z" transform="translate(-22.761 171.53)" fill="#110239"/>
        <path id="Trazado_103424" data-name="Trazado 103424" d="M54.238,93.41s-6.762,2.252-5.07,8.169S50.574,115.1,50.574,115.1h1.972s.423-8.454,1.692-8.169,4.087,8.169,6.9,8.169h15.92s1.687-1.692,0-2.675-12.482-.566-13.707-2.961S54.238,93.41,54.238,93.41Z" transform="translate(15.796 167.777)" fill="#110239"/>
        <path id="Trazado_103425" data-name="Trazado 103425" d="M87.206,63.509s-18.944,6.659-32.671,0c0,0-8.316,6.979-9.634,21.226a77.949,77.949,0,0,0,.561,16.018c.954,7.928,3.261,28.707,1.82,41.523-2.11,18.767-7.943,73.215-7.943,73.215L52.4,217.523s12-65.725,13.412-73.84,5.99-41.066,5.99-41.066,8.125,25.48,10.22,37.82c.325,1.893,6.118,71.681,6.118,71.681l12.659-.074s-.708-77.518-.708-73.441C100.092,140.265,96.664,86.324,87.206,63.509Z" transform="translate(-21.648 50.623)" fill="#01549e"/>
        <path id="Trazado_103426" data-name="Trazado 103426" d="M56.036,90.016C53.2,81.39,51.453,77.067,45.615,69.336c.6,3.536,1.136,7.062,1.549,10.633l.049-.182s6.954,21.812,9.654,34.844C56.563,100.57,58.127,96.361,56.036,90.016Z" transform="translate(2.942 73.454)" fill="#043c6e"/>
        <path id="Trazado_103427" data-name="Trazado 103427" d="M59.914,60.588C58.6,60.317,52.326,47.073,49.635,44.5c-1.284,9.044-6.752,30.5-6.752,30.5,6.634,7.116,19.864,2.754,19.864,2.754C60.578,73.045,59.536,63.662,59.914,60.588Z" transform="translate(-7.762 -23.87)" fill="#e45940"/>
        <path id="Trazado_103428" data-name="Trazado 103428" d="M52.487,41.53s12.875,2.9,15.339,6.654,2.459,13.525,3.826,16.107c.826,1.564,1.564,2.823,1.977,3.743.359.8-.551,1.274-1.672,1.672a1.945,1.945,0,0,0-1.2,1.244c-.762,2.366-2.887,8.4-5.016,9.231-2.656,1.048-15.772.644-19.716-10.78S44.234,39.08,52.487,41.53Z" transform="translate(-2.966 -36.342)" fill="#f88667"/>
        <path id="Trazado_103429" data-name="Trazado 103429" d="M55.7,49.787A162.475,162.475,0,0,0,73.377,56.5s10.4,20.528,11.1,26.252,6.054,44.774,6.054,44.774-20.582,13.082-50.415,2.71c0,0,7.161-30.757,5.523-42.9S45.418,58.787,55.7,49.787Z" transform="translate(-18.603 -3.14)" fill="#fd425f"/>
        <path id="Trazado_103430" data-name="Trazado 103430" d="M52.082,115.408c-.339-13.062,2.646-24.93,2.911-38.012.216-10.554-4.136-16.574-9.443-23.051a61.529,61.529,0,0,0,.089,15.123c1.638,12.138-5.523,42.9-5.523,42.9A71.845,71.845,0,0,0,52.082,115.408Z" transform="translate(-18.603 14.722)" fill="#e42244"/>
        <path id="Trazado_103431" data-name="Trazado 103431" d="M50.508,123.1c7.249-6.03,4.289-12.064,11.587-17.8.526-.418,1.062-.821,1.589-1.23.379-3.153-7.215-1.525-5.12-4.7C61.5,94.926,73.8,88.2,73.53,83.87c-.182-2.946-.251-1.141.3-4.067.634-3.344,2.046-3.984-.58-6.438-1.834-1.716-3.379-3.566-1.923-6.152,1.19-2.11,3.1-2.729,4.741-.748.433.516,2.6,4.874,3.157,2.425.152-.689-.762-2.016-.846-2.779a3.047,3.047,0,0,1,.87-2.774c1.3-1.372,3.216-2.11,4.554-3.5,1.677-1.736,1.893-4.023,4.318-4.982A6.255,6.255,0,0,1,92,54.7c.57.157,3.02,1.8,3.413,1.643,4.161-1.628,2.3-8.08-.551-10.067-5.016-3.5-11.528-6.089-17.7-5.966-7.539.152-14.43,5.985-18.807,11.636-3.177,4.1-2.961,8.444-5.248,12.856-2.085,4.013-6.59,6.02-9.3,9.634-2.538,3.4-2.557,7.825-1.564,11.823.777,3.123,1.648,5.961,1.136,9.167-.639,3.989-3.836,6.925-4.923,10.775a17.066,17.066,0,0,0-.187,10.943C40.18,124.3,44.44,126.244,50.508,123.1Z" transform="translate(-28.996 -40.302)" fill="#110239"/>
        <path id="Trazado_103432" data-name="Trazado 103432" d="M46,71.534a10.907,10.907,0,0,0,1.392,5.474,6.474,6.474,0,0,1,1.21,2.346,13.924,13.924,0,0,0,1.126,2.818,5.44,5.44,0,0,1,.831,2.882c-.172,1.249-1.446.271-2.2-.507-.821-.841-1.357-4.48-2.6-4.613s-.3,4.254-.1,5.125c.467,2.056,1.972,2.538,3.216,3.984.728.846.8,1.451-.477,1.564-.959.084-1.726-.738-2.356-1.352a11.405,11.405,0,0,1-2.971-4.707,13.335,13.335,0,0,0,2.316,4.672c.6.792,3.748,3.723,2.587,4.775-2.341,2.12-7.136-6.33-7.244-8.1a15.645,15.645,0,0,0,2.031,4.849c.5.915,1.771,3.02-.093,2.892-2.749-.192-3.462-5.808-4.23-8.262a18.163,18.163,0,0,0,.93,4.913c.516,2.159-1.249,1.785-2.164-.329a24.741,24.741,0,0,1-.944-3.2c-.979-4.387-.443-6.821.984-10.893.516-1.466-.084-4.687,1.082-5.346C40.586,69.242,43.872,70.963,46,71.534Z" transform="translate(-35.667 76.277)" fill="#f88667"/>
        <path id="Trazado_103433" data-name="Trazado 103433" d="M47.62,144.856l-11.877.629s-.143-35.1,3.01-47.021S64.4,54.438,69.525,52c6.162-2.931,24.462,4.889,11.056,15.315s-26.135,35.238-26.656,36.246S47.62,144.856,47.62,144.856Z" transform="translate(-35.742 3.088)" fill="#fd425f"/>
      </g>
    </g>
  </g>
</svg>
