<svg xmlns="http://www.w3.org/2000/svg" width="820" height="432.545" viewBox="0 0 820 432.545">
  <g id="Grupo_58578" data-name="Grupo 58578" transform="translate(-509 -3289)">
    <rect id="dylan-shaw-UxyWwU6n_ts-unsplash" width="820" height="195.482" transform="translate(509 3526.063)" fill="#bfeffc"/>
    <g id="Grupo_57383" data-name="Grupo 57383" transform="translate(268.506 3036.187)">
      <g id="Grupo_57380" data-name="Grupo 57380" transform="translate(588.909 252.813)">
        <rect id="Rectángulo_5957" data-name="Rectángulo 5957" width="290.59" height="317.999" fill="#e5e6ed"/>
        <rect id="Rectángulo_5958" data-name="Rectángulo 5958" width="251.514" height="272.991" transform="translate(19.538 22.504)" fill="#fed55f"/>
        <path id="Trazado_103462" data-name="Trazado 103462" d="M607.4,369.11a12.582,12.582,0,0,0-15.808-3.225s18.73-41.334,6.878-61.808a18.508,18.508,0,0,0-4.244-4.985c2.973-13.637-10.093-19.368-20.459-24.672a86.3,86.3,0,0,0-20.937-7.531c-13.54-2.819-28.777-2.212-41.082,4.583-13.75,7.6-27.573,23.1-41.874,19.574-2.958,6.945-2.531,12.65-.535,20.927A53.388,53.388,0,0,0,480.32,332.8a162.246,162.246,0,0,0,10.7,33.088,12.574,12.574,0,0,0-15.8,3.225c-7.181,8.262,11.852,29.091,16.163,31.606a90.388,90.388,0,0,0,15.886,30.778A69.8,69.8,0,0,0,523.547,445.8h-1.384s-4.013,37.908-11.359,50.738H569.2c-6.785-11.847-10.72-45-11.281-50.028a69.949,69.949,0,0,0,17.434-15.016,90.51,90.51,0,0,0,15.886-30.778C595.547,398.2,614.58,377.372,607.4,369.11Z" transform="translate(-393.08 -201.043)" fill="#fff"/>
        <g id="Grupo_57379" data-name="Grupo 57379" transform="translate(125.21 119.429)">
          <path id="Trazado_103463" data-name="Trazado 103463" d="M489.239,338.614V325.193a53.293,53.293,0,0,0,14.42-13.519q4.823-6.737,4.825-13.427a17.179,17.179,0,0,0-.118-1.96q-.309-2.763-1.775-3.591a7.483,7.483,0,0,0-3.73-.828,4.578,4.578,0,0,0-3.174,1.2,3.959,3.959,0,0,0-1.343,3.164,13.241,13.241,0,0,0,.118,1.96,8.06,8.06,0,0,0,.247,1.183c.082.252.252.689.52,1.307s.478,1.132.638,1.533l-20.1,3.92c-.123-.432-.334-1.111-.643-2.032s-.5-1.543-.576-1.857-.216-.813-.4-1.487a10.02,10.02,0,0,1-.335-1.636c-.041-.417-.092-.936-.154-1.553s-.088-1.271-.088-1.94v-.4a21.7,21.7,0,0,1,1.1-7.083,16.93,16.93,0,0,1,11.641-10.556,40.066,40.066,0,0,1,11.945-1.564q13.743,0,21.045,5.53t7.3,15.535q0,8.943-6.137,18.144a36.688,36.688,0,0,1-14.754,13.272v10.1Zm-.55,22.218V343.537h21.688v17.295Z" transform="translate(-477.572 -276.029)" fill="#01549e"/>
        </g>
      </g>
      <g id="Grupo_57382" data-name="Grupo 57382" transform="translate(420.494 349.988)">
        <path id="Trazado_103464" data-name="Trazado 103464" d="M425.689,286.017s6.77,12.058,3.467,15.69c0,0,9.085,8.262,16.189,4.789s2.984-6.585,2.984-6.585-4.964-2.171-7.444-12.578S425.689,286.017,425.689,286.017Z" transform="translate(-398.963 -227.62)" fill="#f88667"/>
        <path id="Trazado_103465" data-name="Trazado 103465" d="M432.86,304.419a14.9,14.9,0,0,1,12.228-7.459,25.25,25.25,0,0,1-4.2-9.625c-2.48-10.407-15.2-1.322-15.2-1.322s6.77,12.063,3.467,15.7A28.655,28.655,0,0,0,432.86,304.419Z" transform="translate(-398.963 -227.621)" fill="#e45940"/>
        <path id="Trazado_103466" data-name="Trazado 103466" d="M424.577,289.1s3.977-10.741,10.566-10.926,10.9.494,12.007,2.942,3.22,9.291,5.134,11.714,5.849,5.468,5.88,6.646-3.683,1.924-3.848,2.418-1.409,9.172-2.7,10.186-14.337-2.752-16.631-6.317S424.618,295.8,424.577,289.1Z" transform="translate(-403.572 -245.018)" fill="#f88667"/>
        <path id="Trazado_103467" data-name="Trazado 103467" d="M444.56,295.172c1.759,1.194,6.1,2.377,12.747-1.44s2.171-19.4-12.264-16.889-13.3,7.634-15.86,9.049-4.512,3.143-5.427,6.2c-1.585,5.293-1.158,11.369,6.24,16.755,7.48,5.448,11.966,3.977,11.966,3.977.1-1.842-.345-4.882-2.027-5.643a10.255,10.255,0,0,1-2.531-1.019c-1.965-1.317-1.229-5.165,2.253-5,1.641.077,2.7,2.84,3.755,3.776,1.122,1,1.744.695,2.269.427,1.024-.52,1.451-3.838-1.193-7C442.775,296.319,442.8,293.984,444.56,295.172Z" transform="translate(-410.081 -251.534)" fill="#110239"/>
        <path id="Trazado_103468" data-name="Trazado 103468" d="M425.31,324.613s-5.947,11.672-4.625,14.1,26.267,12.773,29.24,11.286,3.133-5.777-1.646-9.218c-5.124-3.689-8.493-3.169-11.518-5.978s0-8.092,0-8.092Z" transform="translate(-420.494 -52.431)" fill="#110239"/>
        <path id="Trazado_103469" data-name="Trazado 103469" d="M434.547,327.56s.792,13.771,2.953,15.489,29.163,1.574,31.328-.947.8-6.034-4.7-7.135c-4.938-.988-8.586.051-12.413-1.492-3.359-1.353-5.18-8.786-5.18-8.786Z" transform="translate(-362.253 -52.112)" fill="#110239"/>
        <path id="Trazado_103470" data-name="Trazado 103470" d="M461.817,297.958l-35.192,2.166s26.477,63.151,30.109,70.749,9.311,70.219,9.311,70.219l16.23-2.618s-3.426-64.066-4.27-69.339A646.683,646.683,0,0,0,461.817,297.958Z" transform="translate(-395.084 -162.896)" fill="#01549e"/>
        <path id="Trazado_103471" data-name="Trazado 103471" d="M449.887,323.629c1.147-5.885,1.955-13.529,3.236-19.394.509-2.325,3.76-2.444,4-4.758a6.8,6.8,0,0,1-1.4-1.446l-29.1,1.79s26.477,63.151,30.109,70.749c.36.751.869,1.981,1.487,3.56-.015-1.276-.062-2.551-.159-3.817C457.3,360.065,448.586,330.322,449.887,323.629Z" transform="translate(-395.084 -162.594)" fill="#033057"/>
        <path id="Trazado_103472" data-name="Trazado 103472" d="M475,298.536H444.927a45.63,45.63,0,0,0-3.467,23.787c1.816,12.886-2.094,37.857-2.31,41.159s-15.788,57.482-18.1,69.818l13.853,4.954s22.758-66.356,23.643-67.678S475,298.536,475,298.536Z" transform="translate(-418.176 -160.501)" fill="#01549e"/>
        <g id="Grupo_57381" data-name="Grupo 57381" transform="translate(58.548 77.626)">
          <path id="Trazado_103473" data-name="Trazado 103473" d="M442.061,331.944s5.947,8.591,10.077,7.927,32.985-19.594,32.985-19.594l-6.06-4.028s-22.959,15.7-25.274,15.037c-1.219-.35-7.331-16.081-12.295-27.866-6.117-14.522-9.62-16.626-9.62-16.626Z" transform="translate(-431.875 -286.793)" fill="#f88667"/>
          <path id="Trazado_103474" data-name="Trazado 103474" d="M442.061,331.944s5.947,8.591,10.077,7.927,32.985-19.594,32.985-19.594l-6.06-4.028s-22.959,15.7-25.274,15.037c-1.121-.324-7.819-18.041-12.706-28.828-6.636-14.666-9.208-15.664-9.208-15.664Z" transform="translate(-431.875 -286.793)" fill="#e45940"/>
          <path id="Trazado_103475" data-name="Trazado 103475" d="M444.489,308.219c.046-.067-2.469-5.515-3.3-7.145-6.739-13.216-9.311-14.28-9.311-14.28l5.834,25.87C440.054,311.383,443.259,309.978,444.489,308.219Z" transform="translate(-431.875 -286.793)" fill="#fd425f"/>
          <path id="Trazado_103476" data-name="Trazado 103476" d="M444.489,308.219c.046-.067-2.469-5.515-3.3-7.145-6.739-13.216-9.311-14.28-9.311-14.28l5.834,25.87C440.054,311.383,443.259,309.978,444.489,308.219Z" transform="translate(-431.875 -286.793)" fill="#e01f41"/>
        </g>
        <path id="Trazado_103477" data-name="Trazado 103477" d="M432.275,362.359s26.987,6.77,50.11-1.6c0,0-4.928-22.367-4.928-34.4,0-10.227-3.2-32.095-8.57-35.948a31.62,31.62,0,0,0-8.637-4.692s-1.816,4.46-5.947,5.448-12.109-4.27-12.109-4.27-16.282,6.368-18.468,9.944c-4.465,7.32,7.4,28,10.047,38.736S432.275,362.359,432.275,362.359Z" transform="translate(-411.223 -213.614)" fill="#fd425f"/>
        <path id="Trazado_103478" data-name="Trazado 103478" d="M454.738,352.648c-1.147-4.944-1.26-10.031-1.831-15.253-.483-4.4-.725-8.647.221-12.737-.319-1.111-.648-2.238-.926-3.21-1.4-4.913-1.266-15.88-7.079-21.426-3.354-3.205-7.459-8.169-12.439-9.033-6.019-1.044-3.087-1.075-8.478-2.32.247,1.98-2.413,5.751-1.569,8.447,3.478,8.611,10.484,19.255,12.207,26.241,2.644,10.736-1.5,26.781-1.5,26.781A109.578,109.578,0,0,0,454.738,352.648Z" transform="translate(-412.296 -201.392)" fill="#e01f41"/>
        <path id="Trazado_103479" data-name="Trazado 103479" d="M617.125,399.141a66.917,66.917,0,1,0-92.442-40.779l-96.907,46.8a9.342,9.342,0,0,0-4.455,12.434l.082.17a9.333,9.333,0,0,0,12.434,4.455l96.9-46.792A66.878,66.878,0,0,0,617.125,399.141Zm-75.2-38.49a51.557,51.557,0,1,1,68.64,24.6A51.559,51.559,0,0,1,541.927,360.652Z" transform="translate(-412.491 -271.703)" fill="#110239"/>
        <path id="Trazado_103480" data-name="Trazado 103480" d="M435.063,292.56s8.591,17.676,10.407,17.84,33.119-2.31,35.392-3.632a26.256,26.256,0,0,0,3.5-2.912,18.184,18.184,0,0,1,1.62-1.271A18.162,18.162,0,0,0,488,301.444c.483-.407,2.191-2.942,3.153-2.706.766.19.7.772.566,1.389-.175.792-1.26,1.543-1.785,2.109-.3.324-1.2,1.235-1.044,1.754.216.7,1.764-.53,2.114-.751a6.074,6.074,0,0,0,1.445-1.245,20.5,20.5,0,0,0,1.322-1.754c.252-.365.489-.756.736-1.121.412-.612.777-1.168,1.137-1.816.268-.484.7-1.039,1.312-.71.689.37.015,1.517-.257,2.011a17.253,17.253,0,0,0-.767,1.585c-.149.365-.751.977-.54,1.409a8.557,8.557,0,0,0,1.708-1.96c.314-.422,1.919-3.056,2.654-2.541,1.162.813-.232,2.536-.772,3.261a7.41,7.41,0,0,1-1.2,1.338c-.2.164-1.055,1.09-.905,1.075,1.106-.108,1.9-1.78,2.587-2.567.422-.484,1.764-1.9,1.95-.489a2.17,2.17,0,0,1-.571,1.492,7.658,7.658,0,0,1-1.729,1.867A6.3,6.3,0,0,0,498,304.345c.823-.021,2.449-2.119,3.195-1.559.489.365-.046,1.368-.314,1.667-1.9,2.13-4.794,3.555-7.269,4.892a75.917,75.917,0,0,1-8.328,3.863c-4.059,1.605-38.489,12.392-42.615,11.894s-15.037-21.6-18.175-27.733S435.063,292.56,435.063,292.56Z" transform="translate(-405.862 -185.766)" fill="#f88667"/>
        <path id="Trazado_103481" data-name="Trazado 103481" d="M430.349,323.123s10.906-4.043,17.182-9.7c0,0-10.33-32.337-20.716-24.944C414.967,296.907,430.349,323.123,430.349,323.123Z" transform="translate(-412.877 -206.745)" fill="#fd425f"/>
        <path id="Trazado_103482" data-name="Trazado 103482" d="M441.2,297.093c.545-.355,1.286.031,2.222.844-1.23-1.533-2.7-3.117-1.25-3.328,1.394-.206,2.361,1.955,3.37,2.629-.54-.756-3.735-2.978-2.49-4.645.741-.993,4.162,2.891,4.867,3.663-.664-.628-3.544-3.663-2.017-4.29,1.379-.566,3.354,2.032,4.337,2.86.72.607,1.734,1.106,1.9,2.1.329,1.934-2.495,3.251-3.956,3.663a7.587,7.587,0,0,1-5.761-.967C441.424,299.043,440.663,297.443,441.2,297.093Z" transform="translate(-335.41 -188.067)" fill="#f88667"/>
      </g>
    </g>
  </g>
</svg>
