<svg xmlns="http://www.w3.org/2000/svg" xmlns:xlink="http://www.w3.org/1999/xlink" width="144" height="144" viewBox="0 0 144 144">
  <defs>
    <clipPath id="clip-path">
      <rect id="Rectángulo_5882" data-name="Rectángulo 5882" width="144" height="144" transform="translate(265 860)" fill="#fff" stroke="#707070" stroke-width="1"/>
    </clipPath>
  </defs>
  <g id="Enmascarar_grupo_93" data-name="Enmascarar grupo 93" transform="translate(-265 -860)" clip-path="url(#clip-path)">
    <g id="monitor-media-screen-Digital_Marketing" data-name="monitor-media-screen-Digital Marketing" transform="translate(260.2 848)">
      <path id="Trazado_103681" data-name="Trazado 103681" d="M12,36H141.6a4.8,4.8,0,0,1,4.8,4.8v72H7.2v-72A4.8,4.8,0,0,1,12,36Z" fill="#01549e"/>
      <path id="Trazado_103682" data-name="Trazado 103682" d="M100.8,136.8v9.6h-48v-9.6h48Z" fill="#e8e5fb"/>
      <path id="Trazado_103683" data-name="Trazado 103683" d="M69.6,122.4H84v14.4H69.6Z" fill="#8e95a3"/>
      <path id="Trazado_103684" data-name="Trazado 103684" d="M146.4,115.2v2.4a4.814,4.814,0,0,1-4.8,4.8H12a4.814,4.814,0,0,1-4.8-4.8v-4.8H146.4Z" fill="#e8e5fb"/>
      <path id="Trazado_103685" data-name="Trazado 103685" d="M86.4,45.6h48V84h-48Z" fill="#5bcbfa"/>
      <path id="Trazado_103686" data-name="Trazado 103686" d="M120,64.8l-16.8,9.6V55.2Z" fill="#fed55f"/>
      <path id="Trazado_103687" data-name="Trazado 103687" d="M19.2,93.6h48v9.6h-48Z" fill="#f2ac4c"/>
      <path id="Trazado_103688" data-name="Trazado 103688" d="M67.2,21.6l-4.8,24H24l-4.8-24h9.6v7.2h9.6V21.6H48v7.2h9.6V21.6Z" fill="#f7d880"/>
      <path id="Trazado_103689" data-name="Trazado 103689" d="M24,84H62.4v9.6H24Z" fill="#f7d880"/>
      <path id="Trazado_103690" data-name="Trazado 103690" d="M57.6,84H28.8l2.256-36,.144-2.4h24l.144,2.4Z" fill="#f2ac4c"/>
      <path id="Trazado_103691" data-name="Trazado 103691" d="M141.6,33.6H67.248l2.3-11.52a2.376,2.376,0,0,0-.5-1.992A2.33,2.33,0,0,0,67.2,19.2H57.6a2.4,2.4,0,0,0-2.4,2.4v4.8H50.4V21.6A2.4,2.4,0,0,0,48,19.2H38.4A2.4,2.4,0,0,0,36,21.6v4.8H31.2V21.6a2.4,2.4,0,0,0-2.4-2.4H19.2a2.33,2.33,0,0,0-1.848.888,2.376,2.376,0,0,0-.5,1.992l2.3,11.52H12a7.222,7.222,0,0,0-7.2,7.2v76.8a7.222,7.222,0,0,0,7.2,7.2H67.2v9.6H52.8a2.4,2.4,0,0,0-2.4,2.4v9.6a2.4,2.4,0,0,0,2.4,2.4h48a2.4,2.4,0,0,0,2.4-2.4v-9.6a2.4,2.4,0,0,0-2.4-2.4H86.4v-9.6h55.2a7.222,7.222,0,0,0,7.2-7.2V40.8a7.222,7.222,0,0,0-7.2-7.2ZM26.4,24v4.8a2.4,2.4,0,0,0,2.4,2.4h9.6a2.4,2.4,0,0,0,2.4-2.4V24h4.8v4.8A2.4,2.4,0,0,0,48,31.2h9.6A2.4,2.4,0,0,0,60,28.8V24h4.272l-1.92,9.6H36v4.8H61.392l-.96,4.8H25.968l-.96-4.8H31.2V33.6H24.048L22.128,24ZM60,91.2H26.4V86.4H60ZM64.8,96v4.8H21.6V96ZM31.344,81.6,33.456,48H52.944l2.112,33.6ZM98.4,139.2V144H55.2v-4.8ZM72,134.4v-9.6h9.6v9.6Zm72-16.8a2.4,2.4,0,0,1-2.4,2.4H12a2.4,2.4,0,0,1-2.4-2.4v-2.4H144Zm0-7.2H9.6V40.8A2.4,2.4,0,0,1,12,38.4h8.112l1.536,7.68A2.4,2.4,0,0,0,24,48h4.656L26.544,81.6H24A2.4,2.4,0,0,0,21.6,84v7.2H19.2a2.4,2.4,0,0,0-2.4,2.4v9.6a2.4,2.4,0,0,0,2.4,2.4h48a2.4,2.4,0,0,0,2.4-2.4V93.6a2.4,2.4,0,0,0-2.4-2.4H64.8V84a2.4,2.4,0,0,0-2.4-2.4H59.856L57.744,48H62.4a2.4,2.4,0,0,0,2.352-1.92l1.536-7.68H141.6a2.4,2.4,0,0,1,2.4,2.4Z" fill="#12263f"/>
      <path id="Trazado_103692" data-name="Trazado 103692" d="M86.4,86.4h48a2.4,2.4,0,0,0,2.4-2.4V45.6a2.4,2.4,0,0,0-2.4-2.4h-48A2.4,2.4,0,0,0,84,45.6V84A2.4,2.4,0,0,0,86.4,86.4ZM88.8,48H132V81.6H88.8Z" fill="#12263f"/>
      <path id="Trazado_103693" data-name="Trazado 103693" d="M121.2,62.717l-16.8-9.6a2.4,2.4,0,0,0-3.6,2.083V74.4a2.4,2.4,0,0,0,3.6,2.083l16.8-9.6a2.4,2.4,0,0,0,0-4.166Zm-15.6,7.548V59.335l9.562,5.465Z" fill="#12263f"/>
      <path id="Trazado_103694" data-name="Trazado 103694" d="M84,91.2h9.6V96H84Z" fill="#12263f"/>
      <path id="Trazado_103695" data-name="Trazado 103695" d="M98.4,91.2h31.2V96H98.4Z" fill="#12263f"/>
      <path id="Trazado_103696" data-name="Trazado 103696" d="M84,100.8H98.4v4.8H84Z" fill="#12263f"/>
      <path id="Trazado_103697" data-name="Trazado 103697" d="M103.2,100.8h9.6v4.8h-9.6Z" fill="#12263f"/>
    </g>
  </g>
</svg>
