<svg xmlns="http://www.w3.org/2000/svg" width="820" height="419.926" viewBox="0 0 820 419.926">
  <g id="Grupo_58575" data-name="Grupo 58575" transform="translate(-509 -1645.619)">
    <rect id="dylan-shaw-UxyWwU6n_ts-unsplash" width="820" height="195.482" transform="translate(509 1870.063)" fill="#bfeffc"/>
    <g id="Grupo_57355" data-name="Grupo 57355" transform="translate(262.654 1290.926)">
      <g id="Grupo_57349" data-name="Grupo 57349" transform="translate(422.346 376.17)">
        <path id="Trazado_105312" data-name="Trazado 105312" d="M149.062,0A149.062,149.062,0,1,1,0,149.062,149.062,149.062,0,0,1,149.062,0Z" transform="translate(3.68 3.68)" fill="#8ecae4"/>
        <circle id="Elipse_4201" data-name="Elipse 4201" cx="127.154" cy="127.154" r="127.154" transform="translate(0 247.641) rotate(-76.853)" fill="#01549e"/>
        <g id="Grupo_57348" data-name="Grupo 57348" transform="translate(89.897 48.935)">
          <rect id="Rectángulo_5927" data-name="Rectángulo 5927" width="5.001" height="107.001" rx="0.458" transform="translate(60.465)" fill="#fefefe"/>
          <path id="Trazado_103391" data-name="Trazado 103391" d="M504.162,416.826l-.027.043a2.475,2.475,0,0,1-3.354,1l-60.488-32.539a2.483,2.483,0,0,1-1-3.359l.027-.043a2.469,2.469,0,0,1,3.354-1l60.488,32.54A2.475,2.475,0,0,1,504.162,416.826Z" transform="translate(-438.991 -310.951)" fill="#fefefe"/>
        </g>
      </g>
      <g id="Grupo_57352" data-name="Grupo 57352" transform="translate(571.564 534.17)">
        <g id="Grupo_57350" data-name="Grupo 57350" transform="translate(46.896)">
          <rect id="Rectángulo_5928" data-name="Rectángulo 5928" width="271.386" height="167.982" fill="#d0d1de"/>
          <path id="Trazado_103392" data-name="Trazado 103392" d="M594.351,479.36,730.044,395.37v-7.445H458.658v7.445Z" transform="translate(-458.658 -387.925)" fill="#110239"/>
          <path id="Trazado_103393" data-name="Trazado 103393" d="M594.351,471.915l-135.693-83.99H730.044Z" transform="translate(-458.658 -387.925)" fill="#d0d1de"/>
        </g>
        <path id="Trazado_103394" data-name="Trazado 103394" d="M458.658,534.442h237.6V392.8h-237.6Z" transform="translate(-411.762 -366.46)" fill="#b1b3c8" opacity="0.32" style="mix-blend-mode: multiply;isolation: isolate"/>
        <g id="Grupo_57351" data-name="Grupo 57351" transform="translate(0 38.082)">
          <rect id="Rectángulo_5929" data-name="Rectángulo 5929" width="271.386" height="167.982" fill="#d0d1de"/>
          <path id="Trazado_103395" data-name="Trazado 103395" d="M585.668,486.412l135.692-83.991v-7.444H449.975v7.445Z" transform="translate(-449.975 -394.976)" fill="#110239"/>
          <path id="Trazado_103396" data-name="Trazado 103396" d="M585.668,478.967,449.975,394.976H721.361Z" transform="translate(-449.975 -394.976)" fill="#d0d1de"/>
        </g>
      </g>
      <path id="Trazado_103397" data-name="Trazado 103397" d="M491.984,361.733l9.727-.686,9.721-.686s4.666,26.3,9.965,29.094c0,0,8.463,30.86-15.4,32.54-28.872,2.036-19.8-30.06-19.8-30.06C491.05,388.423,491.984,361.733,491.984,361.733Z" transform="translate(275.043 24.944)" fill="#e45940"/>
      <path id="Trazado_103398" data-name="Trazado 103398" d="M575.064,485.607l10.548-57.2c-1.464-25.821-4.985-51.28-4.985-51.28-13.518-7.745-33.133-11.374-33.133-11.374l-.167.14a29.91,29.91,0,0,1-34.818,2.473l-.216-.135s-20.712,6.416-33.015,15.981a133.373,133.373,0,0,0,1.6,32.593,297.454,297.454,0,0,0,10.845,43.854l8.349,24.951Z" transform="translate(248.946 48.651)" fill="#fed55f"/>
      <path id="Trazado_103399" data-name="Trazado 103399" d="M574.334,448.856l10.548-57.2c-.3-5.385-.373-10.65-.3-15.641-14.917,22.451-32.469,44.41-60.769,37.243-17.45-4.418-29.25-25.783-41.969-36.811-.934-.8-1.852-1.572-2.765-2.344.438,2.258.87,4.618,1.275,7.064a280.411,280.411,0,0,0,10.672,42.849l8.312,24.843Z" transform="translate(249.677 85.401)" fill="#efb613"/>
      <g id="Grupo_57353" data-name="Grupo 57353" transform="translate(750.749 360.93)">
        <path id="Trazado_103400" data-name="Trazado 103400" d="M483.751,386.765c2.473-3.289,6.043,1.2,6.043,1.2s-5.682-17.207-1.777-25.205,18.611-4.963,18.611-4.963,14.139-5.061,19.129,2.306,1.772,25.205,1.772,25.205,2.905-4.947,5.817-2.036-3.678,11.233-5.228,12.287c0,0-9.014,20.139-17.369,20.728s-20.1-18.087-20.1-18.087C488.962,397.366,481.272,390.054,483.751,386.765Z" transform="translate(-482.67 -354.736)" fill="#f88667"/>
        <path id="Trazado_103401" data-name="Trazado 103401" d="M488.358,365.593s11.05,1.15,12.676,6.924c.788,2.808.362,5.941.032,8.787-.173,1.507-.659,9.559-.254,9.721a1.677,1.677,0,0,0,1.4-.346,19.757,19.757,0,0,0,3.376-4.715c1.863-3.181,4.877-2.884,5.871-1.021,0,0,.405-28.932-11.7-29.094S488.358,365.593,488.358,365.593Z" transform="translate(-460.279 -355.848)" fill="#110239"/>
        <path id="Trazado_103402" data-name="Trazado 103402" d="M504.124,364.49s-10.78,2.69-11.585,8.641c-.383,2.889.481,5.925,1.2,8.7.378,1.474,1.987,9.376,1.609,9.6a1.681,1.681,0,0,1-1.431-.146,19.844,19.844,0,0,1-4-4.2c-2.29-2.884-5.234-2.171-5.957-.189,0,0-4.45-28.586,7.507-30.444S504.124,364.49,504.124,364.49Z" transform="translate(-483.153 -354.248)" fill="#110239"/>
      </g>
      <path id="Trazado_103403" data-name="Trazado 103403" d="M505.648,417.643c-.88,1.637-4.963,3.9-3.78,6.319.594,1.21,4.288-.94,5.141-1.874,1.2-1.312,9.678-12.362,11.136-15.63,1.145-2.56,2.22-5.055,3.457-7.383a38.291,38.291,0,0,1-7.021-6.643c-3.986,1.453-8.263,3.57-12.179,4.92-2.1.719-4.375,1.156-6.5,1.75-1.34.378-4.169.853-4.429,2.587-.291,1.9,2.544,1.566,3.662,1.437,1.615-.189,4.656-1.469,5.628.448,1.421,2.776-3.78,5.439-5.59,7.107-1.68,1.544-7.756,6.232-3.656,6.988.859.157,7.145-4.407,8.117-5-.205.221-4.272,3.554-4.477,3.791-1.08,1.231-4.126,3.732-3.4,5.147,1.566,3.035,8.392-4.067,9.419-5.006l-2.6,2.808c-2.2,2.112-3.619,3.932-1.982,4.79C498.659,425.279,503.628,419.4,505.648,417.643Z" transform="translate(298.277 166.08)" fill="#f88667"/>
      <path id="Trazado_103404" data-name="Trazado 103404" d="M493.193,502.053l13.626,10.359s47.408-50.767,43.946-70.8c-5.682-32.912-22.478-70.436-32.437-73.639-4.137-1.329-8.868,15.473-3.365,39.22,0,0,9.765,34.981,9.143,38.637S493.193,502.053,493.193,502.053Z" transform="translate(311.78 58.101)" fill="#fed55f"/>
      <g id="Grupo_57354" data-name="Grupo 57354" transform="translate(699.459 431.814)">
        <path id="Trazado_103405" data-name="Trazado 103405" d="M495.39,423.324c.74,1.7,4.623,4.3,3.251,6.611-.691,1.156-4.2-1.291-4.974-2.29-1.085-1.41-8.63-13.113-9.813-16.489-.929-2.646-1.8-5.222-2.841-7.648a38.088,38.088,0,0,0,7.539-6.038c3.856,1.771,7.95,4.234,11.741,5.9,2.031.891,4.261,1.518,6.324,2.279,1.307.486,4.088,1.194,4.207,2.944.13,1.917-2.668,1.35-3.77,1.129-1.593-.319-4.521-1.842-5.644-.016-1.642,2.657,3.321,5.736,4.99,7.545,1.545,1.674,7.215,6.848,3.068,7.264-.87.086-6.756-4.974-7.685-5.644.189.238,3.969,3.894,4.159,4.148.972,1.312,3.8,4.056,2.96,5.406-1.809,2.895-8.031-4.742-8.976-5.757l2.36,3.008c2.02,2.285,3.284,4.218,1.582,4.931C501.73,431.512,497.258,425.247,495.39,423.324Z" transform="translate(-441.28 -243.559)" fill="#fed55f"/>
        <path id="Trazado_103406" data-name="Trazado 103406" d="M526.923,525.342l-12.881,8.582s-44.491-54.839-40.079-74.687c7.242-32.577,19.561-82.41,29.52-90.036,3.451-2.647,14.512,18.249,13.691,31.3,0,0-16.483,65.073-16.04,68.751S526.923,525.342,526.923,525.342Z" transform="translate(-473.656 -368.973)" fill="#fed55f"/>
      </g>
      <path id="Trazado_103407" data-name="Trazado 103407" d="M528.883,364.383s.243-4.418-4.785-7.156-15.036-3.964-22.964,0-10.332,4.861-12.643,3.537-.848-2.641-.848-2.641-5.19-.049-4.942,8,10.154,18.06,23.088,18.06C525.545,384.187,531.94,370.378,528.883,364.383Z" transform="translate(265.569 0)" fill="#110239"/>
    </g>
  </g>
</svg>
