<svg xmlns="http://www.w3.org/2000/svg" width="820" height="444.482" viewBox="0 0 820 444.482">
  <g id="Grupo_58572" data-name="Grupo 58572" transform="translate(-509 -39.063)">
    <rect id="dylan-shaw-UxyWwU6n_ts-unsplash" width="820" height="195.482" transform="translate(509 288.063)" fill="#bfeffc"/>
    <g id="Grupo_57306" data-name="Grupo 57306" transform="translate(719.285 -297.845)">
      <g id="Grupo_57296" data-name="Grupo 57296" transform="translate(121.583 387.569)">
        <path id="Rectángulo_5898" data-name="Rectángulo 5898" d="M1.663,0H169.476a1.662,1.662,0,0,1,1.662,1.662V282.511a1.663,1.663,0,0,1-1.663,1.663H1.663A1.663,1.663,0,0,1,0,282.511V1.663A1.663,1.663,0,0,1,1.663,0Z" fill="#01549e"/>
        <rect id="Rectángulo_5899" data-name="Rectángulo 5899" width="146.689" height="248.976" transform="translate(13.11 11.754)" fill="#d0d1de"/>
        <path id="Trazado_103235" data-name="Trazado 103235" d="M75.545,420.49a4.614,4.614,0,1,1,4.614-4.614A4.614,4.614,0,0,1,75.545,420.49Z" transform="translate(10.024 -144.253)" fill="#fff"/>
      </g>
      <rect id="Rectángulo_5900" data-name="Rectángulo 5900" width="7.194" height="5.817" rx="0.397" transform="translate(140.347 407.045)" fill="#fff"/>
      <rect id="Rectángulo_5901" data-name="Rectángulo 5901" width="7.194" height="5.817" rx="0.397" transform="translate(159.972 407.045)" fill="#fff"/>
      <rect id="Rectángulo_5902" data-name="Rectángulo 5902" width="7.193" height="5.817" rx="0.397" transform="translate(254.756 407.045)" fill="#fff"/>
      <rect id="Rectángulo_5903" data-name="Rectángulo 5903" width="7.193" height="5.817" rx="0.397" transform="translate(232.765 407.045)" fill="#fff"/>
      <rect id="Rectángulo_5904" data-name="Rectángulo 5904" width="7.194" height="5.817" rx="0.397" transform="translate(268.535 407.045)" fill="#fff"/>
      <g id="Grupo_57297" data-name="Grupo 57297" transform="translate(166.909 497.618)">
        <path id="Trazado_103236" data-name="Trazado 103236" d="M67.522,394.214c-.269-.641-.53-1.3-.743-1.991-2.166-7.032-.363-13.826,4.025-15.18s9.7,3.251,11.869,10.284a20.752,20.752,0,0,1,.508,2.064l1.418-.44c-.145-.679-.316-1.367-.526-2.055-2.551-8.267-8.8-13.685-13.958-12.1s-7.28,9.583-4.734,17.854c.214.688.461,1.35.722,2Z" transform="translate(-56.989 -374.523)" fill="#110239"/>
        <path id="Trazado_103237" data-name="Trazado 103237" d="M115.27,419.678l-42.748,13.17-9.931-45.076,35.521-10.944Z" transform="translate(-62.592 -366.977)" fill="#fff"/>
      </g>
      <g id="Grupo_57298" data-name="Grupo 57298" transform="translate(198.724 484.132)">
        <path id="Trazado_103238" data-name="Trazado 103238" d="M76.742,386.957a20.606,20.606,0,0,1,.367-2.089c1.7-7.161,6.691-12.108,11.16-11.048s6.721,7.716,5.024,14.876a19.743,19.743,0,0,1-.611,2.034l1.448.346c.218-.667.423-1.342.585-2.042,2-8.421-.649-16.252-5.9-17.5s-11.134,4.576-13.125,13c-.167.7-.286,1.4-.389,2.085Z" transform="translate(-52.826 -371.367)" fill="#110239"/>
        <path id="Trazado_103239" data-name="Trazado 103239" d="M113.567,428.186l-43.529-10.3L84.312,373.99l36.17,8.56Z" transform="translate(-70.038 -362.781)" fill="#fed55f"/>
      </g>
      <g id="Grupo_57299" data-name="Grupo 57299" transform="translate(184.44 426.088)">
        <path id="Trazado_103240" data-name="Trazado 103240" d="M113.888,381.377a23.6,23.6,0,1,1-23.6-23.6A23.6,23.6,0,0,1,113.888,381.377Z" transform="translate(-66.695 -357.781)" fill="#fff"/>
        <path id="Trazado_103241" data-name="Trazado 103241" d="M80.237,371.5c-.389-.009-3.708-9.557-4.832-9.182-1.581.526-5.892,2.611-6,4.409S78.11,384,79.584,384c3.1,0,16.107-17.175,15.052-19.119s-5.96-4.631-6.695-3.892C87.4,361.534,80.571,371.506,80.237,371.5Z" transform="translate(-57.824 -347.687)" fill="#01549e"/>
      </g>
      <g id="Grupo_57301" data-name="Grupo 57301" transform="translate(179.462 615.261)">
        <rect id="Rectángulo_5905" data-name="Rectángulo 5905" width="58.411" height="18.538" rx="1.556" fill="#fed55f"/>
        <g id="Grupo_57300" data-name="Grupo 57300" transform="translate(15.719 4.701)">
          <path id="Trazado_103242" data-name="Trazado 103242" d="M76.848,405.441a2,2,0,0,1-1.559,1.957,2.235,2.235,0,0,1,1.854,2.282c0,1.547-1.35,2.512-3.478,2.512H69.209v-9.032H73.5C75.545,403.159,76.848,404.048,76.848,405.441Zm-2.422.41c0-.538-.4-.863-1.055-.85H71.563v1.756H73.37C74.028,406.756,74.426,406.419,74.426,405.851Zm.282,3.529c0-.564-.513-.927-1.337-.91H71.563v1.893H73.37C74.195,410.362,74.708,410,74.708,409.38Z" transform="translate(-69.209 -403.159)" fill="#01549e"/>
          <path id="Trazado_103243" data-name="Trazado 103243" d="M75.53,410.285a1.71,1.71,0,0,0,1.765-1.88v-5.247h2.358v5.247c0,2.38-1.6,3.888-4.136,3.888s-4.187-1.508-4.187-3.888v-5.247h2.358v5.247A1.762,1.762,0,0,0,75.53,410.285Z" transform="translate(-62.268 -403.159)" fill="#01549e"/>
          <path id="Trazado_103244" data-name="Trazado 103244" d="M79.112,409.307v2.884H76.754v-2.82l-3.324-6.212h2.358l2.14,3.879,2.085-3.879h2.358Z" transform="translate(-55.396 -403.159)" fill="#01549e"/>
        </g>
      </g>
      <g id="Grupo_57305" data-name="Grupo 57305" transform="translate(30.714 336.908)">
        <g id="Grupo_57302" data-name="Grupo 57302" transform="translate(0 80.734)">
          <path id="Trazado_103245" data-name="Trazado 103245" d="M45.009,375.821a1.5,1.5,0,1,0-1.982,2.247q5.473,4.826,11.429,9.758a1.5,1.5,0,1,0,1.91-2.311Q50.45,380.625,45.009,375.821Z" transform="translate(7.922 -291.534)" fill="#01549e"/>
          <path id="Trazado_103246" data-name="Trazado 103246" d="M62.522,365.62a1.5,1.5,0,0,0,.508-2.91c-4.926-1.777-9.72-3.4-14.253-4.824a1.5,1.5,0,0,0-.9,2.858c4.495,1.41,9.25,3.016,14.129,4.785A1.543,1.543,0,0,0,62.522,365.62Z" transform="translate(22.033 -349.223)" fill="#01549e"/>
          <path id="Trazado_103247" data-name="Trazado 103247" d="M40.036,371.064a1.5,1.5,0,1,0-2.17,2.06c3.311,3.482,6.9,7.062,10.655,10.647a1.5,1.5,0,0,0,2.064-2.17C46.859,378.049,43.313,374.5,40.036,371.064Z" transform="translate(-8.659 -307.401)" fill="#01549e"/>
          <path id="Trazado_103248" data-name="Trazado 103248" d="M55.914,384.366a1.5,1.5,0,0,0-1.73,2.453q6.043,4.262,12.356,8.528a1.483,1.483,0,0,0,.837.256,1.5,1.5,0,0,0,.837-2.739Q61.934,388.622,55.914,384.366Z" transform="translate(44.022 -263.209)" fill="#01549e"/>
          <path id="Trazado_103249" data-name="Trazado 103249" d="M50.34,380.235A1.5,1.5,0,1,0,48.5,382.6q5.8,4.525,11.95,9.1a1.5,1.5,0,0,0,2.1-.312,1.5,1.5,0,0,0-.312-2.094Q56.114,384.745,50.34,380.235Z" transform="translate(25.594 -276.894)" fill="#01549e"/>
          <path id="Trazado_103250" data-name="Trazado 103250" d="M41.289,359.113c4.516.735,9.4,1.76,14.531,3.051a1.355,1.355,0,0,0,.367.047,1.5,1.5,0,0,0,.363-2.948c-5.208-1.316-10.185-2.358-14.783-3.1a1.5,1.5,0,1,0-.479,2.952Z" transform="translate(-0.236 -354.708)" fill="#01549e"/>
          <path id="Trazado_103251" data-name="Trazado 103251" d="M112.954,410.617a1.5,1.5,0,0,0,1.337.82,1.564,1.564,0,0,0,.675-.158,1.505,1.505,0,0,0,.662-2.017,96.375,96.375,0,0,0-8.036-12.9,1.5,1.5,0,1,0-2.422,1.756A93.347,93.347,0,0,1,112.954,410.617Z" transform="translate(211.998 -225.104)" fill="#01549e"/>
          <path id="Trazado_103252" data-name="Trazado 103252" d="M33.709,363.54A15.274,15.274,0,0,1,34,360.511a1.5,1.5,0,1,0-2.931-.607,17.816,17.816,0,0,0-.359,3.636,31.734,31.734,0,0,0,2.687,11.8,1.489,1.489,0,0,0,1.384.936,1.468,1.468,0,0,0,.568-.115,1.5,1.5,0,0,0,.82-1.953A28.776,28.776,0,0,1,33.709,363.54Z" transform="translate(-30.714 -346.296)" fill="#01549e"/>
          <path id="Trazado_103253" data-name="Trazado 103253" d="M49.358,355.813l-.9-.009a42.494,42.494,0,0,0-14.39,2.119,1.5,1.5,0,0,0,.517,2.91,1.568,1.568,0,0,0,.517-.09,39.3,39.3,0,0,1,13.356-1.94l.863,0h.017a1.5,1.5,0,0,0,.021-2.995Z" transform="translate(-22.951 -355.804)" fill="#01549e"/>
          <path id="Trazado_103254" data-name="Trazado 103254" d="M35.748,365.851a1.5,1.5,0,0,0-2.491,1.666,147.283,147.283,0,0,0,9.117,12.074,1.5,1.5,0,1,0,2.3-1.914A143.592,143.592,0,0,1,35.748,365.851Z" transform="translate(-23.217 -325.109)" fill="#01549e"/>
          <path id="Trazado_103255" data-name="Trazado 103255" d="M106.889,408.029c-4.52-1.226-9.318-2.675-14.266-4.3a1.5,1.5,0,0,0-.936,2.845c4.994,1.645,9.848,3.106,14.419,4.345a1.362,1.362,0,0,0,.393.055,1.5,1.5,0,0,0,.389-2.944Z" transform="translate(165.449 -199.223)" fill="#01549e"/>
          <path id="Trazado_103256" data-name="Trazado 103256" d="M74.319,396.243q-6.428-3.967-12.646-7.985a1.5,1.5,0,0,0-1.624,2.516q6.242,4.031,12.7,8.019a1.5,1.5,0,0,0,1.572-2.551Z" transform="translate(63.044 -250.37)" fill="#01549e"/>
          <path id="Trazado_103257" data-name="Trazado 103257" d="M113.862,407.491a122.551,122.551,0,0,1-14.654-2,1.5,1.5,0,0,0-.568,2.939,125.172,125.172,0,0,0,15.018,2.051h.1a1.5,1.5,0,0,0,.1-2.991Z" transform="translate(187.604 -193.293)" fill="#01549e"/>
          <path id="Trazado_103258" data-name="Trazado 103258" d="M121.8,403.453a1.546,1.546,0,0,0-1.577-1.414,1.5,1.5,0,0,0-1.418,1.577c.021.346.03.688.03,1.021a12.719,12.719,0,0,1-1.722,6.708c-2.038,3.35-5.913,5.618-11.514,6.733a1.5,1.5,0,0,0,.29,2.969,1.728,1.728,0,0,0,.295-.03c6.46-1.29,11-4.02,13.488-8.113a15.711,15.711,0,0,0,2.158-8.267C121.828,404.252,121.82,403.85,121.8,403.453Z" transform="translate(210.395 -204.503)" fill="#01549e"/>
          <path id="Trazado_103259" data-name="Trazado 103259" d="M102.87,390.889a1.5,1.5,0,1,0-2.136,2.1c3.644,3.708,7.054,7.378,10.134,10.912a1.5,1.5,0,0,0,2.26-1.965C110.01,398.353,106.557,394.636,102.87,390.889Z" transform="translate(197.02 -242.461)" fill="#01549e"/>
          <path id="Trazado_103260" data-name="Trazado 103260" d="M107.836,398.654a1.5,1.5,0,0,0,1.017-2.6c-3.529-3.281-7.293-6.656-11.2-10.036a1.5,1.5,0,0,0-1.957,2.269c3.875,3.354,7.613,6.7,11.117,9.963A1.512,1.512,0,0,0,107.836,398.654Z" transform="translate(180.241 -258.116)" fill="#01549e"/>
          <path id="Trazado_103261" data-name="Trazado 103261" d="M80.538,399.386q-6.441-3.621-12.945-7.472a1.5,1.5,0,0,0-1.525,2.58q6.53,3.858,13,7.507a1.5,1.5,0,0,0,1.47-2.615Z" transform="translate(82.57 -238.311)" fill="#01549e"/>
          <path id="Trazado_103262" data-name="Trazado 103262" d="M100.048,406.8c-4.524-1.7-9.194-3.542-13.89-5.486a1.5,1.5,0,1,0-1.141,2.764c4.721,1.957,9.425,3.815,13.975,5.524a1.532,1.532,0,0,0,.53.1,1.5,1.5,0,0,0,.525-2.9Z" transform="translate(143.955 -207.262)" fill="#01549e"/>
          <path id="Trazado_103263" data-name="Trazado 103263" d="M86.895,402.256q-6.563-3.339-13.249-6.93a1.5,1.5,0,0,0-1.418,2.64q6.716,3.608,13.3,6.96a1.5,1.5,0,0,0,1.363-2.67Z" transform="translate(102.557 -227.04)" fill="#01549e"/>
          <path id="Trazado_103264" data-name="Trazado 103264" d="M93.388,404.768q-6.671-2.986-13.552-6.285a1.5,1.5,0,1,0-1.295,2.7q6.908,3.313,13.625,6.323a1.537,1.537,0,0,0,.611.128,1.5,1.5,0,0,0,.611-2.867Z" transform="translate(123.011 -216.636)" fill="#01549e"/>
        </g>
        <g id="Grupo_57303" data-name="Grupo 57303" transform="translate(144.068)">
          <path id="Trazado_103265" data-name="Trazado 103265" d="M81.687,357.827a1.624,1.624,0,0,1,1.222-1.859,1.448,1.448,0,0,1,1.764,1.175q1.327,7.383,2.487,15.27a1.633,1.633,0,0,1-.2,1.038,1.614,1.614,0,0,1-1.077.782A1.451,1.451,0,0,1,84.156,373Q83.009,365.173,81.687,357.827Z" transform="translate(-8.058 -274.658)" fill="#01549e"/>
          <path id="Trazado_103266" data-name="Trazado 103266" d="M80.165,350.93a1.622,1.622,0,0,1,1.06-1.957,1.45,1.45,0,0,1,1.863,1.008c1.29,4.751,2.521,9.8,3.661,15a1.632,1.632,0,0,1-1.154,1.9,1.447,1.447,0,0,1-1.811-1.1C82.656,360.624,81.434,355.626,80.165,350.93Z" transform="translate(-13.145 -297.664)" fill="#01549e"/>
          <path id="Trazado_103267" data-name="Trazado 103267" d="M83.4,372.019a1.636,1.636,0,0,1,1.406-1.722,1.452,1.452,0,0,1,1.624,1.367q.538,7.626.931,15.5a1.577,1.577,0,0,1-.209.889,1.6,1.6,0,0,1-1.226.8,1.455,1.455,0,0,1-1.589-1.406Q83.939,379.619,83.4,372.019Z" transform="translate(-2.38 -227.677)" fill="#01549e"/>
          <path id="Trazado_103268" data-name="Trazado 103268" d="M82.728,364.882a1.632,1.632,0,0,1,1.324-1.786,1.459,1.459,0,0,1,1.692,1.286q.891,7.537,1.632,15.415a1.632,1.632,0,0,1-.209.957,1.6,1.6,0,0,1-1.158.795,1.452,1.452,0,0,1-1.653-1.329Q83.619,372.389,82.728,364.882Z" transform="translate(-4.604 -251.272)" fill="#01549e"/>
          <path id="Trazado_103269" data-name="Trazado 103269" d="M72.978,346.106c-1.726,4.477-3.4,9.438-4.96,14.748a1.481,1.481,0,0,1-.15.359,1.561,1.561,0,0,1-1.743.756,1.492,1.492,0,0,1-1.008-1.9c1.585-5.4,3.285-10.442,5.046-15a1.561,1.561,0,0,1,1.974-.944A1.508,1.508,0,0,1,72.978,346.106Z" transform="translate(-62.423 -313.586)" fill="#01549e"/>
          <path id="Trazado_103270" data-name="Trazado 103270" d="M76.321,437.021a1.589,1.589,0,0,1,.013,1.628,1.68,1.68,0,0,1-.5.534,1.466,1.466,0,0,1-2.089-.406,95.328,95.328,0,0,1-6.985-13.744,1.617,1.617,0,0,1,.8-2.068,1.45,1.45,0,0,1,1.987.739A93.343,93.343,0,0,0,76.321,437.021Z" transform="translate(-57.216 -55.782)" fill="#01549e"/>
          <path id="Trazado_103271" data-name="Trazado 103271" d="M77.081,341.195a14.191,14.191,0,0,0-2.781-1.243,1.5,1.5,0,0,1-.931-1.94,1.564,1.564,0,0,1,1.94-1.034,17.142,17.142,0,0,1,3.341,1.487,30.539,30.539,0,0,1,8.831,8.331,1.576,1.576,0,0,1,.085,1.726,1.633,1.633,0,0,1-.4.461,1.469,1.469,0,0,1-2.119-.231A27.706,27.706,0,0,0,77.081,341.195Z" transform="translate(-35.478 -336.908)" fill="#01549e"/>
          <path id="Trazado_103272" data-name="Trazado 103272" d="M67.964,351.03l.466-.825A46.432,46.432,0,0,1,77.8,338.17a1.477,1.477,0,0,1,2.132.15,1.575,1.575,0,0,1,.12,1.769,1.654,1.654,0,0,1-.35.423A43.241,43.241,0,0,0,71.032,351.7l-.449.79-.009.017a1.5,1.5,0,1,1-2.61-1.478Z" transform="translate(-53.563 -334.032)" fill="#01549e"/>
          <path id="Trazado_103273" data-name="Trazado 103273" d="M77.884,344.422a1.616,1.616,0,0,1,.731-2.093,1.454,1.454,0,0,1,2.017.662,146.583,146.583,0,0,1,5.7,14.321,1.591,1.591,0,0,1-.132,1.316,1.618,1.618,0,0,1-.8.7,1.458,1.458,0,0,1-1.931-.876A145.2,145.2,0,0,0,77.884,344.422Z" transform="translate(-20.887 -319.743)" fill="#01549e"/>
          <path id="Trazado_103274" data-name="Trazado 103274" d="M80.124,430.213c1.3-4.725,2.559-9.814,3.734-15.129a1.6,1.6,0,0,1,1.82-1.248,1.487,1.487,0,0,1,1.141,1.812c-1.188,5.37-2.461,10.514-3.777,15.291a1.62,1.62,0,0,1-.158.384,1.566,1.566,0,0,1-1.718.765A1.494,1.494,0,0,1,80.124,430.213Z" transform="translate(-13.283 -85.247)" fill="#01549e"/>
          <path id="Trazado_103275" data-name="Trazado 103275" d="M84.068,394.688q-.077-7.825-.308-15.488a1.628,1.628,0,0,1,1.47-1.662,1.455,1.455,0,0,1,1.559,1.44q.237,7.684.316,15.552a1.639,1.639,0,0,1-.218.824,1.579,1.579,0,0,1-1.286.808A1.459,1.459,0,0,1,84.068,394.688Z" transform="translate(-1.193 -203.96)" fill="#01549e"/>
          <path id="Trazado_103276" data-name="Trazado 103276" d="M77.733,436.289a134.021,134.021,0,0,0,5.939-14.33,1.574,1.574,0,0,1,1.944-1.008,1.505,1.505,0,0,1,.9,1.957,137.781,137.781,0,0,1-6.08,14.689l-.051.094a1.544,1.544,0,0,1-2,.662A1.529,1.529,0,0,1,77.733,436.289Z" transform="translate(-21.458 -62.125)" fill="#01549e"/>
          <path id="Trazado_103277" data-name="Trazado 103277" d="M71.239,435.385a1.585,1.585,0,0,1-.4-2.141,1.525,1.525,0,0,1,2.106-.5q.436.289.872.538a12.247,12.247,0,0,0,6.721,1.773c3.973-.184,7.964-2.576,11.864-7.122a1.5,1.5,0,0,1,2.145-.188,1.554,1.554,0,0,1,.278,1.935,1.7,1.7,0,0,1-.179.252c-4.5,5.238-9.241,8.006-14.095,8.233a15.145,15.145,0,0,1-8.3-2.158C71.91,435.813,71.572,435.6,71.239,435.385Z" transform="translate(-44.264 -40.855)" fill="#01549e"/>
          <path id="Trazado_103278" data-name="Trazado 103278" d="M64.484,418.005a1.624,1.624,0,0,1,1.089-1.935,1.447,1.447,0,0,1,1.846,1.038c1.312,5.165,2.713,10.1,4.166,14.663a1.588,1.588,0,0,1-.145,1.286,1.632,1.632,0,0,1-.833.714,1.454,1.454,0,0,1-1.91-.923C67.223,428.225,65.8,423.231,64.484,418.005Z" transform="translate(-64.434 -78.072)" fill="#01549e"/>
          <path id="Trazado_103279" data-name="Trazado 103279" d="M83.767,401.919q.224-7.671.291-15.513a1.622,1.622,0,0,1,1.534-1.6,1.459,1.459,0,0,1,1.5,1.5q-.07,7.863-.295,15.573a1.558,1.558,0,0,1-.214.765,1.575,1.575,0,0,1-1.346.807A1.46,1.46,0,0,1,83.767,401.919Z" transform="translate(-1.174 -180.174)" fill="#01549e"/>
          <path id="Trazado_103280" data-name="Trazado 103280" d="M81.688,423.37c.893-4.965,1.739-10.138,2.508-15.376a1.591,1.591,0,0,1,1.726-1.376,1.473,1.473,0,0,1,1.273,1.713c-.773,5.272-1.623,10.48-2.525,15.475a1.605,1.605,0,0,1-1.769,1.32A1.475,1.475,0,0,1,81.688,423.37Z" transform="translate(-8.059 -108.815)" fill="#01549e"/>
          <path id="Trazado_103281" data-name="Trazado 103281" d="M83.414,409.135q.532-7.639.919-15.513a1.621,1.621,0,0,1,1.594-1.542,1.464,1.464,0,0,1,1.44,1.568q-.385,7.9-.927,15.577a1.633,1.633,0,0,1-.209.7,1.589,1.589,0,0,1-1.41.808A1.465,1.465,0,0,1,83.414,409.135Z" transform="translate(-2.338 -156.36)" fill="#01549e"/>
          <path id="Trazado_103282" data-name="Trazado 103282" d="M82.742,416.3q.9-7.562,1.641-15.47a1.6,1.6,0,0,1,1.653-1.47,1.468,1.468,0,0,1,1.363,1.636q-.743,7.947-1.645,15.552a1.629,1.629,0,0,1-.205.624,1.576,1.576,0,0,1-1.483.8A1.471,1.471,0,0,1,82.742,416.3Z" transform="translate(-4.562 -132.555)" fill="#01549e"/>
        </g>
        <g id="Grupo_57304" data-name="Grupo 57304" transform="translate(14.257 88.47)">
          <path id="Trazado_103283" data-name="Trazado 103283" d="M65.012,404.733c-5.071,1.589-10.019,3.012-14.714,4.23a1.507,1.507,0,0,0-1.089,1.846,1.545,1.545,0,0,0,1.423,1.124,1.469,1.469,0,0,0,.466-.051c4.742-1.235,9.741-2.67,14.859-4.272a1.5,1.5,0,0,0,1-1.893A1.558,1.558,0,0,0,65.012,404.733Z" transform="translate(15.379 -203.646)" fill="#01549e"/>
          <path id="Trazado_103284" data-name="Trazado 103284" d="M58.566,406.487a148.045,148.045,0,0,1-15.086,2.132,1.514,1.514,0,0,0-1.4,1.632,1.531,1.531,0,0,0,1.465,1.38c.068,0,.137,0,.205-.008a149.522,149.522,0,0,0,15.411-2.175,1.509,1.509,0,0,0,1.218-1.769A1.542,1.542,0,0,0,58.566,406.487Z" transform="translate(-7.8 -197.782)" fill="#01549e"/>
          <path id="Trazado_103285" data-name="Trazado 103285" d="M77.664,399.592q-7.107,3.23-14.014,6.174a1.494,1.494,0,0,0-.795,1.987,1.559,1.559,0,0,0,2.029.782q6.934-2.954,14.082-6.208a1.483,1.483,0,0,0,.743-2A1.55,1.55,0,0,0,77.664,399.592Z" transform="translate(59.785 -220.712)" fill="#01549e"/>
          <path id="Trazado_103286" data-name="Trazado 103286" d="M71.384,402.367q-7.332,2.878-14.343,5.375a1.5,1.5,0,0,0-.919,1.931,1.547,1.547,0,0,0,1.38,1,1.6,1.6,0,0,0,.6-.09q7.049-2.506,14.437-5.409a1.5,1.5,0,0,0,.854-1.965A1.559,1.559,0,0,0,71.384,402.367Z" transform="translate(37.871 -211.517)" fill="#01549e"/>
          <path id="Trazado_103287" data-name="Trazado 103287" d="M99.153,365.113a1.477,1.477,0,0,0,.487-.056c5.174-1.435,10.173-2.67,14.855-3.666a1.51,1.51,0,0,0,1.175-1.794,1.549,1.549,0,0,0-1.837-1.154c-4.742,1.008-9.8,2.26-15.035,3.708a1.506,1.506,0,0,0-1.064,1.863A1.549,1.549,0,0,0,99.153,365.113Z" transform="translate(174.159 -355.007)" fill="#01549e"/>
          <path id="Trazado_103288" data-name="Trazado 103288" d="M94.129,365.311c3.1-.79,6.105-1.5,9-2.111a1.5,1.5,0,0,0,1.171-1.794,1.543,1.543,0,0,0-1.833-1.153c-2.764.59-5.635,1.256-8.588,2C91.762,362.786,92.206,365.8,94.129,365.311Z" transform="translate(157.146 -349.087)" fill="#01549e"/>
          <path id="Trazado_103289" data-name="Trazado 103289" d="M83.825,396.5q-6.908,3.531-13.7,6.815a1.49,1.49,0,0,0-.7,2.021,1.54,1.54,0,0,0,1.312.842,1.557,1.557,0,0,0,.752-.154q6.819-3.3,13.766-6.849a1.486,1.486,0,0,0,.649-2.034A1.551,1.551,0,0,0,83.825,396.5Z" transform="translate(81.185 -230.946)" fill="#01549e"/>
          <path id="Trazado_103290" data-name="Trazado 103290" d="M55.962,389.1a1.572,1.572,0,0,0-2.175-.115c-3.961,3.491-7.754,6.977-11.279,10.369a1.483,1.483,0,0,0-.017,2.132,1.559,1.559,0,0,0,2.179.021c3.495-3.362,7.255-6.819,11.181-10.275A1.486,1.486,0,0,0,55.962,389.1Z" transform="translate(-7.883 -256.202)" fill="#01549e"/>
          <path id="Trazado_103291" data-name="Trazado 103291" d="M61.385,384.287a1.569,1.569,0,0,0-2.179-.115c-3.961,3.486-7.754,6.977-11.279,10.369a1.484,1.484,0,0,0-.017,2.132,1.565,1.565,0,0,0,1.03.453,1.547,1.547,0,0,0,1.149-.431c3.495-3.362,7.255-6.819,11.181-10.275A1.489,1.489,0,0,0,61.385,384.287Z" transform="translate(9.85 -271.968)" fill="#01549e"/>
          <path id="Trazado_103292" data-name="Trazado 103292" d="M41.52,399.405a1.566,1.566,0,0,0-2.089.6c-2.982,5.392-4.789,10.305-5.366,14.616a1.52,1.52,0,0,0,1.329,1.7l.132.013a1.538,1.538,0,0,0,1.6-1.312,40.027,40.027,0,0,1,5.02-13.569A1.491,1.491,0,0,0,41.52,399.405Z" transform="translate(-34.051 -221.449)" fill="#01549e"/>
          <path id="Trazado_103293" data-name="Trazado 103293" d="M51.1,410.957c-5.93-.705-10.442-2.337-13.415-4.858a1.562,1.562,0,0,0-2.175.149,1.487,1.487,0,0,0,.162,2.128c3.439,2.922,8.511,4.8,15.065,5.571l.115.013a1.507,1.507,0,0,0,.248-3Z" transform="translate(-30.495 -200.167)" fill="#01549e"/>
          <path id="Trazado_103294" data-name="Trazado 103294" d="M47.491,394.06c-3.7,4.021-7.049,7.951-9.938,11.689a1.489,1.489,0,0,0,.3,2.111,1.56,1.56,0,0,0,.863.308,1.541,1.541,0,0,0,1.3-.6c2.837-3.666,6.122-7.532,9.767-11.48a1.491,1.491,0,0,0-.111-2.136A1.569,1.569,0,0,0,47.491,394.06Z" transform="translate(-23.607 -239.973)" fill="#01549e"/>
          <path id="Trazado_103295" data-name="Trazado 103295" d="M101.424,385.652q-6.216,4.23-12.728,8.438a1.489,1.489,0,0,0-.432,2.094,1.549,1.549,0,0,0,1.218.675,1.513,1.513,0,0,0,.914-.248q6.543-4.236,12.787-8.477a1.488,1.488,0,0,0,.385-2.1A1.571,1.571,0,0,0,101.424,385.652Z" transform="translate(142.515 -266.732)" fill="#01549e"/>
          <path id="Trazado_103296" data-name="Trazado 103296" d="M121.711,357.672a99.12,99.12,0,0,0-15.633.773,1.513,1.513,0,0,0-1.337,1.683,1.532,1.532,0,0,0,1.461,1.325,1.347,1.347,0,0,0,.261-.013,95.244,95.244,0,0,1,15.129-.748,1.528,1.528,0,0,0,1.6-1.448A1.562,1.562,0,0,0,121.711,357.672Z" transform="translate(197.235 -357.615)" fill="#01549e"/>
          <path id="Trazado_103297" data-name="Trazado 103297" d="M116.321,372.328c-3.332,3.473-6.968,7.054-10.8,10.634a1.492,1.492,0,0,0-.047,2.136,1.566,1.566,0,0,0,2.183.047c3.871-3.615,7.545-7.233,10.912-10.75a1.488,1.488,0,0,0-.068-2.132A1.572,1.572,0,0,0,116.321,372.328Z" transform="translate(198.276 -311.009)" fill="#01549e"/>
          <path id="Trazado_103298" data-name="Trazado 103298" d="M121.267,366.554a1.57,1.57,0,0,0-2.123.491,120.457,120.457,0,0,1-8.844,12.1,1.482,1.482,0,0,0,.239,2.119,1.536,1.536,0,0,0,.893.333,1.556,1.556,0,0,0,1.273-.56,123.714,123.714,0,0,0,9.066-12.411A1.488,1.488,0,0,0,121.267,366.554Z" transform="translate(214.354 -329.088)" fill="#01549e"/>
          <path id="Trazado_103299" data-name="Trazado 103299" d="M121.372,364.917a16.8,16.8,0,0,0-7.314-6.4,1.558,1.558,0,0,0-2.068.684,1.5,1.5,0,0,0,.7,2.021,13.823,13.823,0,0,1,6.024,5.217A13.318,13.318,0,0,1,120.432,374a24.936,24.936,0,0,1-1.06,5.883,1.506,1.506,0,0,0,1.051,1.871,1.549,1.549,0,0,0,1.91-1.025,27.744,27.744,0,0,0,1.179-6.592A16.235,16.235,0,0,0,121.372,364.917Z" transform="translate(220.478 -355.165)" fill="#01549e"/>
          <path id="Trazado_103300" data-name="Trazado 103300" d="M95.738,389.518q-6.434,3.967-13.086,7.9a1.49,1.49,0,0,0-.521,2.072,1.552,1.552,0,0,0,1.252.731A1.591,1.591,0,0,0,84.25,400q6.678-3.948,13.138-7.934a1.488,1.488,0,0,0,.478-2.081A1.559,1.559,0,0,0,95.738,389.518Z" transform="translate(122.557 -253.986)" fill="#01549e"/>
          <path id="Trazado_103301" data-name="Trazado 103301" d="M111.91,377.123c-3.7,3.183-7.643,6.456-11.706,9.715a1.49,1.49,0,0,0-.218,2.128,1.582,1.582,0,0,0,1.128.551,1.535,1.535,0,0,0,1.042-.342c4.1-3.286,8.066-6.575,11.792-9.788a1.485,1.485,0,0,0,.137-2.127A1.549,1.549,0,0,0,111.91,377.123Z" transform="translate(180.573 -295.023)" fill="#01549e"/>
          <path id="Trazado_103302" data-name="Trazado 103302" d="M89.855,393.129q-6.729,3.787-13.4,7.374a1.487,1.487,0,0,0-.607,2.046,1.55,1.55,0,0,0,1.286.786,1.6,1.6,0,0,0,.807-.184q6.7-3.6,13.458-7.409a1.494,1.494,0,0,0,.564-2.059A1.564,1.564,0,0,0,89.855,393.129Z" transform="translate(102.106 -242.059)" fill="#01549e"/>
          <path id="Trazado_103303" data-name="Trazado 103303" d="M106.851,381.536q-5.954,4.5-12.292,9.032a1.487,1.487,0,0,0-.333,2.107,1.557,1.557,0,0,0,1.179.619,1.531,1.531,0,0,0,.978-.29q6.364-4.556,12.352-9.075a1.488,1.488,0,0,0,.282-2.115A1.565,1.565,0,0,0,106.851,381.536Z" transform="translate(161.898 -280.364)" fill="#01549e"/>
        </g>
        <path id="Trazado_103304" data-name="Trazado 103304" d="M60.832,417.445a13.559,13.559,0,1,1-13.561-13.556A13.56,13.56,0,0,1,60.832,417.445Z" transform="translate(-20.893 -117.716)" fill="#01549e"/>
        <path id="Trazado_103305" data-name="Trazado 103305" d="M125.793,402.652A13.559,13.559,0,1,1,112.232,389.1,13.56,13.56,0,0,1,125.793,402.652Z" transform="translate(191.687 -166.125)" fill="#01549e"/>
        <path id="Trazado_103306" data-name="Trazado 103306" d="M107.1,375.461A13.561,13.561,0,1,1,93.54,361.9,13.56,13.56,0,0,1,107.1,375.461Z" transform="translate(130.502 -255.122)" fill="#01549e"/>
      </g>
    </g>
  </g>
</svg>
