<svg xmlns="http://www.w3.org/2000/svg" width="820" height="450.545" viewBox="0 0 820 450.545">
  <g id="Grupo_58577" data-name="Grupo 58577" transform="translate(-509 -2719)">
    <rect id="dylan-shaw-UxyWwU6n_ts-unsplash" width="820" height="195.482" transform="translate(509 2974.063)" fill="#bfeffc"/>
    <g id="Grupo_57378" data-name="Grupo 57378" transform="translate(565.402 2587.114)">
      <g id="Grupo_57370" data-name="Grupo 57370" transform="translate(159.598 193.215)">
        <path id="Trazado_103434" data-name="Trazado 103434" d="M265.106,282.461H194.036l5.841-85.675h59.388Z" transform="translate(-35.554 40.551)" fill="#01549e"/>
        <path id="Trazado_103435" data-name="Trazado 103435" d="M290.737,214.032a4.636,4.636,0,0,0-3.856-2.057H204.9a4.644,4.644,0,0,0-3.861,2.057L190.3,230.052a4.648,4.648,0,0,0,3.861,7.234H297.617a4.646,4.646,0,0,0,3.856-7.234Z" transform="translate(-51.871 95.263)" fill="#01549e"/>
        <rect id="Rectángulo_5952" data-name="Rectángulo 5952" width="388.033" height="260.114" rx="4.346" fill="#01549e"/>
        <rect id="Rectángulo_5953" data-name="Rectángulo 5953" width="352.302" height="222.954" transform="translate(17.865 17.233)" fill="#fed55f"/>
      </g>
      <g id="Grupo_57373" data-name="Grupo 57373" transform="translate(394.007 360.537)">
        <path id="Trazado_103436" data-name="Trazado 103436" d="M299.521,219.227c-40.93-7.589-88.652-16.581-88.781-.732-.124,14.979,18.017,26.595,33.686,34.013,8.491-3.24,18.077-3.852,27.142-5.255,16.038-2.48,31.772.083,47.824.051a64.26,64.26,0,0,0,25.578-18.932S331.063,225.076,299.521,219.227Z" transform="translate(-209.795 -80.185)" fill="#616161"/>
        <path id="Trazado_103437" data-name="Trazado 103437" d="M255.056,248.255c1.3.667-14.349,8.067-13.1,8.684,6.7,2.1,72.651,2.48,78.7.925,10.451-2.692-19.383-15.665-8.965-17.833,17.138-12.117,26.77-27.98,17.492-29.959-10.469-2.232-26.825,3.286-37.4,4.39-8.063.842-12.729,1.385-20.382-1.284l-25.757-2.839c-26.406,5.246-31.846,14.749-32.122,14.625,0,3.764,19.264,11.528,36.526,20.677A18.422,18.422,0,0,1,255.056,248.255Z" transform="translate(-199.803 -80.806)" fill="#00bad1"/>
        <path id="Trazado_103438" data-name="Trazado 103438" d="M255.056,248.255c1.3.667-14.349,8.067-13.1,8.684,6.7,2.1,72.651,2.48,78.7.925,10.451-2.692-19.383-15.665-8.965-17.833,17.138-12.117,26.77-27.98,17.492-29.959-10.469-2.232-26.825,3.286-37.4,4.39-8.063.842-12.729,1.385-20.382-1.284l-25.757-2.839c-26.406,5.246-31.846,14.749-32.122,14.625,0,3.764,19.264,11.528,36.526,20.677A18.422,18.422,0,0,1,255.056,248.255Z" transform="translate(-199.803 -80.806)" fill="#00547a" opacity="0.32" style="mix-blend-mode: multiply;isolation: isolate"/>
        <path id="Trazado_103439" data-name="Trazado 103439" d="M249.264,215.756l8.376,11.339s-9.093,6.351-11.634,7.478-23.083,1.965-28.463-2.163c-4.827-3.7-6.489-8.56-4.018-10.852,3.152-2.918,10.764-3.847,14.561-4.344C236.438,216.11,249.264,215.756,249.264,215.756Z" transform="translate(-203.854 -58.44)"/>
        <path id="Trazado_103440" data-name="Trazado 103440" d="M219.3,239.578l4.828,17.092s81.091-1.206,89.563-13.654c10.879-11.229,15.283-33.309-6.636-33.755-3.309-.069-8.638.99-14.137,2.844C263.172,222.132,219.3,239.578,219.3,239.578Z" transform="translate(-178.958 -81.848)" fill="#00bad1"/>
        <path id="Trazado_103441" data-name="Trazado 103441" d="M308.91,228.136c-5.058,0-9.287-2.526-13.438-5.044a57.18,57.18,0,0,0-16.8-6.59c-5.122-1.192-10.483-2.987-14.593-4.39C240.512,219.76,219.3,229.3,219.3,229.3l3.783,13.4c2.066.5,4.146,1.031,6.213,1.6a43.58,43.58,0,0,1,7.363,1.155c.511.138,1.022.235,1.537.327,23.3-1.275,70.258-4.887,76.484-14.031a47.237,47.237,0,0,0,3.792-5.647A42.259,42.259,0,0,1,308.91,228.136Z" transform="translate(-178.958 -71.565)" fill="#00547a" opacity="0.32" style="mix-blend-mode: multiply;isolation: isolate"/>
        <path id="Trazado_103442" data-name="Trazado 103442" d="M239.978,216.228l-7.032,8.909s11.473,6.986,13.861,8.136,18.965,1.928,24.225-1.845c4.712-3.387,6.443-7.966,4.156-10.225-2.918-2.881-10.147-3.995-13.755-4.588C253.5,215.3,239.978,216.228,239.978,216.228Z" transform="translate(-129.81 -57.881)"/>
        <path id="Trazado_103443" data-name="Trazado 103443" d="M328.844,239.221l-7.216,19.973s-99.6-7.846-107.7-21.749c-4.841-8.311-5.545-21.243,4.892-25.854,6.415-2.835,15.495-4.294,28.408.152C279.331,222.793,328.844,239.221,328.844,239.221Z" transform="translate(-210.535 -83.079)" fill="#00bad1"/>
        <path id="Trazado_103444" data-name="Trazado 103444" d="M243.659,186.718h-14.1s-2.029,19.209-5.706,21.5c0,0-4.538,22.692,12.757,22.692,20.934,0,12.761-22.692,12.761-22.692C245.693,205.927,243.659,186.718,243.659,186.718Z" transform="translate(-164.499 -163.033)" fill="#e45940"/>
        <g id="Grupo_57371" data-name="Grupo 57371" transform="translate(50.75)">
          <path id="Trazado_103445" data-name="Trazado 103445" d="M258.672,203.587c-1.951-2.246-4.3,1.173-4.3,1.173s3.226-12.7,0-18.27-13.677-2.642-13.677-2.642-10.456-2.931-13.682,2.642,0,18.27,0,18.27-2.347-3.419-4.3-1.173,3.221,7.915,4.395,8.6c0,0,7.524,14.068,13.585,14.068s13.58-14.068,13.58-14.068C255.451,211.5,260.628,205.837,258.672,203.587Z" transform="translate(-218.978 -176.143)" fill="#f88667"/>
          <path id="Trazado_103446" data-name="Trazado 103446" d="M238.1,189.428s-7.915,1.39-8.794,5.642a16.842,16.842,0,0,0,.423,6.337c.2,1.082.962,6.862.676,7a1.221,1.221,0,0,1-1.026-.179A14.452,14.452,0,0,1,226.7,205c-1.5-2.2-3.663-1.832-4.289-.442,0,0-1.758-20.847,6.963-21.579S238.1,189.428,238.1,189.428Z" transform="translate(-219.013 -176.687)" fill="#110239"/>
          <path id="Trazado_103447" data-name="Trazado 103447" d="M226.829,189.428s7.915,1.39,8.794,5.642a16.745,16.745,0,0,1-.424,6.337c-.2,1.082-.957,6.862-.672,7a1.227,1.227,0,0,0,1.026-.179A14.579,14.579,0,0,0,238.228,205c1.5-2.2,3.663-1.832,4.284-.442,0,0,1.758-20.847-6.963-21.579S226.829,189.428,226.829,189.428Z" transform="translate(-202.593 -176.687)" fill="#110239"/>
          <path id="Trazado_103448" data-name="Trazado 103448" d="M257.432,189.1s.189-3.433-3.718-5.559-11.671-3.079-17.828,0-8.026,3.774-9.821,2.747-.658-2.053-.658-2.053-4.031-.037-3.838,6.217,7.888,14.022,17.929,14.022C254.842,204.474,259.807,193.751,257.432,189.1Z" transform="translate(-221.563 -181.571)" fill="#110239"/>
        </g>
        <path id="Trazado_103449" data-name="Trazado 103449" d="M271.3,191.389c-.741,19.291-12.761,17.3-12.761,17.3s-12.016,1.993-12.756-17.3c0,0-19.195,5.306-28.555,11.579a185.494,185.494,0,0,1,4.234,35.555l10.976,42.5,26.1-4.758,26.1,4.758,10.976-42.5a185.277,185.277,0,0,1,4.238-35.555C290.49,196.7,271.3,191.389,271.3,191.389Z" transform="translate(-186.429 -146.209)" fill="#d0d1de"/>
        <path id="Trazado_103450" data-name="Trazado 103450" d="M292.406,198.265c-11.928,6.36-17.731,20.99-29.319,28.159-11.988,7.418-20.474-7.566-26.3-15.361a45.325,45.325,0,0,0-19.19-15.274,180.931,180.931,0,0,1,2.554,26.885l10.976,42.5,26.1-3.2,26.1,3.2,10.976-42.5a180.376,180.376,0,0,1,2.49-26.475C295.268,196.857,293.787,197.529,292.406,198.265Z" transform="translate(-185.114 -130.36)" fill="#b8b9cd"/>
        <path id="Trazado_103451" data-name="Trazado 103451" d="M234.464,193.906S212.706,245,212.448,252.033c-.5,13.626,29.305,19.144,42.9,16.641l5.531-1.017S240.7,193.538,234.464,193.906Z" transform="translate(-203.665 -137.147)" fill="#d0d1de"/>
        <path id="Trazado_103452" data-name="Trazado 103452" d="M255.85,193.906s21.965,51.086,22.011,58.127c.088,13.783-29.305,19.144-42.9,16.641l-5.531-1.017S249.61,193.538,255.85,193.906Z" transform="translate(-142.474 -137.147)" fill="#d0d1de"/>
        <path id="Trazado_103453" data-name="Trazado 103453" d="M222.646,197.8a35.719,35.719,0,0,1-.907,7.492c-2.1,9.268-5.407,18.946-1.937,28.362,2.628,7.119,6.834,14.354,10.713,21.187a17.106,17.106,0,0,0,3.764-.216l5.531-1.017S230.562,219.636,222.646,197.8Z" transform="translate(-182.598 -123.102)" fill="#b8b9cd"/>
        <path id="Trazado_103454" data-name="Trazado 103454" d="M242.868,252.389a33.374,33.374,0,0,0,2.632-13.668c-.322-9.471-.373-18.946-.221-28.422.065-4.1.17-8.063.41-11.947-7.694,21.827-16.259,53.281-16.259,53.281l5.531,1.017A22.5,22.5,0,0,0,242.868,252.389Z" transform="translate(-142.474 -121.125)" fill="#b8b9cd"/>
        <g id="Grupo_57372" data-name="Grupo 57372" transform="translate(23.796 83.671)">
          <rect id="Rectángulo_5954" data-name="Rectángulo 5954" width="68.408" height="4.055" transform="translate(14.111 47.425)" fill="#110239"/>
          <path id="Trazado_103455" data-name="Trazado 103455" d="M308.285,199.753H219.758s-4.777,0-3.958,5.329S227.774,247.7,230.025,247.7h67.989c1.979,0,13.41-37.285,14.229-42.619S308.285,199.753,308.285,199.753Z" transform="translate(-215.705 -199.753)" fill="#110239"/>
          <path id="Trazado_103456" data-name="Trazado 103456" d="M232.734,208.229a3.663,3.663,0,1,1-3.663-3.663A3.661,3.661,0,0,1,232.734,208.229Z" transform="translate(-180.757 -182.417)" fill="#fff"/>
        </g>
      </g>
      <g id="Grupo_57375" data-name="Grupo 57375" transform="translate(235.108 258.716)">
        <g id="Grupo_57374" data-name="Grupo 57374" transform="translate(0 1.06)">
          <path id="Trazado_103457" data-name="Trazado 103457" d="M176.006,221.825s110.852,139.84,237.014,0C286.858,81.99,176.006,221.825,176.006,221.825Z" transform="translate(-176.006 -159.676)" fill="#01549e"/>
          <path id="Trazado_103458" data-name="Trazado 103458" d="M179.611,215.015s95.334,120.263,203.83,0C274.945,94.757,179.611,215.015,179.611,215.015Z" transform="translate(-163.021 -152.866)" fill="#fff"/>
        </g>
        <circle id="Elipse_4203" data-name="Elipse 4203" cx="52.681" cy="52.681" r="52.681" transform="translate(55.297 102.644) rotate(-76.959)" fill="#8ecae4"/>
        <path id="Trazado_103459" data-name="Trazado 103459" d="M260.912,199.151a33.182,33.182,0,1,1-33.185-33.18A33.185,33.185,0,0,1,260.912,199.151Z" transform="translate(-109.222 -135.942)" fill="#110239"/>
        <path id="Trazado_103460" data-name="Trazado 103460" d="M231.414,179.2a13.5,13.5,0,1,1-13.493-13.493A13.5,13.5,0,0,1,231.414,179.2Z" transform="translate(-73.646 -136.893)" fill="#fff"/>
      </g>
      <g id="Grupo_57377" data-name="Grupo 57377" transform="translate(191.808 131.886)">
        <g id="Grupo_57376" data-name="Grupo 57376">
          <rect id="Rectángulo_5955" data-name="Rectángulo 5955" width="156.901" height="106.139" rx="1.55" fill="#e5e6ed"/>
          <rect id="Rectángulo_5956" data-name="Rectángulo 5956" width="142.637" height="89.23" transform="translate(7.132 8.454)" fill="#01549e"/>
        </g>
        <path id="Trazado_103461" data-name="Trazado 103461" d="M179.473,138.932v43.708l42.549-21.854Z" transform="translate(-120.22 -106.506)" fill="#fed55f"/>
      </g>
    </g>
  </g>
</svg>
