<svg xmlns="http://www.w3.org/2000/svg" width="820" height="422.482" viewBox="0 0 820 422.482">
  <g id="Grupo_58571" data-name="Grupo 58571" transform="translate(-600 -3745.063)">
    <rect id="dylan-shaw-UxyWwU6n_ts-unsplash" width="820" height="187.482" transform="translate(600 3980.063)" fill="#bfeffc"/>
    <g id="Grupo_57295" data-name="Grupo 57295" transform="translate(787.883 3613.778)">
      <g id="Grupo_57283" data-name="Grupo 57283" transform="translate(31.118 166.617)">
        <circle id="Elipse_4196" data-name="Elipse 4196" cx="166.088" cy="166.088" r="166.088" fill="#fed55f"/>
        <circle id="Elipse_4197" data-name="Elipse 4197" cx="125.889" cy="125.889" r="125.889" transform="matrix(0.122, -0.993, 0.993, 0.122, 25.761, 275.652)" fill="#fff"/>
        <circle id="Elipse_4198" data-name="Elipse 4198" cx="89.92" cy="89.92" r="89.92" transform="translate(57.914 99.233) rotate(-13.283)" fill="#fed55f"/>
        <path id="Trazado_103198" data-name="Trazado 103198" d="M178.635,224.97a61.886,61.886,0,1,1-61.888-61.888A61.886,61.886,0,0,1,178.635,224.97Z" transform="translate(49.339 -58.88)" fill="#fff"/>
        <path id="Trazado_103199" data-name="Trazado 103199" d="M119.584,199.239A28.563,28.563,0,1,1,91.02,170.676,28.561,28.561,0,0,1,119.584,199.239Z" transform="translate(75.066 -33.149)" fill="#fd425f"/>
      </g>
      <g id="Grupo_57289" data-name="Grupo 57289" transform="translate(254.43 227.002)">
        <path id="Trazado_103200" data-name="Trazado 103200" d="M98.72,164.233s-2.418,5.845-2.3,5.661a17.539,17.539,0,0,0-3.914-1.751,29.668,29.668,0,0,1-4.643-.329,7.675,7.675,0,0,1-2.686-1.382c-.465-.281-1.242-1.176-.549-1.382.61-.184,1.3.658,1.7.821a8.2,8.2,0,0,0,1.79.171s-.522-.241-1.54-.645a18.73,18.73,0,0,1-3.427-1.584c-.347-.351-.263-1.106.689-.926a13.362,13.362,0,0,1,2.4.807c.2.057,2.01.715,2.01.715s-1.567-.6-2.124-.851c-.623-.281-2.343-.957-3.432-1.444-1.049-.47-.816-1.654.149-1.584A23.972,23.972,0,0,1,86.34,162c.382.127,2.045.9,2.045.9s-2-.908-2.326-1.132-2.545-1.058-2.8-1.72a.631.631,0,0,1,.786-.834,11.61,11.61,0,0,1,2.778.948,26.048,26.048,0,0,0,4.327,1.782c.628.022,1.321-.04,1.334-.834l1.08-1.992s.724.351,1.106,2.163C94.871,162.258,96.513,163.509,98.72,164.233Z" transform="translate(-82.006 -132.702)" fill="#f88667"/>
        <g id="Grupo_57285" data-name="Grupo 57285" transform="translate(12.865 30.921)">
          <g id="Grupo_57284" data-name="Grupo 57284">
            <path id="Trazado_103201" data-name="Trazado 103201" d="M154.747,184.085a10,10,0,0,0-8.662-9.632c-7.908-1.194-22.6-3.462-27.036-4.485-6.166-1.417-31.354-9.825-31.354-9.825l-2.756,6.648s27.4,13.766,32.333,14.841,30.231,10.054,35.137,7.228A5.135,5.135,0,0,0,154.747,184.085Z" transform="translate(-84.938 -160.143)" fill="#00bad1"/>
          </g>
        </g>
        <g id="Grupo_57286" data-name="Grupo 57286" transform="translate(14.788 81.741)">
          <path id="Trazado_103202" data-name="Trazado 103202" d="M161.579,184.3l-1.588-4.762H88.829l1.517,4.762Z" transform="translate(-73.678 -145.254)" fill="#110239"/>
          <path id="Trazado_103203" data-name="Trazado 103203" d="M163.812,190.119l-1.605-4.814H90.666l1.533,4.814Z" transform="translate(-67.453 -125.706)" fill="#110239"/>
          <path id="Trazado_103204" data-name="Trazado 103204" d="M159.139,178.518l-1.588-4.762H86.39l1.517,4.762Z" transform="translate(-81.942 -164.841)" fill="#110239"/>
          <path id="Trazado_103205" data-name="Trazado 103205" d="M166.069,196l-1.622-4.864H92.523L94.072,196Z" transform="translate(-61.161 -105.948)" fill="#110239"/>
          <path id="Trazado_103206" data-name="Trazado 103206" d="M168.35,201.949l-1.639-4.918H94.4l1.565,4.918Z" transform="translate(-54.801 -85.978)" fill="#110239"/>
          <path id="Trazado_103207" data-name="Trazado 103207" d="M170.657,207.959,169,202.988H96.3l1.583,4.971Z" transform="translate(-48.373 -65.792)" fill="#110239"/>
          <path id="Trazado_103208" data-name="Trazado 103208" d="M172.989,214.036l-1.675-5.025h-73.1l1.6,5.025Z" transform="translate(-41.875 -45.386)" fill="#110239"/>
          <path id="Trazado_103209" data-name="Trazado 103209" d="M172.012,378.5h.338a3.292,3.292,0,0,0,3.12-4.336L108.641,173.971a3.291,3.291,0,0,0-3.124-2.247h-4.6L168.887,376.24A3.293,3.293,0,0,0,172.012,378.5Z" transform="translate(-32.733 -171.724)" fill="#110239"/>
          <path id="Trazado_103210" data-name="Trazado 103210" d="M152.271,378.5h.364a3.3,3.3,0,0,0,3.138-4.3l-63.9-200.184a3.289,3.289,0,0,0-3.133-2.291h-.07a3.289,3.289,0,0,0-3.138,4.287l63.6,200.184A3.292,3.292,0,0,0,152.271,378.5Z" transform="translate(-85.376 -171.724)" fill="#110239"/>
        </g>
        <path id="Trazado_103211" data-name="Trazado 103211" d="M107.885,158.455c-.145.158-.276.32-.43.474a29.615,29.615,0,0,1-4.516,3.932c-1,.667-2.567,1.1-3.432,1.8a10.02,10.02,0,0,1-1.08.764c.5,2.817,1.751,10.229,1.553,13.117,0,0,9.009-.636,12.3-4.274C112.277,174.27,108.539,164.234,107.885,158.455Z" transform="translate(-26.365 -134.942)" fill="#f88667"/>
        <path id="Trazado_103212" data-name="Trazado 103212" d="M103.053,173.52a13.064,13.064,0,0,1,4.1-6.793,20.479,20.479,0,0,1,2.159-1.6,46.51,46.51,0,0,1-1.431-6.67c-.145.158-.276.32-.43.474a29.615,29.615,0,0,1-4.516,3.932c-1,.667-2.567,1.1-3.432,1.8a10.02,10.02,0,0,1-1.08.764c.5,2.817,1.751,10.229,1.553,13.117a34.445,34.445,0,0,0,3.581-.5A6.781,6.781,0,0,1,103.053,173.52Z" transform="translate(-26.365 -134.942)" fill="#e45940"/>
        <path id="Trazado_103213" data-name="Trazado 103213" d="M117.341,196.143s-.246,8.987-1.65,10.212-19.278,1.764-20.814.127-.636-4.4,3.2-5.463c4.112-1.141,6.13-.026,8.706-1.1s1.891-5.134,1.891-5.134Z" transform="translate(-40.811 -11.839)" fill="#110239"/>
        <path id="Trazado_103214" data-name="Trazado 103214" d="M126.475,195.62s1.374,8.75.018,10.032-19.559,2.712-21.16,1.132-.8-4.371,2.988-5.582c4.064-1.3,6.034-.478,8.658-1.431,2.062-.755.671-4.919.671-4.919Z" transform="translate(-5.619 -11.619)" fill="#110239"/>
        <g id="Grupo_57287" data-name="Grupo 57287" transform="translate(63.34 79.17)">
          <path id="Trazado_103215" data-name="Trazado 103215" d="M128.987,222.122a268.214,268.214,0,0,0-3.73-49.956,22.8,22.8,0,0,0-8.926,1.725c-5.455,2.484-10.94,4.867-16.421,7.254,4.454,9.207,14.192,39.262,15.368,45.555,1.457,7.82,17.812,47.731,17.812,47.731l9.9-1.246C142.823,266.755,128.952,224.277,128.987,222.122Z" transform="translate(-84.684 -167.655)" fill="#d0d1de"/>
          <path id="Trazado_103216" data-name="Trazado 103216" d="M108.727,176.336A90.1,90.1,0,0,1,99.9,179.93c4.366,9.031,12.331,34.022,14.13,40.662,1.387-4.191,8.1-14.319,10.677-25.408a59.21,59.21,0,0,0,.834-22.6l-.013-.088C119.974,172.874,114.6,173.475,108.727,176.336Z" transform="translate(-84.725 -166.55)" fill="#abadc4"/>
          <path id="Trazado_103217" data-name="Trazado 103217" d="M127.837,179.568c-3.853,1.3-10.87,3.168-16.171,5.06-3.691,9.325-14.591,31.337-15.157,41.289-.623,10.98,3.177,52.58,3.177,52.58h11.322s1.049-46.893,2.637-49.9c5.231-9.935,11.006-17.812,14.293-23.991,5.507-10.37,7.377-17.031,8.346-21.889.43-2.142,2.3-9.325-1.334-11.576C131.94,171.994,131.067,178.48,127.837,179.568Z" transform="translate(-96.44 -171.138)" fill="#d0d1de"/>
        </g>
        <g id="Grupo_57288" data-name="Grupo 57288" transform="translate(73.577 37.74)">
          <path id="Trazado_103218" data-name="Trazado 103218" d="M99.637,218.876s9.509,3.844,18.878,2.94c6.933-.667,10.523-.772,14.582-2.962,0,0-4.34-33.8-9.343-44.458s-13.217-12.7-13.217-12.7-6.473,3.761-11.765,3.677c0,0,.132,20.77.531,29.064S99.637,218.876,99.637,218.876Z" transform="translate(-98.773 -161.697)" fill="#00bad1"/>
          <path id="Trazado_103219" data-name="Trazado 103219" d="M99.051,180.352q-.046-1.369-.088-2.9l-.009-.373c-.022-.974-.048-1.988-.066-3.024l-.013-.518c-.022-1.15-.044-2.321-.061-3.489v-.057a6.512,6.512,0,0,0,1.277-.088c3.309-.641,6.183-2.493,9.044-4.182.483-.281,1-.518,1.5-.764.575,4.441-1.422,9.861-2.282,13.389-2.387,9.768-3.677,22.126-1.632,31.561a50.243,50.243,0,0,1-7.219-2.08s.07-16.149-.334-24.438c-.035-.737-.066-1.593-.1-2.5Z" transform="translate(-98.634 -150.648)" fill="#00a7cc"/>
        </g>
        <path id="Trazado_103220" data-name="Trazado 103220" d="M121.162,162.5s-3.844-8.035-8.965-7.71-8.408,1.163-9.088,3.138-1.83,7.425-3.142,9.435-4.138,4.656-4.077,5.569,2.988,1.229,3.151,1.6,1.747,7,2.817,7.693,10.9-3.151,12.428-6.078S121.609,167.69,121.162,162.5Z" transform="translate(-34.969 -147.398)" fill="#f88667"/>
        <path id="Trazado_103221" data-name="Trazado 103221" d="M109.805,168.957a12.882,12.882,0,0,0-1.532.434c-.75.136-1.523.2-2.277.329a9.3,9.3,0,0,1-4.555-.009c-2.22-.728-1.505-2.923-2.528-4.463-.5-.75-1.549-.75-2.089-1.58a5.378,5.378,0,0,1-.667-2.866c.035-2.343,2.317-2.558,4.112-3.006,2.093-.518,2.216-1.685,3.221-3.274,2.488-3.923,5.994,1.523,8.755,1.194,1.409-.171,2.888-1.093,4.257-.312a9.7,9.7,0,0,1,2.681,2.9c.825,1.1,1.641.65,2.844,1.106a7.2,7.2,0,0,1,2.488,1.9,7.635,7.635,0,0,1,1.9,6.17c-.369,1.8-1.821,2.782-1.9,4.678-.057,1.51.026,3.375-.711,4.753-1.066,2-3.445,2.264-5.033,3.625a6.8,6.8,0,0,1-5.713,1.764c-.211-1.417-.079-3.8,1.167-4.511a7.866,7.866,0,0,0,1.891-.97,2.208,2.208,0,0,0-2.106-3.713c-1.615.224-2.343,4.638-4.1,3.919-1.338-.544.272-2.773.641-3.533.487-1,.746-3.546-.206-4.388A.7.7,0,0,0,109.805,168.957Z" transform="translate(-34.061 -153.097)" fill="#110239"/>
        <path id="Trazado_103222" data-name="Trazado 103222" d="M100.192,176.072a7.333,7.333,0,0,0-1.33-.105,5.387,5.387,0,0,1-2.909-.36c-1.374-.518-3.476-1.431-4.889-1.18-.825.145-5.749,1.29-4.542,3.313.162.272.768.693.939.632.509-.193,1.926-.706,1.926-.706a10.735,10.735,0,0,0-1.312.557c-.189.136-.557.3-.68.5a1.241,1.241,0,0,0,.566,1.466c.426.145.755-.281,1.11-.478l-.026.022c-.342.268-1.084.456-.623,1.5.513,1.163.869.43,1.36.3a3.222,3.222,0,0,0,.531-.206c-.184.105-.878.434-1.018.557-.461.413.557,1.782,1.47,1.663.562-.07,1.891-.878,2.207-.79a6.137,6.137,0,0,0,1.137.127,6.691,6.691,0,0,0,3.326-.663c.461-.206,1.378-.57,1.839-.816a20.087,20.087,0,0,0,2.738-1.861C101.254,178.087,100.038,177.718,100.192,176.072Z" transform="translate(-67.347 -80.969)" fill="#f88667"/>
        <path id="Trazado_103223" data-name="Trazado 103223" d="M92.954,215.517l-3.98-7.877s19.725-12.629,26.935-19.9,15.008-22.077,20.506-23.008,11.032,2.1,7.846,9.755-19.308,17.794-22.6,21.16S96.18,213.7,92.954,215.517Z" transform="translate(-58.398 -114.226)" fill="#00bad1"/>
      </g>
      <g id="Grupo_57290" data-name="Grupo 57290" transform="translate(197.718 131.285)">
        <path id="Trazado_103224" data-name="Trazado 103224" d="M134.371,135.143c-3.515-1.5-14.749-7.355-23.776,13.959-8.6,20.3-17.689,47.81-17.689,47.81s22.363-18.422,38.182-33.768C147.7,147.026,137.658,137.253,134.371,135.143Z" transform="translate(11.636 -124.562)" fill="#01549e"/>
        <path id="Trazado_103225" data-name="Trazado 103225" d="M195.9,137.406l-21.489,22.126a155.194,155.194,0,0,0-17.531,21.634l-87.792,130.8,99.473-107.7A155.162,155.162,0,0,0,195.83,163.2l8.395-18.479A25.9,25.9,0,0,1,195.9,137.406Z" transform="translate(-69.083 -110.545)" fill="#110239"/>
        <path id="Trazado_103226" data-name="Trazado 103226" d="M97.266,205.316s-14.464-40.328-.935-66.447,31.192,23.613,31.192,23.613Z" transform="translate(3.66 -131.285)" fill="#01549e"/>
        <path id="Trazado_103227" data-name="Trazado 103227" d="M92.057,181.292s42.843-.07,62.823-21.656S122.09,138.3,122.09,138.3Z" transform="translate(8.759 -107.502)" fill="#01549e"/>
      </g>
      <path id="Trazado_103228" data-name="Trazado 103228" d="M89.759,163.464c-.329-.136-.671.742-.992.641,0-.017.057-.965.053-.983-.123-.869-3.423-1.088-4.156-1.474-2.212-1.154-1.321-2.545-.316-2.229.685.215,2.238.676,2.835.939a10.724,10.724,0,0,0,2.291.263c.614.11,2.313,1.624,2.844,1.97C93.45,163.337,90.962,163.951,89.759,163.464Z" transform="translate(176.776 95.169)" fill="#f88667"/>
      <g id="Grupo_57294" data-name="Grupo 57294" transform="translate(46.771 353.402)">
        <path id="Trazado_103229" data-name="Trazado 103229" d="M99.6,189.274s-17.676,4.419-30.933,14.24-27,40.254-29.7,61.611-8.1,38.046,0,48.969,34.365,13.134,56.951,15.346,53.743-3.195,60.01-11.05,5.775-67.312-6.008-89.745S116.776,188.782,99.6,189.274Z" transform="translate(-34.685 -156.954)" fill="#8ecae4"/>
        <path id="Trazado_103230" data-name="Trazado 103230" d="M129.7,311.246c-4.542-1.505-9.211-3.155-12.959-6.24-8.039-6.626-12.941-8.592-22.946-8.5-9.154.092-18,.066-25.86-5.13-7-4.63-10.918-14.964-9.229-23.087a36.291,36.291,0,0,1,6.653-15.469c5.147-6.837,6.139-11.747,4.3-20.3-2.19-10.212-2.519-18.94.478-29.063,1.549-5.227,5.2-9.027,9.3-12.445a74.655,74.655,0,0,0-10.778,6.543c-13.253,9.817-27,40.254-29.7,61.611s-8.1,38.046,0,48.969,34.365,13.134,56.951,15.346,53.743-3.195,60.01-11.05c1.216-1.523,2.172-5.007,2.848-9.768C150.93,310.421,140.762,314.927,129.7,311.246Z" transform="translate(-34.685 -151.003)" fill="#01549e"/>
        <path id="Trazado_103231" data-name="Trazado 103231" d="M65.949,218.64s-18.962-4.6-21.538-18.962,4.968-19.33,10.769-16.017,6.718,1.527,10.769-.987,9.944,1.54,12.888,5.771,3.5-.733,10.492-1.286,9.391,5.889,5.709,14.358S87.859,219.009,65.949,218.64Z" transform="translate(-3.495 -181.901)" fill="#8ecae4"/>
        <g id="Grupo_57291" data-name="Grupo 57291" transform="translate(40.396 2.418)">
          <path id="Trazado_103232" data-name="Trazado 103232" d="M86.5,208.7c-4.915,1.264-2.005-5.086-2.8-7.289-1.286.061-1.764,2.194-2.19,3.12a5.761,5.761,0,0,1-5.222,3.313c-3.063-.035-3.489-3.379-4.792-5.428-.553-.865-.807-.834-1.15.2-.377,1.141-.013,2.475-1.08,3.366-1.962,1.646-5.222-.224-6.745-1.545-1.659-1.444-2.352-3.818-4.125-5.218a2.453,2.453,0,0,0-.553,1.233c-.439,2.067-.312,6-3.677,5.279-2.852-.614-4.766-5.275-5.687-7.649a26,26,0,0,1-2.045-8.948,27.578,27.578,0,0,1,.259-3.774,10.6,10.6,0,0,1,.7-2.9l-.022-.013c-2.729,2.4-4.375,7.46-2.958,15.359C46.6,210.024,60.647,215.18,64.8,216.448a7.726,7.726,0,0,0,2.238.333c17.259.048,22.622-5.968,26-12.744l-.031.031S88.258,208.242,86.5,208.7Z" transform="translate(-43.891 -182.452)" fill="#01549e"/>
        </g>
        <g id="Grupo_57293" data-name="Grupo 57293" transform="translate(43.05 67.747)">
          <g id="Grupo_57292" data-name="Grupo 57292">
            <path id="Trazado_103233" data-name="Trazado 103233" d="M71.885,208.99c9.294.917,17.694,5.095,17.531,14.4l-15.521-.276c-.018-3.519-3.612-4.34-5.88-4.38-1.426-.022-6.038-.105-6.087,2.743-.114,6.376,28.607.259,28.287,18.29-.193,10.822-8.733,14.7-19.146,15.267l.465,11.506-9.479-.167.794-11.567c-9.628-1.181-18.523-5.867-18.352-15.6l15.517.277,0,.333c0,4.279,4.77,5.2,7.206,5.244,2.352.044,6.964-.039,7.017-3.146.118-6.626-28.59-1.093-28.282-18.54.18-10.062,8.052-13.788,17.711-14.451l-.377-11.589,9.474.167Z" transform="translate(-44.495 -197.339)" fill="#01549e"/>
          </g>
        </g>
        <path id="Trazado_103234" data-name="Trazado 103234" d="M47.091,188.717l-1.711,9.04s4.845,4.66,18.04,4.66,20.309-4.665,20.309-4.665l-.856-8.158S64.824,194.167,47.091,188.717Z" transform="translate(1.552 -158.806)" fill="#110239"/>
      </g>
    </g>
  </g>
</svg>
