<svg xmlns="http://www.w3.org/2000/svg" width="820" height="438.411" viewBox="0 0 820 438.411">
  <g id="Grupo_58583" data-name="Grupo 58583" transform="translate(-509 -5475.134)">
    <g id="Grupo_58582" data-name="Grupo 58582">
      <rect id="dylan-shaw-UxyWwU6n_ts-unsplash" width="820" height="195.482" transform="translate(509 5718.063)" fill="#bfeffc"/>
      <g id="Grupo_57402" data-name="Grupo 57402" transform="translate(612 5229.974)">
        <g id="Grupo_57392" data-name="Grupo 57392" transform="translate(100.22 255.825)">
          <path id="Trazado_103513" data-name="Trazado 103513" d="M448.779,579.249H57.948c-10.793,0-19.543-7.871-19.543-17.587v-296.7c0-9.712,8.751-17.583,19.543-17.583H448.779c10.8,0,19.548,7.871,19.548,17.583v296.7C468.328,571.378,459.577,579.249,448.779,579.249Z" transform="translate(-38.405 -247.38)" fill="#d0d1de"/>
          <rect id="Rectángulo_5966" data-name="Rectángulo 5966" width="390.834" height="290.175" transform="translate(19.543 20.846)" fill="#fff"/>
        </g>
        <g id="Grupo_57393" data-name="Grupo 57393" transform="translate(143.643 245.161)">
          <circle id="Elipse_4204" data-name="Elipse 4204" cx="128.337" cy="128.337" r="128.337" transform="translate(0 131.428) rotate(-30.8)" fill="#01549e"/>
          <path id="Trazado_103514" data-name="Trazado 103514" d="M80.208,256.415a128.334,128.334,0,0,1,36.828,254.012Z" transform="translate(77.248 -207.399)" fill="#fed55f"/>
          <path id="Trazado_103515" data-name="Trazado 103515" d="M82.681,466.48c-.211-.015-.413-.043-.625-.062l8.952-127.809,107.146-71.677A128.279,128.279,0,0,1,82.681,466.48Z" transform="translate(84.28 -162.313)" fill="#8ecae4"/>
          <path id="Trazado_103516" data-name="Trazado 103516" d="M168.73,422.425a129.687,129.687,0,0,0,22.081,1.048L185.7,295.213,58.495,278.24A128.34,128.34,0,0,0,168.73,422.425Z" transform="translate(-9.727 -119.282)" fill="#e5e6ed"/>
        </g>
        <path id="Trazado_103517" data-name="Trazado 103517" d="M179.753,337.8,60.709,275.488a134.183,134.183,0,0,0-3.349,118Z" transform="translate(87.924 115.406)" fill="#fd425f"/>
        <path id="Trazado_103518" data-name="Trazado 103518" d="M86.733,302.941l129.226-23.4a132.337,132.337,0,0,1,1.98,16.867A130.407,130.407,0,0,1,203.11,363.9Z" transform="translate(245.721 130.841)" fill="#fed55f"/>
        <path id="Trazado_103519" data-name="Trazado 103519" d="M62.625,274.972c-1.355-.572-6.218,1.264-9.092,3.133-1.634,1.062-5.219,2.186-8.006,2.955a30.155,30.155,0,0,1,.591,4.724c0-.072,4.464-.779,4.93-.927,1.509-.476,2.681-1.653,4.416-1.2a12.932,12.932,0,0,1,2.355,1.168c.908.49,3.133,2.715,4.234,2.287,1.658-.644-1.043-2.547-1.345-3.08-.447-.793-.269-2.239.947-1.917,1.672.442,4.527,2.432,6.324,1.6,2.263-1.048-4.777-3.066-5.978-3.825,1.908.976,8.184,2.888,8.693,1.788.98-2.109-5.67-3.22-7.5-4.128,1.932.937,4.248,1.456,5.243,1.115C70.794,277.855,63.98,275.544,62.625,274.972Z" transform="translate(88.916 113.039)" fill="#f88667"/>
        <path id="Trazado_103520" data-name="Trazado 103520" d="M60.553,310.4c-1.413.413-6.031-1.98-8.669-4.166-1.5-1.245-4.93-2.773-7.607-3.864a30.166,30.166,0,0,0,1.129-4.623c-.01.072,4.349,1.293,4.8,1.49,1.442.654,2.47,1.961,4.243,1.706a12.9,12.9,0,0,0,2.475-.889c.961-.38,3.426-2.331,4.474-1.778,1.571.831-1.331,2.407-1.7,2.9-.533.735-.529,2.191.716,2.013,1.716-.245,4.781-1.893,6.473-.855,2.124,1.3-5.1,2.489-6.382,3.1,2-.75,8.462-1.917,8.842-.769.726,2.21-6.007,2.542-7.934,3.229,2.028-.7,4.387-.951,5.334-.495C69,308.489,61.966,309.993,60.553,310.4Z" transform="translate(84.16 200.118)" fill="#f88667"/>
        <g id="Grupo_57394" data-name="Grupo 57394" transform="translate(64.563 390.164)">
          <path id="Trazado_103521" data-name="Trazado 103521" d="M33.821,329.147a12.538,12.538,0,0,0,16.233-.706c7.468-6.708,21.379-19.13,25.906-22.609,6.29-4.834,34.522-22.523,34.522-22.523l-4.243-7.972S71.053,290.9,66.079,294.812s-33.844,21.259-35.017,28.265C30.654,325.528,31.9,327.57,33.821,329.147Z" transform="translate(-30.985 -275.336)" fill="#f8c01f"/>
          <path id="Trazado_103522" data-name="Trazado 103522" d="M33.821,329.147a12.538,12.538,0,0,0,16.233-.706c7.468-6.708,21.379-19.13,25.906-22.609,6.29-4.834,34.522-22.523,34.522-22.523l-4.243-7.972S71.053,290.9,66.079,294.812s-33.844,21.259-35.017,28.265C30.654,325.528,31.9,327.57,33.821,329.147Z" transform="translate(-30.985 -275.336)" fill="#f8c01f"/>
        </g>
        <path id="Trazado_103523" data-name="Trazado 103523" d="M37,279.347c.178.2.346.4.538.591a37.168,37.168,0,0,0,5.666,4.935c1.259.836,3.22,1.384,4.306,2.263a12.32,12.32,0,0,0,1.355.956c-.63,3.537-2.2,12.83-1.946,16.458,0,0-11.307-.8-15.425-5.368C31.489,299.184,36.174,286.594,37,279.347Z" transform="translate(35.497 130.091)" fill="#f88667"/>
        <path id="Trazado_103524" data-name="Trazado 103524" d="M48.265,291.6c.231-1.4.442-2.633.6-3.508a12.32,12.32,0,0,1-1.355-.956c-1.086-.879-3.047-1.427-4.306-2.263a37.168,37.168,0,0,1-5.666-4.935c-.192-.187-.356-.394-.538-.591-.822,7.247-5.507,19.837-5.507,19.837a14.9,14.9,0,0,0,6.386,3.6C38.736,297.531,42.2,292.8,48.265,291.6Z" transform="translate(35.497 130.091)" fill="#e45940"/>
        <path id="Trazado_103525" data-name="Trazado 103525" d="M33.937,322.674s.312,11.269,2.071,12.806,24.185,2.215,26.112.159.8-5.521-4.012-6.857c-5.161-1.427-7.689-.029-10.923-1.374s-2.379-6.439-2.379-6.439Z" transform="translate(44.812 288.475)" fill="#110239"/>
        <path id="Trazado_103526" data-name="Trazado 103526" d="M22.983,322.008s-1.73,10.976-.029,12.585,24.541,3.4,26.545,1.418,1.009-5.483-3.748-7c-5.1-1.629-7.568-.6-10.86-1.8-2.585-.942-.846-6.17-.846-6.17Z" transform="translate(0.168 288.756)" fill="#110239"/>
        <g id="Grupo_57395" data-name="Grupo 57395" transform="translate(22.161 479.26)">
          <path id="Trazado_103527" data-name="Trazado 103527" d="M39.72,357.721a336.352,336.352,0,0,1,4.68-62.667,28.64,28.64,0,0,1,11.2,2.167c6.843,3.114,13.724,6.1,20.6,9.1-5.584,11.547-17.8,49.25-19.279,57.146-1.826,9.812-22.345,59.875-22.345,59.875l-12.412-1.557C22.363,413.708,39.763,360.426,39.72,357.721Z" transform="translate(-22.161 -289.398)" fill="#d0d1de"/>
          <path id="Trazado_103528" data-name="Trazado 103528" d="M48.526,300.257a114.229,114.229,0,0,0,11.076,4.5c-5.478,11.331-15.473,42.681-17.727,51.009-1.74-5.257-10.163-17.962-13.393-31.869a74.23,74.23,0,0,1-1.048-28.357l.019-.115C34.417,295.908,41.159,296.662,48.526,300.257Z" transform="translate(-5.499 -287.979)" fill="#b8b9cd"/>
          <path id="Trazado_103529" data-name="Trazado 103529" d="M38.433,304.449c4.839,1.634,13.638,3.974,20.288,6.348,4.628,11.7,18.3,39.308,19.015,51.792.783,13.777-3.984,65.963-3.984,65.963h-14.2s-1.317-58.823-3.306-62.6c-6.564-12.465-13.811-22.34-17.934-30.1C31.4,322.844,29.053,314.487,27.837,308.4c-.538-2.691-2.888-11.7,1.677-14.522C33.286,294.949,34.382,303.079,38.433,304.449Z" transform="translate(-4.684 -293.877)" fill="#d0d1de"/>
        </g>
        <g id="Grupo_57396" data-name="Grupo 57396" transform="translate(39.398 427.285)">
          <path id="Trazado_103530" data-name="Trazado 103530" d="M67.723,354.791s-11.932,4.82-23.681,3.69c-8.7-.836-13.205-.975-18.294-3.719,0,0,5.445-42.4,11.72-55.771s16.579-15.93,16.579-15.93,8.121,4.714,14.757,4.613c0,0-.159,26.05-.668,36.454S67.723,354.791,67.723,354.791Z" transform="translate(-25.748 -283.061)" fill="#fed55f"/>
          <path id="Trazado_103531" data-name="Trazado 103531" d="M46.209,306.11c.038-1.149.072-2.359.106-3.642l.014-.466c.029-1.225.058-2.494.082-3.791l.014-.649c.029-1.446.058-2.917.082-4.383v-.067a8.5,8.5,0,0,1-1.6-.11c-4.152-.807-7.756-3.128-11.345-5.243-.605-.356-1.245-.654-1.879-.961-.721,5.569,1.788,12.369,2.869,16.795,2.989,12.249,4.608,27.756,2.042,39.587a63.444,63.444,0,0,0,9.058-2.6s-.091-20.255.413-30.663c.048-.918.087-1.994.13-3.133Z" transform="translate(-3.672 -268.844)" fill="#fed55f"/>
        </g>
        <path id="Trazado_103532" data-name="Trazado 103532" d="M96.794,350.261l4.993-9.88S77.039,324.538,68,315.412s-18.827-27.689-25.723-28.856-13.839,2.633-9.841,12.234,24.224,22.321,28.347,26.55S92.748,347.988,96.794,350.261Z" transform="translate(34.612 156.746)" fill="#fed55f"/>
        <path id="Trazado_103533" data-name="Trazado 103533" d="M35.766,275.886s18.26-2.09,19.524.98,1.538,11.715,2.72,13.537,3.325,4.012,2.528,5.19-1.682.889-2.186,2.211-.312,8.794-2.725,9.909-14.709.456-19.164-6.55S26.949,276.535,35.766,275.886Z" transform="translate(33.329 114.278)" fill="#f88667"/>
        <path id="Trazado_103534" data-name="Trazado 103534" d="M34.376,276.131l12.11,5.6a27.183,27.183,0,0,0,3.1,13.229s-1.091,1.672-2.235.726-1.879-1.456-2.143-3.215-1.321-6.473-4.5-4.147.183,5.094,1.8,5.776c0,0,2.566,9.193-2.316,8.539,0,0-4.5-2.85-8.381-13.892S31.358,274.06,34.376,276.131Z" transform="translate(30.14 115.748)" fill="#110239"/>
        <path id="Trazado_103535" data-name="Trazado 103535" d="M61.057,279.033s4.33,6.228-5.733,10.389-24.531-6.8-24.531-6.8.37-5.459,8.395-7.8c6-1.744,11.619-1.5,14.68,1.975C59.073,282.7,61.057,279.033,61.057,279.033Z" transform="translate(32.848 108.829)" fill="#110239"/>
        <g id="Grupo_57401" data-name="Grupo 57401" transform="translate(439.796 389.44)">
          <path id="Trazado_103536" data-name="Trazado 103536" d="M135.493,280.2c-.168.2-.322.4-.5.591a36.142,36.142,0,0,1-5.31,4.9c-1.187.841-3.056,1.422-4.075,2.3a12.176,12.176,0,0,1-1.278.961c.706,3.378,2.475,12.273,2.34,15.766,0,0,10.846-1.086,14.68-5.6C141.351,299.122,136.483,287.151,135.493,280.2Z" transform="translate(-51.004 -256.092)" fill="#f88667"/>
          <path id="Trazado_103537" data-name="Trazado 103537" d="M135.542,280.53c-.168.2-.322.4-.5.591a36.331,36.331,0,0,1-5.305,4.9c-1.192.841-3.061,1.422-4.075,2.3a11.615,11.615,0,0,1-1.283.961c.154.73.36,1.749.582,2.883.053,0,.1-.014.144-.014a12.879,12.879,0,0,1,13.008,9.755,10.86,10.86,0,0,0,3.287-2.456S136.537,287.479,135.542,280.53Z" transform="translate(-50.818 -254.847)" fill="#e45940"/>
          <path id="Trazado_103538" data-name="Trazado 103538" d="M144.657,321.625s.557,10.831-1.019,12.441-23.023,3.95-25.026,2.124-1.182-5.233,3.33-6.877c4.839-1.763,7.371-.61,10.37-2.143s1.792-6.357,1.792-6.357Z" transform="translate(-76.694 -101.555)" fill="#110239"/>
          <path id="Trazado_103539" data-name="Trazado 103539" d="M153.483,320.982s3.008,10.259,1.581,12-22.989,6.276-25.147,4.637-1.639-5.108,2.71-7.146c4.666-2.187,7.285-1.259,10.139-3.051s1.221-6.492,1.221-6.492Z" transform="translate(-34.458 -101.114)" fill="#110239"/>
          <path id="Trazado_103540" data-name="Trazado 103540" d="M160.249,355.719a323.166,323.166,0,0,0-2.931-60.37,27.47,27.47,0,0,0-10.817,1.8c-6.66,2.826-13.354,5.521-20.038,8.232,5.079,11.245,15.887,47.8,17.107,55.43,1.514,9.481,8.131,61.393,8.131,61.393l12.234-.413C163.944,414.027,160.143,358.324,160.249,355.719Z" transform="translate(-42.891 -198.455)" fill="#01549e"/>
          <path id="Trazado_103541" data-name="Trazado 103541" d="M137.213,299.822a109.265,109.265,0,0,1-10.764,4.056c4.988,11.033,15.675,47.3,17.122,55.31,1.8-5.007,8.871-22.835,12.326-36.132a71.288,71.288,0,0,0,1.711-27.237l-.01-.11C150.889,296,144.387,296.555,137.213,299.822Z" transform="translate(-42.941 -197.085)" fill="#043057"/>
          <path id="Trazado_103542" data-name="Trazado 103542" d="M168.542,297.389c-4.68,1.485-13.186,3.585-19.62,5.752-4.656,11.168-17.222,43.368-19.558,55.166-3.244,16.324-8.655,64.714-8.655,64.714l13.8,1.816s13.863-65.012,15.843-68.611c6.526-11.874,13.666-21.245,17.766-28.635,9.9-17.852,10.529-26.583,11.869-32.878C176.336,295.679,172.463,296.145,168.542,297.389Z" transform="translate(-64.784 -200.876)" fill="#01549e"/>
          <g id="Grupo_57397" data-name="Grupo 57397" transform="translate(10.888 13.786)">
            <path id="Trazado_103543" data-name="Trazado 103543" d="M120.6,278.591c1.317.149,4.325,3.724,5.757,6.449a32.291,32.291,0,0,0,4.978,5.824,28.154,28.154,0,0,0-2.532,3.45c.034-.058-3.157-2.571-3.46-2.893-.975-1.038-1.374-2.475-2.936-2.874a11.029,11.029,0,0,0-2.359-.115c-.927-.019-3.647.75-4.32-.067-1.019-1.235,1.932-1.543,2.4-1.826.7-.423,1.2-1.634.1-1.917-1.5-.389-4.618-.077-5.661-1.518-1.317-1.812,5.089-.308,6.362-.38-1.922-.067-7.684-1.321-7.6-2.408.154-2.086,5.858-.038,7.693.053-1.927-.111-3.969-.721-4.6-1.427C112.938,277.27,119.291,278.447,120.6,278.591Z" transform="translate(-111.337 -278.054)" fill="#f88667"/>
            <path id="Trazado_103544" data-name="Trazado 103544" d="M193.983,320.953a12.063,12.063,0,0,0-8.5-13.119c-9.2-2.922-26.281-8.414-31.369-10.471-7.078-2.859-35.5-17.655-35.5-17.655l-4.541,7.4s30.043,21.6,35.714,23.815,34.123,17.713,40.5,15.271C192.527,325.341,193.608,323.313,193.983,320.953Z" transform="translate(-100.921 -271.757)" fill="#01c7e2"/>
            <path id="Trazado_103545" data-name="Trazado 103545" d="M193.983,320.953a12.063,12.063,0,0,0-8.5-13.119c-9.2-2.922-26.281-8.414-31.369-10.471-7.078-2.859-35.5-17.655-35.5-17.655l-4.541,7.4s30.043,21.6,35.714,23.815,34.123,17.713,40.5,15.271C192.527,325.341,193.608,323.313,193.983,320.953Z" transform="translate(-100.921 -271.757)" fill="#66b5d6"/>
          </g>
          <g id="Grupo_57399" data-name="Grupo 57399" transform="translate(75.541 41.137)">
            <g id="Grupo_57398" data-name="Grupo 57398">
              <path id="Trazado_103546" data-name="Trazado 103546" d="M127.737,353.1a95.654,95.654,0,0,0,22.345.149c8.342-1.048,15.935-4.137,17.693-7.285,0,0-6.117-34.7-12.528-47.376s-16.4-14.844-16.4-14.844-7.674,4.767-14.061,4.853c0,0,.894,25.046,1.677,35.036S127.737,353.1,127.737,353.1Z" transform="translate(-124.791 -283.746)" fill="#8ecae4"/>
              <path id="Trazado_103547" data-name="Trazado 103547" d="M136.749,303.569c.913-4.286,3.128-10.894,2.278-16.233-.6.317-1.206.62-1.773.98-3.393,2.138-6.795,4.469-10.764,5.363a8.6,8.6,0,0,1-1.538.154c.279,6.084.6,12.249.9,16.141.783,9.986,1.269,29.466,1.269,29.466s3.1.437,7.684.639C132,328.773,134.217,315.438,136.749,303.569Z" transform="translate(-124.178 -270.085)" fill="#66b5d6"/>
            </g>
          </g>
          <path id="Trazado_103548" data-name="Trazado 103548" d="M150.681,284.851s-5.041-9.491-11.2-8.842-12.143,2.422-12.869,4.839.154,7.7-1.321,10.2-4.44,5.94-3.465,6.915a36.531,36.531,0,0,1,2.787,2.513c.216.437,2.456,8.352,3.782,9.13s12.994-4.349,14.676-7.953S151.478,291.084,150.681,284.851Z" transform="translate(-61.257 -272.172)" fill="#f88667"/>
          <path id="Trazado_103549" data-name="Trazado 103549" d="M140.439,277.5s-4.935,13.734-17.213,12.581c0,0-3.013-5.6-.048-9.976C125.484,276.7,132.471,273.536,140.439,277.5Z" transform="translate(-60.357 -273.384)" fill="#110239"/>
          <path id="Trazado_103550" data-name="Trazado 103550" d="M170.5,329.508c-.629-6.824-4.022-10.788-8.928-15.17-5.906-5.276-9.726-10.755-11.86-18.443-1.961-7.064-1-13.854-7.775-18.746-5.041-3.642-13.075-1.576-16.367,1.033a3.261,3.261,0,0,1-.1.745s-4.556,4.325,2.749,10.476a15.556,15.556,0,0,1,4.041,6.4,4.557,4.557,0,0,1,1.543-1.74,1.735,1.735,0,0,1,2.6.183c1.451,1.485-.711,4.219-2.085,4.426-.235.034-.577.37-.942.779.735,2.023,2.162,7.472,3.215,18.549.288,3.032,1.72,5.271,3.561,7.592,2.052,2.585,3.546,2.686,4.753,5.776,1.3,3.32-1.326,11.172,4.945,14.887,2.782,1.653,9.433,1.3,10.884.8C169.3,344.092,171.277,337.961,170.5,329.508Z" transform="translate(-51.979 -275.185)" fill="#110239"/>
          <g id="Grupo_57400" data-name="Grupo 57400" transform="translate(0 49.539)">
            <path id="Trazado_103551" data-name="Trazado 103551" d="M128.37,295.464a9.69,9.69,0,0,1-5,.731,5.87,5.87,0,0,0-2.355-.187,12.435,12.435,0,0,1-2.715.038,4.814,4.814,0,0,0-2.667.308c-.971.572.279,1.283,1.177,1.639.975.384,4.166-.423,4.7.553s-3.407,1.716-4.2,1.855c-1.855.317-2.773-.759-4.4-1.288-.947-.312-1.475-.163-1.124.932.259.817,1.2,1.168,1.927,1.475a10.146,10.146,0,0,0,4.906.836,11.905,11.905,0,0,1-4.652-.3c-.865-.221-4.368-1.816-4.834-.495-.947,2.657,7.679,3.715,9.178,3.2a13.9,13.9,0,0,1-4.7-.01c-.927-.1-3.1-.423-2.359,1.072,1.105,2.206,5.987.86,8.28.654a16.626,16.626,0,0,1-4.378.923c-1.961.312-1.048,1.643,1.014,1.672a22.62,22.62,0,0,0,2.97-.322c3.955-.7,5.781-1.98,8.659-4.56,1.028-.928,3.9-1.538,4.041-2.73C132.123,299.145,129.571,297.021,128.37,295.464Z" transform="translate(-109.071 -247.557)" fill="#f88667"/>
            <path id="Trazado_103552" data-name="Trazado 103552" d="M116.259,342.541l-3.916-9.073s25.541-14.776,35.651-22.662,22.158-25.017,29.13-25.3,13.369,4.368,8.193,13.364-26.819,19.02-31.437,22.677S120.555,340.807,116.259,342.541Z" transform="translate(-96.62 -285.495)" fill="#8ecae4"/>
          </g>
        </g>
      </g>
    </g>
  </g>
</svg>
