<svg xmlns="http://www.w3.org/2000/svg" xmlns:xlink="http://www.w3.org/1999/xlink" width="820" height="422.318" viewBox="0 0 820 422.318">
  <defs>
    <linearGradient id="linear-gradient" x1="-51.799" y1="-0.811" x2="-53.004" y2="1.528" gradientUnits="objectBoundingBox">
      <stop offset="0" stop-color="#4f52ff"/>
      <stop offset="1" stop-color="#4042e2"/>
    </linearGradient>
    <linearGradient id="linear-gradient-2" x1="-43.605" y1="-0.811" x2="-44.811" y2="1.528" xlink:href="#linear-gradient"/>
    <linearGradient id="linear-gradient-3" x1="-35.335" y1="-0.811" x2="-36.541" y2="1.528" xlink:href="#linear-gradient"/>
    <linearGradient id="linear-gradient-4" x1="-27.142" y1="-0.811" x2="-28.347" y2="1.528" xlink:href="#linear-gradient"/>
    <linearGradient id="linear-gradient-5" x1="0.6" y1="0.049" x2="-0.089" y2="0.806" gradientUnits="objectBoundingBox">
      <stop offset="0" stop-color="#febbba"/>
      <stop offset="1" stop-color="#ff928e"/>
    </linearGradient>
    <linearGradient id="linear-gradient-6" x1="-2.1" y1="2.788" x2="0.263" y2="0.663" gradientUnits="objectBoundingBox">
      <stop offset="0" stop-color="#ff928e"/>
      <stop offset="1" stop-color="#fe7062"/>
    </linearGradient>
    <linearGradient id="linear-gradient-7" x1="0.988" y1="-0.182" x2="-0.134" y2="1.584" gradientUnits="objectBoundingBox">
      <stop offset="0" stop-color="#e1473d"/>
      <stop offset="1" stop-color="#e9605a"/>
    </linearGradient>
    <linearGradient id="linear-gradient-8" x1="-0.99" y1="1.192" x2="0.817" y2="0.295" xlink:href="#linear-gradient-6"/>
    <linearGradient id="linear-gradient-9" x1="0.536" y1="1.352" x2="0.481" y2="0.1" xlink:href="#linear-gradient-5"/>
    <linearGradient id="linear-gradient-10" x1="-102.2" y1="21.071" x2="-101.006" y2="22.239" xlink:href="#linear-gradient-5"/>
    <linearGradient id="linear-gradient-11" x1="1.139" y1="-0.805" x2="-2.161" y2="4.635" xlink:href="#linear-gradient-7"/>
    <linearGradient id="linear-gradient-12" x1="-286.949" y1="76.193" x2="-283.58" y2="80.557" xlink:href="#linear-gradient-5"/>
    <linearGradient id="linear-gradient-13" x1="43.476" y1="1.404" x2="44.877" y2="0.268" xlink:href="#linear-gradient-5"/>
    <linearGradient id="linear-gradient-14" x1="-0.175" y1="-0.951" x2="0.875" y2="1.706" gradientUnits="objectBoundingBox">
      <stop offset="0" stop-color="#09005d"/>
      <stop offset="1" stop-color="#1a0f91"/>
    </linearGradient>
    <linearGradient id="linear-gradient-15" x1="1.036" y1="0.429" x2="3.672" y2="-0.046" xlink:href="#linear-gradient-5"/>
    <linearGradient id="linear-gradient-16" x1="3.375" y1="-1.847" x2="1.815" y2="-0.568" xlink:href="#linear-gradient-14"/>
    <linearGradient id="linear-gradient-17" x1="0.066" y1="0.105" x2="0.83" y2="0.93" xlink:href="#linear-gradient"/>
    <linearGradient id="linear-gradient-18" x1="-1.153" y1="1.785" x2="1.321" y2="-0.067" xlink:href="#linear-gradient-6"/>
    <linearGradient id="linear-gradient-19" x1="11.849" y1="0.5" x2="12.849" y2="0.5" xlink:href="#linear-gradient-5"/>
    <linearGradient id="linear-gradient-20" x1="11.296" y1="-0.062" x2="11.809" y2="2.428" xlink:href="#linear-gradient-14"/>
    <linearGradient id="linear-gradient-21" x1="58.155" y1="-3.497" x2="57.582" y2="1.805" xlink:href="#linear-gradient"/>
    <linearGradient id="linear-gradient-22" x1="30.575" y1="-1.235" x2="30.431" y2="1.146" xlink:href="#linear-gradient"/>
    <linearGradient id="linear-gradient-23" x1="37.523" y1="0.5" x2="38.523" y2="0.5" xlink:href="#linear-gradient-5"/>
    <linearGradient id="linear-gradient-24" x1="0" y1="0.5" x2="1" y2="0.5" xlink:href="#linear-gradient"/>
    <linearGradient id="linear-gradient-25" x1="-29.059" y1="0.5" x2="-28.059" y2="0.5" xlink:href="#linear-gradient-14"/>
    <linearGradient id="linear-gradient-26" x1="-102.052" y1="0.5" x2="-101.052" y2="0.5" xlink:href="#linear-gradient-5"/>
    <linearGradient id="linear-gradient-28" x1="-57.27" y1="0.5" x2="-56.27" y2="0.5" xlink:href="#linear-gradient-14"/>
    <linearGradient id="linear-gradient-29" x1="-94.628" y1="0.5" x2="-93.628" y2="0.5" xlink:href="#linear-gradient-5"/>
    <linearGradient id="linear-gradient-30" x1="-10.637" y1="-0.146" x2="-11.793" y2="1.031" xlink:href="#linear-gradient-14"/>
    <linearGradient id="linear-gradient-31" x1="6.169" y1="-4.537" x2="2.62" y2="-1.384" xlink:href="#linear-gradient"/>
    <linearGradient id="linear-gradient-32" x1="1.593" y1="1.228" x2="0.037" y2="0.125" xlink:href="#linear-gradient-5"/>
    <linearGradient id="linear-gradient-33" x1="-0.022" y1="1.199" x2="0.652" y2="0.116" xlink:href="#linear-gradient-6"/>
    <linearGradient id="linear-gradient-34" x1="6.259" y1="-4.466" x2="2.869" y2="-1.555" xlink:href="#linear-gradient-7"/>
    <linearGradient id="linear-gradient-35" x1="-53.239" y1="1.478" x2="-52.966" y2="0.434" xlink:href="#linear-gradient-5"/>
    <linearGradient id="linear-gradient-36" x1="-37.347" y1="0.35" x2="-38.459" y2="1.106" xlink:href="#linear-gradient-5"/>
    <linearGradient id="linear-gradient-37" x1="-27.584" y1="0.152" x2="-26.834" y2="1.129" xlink:href="#linear-gradient-14"/>
    <linearGradient id="linear-gradient-38" x1="-156.434" y1="-0.685" x2="-160.984" y2="1.784" xlink:href="#linear-gradient-5"/>
    <linearGradient id="linear-gradient-39" x1="0" y1="0.5" x2="1" y2="0.5" xlink:href="#linear-gradient-6"/>
    <linearGradient id="linear-gradient-40" x1="0.427" y1="1.08" x2="1.34" y2="-2.376" xlink:href="#linear-gradient-5"/>
    <linearGradient id="linear-gradient-41" x1="-8.156" y1="0.067" x2="-8.895" y2="2.529" xlink:href="#linear-gradient-14"/>
    <linearGradient id="linear-gradient-42" x1="0.184" y1="1.22" x2="0.691" y2="0.103" xlink:href="#linear-gradient-14"/>
    <linearGradient id="linear-gradient-43" x1="-0.038" y1="0.5" x2="1.038" y2="0.5" xlink:href="#linear-gradient"/>
  </defs>
  <g id="Grupo_58580" data-name="Grupo 58580" transform="translate(-509 -4403.227)">
    <rect id="dylan-shaw-UxyWwU6n_ts-unsplash" width="820" height="195.482" transform="translate(509 4630.063)" fill="#bfeffc"/>
    <g id="Grupo_57421" data-name="Grupo 57421" transform="translate(162.625 3570.576)">
      <g id="Grupo_57412" data-name="Grupo 57412" transform="translate(524.287 832.651)">
        <path id="Trazado_103573" data-name="Trazado 103573" d="M537.078,1268.315c6.357-64.117,22.263-223.367,25.736-246.644,4.365-29.255,40.214-22.8,40.214-22.8l7.676,296.049H560.72a23.56,23.56,0,0,1-17.626-7.973A24.44,24.44,0,0,1,537.078,1268.315Z" transform="translate(-536.958 -971.783)" fill="#033d71"/>
        <path id="Trazado_103574" data-name="Trazado 103574" d="M1126.262,1303.388a28.269,28.269,0,0,0,27.662-28.862l-5.1-240.341a24.906,24.906,0,0,0-24.161-24.366L775.838,999.469a18.365,18.365,0,0,0-18.91,18.413l.837,275.568a17.432,17.432,0,0,0,17.8,17.376Z" transform="translate(-721.752 -972.786)" fill="#01549e"/>
        <g id="Grupo_57408" data-name="Grupo 57408" transform="translate(48.682 42.974)">
          <path id="Trazado_103575" data-name="Trazado 103575" d="M1219.69,1368.835a8.211,8.211,0,0,0,7.99-9.485c-5.147-32.726-21.307-145.3-16.123-238.761a7.593,7.593,0,0,0-7.333-8.023l-350.4-11.178a8.738,8.738,0,0,0-9.013,8.4c-1.49,39.294-7.04,201.111.221,258.633a6.922,6.922,0,0,0,6.981,6.047Z" transform="translate(-841.381 -1101.383)" fill="#8ecae4"/>
          <path id="Trazado_103576" data-name="Trazado 103576" d="M1239.166,1398.729a7.9,7.9,0,0,0,7.69-9.127c-4.953-31.494-20.5-139.826-15.516-229.771a7.307,7.307,0,0,0-7.057-7.721l-337.2-10.756a8.409,8.409,0,0,0-8.673,8.086c-1.434,37.815-6.775,193.538.213,248.894a6.662,6.662,0,0,0,6.718,5.82Z" transform="translate(-869.71 -1134.958)" fill="#91b3fa"/>
        </g>
        <path id="Trazado_103577" data-name="Trazado 103577" d="M1654.933,1526.035l.515,24.285a6.64,6.64,0,0,1-6.6,6.781l-24.91.141a6.64,6.64,0,0,1-6.676-6.5l-.542-25.532a6.64,6.64,0,0,1,6.933-6.774l24.936,1.106A6.64,6.64,0,0,1,1654.933,1526.035Z" transform="translate(-1444.049 -1408.764)" fill="#fff" opacity="0.72"/>
        <path id="Trazado_103578" data-name="Trazado 103578" d="M2231.932,1575.87l-24.909.141a6.641,6.641,0,0,1-6.676-6.5l-.461-21.714a6.64,6.64,0,0,1,6.877-6.777l24.931.9a6.64,6.64,0,0,1,6.4,6.495l.439,20.68A6.639,6.639,0,0,1,2231.932,1575.87Z" transform="translate(-1933.959 -1427.739)" fill="#fff" opacity="0.72"/>
        <path id="Trazado_103579" data-name="Trazado 103579" d="M2226.113,2434.215l23.695-.229a7.245,7.245,0,0,1,7.315,7.092l.47,22.189a7.247,7.247,0,0,1-6.938,7.394l-23.679,1a7.246,7.246,0,0,1-7.551-7.087l-.487-22.961A7.246,7.246,0,0,1,2226.113,2434.215Z" transform="translate(-1949.964 -2177.909)" fill="#fff" opacity="0.72"/>
        <path id="Trazado_103580" data-name="Trazado 103580" d="M2510.667,2460.353l-.46-21.7a7.123,7.123,0,0,1,7.052-7.273l23.944-.232a7.123,7.123,0,0,1,7.189,6.971l.444,20.915a7.122,7.122,0,0,1-6.82,7.267l-23.927,1.013A7.123,7.123,0,0,1,2510.667,2460.353Z" transform="translate(-2194.655 -2175.529)" fill="#fff" opacity="0.72"/>
        <path id="Trazado_103581" data-name="Trazado 103581" d="M2498.108,1866.583l-.378-17.81a7.664,7.664,0,0,1,7.676-7.827l22.865.042a7.664,7.664,0,0,1,7.649,7.5l.361,17.021a7.665,7.665,0,0,1-7.412,7.823l-22.848.748A7.664,7.664,0,0,1,2498.108,1866.583Z" transform="translate(-2184.172 -1679.705)" fill="#fff" opacity="0.72"/>
        <path id="Trazado_103582" data-name="Trazado 103582" d="M2503.923,2139.571l-.578-27.241a7.121,7.121,0,0,1,6.888-7.269l23.382-.766a7.664,7.664,0,0,1,7.914,7.5l.583,27.473a7.122,7.122,0,0,1-7.119,7.272l-23.949,0A7.122,7.122,0,0,1,2503.923,2139.571Z" transform="translate(-2188.89 -1900.938)" fill="#fff" opacity="0.72"/>
        <path id="Trazado_103583" data-name="Trazado 103583" d="M1940.409,1567.336l-24.909.14a6.639,6.639,0,0,1-6.676-6.5l-.5-23.653a6.641,6.641,0,0,1,6.877-6.777l24.931.9a6.64,6.64,0,0,1,6.4,6.495l.479,22.617A6.641,6.641,0,0,1,1940.409,1567.336Z" transform="translate(-1689.02 -1418.94)" fill="#fed55f"/>
        <path id="Trazado_103584" data-name="Trazado 103584" d="M2212.758,2147.387l-.54-25.478a7.246,7.246,0,0,1,7.007-7.4l23.683-.775a7.245,7.245,0,0,1,7.482,7.088l.557,26.25a7.246,7.246,0,0,1-7.244,7.4l-23.7,0A7.247,7.247,0,0,1,2212.758,2147.387Z" transform="translate(-1944.319 -1908.871)" fill="#fff" opacity="0.72"/>
        <path id="Trazado_103585" data-name="Trazado 103585" d="M1920.234,1839.869l27.2.049a5.5,5.5,0,0,1,5.485,5.379l.52,24.5a5.5,5.5,0,0,1-5.315,5.61l-27.182.889a5.5,5.5,0,0,1-5.674-5.376l-.54-25.437A5.5,5.5,0,0,1,1920.234,1839.869Z" transform="translate(-1694.403 -1678.8)" fill="#fff" opacity="0.72"/>
        <path id="Trazado_103586" data-name="Trazado 103586" d="M1661.753,1846.163l.5,23.332a6.909,6.909,0,0,1-6.68,7.051l-24.36.8a6.908,6.908,0,0,1-7.133-6.757l-.513-24.173a6.908,6.908,0,0,1,6.919-7.054l24.378.044A6.907,6.907,0,0,1,1661.753,1846.163Z" transform="translate(-1449.797 -1678.371)" fill="#fff" opacity="0.72"/>
        <path id="Trazado_103587" data-name="Trazado 103587" d="M2239.444,1874.322l-27.182.89a5.5,5.5,0,0,1-5.675-5.376l-.506-23.829a5.5,5.5,0,0,1,5.5-5.612l27.2.048a5.5,5.5,0,0,1,5.485,5.38l.484,22.89A5.494,5.494,0,0,1,2239.444,1874.322Z" transform="translate(-1939.164 -1679.242)" fill="#fff" opacity="0.72"/>
        <path id="Trazado_103588" data-name="Trazado 103588" d="M1928.085,2124.043l23.683-.775a7.246,7.246,0,0,1,7.481,7.089l.524,24.731a7.245,7.245,0,0,1-7.243,7.4l-23.7,0a7.247,7.247,0,0,1-7.245-7.093l-.508-23.959A7.245,7.245,0,0,1,1928.085,2124.043Z" transform="translate(-1699.736 -1916.877)" fill="#fff" opacity="0.72"/>
        <path id="Trazado_103589" data-name="Trazado 103589" d="M1636.033,2133.458l25.342-.829a6.416,6.416,0,0,1,6.625,6.277l.528,24.9a6.418,6.418,0,0,1-6.415,6.553l-25.359,0a6.417,6.417,0,0,1-6.416-6.281l-.511-24.072A6.418,6.418,0,0,1,1636.033,2133.458Z" transform="translate(-1455.06 -1924.74)" fill="#fff" opacity="0.72"/>
        <path id="Trazado_103590" data-name="Trazado 103590" d="M2520.12,1582.716l-18.906.107a9.206,9.206,0,0,1-9.256-9.011l-.331-15.6a8.2,8.2,0,0,1,8.495-8.371l21.041.755a9.011,9.011,0,0,1,8.686,8.815l.276,13.026A10.063,10.063,0,0,1,2520.12,1582.716Z" transform="translate(-2179.046 -1435.15)" fill="#fff" opacity="0.72"/>
        <path id="Trazado_103591" data-name="Trazado 103591" d="M2801.564,2437.151a7.664,7.664,0,0,1,7.587-7.827l8.237-.08c6.259-.061,11.377,4.076,11.488,9.287l.32,15.077c.109,5.168-4.749,9.5-10.951,9.76l-8.843.375a7.121,7.121,0,0,1-7.421-6.964Z" transform="translate(-2439.419 -2173.925)" fill="#fff" opacity="0.72"/>
        <path id="Trazado_103592" data-name="Trazado 103592" d="M1085.63,2445.444l16.2-.157a7.251,7.251,0,0,1,7.321,7.1l.6,28.252a7.252,7.252,0,0,1-6.944,7.4l-16.124.682c-6.429.272-11.822-3.918-11.936-9.275l-.514-24.228C1074.118,2449.9,1079.247,2445.506,1085.63,2445.444Z" transform="translate(-988.311 -2187.403)" fill="#fff" opacity="0.72"/>
        <path id="Trazado_103593" data-name="Trazado 103593" d="M2810.849,2141.049h-8.039a7.664,7.664,0,0,1-7.664-7.5l-.587-27.693a7.663,7.663,0,0,1,7.411-7.822l8.093-.265c6.379-.209,11.691,3.967,11.8,9.28l.514,24.228C2822.494,2136.633,2817.284,2141.049,2810.849,2141.049Z" transform="translate(-2433.535 -1895.452)" fill="#fff" opacity="0.72"/>
        <path id="Trazado_103594" data-name="Trazado 103594" d="M2805.364,1872.71l-10.121.331a5.8,5.8,0,0,1-5.985-5.671l-.424-20a5.8,5.8,0,0,1,5.806-5.919l10.219.018c6.2.011,11.22,4.127,11.33,9.287l.258,12.19C2816.557,1868.155,2811.619,1872.505,2805.364,1872.71Z" transform="translate(-2428.725 -1680.128)" fill="#fff" opacity="0.72"/>
        <path id="Trazado_103595" data-name="Trazado 103595" d="M1066.164,1498.989l16.242.583a6.907,6.907,0,0,1,6.658,6.756l.592,27.906a6.907,6.907,0,0,1-6.867,7.054l-16.724.094c-6.238.035-11.322-4.095-11.432-9.287l-.495-23.343C1054.021,1503.235,1059.543,1498.751,1066.164,1498.989Z" transform="translate(-971.432 -1392.425)" fill="#7d97f4"/>
        <path id="Trazado_103596" data-name="Trazado 103596" d="M1934.83,2437.039l23.7-.229a7.246,7.246,0,0,1,7.315,7.092l.5,23.708A7.246,7.246,0,0,1,1959.4,2475l-23.678,1a7.246,7.246,0,0,1-7.551-7.086l-.52-24.481A7.247,7.247,0,0,1,1934.83,2437.039Z" transform="translate(-1705.262 -2180.281)" fill="#fff" opacity="0.72"/>
        <path id="Trazado_103597" data-name="Trazado 103597" d="M1072.9,1838.395l16.463.03a6.907,6.907,0,0,1,6.893,6.761l.564,26.548a6.907,6.907,0,0,1-6.68,7.05l-16.529.541c-6.38.209-11.692-3.967-11.8-9.28l-.464-21.877C1061.224,1842.8,1066.451,1838.383,1072.9,1838.395Z" transform="translate(-977.481 -1677.562)" fill="#fff" opacity="0.72"/>
        <path id="Trazado_103598" data-name="Trazado 103598" d="M1079.14,2152.247l17.183-.562a6.416,6.416,0,0,1,6.625,6.277l.464,21.862a6.417,6.417,0,0,1-6.415,6.553l-17.266,0c-6.207,0-11.246-4.12-11.355-9.287l-.32-15.079C1067.946,2156.8,1072.884,2152.452,1079.14,2152.247Z" transform="translate(-983.125 -1940.75)" fill="#fff" opacity="0.72"/>
        <path id="Trazado_103599" data-name="Trazado 103599" d="M1376.859,2148.435l.5,23.379a6.418,6.418,0,0,1-6.415,6.554l-25.359,0a6.416,6.416,0,0,1-6.416-6.281l-.479-22.553a6.416,6.416,0,0,1,6.205-6.549l25.341-.829A6.416,6.416,0,0,1,1376.859,2148.435Z" transform="translate(-1210.478 -1932.746)" fill="#fff" opacity="0.72"/>
        <path id="Trazado_103600" data-name="Trazado 103600" d="M1352.27,2442.691l23.682-.229a7.251,7.251,0,0,1,7.321,7.1l.567,26.733a7.252,7.252,0,0,1-6.944,7.4l-23.667,1a7.252,7.252,0,0,1-7.557-7.093l-.583-27.5A7.252,7.252,0,0,1,1352.27,2442.691Z" transform="translate(-1215.856 -2185.029)" fill="#fff" opacity="0.72"/>
        <path id="Trazado_103601" data-name="Trazado 103601" d="M2799.012,1590.848l-9.911.056a5.8,5.8,0,0,1-5.827-5.674l-.415-19.563a5.8,5.8,0,0,1,6-5.916l10.5.377c6.01.216,10.756,4.271,10.862,9.279l.248,11.668C2810.581,1586.407,2805.418,1590.812,2799.012,1590.848Z" transform="translate(-2423.706 -1443.474)" fill="#fff" opacity="0.72"/>
        <path id="Trazado_103602" data-name="Trazado 103602" d="M1643.555,2439.886l23.284-.226a7.654,7.654,0,0,1,7.728,7.492l.527,24.816a7.252,7.252,0,0,1-6.944,7.4l-23.666,1a7.252,7.252,0,0,1-7.557-7.092l-.552-25.988A7.251,7.251,0,0,1,1643.555,2439.886Z" transform="translate(-1460.56 -2182.676)" fill="#fff" opacity="0.72"/>
        <path id="Trazado_103603" data-name="Trazado 103603" d="M1363.391,1515.286l.551,25.968a6.907,6.907,0,0,1-6.867,7.054l-24.374.137a6.906,6.906,0,0,1-6.945-6.761l-.573-26.982a6.908,6.908,0,0,1,7.154-7.049l24.4.876A6.907,6.907,0,0,1,1363.391,1515.286Z" transform="translate(-1199.133 -1399.706)" fill="#fff" opacity="0.72"/>
        <path id="Trazado_103604" data-name="Trazado 103604" d="M1370.4,1845.637l.529,24.939a6.908,6.908,0,0,1-6.68,7.051l-24.361.8a6.907,6.907,0,0,1-7.132-6.757l-.547-25.781a6.906,6.906,0,0,1,6.918-7.054l24.379.044A6.906,6.906,0,0,1,1370.4,1845.637Z" transform="translate(-1205.035 -1677.93)" fill="#fff" opacity="0.72"/>
        <path id="Trazado_103605" data-name="Trazado 103605" d="M2835.416,1397.381l-1.123,8.223a5.4,5.4,0,0,1-5.238,4.671l-.389.008a5.4,5.4,0,0,1-5.515-5.286l-.178-8.418a5.4,5.4,0,0,1,5.992-5.484l1.689.186A5.4,5.4,0,0,1,2835.416,1397.381Z" transform="translate(-2457.405 -1301.764)" fill="#fff"/>
        <path id="Trazado_103606" data-name="Trazado 103606" d="M2596.722,1384.143l-1.123,8.223a5.4,5.4,0,0,1-5.238,4.671l-.388.008a5.4,5.4,0,0,1-5.516-5.287l-.179-8.417a5.4,5.4,0,0,1,5.991-5.484l1.69.186A5.4,5.4,0,0,1,2596.722,1384.143Z" transform="translate(-2256.882 -1290.643)" fill="#fff"/>
        <path id="Trazado_103607" data-name="Trazado 103607" d="M2303.04,1388.186l-1.122,8.224a5.4,5.4,0,0,1-5.238,4.671l-.389.008a5.4,5.4,0,0,1-5.515-5.286l-.179-8.418a5.4,5.4,0,0,1,5.992-5.484l1.689.186A5.4,5.4,0,0,1,2303.04,1388.186Z" transform="translate(-2010.164 -1294.039)" fill="#fff"/>
        <path id="Trazado_103608" data-name="Trazado 103608" d="M2016.911,1375.372l-1.122,8.224a5.4,5.4,0,0,1-5.238,4.67l-.388.008a5.4,5.4,0,0,1-5.515-5.286l-.178-8.418a5.4,5.4,0,0,1,5.992-5.484l1.689.186A5.4,5.4,0,0,1,2016.911,1375.372Z" transform="translate(-1769.791 -1283.275)" fill="#fff"/>
        <path id="Trazado_103609" data-name="Trazado 103609" d="M1723.024,1338l-1.122,8.224a5.4,5.4,0,0,1-5.238,4.67l-.388.008a5.4,5.4,0,0,1-5.515-5.287l-.179-8.417a5.4,5.4,0,0,1,5.992-5.484l1.689.186A5.4,5.4,0,0,1,1723.024,1338Z" transform="translate(-1522.901 -1251.88)" fill="#fff"/>
        <path id="Trazado_103610" data-name="Trazado 103610" d="M1411.7,1344.606l-1.122,8.224a5.4,5.4,0,0,1-5.238,4.67l-.389.008a5.4,5.4,0,0,1-5.515-5.286l-.179-8.417a5.4,5.4,0,0,1,5.991-5.484l1.69.186A5.4,5.4,0,0,1,1411.7,1344.606Z" transform="translate(-1261.36 -1257.429)" fill="#fff"/>
        <path id="Trazado_103611" data-name="Trazado 103611" d="M1148.917,1339.1l-1.122,8.224a5.4,5.4,0,0,1-5.238,4.67l-.389.008a5.4,5.4,0,0,1-5.515-5.286l-.179-8.418a5.4,5.4,0,0,1,5.992-5.484l1.69.186A5.4,5.4,0,0,1,1148.917,1339.1Z" transform="translate(-1040.602 -1252.805)" fill="#fff"/>
        <g id="Grupo_57409" data-name="Grupo 57409" transform="translate(164.811 190.54)">
          <path id="Trazado_103612" data-name="Trazado 103612" d="M1666.046,1942.063c-.095-1.258-1.8-1.8-3.052-1.035-3.543,2.153-4.983,5.5-6.728,8.617-2.035,3.635-3.984,7.3-5.717,11.025a85.084,85.084,0,0,0-4.569,11.992,79.178,79.178,0,0,0-8.549-14.062c-.92-1.191-3.518-.494-3,.92,3,8.22,6.685,16.273,9.507,24.535,1,2.915,6.163,2.226,6.548-.575a76.348,76.348,0,0,1,6.844-22.2c1.616-3.435,3.42-6.817,5.289-10.175C1664.272,1948.135,1666.3,1945.364,1666.046,1942.063Z" transform="translate(-1617.985 -1940.677)" fill="#fed55f"/>
          <path id="Trazado_103613" data-name="Trazado 103613" d="M1490.949,1969.35c-2.074-.445-2.828,2.6-.927,3.558,12.583,6.349,14.229,24.238,5.138,35.069-4.2,5.01-9.783,8.9-15.066,12.241-5.358,3.39-11.339,5.98-17.556,5.264-14.412-1.66-16.371-18.48-12.062-31.459,4.144-12.483,13.02-22.121,23.886-26.74,1.4-.6.86-3.216-.579-2.625-10.2,4.193-18.873,12.463-24.249,23.285-4.945,9.955-7.912,24-1.439,33.99,6.7,10.341,19.412,10.526,28.991,6.215,10.537-4.742,23.657-13.538,27.851-26.3C1509.333,1988.469,1503.909,1972.13,1490.949,1969.35Z" transform="translate(-1444.38 -1961.866)" fill="#fed55f"/>
        </g>
        <g id="Grupo_57410" data-name="Grupo 57410" transform="translate(34.292 71.818)">
          <path id="Trazado_103614" data-name="Trazado 103614" d="M752.281,2000.376a.885.885,0,0,0,.884-.878l1.075-155.167a.884.884,0,0,0-.878-.891h0a.885.885,0,0,0-.886.878L751.4,1999.485a.885.885,0,0,0,.878.891Z" transform="translate(-751.397 -1753.619)" fill="#fff"/>
          <path id="Trazado_103615" data-name="Trazado 103615" d="M760.544,1337.718a.885.885,0,0,0,.884-.879l.375-54.193a.885.885,0,0,0-.878-.891h0a.885.885,0,0,0-.886.879l-.376,54.193a.884.884,0,0,0,.878.89Z" transform="translate(-758.338 -1281.756)" fill="#91b3fa"/>
        </g>
        <circle id="Elipse_4205" data-name="Elipse 4205" cx="9.454" cy="9.454" r="9.454" transform="translate(355.809 68.952) rotate(-28.155)" fill="url(#linear-gradient)"/>
        <circle id="Elipse_4206" data-name="Elipse 4206" cx="9.454" cy="9.454" r="9.454" transform="translate(277.945 74.241) rotate(-54.217)" fill="url(#linear-gradient-2)"/>
        <circle id="Elipse_4207" data-name="Elipse 4207" cx="9.454" cy="9.454" r="9.454" transform="matrix(0.995, -0.099, 0.099, 0.995, 202.612, 61.076)" fill="url(#linear-gradient-3)"/>
        <circle id="Elipse_4208" data-name="Elipse 4208" cx="9.454" cy="9.454" r="9.454" transform="matrix(0.949, -0.316, 0.316, 0.949, 123.53, 59.937)" fill="url(#linear-gradient-4)"/>
        <g id="Grupo_57411" data-name="Grupo 57411" transform="translate(103.568 0)">
          <path id="Trazado_103616" data-name="Trazado 103616" d="M1209.334,833.055c15.909,3.471,14.408,45.328,13.128,62.321a7.659,7.659,0,0,1-7.642,7.083,3.931,3.931,0,0,1-3.9-4.352c1.374-12.844,4.3-49.831-7.414-51.809,0,0-8.4-1.487-9.815,14.788H1184.6S1189.332,828.691,1209.334,833.055Z" transform="translate(-1184.604 -832.651)" fill="#fed55f"/>
          <path id="Trazado_103617" data-name="Trazado 103617" d="M1693.739,846.513c15.91,3.471,14.409,45.343,13.128,62.336a7.665,7.665,0,0,1-7.642,7.091,3.925,3.925,0,0,1-3.9-4.346c1.374-12.844,4.3-49.86-7.414-51.838,0,0-8.4-1.162-9.815,14.759h-9.09S1673.737,842.149,1693.739,846.513Z" transform="translate(-1591.545 -843.956)" fill="#fed55f"/>
          <path id="Trazado_103618" data-name="Trazado 103618" d="M2178.144,860.036c15.91,3.471,14.408,45.353,13.128,62.346a7.669,7.669,0,0,1-7.641,7.1,3.922,3.922,0,0,1-3.9-4.342c1.375-12.844,4.3-49.879-7.413-51.857,0,0-8.4-.946-9.811,15.056l-9.094-.316S2158.142,855.671,2178.144,860.036Z" transform="translate(-1998.487 -855.316)" fill="#fed55f"/>
          <path id="Trazado_103619" data-name="Trazado 103619" d="M2662.549,875.672c15.91,3.471,14.409,45.375,13.128,62.368a7.679,7.679,0,0,1-7.641,7.107,3.912,3.912,0,0,1-3.9-4.334c1.374-12.844,4.3-49.922-7.414-51.9,0,0-8.4-1.224-9.815,14.7h-9.089S2642.547,871.308,2662.549,875.672Z" transform="translate(-2405.43 -868.451)" fill="#fed55f"/>
        </g>
      </g>
      <g id="Grupo_57416" data-name="Grupo 57416" transform="translate(521.875 946.788)">
        <g id="Grupo_57415" data-name="Grupo 57415" transform="translate(0 0)">
          <g id="Grupo_57413" data-name="Grupo 57413">
            <path id="Trazado_103620" data-name="Trazado 103620" d="M843.539,1704.253l8.714,27.634s10.112,7.451,23.006.339a32.825,32.825,0,0,0,6.108-4.37c15.649-13.967,5.266-34.285,5.266-34.285s11.944-4.818,6.637-14.957a.866.866,0,0,0-1.6.177c-.773,2.8-2.66,7.682-6.61,9.419-.2.081-.393.176-.57.257a2.051,2.051,0,0,1,.244-1.818c1.236-1.873-.99-4.438-.99-4.438a5.714,5.714,0,0,1-1.86,3.678,5.513,5.513,0,0,0-1.181,6.189c2.144,8.307,5.347,19.287-7.126,27.322a10.38,10.38,0,0,1-3.963,1.534C857.7,1722.929,843.539,1704.253,843.539,1704.253Z" transform="translate(-792.1 -1657.082)" fill="url(#linear-gradient-5)"/>
            <path id="Trazado_103621" data-name="Trazado 103621" d="M843.539,1841.369,852.253,1869s10.112,7.451,23.006.339l-5.646-11.292C857.7,1860.045,843.539,1841.369,843.539,1841.369Z" transform="translate(-792.1 -1794.197)" fill="url(#linear-gradient-6)"/>
            <path id="Trazado_103622" data-name="Trazado 103622" d="M570.7,1559.669s4.933-17.184-13.527-12.458c0,0-9.044-1.26-9.3,7.254a27.647,27.647,0,0,0-4.074,13.151s-17.773,4.6-20.578,11.716c-2.87,7.289-1.278,18.867,6.02,20.865a7.219,7.219,0,0,0-2.866,9.677c2.936,6.59,17.12,10.952,25.243,2.661,0,0,23.729,2.57,22.863-14.128,0,0,10.836-7.364-1.046-20.9S570.7,1559.669,570.7,1559.669Z" transform="translate(-521.875 -1546.389)" fill="url(#linear-gradient-7)"/>
            <path id="Trazado_103623" data-name="Trazado 103623" d="M694.438,1817.121c-3.731-1.119-14.594-3.184-24.927,6.352a6.4,6.4,0,0,0-1.844,6.375c2.775,10.218,10.1,40.4,3.677,53.465,0,0,11.314,12.472,23.658,2.42,0,0,5.538-24.138,12.792-34.734,5.008-7.315-7.986-27.471-11.273-32.34A3.85,3.85,0,0,0,694.438,1817.121Z" transform="translate(-644.166 -1772.99)" fill="url(#linear-gradient-8)"/>
            <path id="Trazado_103624" data-name="Trazado 103624" d="M740.654,1695.422s-5.518,15.607-5.933,22.492a11.8,11.8,0,0,0,11.844-1.907s.6-15.589,1.474-18.38Z" transform="translate(-700.685 -1671.589)" fill="url(#linear-gradient-9)"/>
            <path id="Trazado_103625" data-name="Trazado 103625" d="M751.808,1598.7s14.9,19.851,6.416,25.919-19.095-8.04-19.095-8.04-3.608-10.972-.2-14.8S751.808,1598.7,751.808,1598.7Z" transform="translate(-702.99 -1590.281)" fill="url(#linear-gradient-10)"/>
            <path id="Trazado_103626" data-name="Trazado 103626" d="M723.315,1568.731s6.665,1.415,7.664,4.392-9.263,6-12.154,6.205l-2.047,12.156s-7.161-11.222-4.585-17.861S723.315,1568.731,723.315,1568.731Z" transform="translate(-681.289 -1564.983)" fill="url(#linear-gradient-11)"/>
            <path id="Trazado_103627" data-name="Trazado 103627" d="M721.609,1682.389s-5.769-6.372-7.9-2.079,5.229,7.3,7.7,5.163Z" transform="translate(-682.707 -1657.645)" fill="url(#linear-gradient-12)"/>
            <path id="Trazado_103628" data-name="Trazado 103628" d="M696.463,2568.32c-.042,1.1,1.882,9.787,2.929,14.423a7.637,7.637,0,0,1-.822,5.478l-36.261,61.028a8.326,8.326,0,0,0-.952,2.375c-.665,2.864-2.043,9.883-1.323,16.269l1.876,3.9-8.113-1.842-1.765-21.787,2.3-1.4a10.91,10.91,0,0,0,4.414-5.167c3.279-7.964,11.421-28.238,13.52-38.118,2.385-11.229,14.855-20.35,14.855-20.35l-2.191-5.179Z" transform="translate(-631.218 -2404.899)" fill="url(#linear-gradient-13)"/>
            <path id="Trazado_103629" data-name="Trazado 103629" d="M606.688,3073.127s4.381-6.946,4.9-9.649,1.95-7.478,4.651-6.041c0,0,1.273,13.134.834,18.266s5.8,4.966,5.8,4.966a5.828,5.828,0,0,1,2.979,1.5,1.46,1.46,0,0,1-.979,2.456,35.082,35.082,0,0,1-8.691-.492,2.659,2.659,0,0,1-2.145-2.453l-.9-15.115-5.526,6.978Z" transform="translate(-593.125 -2815.578)" fill="url(#linear-gradient-14)"/>
            <path id="Trazado_103630" data-name="Trazado 103630" d="M699.758,2621.388s-1.279,54.589-1.452,62.343,1.224,24.934,9,30.071l-3.382,2.5a45.2,45.2,0,0,1-8.356-10.506c-4.639-7.767-6.041-9.186-6.041-9.186l1.539-3.152a6.931,6.931,0,0,0,.562-4.445c-1.677-8.129-7.28-35.168-8.809-40.99-1.8-6.874-1.932-16.052,4.344-23.735S699.758,2621.388,699.758,2621.388Z" transform="translate(-656.174 -2448.245)" fill="url(#linear-gradient-15)"/>
            <path id="Trazado_103631" data-name="Trazado 103631" d="M724.033,3114.813a.477.477,0,0,1-.48-.41c-.259-1.819-1.335-9.115-2.217-11-1.009-2.164-4.306-11.271,0-12.044,0,0,10.71,15.647,12.766,17.757a4.03,4.03,0,0,0,4.651.736,7.743,7.743,0,0,1,3.513,2.523,1.418,1.418,0,0,1-1.117,2.278l-7.214.069a5.074,5.074,0,0,1-4.758-3.2c-1.27-3.173-3.451-7.824-5.993-9.887l1.321,12.648A.481.481,0,0,1,724.033,3114.813Z" transform="translate(-687.627 -2844.293)" fill="url(#linear-gradient-16)"/>
            <path id="Trazado_103632" data-name="Trazado 103632" d="M652.475,2195.831s-1.626,5.182.872,13.716l15.492,54.1a1.675,1.675,0,0,1-1.047,2.039c-4.634,1.663-19.868,6.364-40.663,4.93a2.361,2.361,0,0,1-2.153-1.838c-1.37-6.168-6.045-27.211-7.008-31.534-3.668-16.476-7.763-34.243,10.253-44.986C636.525,2195.814,644.269,2197.91,652.475,2195.831Z" transform="translate(-599.932 -2088.973)" fill="url(#linear-gradient-17)"/>
            <path id="Trazado_103633" data-name="Trazado 103633" d="M536.458,1896.708s-.119.009-.119-.006c1.952-1.533,12.316-1.589,12.316-1.589s7.527-10.9,10.078-13.6c.083-.084.167-.167.237-.237s.112-.112.195-.181c.933-.864,1.924-1.728,3-2.62a9.356,9.356,0,0,0,2.7-3.694c3.986-10.034.836-16.6-6.411-12.39,0,0-15.318,12.725-21.269,30.76-.07.223-.125.433-.2.642-.237.836-.474,1.631-.682,2.37-.015.056.046.135.032.191C536.3,1896.475,536.5,1896.583,536.458,1896.708Z" transform="translate(-533.997 -1810.767)" fill="url(#linear-gradient-18)"/>
          </g>
          <path id="Trazado_103634" data-name="Trazado 103634" d="M571.208,2077.026s-17.8,10.061-23.809,1.47c-1.247-1.784-2.184-7.926-1.877-9.616-5.336-2.695-9.352,1.266-12.348,1.046-.786,4.117-1.168,8.126,1.252,12.553,10.522,19.248,39.138-1.064,39.138-1.064Z" transform="translate(-530.863 -1984.534)" fill="url(#linear-gradient-19)"/>
          <g id="Grupo_57414" data-name="Grupo 57414" transform="translate(38.167 65.174)">
            <path id="Trazado_103635" data-name="Trazado 103635" d="M760.582,2011.307l9.716-33.93a.989.989,0,0,1,.837-.712c1.76-.205,6.861-.782,12.751-1.28,7.094-.6,15.332-1.086,20.255-.672a.993.993,0,0,1,.811,1.428c-2.8,5.663-14.314,28.7-20.081,36.25a1,1,0,0,1-.8.394l-22.543-.21A.993.993,0,0,1,760.582,2011.307Z" transform="translate(-760.543 -1971.262)" fill="url(#linear-gradient-20)"/>
            <path id="Trazado_103636" data-name="Trazado 103636" d="M908.325,1955.128l7.044-1.174a.506.506,0,0,1,.563.657l-.7,2.113a.5.5,0,0,1-.413.343l-6.779.906a.506.506,0,0,1-.559-.616l.432-1.845A.506.506,0,0,1,908.325,1955.128Z" transform="translate(-883.975 -1953.947)" fill="url(#linear-gradient-21)"/>
            <path id="Trazado_103637" data-name="Trazado 103637" d="M879.763,1972.18l.58-3.023a.7.7,0,0,1,.616-.563l14.228-1.444a.7.7,0,0,1,.75.858l-.9,3.767a.7.7,0,0,1-.644.534l-13.9.7A.7.7,0,0,1,879.763,1972.18Z" transform="translate(-860.687 -1965.036)" fill="url(#linear-gradient-22)"/>
            <path id="Trazado_103638" data-name="Trazado 103638" d="M770.543,2092.329s-1.353-5.566-.807-7.54,1.6-4.514,5.129-3.949a51.65,51.65,0,0,1,7.685,2.049,2.018,2.018,0,0,1-2.89,1.742l1.662,1.286s-.238,2.059-2.5.959l1.546,1.705a1.8,1.8,0,0,1-2.637.607C776.064,2088.1,775.265,2093,770.543,2092.329Z" transform="translate(-768.156 -2060.48)" fill="url(#linear-gradient-23)"/>
          </g>
        </g>
      </g>
      <g id="Grupo_57420" data-name="Grupo 57420" transform="translate(794.889 954.027)">
        <path id="Trazado_103639" data-name="Trazado 103639" d="M2752.114,3165.626c5.012.433,13.711,1.138,20.57,1.439,4.122.181,6.5-.222,7.863-.77,0,.154-.007.3-.013.435a1.418,1.418,0,0,1-1.347,1.34,241.009,241.009,0,0,1-26.935.027,1.009,1.009,0,0,1-.822-1.517A8.066,8.066,0,0,1,2752.114,3165.626Z" transform="translate(-2667.786 -2913.926)" fill="url(#linear-gradient-24)"/>
        <path id="Trazado_103640" data-name="Trazado 103640" d="M2777.024,3113.893c-6.858-.3-15.558-1.005-20.571-1.439,4.928-6.047,20.571-10.122,20.571-10.122h4.418a18.53,18.53,0,0,1,3.445,10.791C2783.521,3113.671,2781.147,3114.075,2777.024,3113.893Z" transform="translate(-2672.126 -2860.754)" fill="url(#linear-gradient-25)"/>
        <path id="Trazado_103641" data-name="Trazado 103641" d="M2874.067,3057.232l-.413,8.181a1.87,1.87,0,0,1-1.6,1.758,7.292,7.292,0,0,1-3.319-.276,2.212,2.212,0,0,1-1.486-1.7l-1.429-7.964Z" transform="translate(-2764.008 -2822.865)" fill="url(#linear-gradient-26)"/>
        <g id="Grupo_57417" data-name="Grupo 57417" transform="translate(148.445 236.886)">
          <path id="Trazado_103642" data-name="Trazado 103642" d="M3198.281,3206.721a4.312,4.312,0,0,0,3.569-3.412l.008.043a3.889,3.889,0,0,1-1.9,4.162,9.912,9.912,0,0,1-5.271,1.067,4.875,4.875,0,0,1-3.953-2.356l-.012-.021C3192.356,3207.251,3194.655,3207.374,3198.281,3206.721Z" transform="translate(-3185.391 -3182.468)" fill="url(#linear-gradient-24)"/>
          <path id="Trazado_103643" data-name="Trazado 103643" d="M3160.047,3072.989h3.644c5.549-.147,9.034,14.981,10.175,20.838a4.315,4.315,0,0,1-3.57,3.413c-3.625.652-5.924.53-7.562-.518-3-5.1-4.484-12.567-5.2-16.925C3156.722,3074.84,3160.047,3072.989,3160.047,3072.989Z" transform="translate(-3157.407 -3072.988)" fill="url(#linear-gradient-28)"/>
        </g>
        <path id="Trazado_103644" data-name="Trazado 103644" d="M3153,3025.509l2.024,8.047a2.184,2.184,0,0,1-1.137,2.474,7.743,7.743,0,0,1-4.188,1.014,1.827,1.827,0,0,1-1.489-1.216l-2.971-8.466Z" transform="translate(-2998.736 -2796.215)" fill="url(#linear-gradient-29)"/>
        <path id="Trazado_103645" data-name="Trazado 103645" d="M2748.737,2350.81s18.08,113.011,17.782,113.632a15.04,15.04,0,0,0,10.438.289s-1.635-60.413-5.466-83.576c0,0,30.856,54,40.654,80.9a24.483,24.483,0,0,0,9.34-3.393s-33.221-97.191-42.086-110.137Z" transform="translate(-2665.644 -2227.494)" fill="url(#linear-gradient-30)"/>
        <path id="Trazado_103646" data-name="Trazado 103646" d="M2822.081,2481.325a.534.534,0,0,0,.452-.817l-6.756-10.792a.537.537,0,0,0-.347-.24l-4.973-1a.534.534,0,1,0-.21,1.048l4.745.954,6.635,10.6A.534.534,0,0,0,2822.081,2481.325Z" transform="translate(-2716.957 -2328.251)" fill="url(#linear-gradient-31)"/>
        <path id="Trazado_103647" data-name="Trazado 103647" d="M2229.256,1670.8s12.2,2.691,19.619,6.117a6.771,6.771,0,0,1,3.319,3.337c2.219,4.861,8.859,17.051,21.735,22.869-1.854,2.461-4.84,7.58-6.141,16.185-7.734-5.756-14.409-15.369-17.615-31.134a6.291,6.291,0,0,1-5.486-.152c-1.609-.781-3.467-1.89-4.861-2.761a6.367,6.367,0,0,1-2.826-3.795c-.531-2.082-.219-3.913-.219-5.877l-6.271-1.943A2.23,2.23,0,0,1,2229.256,1670.8Z" transform="translate(-2229.127 -1658.143)" fill="url(#linear-gradient-32)"/>
        <path id="Trazado_103648" data-name="Trazado 103648" d="M2470.888,1884.726c1.3-8.6,4.286-13.725,6.141-16.185,8,3.614,18.4,4.769,31.654.177a14.077,14.077,0,0,1,3.787-.747c7.054-.414,30.3-1.168,49.531,5.186a14.944,14.944,0,0,1,9.016,8.207c5.2,11.94,13.626,39.132-9.758,52.859a57.951,57.951,0,0,0-5.644-10.68c3.765-6.352,4.881-15.028-1.8-26.325-4.873,13.157-7.159,32.356-7.636,40.853a18.252,18.252,0,0,0,1.431,8.172l.12.281a.967.967,0,0,1-.679,1.321c-13.165,2.957-26.857,2.154-30.947,1.816a1.689,1.689,0,0,1-1.5-1.289c-6.4-26.974-6.416-45.373-4.848-57C2503.759,1892.708,2485.448,1895.563,2470.888,1884.726Z" transform="translate(-2432.227 -1823.563)" fill="url(#linear-gradient-33)"/>
        <path id="Trazado_103649" data-name="Trazado 103649" d="M2710.924,1927.512a.535.535,0,0,0,.529-.464c1.5-11.357,4.565-16.313,4.6-16.362a.534.534,0,0,0-.9-.572c-.131.205-3.214,5.168-4.752,16.793a.534.534,0,0,0,.459.6A.626.626,0,0,0,2710.924,1927.512Z" transform="translate(-2633.428 -1858.982)" fill="url(#linear-gradient-34)"/>
        <path id="Trazado_103650" data-name="Trazado 103650" d="M2848.039,1771.1s1.331,14.081,2.5,18.246a1.425,1.425,0,0,1-.671,1.627c-1.99,1.137-6.764,2.992-13.292-.208a2.964,2.964,0,0,1-1.644-2.788l.576-13.607Z" transform="translate(-2738.056 -1742.406)" fill="url(#linear-gradient-35)"/>
        <g id="Grupo_57418" data-name="Grupo 57418" transform="translate(91.649)">
          <path id="Trazado_103651" data-name="Trazado 103651" d="M2811.459,1658.452s-4.26,9.785-4.546,14.921-1.393,8.468,4.546,9.5,10.941-1.924,13.65-7.04c0,0,4.246-7.883,3.295-11.111S2811.459,1658.452,2811.459,1658.452Z" transform="translate(-2805.939 -1647.771)" fill="url(#linear-gradient-36)"/>
          <path id="Trazado_103652" data-name="Trazado 103652" d="M2819.38,1616.045l-.339-.149a.816.816,0,0,1-.4-1.12c.837-1.618,2.47-5.326.362-6.191-2.719-1.114-13.484-3.31-15.807-7.13a7.108,7.108,0,0,1,2.719-9.759.409.409,0,0,1,.535.175l.248.469a.4.4,0,0,0,.745-.076.4.4,0,0,1,.727-.1c.714,1.143,2.642,3,7.8,3.947,7.325,1.352,12.169,4.317,12.29,9.379a.4.4,0,0,0,.624.333c.541-.33,1.407-.484,2.564.488,2.012,1.692,1.188,6.08-3.222,9.69a.4.4,0,0,0,.019.646c.8.521,1.992,1.759-1.1,3.41a10.4,10.4,0,0,1-6.5,1.416.4.4,0,0,1-.325-.485l.98-4.449a.4.4,0,0,0-.395-.49Z" transform="translate(-2802.239 -1591.658)" fill="url(#linear-gradient-37)"/>
          <path id="Trazado_103653" data-name="Trazado 103653" d="M2908.273,1724.769s1.625-6.25,4.428-4.5-1.454,7-3.707,7.238Z" transform="translate(-2891.316 -1699.444)" fill="url(#linear-gradient-38)"/>
        </g>
        <path id="Trazado_103654" data-name="Trazado 103654" d="M2299.45,1718.134a.534.534,0,0,0,.414-.871c-.461-.568-4.556-5.573-6.133-6.463-.574-.324-.917-.659-.989-.969a.79.79,0,0,1,.071-.5l4.811.964,2.725,2.338a.534.534,0,1,0,.7-.81l-2.831-2.43a.532.532,0,0,0-.243-.118l-5.325-1.067a.529.529,0,0,0-.547.225,2.034,2.034,0,0,0-.4,1.645,2.754,2.754,0,0,0,1.5,1.653c1.187.671,4.61,4.709,5.83,6.208A.53.53,0,0,0,2299.45,1718.134Z" transform="translate(-2281.658 -1689.558)" fill="url(#linear-gradient-39)"/>
        <path id="Trazado_103655" data-name="Trazado 103655" d="M2810.655,2234.321l-18.828.233,6.589-6.2a4.92,4.92,0,0,1,6.029-.565,14.243,14.243,0,0,1,3.347,2.984s11.746-4.292,17.439-13.9a57.943,57.943,0,0,1,5.643,10.68C2825.771,2230.55,2819.154,2232.906,2810.655,2234.321Z" transform="translate(-2701.844 -2116.893)" fill="url(#linear-gradient-40)"/>
        <g id="Grupo_57419" data-name="Grupo 57419" transform="translate(12.735 76.922)">
          <path id="Trazado_103656" data-name="Trazado 103656" d="M2634,2318.665c-.037,0-.073,0-.11,0l-47.794-.052a2.116,2.116,0,1,1,.005-4.232l47.793.051a2.116,2.116,0,0,1,.1,4.231Z" transform="translate(-2539.954 -2275.731)" fill="url(#linear-gradient-41)"/>
          <path id="Trazado_103657" data-name="Trazado 103657" d="M2311.943,2072.676h39.8a7.592,7.592,0,0,1,6.861,4.3l18.4,38.605h-49.464a4.611,4.611,0,0,1-4.288-2.885l-14.268-35.724A3.148,3.148,0,0,1,2311.943,2072.676Z" transform="translate(-2308.761 -2072.676)" fill="url(#linear-gradient-42)"/>
          <ellipse id="Elipse_4209" data-name="Elipse 4209" cx="3.133" cy="5.049" rx="3.133" ry="5.049" transform="translate(23.682 16.931) rotate(-18.242)" fill="url(#linear-gradient-43)"/>
        </g>
      </g>
    </g>
  </g>
</svg>
