<svg xmlns="http://www.w3.org/2000/svg" xmlns:xlink="http://www.w3.org/1999/xlink" width="120" height="120" viewBox="0 0 120 120">
  <defs>
    <clipPath id="clip-path">
      <rect id="Rectángulo_5421" data-name="Rectángulo 5421" width="120" height="120" transform="translate(1055 11887.582)" fill="#fff" stroke="#707070" stroke-width="1"/>
    </clipPath>
  </defs>
  <g id="Enmascarar_grupo_55" data-name="Enmascarar grupo 55" transform="translate(-1055 -11887.582)" clip-path="url(#clip-path)">
    <g id="formas_1_" data-name="formas (1)" transform="translate(1055 11887.582)">
      <path id="Trazado_101047" data-name="Trazado 101047" d="M72.414,109.654l3.289,3.29A4.138,4.138,0,0,1,72.765,120H4.138A4.151,4.151,0,0,1,0,115.862V47.234A4.138,4.138,0,0,1,7.055,44.3L53.793,91.034" fill="#d75e72"/>
      <path id="Trazado_101048" data-name="Trazado 101048" d="M91.821,43.448A34.567,34.567,0,0,0,93.1,34.137,34.138,34.138,0,1,0,53.793,67.883" fill="#2fa8cc"/>
      <path id="Trazado_101049" data-name="Trazado 101049" d="M57.931,43.448h57.931A4.138,4.138,0,0,1,120,47.585v57.932a4.138,4.138,0,0,1-4.138,4.137H57.931a4.138,4.138,0,0,1-4.138-4.137V47.585a4.138,4.138,0,0,1,4.138-4.137Zm0,0" fill="#f3d55b"/>
      <path id="Trazado_101050" data-name="Trazado 101050" d="M66.207,53.793H62.069a2.069,2.069,0,0,1,0-4.138h4.138a2.069,2.069,0,0,1,0,4.138Zm0,0" fill="#f29c1f"/>
      <path id="Trazado_101051" data-name="Trazado 101051" d="M93.1,53.793H74.483a2.069,2.069,0,1,1,0-4.138H93.1a2.069,2.069,0,1,1,0,4.138Zm0,0" fill="#f29c1f"/>
      <path id="Trazado_101052" data-name="Trazado 101052" d="M8.275,64.137a2.068,2.068,0,0,1-2.068-2.068V57.931a2.069,2.069,0,1,1,4.137,0v4.138A2.068,2.068,0,0,1,8.275,64.137Zm0,0" fill="#cc4b4c"/>
      <path id="Trazado_101053" data-name="Trazado 101053" d="M8.275,91.034a2.068,2.068,0,0,1-2.068-2.069V70.344a2.069,2.069,0,1,1,4.137,0V88.965A2.069,2.069,0,0,1,8.275,91.034Zm0,0" fill="#cc4b4c"/>
      <path id="Trazado_101054" data-name="Trazado 101054" d="M33.1,33.1a1.96,1.96,0,0,1-.343-.028,2.069,2.069,0,0,1-1.7-2.379A30.709,30.709,0,0,1,44.45,10.64a2.069,2.069,0,0,1,2.135,3.544A27,27,0,0,0,35.142,31.373,2.068,2.068,0,0,1,33.1,33.1Zm0,0" fill="#9fc9d3"/>
    </g>
  </g>
</svg>
