<svg xmlns="http://www.w3.org/2000/svg" xmlns:xlink="http://www.w3.org/1999/xlink" width="1240" height="440" viewBox="0 0 1240 440">
  <defs>
    <clipPath id="clip-path">
      <rect id="Rectángulo_6221" data-name="Rectángulo 6221" width="1240" height="440" transform="translate(136 19159.723)" fill="#fff" stroke="#707070" stroke-width="1"/>
    </clipPath>
    <linearGradient id="linear-gradient" x1="0.501" y1="0.153" x2="0.489" y2="1.031" gradientUnits="objectBoundingBox">
      <stop offset="0" stop-color="#bfeffc"/>
      <stop offset="0.988" stop-color="#25b3f1"/>
      <stop offset="1" stop-color="#8ecae4"/>
    </linearGradient>
  </defs>
  <g id="Enmascarar_grupo_98" data-name="Enmascarar grupo 98" transform="translate(-136 -19159.723)" clip-path="url(#clip-path)">
    <path id="Trazado_105311" data-name="Trazado 105311" d="M283.652,366.232c-57.285,9.579-103.294,42.625-161.561,22.406-48.631-16.877-89.3-57.23-107.759-105.12C-13.909,210.262,2.339,125.873,39.09,56.5,54.943,26.569,82.351-5.079,115.72.685c21.213,3.663,36.839,21.808,47.686,40.406C188,83.263,208.932,119.1,263.575,120.926c32.905,1.1,64.864-10.019,95.785-21.327s62.5-23.109,95.422-23.445c131.69-1.347,182.134,144.908,233.391,239.6,47.633,88,121.643,193.152,225.482,199.708,91.034,5.747,189.993-71.571,248.481-134.362,66.11-70.969,134.508-147.8,209.823-210.614,182.633-152.32,275.968,65.207,428.981,128.132,89.751,36.907,155.25,3.206,208.307-75.122,43.8-64.666,73.75-141.959,136.318-188.709,43.016-32.139,116.754-38.9,140.65,9.186,20.151,40.549-9.946,87.041-38.474,122.2-53.446,65.873-107.4,132.259-173.226,185.767s-145.258,93.867-229.917,99.176c-165.354,10.366-330.706-111.436-487.3-57.333-76.2,26.326-132.4,89.582-191.9,143.977s-134.455,104.4-214.369,93.777c-78.559-10.443-136.382-75.276-198.055-125.045C620.684,399.733,451.319,338.2,283.652,366.232Z" transform="translate(-651.185 18829.799) rotate(7)" opacity="0.18" fill="url(#linear-gradient)"/>
  </g>
</svg>
