<svg xmlns="http://www.w3.org/2000/svg" xmlns:xlink="http://www.w3.org/1999/xlink" width="46" height="46" viewBox="0 0 46 46">
  <defs>
    <clipPath id="clip-path">
      <rect id="Rectángulo_5205" data-name="Rectángulo 5205" width="46" height="46" transform="translate(395 345)" fill="#ffc935"/>
    </clipPath>
  </defs>
  <g id="Enmascarar_grupo_46" data-name="Enmascarar grupo 46" transform="translate(-395 -345)" clip-path="url(#clip-path)">
    <g id="rueda-de-color" transform="translate(395 345)">
      <path id="Trazado_100544" data-name="Trazado 100544" d="M42.548,16.541l-2.375-2.121-4.839,1.86L34.676,19l-2.531,11.48,8.217,3.58,1.02-1.317a21.91,21.91,0,0,0,1.166-16.2Z" fill="#fe7d43"/>
      <g id="Grupo_53838" data-name="Grupo 53838">
        <g id="XMLID_855_">
          <g id="Grupo_53837" data-name="Grupo 53837">
            <path id="Trazado_100545" data-name="Trazado 100545" d="M34.088,29.084,31.2,30.477,23.79,35.7l3.3,7.372,2.359.585h0A21.879,21.879,0,0,0,41.412,32.68Z" fill="#ee6161"/>
            <path id="Trazado_100546" data-name="Trazado 100546" d="M26.63,35.91l-1.573-1.1-9.4-1.428-4.517,7.256,2.079,2.619h0a21.912,21.912,0,0,0,16.236.4h0Z" fill="#c2a1d5"/>
            <path id="Trazado_100547" data-name="Trazado 100547" d="M16.089,33.194l-5.225-8.208L1.746,27.807v3.95a21.913,21.913,0,0,0,11.472,11.5h0l3.3-7.555Z" fill="#8ac9fe"/>
            <path id="Trazado_100548" data-name="Trazado 100548" d="M3.861,12.776,1.385,15.52h0a21.914,21.914,0,0,0,.362,16.237h0l7.606-3.185.994-2.284.6-11.236Z" fill="#75cdd5"/>
            <path id="Trazado_100549" data-name="Trazado 100549" d="M16.728,3.52h-4.4a21.906,21.906,0,0,0-10.946,12h0l7.7,2.944,5.036-2.549,6.659-5.99Z" fill="#6cf5c2"/>
            <path id="Trazado_100550" data-name="Trazado 100550" d="M34.773,19l-.4-1.794L29.4,18.464l-.268,2.294a7.7,7.7,0,0,1-.341,5.7l.108,1.831,3.248,1.729,1.943-.938A13.633,13.633,0,0,0,34.773,19Z" fill="#fd6930"/>
            <path id="Trazado_100551" data-name="Trazado 100551" d="M28.79,26.464A7.708,7.708,0,0,1,24.6,30.356L23.9,31.69l1.478,3.785,1.256.435a13.632,13.632,0,0,0,7.459-6.826Z" fill="#e94444"/>
            <path id="Trazado_100552" data-name="Trazado 100552" d="M24.6,30.356a7.7,7.7,0,0,1-5.714-.073l-1.551.168L15.5,34.212,16.522,35.7a13.637,13.637,0,0,0,10.108.211Z" fill="#a274bf"/>
            <path id="Trazado_100553" data-name="Trazado 100553" d="M14.8,26.287l-1.213-.877-3.96,1.372-.279,1.789A13.634,13.634,0,0,0,16.522,35.7l2.369-5.416a7.707,7.707,0,0,1-4.086-4Z" fill="#26a6fe"/>
            <path id="Trazado_100554" data-name="Trazado 100554" d="M32.307,4.017a21.876,21.876,0,0,0-19.978-.5l3.541,7.448,3.518,1.578,11.07,1.874L33.68,7.586Z" fill="#fee97d"/>
          </g>
        </g>
      </g>
      <path id="Trazado_100555" data-name="Trazado 100555" d="M45.967,14.854a.592.592,0,0,1-.383.758l-2.979.93L36.961,18.3A15.972,15.972,0,0,0,29.4,9.185l2.867-5.168,1.517-2.735a.591.591,0,0,1,.814-.225,25.635,25.635,0,0,1,11.37,13.8Z" fill="#fec165"/>
      <path id="Trazado_100556" data-name="Trazado 100556" d="M14.153,23.185a7.649,7.649,0,0,1,.455-2.611l-.068-3.2h-3.3L9.086,18.464a13.641,13.641,0,0,0,.267,10.107L14.8,26.287a7.648,7.648,0,0,1-.652-3.1Z" fill="#2abcc8"/>
      <path id="Trazado_100557" data-name="Trazado 100557" d="M18.629,11.86l-2.759-.891a13.625,13.625,0,0,0-6.785,7.5l5.522,2.11a7.708,7.708,0,0,1,3.8-4.268h0l1.265-1.424Z" fill="#00f2a6"/>
      <path id="Trazado_100558" data-name="Trazado 100558" d="M28.308,11.226h0a13.614,13.614,0,0,0-12.436-.257l2.538,5.338a7.692,7.692,0,0,1,7.031.089l1.934.1,1.892-2.523Z" fill="#fedf30"/>
      <path id="Trazado_100559" data-name="Trazado 100559" d="M36.961,18.3l-2.229.7-5.6,1.761a7.79,7.79,0,0,0-3.723-4.379l2.859-5.153L29.4,9.185A15.972,15.972,0,0,1,36.961,18.3Z" fill="#fdb441"/>
    </g>
  </g>
</svg>
