<svg xmlns="http://www.w3.org/2000/svg" width="239.684" height="239.684" viewBox="0 0 239.684 239.684">
  <g id="Grupo_54230" data-name="Grupo 54230" transform="translate(-589.11 -571.053)">
    <g id="Grupo_54226" data-name="Grupo 54226" transform="translate(589.11 571.053)">
      <g id="Grupo_54203" data-name="Grupo 54203" transform="translate(4.056 35.1)">
        <g id="Grupo_54202" data-name="Grupo 54202">
          <path id="Trazado_100919" data-name="Trazado 100919" d="M634.312,652.588l-43.329-11.609a119.7,119.7,0,0,1,31.044-53.717l31.711,31.711A74.932,74.932,0,0,0,634.312,652.588Z" transform="translate(-590.983 -587.262)" fill="#f69f23"/>
        </g>
      </g>
      <g id="Grupo_54205" data-name="Grupo 54205" transform="translate(88.815 192.299)">
        <g id="Grupo_54204" data-name="Grupo 54204">
          <path id="Trazado_100920" data-name="Trazado 100920" d="M661.151,662.393a75.1,75.1,0,0,0,19.413-2.536l11.611,43.329a120.726,120.726,0,0,1-62.052,0l11.611-43.329A75.029,75.029,0,0,0,661.151,662.393Z" transform="translate(-630.124 -659.855)" fill="#7421b0"/>
        </g>
      </g>
      <g id="Grupo_54207" data-name="Grupo 54207" transform="translate(139.256 172.873)">
        <g id="Grupo_54206" data-name="Grupo 54206">
          <path id="Trazado_100921" data-name="Trazado 100921" d="M687.034,650.884,718.745,682.6a119.722,119.722,0,0,1-53.717,31.046l-11.611-43.329A74.931,74.931,0,0,0,687.034,650.884Z" transform="translate(-653.417 -650.884)" fill="#3a48ba"/>
        </g>
      </g>
      <g id="Grupo_54209" data-name="Grupo 54209" transform="translate(35.1 172.87)">
        <g id="Grupo_54208" data-name="Grupo 54208">
          <path id="Trazado_100922" data-name="Trazado 100922" d="M670.645,670.312l-11.611,43.329a119.727,119.727,0,0,1-53.715-31.047l31.711-31.711A74.891,74.891,0,0,0,670.645,670.312Z" transform="translate(-605.319 -650.883)" fill="#d2298e"/>
        </g>
      </g>
      <g id="Grupo_54211" data-name="Grupo 54211" transform="translate(172.873 139.258)">
        <g id="Grupo_54210" data-name="Grupo 54210">
          <path id="Trazado_100923" data-name="Trazado 100923" d="M688.37,635.361,731.7,646.97a119.724,119.724,0,0,1-31.046,53.717l-31.711-31.711A74.925,74.925,0,0,0,688.37,635.361Z" transform="translate(-668.941 -635.361)" fill="#006fc4"/>
        </g>
      </g>
      <g id="Grupo_54213" data-name="Grupo 54213" transform="translate(4.056 139.256)">
        <g id="Grupo_54212" data-name="Grupo 54212">
          <path id="Trazado_100924" data-name="Trazado 100924" d="M634.312,635.36a74.909,74.909,0,0,0,19.426,33.615l-31.711,31.711a119.693,119.693,0,0,1-31.044-53.715Z" transform="translate(-590.983 -635.36)" fill="#ff2600"/>
        </g>
      </g>
      <g id="Grupo_54215" data-name="Grupo 54215" transform="translate(35.1 4.054)">
        <g id="Grupo_54214" data-name="Grupo 54214">
          <path id="Trazado_100925" data-name="Trazado 100925" d="M637.03,635.683l-31.711-31.711a119.727,119.727,0,0,1,53.715-31.047l11.611,43.329A74.933,74.933,0,0,0,637.03,635.683Z" transform="translate(-605.319 -572.925)" fill="#fac712"/>
        </g>
      </g>
      <g id="Grupo_54217" data-name="Grupo 54217" transform="translate(88.815)">
        <g id="Grupo_54216" data-name="Grupo 54216">
          <path id="Trazado_100926" data-name="Trazado 100926" d="M661.151,615.9a75.127,75.127,0,0,0-19.416,2.538l-11.611-43.329a120.754,120.754,0,0,1,62.052,0c-2.809,10.483-5.838,21.787-11.611,43.329A75.1,75.1,0,0,0,661.151,615.9Z" transform="translate(-630.124 -571.053)" fill="#feef00"/>
        </g>
      </g>
      <g id="Grupo_54219" data-name="Grupo 54219" transform="translate(0 88.817)">
        <g id="Grupo_54218" data-name="Grupo 54218">
          <path id="Trazado_100927" data-name="Trazado 100927" d="M633.957,643.093a75.016,75.016,0,0,0,2.538,19.413l-43.329,11.611a120.689,120.689,0,0,1,0-62.05L636.5,623.677A75.031,75.031,0,0,0,633.957,643.093Z" transform="translate(-589.11 -612.068)" fill="#fb6312"/>
        </g>
      </g>
      <g id="Grupo_54221" data-name="Grupo 54221" transform="translate(192.301 88.815)">
        <g id="Grupo_54220" data-name="Grupo 54220">
          <path id="Trazado_100928" data-name="Trazado 100928" d="M680.451,643.094a75.137,75.137,0,0,0-2.538-19.416l43.329-11.611a120.76,120.76,0,0,1,0,62.052L677.913,662.51A75.151,75.151,0,0,0,680.451,643.094Z" transform="translate(-677.913 -612.067)" fill="#00afcf"/>
        </g>
      </g>
      <g id="Grupo_54223" data-name="Grupo 54223" transform="translate(139.256 4.054)">
        <g id="Grupo_54222" data-name="Grupo 54222">
          <path id="Trazado_100929" data-name="Trazado 100929" d="M653.417,616.254c5.773-21.542,8.8-32.846,11.611-43.329a119.723,119.723,0,0,1,53.717,31.047l-31.711,31.709A74.926,74.926,0,0,0,653.417,616.254Z" transform="translate(-653.417 -572.925)" fill="#7fd200"/>
        </g>
      </g>
      <g id="Grupo_54225" data-name="Grupo 54225" transform="translate(172.873 35.1)">
        <g id="Grupo_54224" data-name="Grupo 54224">
          <path id="Trazado_100930" data-name="Trazado 100930" d="M668.941,618.971l31.711-31.709A119.716,119.716,0,0,1,731.7,640.977L688.37,652.588A74.931,74.931,0,0,0,668.941,618.971Z" transform="translate(-668.941 -587.262)" fill="#00b500"/>
        </g>
      </g>
    </g>
    <g id="Grupo_54229" data-name="Grupo 54229" transform="translate(652.916 604.923)">
      <line id="Línea_186" data-name="Línea 186" x1="95.895" y2="156.041" transform="translate(8.089 7.951)" fill="none" stroke="#000" stroke-linecap="round" stroke-linejoin="round" stroke-width="3"/>
      <g id="Grupo_54227" data-name="Grupo 54227" transform="translate(95.461)">
        <path id="Trazado_100931" data-name="Trazado 100931" d="M663.888,590.651a8.3,8.3,0,1,1,2.726,11.423A8.3,8.3,0,0,1,663.888,590.651Z" transform="translate(-662.658 -586.694)"/>
      </g>
      <g id="Grupo_54228" data-name="Grupo 54228" transform="translate(0 155.333)">
        <path id="Trazado_100932" data-name="Trazado 100932" d="M619.805,662.383a8.3,8.3,0,1,0,11.423-2.729A8.3,8.3,0,0,0,619.805,662.383Z" transform="translate(-618.575 -658.425)"/>
      </g>
    </g>
  </g>
</svg>
