<svg xmlns="http://www.w3.org/2000/svg" width="239.684" height="239.684" viewBox="0 0 239.684 239.684">
  <g id="Grupo_54338" data-name="Grupo 54338" transform="translate(-1125.15 -571.053)">
    <g id="Grupo_54337" data-name="Grupo 54337" transform="translate(1125.15 571.053)">
      <g id="Grupo_54314" data-name="Grupo 54314" transform="translate(4.054 35.1)">
        <g id="Grupo_54313" data-name="Grupo 54313">
          <path id="Trazado_100972" data-name="Trazado 100972" d="M1170.351,652.588l-43.329-11.609a119.722,119.722,0,0,1,31.047-53.717l31.711,31.711A74.913,74.913,0,0,0,1170.351,652.588Z" transform="translate(-1127.022 -587.262)" fill="#f69f23"/>
        </g>
      </g>
      <g id="Grupo_54316" data-name="Grupo 54316" transform="translate(88.815 192.299)">
        <g id="Grupo_54315" data-name="Grupo 54315">
          <path id="Trazado_100973" data-name="Trazado 100973" d="M1197.191,662.393a75.134,75.134,0,0,0,19.414-2.536l11.609,43.329a120.719,120.719,0,0,1-62.05,0l11.609-43.329A75.054,75.054,0,0,0,1197.191,662.393Z" transform="translate(-1166.164 -659.855)" fill="#7421b0"/>
        </g>
      </g>
      <g id="Grupo_54318" data-name="Grupo 54318" transform="translate(139.256 172.873)">
        <g id="Grupo_54317" data-name="Grupo 54317">
          <path id="Trazado_100974" data-name="Trazado 100974" d="M1223.072,650.884l31.711,31.711a119.723,119.723,0,0,1-53.717,31.047l-11.609-43.329A74.912,74.912,0,0,0,1223.072,650.884Z" transform="translate(-1189.457 -650.884)" fill="#3a48ba"/>
        </g>
      </g>
      <g id="Grupo_54320" data-name="Grupo 54320" transform="translate(35.1 172.871)">
        <g id="Grupo_54319" data-name="Grupo 54319">
          <path id="Trazado_100975" data-name="Trazado 100975" d="M1206.683,670.312l-11.609,43.329a119.716,119.716,0,0,1-53.715-31.047l31.711-31.711A74.9,74.9,0,0,0,1206.683,670.312Z" transform="translate(-1141.359 -650.883)" fill="#d2298e"/>
        </g>
      </g>
      <g id="Grupo_54322" data-name="Grupo 54322" transform="translate(172.87 139.258)">
        <g id="Grupo_54321" data-name="Grupo 54321">
          <path id="Trazado_100976" data-name="Trazado 100976" d="M1224.411,635.361l43.329,11.609a119.728,119.728,0,0,1-31.049,53.717l-31.711-31.711A74.926,74.926,0,0,0,1224.411,635.361Z" transform="translate(-1204.98 -635.361)" fill="#006fc4"/>
        </g>
      </g>
      <g id="Grupo_54324" data-name="Grupo 54324" transform="translate(4.054 139.256)">
        <g id="Grupo_54323" data-name="Grupo 54323">
          <path id="Trazado_100977" data-name="Trazado 100977" d="M1170.351,635.36a74.89,74.89,0,0,0,19.429,33.615l-31.711,31.711a119.715,119.715,0,0,1-31.047-53.715Z" transform="translate(-1127.022 -635.36)" fill="#ff2600"/>
        </g>
      </g>
      <g id="Grupo_54326" data-name="Grupo 54326" transform="translate(35.1 4.054)">
        <g id="Grupo_54325" data-name="Grupo 54325">
          <path id="Trazado_100978" data-name="Trazado 100978" d="M1173.071,635.683l-31.711-31.711a119.716,119.716,0,0,1,53.715-31.047l11.609,43.329A74.936,74.936,0,0,0,1173.071,635.683Z" transform="translate(-1141.359 -572.925)" fill="#fac712"/>
        </g>
      </g>
      <g id="Grupo_54328" data-name="Grupo 54328" transform="translate(88.815)">
        <g id="Grupo_54327" data-name="Grupo 54327">
          <path id="Trazado_100979" data-name="Trazado 100979" d="M1197.191,615.9a75.143,75.143,0,0,0-19.418,2.538l-11.609-43.329a120.747,120.747,0,0,1,62.05,0c-2.809,10.483-5.838,21.787-11.609,43.329A75.124,75.124,0,0,0,1197.191,615.9Z" transform="translate(-1166.164 -571.053)" fill="#feef00"/>
        </g>
      </g>
      <g id="Grupo_54330" data-name="Grupo 54330" transform="translate(0 88.817)">
        <g id="Grupo_54329" data-name="Grupo 54329">
          <path id="Trazado_100980" data-name="Trazado 100980" d="M1170,643.093a75.11,75.11,0,0,0,2.538,19.413L1129.2,674.118a120.75,120.75,0,0,1,0-62.05l43.329,11.609A75.127,75.127,0,0,0,1170,643.093Z" transform="translate(-1125.15 -612.068)" fill="#fb6312"/>
        </g>
      </g>
      <g id="Grupo_54332" data-name="Grupo 54332" transform="translate(192.301 88.815)">
        <g id="Grupo_54331" data-name="Grupo 54331">
          <path id="Trazado_100981" data-name="Trazado 100981" d="M1216.491,643.094a75.127,75.127,0,0,0-2.538-19.416l43.329-11.611a120.759,120.759,0,0,1,0,62.052l-43.329-11.609A75.14,75.14,0,0,0,1216.491,643.094Z" transform="translate(-1213.953 -612.067)" fill="#00afcf"/>
        </g>
      </g>
      <g id="Grupo_54334" data-name="Grupo 54334" transform="translate(139.256 4.054)">
        <g id="Grupo_54333" data-name="Grupo 54333">
          <path id="Trazado_100982" data-name="Trazado 100982" d="M1189.457,616.254c5.771-21.542,8.8-32.846,11.609-43.329a119.723,119.723,0,0,1,53.717,31.047l-31.711,31.709A74.906,74.906,0,0,0,1189.457,616.254Z" transform="translate(-1189.457 -572.925)" fill="#7fd200"/>
        </g>
      </g>
      <g id="Grupo_54336" data-name="Grupo 54336" transform="translate(172.87 35.1)">
        <g id="Grupo_54335" data-name="Grupo 54335">
          <path id="Trazado_100983" data-name="Trazado 100983" d="M1204.98,618.971l31.711-31.709a119.72,119.72,0,0,1,31.049,53.715l-43.329,11.611A74.933,74.933,0,0,0,1204.98,618.971Z" transform="translate(-1204.98 -587.262)" fill="#00b500"/>
        </g>
      </g>
    </g>
    <circle id="Elipse_4117" data-name="Elipse 4117" cx="9.753" cy="9.753" r="9.753" transform="translate(1183.16 599.795)"/>
    <circle id="Elipse_4118" data-name="Elipse 4118" cx="9.753" cy="9.753" r="9.753" transform="translate(1283.343 598.899)"/>
    <circle id="Elipse_4119" data-name="Elipse 4119" cx="9.753" cy="9.753" r="9.753" transform="translate(1183.16 767.539)"/>
    <circle id="Elipse_4120" data-name="Elipse 4120" cx="9.753" cy="9.753" r="9.753" transform="translate(1283.343 767.539)"/>
    <rect id="Rectángulo_5316" data-name="Rectángulo 5316" width="100.183" height="167.744" transform="translate(1192.913 609.548)" fill="none" stroke="#000" stroke-linecap="round" stroke-linejoin="round" stroke-width="3"/>
  </g>
</svg>
