<svg xmlns="http://www.w3.org/2000/svg" xmlns:xlink="http://www.w3.org/1999/xlink" width="1240" height="529.993" viewBox="0 0 1240 529.993">
  <defs>
    <filter id="Trazado_100470" x="369.77" y="24.413" width="497.994" height="432.743" filterUnits="userSpaceOnUse">
      <feOffset input="SourceAlpha"/>
      <feGaussianBlur stdDeviation="6" result="blur"/>
      <feFlood flood-color="#fff" flood-opacity="0.749"/>
      <feComposite operator="in" in2="blur"/>
      <feComposite in="SourceGraphic"/>
    </filter>
  </defs>
  <g id="Grupo_58396" data-name="Grupo 58396" transform="translate(-180 -4709)">
    <g id="Grupo_53782" data-name="Grupo 53782" transform="translate(-107.588 4446.824)">
      <rect id="Rectángulo_5180" data-name="Rectángulo 5180" width="1240" height="529.993" transform="translate(287.588 262.176)" fill="#12263f"/>
      <g id="Grupo_53781" data-name="Grupo 53781" transform="translate(420.854 304.589)">
        <path id="Trazado_100469" data-name="Trazado 100469" d="M432.12,771.784l142.757-48.424V500.771L432.12,549.195Z" transform="translate(-432.12 -326.616)" fill="#727997"/>
        <g transform="matrix(1, 0, 0, 1, -133.27, -42.41)" filter="url(#Trazado_100470)">
          <path id="Trazado_100470-2" data-name="Trazado 100470" d="M942.469,311.894,708.138,708.637h461.994Z" transform="translate(-320.37 -269.48)" fill="#fff"/>
        </g>
        <g id="Grupo_53778" data-name="Grupo 53778" transform="translate(71.379 168.547)">
          <path id="Trazado_100471" data-name="Trazado 100471" d="M509.533,652.921h0A4.4,4.4,0,0,1,512,648.948L827.406,494.689l-5.571,9.813L515.889,656.833A4.4,4.4,0,0,1,509.533,652.921Z" transform="translate(-509.533 -494.689)" fill="#fff"/>
        </g>
        <path id="Trazado_100472" data-name="Trazado 100472" d="M1371.483,585.375v19.363L1040.12,474.412l-186.7,19.508.8-1.4,181.57-25.668Z" transform="translate(-464.958 -323.972)" fill="#ea2127"/>
        <path id="Trazado_100473" data-name="Trazado 100473" d="M1371.416,605.377v19.56L1045.343,484.271,852.552,495.962l.8-1.4,186.7-19.508Z" transform="translate(-464.891 -324.612)" fill="#fbb03b"/>
        <path id="Trazado_100474" data-name="Trazado 100474" d="M1371.349,625.716v19.363L1050.925,494.9l-199.236,3.248.8-1.4,192.791-11.691Z" transform="translate(-464.824 -325.391)" fill="#f3e708"/>
        <path id="Trazado_100475" data-name="Trazado 100475" d="M1371.281,645.911v19.044L1056.471,505.51l-205.646-5.133.8-1.4,199.236-3.248Z" transform="translate(-464.757 -326.223)" fill="#009245"/>
        <path id="Trazado_100476" data-name="Trazado 100476" d="M1371.214,665.349v19.393L1062.045,515.857,849.962,502.172l.8-1.4L1056.4,505.9Z" transform="translate(-464.689 -326.616)" fill="#29abe2"/>
        <path id="Trazado_100477" data-name="Trazado 100477" d="M1371.147,684.86v19.309L1067.764,525.937,849.1,503.693l.8-1.4,212.082,13.684Z" transform="translate(-464.622 -326.735)" fill="#3941a5"/>
        <path id="Trazado_100478" data-name="Trazado 100478" d="M1371.079,704.288V723.6L1073.441,536.065,848.236,505.213l.8-1.4L1067.7,526.055Z" transform="translate(-464.555 -326.853)" fill="#732d91"/>
        <g id="Grupo_53779" data-name="Grupo 53779" transform="translate(18.912 237.755)">
          <path id="Trazado_100479" data-name="Trazado 100479" d="M454.6,610.83V614.4l-1.972.688v-9.833l3.762-1.313a3.321,3.321,0,0,1,2.668-.066,2,2,0,0,1,.973,1.937,4.049,4.049,0,0,1-.973,2.608,5.8,5.8,0,0,1-2.668,1.789Zm0-1.52,1.79-.625a2.48,2.48,0,0,0,1.249-.884,2.182,2.182,0,0,0,.425-1.294,1.194,1.194,0,0,0-.421-1.023,1.325,1.325,0,0,0-1.253-.026l-1.79.625Z" transform="translate(-452.631 -572.388)" fill="#fff"/>
          <path id="Trazado_100480" data-name="Trazado 100480" d="M466.225,610.559a2.973,2.973,0,0,1-.3-.989,4.454,4.454,0,0,1-.8,1.165,2.969,2.969,0,0,1-1.189.765,2.092,2.092,0,0,1-1.769.027,1.492,1.492,0,0,1-.621-1.394,2.79,2.79,0,0,1,.827-1.953,5.94,5.94,0,0,1,2.415-1.433l1.107-.386v-.582a.821.821,0,0,0-.278-.72.9.9,0,0,0-.823,0,1.592,1.592,0,0,0-.74.491,1.134,1.134,0,0,0-.26.728l-1.9.663-.014-.036a2.677,2.677,0,0,1,.807-1.879,5.178,5.178,0,0,1,2.232-1.45,2.84,2.84,0,0,1,2.131-.081,1.59,1.59,0,0,1,.814,1.614v3.018a5.249,5.249,0,0,0,.077.939,3.723,3.723,0,0,0,.247.813Zm-1.8-.687a2.436,2.436,0,0,0,.918-.578,2.249,2.249,0,0,0,.554-.787v-1.034l-1.107.387a1.962,1.962,0,0,0-.949.641,1.436,1.436,0,0,0-.321.876.531.531,0,0,0,.239.507A.812.812,0,0,0,464.422,609.872Z" transform="translate(-453.326 -572.364)" fill="#fff"/>
          <path id="Trazado_100481" data-name="Trazado 100481" d="M473.847,602.3l-.723.23a1.832,1.832,0,0,0-1.155,1.1v4.936l-1.965.685v-7.306l1.83-.639.088,1.05a3.715,3.715,0,0,1,.666-1.128,2.216,2.216,0,0,1,.942-.648,1.6,1.6,0,0,1,.274-.073q.124-.019.252-.03Z" transform="translate(-453.985 -572.143)" fill="#fff"/>
          <path id="Trazado_100482" data-name="Trazado 100482" d="M478.288,606.5a2.67,2.67,0,0,1-2.553-.112,2.638,2.638,0,0,1-.918-2.263v-.27a5.355,5.355,0,0,1,.892-3,4.667,4.667,0,0,1,2.452-1.895,2.29,2.29,0,0,1,2.259.112,2.608,2.608,0,0,1,.787,2.154v1.019l-4.356,1.52-.02.047a1.386,1.386,0,0,0,.456,1.057,1.243,1.243,0,0,0,1.212.044,5.331,5.331,0,0,0,1.125-.528,7.242,7.242,0,0,0,.955-.745l.534,1.029a5.972,5.972,0,0,1-1.189,1.017A7.081,7.081,0,0,1,478.288,606.5Zm-.128-6.02a1.7,1.7,0,0,0-.915.728,2.808,2.808,0,0,0-.389,1.22l.014.03,2.4-.84v-.149a1.309,1.309,0,0,0-.263-.917Q478.746,600.271,478.159,600.475Z" transform="translate(-454.36 -572.006)" fill="#fff"/>
          <path id="Trazado_100483" data-name="Trazado 100483" d="M482.66,600.9a6.093,6.093,0,0,1,.747-3.05,3.8,3.8,0,0,1,2.1-1.793,1.9,1.9,0,0,1,.986-.107,1.47,1.47,0,0,1,.77.407v-4.005l1.979-.691v10.535l-1.681.587-.17-.84a4.055,4.055,0,0,1-.816,1.058,3.113,3.113,0,0,1-1.081.645,1.9,1.9,0,0,1-2.09-.258,3.156,3.156,0,0,1-.747-2.346Zm1.966-.543a2.38,2.38,0,0,0,.324,1.4q.324.436,1.054.182a2.193,2.193,0,0,0,.742-.432,2.277,2.277,0,0,0,.52-.684V597.7a.921.921,0,0,0-.516-.358,1.267,1.267,0,0,0-.733.064,1.763,1.763,0,0,0-1.057,1.011,4.425,4.425,0,0,0-.334,1.792Z" transform="translate(-454.972 -571.455)" fill="#fff"/>
          <path id="Trazado_100484" data-name="Trazado 100484" d="M498.334,599.5a2.669,2.669,0,0,1-2.552-.112,2.635,2.635,0,0,1-.918-2.263v-.27a5.354,5.354,0,0,1,.891-3,4.675,4.675,0,0,1,2.452-1.9,2.289,2.289,0,0,1,2.259.114,2.6,2.6,0,0,1,.787,2.152v1.021l-4.357,1.52-.02.048a1.391,1.391,0,0,0,.456,1.057,1.242,1.242,0,0,0,1.212.043,5.38,5.38,0,0,0,1.125-.527,7.256,7.256,0,0,0,.955-.746l.533,1.03a5.885,5.885,0,0,1-1.189,1.015A7.031,7.031,0,0,1,498.334,599.5Zm-.128-6.02a1.7,1.7,0,0,0-.915.727,2.808,2.808,0,0,0-.388,1.219l.013.029,2.4-.838v-.149a1.3,1.3,0,0,0-.264-.917C498.881,593.368,498.6,593.344,498.205,593.481Z" transform="translate(-455.923 -571.461)" fill="#fff"/>
          <path id="Trazado_100485" data-name="Trazado 100485" d="M504.837,589.767l.088,1.018a4.439,4.439,0,0,1,.9-1.185,3.349,3.349,0,0,1,1.195-.727,1.738,1.738,0,0,1,1.73.108,2.552,2.552,0,0,1,.621,2.037v4.477l-1.98.69v-4.469a1.344,1.344,0,0,0-.274-1.016.813.813,0,0,0-.82-.041,2.463,2.463,0,0,0-.774.435,2.513,2.513,0,0,0-.55.649v5.287l-1.971.689v-7.308Z" transform="translate(-456.557 -571.225)" fill="#fff"/>
          <path id="Trazado_100486" data-name="Trazado 100486" d="M519.161,590.07a.451.451,0,0,0-.314-.449,2.672,2.672,0,0,0-1.165,0,3.721,3.721,0,0,1-1.948-.1,1.151,1.151,0,0,1-.665-1.178,2.918,2.918,0,0,1,.8-1.88,4.773,4.773,0,0,1,2.121-1.4,3.035,3.035,0,0,1,2.218-.112,1.309,1.309,0,0,1,.8,1.368l-.013.045-1.9.665a.671.671,0,0,0-.283-.618.949.949,0,0,0-.817.008,1.653,1.653,0,0,0-.75.5,1.053,1.053,0,0,0-.277.678.435.435,0,0,0,.287.449,2.682,2.682,0,0,0,1.165-.024,3.819,3.819,0,0,1,2,.094,1.192,1.192,0,0,1,.658,1.213,2.817,2.817,0,0,1-.844,1.908,5.345,5.345,0,0,1-2.23,1.407,2.909,2.909,0,0,1-2.305.065,1.4,1.4,0,0,1-.808-1.4l.013-.045,1.8-.63q.021.581.385.716a1.417,1.417,0,0,0,.952-.068,1.97,1.97,0,0,0,.833-.511A1.025,1.025,0,0,0,519.161,590.07Z" transform="translate(-457.483 -570.92)" fill="#fff"/>
          <path id="Trazado_100487" data-name="Trazado 100487" d="M522.643,587.152a5.268,5.268,0,0,1,.912-3,4.885,4.885,0,0,1,2.525-1.925,2.576,2.576,0,0,1,2.539.154,2.819,2.819,0,0,1,.918,2.361v.141a5.247,5.247,0,0,1-.916,3,4.915,4.915,0,0,1-2.528,1.92,2.57,2.57,0,0,1-2.536-.153,2.823,2.823,0,0,1-.916-2.365Zm1.966-.545a2.517,2.517,0,0,0,.351,1.482q.35.483,1.134.209a1.891,1.891,0,0,0,1.118-1,3.916,3.916,0,0,0,.354-1.724v-.14a2.464,2.464,0,0,0-.358-1.463.9.9,0,0,0-1.128-.222,1.889,1.889,0,0,0-1.117,1.009,3.918,3.918,0,0,0-.354,1.709Z" transform="translate(-458.088 -570.701)" fill="#fff"/>
          <path id="Trazado_100488" data-name="Trazado 100488" d="M533.269,579.728l.082.938a4.072,4.072,0,0,1,.881-1.122,3.616,3.616,0,0,1,1.226-.715,2.033,2.033,0,0,1,1.2-.109,1.17,1.17,0,0,1,.756.674,4.229,4.229,0,0,1,.878-1.224,3.457,3.457,0,0,1,1.27-.774,1.628,1.628,0,0,1,1.7.172,2.779,2.779,0,0,1,.625,2.122v4.336l-1.971.688v-4.342a1.608,1.608,0,0,0-.271-1.129.758.758,0,0,0-.8-.064,1.984,1.984,0,0,0-.727.438,2.25,2.25,0,0,0-.49.688c0,.086,0,.159.007.218s.006.121.006.183v4.8l-1.965.686v-4.342a1.622,1.622,0,0,0-.271-1.119.749.749,0,0,0-.81-.07,2.154,2.154,0,0,0-.7.395,2.265,2.265,0,0,0-.5.6v5.33l-1.965.685v-7.307Z" transform="translate(-458.774 -570.332)" fill="#fff"/>
          <path id="Trazado_100489" data-name="Trazado 100489" d="M551.01,577.328a5.525,5.525,0,0,1-.729,2.867,3.838,3.838,0,0,1-2.107,1.716,2.081,2.081,0,0,1-1.118.12,1.421,1.421,0,0,1-.808-.509l-.161.975-1.668.582V572.543l1.965-.686v4.005a3.7,3.7,0,0,1,.76-.94,3.022,3.022,0,0,1,1.016-.592,1.84,1.84,0,0,1,2.121.31,3.7,3.7,0,0,1,.729,2.546Zm-1.965.543a3.127,3.127,0,0,0-.313-1.582q-.315-.515-1.07-.25a2.118,2.118,0,0,0-.777.463,2.187,2.187,0,0,0-.5.725v3.093a.759.759,0,0,0,.5.33,1.537,1.537,0,0,0,.786-.1,1.75,1.75,0,0,0,1.067-.909,3.815,3.815,0,0,0,.3-1.629Z" transform="translate(-459.786 -569.912)" fill="#fff"/>
          <path id="Trazado_100490" data-name="Trazado 100490" d="M556.727,573.378l-.722.232a1.9,1.9,0,0,0-.723.435,1.878,1.878,0,0,0-.432.664v4.936l-1.965.686v-7.307l1.83-.638.088,1.05a3.7,3.7,0,0,1,.666-1.128,2.23,2.23,0,0,1,.941-.649,1.638,1.638,0,0,1,.274-.072c.083-.013.168-.024.254-.03Z" transform="translate(-460.445 -569.889)" fill="#fff"/>
          <path id="Trazado_100491" data-name="Trazado 100491" d="M562.443,576.988a2.89,2.89,0,0,1-.186-.462,2.969,2.969,0,0,1-.112-.529,4.484,4.484,0,0,1-.8,1.166,2.979,2.979,0,0,1-1.19.766,2.085,2.085,0,0,1-1.768.025,1.486,1.486,0,0,1-.622-1.393,2.785,2.785,0,0,1,.827-1.952A5.919,5.919,0,0,1,561,573.174l1.107-.386v-.582a.822.822,0,0,0-.277-.72.906.906,0,0,0-.823,0,1.593,1.593,0,0,0-.739.491,1.135,1.135,0,0,0-.26.729l-1.9.662-.014-.035a2.675,2.675,0,0,1,.807-1.879A5.189,5.189,0,0,1,561.139,570a2.842,2.842,0,0,1,2.132-.081,1.592,1.592,0,0,1,.813,1.615v3.018a5.243,5.243,0,0,0,.078.939,3.643,3.643,0,0,0,.247.812Zm-1.8-.688a2.443,2.443,0,0,0,.918-.578,2.254,2.254,0,0,0,.553-.787V573.9l-1.107.386a1.954,1.954,0,0,0-.949.642,1.427,1.427,0,0,0-.322.875.531.531,0,0,0,.24.507A.811.811,0,0,0,560.64,576.3Z" transform="translate(-460.826 -569.748)" fill="#fff"/>
        </g>
        <g id="Grupo_53780" data-name="Grupo 53780" transform="translate(51.974 342.019)">
          <path id="Trazado_100492" data-name="Trazado 100492" d="M494.4,702.577l-3.188,1.111-.662,2.352-2.059.718,3.316-10.99,2.019-.7,3.3,8.681-2.059.718Zm-2.7-.6,2.221-.775-1.087-3.085-.041.014Z" transform="translate(-488.488 -683.78)" fill="#fff"/>
          <path id="Trazado_100493" data-name="Trazado 100493" d="M498.4,699.883a6.084,6.084,0,0,1,.75-3.052,3.818,3.818,0,0,1,2.107-1.794,1.911,1.911,0,0,1,1.081-.1,1.489,1.489,0,0,1,.8.513l.156-.986,1.695-.592v7.273a3.815,3.815,0,0,1-.932,2.531,5.814,5.814,0,0,1-2.6,1.687,5.175,5.175,0,0,1-1.175.257,4.6,4.6,0,0,1-1.148-.014l.331-1.589a3.819,3.819,0,0,0,.935,0,4.976,4.976,0,0,0,1.044-.253,2.591,2.591,0,0,0,1.192-.754,1.821,1.821,0,0,0,.381-1.187v-.661a3.7,3.7,0,0,1-.763.894,3.163,3.163,0,0,1-1.006.567,1.909,1.909,0,0,1-2.094-.256,3.144,3.144,0,0,1-.75-2.344Zm1.971-.546a2.391,2.391,0,0,0,.322,1.4q.321.438,1.049.184a2.274,2.274,0,0,0,.766-.432,2.087,2.087,0,0,0,.5-.659V696.66a.812.812,0,0,0-.5-.346,1.371,1.371,0,0,0-.752.08,1.755,1.755,0,0,0-1.053,1.009,4.454,4.454,0,0,0-.332,1.792Z" transform="translate(-489.261 -683.687)" fill="#fff"/>
          <path id="Trazado_100494" data-name="Trazado 100494" d="M511.66,697.775a4.109,4.109,0,0,1-.858,1.205,3.3,3.3,0,0,1-1.209.74,1.753,1.753,0,0,1-1.806-.153,2.851,2.851,0,0,1-.652-2.2v-4.236l1.966-.685v4.248a1.889,1.889,0,0,0,.26,1.223.731.731,0,0,0,.807.074,2.677,2.677,0,0,0,.81-.436,2.236,2.236,0,0,0,.553-.641v-5.316l1.972-.688v7.307l-1.634.57Z" transform="translate(-489.941 -683.456)" fill="#fff"/>
          <path id="Trazado_100495" data-name="Trazado 100495" d="M517.66,689.267v7.577a3.667,3.667,0,0,1-.681,2.219,3.83,3.83,0,0,1-1.9,1.363,5.031,5.031,0,0,1-.493.144,4.363,4.363,0,0,1-.473.077l.095-1.539a2.445,2.445,0,0,0,.311-.048,2.839,2.839,0,0,0,.331-.095,1.136,1.136,0,0,0,.614-.5,1.788,1.788,0,0,0,.216-.937v-7.576Zm-.04-1.747-1.979.69v-1.466l1.979-.69Z" transform="translate(-490.486 -683.077)" fill="#fff"/>
          <path id="Trazado_100496" data-name="Trazado 100496" d="M522.771,695.18a2.67,2.67,0,0,1-2.553-.112,2.638,2.638,0,0,1-.918-2.263v-.27a5.35,5.35,0,0,1,.892-3,4.669,4.669,0,0,1,2.452-1.9,2.29,2.29,0,0,1,2.259.112,2.606,2.606,0,0,1,.787,2.154v1.02l-4.356,1.52-.02.048a1.387,1.387,0,0,0,.456,1.056,1.241,1.241,0,0,0,1.212.044,5.333,5.333,0,0,0,1.125-.527,7.178,7.178,0,0,0,.955-.746l.533,1.03a5.878,5.878,0,0,1-1.188,1.016A7.141,7.141,0,0,1,522.771,695.18Zm-.128-6.02a1.7,1.7,0,0,0-.915.728,2.808,2.808,0,0,0-.389,1.22l.014.03,2.4-.839v-.149a1.309,1.309,0,0,0-.264-.917C523.318,689.047,523.035,689.023,522.643,689.16Z" transform="translate(-490.89 -683.183)" fill="#fff"/>
          <path id="Trazado_100497" data-name="Trazado 100497" d="M531.317,686.45l-.723.231a1.828,1.828,0,0,0-1.155,1.1v4.936l-1.965.687V686.1l1.83-.64.088,1.05a3.709,3.709,0,0,1,.666-1.127,2.227,2.227,0,0,1,.941-.649,1.641,1.641,0,0,1,.274-.072c.084-.014.168-.023.254-.03Z" transform="translate(-491.527 -682.966)" fill="#fff"/>
          <path id="Trazado_100498" data-name="Trazado 100498" d="M532.279,688a5.268,5.268,0,0,1,.912-3,4.877,4.877,0,0,1,2.526-1.925,2.575,2.575,0,0,1,2.54.154,2.82,2.82,0,0,1,.917,2.36v.142a5.243,5.243,0,0,1-.915,3,4.9,4.9,0,0,1-2.529,1.92,2.568,2.568,0,0,1-2.537-.152,2.824,2.824,0,0,1-.915-2.364Zm1.965-.544a2.517,2.517,0,0,0,.352,1.48q.35.484,1.134.209a1.889,1.889,0,0,0,1.118-1,3.911,3.911,0,0,0,.354-1.724v-.142a2.476,2.476,0,0,0-.357-1.462.9.9,0,0,0-1.129-.221A1.89,1.89,0,0,0,534.6,685.6a3.916,3.916,0,0,0-.355,1.707Z" transform="translate(-491.901 -682.826)" fill="#fff"/>
        </g>
        <path id="Trazado_105206" data-name="Trazado 105206" d="M2.729-1.53H6.773V0H.825V-9.242h1.9ZM11.769-.7A2.3,2.3,0,0,1,9.89.127,2.17,2.17,0,0,1,8.2-.508a2.71,2.71,0,0,1-.594-1.86v-4.5H9.445v4.442q0,1.074.978,1.074A1.325,1.325,0,0,0,11.705-2V-6.868h1.841V0H11.819Zm5.269-.781H20.4V0h-5.7V-1.117l3.231-4.272H14.79V-6.868h5.5v1.081ZM30.97-3.371a4.159,4.159,0,0,1-.7,2.574A2.334,2.334,0,0,1,28.3.127,2.144,2.144,0,0,1,26.514-.73L26.432,0h-1.65V-9.75h1.834v3.5A2.089,2.089,0,0,1,28.285-7a2.353,2.353,0,0,1,1.971.924,4.165,4.165,0,0,1,.714,2.6Zm-1.834-.14a2.747,2.747,0,0,0-.33-1.525,1.115,1.115,0,0,0-.984-.481,1.21,1.21,0,0,0-1.206.719v2.719a1.226,1.226,0,0,0,1.219.726A1.133,1.133,0,0,0,29-2.231,4.546,4.546,0,0,0,29.136-3.51ZM34.036,0H32.2V-9.75h1.841Zm5.491,0a2.037,2.037,0,0,1-.184-.616A2.22,2.22,0,0,1,37.61.127a2.439,2.439,0,0,1-1.673-.584,1.878,1.878,0,0,1-.663-1.473,1.941,1.941,0,0,1,.809-1.676,3.994,3.994,0,0,1,2.339-.59h.844v-.394a1.132,1.132,0,0,0-.244-.762.961.961,0,0,0-.771-.286,1.093,1.093,0,0,0-.727.222.755.755,0,0,0-.263.609H35.426a1.843,1.843,0,0,1,.368-1.1,2.434,2.434,0,0,1,1.041-.8A3.794,3.794,0,0,1,38.346-7a3,3,0,0,1,2.015.638,2.232,2.232,0,0,1,.746,1.793v2.977A3.284,3.284,0,0,0,41.38-.108V0ZM38.01-1.276a1.58,1.58,0,0,0,.749-.181,1.188,1.188,0,0,0,.508-.486V-3.123h-.686q-1.377,0-1.466.952l-.006.108a.734.734,0,0,0,.241.565A.937.937,0,0,0,38.01-1.276Zm6.2-5.592.057.793A2.4,2.4,0,0,1,46.236-7a1.993,1.993,0,0,1,1.625.641,2.991,2.991,0,0,1,.546,1.917V0H46.573V-4.4a1.2,1.2,0,0,0-.254-.849,1.135,1.135,0,0,0-.844-.264,1.261,1.261,0,0,0-1.162.662V0H42.479V-6.868Zm8.449,5.516a1.2,1.2,0,0,0,.825-.279.979.979,0,0,0,.33-.743h1.72a2.353,2.353,0,0,1-.381,1.279,2.513,2.513,0,0,1-1.025.9,3.208,3.208,0,0,1-1.438.321,2.982,2.982,0,0,1-2.323-.936A3.705,3.705,0,0,1,49.512-3.4v-.121a3.663,3.663,0,0,1,.844-2.533A2.947,2.947,0,0,1,52.673-7a2.889,2.889,0,0,1,2.066.733,2.6,2.6,0,0,1,.79,1.952h-1.72a1.261,1.261,0,0,0-.33-.871,1.1,1.1,0,0,0-.838-.335,1.1,1.1,0,0,0-.968.467,2.708,2.708,0,0,0-.327,1.516v.191a2.742,2.742,0,0,0,.324,1.526A1.119,1.119,0,0,0,52.654-1.352ZM60.557,0a2.037,2.037,0,0,1-.184-.616A2.22,2.22,0,0,1,58.64.127a2.439,2.439,0,0,1-1.673-.584A1.878,1.878,0,0,1,56.3-1.93a1.941,1.941,0,0,1,.809-1.676,3.994,3.994,0,0,1,2.339-.59H60.3v-.394a1.132,1.132,0,0,0-.244-.762.961.961,0,0,0-.771-.286,1.093,1.093,0,0,0-.727.222.755.755,0,0,0-.263.609H56.456a1.843,1.843,0,0,1,.368-1.1,2.434,2.434,0,0,1,1.041-.8A3.794,3.794,0,0,1,59.376-7a3,3,0,0,1,2.015.638,2.232,2.232,0,0,1,.746,1.793v2.977A3.284,3.284,0,0,0,62.41-.108V0ZM59.04-1.276a1.58,1.58,0,0,0,.749-.181,1.188,1.188,0,0,0,.508-.486V-3.123h-.686q-1.377,0-1.466.952l-.006.108a.734.734,0,0,0,.241.565A.937.937,0,0,0,59.04-1.276Z" transform="translate(261.865 137.015)" fill="#fff"/>
        <path id="Trazado_105207" data-name="Trazado 105207" d="M6.386-4.018H2.729V-1.53H7.021V0H.825V-9.242H7.008V-7.7H2.729v2.2H6.386ZM11.737-1.9a.591.591,0,0,0-.333-.53,3.785,3.785,0,0,0-1.07-.346q-2.45-.514-2.45-2.082a1.887,1.887,0,0,1,.759-1.527A3.06,3.06,0,0,1,10.626-7a3.293,3.293,0,0,1,2.092.616,1.94,1.94,0,0,1,.784,1.6H11.667a.888.888,0,0,0-.254-.651,1.075,1.075,0,0,0-.793-.257,1.1,1.1,0,0,0-.717.209.661.661,0,0,0-.254.533.565.565,0,0,0,.289.492,2.971,2.971,0,0,0,.974.324,7.959,7.959,0,0,1,1.155.308,1.9,1.9,0,0,1,1.454,1.847,1.792,1.792,0,0,1-.806,1.52,3.478,3.478,0,0,1-2.082.581A3.632,3.632,0,0,1,9.1-.181a2.572,2.572,0,0,1-1.051-.844,1.962,1.962,0,0,1-.381-1.158H9.407a.958.958,0,0,0,.362.749,1.435,1.435,0,0,0,.9.26,1.328,1.328,0,0,0,.8-.2A.622.622,0,0,0,11.737-1.9Zm9.147-1.473a4.119,4.119,0,0,1-.72,2.542,2.31,2.31,0,0,1-1.946.955A2.14,2.14,0,0,1,16.536-.6V2.641H14.7V-6.868h1.7l.063.673A2.156,2.156,0,0,1,18.205-7a2.326,2.326,0,0,1,1.974.939,4.231,4.231,0,0,1,.7,2.59Zm-1.834-.14a2.718,2.718,0,0,0-.34-1.484,1.105,1.105,0,0,0-.987-.522,1.2,1.2,0,0,0-1.187.662v2.821a1.221,1.221,0,0,0,1.2.681Q19.049-1.352,19.049-3.51ZM25.181.127A3.372,3.372,0,0,1,22.721-.8a3.294,3.294,0,0,1-.949-2.469v-.178a4.149,4.149,0,0,1,.4-1.85,2.935,2.935,0,0,1,1.133-1.257A3.18,3.18,0,0,1,24.978-7a2.85,2.85,0,0,1,2.219.889,3.611,3.611,0,0,1,.809,2.52v.749H23.632a1.7,1.7,0,0,0,.536,1.079,1.621,1.621,0,0,0,1.133.406,1.98,1.98,0,0,0,1.657-.768l.9,1.009A2.754,2.754,0,0,1,26.743-.2,3.665,3.665,0,0,1,25.181.127Zm-.209-5.643a1.146,1.146,0,0,0-.885.37,1.915,1.915,0,0,0-.435,1.058H26.2v-.147a1.366,1.366,0,0,0-.33-.947A1.183,1.183,0,0,0,24.972-5.516ZM31.9-1.352a1.2,1.2,0,0,0,.825-.279.979.979,0,0,0,.33-.743h1.72A2.353,2.353,0,0,1,34.4-1.095a2.513,2.513,0,0,1-1.025.9,3.208,3.208,0,0,1-1.438.321,2.982,2.982,0,0,1-2.323-.936A3.705,3.705,0,0,1,28.761-3.4v-.121a3.663,3.663,0,0,1,.844-2.533A2.947,2.947,0,0,1,31.922-7a2.889,2.889,0,0,1,2.066.733,2.6,2.6,0,0,1,.79,1.952h-1.72a1.261,1.261,0,0,0-.33-.871,1.1,1.1,0,0,0-.838-.335,1.1,1.1,0,0,0-.968.467A2.708,2.708,0,0,0,30.6-3.533v.191a2.742,2.742,0,0,0,.324,1.526A1.119,1.119,0,0,0,31.9-1.352Zm6.119-7.2v1.688H39.2v1.346H38.022v3.428a.818.818,0,0,0,.146.546.733.733,0,0,0,.559.165,2.925,2.925,0,0,0,.54-.044v1.39a3.777,3.777,0,0,1-1.111.165,1.752,1.752,0,0,1-1.968-1.949v-3.7h-1V-6.868h1V-8.557Zm6.056,3.409a4.984,4.984,0,0,0-.66-.051,1.344,1.344,0,0,0-1.365.7V0H40.219V-6.868h1.733L42-6.049A1.7,1.7,0,0,1,43.532-7a1.922,1.922,0,0,1,.571.083Zm.368,1.65a4.073,4.073,0,0,1,.394-1.822,2.881,2.881,0,0,1,1.133-1.238A3.306,3.306,0,0,1,47.69-7a3.128,3.128,0,0,1,2.269.851,3.414,3.414,0,0,1,.981,2.311l.013.47A3.59,3.59,0,0,1,50.07-.828,3.067,3.067,0,0,1,47.7.127a3.082,3.082,0,0,1-2.371-.952,3.653,3.653,0,0,1-.885-2.59Zm1.834.13a2.567,2.567,0,0,0,.368,1.5,1.215,1.215,0,0,0,1.054.518,1.217,1.217,0,0,0,1.041-.512A2.809,2.809,0,0,0,49.118-3.5a2.542,2.542,0,0,0-.375-1.488,1.217,1.217,0,0,0-1.054-.528,1.2,1.2,0,0,0-1.041.524A2.857,2.857,0,0,0,46.281-3.367Z" transform="translate(661.494 137.015)" fill="#fff"/>
        <path id="Trazado_105209" data-name="Trazado 105209" d="M3.569-4.258V0H1.079V-12.086H5.794a5.455,5.455,0,0,1,2.395.5,3.67,3.67,0,0,1,1.59,1.415,3.946,3.946,0,0,1,.556,2.088,3.47,3.47,0,0,1-1.216,2.8A5.065,5.065,0,0,1,5.752-4.258Zm0-2.017H5.794A2.187,2.187,0,0,0,7.3-6.74a1.691,1.691,0,0,0,.519-1.328A1.994,1.994,0,0,0,7.3-9.5a1.953,1.953,0,0,0-1.444-.564H3.569Zm13.364-.457A6.517,6.517,0,0,0,16.07-6.8a1.757,1.757,0,0,0-1.785.921V0h-2.4V-8.981h2.266l.066,1.071a2.223,2.223,0,0,1,2-1.237,2.514,2.514,0,0,1,.747.108ZM20.619,0H18.212V-8.981h2.407ZM18.071-11.306a1.181,1.181,0,0,1,.361-.888,1.356,1.356,0,0,1,.984-.349,1.36,1.36,0,0,1,.979.349,1.175,1.175,0,0,1,.365.888,1.178,1.178,0,0,1-.369.9,1.363,1.363,0,0,1-.975.349,1.363,1.363,0,0,1-.975-.349A1.178,1.178,0,0,1,18.071-11.306Zm9.388,8.824a.773.773,0,0,0-.436-.693,4.95,4.95,0,0,0-1.4-.452q-3.2-.672-3.2-2.723a2.468,2.468,0,0,1,.992-2,4,4,0,0,1,2.594-.8,4.307,4.307,0,0,1,2.735.805A2.538,2.538,0,0,1,29.767-6.25h-2.4a1.161,1.161,0,0,0-.332-.851A1.405,1.405,0,0,0,26-7.437a1.436,1.436,0,0,0-.938.274.865.865,0,0,0-.332.7.739.739,0,0,0,.378.643A3.885,3.885,0,0,0,26.38-5.4a10.407,10.407,0,0,1,1.511.4,2.482,2.482,0,0,1,1.9,2.416A2.343,2.343,0,0,1,28.737-.594a4.548,4.548,0,0,1-2.723.76,4.75,4.75,0,0,1-2-.4,3.363,3.363,0,0,1-1.374-1.1,2.565,2.565,0,0,1-.5-1.515h2.274a1.252,1.252,0,0,0,.473.979,1.877,1.877,0,0,0,1.179.34A1.737,1.737,0,0,0,27.106-1.8.814.814,0,0,0,27.459-2.482Zm6.126-6.5.075,1a3.156,3.156,0,0,1,2.582-1.17,2.4,2.4,0,0,1,2.382,1.37,3.084,3.084,0,0,1,2.7-1.37A2.679,2.679,0,0,1,43.5-8.3a3.911,3.911,0,0,1,.714,2.561V0H41.8V-5.741a1.717,1.717,0,0,0-.3-1.119,1.322,1.322,0,0,0-1.054-.354,1.5,1.5,0,0,0-1.494,1.032L38.964,0h-2.4V-5.732a1.7,1.7,0,0,0-.307-1.132,1.335,1.335,0,0,0-1.046-.349,1.554,1.554,0,0,0-1.478.849V0h-2.4V-8.981ZM51.257,0a2.664,2.664,0,0,1-.241-.805A2.9,2.9,0,0,1,48.75.166,3.189,3.189,0,0,1,46.563-.6,2.456,2.456,0,0,1,45.7-2.523a2.538,2.538,0,0,1,1.058-2.191,5.222,5.222,0,0,1,3.059-.772h1.1V-6a1.48,1.48,0,0,0-.32-1,1.257,1.257,0,0,0-1.009-.374,1.429,1.429,0,0,0-.95.291.987.987,0,0,0-.344.8H45.9a2.41,2.41,0,0,1,.481-1.444A3.182,3.182,0,0,1,47.738-8.77a4.961,4.961,0,0,1,1.976-.378,3.92,3.92,0,0,1,2.635.834,2.918,2.918,0,0,1,.975,2.345v3.893a4.294,4.294,0,0,0,.357,1.934V0ZM49.273-1.668a2.066,2.066,0,0,0,.979-.237,1.554,1.554,0,0,0,.664-.635V-4.084h-.9q-1.8,0-1.917,1.245l-.008.141a.96.96,0,0,0,.315.739A1.225,1.225,0,0,0,49.273-1.668Zm9.753-2.889A5.413,5.413,0,0,1,59.969-7.9a3.057,3.057,0,0,1,2.577-1.245,2.751,2.751,0,0,1,2.167.979V-12.75H67.12V0H64.954l-.116-.955A2.823,2.823,0,0,1,62.53.166a3.049,3.049,0,0,1-2.544-1.249A5.587,5.587,0,0,1,59.027-4.557Zm2.4.171a3.565,3.565,0,0,0,.44,1.943,1.432,1.432,0,0,0,1.278.675,1.6,1.6,0,0,0,1.569-.942V-6.271a1.582,1.582,0,0,0-1.552-.942Q61.426-7.213,61.426-4.386ZM73.113.166A4.409,4.409,0,0,1,69.9-1.046a4.308,4.308,0,0,1-1.241-3.229v-.232a5.426,5.426,0,0,1,.523-2.42A3.838,3.838,0,0,1,70.66-8.571a4.159,4.159,0,0,1,2.187-.577,3.727,3.727,0,0,1,2.9,1.162,4.722,4.722,0,0,1,1.058,3.3v.979H71.088a2.229,2.229,0,0,0,.7,1.411,2.12,2.12,0,0,0,1.482.531,2.589,2.589,0,0,0,2.167-1l1.179,1.32A3.6,3.6,0,0,1,75.155-.261,4.793,4.793,0,0,1,73.113.166Zm-.274-7.379a1.5,1.5,0,0,0-1.158.484,2.5,2.5,0,0,0-.569,1.384H74.45v-.192a1.786,1.786,0,0,0-.432-1.238A1.547,1.547,0,0,0,72.839-7.213ZM85.764-2.93l1.668-6.051h2.507L86.909,0H84.618l-3.03-8.981H84.1ZM93.525,0H91.118V-8.981h2.407ZM90.977-11.306a1.181,1.181,0,0,1,.361-.888,1.356,1.356,0,0,1,.984-.349,1.36,1.36,0,0,1,.979.349,1.175,1.175,0,0,1,.365.888,1.178,1.178,0,0,1-.369.9,1.363,1.363,0,0,1-.975.349,1.363,1.363,0,0,1-.975-.349A1.178,1.178,0,0,1,90.977-11.306Zm4.15,6.749A5.413,5.413,0,0,1,96.069-7.9a3.057,3.057,0,0,1,2.577-1.245,2.751,2.751,0,0,1,2.167.979V-12.75h2.407V0h-2.167l-.116-.955A2.823,2.823,0,0,1,98.63.166a3.049,3.049,0,0,1-2.544-1.249A5.587,5.587,0,0,1,95.127-4.557Zm2.4.171a3.565,3.565,0,0,0,.44,1.943,1.432,1.432,0,0,0,1.278.675,1.6,1.6,0,0,0,1.569-.942V-6.271a1.582,1.582,0,0,0-1.552-.942Q97.526-7.213,97.526-4.386Zm12.6-2.345a6.517,6.517,0,0,0-.863-.066,1.757,1.757,0,0,0-1.785.921V0h-2.4V-8.981h2.266l.066,1.071a2.223,2.223,0,0,1,2-1.237,2.514,2.514,0,0,1,.747.108ZM113.812,0H111.4V-8.981h2.407Zm-2.548-11.306a1.181,1.181,0,0,1,.361-.888,1.356,1.356,0,0,1,.984-.349,1.36,1.36,0,0,1,.979.349,1.175,1.175,0,0,1,.365.888,1.178,1.178,0,0,1-.369.9,1.363,1.363,0,0,1-.975.349,1.363,1.363,0,0,1-.975-.349A1.178,1.178,0,0,1,111.264-11.306Zm4.15,6.732a5.326,5.326,0,0,1,.515-2.382,3.768,3.768,0,0,1,1.482-1.619,4.323,4.323,0,0,1,2.245-.573,4.09,4.09,0,0,1,2.968,1.112,4.464,4.464,0,0,1,1.282,3.021l.017.614a4.694,4.694,0,0,1-1.154,3.316,4.011,4.011,0,0,1-3.1,1.249,4.031,4.031,0,0,1-3.1-1.245,4.777,4.777,0,0,1-1.158-3.387Zm2.4.17a3.357,3.357,0,0,0,.481,1.958,1.588,1.588,0,0,0,1.378.678,1.592,1.592,0,0,0,1.361-.669,3.674,3.674,0,0,0,.49-2.141,3.324,3.324,0,0,0-.49-1.945,1.592,1.592,0,0,0-1.378-.69,1.566,1.566,0,0,0-1.361.686A3.736,3.736,0,0,0,117.813-4.4Z" transform="translate(420.734 441.587)" fill="#fff"/>
        <path id="Trazado_105208" data-name="Trazado 105208" d="M4.247-3.383H2.729V0H.825V-9.242H4.259a3.882,3.882,0,0,1,2.526.73,2.519,2.519,0,0,1,.889,2.063,2.843,2.843,0,0,1-.409,1.577A2.792,2.792,0,0,1,6.024-3.866l2,3.777V0H5.979ZM2.729-4.926H4.266a1.573,1.573,0,0,0,1.111-.365A1.3,1.3,0,0,0,5.77-6.3,1.4,1.4,0,0,0,5.4-7.325,1.543,1.543,0,0,0,4.259-7.7H2.729ZM8.715-3.5a4.073,4.073,0,0,1,.394-1.822,2.881,2.881,0,0,1,1.133-1.238A3.306,3.306,0,0,1,11.959-7a3.128,3.128,0,0,1,2.269.851,3.414,3.414,0,0,1,.981,2.311l.013.47a3.59,3.59,0,0,1-.882,2.536,3.067,3.067,0,0,1-2.368.955A3.082,3.082,0,0,1,9.6-.825a3.653,3.653,0,0,1-.885-2.59Zm1.834.13a2.567,2.567,0,0,0,.368,1.5,1.215,1.215,0,0,0,1.054.518,1.217,1.217,0,0,0,1.041-.512A2.809,2.809,0,0,0,13.387-3.5a2.542,2.542,0,0,0-.375-1.488,1.217,1.217,0,0,0-1.054-.528,1.2,1.2,0,0,0-1.041.524A2.857,2.857,0,0,0,10.55-3.367Zm7.744-3.5V.375a2.457,2.457,0,0,1-.6,1.768,2.292,2.292,0,0,1-1.739.632,3.73,3.73,0,0,1-.908-.108V1.212a3.444,3.444,0,0,0,.578.057q.832,0,.832-.882V-6.868ZM16.307-8.646a.9.9,0,0,1,.276-.679,1.037,1.037,0,0,1,.752-.267,1.037,1.037,0,0,1,.752.267.9.9,0,0,1,.276.679.9.9,0,0,1-.282.686,1.042,1.042,0,0,1-.746.267,1.042,1.042,0,0,1-.746-.267A.9.9,0,0,1,16.307-8.646ZM19.443-3.5a4.073,4.073,0,0,1,.394-1.822,2.881,2.881,0,0,1,1.133-1.238A3.306,3.306,0,0,1,22.687-7a3.127,3.127,0,0,1,2.269.851,3.414,3.414,0,0,1,.981,2.311l.013.47a3.59,3.59,0,0,1-.882,2.536A3.067,3.067,0,0,1,22.7.127a3.082,3.082,0,0,1-2.371-.952,3.653,3.653,0,0,1-.885-2.59Zm1.834.13a2.567,2.567,0,0,0,.368,1.5,1.215,1.215,0,0,0,1.054.518,1.217,1.217,0,0,0,1.041-.512A2.809,2.809,0,0,0,24.115-3.5a2.542,2.542,0,0,0-.375-1.488,1.217,1.217,0,0,0-1.054-.528,1.2,1.2,0,0,0-1.041.524A2.857,2.857,0,0,0,21.277-3.367ZM8.341,18h-1.9L2.729,11.919V18H.825V8.758h1.9l3.713,6.094V8.758h1.9Zm5.522,0a2.037,2.037,0,0,1-.184-.616,2.22,2.22,0,0,1-1.733.743,2.439,2.439,0,0,1-1.673-.584A1.878,1.878,0,0,1,9.61,16.07a1.941,1.941,0,0,1,.809-1.676,3.994,3.994,0,0,1,2.339-.59H13.6v-.394a1.132,1.132,0,0,0-.244-.762.961.961,0,0,0-.771-.286,1.093,1.093,0,0,0-.727.222.755.755,0,0,0-.263.609H9.763a1.843,1.843,0,0,1,.368-1.1,2.434,2.434,0,0,1,1.041-.8A3.794,3.794,0,0,1,12.683,11a3,3,0,0,1,2.015.638,2.232,2.232,0,0,1,.746,1.793v2.977a3.284,3.284,0,0,0,.273,1.479V18Zm-1.517-1.276a1.58,1.58,0,0,0,.749-.181,1.188,1.188,0,0,0,.508-.486V14.877h-.686q-1.377,0-1.466.952l-.006.108a.734.734,0,0,0,.241.565A.937.937,0,0,0,12.346,16.724Zm8.366-3.872a4.984,4.984,0,0,0-.66-.051,1.344,1.344,0,0,0-1.365.7V18H16.853V11.132h1.733l.051.819A1.7,1.7,0,0,1,20.167,11a1.922,1.922,0,0,1,.571.083ZM25.384,18a2.037,2.037,0,0,1-.184-.616,2.22,2.22,0,0,1-1.733.743,2.439,2.439,0,0,1-1.673-.584,1.878,1.878,0,0,1-.663-1.473,1.941,1.941,0,0,1,.809-1.676,3.994,3.994,0,0,1,2.339-.59h.844v-.394a1.132,1.132,0,0,0-.244-.762.961.961,0,0,0-.771-.286,1.093,1.093,0,0,0-.727.222.755.755,0,0,0-.263.609H21.284a1.843,1.843,0,0,1,.368-1.1,2.434,2.434,0,0,1,1.041-.8A3.794,3.794,0,0,1,24.2,11a3,3,0,0,1,2.015.638,2.232,2.232,0,0,1,.746,1.793v2.977a3.284,3.284,0,0,0,.273,1.479V18Zm-1.517-1.276a1.58,1.58,0,0,0,.749-.181,1.188,1.188,0,0,0,.508-.486V14.877h-.686q-1.377,0-1.466.952l-.006.108a.734.734,0,0,0,.241.565A.937.937,0,0,0,23.867,16.724Zm6.2-5.592.057.793A2.4,2.4,0,0,1,32.094,11a1.993,1.993,0,0,1,1.625.641,2.991,2.991,0,0,1,.546,1.917V18H32.43V13.6a1.2,1.2,0,0,0-.254-.849,1.135,1.135,0,0,0-.844-.264,1.261,1.261,0,0,0-1.162.662V18H28.336V11.132Zm7.535,0v7.243a2.457,2.457,0,0,1-.6,1.768,2.292,2.292,0,0,1-1.739.632,3.73,3.73,0,0,1-.908-.108V19.212a3.443,3.443,0,0,0,.578.057q.832,0,.832-.882V11.132ZM35.61,9.354a.9.9,0,0,1,.276-.679,1.194,1.194,0,0,1,1.5,0,.973.973,0,0,1-.006,1.365,1.177,1.177,0,0,1-1.492,0A.9.9,0,0,1,35.61,9.354ZM43.012,18a2.037,2.037,0,0,1-.184-.616,2.22,2.22,0,0,1-1.733.743,2.439,2.439,0,0,1-1.673-.584,1.878,1.878,0,0,1-.663-1.473,1.941,1.941,0,0,1,.809-1.676,3.994,3.994,0,0,1,2.339-.59h.844v-.394a1.132,1.132,0,0,0-.244-.762.961.961,0,0,0-.771-.286,1.093,1.093,0,0,0-.727.222.755.755,0,0,0-.263.609H38.911a1.843,1.843,0,0,1,.368-1.1,2.434,2.434,0,0,1,1.041-.8A3.794,3.794,0,0,1,41.831,11a3,3,0,0,1,2.015.638,2.232,2.232,0,0,1,.746,1.793v2.977a3.284,3.284,0,0,0,.273,1.479V18Zm-1.517-1.276a1.58,1.58,0,0,0,.749-.181,1.188,1.188,0,0,0,.508-.486V14.877h-.686q-1.377,0-1.466.952l-.006.108a.734.734,0,0,0,.241.565A.937.937,0,0,0,41.495,16.724ZM6.043,34.1H2.7L2.069,36H.044l3.44-9.242H5.25L8.709,36H6.684ZM3.218,32.553H5.529L4.367,29.094Zm7.649-3.421.057.768A2.414,2.414,0,0,1,12.9,29a1.832,1.832,0,0,1,1.822,1.047A2.358,2.358,0,0,1,16.783,29a2.049,2.049,0,0,1,1.663.651,2.991,2.991,0,0,1,.546,1.958V36H17.151V31.61a1.313,1.313,0,0,0-.229-.856,1.011,1.011,0,0,0-.806-.27,1.145,1.145,0,0,0-1.143.789L14.98,36H13.146V31.616a1.3,1.3,0,0,0-.235-.865,1.021,1.021,0,0,0-.8-.267,1.188,1.188,0,0,0-1.13.649V36H9.147V29.132ZM24.381,36a2.037,2.037,0,0,1-.184-.616,2.22,2.22,0,0,1-1.733.743,2.439,2.439,0,0,1-1.673-.584,1.878,1.878,0,0,1-.663-1.473,1.941,1.941,0,0,1,.809-1.676,3.994,3.994,0,0,1,2.339-.59h.844v-.394a1.132,1.132,0,0,0-.244-.762.961.961,0,0,0-.771-.286,1.093,1.093,0,0,0-.727.222.755.755,0,0,0-.263.609H20.281a1.843,1.843,0,0,1,.368-1.1,2.434,2.434,0,0,1,1.041-.8A3.794,3.794,0,0,1,23.2,29a3,3,0,0,1,2.015.638,2.232,2.232,0,0,1,.746,1.793v2.977a3.284,3.284,0,0,0,.273,1.479V36Zm-1.517-1.276a1.58,1.58,0,0,0,.749-.181,1.188,1.188,0,0,0,.508-.486V32.877h-.686q-1.377,0-1.466.952l-.006.108a.734.734,0,0,0,.241.565A.937.937,0,0,0,22.864,34.724Zm8.366-3.872a4.984,4.984,0,0,0-.66-.051,1.344,1.344,0,0,0-1.365.7V36H27.371V29.132H29.1l.051.819A1.7,1.7,0,0,1,30.685,29a1.922,1.922,0,0,1,.571.083ZM34.049,36H32.208V29.132h1.841ZM32.1,27.354a.9.9,0,0,1,.276-.679,1.19,1.19,0,0,1,1.5,0,.969.969,0,0,1,0,1.365,1.177,1.177,0,0,1-1.492,0A.9.9,0,0,1,32.1,27.354ZM37.5,36H35.655V26.25H37.5Zm3.447,0H39.1V26.25h1.841Zm1.225-3.5a4.073,4.073,0,0,1,.394-1.822,2.881,2.881,0,0,1,1.133-1.238A3.306,3.306,0,0,1,45.411,29a3.128,3.128,0,0,1,2.269.851,3.414,3.414,0,0,1,.981,2.311l.013.47a3.59,3.59,0,0,1-.882,2.536,3.42,3.42,0,0,1-4.739,0,3.653,3.653,0,0,1-.885-2.59Zm1.834.13a2.567,2.567,0,0,0,.368,1.5,1.323,1.323,0,0,0,2.095.006,2.809,2.809,0,0,0,.375-1.637,2.542,2.542,0,0,0-.375-1.488,1.217,1.217,0,0,0-1.054-.528,1.2,1.2,0,0,0-1.041.524A2.857,2.857,0,0,0,44,32.633ZM4.24,51.708l2.095-6.951h2.12L5.237,54H3.25L.044,44.758H2.158Zm7.846,2.418a3.372,3.372,0,0,1-2.46-.927,3.294,3.294,0,0,1-.949-2.469v-.178a4.149,4.149,0,0,1,.4-1.85,2.935,2.935,0,0,1,1.133-1.257A3.18,3.18,0,0,1,11.883,47a2.85,2.85,0,0,1,2.219.889,3.611,3.611,0,0,1,.809,2.52v.749H10.537a1.7,1.7,0,0,0,.536,1.079,1.621,1.621,0,0,0,1.133.406,1.98,1.98,0,0,0,1.657-.768l.9,1.009a2.754,2.754,0,0,1-1.117.911A3.665,3.665,0,0,1,12.086,54.127Zm-.209-5.643a1.146,1.146,0,0,0-.885.37,1.915,1.915,0,0,0-.435,1.058h2.552v-.147a1.366,1.366,0,0,0-.33-.947A1.183,1.183,0,0,0,11.876,48.484Zm7.935.368a4.983,4.983,0,0,0-.66-.051,1.344,1.344,0,0,0-1.365.7V54H15.952V47.132h1.733l.051.819A1.7,1.7,0,0,1,19.265,47a1.922,1.922,0,0,1,.571.083Zm.476,1.663a4.139,4.139,0,0,1,.72-2.558A2.338,2.338,0,0,1,22.979,47a2.1,2.1,0,0,1,1.657.749v-3.5h1.841V54H24.819l-.089-.73a2.159,2.159,0,0,1-1.765.857,2.331,2.331,0,0,1-1.946-.955A4.272,4.272,0,0,1,20.287,50.515Zm1.834.131a2.726,2.726,0,0,0,.336,1.486,1.1,1.1,0,0,0,.978.517,1.227,1.227,0,0,0,1.2-.721V49.2a1.21,1.21,0,0,0-1.187-.721Q22.122,48.484,22.122,50.646Zm8.938,3.481A3.372,3.372,0,0,1,28.6,53.2a3.294,3.294,0,0,1-.949-2.469v-.178a4.149,4.149,0,0,1,.4-1.85,2.935,2.935,0,0,1,1.133-1.257A3.18,3.18,0,0,1,30.856,47a2.85,2.85,0,0,1,2.219.889,3.611,3.611,0,0,1,.809,2.52v.749H29.51a1.7,1.7,0,0,0,.536,1.079,1.621,1.621,0,0,0,1.133.406,1.98,1.98,0,0,0,1.657-.768l.9,1.009a2.754,2.754,0,0,1-1.117.911A3.665,3.665,0,0,1,31.059,54.127Zm-.209-5.643a1.146,1.146,0,0,0-.885.37,1.915,1.915,0,0,0-.435,1.058h2.552v-.147a1.366,1.366,0,0,0-.33-.947A1.183,1.183,0,0,0,30.85,48.484ZM6.043,70.1H2.7L2.069,72H.044l3.44-9.242H5.25L8.709,72H6.684ZM3.218,68.553H5.529L4.367,65.094Zm8.417,1.968h3.358V72h-5.7V70.883l3.231-4.272H9.388V65.132h5.5v1.081Zm8.62.781a2.3,2.3,0,0,1-1.879.825,2.17,2.17,0,0,1-1.685-.635,2.71,2.71,0,0,1-.594-1.86v-4.5h1.834v4.442q0,1.074.978,1.074A1.325,1.325,0,0,0,20.192,70V65.132h1.841V72H20.306Zm5.1.7H23.512V62.25h1.841ZM3.313,80.758l2.374,6.7,2.361-6.7h2.5V90H8.639V87.474l.19-4.361L6.335,90H5.027L2.539,83.119l.19,4.354V90H.825V80.758ZM11.807,86.5a4.073,4.073,0,0,1,.394-1.822,2.881,2.881,0,0,1,1.133-1.238A3.306,3.306,0,0,1,15.05,83a3.128,3.128,0,0,1,2.269.851,3.414,3.414,0,0,1,.981,2.311l.013.47a3.59,3.59,0,0,1-.882,2.536,3.067,3.067,0,0,1-2.368.955,3.082,3.082,0,0,1-2.371-.952,3.653,3.653,0,0,1-.885-2.59Zm1.834.13a2.567,2.567,0,0,0,.368,1.5,1.323,1.323,0,0,0,2.095.006,2.809,2.809,0,0,0,.375-1.637,2.542,2.542,0,0,0-.375-1.488,1.217,1.217,0,0,0-1.054-.528,1.2,1.2,0,0,0-1.041.524A2.857,2.857,0,0,0,13.641,86.633ZM23.3,84.852a4.984,4.984,0,0,0-.66-.051,1.344,1.344,0,0,0-1.365.7V90H19.443V83.132h1.733l.051.819A1.7,1.7,0,0,1,22.756,83a1.922,1.922,0,0,1,.571.083ZM27.974,90a2.037,2.037,0,0,1-.184-.616,2.22,2.22,0,0,1-1.733.743,2.439,2.439,0,0,1-1.673-.584,1.878,1.878,0,0,1-.663-1.473,1.941,1.941,0,0,1,.809-1.676,3.994,3.994,0,0,1,2.339-.59h.844v-.394a1.132,1.132,0,0,0-.244-.762.961.961,0,0,0-.771-.286,1.093,1.093,0,0,0-.727.222.755.755,0,0,0-.263.609H23.874a1.843,1.843,0,0,1,.368-1.1,2.434,2.434,0,0,1,1.041-.8A3.794,3.794,0,0,1,26.793,83a3,3,0,0,1,2.015.638,2.232,2.232,0,0,1,.746,1.793v2.977a3.284,3.284,0,0,0,.273,1.479V90Zm-1.517-1.276a1.58,1.58,0,0,0,.749-.181,1.188,1.188,0,0,0,.508-.486V86.877h-.686q-1.377,0-1.466.952l-.006.108a.734.734,0,0,0,.241.565A.937.937,0,0,0,26.457,88.724Zm4.221-2.209a4.139,4.139,0,0,1,.72-2.558A2.338,2.338,0,0,1,33.37,83a2.1,2.1,0,0,1,1.657.749v-3.5h1.841V90H35.21l-.089-.73a2.159,2.159,0,0,1-1.765.857,2.331,2.331,0,0,1-1.946-.955A4.272,4.272,0,0,1,30.678,86.515Zm1.834.131a2.726,2.726,0,0,0,.336,1.486,1.1,1.1,0,0,0,.978.517,1.227,1.227,0,0,0,1.2-.721V85.2a1.21,1.21,0,0,0-1.187-.721Q32.513,84.484,32.513,86.646ZM38,86.5a4.073,4.073,0,0,1,.394-1.822,2.881,2.881,0,0,1,1.133-1.238A3.306,3.306,0,0,1,41.247,83a3.128,3.128,0,0,1,2.269.851,3.414,3.414,0,0,1,.981,2.311l.013.47a3.59,3.59,0,0,1-.882,2.536,3.42,3.42,0,0,1-4.739,0A3.653,3.653,0,0,1,38,86.585Zm1.834.13a2.567,2.567,0,0,0,.368,1.5,1.323,1.323,0,0,0,2.095.006,2.809,2.809,0,0,0,.375-1.637,2.542,2.542,0,0,0-.375-1.488,1.217,1.217,0,0,0-1.054-.528,1.2,1.2,0,0,0-1.041.524A2.857,2.857,0,0,0,39.838,86.633ZM4.24,105.708l2.095-6.951h2.12L5.237,108H3.25L.044,98.758H2.158ZM11.14,108H9.3v-6.868H11.14ZM9.191,99.354a.9.9,0,0,1,.276-.679,1.037,1.037,0,0,1,.752-.267,1.04,1.04,0,0,1,.749.267.969.969,0,0,1,0,1.365,1.177,1.177,0,0,1-1.492,0A.9.9,0,0,1,9.191,99.354Zm3.174,5.148a4.073,4.073,0,0,1,.394-1.822,2.881,2.881,0,0,1,1.133-1.238A3.306,3.306,0,0,1,15.609,101a3.128,3.128,0,0,1,2.269.851,3.414,3.414,0,0,1,.981,2.311l.013.47a3.59,3.59,0,0,1-.882,2.536,3.067,3.067,0,0,1-2.368.955,3.082,3.082,0,0,1-2.371-.952,3.653,3.653,0,0,1-.885-2.59Zm1.834.13a2.567,2.567,0,0,0,.368,1.5,1.323,1.323,0,0,0,2.095.006,2.809,2.809,0,0,0,.375-1.637,2.542,2.542,0,0,0-.375-1.488,1.217,1.217,0,0,0-1.054-.528,1.2,1.2,0,0,0-1.041.524A2.857,2.857,0,0,0,14.2,104.633ZM21.938,108H20.1V98.25h1.841Zm4.672.127a3.372,3.372,0,0,1-2.46-.927,3.294,3.294,0,0,1-.949-2.469v-.178a4.149,4.149,0,0,1,.4-1.85,2.935,2.935,0,0,1,1.133-1.257A3.18,3.18,0,0,1,26.406,101a2.85,2.85,0,0,1,2.219.889,3.611,3.611,0,0,1,.809,2.52v.749H25.061a1.7,1.7,0,0,0,.536,1.079,1.621,1.621,0,0,0,1.133.406,1.98,1.98,0,0,0,1.657-.768l.9,1.009a2.754,2.754,0,0,1-1.117.911A3.665,3.665,0,0,1,26.609,108.127Zm-.209-5.643a1.146,1.146,0,0,0-.885.37,1.915,1.915,0,0,0-.435,1.058h2.552v-.147a1.366,1.366,0,0,0-.33-.947A1.183,1.183,0,0,0,26.4,102.484Zm6.271-3.041v1.688h1.174v1.346H32.671v3.428a.818.818,0,0,0,.146.546.733.733,0,0,0,.559.165,2.925,2.925,0,0,0,.54-.044v1.39a3.777,3.777,0,0,1-1.111.165,1.752,1.752,0,0,1-1.968-1.949v-3.7h-1v-1.346h1V99.443ZM38.848,108a2.037,2.037,0,0,1-.184-.616,2.22,2.22,0,0,1-1.733.743,2.439,2.439,0,0,1-1.673-.584,1.878,1.878,0,0,1-.663-1.473,1.941,1.941,0,0,1,.809-1.676,3.994,3.994,0,0,1,2.339-.59h.844v-.394a1.132,1.132,0,0,0-.244-.762.961.961,0,0,0-.771-.286,1.093,1.093,0,0,0-.727.222.755.755,0,0,0-.263.609H34.747a1.843,1.843,0,0,1,.368-1.1,2.434,2.434,0,0,1,1.041-.8A3.794,3.794,0,0,1,37.667,101a3,3,0,0,1,2.015.638,2.232,2.232,0,0,1,.746,1.793v2.977a3.284,3.284,0,0,0,.273,1.479V108Zm-1.517-1.276a1.58,1.58,0,0,0,.749-.181,1.188,1.188,0,0,0,.508-.486v-1.181H37.9q-1.377,0-1.466.952l-.006.108a.734.734,0,0,0,.241.565A.937.937,0,0,0,37.331,106.724Z" transform="translate(921.838 275.587)" fill="#fff"/>
      </g>
    </g>
  </g>
</svg>
