<svg xmlns="http://www.w3.org/2000/svg" width="239.687" height="239.684" viewBox="0 0 239.687 239.684">
  <g id="Grupo_54257" data-name="Grupo 54257" transform="translate(-726.326 -571.053)">
    <g id="Grupo_54256" data-name="Grupo 54256" transform="translate(726.326 571.053)">
      <g id="Grupo_54233" data-name="Grupo 54233" transform="translate(4.056 35.1)">
        <g id="Grupo_54232" data-name="Grupo 54232">
          <path id="Trazado_100933" data-name="Trazado 100933" d="M771.528,652.588,728.2,640.979a119.72,119.72,0,0,1,31.044-53.717l31.711,31.711A74.93,74.93,0,0,0,771.528,652.588Z" transform="translate(-728.199 -587.262)" fill="#f69f23"/>
        </g>
      </g>
      <g id="Grupo_54235" data-name="Grupo 54235" transform="translate(88.817 192.299)">
        <g id="Grupo_54234" data-name="Grupo 54234">
          <path id="Trazado_100934" data-name="Trazado 100934" d="M798.366,662.393a75.106,75.106,0,0,0,19.413-2.536l11.611,43.329a120.715,120.715,0,0,1-62.05,0l11.609-43.329A75.046,75.046,0,0,0,798.366,662.393Z" transform="translate(-767.341 -659.855)" fill="#7421b0"/>
        </g>
      </g>
      <g id="Grupo_54237" data-name="Grupo 54237" transform="translate(139.256 172.873)">
        <g id="Grupo_54236" data-name="Grupo 54236">
          <path id="Trazado_100935" data-name="Trazado 100935" d="M824.25,650.884,855.961,682.6a119.723,119.723,0,0,1-53.717,31.047l-11.611-43.329A74.919,74.919,0,0,0,824.25,650.884Z" transform="translate(-790.633 -650.884)" fill="#3a48ba"/>
        </g>
      </g>
      <g id="Grupo_54239" data-name="Grupo 54239" transform="translate(35.1 172.87)">
        <g id="Grupo_54238" data-name="Grupo 54238">
          <path id="Trazado_100936" data-name="Trazado 100936" d="M807.861,670.312l-11.609,43.329a119.724,119.724,0,0,1-53.717-31.047l31.711-31.711A74.89,74.89,0,0,0,807.861,670.312Z" transform="translate(-742.535 -650.883)" fill="#d2298e"/>
        </g>
      </g>
      <g id="Grupo_54241" data-name="Grupo 54241" transform="translate(172.873 139.258)">
        <g id="Grupo_54240" data-name="Grupo 54240">
          <path id="Trazado_100937" data-name="Trazado 100937" d="M825.586,635.361l43.329,11.609a119.725,119.725,0,0,1-31.047,53.717l-31.711-31.711A74.923,74.923,0,0,0,825.586,635.361Z" transform="translate(-806.157 -635.361)" fill="#006fc4"/>
        </g>
      </g>
      <g id="Grupo_54243" data-name="Grupo 54243" transform="translate(4.056 139.256)">
        <g id="Grupo_54242" data-name="Grupo 54242">
          <path id="Trazado_100938" data-name="Trazado 100938" d="M771.528,635.36a74.907,74.907,0,0,0,19.427,33.615l-31.711,31.711A119.694,119.694,0,0,1,728.2,646.971Z" transform="translate(-728.199 -635.36)" fill="#ff2600"/>
        </g>
      </g>
      <g id="Grupo_54245" data-name="Grupo 54245" transform="translate(35.1 4.054)">
        <g id="Grupo_54244" data-name="Grupo 54244">
          <path id="Trazado_100939" data-name="Trazado 100939" d="M774.246,635.683l-31.711-31.711a119.723,119.723,0,0,1,53.717-31.047l11.609,43.329A74.932,74.932,0,0,0,774.246,635.683Z" transform="translate(-742.535 -572.925)" fill="#fac712"/>
        </g>
      </g>
      <g id="Grupo_54247" data-name="Grupo 54247" transform="translate(88.817)">
        <g id="Grupo_54246" data-name="Grupo 54246">
          <path id="Trazado_100940" data-name="Trazado 100940" d="M798.366,615.9a75.139,75.139,0,0,0-19.416,2.538l-11.609-43.329a120.746,120.746,0,0,1,62.05,0c-2.808,10.483-5.838,21.787-11.611,43.329A75.1,75.1,0,0,0,798.366,615.9Z" transform="translate(-767.341 -571.053)" fill="#feef00"/>
        </g>
      </g>
      <g id="Grupo_54249" data-name="Grupo 54249" transform="translate(0 88.817)">
        <g id="Grupo_54248" data-name="Grupo 54248">
          <path id="Trazado_100941" data-name="Trazado 100941" d="M771.173,643.093a75.017,75.017,0,0,0,2.538,19.413l-43.329,11.611a120.689,120.689,0,0,1,0-62.05l43.329,11.609A75.034,75.034,0,0,0,771.173,643.093Z" transform="translate(-726.326 -612.068)" fill="#fb6312"/>
        </g>
      </g>
      <g id="Grupo_54251" data-name="Grupo 54251" transform="translate(192.301 88.815)">
        <g id="Grupo_54250" data-name="Grupo 54250">
          <path id="Trazado_100942" data-name="Trazado 100942" d="M817.667,643.094a75.126,75.126,0,0,0-2.538-19.416l43.329-11.611a120.692,120.692,0,0,1,0,62.052L815.129,662.51A75.141,75.141,0,0,0,817.667,643.094Z" transform="translate(-815.129 -612.067)" fill="#00afcf"/>
        </g>
      </g>
      <g id="Grupo_54253" data-name="Grupo 54253" transform="translate(139.256 4.054)">
        <g id="Grupo_54252" data-name="Grupo 54252">
          <path id="Trazado_100943" data-name="Trazado 100943" d="M790.633,616.254c5.773-21.542,8.8-32.846,11.611-43.329a119.722,119.722,0,0,1,53.717,31.047L824.25,635.681A74.913,74.913,0,0,0,790.633,616.254Z" transform="translate(-790.633 -572.925)" fill="#7fd200"/>
        </g>
      </g>
      <g id="Grupo_54255" data-name="Grupo 54255" transform="translate(172.873 35.1)">
        <g id="Grupo_54254" data-name="Grupo 54254">
          <path id="Trazado_100944" data-name="Trazado 100944" d="M806.157,618.971l31.711-31.709a119.717,119.717,0,0,1,31.047,53.715l-43.329,11.611A74.929,74.929,0,0,0,806.157,618.971Z" transform="translate(-806.157 -587.262)" fill="#00b500"/>
        </g>
      </g>
    </g>
    <path id="Trazado_100945" data-name="Trazado 100945" d="M744.235,731.175l165.469-.953-84.41-148.228Z" transform="translate(20.873 12.751)" fill="none" stroke="#000" stroke-linecap="round" stroke-linejoin="round" stroke-width="3"/>
    <circle id="Elipse_4108" data-name="Elipse 4108" cx="9.753" cy="9.753" r="9.753" transform="translate(835.606 583.222)"/>
    <circle id="Elipse_4109" data-name="Elipse 4109" cx="9.753" cy="9.753" r="9.753" transform="translate(755.356 734.173)"/>
    <circle id="Elipse_4110" data-name="Elipse 4110" cx="9.753" cy="9.753" r="9.753" transform="translate(920.825 733.219)"/>
  </g>
</svg>
