<svg xmlns="http://www.w3.org/2000/svg" width="820" height="444.482" viewBox="0 0 820 444.482">
  <g id="Grupo_58579" data-name="Grupo 58579" transform="translate(-509 -3829.063)">
    <rect id="dylan-shaw-UxyWwU6n_ts-unsplash" width="820" height="195.482" transform="translate(509 4078.063)" fill="#bfeffc"/>
    <g id="Grupo_57391" data-name="Grupo 57391" transform="translate(419.84 3695.862)">
      <g id="Grupo_57385" data-name="Grupo 57385" transform="translate(540.255 133.202)">
        <path id="Trazado_103483" data-name="Trazado 103483" d="M386.508,140.825s20.242,4.512,43.615,24.888L402.1,216.886A59.739,59.739,0,0,0,373.361,201.5Z" transform="translate(-265.635 -106.768)" fill="#fed55f"/>
        <path id="Trazado_103484" data-name="Trazado 103484" d="M391.557,173.3c2.457-9.158,4.463-18.446,6.835-27.626a87,87,0,0,0-11.883-4.847L373.361,201.5c7.335-6.375,9.3-3.949,10.579-4.619C386.133,188.992,389.448,181.147,391.557,173.3Z" transform="translate(-265.635 -106.768)" fill="#c49309"/>
        <path id="Trazado_103485" data-name="Trazado 103485" d="M351.75,135.612s79.26-7.9,123.3,14.876l-16.181,69.066S420,198.674,355.5,207.6Z" transform="translate(-340.569 -129.441)" fill="#fed55f"/>
        <rect id="Rectángulo_5959" data-name="Rectángulo 5959" width="6.343" height="271.629" transform="translate(11.111)" fill="#110239"/>
        <rect id="Rectángulo_5960" data-name="Rectángulo 5960" width="16.041" height="12.745" transform="translate(6.262 263.421)" fill="#110239"/>
        <rect id="Rectángulo_5961" data-name="Rectángulo 5961" width="28.566" height="6.409" transform="translate(0 273.382)" fill="#110239"/>
      </g>
      <g id="Grupo_57386" data-name="Grupo 57386" transform="translate(294.16 247.541)">
        <path id="Trazado_103486" data-name="Trazado 103486" d="M326.343,164.639v45.268H337.65V178a5.838,5.838,0,0,1,5.839-5.839h48.538A5.842,5.842,0,0,1,397.87,178v31.906h11.3V164.639a5.842,5.842,0,0,0-5.839-5.843H332.182A5.845,5.845,0,0,0,326.343,164.639Z" transform="translate(-182.57 -158.796)" fill="#d0d1de"/>
        <rect id="Rectángulo_5962" data-name="Rectángulo 5962" width="370.379" height="238.101" rx="20" transform="translate(0 35.777)" fill="#01549e"/>
        <path id="Trazado_103487" data-name="Trazado 103487" d="M664.541,233.141v-46.5A19.842,19.842,0,0,0,644.7,166.8H314a19.842,19.842,0,0,0-19.844,19.84v46.5a51.111,51.111,0,0,0,51.107,51.111H613.43A51.112,51.112,0,0,0,664.541,233.141Z" transform="translate(-294.16 -131.026)" fill="#003463"/>
        <rect id="Rectángulo_5963" data-name="Rectángulo 5963" width="23.565" height="26.756" transform="translate(173.407 142.502)" fill="#d0d1de"/>
        <rect id="Rectángulo_5964" data-name="Rectángulo 5964" width="7.616" height="6.614" transform="translate(181.382 155.329)" fill="#01549e"/>
      </g>
      <g id="Grupo_57389" data-name="Grupo 57389" transform="translate(320.791 144.937)">
        <path id="Trazado_103488" data-name="Trazado 103488" d="M327.869,140.412h-12.4s-1.783,16.887-5.017,18.9c0,0-3.989,19.947,11.218,19.947,18.4,0,11.213-19.947,11.213-19.947C329.656,157.3,327.869,140.412,327.869,140.412Z" transform="translate(-265.926 -119.936)" fill="#f88667"/>
        <path id="Trazado_103489" data-name="Trazado 103489" d="M327.869,140.412h-12.4s-1.783,16.887-5.017,18.9c0,0-3.989,19.947,11.218,19.947,18.4,0,11.213-19.947,11.213-19.947C329.656,157.3,327.869,140.412,327.869,140.412Z" transform="translate(-265.926 -119.936)" fill="#e45940"/>
        <g id="Grupo_57387" data-name="Grupo 57387" transform="translate(39.832)">
          <path id="Trazado_103490" data-name="Trazado 103490" d="M341.036,155.142c-1.716-1.975-3.779,1.032-3.779,1.032s2.837-11.168,0-16.06-12.022-2.319-12.022-2.319-9.194-2.578-12.026,2.319,0,16.06,0,16.06-2.059-3.006-3.779-1.032,2.832,6.956,3.864,7.559c0,0,6.616,12.37,11.941,12.37s11.937-12.37,11.937-12.37C338.2,162.1,342.756,157.117,341.036,155.142Z" transform="translate(-309.007 -131.36)" fill="#f88667"/>
          <path id="Trazado_103491" data-name="Trazado 103491" d="M322.951,142.695s-6.956,1.224-7.729,4.959a14.758,14.758,0,0,0,.371,5.571c.179.947.844,6.031.594,6.156a1.071,1.071,0,0,1-.9-.156,12.723,12.723,0,0,1-2.35-2.841c-1.322-1.934-3.221-1.613-3.77-.389,0,0-1.546-18.325,6.12-18.968S322.951,142.695,322.951,142.695Z" transform="translate(-309.037 -131.837)" fill="#110239"/>
          <path id="Trazado_103492" data-name="Trazado 103492" d="M313.166,142.695s6.956,1.224,7.729,4.959a14.755,14.755,0,0,1-.371,5.571c-.179.947-.844,6.031-.594,6.156a1.071,1.071,0,0,0,.9-.156,12.719,12.719,0,0,0,2.35-2.841c1.322-1.934,3.221-1.613,3.771-.389,0,0,1.545-18.325-6.12-18.968S313.166,142.695,313.166,142.695Z" transform="translate(-294.722 -131.837)" fill="#110239"/>
          <path id="Trazado_103493" data-name="Trazado 103493" d="M337.623,143.6a8.546,8.546,0,0,0-5.017-6.093,23.09,23.09,0,0,0-14.769-.885c-9.725,2.466-9.873,12.54-6.192,15.573,2.774,2.287,4.673,3.422,8.961,3.422C334.094,155.617,339.709,147.692,337.623,143.6Z" transform="translate(-307.703 -135.828)" fill="#110239"/>
        </g>
        <path id="Trazado_103494" data-name="Trazado 103494" d="M352,144.642c-.648,16.958-11.218,15.207-11.218,15.207s-10.561,1.751-11.213-15.207c0,0-16.873,4.664-25.1,10.177a162.893,162.893,0,0,1,3.726,31.254l9.645,37.361,22.944,1.135,22.944-1.135,9.645-37.361a162.882,162.882,0,0,1,3.726-31.254C368.871,149.306,352,144.642,352,144.642Z" transform="translate(-285.043 -105.269)" fill="#8ecae4"/>
        <path id="Trazado_103495" data-name="Trazado 103495" d="M370.565,150.806c-10.489,5.589-15.587,18.446-25.772,24.749-10.538,6.518-17.994-6.652-23.123-13.5A39.817,39.817,0,0,0,304.8,148.626a159.516,159.516,0,0,1,2.247,23.632l9.645,37.361,22.944,1.135,22.944-1.135,9.645-37.361a158.47,158.47,0,0,1,2.189-23.271C373.085,149.564,371.78,150.154,370.565,150.806Z" transform="translate(-283.895 -91.455)" fill="#00547a" opacity="0.32" style="mix-blend-mode: multiply;isolation: isolate"/>
        <path id="Trazado_103496" data-name="Trazado 103496" d="M389.774,182.535c0-13.112-16.261-21.734-16.261-21.734h-54.64s-16.261,8.622-16.261,21.734a65.563,65.563,0,0,0,1.313,10.123h18.151c-.737,1.331-1.407,2.573-1.939,3.623-.161.317-.339.6-.509.9h13.2c1,0,.674.415.4-1.05-.4-2.086-1.693-3.27-.424-5.459,1-1.715,5.87-3.123,7.836-3.163.429-.009.858-.009,1.273,0q4.282.1,8.564,0a15.261,15.261,0,0,1,3.185.527c.925.152,3.668-.085,4.852,1.47.773,1.019.7,1.925.929,3.167a30.029,30.029,0,0,1-.5,4.508h16.543a48.587,48.587,0,0,1-3.172-4.525h16.15A65.585,65.585,0,0,0,389.774,182.535Z" transform="translate(-291.489 -49.239)" fill="#fd425f"/>
        <path id="Trazado_103497" data-name="Trazado 103497" d="M389.774,182.535c0-13.112-16.261-21.734-16.261-21.734h-54.64s-16.261,8.622-16.261,21.734a65.563,65.563,0,0,0,1.313,10.123h18.151c-.737,1.331-1.407,2.573-1.939,3.623-.161.317-.339.6-.509.9h13.2c1,0,.674.415.4-1.05-.4-2.086-1.693-3.27-.424-5.459,1-1.715,5.87-3.123,7.836-3.163.429-.009.858-.009,1.273,0q4.282.1,8.564,0a15.261,15.261,0,0,1,3.185.527c.925.152,3.668-.085,4.852,1.47.773,1.019.7,1.925.929,3.167a30.029,30.029,0,0,1-.5,4.508h16.543a48.587,48.587,0,0,1-3.172-4.525h16.15A65.585,65.585,0,0,0,389.774,182.535Z" transform="translate(-291.489 -49.239)" fill="#bd1337"/>
        <path id="Trazado_103498" data-name="Trazado 103498" d="M319.549,146.921s-20.867,45.094-19.348,51.093c.38,1.5,25.759,16.829,37.709,14.631l4.861-.9S325.034,146.6,319.549,146.921Z" transform="translate(-300.121 -97.371)" fill="#8ecae4"/>
        <path id="Trazado_103499" data-name="Trazado 103499" d="M338.742,146.921s20.867,45.094,19.348,51.093c-.38,1.5-25.759,16.829-37.709,14.631l-4.86-.9S333.257,146.6,338.742,146.921Z" transform="translate(-246.725 -97.371)" fill="#8ecae4"/>
        <path id="Trazado_103500" data-name="Trazado 103500" d="M309.264,150.451a31.481,31.481,0,0,1-.8,6.585c-1.845,8.148-4.753,16.654-1.7,24.928,2.31,6.259,6.009,12.616,9.417,18.629a15.2,15.2,0,0,0,3.31-.192l4.861-.9S316.22,169.638,309.264,150.451Z" transform="translate(-281.702 -85.127)" fill="#00547a" opacity="0.32" style="mix-blend-mode: multiply;isolation: isolate"/>
        <path id="Trazado_103501" data-name="Trazado 103501" d="M327.333,198.45a29.289,29.289,0,0,0,2.31-12.017c-.277-8.327-.326-16.654-.192-24.986.058-3.6.152-7.085.362-10.5-6.764,19.183-14.291,46.831-14.291,46.831l4.86.9A19.933,19.933,0,0,0,327.333,198.45Z" transform="translate(-246.725 -83.403)" fill="#00547a" opacity="0.32" style="mix-blend-mode: multiply;isolation: isolate"/>
        <path id="Trazado_103502" data-name="Trazado 103502" d="M319.686,183.745s-13.237,15.752-14.787,19.1,2.238,7.563,7.393,5.843,8.166-5.24,8.251-7.478,2.837-3.426,4.038-3.605,8.081-8,7.393-10.145-4.141-4.5-4.141-4.5Z" transform="translate(-284.766 27.591)"/>
        <path id="Trazado_103503" data-name="Trazado 103503" d="M326.376,183.745s13.232,15.752,14.783,19.1-2.234,7.563-7.393,5.843-8.166-5.24-8.251-7.478-2.837-3.426-4.038-3.605-8.081-8-7.394-10.145,4.141-4.5,4.141-4.5Z" transform="translate(-251.884 27.591)"/>
        <path id="Trazado_103504" data-name="Trazado 103504" d="M331.142,174.578c-1.577-3.748-1.9-11.682-12.513-11.682-20.447,0-15.654,16.386-15.341,18.834,3.091,24.4,17.928,73.068,17.928,73.068h20.478s-7.447-59.639-8.6-68.833C332.938,184.7,332.223,177.156,331.142,174.578Z" transform="translate(-291.589 -41.975)" fill="#fd425f"/>
        <path id="Trazado_103505" data-name="Trazado 103505" d="M323.958,174.578c1.577-3.748,1.9-11.682,12.513-11.682,20.461,0,15.654,16.386,15.341,18.834-3.091,24.4-17.928,73.068-17.928,73.068H313.406s7.447-59.639,8.6-68.833C322.162,184.7,322.877,177.156,323.958,174.578Z" transform="translate(-254.058 -41.975)" fill="#fd425f"/>
        <g id="Grupo_57388" data-name="Grupo 57388" transform="translate(13.273 73.205)">
          <rect id="Rectángulo_5965" data-name="Rectángulo 5965" width="60.132" height="3.565" transform="translate(12.407 41.69)" fill="#110239"/>
          <path id="Trazado_103506" data-name="Trazado 103506" d="M384.473,152.215H306.655s-4.2,0-3.48,4.686,10.53,37.463,12.509,37.463h59.764c1.738,0,11.785-32.777,12.5-37.463S384.473,152.215,384.473,152.215Z" transform="translate(-303.092 -152.215)" fill="#110239"/>
          <path id="Trazado_103507" data-name="Trazado 103507" d="M318.321,159.79a3.221,3.221,0,1,1-3.221-3.216A3.219,3.219,0,0,1,318.321,159.79Z" transform="translate(-272.626 -137.101)" fill="#d0d1de"/>
        </g>
      </g>
      <g id="Grupo_57390" data-name="Grupo 57390" transform="translate(441.491 462.101)">
        <path id="Trazado_103508" data-name="Trazado 103508" d="M342.431,206.824l3.61,11.112h11.683l-9.451,6.866,3.61,11.11-9.451-6.867-9.452,6.867,3.611-11.11-9.451-6.866h11.682Z" transform="translate(-327.139 -206.824)" fill="#d0d1de"/>
        <path id="Trazado_103509" data-name="Trazado 103509" d="M351.774,206.824l3.61,11.112h11.682l-9.451,6.866,3.61,11.11-9.451-6.867-9.452,6.867,3.61-11.11-9.451-6.866h11.682Z" transform="translate(-294.746 -206.824)" fill="#d0d1de"/>
        <path id="Trazado_103510" data-name="Trazado 103510" d="M361.117,206.824l3.61,11.112h11.682l-9.451,6.866,3.609,11.11-9.45-6.867-9.452,6.867,3.611-11.11-9.452-6.866h11.683Z" transform="translate(-262.353 -206.824)" fill="#d0d1de"/>
        <path id="Trazado_103511" data-name="Trazado 103511" d="M370.459,206.824l3.609,11.112h11.682L376.3,224.8l3.61,11.11-9.451-6.867-9.452,6.867,3.611-11.11-9.452-6.866h11.683Z" transform="translate(-229.959 -206.824)" fill="#d0d1de"/>
        <path id="Trazado_103512" data-name="Trazado 103512" d="M379.8,206.824l3.61,11.112h11.683l-9.451,6.866,3.61,11.11-9.451-6.867-9.451,6.867,3.61-11.11-9.452-6.866h11.682Z" transform="translate(-197.566 -206.824)" fill="#d0d1de"/>
      </g>
    </g>
  </g>
</svg>
