<svg xmlns="http://www.w3.org/2000/svg" xmlns:xlink="http://www.w3.org/1999/xlink" width="120" height="120" viewBox="0 0 120 120">
  <defs>
    <clipPath id="clip-path">
      <rect id="Rectángulo_5419" data-name="Rectángulo 5419" width="120" height="120" transform="translate(1055 11573.42)" fill="#fff" stroke="#707070" stroke-width="1"/>
    </clipPath>
  </defs>
  <g id="Enmascarar_grupo_54" data-name="Enmascarar grupo 54" transform="translate(-1055 -11573.42)" clip-path="url(#clip-path)">
    <g id="losas" transform="translate(1055 11573.42)">
      <path id="Trazado_101041" data-name="Trazado 101041" d="M0,0H120V120H0Z" fill="#fed2a4"/>
      <path id="Trazado_101042" data-name="Trazado 101042" d="M60,0h60V120H60Zm0,0" fill="#ffbd86"/>
      <path id="Trazado_101043" data-name="Trazado 101043" d="M7.266,7.266H112.734V112.734H7.266Zm0,0" fill="#ff9f00"/>
      <path id="Trazado_101044" data-name="Trazado 101044" d="M60,7.266h52.734V112.734H60Zm0,0" fill="#ff7816"/>
      <path id="Trazado_101045" data-name="Trazado 101045" d="M116.484,35.391V28.359A25.04,25.04,0,0,1,91.641,3.516H84.609a32.579,32.579,0,0,0,3.164,13.8l-18.7,18.7L63.516,30.4V3.516H56.484V30.4L50.93,36.023l-18.7-18.7a32.579,32.579,0,0,0,3.164-13.8H28.359A24.838,24.838,0,0,1,3.75,28.359v7.031a31.549,31.549,0,0,0,13.57-3.164l18.7,18.7L30.4,56.484H3.75v7.031H30.4l5.625,5.554-18.7,18.7A31.536,31.536,0,0,0,3.75,84.609v7.031a24.838,24.838,0,0,1,24.609,24.844h7.031a32.579,32.579,0,0,0-3.164-13.8l18.7-18.7L56.484,89.6v26.883h7.031V89.6l5.554-5.625,18.7,18.7a32.579,32.579,0,0,0-3.164,13.8h7.031a25.04,25.04,0,0,1,24.844-24.844V84.609a32.579,32.579,0,0,0-13.8,3.164l-18.7-18.7L89.6,63.516h26.883V56.484H89.6L83.977,50.93l18.7-18.7a32.593,32.593,0,0,0,13.8,3.164ZM63.516,40.383l16.1,16.1H71.391l-7.875-7.875Zm-7.031,0v8.226l-7.875,7.875H40.383ZM23.367,28.359a27.95,27.95,0,0,0,4.992-4.992L45.937,40.945l-4.992,4.992Zm4.992,68.274a27.95,27.95,0,0,0-4.992-4.992L40.945,74.063l4.992,4.992ZM56.484,79.617l-16.1-16.1h8.226l7.875,7.875ZM60,64.992,55.008,60,60,55.008,64.992,60Zm3.516,14.625V71.391l7.875-7.875h8.226ZM96.633,91.641a27.95,27.95,0,0,0-4.992,4.992L74.063,79.055l4.992-4.992Zm-17.578-45.7-4.992-4.992L91.641,23.367a27.949,27.949,0,0,0,4.992,4.992Zm0,0" fill="#fed2a4"/>
      <path id="Trazado_101046" data-name="Trazado 101046" d="M116.484,35.391V28.359A25.04,25.04,0,0,1,91.641,3.516H84.609a32.579,32.579,0,0,0,3.164,13.8l-18.7,18.7L63.516,30.4V3.516H60V55.008L64.992,60,60,64.992v51.492h3.516V89.6l5.554-5.625,18.7,18.7a32.579,32.579,0,0,0-3.164,13.8h7.031a25.04,25.04,0,0,1,24.844-24.844V84.609a32.579,32.579,0,0,0-13.8,3.164l-18.7-18.7L89.6,63.516h26.883V56.484H89.6L83.977,50.93l18.7-18.7a32.593,32.593,0,0,0,13.8,3.164ZM63.516,48.609V40.383l16.1,16.1H71.391Zm0,31.008V71.391l7.875-7.875h8.226ZM96.633,91.641a27.95,27.95,0,0,0-4.992,4.992L74.063,79.055l4.992-4.992Zm-17.578-45.7-4.992-4.992L91.641,23.367a27.949,27.949,0,0,0,4.992,4.992Zm0,0" fill="#ffbd86"/>
    </g>
  </g>
</svg>
