<svg xmlns="http://www.w3.org/2000/svg" width="19.848" height="23.588" viewBox="0 0 19.848 23.588">
  <g id="Grupo_54382" data-name="Grupo 54382" transform="translate(-536.57 -1583)">
    <path id="Trazado_101070" data-name="Trazado 101070" d="M556.044,1593.076a.6.6,0,0,1,.374.561.7.7,0,0,1-.117.374l.023-.023a43.672,43.672,0,0,1-3.2,5.2,26.948,26.948,0,0,1-3.46,3.974,14.924,14.924,0,0,1-3.612,2.537,8.34,8.34,0,0,1-3.659.888,5.361,5.361,0,0,1-4.43-2.092,6.224,6.224,0,0,1-1.052-2.092,8.446,8.446,0,0,1-.339-2.361,10.625,10.625,0,0,1,.117-1.543,13.45,13.45,0,0,1,.3-1.5,35.616,35.616,0,0,1,1.309-3.682,24.412,24.412,0,0,1,1.66-3.25,20.691,20.691,0,0,1,2.116-2.875,23.486,23.486,0,0,1,2.677-2.583,5.824,5.824,0,0,1,.795-.561,7.624,7.624,0,0,1,1.04-.514,8.285,8.285,0,0,1,1.216-.386,5.633,5.633,0,0,1,1.3-.152,4.364,4.364,0,0,1,1.613.3,3.832,3.832,0,0,1,1.368.923,4.492,4.492,0,0,1,.947,1.543,6.081,6.081,0,0,1,.351,2.162,7.132,7.132,0,0,1-.468,2.513,5.36,5.36,0,0,1-1.543,2.186v-.023a.751.751,0,0,1-.374.21,2.025,2.025,0,0,1-.444.047,2.328,2.328,0,0,1-.736-.128,2.921,2.921,0,0,1-.7-.339,2.366,2.366,0,0,1-.526-.468.812.812,0,0,1-.21-.514.524.524,0,0,1,.081-.3,1.231,1.231,0,0,1,.22-.234,3.888,3.888,0,0,0,.88-.9,6.564,6.564,0,0,0,.671-1.181,7.194,7.194,0,0,0,.428-1.286,5.463,5.463,0,0,0,.151-1.216,2.851,2.851,0,0,0-.14-.923.534.534,0,0,0-.537-.409,2.019,2.019,0,0,0-.933.316,7.787,7.787,0,0,0-1.224.888,17.439,17.439,0,0,0-1.4,1.368,17.957,17.957,0,0,0-1.434,1.777,22.853,22.853,0,0,0-1.889,3.156,26.474,26.474,0,0,0-1.295,3.074,21.538,21.538,0,0,0-.746,2.665,10.251,10.251,0,0,0-.245,1.952,6.718,6.718,0,0,0,.222,1.788,4.316,4.316,0,0,0,.643,1.391,2.943,2.943,0,0,0,1.017.9,2.778,2.778,0,0,0,1.321.316,4.964,4.964,0,0,0,2.583-.865,14.764,14.764,0,0,0,2.829-2.373,29.724,29.724,0,0,0,2.852-3.542,42.634,42.634,0,0,0,2.653-4.372v.023a.69.69,0,0,1,.655-.421.392.392,0,0,1,.117.023c.047.016.1.031.164.047Z" fill="#fff"/>
  </g>
</svg>
