<?xml version="1.0" encoding="UTF-8" standalone="no"?><!DOCTYPE svg PUBLIC "-//W3C//DTD SVG 1.1//EN" "http://www.w3.org/Graphics/SVG/1.1/DTD/svg11.dtd"><svg width="100%" height="100%" viewBox="0 0 17 16" version="1.1" xmlns="http://www.w3.org/2000/svg" xmlns:xlink="http://www.w3.org/1999/xlink" xml:space="preserve" xmlns:serif="http://www.serif.com/" style="fill-rule:evenodd;clip-rule:evenodd;stroke-linejoin:round;stroke-miterlimit:2;"><rect id="Mesa-de-trabajo1" serif:id="Mesa de trabajo1" x="0" y="0" width="16.103" height="15.817" style="fill:none;"/><path id="Trazado_105238" d="M2.544,15.018l-0,-14.219l5.107,0c1.461,-0.095 2.917,0.256 4.175,1.006c0.948,0.66 1.49,1.766 1.431,2.92c0.019,0.665 -0.157,1.321 -0.508,1.885c-0.359,0.537 -0.884,0.942 -1.494,1.152c0.679,0.155 1.283,0.542 1.709,1.094c0.409,0.567 0.62,1.254 0.6,1.953c0.085,1.197 -0.408,2.365 -1.323,3.14c-1.155,0.781 -2.536,1.157 -3.926,1.069l-5.771,0Zm3.426,-6.045l-0,3.408l2.246,0c0.51,0.034 1.017,-0.117 1.426,-0.425c0.341,-0.302 0.526,-0.745 0.5,-1.2c0.01,-0.073 0.015,-0.147 0.015,-0.221c0,-0.865 -0.711,-1.576 -1.576,-1.576c-0.07,-0 -0.141,0.005 -0.211,0.014l-2.4,0Zm-0,-2.246l1.787,0c0.565,0.047 1.129,-0.097 1.603,-0.409c0.333,-0.3 0.51,-0.737 0.479,-1.185c0.046,-0.491 -0.147,-0.975 -0.518,-1.3c-0.5,-0.307 -1.085,-0.447 -1.67,-0.4l-1.681,0l-0,3.294Z" style="fill:#fff;fill-rule:nonzero;"/></svg>