<svg xmlns="http://www.w3.org/2000/svg" width="21.326" height="21.231" viewBox="0 0 21.326 21.231">
  <g id="Grupo_54383" data-name="Grupo 54383" transform="translate(-548.905 -1588.814)">
    <path id="Trazado_101071" data-name="Trazado 101071" d="M548.905,1588.814h.638a1.612,1.612,0,0,0,.72.965,4.409,4.409,0,0,0,2.119.38q.937,0,5.95-.19,3.029-.122,3.776-.122a8.669,8.669,0,0,1,3.837.774,6.206,6.206,0,0,1,2.574,2.377,10.8,10.8,0,0,1,1.318,4.415q.231,1.97.394,8.68a35.921,35.921,0,0,0-4.073,2.893,28.719,28.719,0,0,0-7.618-1.209,15.275,15.275,0,0,0-4.155.54,19.225,19.225,0,0,0-4.06,1.729l-.4-.523a39.9,39.9,0,0,0,4.9-2.949,9.605,9.605,0,0,0,2.783-2.7,6.081,6.081,0,0,0,.673-3.024q0-.666-.027-1.97-.027-.91-.027-1.889a11.983,11.983,0,0,1,.194-2.541,6.958,6.958,0,0,1,.824-1.875h-.351a6.987,6.987,0,0,0-2.2,1.732,3.383,3.383,0,0,0-.548,1.989l.109,4.821a5.582,5.582,0,0,1-1.156,3.456,24.916,24.916,0,0,1-5.548,4.407l-.4-.536a12.763,12.763,0,0,0,2.931-2.536,3.512,3.512,0,0,0,.709-2.075,2.283,2.283,0,0,0-.6-1.594,1.765,1.765,0,0,0-1.32-.658,1.222,1.222,0,0,0-.68.2,4.459,4.459,0,0,0-.844.842l-.441-.442a3.668,3.668,0,0,1,1.233-1.706,3.124,3.124,0,0,1,1.846-.542,3.89,3.89,0,0,1,.688.068,6.927,6.927,0,0,1,.811.2q-.027-.788-.027-1.372a6.315,6.315,0,0,1,.862-3.471,9.942,9.942,0,0,1,3.3-2.791,38.56,38.56,0,0,1-3.875.231,8.062,8.062,0,0,1-2.964-.489,2.581,2.581,0,0,1-1.36-1.216A5.714,5.714,0,0,1,548.905,1588.814Zm11,3.763a7.473,7.473,0,0,0-.788,1.724,7.194,7.194,0,0,0-.272,1.873l.109,5.348a4.858,4.858,0,0,1-.513,2.1,8.723,8.723,0,0,1-1.471,1.954,19.142,19.142,0,0,1,3.019-.3l.771.014v-12.714Zm1.548,5.216a6.2,6.2,0,0,0,1.45.8,4.022,4.022,0,0,0,1.341.217,3.973,3.973,0,0,0,1.348-.224,6.892,6.892,0,0,0,1.471-.795q-.259-3.056-1.58-4.136a6.289,6.289,0,0,0-4.031-1.08Zm0,4.483a7.917,7.917,0,0,1,1.576-.727,4.914,4.914,0,0,1,1.427-.2,5,5,0,0,1,1.386.183,7.558,7.558,0,0,1,1.535.686l-.222-3.681a7.049,7.049,0,0,1-1.5.727,4.622,4.622,0,0,1-1.381.2,4.571,4.571,0,0,1-1.429-.231,5.533,5.533,0,0,1-1.388-.693Zm0,3.056a26.8,26.8,0,0,1,2.7.333q1.039.2,3.253.822.027-2.051.027-2.119,0-.163-.027-1.3a6.766,6.766,0,0,0-1.528-.829,4.308,4.308,0,0,0-1.433-.231,4.471,4.471,0,0,0-1.46.231,6.405,6.405,0,0,0-1.528.829Z" fill="#fff"/>
  </g>
</svg>
