<svg xmlns="http://www.w3.org/2000/svg" width="148" height="148" viewBox="0 0 148 148">
  <g id="Grupo_58545" data-name="Grupo 58545" transform="translate(-726 -17286)">
    <g id="Elipse_4125" data-name="Elipse 4125" transform="translate(726 17286)" fill="#fff" stroke="#bfeffc" stroke-width="5">
      <circle cx="74" cy="74" r="74" stroke="none"/>
      <circle cx="74" cy="74" r="71.5" fill="none"/>
    </g>
    <path id="Trazado_105316" data-name="Trazado 105316" d="M43.7,0H3.52V-8.7L22.03-28.16q6.842-7.791,6.842-12.379A8.611,8.611,0,0,0,27.25-46.2a5.79,5.79,0,0,0-4.707-1.938A5.862,5.862,0,0,0,17.6-45.543a10.647,10.647,0,0,0-1.9,6.467H2.333a18.912,18.912,0,0,1,2.65-9.789,18.583,18.583,0,0,1,7.356-7.02A21.853,21.853,0,0,1,22.86-58.417q9.334,0,14.377,4.311T42.28-41.726A17.977,17.977,0,0,1,41.014-35.1a29.053,29.053,0,0,1-3.935,6.763,99.131,99.131,0,0,1-8.6,9.472l-7.436,8.583H43.7Z" transform="translate(777 17389)" fill="#12263f"/>
  </g>
</svg>
