<svg xmlns="http://www.w3.org/2000/svg" xmlns:xlink="http://www.w3.org/1999/xlink" width="105" height="105" viewBox="0 0 105 105">
  <defs>
    <clipPath id="clip-path">
      <rect id="Rectángulo_5497" data-name="Rectángulo 5497" width="105" height="105" transform="translate(233 14017)" fill="#01549e"/>
    </clipPath>
  </defs>
  <g id="Enmascarar_grupo_65" data-name="Enmascarar grupo 65" transform="translate(-233 -14017)" clip-path="url(#clip-path)">
    <g id="diseno-de-respuesta" transform="translate(233 14021.142)">
      <path id="Trazado_101395" data-name="Trazado 101395" d="M99.3,70.1H5.695a4.142,4.142,0,0,1-4.142-4.142V5.695A4.142,4.142,0,0,1,5.695,1.553H99.3a4.142,4.142,0,0,1,4.142,4.142V65.961A4.142,4.142,0,0,1,99.3,70.1Zm0,0" fill="#01549e"/>
      <path id="Trazado_101396" data-name="Trazado 101396" d="M99.3,1.553H95.991a4.142,4.142,0,0,1,4.142,4.142V65.961A4.142,4.142,0,0,1,95.991,70.1H99.3a4.142,4.142,0,0,0,4.142-4.142V5.695A4.142,4.142,0,0,0,99.3,1.553Zm0,0" fill="#f82a32"/>
      <path id="Trazado_101397" data-name="Trazado 101397" d="M96.819,8.181v55.3H8.181V8.181Zm0,0" fill="#bfeffc"/>
      <path id="Trazado_101398" data-name="Trazado 101398" d="M92.47,8.181h4.349v55.3H92.47Zm0,0" fill="#8ecae4"/>
      <path id="Trazado_101399" data-name="Trazado 101399" d="M67,86.879H38L40.073,70.1H64.926Zm0,0" fill="#9b9b9b"/>
      <path id="Trazado_101400" data-name="Trazado 101400" d="M62.251,75.235l1.438,11.644H67L64.926,70.1H40.073l-.409,3.313H60.2a2.071,2.071,0,0,1,2.056,1.818Zm0,0" fill="#828282"/>
      <path id="Trazado_101401" data-name="Trazado 101401" d="M71.139,95.163H33.861a2.071,2.071,0,0,1-2.072-2.071V88.949a2.072,2.072,0,0,1,2.072-2.071H71.139a2.07,2.07,0,0,1,2.071,2.071v4.142A2.07,2.07,0,0,1,71.139,95.163Zm0,0" fill="#e2e5ee"/>
      <path id="Trazado_101402" data-name="Trazado 101402" d="M68.654,86.879v8.284h2.485a2.07,2.07,0,0,0,2.071-2.071V88.949a2.07,2.07,0,0,0-2.071-2.071Zm0,0" fill="#ced3e2"/>
      <path id="Trazado_101403" data-name="Trazado 101403" d="M101.156,95.163H75.5a2.291,2.291,0,0,1-2.291-2.29V41.1a2.291,2.291,0,0,1,2.291-2.29h25.656a2.29,2.29,0,0,1,2.29,2.29v51.77A2.29,2.29,0,0,1,101.156,95.163Zm0,0" fill="#bfeffc"/>
      <path id="Trazado_101404" data-name="Trazado 101404" d="M101.156,38.813H97.72a2.291,2.291,0,0,1,2.291,2.291V92.872a2.29,2.29,0,0,1-2.291,2.29h3.437a2.29,2.29,0,0,0,2.29-2.29V41.1a2.29,2.29,0,0,0-2.29-2.29Zm0,0" fill="#8ecae4"/>
      <path id="Trazado_101405" data-name="Trazado 101405" d="M73.21,45.913V41.1A2.291,2.291,0,0,1,75.5,38.813h25.656a2.29,2.29,0,0,1,2.29,2.291v4.81Zm0,0" fill="#01549e"/>
      <path id="Trazado_101406" data-name="Trazado 101406" d="M100.011,45.913V41.1a2.29,2.29,0,0,0-2.29-2.291h3.436a2.29,2.29,0,0,1,2.29,2.291v4.81Zm0,0" fill="#828282"/>
      <path id="Trazado_101407" data-name="Trazado 101407" d="M73.21,88.062v4.811a2.291,2.291,0,0,0,2.291,2.29h25.656a2.29,2.29,0,0,0,2.29-2.29V88.062Zm0,0" fill="#9b9b9b"/>
      <path id="Trazado_101408" data-name="Trazado 101408" d="M100.011,88.062v4.811a2.29,2.29,0,0,1-2.29,2.29h3.436a2.29,2.29,0,0,0,2.29-2.29V88.062Zm0,0" fill="#828282"/>
      <path id="Trazado_101409" data-name="Trazado 101409" d="M16.465,14.394H49.6V39.245H16.465Zm0,0" fill="#ffea84"/>
      <path id="Trazado_101410" data-name="Trazado 101410" d="M79.216,51.879H97.441V65.547H79.216Zm0,0" fill="#ffea84"/>
      <path id="Trazado_101411" data-name="Trazado 101411" d="M46.209,14.394H49.6V39.245H46.209Zm0,0" fill="#ffe046"/>
      <path id="Trazado_101412" data-name="Trazado 101412" d="M94.049,51.879h3.392V65.547H94.049Zm0,0" fill="#ffe046"/>
      <path id="Trazado_101413" data-name="Trazado 101413" d="M99.3,0H5.695A5.7,5.7,0,0,0,0,5.695V65.961a5.7,5.7,0,0,0,5.695,5.695h7.553a1.553,1.553,0,1,0,0-3.106H5.695a2.591,2.591,0,0,1-2.588-2.589V5.695A2.591,2.591,0,0,1,5.695,3.107H99.3a2.591,2.591,0,0,1,2.588,2.588V37.332a3.851,3.851,0,0,0-.737-.073H98.373V8.181a1.553,1.553,0,0,0-1.553-1.553H82.62a1.553,1.553,0,1,0,0,3.107H95.266V37.259H75.5A3.849,3.849,0,0,0,71.656,41.1v20.82H9.734V9.734H75.372a1.553,1.553,0,0,0,0-3.107H8.181A1.553,1.553,0,0,0,6.627,8.181v55.3A1.553,1.553,0,0,0,8.181,65.03H71.657v3.521H20.541a1.553,1.553,0,0,0,0,3.107H38.317L36.63,85.326H33.861a3.629,3.629,0,0,0-3.625,3.625v4.142a3.628,3.628,0,0,0,3.625,3.624H71.139a3.6,3.6,0,0,0,2.145-.709,3.822,3.822,0,0,0,2.217.709h25.656A3.848,3.848,0,0,0,105,92.873V64.021a1.553,1.553,0,0,0-3.107,0V86.509H74.763V47.467h27.13V56.75a1.553,1.553,0,1,0,3.107,0V5.7A5.7,5.7,0,0,0,99.3,0ZM71.656,85.367a3.551,3.551,0,0,0-.518-.042H68.37L66.682,71.656h4.974ZM41.447,71.656H63.552L65.24,85.325H39.759ZM71.656,93.092a.518.518,0,0,1-.518.518H33.861a.518.518,0,0,1-.518-.518V88.949a.518.518,0,0,1,.518-.518H71.139a.518.518,0,0,1,.518.518v4.142Zm30.237-.219a.738.738,0,0,1-.737.737H75.5a.739.739,0,0,1-.738-.737V89.615h27.13ZM74.763,44.36V41.1a.738.738,0,0,1,.738-.737h25.656a.738.738,0,0,1,.737.737V44.36Zm0,0" fill="#12263f"/>
      <path id="Trazado_101414" data-name="Trazado 101414" d="M16.465,40.8H49.6a1.553,1.553,0,0,0,1.553-1.553V14.394A1.553,1.553,0,0,0,49.6,12.84H16.465a1.553,1.553,0,0,0-1.553,1.553V39.245A1.553,1.553,0,0,0,16.465,40.8Zm1.553-24.851h30.03V37.693H18.018Zm0,0" fill="#12263f"/>
      <path id="Trazado_101415" data-name="Trazado 101415" d="M67.722,48.358a1.553,1.553,0,0,0-1.553-1.553h-49.7a1.553,1.553,0,0,0,0,3.107h49.7A1.554,1.554,0,0,0,67.722,48.358Zm0,0" fill="#12263f"/>
      <path id="Trazado_101416" data-name="Trazado 101416" d="M16.465,54.675a1.553,1.553,0,0,0,0,3.107H43.388a1.553,1.553,0,1,0,0-3.107Zm0,0" fill="#12263f"/>
      <path id="Trazado_101417" data-name="Trazado 101417" d="M88.535,15.74H55.813a1.553,1.553,0,0,0,0,3.107H88.535a1.553,1.553,0,0,0,0-3.107Zm0,0" fill="#12263f"/>
      <path id="Trazado_101418" data-name="Trazado 101418" d="M89.674,28.27a1.553,1.553,0,0,0-1.553-1.553H55.813a1.553,1.553,0,0,0,0,3.107H88.121A1.553,1.553,0,0,0,89.674,28.27Zm0,0" fill="#12263f"/>
      <path id="Trazado_101419" data-name="Trazado 101419" d="M65.755,40.8a1.553,1.553,0,0,0,0-3.106H55.813a1.553,1.553,0,0,0,0,3.106Zm0,0" fill="#12263f"/>
      <path id="Trazado_101420" data-name="Trazado 101420" d="M98.994,51.879a1.553,1.553,0,0,0-1.553-1.553H79.216a1.553,1.553,0,0,0-1.553,1.553V65.547A1.553,1.553,0,0,0,79.216,67.1H97.441a1.553,1.553,0,0,0,1.553-1.553ZM95.888,63.994H80.77V53.433H95.888Zm0,0" fill="#12263f"/>
      <path id="Trazado_101421" data-name="Trazado 101421" d="M97.441,69.586H79.216a1.553,1.553,0,0,0,0,3.107H97.441a1.553,1.553,0,0,0,0-3.107Zm0,0" fill="#12263f"/>
      <path id="Trazado_101422" data-name="Trazado 101422" d="M98.994,77.145a1.553,1.553,0,0,0-1.553-1.553H79.216a1.553,1.553,0,1,0,0,3.106H97.441a1.553,1.553,0,0,0,1.553-1.552Zm0,0" fill="#12263f"/>
      <path id="Trazado_101423" data-name="Trazado 101423" d="M79.216,81.6a1.553,1.553,0,0,0,0,3.107h9.733a1.553,1.553,0,0,0,0-3.107Zm0,0" fill="#12263f"/>
    </g>
  </g>
</svg>
