<svg xmlns="http://www.w3.org/2000/svg" width="37.192" height="32.543" viewBox="0 0 37.192 32.543">
  <path id="Icon_awesome-quote-right" data-name="Icon awesome-quote-right" d="M33.706,0h-9.3a3.488,3.488,0,0,0-3.487,3.487v9.3a3.488,3.488,0,0,0,3.487,3.487h5.811v4.649A4.653,4.653,0,0,1,25.57,25.57h-.581a1.739,1.739,0,0,0-1.743,1.743V30.8a1.739,1.739,0,0,0,1.743,1.743h.581A11.619,11.619,0,0,0,37.192,20.921V3.487A3.488,3.488,0,0,0,33.706,0ZM12.785,0h-9.3A3.488,3.488,0,0,0,0,3.487v9.3a3.488,3.488,0,0,0,3.487,3.487H9.3v4.649A4.653,4.653,0,0,1,4.649,25.57H4.068a1.739,1.739,0,0,0-1.743,1.743V30.8a1.739,1.739,0,0,0,1.743,1.743h.581A11.619,11.619,0,0,0,16.272,20.921V3.487A3.488,3.488,0,0,0,12.785,0Z" transform="translate(37.192 32.543) rotate(180)" fill="#01549e"/>
</svg>
