<svg xmlns="http://www.w3.org/2000/svg" xmlns:xlink="http://www.w3.org/1999/xlink" width="105" height="105" viewBox="0 0 105 105">
  <defs>
    <clipPath id="clip-path">
      <rect id="Rectángulo_5496" data-name="Rectángulo 5496" width="105" height="105" transform="translate(233 13865)" fill="#01549e"/>
    </clipPath>
  </defs>
  <g id="Enmascarar_grupo_63" data-name="Enmascarar grupo 63" transform="translate(-233 -13865)" clip-path="url(#clip-path)">
    <g id="imagen-digital" transform="translate(233 13865)">
      <g id="Grupo_54986" data-name="Grupo 54986">
        <g id="Grupo_54967" data-name="Grupo 54967">
          <path id="Trazado_101356" data-name="Trazado 101356" d="M100.125,3.3H4.875A3.337,3.337,0,0,0,1.538,6.635v8.443l1.2.223h99.435l1.286-.223V6.635A3.337,3.337,0,0,0,100.125,3.3Z" fill="#01549e"/>
        </g>
        <g id="Grupo_54985" data-name="Grupo 54985">
          <g id="Grupo_54968" data-name="Grupo 54968">
            <path id="Trazado_101357" data-name="Trazado 101357" d="M17.92,3.3H4.875A3.337,3.337,0,0,0,1.538,6.636v8.443H17.92Z" fill="#01549e"/>
          </g>
          <path id="Trazado_101358" data-name="Trazado 101358" d="M1.538,15.079V75.084a2.225,2.225,0,0,0,2.225,2.225H6.591c-.032-.465-.049-.934-.049-1.408a20.359,20.359,0,1,1,40.718,0c0,.473-.017.942-.049,1.408h54.026a2.225,2.225,0,0,0,2.225-2.225V15.079Z" fill="#bfeffc"/>
          <path id="Trazado_101359" data-name="Trazado 101359" d="M6.542,75.9a20.261,20.261,0,0,1,3.3-11.116V15.079H1.538V75.084a2.225,2.225,0,0,0,2.225,2.225H6.591c-.032-.465-.049-.934-.049-1.407Z" fill="#8ecae4"/>
          <g id="Grupo_54974" data-name="Grupo 54974">
            <g id="Grupo_54970" data-name="Grupo 54970">
              <path id="Trazado_101360" data-name="Trazado 101360" d="M70.5,15.079H61.893v.205a17.57,17.57,0,0,1,3.554,10.627V29.2a11.955,11.955,0,0,1,9.116,11.611V56.877A22.283,22.283,0,0,1,65.447,74.87v2.439H84V33.582a19.515,19.515,0,0,0-13.5-18.5Z" fill="#f46700"/>
              <g id="Grupo_54969" data-name="Grupo 54969">
                <path id="Trazado_101361" data-name="Trazado 101361" d="M29.926,50.947A11.006,11.006,0,0,1,40.932,39.94h3.781a3.44,3.44,0,0,0,2.539-1.119l7.359-8.049A5.878,5.878,0,0,1,58.95,28.86h3.66a11.973,11.973,0,0,1,3.042.392V25.911a17.864,17.864,0,0,0-3.657-10.832H29.351a27.127,27.127,0,0,0-8.862,20.036V56.573a20.472,20.472,0,0,1,9.437-.808Z" fill="#fe7701"/>
              </g>
              <path id="Trazado_101362" data-name="Trazado 101362" d="M26.9,55.542q.268,0,.533.007V35.115A27.128,27.128,0,0,1,36.3,15.079H29.351a27.127,27.127,0,0,0-8.862,20.036V56.573A20.334,20.334,0,0,1,26.9,55.542Z" fill="#f46700"/>
            </g>
            <g id="Grupo_54971" data-name="Grupo 54971">
              <path id="Trazado_101363" data-name="Trazado 101363" d="M75.092,45.322h-.735V56.877a22.076,22.076,0,0,1-.706,5.54h1.441a8.547,8.547,0,1,0,0-17.095Z" fill="#fed2a4"/>
            </g>
            <g id="Grupo_54973" data-name="Grupo 54973">
              <path id="Trazado_101364" data-name="Trazado 101364" d="M62.609,28.86H58.95a5.878,5.878,0,0,0-4.338,1.912l-7.359,8.049a3.441,3.441,0,0,1-2.539,1.119H40.932A11.006,11.006,0,0,0,29.926,50.947v4.819A20.363,20.363,0,0,1,47.261,75.9c0,.473-.017.942-.049,1.408H61.235A22.322,22.322,0,0,0,74.562,56.877V40.813A11.953,11.953,0,0,0,62.609,28.86Z" fill="#ffe5c2"/>
              <g id="Grupo_54972" data-name="Grupo 54972">
                <path id="Trazado_101365" data-name="Trazado 101365" d="M36.491,57.938c-.023-.419-.038-.84-.038-1.265V50.581a11.31,11.31,0,0,1,7.476-10.64h-3A11.006,11.006,0,0,0,29.926,50.947v4.819a20.213,20.213,0,0,1,6.565,2.173Z" fill="#fed2a4"/>
              </g>
            </g>
          </g>
          <g id="Grupo_54975" data-name="Grupo 54975">
            <circle id="Elipse_4138" data-name="Elipse 4138" cx="20.359" cy="20.359" r="20.359" transform="translate(6.542 55.542)" fill="#01549e"/>
          </g>
          <g id="Grupo_54976" data-name="Grupo 54976">
            <path id="Trazado_101366" data-name="Trazado 101366" d="M26.9,90.7A14.8,14.8,0,1,1,41.7,75.9,14.814,14.814,0,0,1,26.9,90.7Z" fill="#ffe5c2"/>
          </g>
          <g id="Grupo_54977" data-name="Grupo 54977">
            <path id="Trazado_101367" data-name="Trazado 101367" d="M19.072,75.9A14.821,14.821,0,0,1,30.385,61.522a14.8,14.8,0,1,0,0,28.758A14.821,14.821,0,0,1,19.072,75.9Z" fill="#fed2a4"/>
          </g>
          <g id="Grupo_54980" data-name="Grupo 54980">
            <g id="Grupo_54978" data-name="Grupo 54978">
              <path id="Trazado_101368" data-name="Trazado 101368" d="M31.2,70.933V66.742a.667.667,0,0,0-.667-.667H25.613a.667.667,0,0,0-.667.667v4.921a.667.667,0,0,0,.667.667H29.8a.667.667,0,0,1,.667.667v4.191a.667.667,0,0,0,.667.667H36.06a.667.667,0,0,0,.667-.667V72.268a.667.667,0,0,0-.667-.667H31.869a.667.667,0,0,1-.668-.667Z" fill="#ffbd86"/>
            </g>
            <g id="Grupo_54979" data-name="Grupo 54979">
              <path id="Trazado_101369" data-name="Trazado 101369" d="M24.852,83.539H19.931a.667.667,0,0,1-.667-.667V77.95a.667.667,0,0,1,.667-.667h4.921a.667.667,0,0,1,.667.667v4.921A.667.667,0,0,1,24.852,83.539Z" fill="#ffbd86"/>
            </g>
          </g>
          <g id="Grupo_54982" data-name="Grupo 54982">
            <g id="Grupo_54981" data-name="Grupo 54981">
              <path id="Trazado_101370" data-name="Trazado 101370" d="M95.618,54.646c-3.917.979-5.235,2.3-6.214,6.214a.6.6,0,0,1-1.16,0c-.979-3.917-2.3-5.235-6.214-6.214a.6.6,0,0,1,0-1.16c3.917-.979,5.235-2.3,6.214-6.214a.6.6,0,0,1,1.16,0c.979,3.917,2.3,5.235,6.214,6.214A.6.6,0,0,1,95.618,54.646Z" fill="#fed55f"/>
            </g>
          </g>
          <g id="Grupo_54984" data-name="Grupo 54984">
            <g id="Grupo_54983" data-name="Grupo 54983">
              <path id="Trazado_101371" data-name="Trazado 101371" d="M26.817,29.482c-3.917.979-5.235,2.3-6.214,6.214a.6.6,0,0,1-1.16,0c-.979-3.917-2.3-5.235-6.214-6.214a.6.6,0,0,1,0-1.16c3.917-.979,5.235-2.3,6.214-6.214a.6.6,0,0,1,1.16,0c.979,3.917,2.3,5.235,6.214,6.214A.6.6,0,0,1,26.817,29.482Z" fill="#fed55f"/>
            </g>
          </g>
        </g>
      </g>
      <g id="Grupo_54991" data-name="Grupo 54991">
        <g id="Grupo_54987" data-name="Grupo 54987">
          <path id="Trazado_101372" data-name="Trazado 101372" d="M102.35,101.7H52.332a1.112,1.112,0,0,1-1.112-1.112v-15.7a1.112,1.112,0,0,1,1.112-1.112h50.018a1.112,1.112,0,0,1,1.112,1.112v15.7A1.112,1.112,0,0,1,102.35,101.7Z" fill="#eaf6ff"/>
        </g>
        <g id="Grupo_54988" data-name="Grupo 54988">
          <path id="Trazado_101373" data-name="Trazado 101373" d="M59.883,100.589v-15.7A1.112,1.112,0,0,1,61,83.775H52.332a1.112,1.112,0,0,0-1.112,1.112v15.7a1.112,1.112,0,0,0,1.112,1.112H61A1.112,1.112,0,0,1,59.883,100.589Z" fill="#d8ecfe"/>
        </g>
        <g id="Grupo_54989" data-name="Grupo 54989">
          <circle id="Elipse_4139" data-name="Elipse 4139" cx="3.201" cy="3.201" r="3.201" transform="translate(82.463 89.537)" fill="#01549e"/>
        </g>
        <g id="Grupo_54990" data-name="Grupo 54990">
          <path id="Trazado_101374" data-name="Trazado 101374" d="M85.518,92.738a3.2,3.2,0,0,1,1.674-2.814,3.2,3.2,0,1,0,0,5.627A3.2,3.2,0,0,1,85.518,92.738Z" fill="#f82730"/>
        </g>
      </g>
      <g id="Grupo_54992" data-name="Grupo 54992">
        <path id="Trazado_101375" data-name="Trazado 101375" d="M100.125,1.76H4.875A4.881,4.881,0,0,0,0,6.636V75.084a3.767,3.767,0,0,0,3.763,3.763H5.2a21.9,21.9,0,0,0,43.4,0h52.637A3.767,3.767,0,0,0,105,75.084V6.636a4.881,4.881,0,0,0-4.875-4.875ZM3.076,6.636a1.8,1.8,0,0,1,1.8-1.8H16.382v8.7H3.076ZM5.006,75.77H3.763a.687.687,0,0,1-.687-.687V16.617H25.748a28.911,28.911,0,0,0-3.587,5.376c-.022-.085-.044-.17-.066-.258a2.135,2.135,0,0,0-4.144,0c-.838,3.352-1.742,4.257-5.095,5.095a2.135,2.135,0,0,0,0,4.144c3.353.838,4.257,1.743,5.095,5.1a2.136,2.136,0,0,0,1,1.331V55.5A21.933,21.933,0,0,0,5.006,75.77ZM22.027,36.285a2.168,2.168,0,0,0,.068-.216c.838-3.352,1.743-4.257,5.095-5.1a2.135,2.135,0,0,0,0-4.144,7.9,7.9,0,0,1-3.245-1.381,25.823,25.823,0,0,1,6.014-8.831H61.211a16.227,16.227,0,0,1,2.9,9.294v1.5a13.548,13.548,0,0,0-1.5-.086H58.95a7.433,7.433,0,0,0-5.473,2.412l-7.36,8.049a1.906,1.906,0,0,1-1.4.619H40.932A12.559,12.559,0,0,0,28.387,50.947v3.108C27.9,54.022,27.4,54,26.9,54a21.889,21.889,0,0,0-4.875.548V36.285Zm-2-3.662A7.141,7.141,0,0,0,16.3,28.9a7.141,7.141,0,0,0,3.721-3.721A7.141,7.141,0,0,0,23.744,28.9,7.139,7.139,0,0,0,20.022,32.623Zm6.879,62.1A18.821,18.821,0,1,1,45.722,75.9,18.842,18.842,0,0,1,26.9,94.722ZM48.8,75.77A21.934,21.934,0,0,0,31.464,54.483V50.947a9.479,9.479,0,0,1,9.468-9.468h3.781a4.989,4.989,0,0,0,3.674-1.619l7.359-8.049a4.35,4.35,0,0,1,3.2-1.411h3.66A10.426,10.426,0,0,1,73.024,40.813V56.877A20.8,20.8,0,0,1,60.906,75.77Zm33.664,0H66.8a23.9,23.9,0,0,0,8.221-11.815h.07a10.053,10.053,0,0,0,7.369-3.21Zm-.8-19.632.061.016a7.022,7.022,0,0,1-5.95,4.688,23.835,23.835,0,0,0,.333-3.965v-9.94a7.025,7.025,0,0,1,5.732,5.011l-.176.045a2.135,2.135,0,0,0,0,4.144Zm.8-9.144A10.065,10.065,0,0,0,76.1,43.836V40.813a13.513,13.513,0,0,0-8.91-12.689V25.911a19.252,19.252,0,0,0-2.372-9.294H70.25a18.179,18.179,0,0,1,8.692,6.344,17.7,17.7,0,0,1,3.519,10.621ZM101.924,13.54H93.516a1.538,1.538,0,1,0,0,3.076h8.408V75.084a.687.687,0,0,1-.687.687h-15.7V58.2a8.639,8.639,0,0,1,1.214,3.034,2.135,2.135,0,0,0,4.144,0c.838-3.352,1.743-4.257,5.095-5.095a2.135,2.135,0,0,0,0-4.145c-3.352-.838-4.257-1.743-5.095-5.095a2.135,2.135,0,0,0-4.144,0,8.637,8.637,0,0,1-1.214,3.034V33.582a20.755,20.755,0,0,0-4.125-12.455,21.2,21.2,0,0,0-4.57-4.51h9.5a1.538,1.538,0,1,0,0-3.076H19.459v-8.7h80.666a1.8,1.8,0,0,1,1.8,1.8ZM85.1,54.066a7.141,7.141,0,0,0,3.721-3.721,7.141,7.141,0,0,0,3.721,3.721,7.141,7.141,0,0,0-3.721,3.721A7.139,7.139,0,0,0,85.1,54.066Z" fill="#12263f"/>
        <path id="Trazado_101376" data-name="Trazado 101376" d="M53.558,61.2a1.538,1.538,0,0,0-.515-2.113l-3.12-1.9,3.7-7.383a1.538,1.538,0,1,0-2.751-1.377l-4.33,8.649a1.538,1.538,0,0,0,.576,2l4.33,2.634a1.537,1.537,0,0,0,2.114-.515Z" fill="#12263f"/>
        <path id="Trazado_101377" data-name="Trazado 101377" d="M41.639,46.837A1.538,1.538,0,0,0,40.1,48.375v5.382a1.538,1.538,0,0,0,3.076,0V48.375a1.538,1.538,0,0,0-1.538-1.538Z" fill="#12263f"/>
        <path id="Trazado_101378" data-name="Trazado 101378" d="M62.849,46.837a1.538,1.538,0,0,0-1.538,1.538v5.382a1.538,1.538,0,0,0,3.076,0V48.375a1.538,1.538,0,0,0-1.538-1.538Z" fill="#12263f"/>
        <path id="Trazado_101379" data-name="Trazado 101379" d="M68.21,43.945a1.538,1.538,0,0,0,0-2.175,7.55,7.55,0,0,0-10.681,0A1.538,1.538,0,0,0,59.7,43.945a4.474,4.474,0,0,1,6.331,0,1.538,1.538,0,0,0,2.175,0Z" fill="#12263f"/>
        <path id="Trazado_101380" data-name="Trazado 101380" d="M62.849,60.449a1.538,1.538,0,0,0-1.538,1.538,7.334,7.334,0,0,1-7.326,7.326,1.538,1.538,0,0,0,0,3.076,10.414,10.414,0,0,0,10.4-10.4A1.538,1.538,0,0,0,62.849,60.449Z" fill="#12263f"/>
        <path id="Trazado_101381" data-name="Trazado 101381" d="M26.9,59.566A16.335,16.335,0,1,0,42.728,79.952a1.538,1.538,0,1,0-2.98-.763,13.265,13.265,0,1,1,.033-6.431,1.538,1.538,0,0,0,2.988-.73A16.3,16.3,0,0,0,26.9,59.566Z" fill="#12263f"/>
        <path id="Trazado_101382" data-name="Trazado 101382" d="M31.139,79.395H36.06a2.208,2.208,0,0,0,2.205-2.206V72.268a2.208,2.208,0,0,0-2.205-2.205H32.74v-3.32a2.208,2.208,0,0,0-2.206-2.205H25.613a2.208,2.208,0,0,0-2.206,2.205v4.921a2.208,2.208,0,0,0,2.206,2.205h3.32v3.32A2.208,2.208,0,0,0,31.139,79.395Zm.871-6.256h3.18v3.18H32.01Zm-5.526-2.346v-3.18h3.18v3.18Z" fill="#12263f"/>
        <path id="Trazado_101383" data-name="Trazado 101383" d="M19.931,75.745a2.208,2.208,0,0,0-2.206,2.205v4.921a2.208,2.208,0,0,0,2.206,2.206h4.921a2.208,2.208,0,0,0,2.205-2.206V77.95a2.208,2.208,0,0,0-2.205-2.205ZM23.981,82H20.8v-3.18h3.18Z" fill="#12263f"/>
        <path id="Trazado_101384" data-name="Trazado 101384" d="M91.969,36.044H90.184a1.538,1.538,0,0,0,0,3.076h1.785V40.9a1.538,1.538,0,0,0,3.076,0V39.12H96.83a1.538,1.538,0,0,0,0-3.076H95.045V34.259a1.538,1.538,0,1,0-3.076,0Z" fill="#12263f"/>
        <path id="Trazado_101385" data-name="Trazado 101385" d="M12.1,45.9V44.117h1.785a1.538,1.538,0,0,0,0-3.076H12.1V39.256a1.538,1.538,0,0,0-3.076,0v1.785H7.24a1.538,1.538,0,0,0,0,3.076H9.024V45.9a1.538,1.538,0,1,0,3.076,0Z" fill="#12263f"/>
        <path id="Trazado_101386" data-name="Trazado 101386" d="M102.35,82.237H52.332a2.654,2.654,0,0,0-2.651,2.65v15.7a2.654,2.654,0,0,0,2.651,2.65H63.574a1.538,1.538,0,0,0,0-3.076H52.758V85.313h49.166v14.85H70.752a1.538,1.538,0,0,0,0,3.076h31.6a2.654,2.654,0,0,0,2.65-2.65v-15.7a2.654,2.654,0,0,0-2.65-2.65Z" fill="#12263f"/>
        <path id="Trazado_101387" data-name="Trazado 101387" d="M85.664,97.478a4.746,4.746,0,0,0,4.482-3.2h7.683a1.538,1.538,0,0,0,0-3.076H90.145a4.738,4.738,0,0,0-8.963,0H56.854a1.538,1.538,0,0,0,0,3.076H81.182A4.747,4.747,0,0,0,85.664,97.478Zm0-6.4A1.663,1.663,0,1,1,84,92.738,1.665,1.665,0,0,1,85.664,91.075Z" fill="#12263f"/>
      </g>
    </g>
  </g>
</svg>
