<svg xmlns="http://www.w3.org/2000/svg" width="148" height="148" viewBox="0 0 148 148">
  <g id="Grupo_58546" data-name="Grupo 58546" transform="translate(-1146 -17286)">
    <g id="Elipse_4126" data-name="Elipse 4126" transform="translate(1146 17286)" fill="#fff" stroke="#fed55f" stroke-width="5">
      <circle cx="74" cy="74" r="74" stroke="none"/>
      <circle cx="74" cy="74" r="71.5" fill="none"/>
    </g>
    <path id="Trazado_105317" data-name="Trazado 105317" d="M15.7-34.37H21.99q7.475,0,7.475-7.317a6.327,6.327,0,0,0-1.78-4.647,6.749,6.749,0,0,0-5.023-1.8,7.225,7.225,0,0,0-4.608,1.542A4.706,4.706,0,0,0,16.1-42.754H2.769A13.644,13.644,0,0,1,5.3-50.862a16.716,16.716,0,0,1,7.02-5.557,24,24,0,0,1,9.868-2q9.611,0,15.108,4.39t5.5,12.063a12.164,12.164,0,0,1-2.274,7.02A16.209,16.209,0,0,1,33.9-29.584a15.482,15.482,0,0,1,7.2,5.043,13.28,13.28,0,0,1,2.61,8.365,14.859,14.859,0,0,1-5.933,12.34Q31.838.791,22.188.791a25.538,25.538,0,0,1-10.5-2.156A16.452,16.452,0,0,1,4.351-7.337a15.527,15.527,0,0,1-2.492-8.681H15.267A6,6,0,0,0,17.4-11.43a7.54,7.54,0,0,0,5.26,1.938,7.9,7.9,0,0,0,5.616-1.958,6.543,6.543,0,0,0,2.1-5q0-4.351-2.175-6.17a9.093,9.093,0,0,0-6.012-1.819H15.7Z" transform="translate(1197 17389)" fill="#12263f"/>
  </g>
</svg>
