<svg xmlns="http://www.w3.org/2000/svg" width="148" height="148" viewBox="0 0 148 148">
  <g id="Grupo_58549" data-name="Grupo 58549" transform="translate(-520 -63)">
    <g id="Elipse_4234" data-name="Elipse 4234" transform="translate(520 63)" fill="#fed55f" stroke="#fed55f" stroke-width="5">
      <circle cx="74" cy="74" r="74" stroke="none"/>
      <circle cx="74" cy="74" r="71.5" fill="none"/>
    </g>
    <g id="web" transform="translate(552 102)">
      <path id="Trazado_101326" data-name="Trazado 101326" d="M88.5,104.27v45.073a5.763,5.763,0,0,1-5.621,5.9H12.62A5.763,5.763,0,0,1,7,149.342V104.27Zm-36.4,41.8v-25.53H41.8v-8.831H25.616v13.263H19.929v5.307H16.6v15.792Zm0,0" transform="translate(-5.749 -85.634)" fill="#00efd1"/>
      <path id="Trazado_101327" data-name="Trazado 101327" d="M88.5,12.447V24.015H7V12.447a5.763,5.763,0,0,1,5.621-5.9H82.877a5.763,5.763,0,0,1,5.621,5.9ZM43.533,15.4a3.751,3.751,0,1,0-7.494,0,3.751,3.751,0,1,0,7.494,0Zm-12.176,0a3.752,3.752,0,1,0-7.5,0,3.752,3.752,0,1,0,7.5,0Zm-12.178,0a3.844,3.844,0,0,0-3.748-3.932A3.842,3.842,0,0,0,11.684,15.4a3.84,3.84,0,0,0,3.746,3.931A3.843,3.843,0,0,0,19.178,15.4Zm0,0" transform="translate(-5.749 -5.38)" fill="#00acea"/>
      <path id="Trazado_101328" data-name="Trazado 101328" d="M212.008,195.281v25.53h-10.3v-25.53Zm0,0" transform="translate(-165.66 -160.38)" fill="#fedb41"/>
      <path id="Trazado_101329" data-name="Trazado 101329" d="M173.228,34.039a3.936,3.936,0,1,1-3.748,3.932A3.842,3.842,0,0,1,173.228,34.039Zm0,0" transform="translate(-139.19 -27.956)" fill="#00efd1"/>
      <path id="Trazado_101330" data-name="Trazado 101330" d="M111.16,159.134V145.871h16.184v34.361H111.16Zm0,0" transform="translate(-91.293 -119.8)" fill="#00acea"/>
      <path id="Trazado_101331" data-name="Trazado 101331" d="M105.088,34.039a3.936,3.936,0,1,1-3.748,3.932A3.844,3.844,0,0,1,105.088,34.039Zm0,0" transform="translate(-83.228 -27.956)" fill="#00efd1"/>
      <path id="Trazado_101332" data-name="Trazado 101332" d="M69.711,220.078v21.1h-9.02V225.385h3.333v-5.307Zm0,0" transform="translate(-49.844 -180.745)" fill="#fedb41"/>
      <path id="Trazado_101333" data-name="Trazado 101333" d="M36.957,34.039a3.936,3.936,0,1,1-3.746,3.932A3.844,3.844,0,0,1,36.957,34.039Zm0,0" transform="translate(-27.276 -27.956)" fill="#00efd1"/>
      <g id="Grupo_54966" data-name="Grupo 54966" transform="translate(0 0)">
        <path id="Trazado_101334" data-name="Trazado 101334" d="M77.128,0H6.872A6.951,6.951,0,0,0,0,7.067V63.708a6.951,6.951,0,0,0,6.872,7.067H77.128A6.951,6.951,0,0,0,84,63.708V7.067A6.951,6.951,0,0,0,77.128,0ZM6.872,2.5H77.128A4.448,4.448,0,0,1,81.5,7.067v10.27H2.5V7.067A4.448,4.448,0,0,1,6.872,2.5Zm70.257,65.77H6.872A4.448,4.448,0,0,1,2.5,63.708V19.838h79v43.87a4.448,4.448,0,0,1-4.37,4.564Zm0,0" transform="translate(0 0)" fill="#12263f"/>
        <path id="Trazado_101335" data-name="Trazado 101335" d="M99.339,37.4a5.186,5.186,0,1,0-5-5.182A5.1,5.1,0,0,0,99.339,37.4Zm0-7.862a2.687,2.687,0,1,1-2.5,2.681A2.6,2.6,0,0,1,99.339,29.541Zm0,0" transform="translate(-77.479 -22.207)" fill="#12263f"/>
        <path id="Trazado_101336" data-name="Trazado 101336" d="M167.479,37.4a5.186,5.186,0,1,0-5-5.182A5.1,5.1,0,0,0,167.479,37.4Zm0-7.862a2.687,2.687,0,1,1-2.5,2.681A2.6,2.6,0,0,1,167.479,29.541Zm0,0" transform="translate(-133.441 -22.207)" fill="#12263f"/>
        <path id="Trazado_101337" data-name="Trazado 101337" d="M31.208,37.4a5.186,5.186,0,1,0-5-5.182A5.1,5.1,0,0,0,31.208,37.4Zm0-7.862a2.687,2.687,0,1,1-2.5,2.681A2.6,2.6,0,0,1,31.208,29.541Zm0,0" transform="translate(-21.526 -22.207)" fill="#12263f"/>
        <path id="Trazado_101338" data-name="Trazado 101338" d="M90.693,147.756H81.7v-7.529A1.277,1.277,0,0,0,80.4,139H64.212a1.256,1.256,0,0,0-1.28,1.228v12H58.525a1.316,1.316,0,0,0-1.312,1.265v4.1H55.192A1.171,1.171,0,0,0,54,158.8v15.792a1.185,1.185,0,0,0,1.2,1.228h35.5a1.182,1.182,0,0,0,1.192-1.228v-25.53a1.246,1.246,0,0,0-1.192-1.3ZM79.2,141.5v31.813H65.435V153.623c0-.044.007-.088.007-.133s-.007-.089-.007-.131V141.5ZM56.5,160.088h2.027a1.236,1.236,0,0,0,1.19-1.292v-4.069h3.217v18.587H56.5Zm32.885,13.226H81.7V150.258h7.685Zm0,0" transform="translate(-44.345 -114.156)" fill="#12263f"/>
        <path id="Trazado_101339" data-name="Trazado 101339" d="M220.329,261.5h1.364a1.251,1.251,0,1,0,0-2.5h-1.364a1.251,1.251,0,0,0,0,2.5Zm0,0" transform="translate(-179.924 -212.711)" fill="#12263f"/>
        <path id="Trazado_101340" data-name="Trazado 101340" d="M220.329,283.5h1.364a1.251,1.251,0,1,0,0-2.5h-1.364a1.251,1.251,0,0,0,0,2.5Zm0,0" transform="translate(-179.924 -230.779)" fill="#12263f"/>
        <path id="Trazado_101341" data-name="Trazado 101341" d="M221.693,302h-1.364a1.251,1.251,0,1,0,0,2.5h1.364a1.251,1.251,0,1,0,0-2.5Zm0,0" transform="translate(-179.924 -248.025)" fill="#12263f"/>
        <path id="Trazado_101342" data-name="Trazado 101342" d="M168.251,217.348A1.251,1.251,0,0,0,169.5,216.1V213.65a1.251,1.251,0,0,0-2.5,0V216.1A1.251,1.251,0,0,0,168.251,217.348Zm0,0" transform="translate(-137.153 -174.438)" fill="#12263f"/>
        <path id="Trazado_101343" data-name="Trazado 101343" d="M132.251,217.348A1.251,1.251,0,0,0,133.5,216.1V213.65a1.251,1.251,0,0,0-2.5,0V216.1A1.251,1.251,0,0,0,132.251,217.348Zm0,0" transform="translate(-107.587 -174.438)" fill="#12263f"/>
        <path id="Trazado_101344" data-name="Trazado 101344" d="M220.329,219.5h1.364a1.251,1.251,0,0,0,0-2.5h-1.364a1.251,1.251,0,0,0,0,2.5Zm0,0" transform="translate(-179.924 -178.217)" fill="#12263f"/>
        <path id="Trazado_101345" data-name="Trazado 101345" d="M220.329,240.5h1.364a1.251,1.251,0,0,0,0-2.5h-1.364a1.251,1.251,0,0,0,0,2.5Zm0,0" transform="translate(-179.924 -195.464)" fill="#12263f"/>
        <path id="Trazado_101346" data-name="Trazado 101346" d="M168.251,181.168a1.251,1.251,0,0,0,1.251-1.251V177.47a1.251,1.251,0,0,0-2.5,0v2.447A1.251,1.251,0,0,0,168.251,181.168Zm0,0" transform="translate(-137.153 -144.724)" fill="#12263f"/>
        <path id="Trazado_101347" data-name="Trazado 101347" d="M132.251,181.168a1.251,1.251,0,0,0,1.251-1.251V177.47a1.251,1.251,0,0,0-2.5,0v2.447A1.251,1.251,0,0,0,132.251,181.168Zm0,0" transform="translate(-107.587 -144.724)" fill="#12263f"/>
        <path id="Trazado_101348" data-name="Trazado 101348" d="M168.251,253.528a1.251,1.251,0,0,0,1.251-1.251V249.83a1.251,1.251,0,1,0-2.5,0v2.447A1.251,1.251,0,0,0,168.251,253.528Zm0,0" transform="translate(-137.153 -204.152)" fill="#12263f"/>
        <path id="Trazado_101349" data-name="Trazado 101349" d="M132.251,253.528a1.251,1.251,0,0,0,1.251-1.251V249.83a1.251,1.251,0,1,0-2.5,0v2.447A1.251,1.251,0,0,0,132.251,253.528Zm0,0" transform="translate(-107.587 -204.152)" fill="#12263f"/>
        <path id="Trazado_101350" data-name="Trazado 101350" d="M168.251,289.71a1.251,1.251,0,0,0,1.251-1.251v-2.446a1.251,1.251,0,0,0-2.5,0v2.446A1.251,1.251,0,0,0,168.251,289.71Zm0,0" transform="translate(-137.153 -233.868)" fill="#12263f"/>
        <path id="Trazado_101351" data-name="Trazado 101351" d="M132.251,289.71a1.251,1.251,0,0,0,1.251-1.251v-2.446a1.251,1.251,0,0,0-2.5,0v2.446A1.251,1.251,0,0,0,132.251,289.71Zm0,0" transform="translate(-107.587 -233.868)" fill="#12263f"/>
        <path id="Trazado_101352" data-name="Trazado 101352" d="M294.251,216.5h9.472a1.251,1.251,0,1,0,0-2.5h-9.472a1.251,1.251,0,1,0,0,2.5Zm0,0" transform="translate(-240.634 -175.753)" fill="#12263f"/>
        <path id="Trazado_101353" data-name="Trazado 101353" d="M315.553,252h-19.3a1.251,1.251,0,1,0,0,2.5h19.3a1.251,1.251,0,0,0,0-2.5Zm0,0" transform="translate(-242.276 -206.962)" fill="#12263f"/>
        <path id="Trazado_101354" data-name="Trazado 101354" d="M315.553,291h-19.3a1.251,1.251,0,1,0,0,2.5h19.3a1.251,1.251,0,1,0,0-2.5Zm0,0" transform="translate(-242.276 -238.991)" fill="#12263f"/>
        <path id="Trazado_101355" data-name="Trazado 101355" d="M315.553,329h-19.3a1.251,1.251,0,1,0,0,2.5h19.3a1.251,1.251,0,1,0,0-2.5Zm0,0" transform="translate(-242.276 -270.2)" fill="#12263f"/>
      </g>
    </g>
  </g>
</svg>
