<svg xmlns="http://www.w3.org/2000/svg" width="150.298" height="143.541" viewBox="0 0 150.298 143.541">
  <g id="Grupo_55320" data-name="Grupo 55320" transform="translate(25.917 25.918)">
    <circle id="Elipse_4150" data-name="Elipse 4150" cx="71.771" cy="71.771" r="71.771" transform="translate(-25.917 -25.917)" fill="#01549e"/>
    <g id="graphics" transform="translate(-25.916 -19.137)">
      <g id="Grupo_55319" data-name="Grupo 55319">
        <g id="Grupo_55291" data-name="Grupo 55291" transform="translate(10.345 3.69)">
          <g id="Grupo_55290" data-name="Grupo 55290">
            <path id="Trazado_101763" data-name="Trazado 101763" d="M221.9,170.084a8.317,8.317,0,0,1-7.357-4.387H168.3a8.357,8.357,0,0,1-14.561.258.455.455,0,0,1,.392-.685h6.854v-7.1h-6.854a.454.454,0,0,1-.392-.685,8.357,8.357,0,0,1,14.645.415h46.07a8.356,8.356,0,0,1,14.644-.415.455.455,0,0,1-.392.685h-6.853v7.1h6.853a.455.455,0,0,1,.392.685A8.4,8.4,0,0,1,221.9,170.084Z" transform="translate(-153.223 -152.902)" fill="#98afbe"/>
            <path id="Trazado_101764" data-name="Trazado 101764" d="M220.351,152.266a7.9,7.9,0,0,1,6.812,3.905h-7.308v8.008h7.308a7.9,7.9,0,0,1-13.893-.482H166.481a7.9,7.9,0,0,1-13.894.482H159.9v-8.008h-7.308a7.9,7.9,0,0,1,13.97.639h46.635a7.907,7.907,0,0,1,7.158-4.544m0-.909a8.861,8.861,0,0,0-7.713,4.544H167.113a8.811,8.811,0,0,0-15.309-.192.909.909,0,0,0,.783,1.371h6.4v6.189h-6.4a.909.909,0,0,0-.783,1.37,8.855,8.855,0,0,0,7.6,4.352,8.767,8.767,0,0,0,7.624-4.387h45.7a8.766,8.766,0,0,0,7.624,4.387,8.855,8.855,0,0,0,7.595-4.352.909.909,0,0,0-.783-1.371h-6.4v-6.189h6.4a.909.909,0,0,0,.783-1.37,8.856,8.856,0,0,0-7.595-4.353Z" transform="translate(-151.678 -151.357)" fill="#284356"/>
          </g>
        </g>
        <g id="Grupo_55292" data-name="Grupo 55292" transform="translate(77.501 106.862)">
          <path id="Trazado_101765" data-name="Trazado 101765" d="M456.5,622.254a4.7,4.7,0,0,1-4.7-4.7v-.36a4.887,4.887,0,0,1,0-8.691v-.114a1.091,1.091,0,0,1,2.1-.425l.137,0h14.421a4.917,4.917,0,0,1,3.451,1.429,2.515,2.515,0,0,0,1.766.732h4a1.464,1.464,0,0,1,1.394.994h35.543a.454.454,0,0,1,.372.193,2.038,2.038,0,0,0,1.379.543h.061a.455.455,0,0,1,.455.455V613.6a.454.454,0,0,1-.418.453l-.06,0-.036,0a2.043,2.043,0,0,0-1.431.595.455.455,0,0,1-.321.133.472.472,0,0,1-.053,0H479.009a1.471,1.471,0,0,1-1.331.842h-4.025a2.489,2.489,0,0,0-1.749.725,4.866,4.866,0,0,1-3.417,1.415l-14.5-.025a2.376,2.376,0,0,0,2.373,2.33h8.944a1.091,1.091,0,0,1,0,2.182Z" transform="translate(-448.702 -606.846)" fill="#ff7550"/>
          <path id="Trazado_101766" data-name="Trazado 101766" d="M451.354,606.21a.636.636,0,0,1,.635.637v.058a4.476,4.476,0,0,1,.506-.031h14.421a4.436,4.436,0,0,1,3.129,1.3,2.959,2.959,0,0,0,2.088.865h4a1.02,1.02,0,0,1,1.018.994H513.07v.011a2.481,2.481,0,0,0,1.751.725h.061v1.292l-.061,0a2.488,2.488,0,0,0-1.752.728v0H477.136a1.02,1.02,0,0,1-1,.842h-4.025a2.934,2.934,0,0,0-2.07.858,4.384,4.384,0,0,1-3.1,1.282h-.012l-14.434-.024a4.461,4.461,0,0,1-.506-.032v.443a2.828,2.828,0,0,0,2.828,2.828h8.944a.636.636,0,0,1,0,1.273h-8.8a4.242,4.242,0,0,1-4.242-4.242v-.647a4.432,4.432,0,0,1,0-8.118v-.4a.637.637,0,0,1,.637-.637m0-.909a1.548,1.548,0,0,0-1.538,1.386,5.341,5.341,0,0,0-.008,9.234v.092a5.157,5.157,0,0,0,5.151,5.151h8.8a1.546,1.546,0,0,0,0-3.091h-8.944a1.923,1.923,0,0,1-1.853-1.42l13.964.023h.014a5.324,5.324,0,0,0,3.738-1.548,2.031,2.031,0,0,1,1.428-.592h4.025a1.925,1.925,0,0,0,1.593-.842H513.01l.06,0a.906.906,0,0,0,.641-.265,1.586,1.586,0,0,1,1.111-.462c.024,0,.048,0,.072,0l.06,0a.909.909,0,0,0,.836-.906v-1.292a.909.909,0,0,0-.909-.909h-.061a1.58,1.58,0,0,1-1.065-.417.9.9,0,0,0-.686-.319H477.822a1.917,1.917,0,0,0-1.689-.994h-4a2.058,2.058,0,0,1-1.445-.6,5.375,5.375,0,0,0-3.772-1.562H452.622a1.543,1.543,0,0,0-1.268-.664Z" transform="translate(-447.157 -605.301)" fill="#284356"/>
        </g>
        <g id="Grupo_55295" data-name="Grupo 55295" transform="translate(4.618 51.481)">
          <g id="Grupo_55293" data-name="Grupo 55293" transform="translate(0.455 0.455)">
            <path id="Trazado_101767" data-name="Trazado 101767" d="M140.585,385.04a.814.814,0,0,1-.793-.647l-.27-1.31-.2,0a8.949,8.949,0,0,1-1.486-.124l-.429,1.293a.81.81,0,0,1-1.025.514l-1.189-.394a.81.81,0,0,1-.514-1.024l.437-1.319a8.836,8.836,0,0,1-1.384-.924l-1.047.931a.81.81,0,0,1-1.145-.067l-.832-.936a.812.812,0,0,1,.067-1.144l1.047-.931a8.844,8.844,0,0,1-.756-1.483l-1.361.281a.811.811,0,0,1-.957-.631L128.5,375.9a.811.811,0,0,1,.63-.958l1.334-.275a8.911,8.911,0,0,1,.075-1.686l-1.27-.421a.812.812,0,0,1-.514-1.025l.394-1.189a.81.81,0,0,1,1.024-.514l1.219.4a8.789,8.789,0,0,1,.924-1.464l-.83-.933a.812.812,0,0,1,.067-1.145l.935-.833a.811.811,0,0,1,1.144.067l.79.888a8.837,8.837,0,0,1,1.576-.83l-.233-1.129a.811.811,0,0,1,.63-.958l1.227-.253a.81.81,0,0,1,.957.631l.223,1.079c.169-.01.346-.015.522-.015a8.908,8.908,0,0,1,1.3.1l.338-1.021a.81.81,0,0,1,1.025-.514l1.189.394a.81.81,0,0,1,.514,1.025l-.328.991a8.82,8.82,0,0,1,1.549,1.009l.773-.688a.81.81,0,0,1,1.145.067l.832.936a.811.811,0,0,1-.067,1.145l-.772.688a8.84,8.84,0,0,1,.821,1.656l1.022-.211a.81.81,0,0,1,.958.63l.253,1.227a.811.811,0,0,1-.63.958l-1.053.217a8.941,8.941,0,0,1-.133,1.818l1.047.347a.81.81,0,0,1,.514,1.025l-.394,1.188a.81.81,0,0,1-.769.556h0a.814.814,0,0,1-.255-.041l-1.094-.363a8.853,8.853,0,0,1-1.009,1.468l.79.889a.811.811,0,0,1-.067,1.144l-.935.832a.81.81,0,0,1-1.144-.067l-.831-.934a8.836,8.836,0,0,1-1.562.747l.259,1.258a.811.811,0,0,1-.631.957l-1.227.253A.812.812,0,0,1,140.585,385.04Zm-1.393-15.725a5.078,5.078,0,0,0-.788.062,5.02,5.02,0,0,0,.773,9.979,5.066,5.066,0,0,0,.789-.062,5.02,5.02,0,0,0-.774-9.979Z" transform="translate(-128.48 -363.63)" fill="#ffc747"/>
          </g>
          <g id="Grupo_55294" data-name="Grupo 55294">
            <path id="Trazado_101768" data-name="Trazado 101768" d="M136.239,362.539a.356.356,0,0,1,.348.284l.268,1.3a.2.2,0,0,0,.2.158h.018q.352-.029.7-.029a8.443,8.443,0,0,1,1.435.123.2.2,0,0,0,.035,0,.205.205,0,0,0,.195-.14l.405-1.222a.356.356,0,0,1,.45-.225l1.189.394a.356.356,0,0,1,.226.45l-.4,1.2a.2.2,0,0,0,.108.245,8.353,8.353,0,0,1,1.812,1.18.212.212,0,0,0,.137.051.2.2,0,0,0,.133-.05l.935-.832a.356.356,0,0,1,.5.03l.832.936a.356.356,0,0,1-.029.5l-.935.832a.209.209,0,0,0-.027.273,8.365,8.365,0,0,1,.959,1.938.2.2,0,0,0,.229.13l1.239-.256a.35.35,0,0,1,.072-.008.356.356,0,0,1,.348.285l.253,1.227a.356.356,0,0,1-.277.421l-1.261.26a.205.205,0,0,0-.163.212,8.467,8.467,0,0,1-.157,2.135.2.2,0,0,0,.131.234l1.259.418a.356.356,0,0,1,.226.45l-.394,1.189a.356.356,0,0,1-.45.226l-1.293-.429a.206.206,0,0,0-.248.1,8.383,8.383,0,0,1-1.194,1.734.2.2,0,0,0,0,.264l.941,1.058a.356.356,0,0,1-.029.5l-.936.832a.356.356,0,0,1-.5-.029l-.97-1.09a.207.207,0,0,0-.154-.069.213.213,0,0,0-.113.032,8.36,8.36,0,0,1-1.845.882.2.2,0,0,0-.141.231l.3,1.478a.356.356,0,0,1-.277.42l-1.227.253a.356.356,0,0,1-.42-.277l-.312-1.515a.2.2,0,0,0-.2-.165h-.009q-.2.009-.394.009a8.482,8.482,0,0,1-1.611-.154.218.218,0,0,0-.042,0,.2.2,0,0,0-.2.136l-.5,1.5a.356.356,0,0,1-.338.244.352.352,0,0,1-.112-.018l-1.189-.394a.356.356,0,0,1-.226-.45l.5-1.521a.2.2,0,0,0-.093-.242,8.351,8.351,0,0,1-1.655-1.1.221.221,0,0,0-.143-.053.2.2,0,0,0-.131.049l-1.209,1.076a.356.356,0,0,1-.5-.029l-.832-.936a.356.356,0,0,1,.029-.5l1.209-1.075a.2.2,0,0,0,.036-.26,8.343,8.343,0,0,1-.905-1.771.209.209,0,0,0-.195-.138.2.2,0,0,0-.04,0l-1.569.324a.356.356,0,0,1-.42-.277l-.253-1.227a.356.356,0,0,1,.277-.421l1.551-.319a.2.2,0,0,0,.16-.207,8.44,8.44,0,0,1,.086-2.007.213.213,0,0,0-.137-.239l-1.468-.487a.356.356,0,0,1-.226-.45l.394-1.189a.356.356,0,0,1,.338-.244.352.352,0,0,1,.112.018l1.432.475a.2.2,0,0,0,.063.01.2.2,0,0,0,.177-.112,8.352,8.352,0,0,1,1.1-1.745.2.2,0,0,0-.008-.266l-.969-1.089a.356.356,0,0,1,.029-.5l.936-.833a.356.356,0,0,1,.5.03l.94,1.057a.2.2,0,0,0,.147.065.206.206,0,0,0,.119-.038,8.387,8.387,0,0,1,1.845-.976.215.215,0,0,0,.142-.239l-.275-1.334a.356.356,0,0,1,.277-.421l1.227-.253a.358.358,0,0,1,.072-.007m1.393,15.725a5.532,5.532,0,0,0,.86-.067,5.468,5.468,0,1,0-.86.067m-1.393-16.634a1.257,1.257,0,0,0-.256.026l-1.227.253a1.265,1.265,0,0,0-.984,1.495l.158.765a9.342,9.342,0,0,0-.973.512l-.534-.6a1.265,1.265,0,0,0-1.786-.1l-.936.833a1.267,1.267,0,0,0-.1,1.786l.585.657a9.207,9.207,0,0,0-.56.886l-.853-.283a1.264,1.264,0,0,0-1.6.8l-.394,1.188a1.265,1.265,0,0,0,.8,1.6l.918.3a9.309,9.309,0,0,0-.045,1l-.96.2a1.267,1.267,0,0,0-.983,1.495l.253,1.227a1.266,1.266,0,0,0,1.493.984l1-.205a9.266,9.266,0,0,0,.446.874l-.764.679a1.267,1.267,0,0,0-.1,1.786l.832.935a1.264,1.264,0,0,0,1.786.105l.765-.68a9.343,9.343,0,0,0,.815.545l-.319.965a1.265,1.265,0,0,0,.8,1.6l1.188.394a1.264,1.264,0,0,0,1.6-.8l.309-.932a9.459,9.459,0,0,0,1,.072l.2.946a1.265,1.265,0,0,0,1.495.984l1.227-.252a1.265,1.265,0,0,0,.984-1.5l-.181-.881a9.2,9.2,0,0,0,.945-.453l.585.657a1.265,1.265,0,0,0,1.786.1l.935-.832a1.265,1.265,0,0,0,.1-1.786l-.534-.6a9.285,9.285,0,0,0,.622-.906l.742.246a1.264,1.264,0,0,0,1.6-.8l.394-1.19a1.265,1.265,0,0,0-.8-1.6l-.681-.226a9.386,9.386,0,0,0,.083-1.138l.687-.142a1.267,1.267,0,0,0,.983-1.495l-.253-1.227a1.265,1.265,0,0,0-1.495-.984l-.648.134a9.273,9.273,0,0,0-.519-1.045l.491-.436a1.265,1.265,0,0,0,.1-1.786l-.832-.936a1.265,1.265,0,0,0-1.786-.1l-.49.436a9.285,9.285,0,0,0-.978-.637l.208-.628a1.265,1.265,0,0,0-.8-1.6l-1.188-.394a1.264,1.264,0,0,0-1.6.8l-.221.665a9.406,9.406,0,0,0-.985-.052h-.155l-.145-.7a1.269,1.269,0,0,0-1.238-1.01h0Zm1.393,15.725a4.565,4.565,0,0,1-.7-9.075,4.616,4.616,0,0,1,.718-.056,4.565,4.565,0,0,1,.7,9.075,4.631,4.631,0,0,1-.718.057Z" transform="translate(-126.48 -361.63)" fill="#284356"/>
          </g>
        </g>
        <g id="Grupo_55296" data-name="Grupo 55296" transform="translate(106.105 1.912)">
          <path id="Trazado_101769" data-name="Trazado 101769" d="M594.705,192.348a1.674,1.674,0,0,1-.671-.138c-7.688-3.318-17.282-13.04-19.013-29.518a1.7,1.7,0,0,1,1.494-1.867,6.841,6.841,0,0,0,6.049-6.8,6.761,6.761,0,0,0-.8-3.22,1.7,1.7,0,0,1-.125-1.306,1.725,1.725,0,0,1,.846-1.007,26.844,26.844,0,0,1,12.228-2.962,27.142,27.142,0,0,1,12.242,2.916,1.7,1.7,0,0,1,.724,2.326,6.846,6.846,0,0,0,5.232,10.05,1.707,1.707,0,0,1,1.5,1.864c-1.708,16.514-11.311,26.223-19.015,29.519A1.759,1.759,0,0,1,594.705,192.348Z" transform="translate(-574.557 -145.079)" fill="#98afbe"/>
          <path id="Trazado_101770" data-name="Trazado 101770" d="M593.163,144.443a26.677,26.677,0,0,1,12.036,2.866,1.246,1.246,0,0,1,.531,1.7,7.3,7.3,0,0,0,5.579,10.719,1.247,1.247,0,0,1,1.1,1.365c-1.688,16.319-11.15,25.9-18.742,29.148a1.293,1.293,0,0,1-.5.1,1.229,1.229,0,0,1-.49-.1c-7.576-3.269-17.031-12.866-18.742-29.149a1.244,1.244,0,0,1,1.094-1.368,7.294,7.294,0,0,0,6.451-7.248,7.211,7.211,0,0,0-.858-3.434,1.243,1.243,0,0,1,.528-1.694,26.394,26.394,0,0,1,12.02-2.911m0-.909h0a27.3,27.3,0,0,0-12.436,3.012,2.178,2.178,0,0,0-1.07,1.27,2.154,2.154,0,0,0,.155,1.659,6.31,6.31,0,0,1,.752,3.007,6.386,6.386,0,0,1-5.647,6.345,2.16,2.16,0,0,0-1.893,2.367c1.751,16.673,11.484,26.521,19.286,29.888a2.124,2.124,0,0,0,.85.175,2.212,2.212,0,0,0,.86-.176c7.82-3.345,17.562-13.18,19.29-29.891a2.163,2.163,0,0,0-1.9-2.362,6.392,6.392,0,0,1-4.884-9.383,2.154,2.154,0,0,0-.917-2.946,27.6,27.6,0,0,0-12.448-2.966Z" transform="translate(-573.012 -143.534)" fill="#284356"/>
        </g>
        <g id="Grupo_55299" data-name="Grupo 55299" transform="translate(131.274 60.663)">
          <g id="Grupo_55297" data-name="Grupo 55297" transform="translate(0 11.753)">
            <path id="Trazado_101771" data-name="Trazado 101771" d="M691.2,488.129a5.459,5.459,0,0,1-5.453-5.453V464.171a.881.881,0,0,1,.88-.881h.4v-1.6h.391v-5.956h7.706v5.956h.416v1.6h.237a.881.881,0,0,1,.88.881v18.505A5.459,5.459,0,0,1,691.2,488.129Z" transform="translate(-685.296 -455.284)" fill="#fff"/>
            <path id="Trazado_101772" data-name="Trazado 101772" d="M693.124,454.648V460.6h.416v1.6h.691a.426.426,0,0,1,.426.426v18.505a5,5,0,0,1-10,0V462.625a.426.426,0,0,1,.425-.426h.851v-1.6h.391v-5.956h6.8m.909-.909h-8.615v5.956h-.391v1.6a1.336,1.336,0,0,0-1.276,1.334v18.505a5.908,5.908,0,0,0,11.816,0V462.625a1.338,1.338,0,0,0-1.117-1.317v-1.613h-.416v-5.956Z" transform="translate(-683.751 -453.739)" fill="#284356"/>
          </g>
          <g id="Grupo_55298" data-name="Grupo 55298" transform="translate(0.018)">
            <path id="Trazado_101773" data-name="Trazado 101773" d="M686.711,415.041a.881.881,0,0,1-.88-.88v-4.679a5.453,5.453,0,1,1,10.906,0v4.679a.881.881,0,0,1-.88.88Z" transform="translate(-685.376 -403.573)" fill="#ff7550"/>
            <path id="Trazado_101774" data-name="Trazado 101774" d="M689.739,402.937a5,5,0,0,1,5,5v4.679a.425.425,0,0,1-.425.426h-9.146a.426.426,0,0,1-.425-.426v-4.679a5,5,0,0,1,5-5m0-.909a5.914,5.914,0,0,0-5.908,5.908v4.679a1.336,1.336,0,0,0,1.334,1.335h9.146a1.336,1.336,0,0,0,1.334-1.335v-4.679a5.914,5.914,0,0,0-5.907-5.908Z" transform="translate(-683.831 -402.028)" fill="#284356"/>
          </g>
        </g>
        <g id="Grupo_55302" data-name="Grupo 55302" transform="translate(107.014 2.821)">
          <g id="Grupo_55301" data-name="Grupo 55301">
            <g id="Grupo_55300" data-name="Grupo 55300">
              <path id="Trazado_101775" data-name="Trazado 101775" d="M596.25,193.439a1.229,1.229,0,0,1-.49-.1c-7.576-3.269-17.031-12.866-18.742-29.149a1.244,1.244,0,0,1,1.094-1.368,7.294,7.294,0,0,0,6.451-7.248,7.211,7.211,0,0,0-.858-3.434,1.243,1.243,0,0,1,.528-1.694,26.393,26.393,0,0,1,12.02-2.911A26.677,26.677,0,0,1,608.29,150.4a1.245,1.245,0,0,1,.531,1.7,7.3,7.3,0,0,0,5.579,10.719,1.247,1.247,0,0,1,1.1,1.365c-1.688,16.319-11.15,25.9-18.742,29.148A1.292,1.292,0,0,1,596.25,193.439Zm-16.619-28.367c1.858,14.17,9.931,22.638,16.624,25.757,6.738-3.13,14.8-11.58,16.629-25.754a9.795,9.795,0,0,1-6.8-12.966,24.662,24.662,0,0,0-9.822-2.085,23.884,23.884,0,0,0-9.827,2.124,9.785,9.785,0,0,1-6.8,12.924Z" transform="translate(-577.012 -147.534)" fill="#ffc747"/>
            </g>
          </g>
        </g>
        <g id="Grupo_55305" data-name="Grupo 55305" transform="translate(33.898 27.998)">
          <g id="Grupo_55303" data-name="Grupo 55303">
            <path id="Trazado_101776" data-name="Trazado 101776" d="M346.034,329.4a2.181,2.181,0,0,1-2.182,2.181H259.489a2.181,2.181,0,0,1-2.181-2.181V262.489a2.181,2.181,0,0,1,2.181-2.182h84.363a2.182,2.182,0,0,1,2.182,2.182Z" transform="translate(-256.853 -259.852)" fill="#c1d7e3"/>
            <path id="Trazado_101777" data-name="Trazado 101777" d="M342.306,330.487H257.943a2.638,2.638,0,0,1-2.635-2.635V260.944a2.639,2.639,0,0,1,2.635-2.637h84.363a2.64,2.64,0,0,1,2.637,2.637v66.908A2.639,2.639,0,0,1,342.306,330.487Zm-84.363-71.271a1.729,1.729,0,0,0-1.726,1.728v66.908a1.728,1.728,0,0,0,1.726,1.726h84.363a1.729,1.729,0,0,0,1.728-1.726V260.944a1.73,1.73,0,0,0-1.728-1.728Z" transform="translate(-255.308 -258.307)" fill="#284356"/>
          </g>
          <g id="Grupo_55304" data-name="Grupo 55304" transform="translate(2.796 9.634)">
            <rect id="Rectángulo_5575" data-name="Rectángulo 5575" width="83.134" height="59.183" transform="translate(0.455 0.455)" fill="#fff"/>
            <path id="Trazado_101778" data-name="Trazado 101778" d="M351.2,360.788H268.065a.455.455,0,0,1-.455-.455V301.151a.455.455,0,0,1,.455-.455H351.2a.455.455,0,0,1,.454.455v59.183A.455.455,0,0,1,351.2,360.788Zm-82.679-.909h82.225V301.605H268.519Z" transform="translate(-267.61 -300.696)" fill="#284356"/>
          </g>
          <rect id="Rectángulo_5576" data-name="Rectángulo 5576" width="20.863" height="2.726" transform="translate(8.124 13.637)" fill="#ff7550"/>
          <rect id="Rectángulo_5577" data-name="Rectángulo 5577" width="38.046" height="2.727" transform="translate(23.532 34.516)" fill="#ff7550"/>
          <rect id="Rectángulo_5578" data-name="Rectángulo 5578" width="9.818" height="2.727" transform="translate(64.305 34.516)" fill="#ff7550"/>
          <rect id="Rectángulo_5579" data-name="Rectángulo 5579" width="10.432" height="2.728" transform="translate(8.305 18)" fill="#98afbe"/>
          <rect id="Rectángulo_5580" data-name="Rectángulo 5580" width="10.432" height="2.728" transform="translate(13.033 23.029)" fill="#98afbe"/>
          <rect id="Rectángulo_5581" data-name="Rectángulo 5581" width="10.432" height="2.727" transform="translate(18.043 28.86)" fill="#98afbe"/>
          <rect id="Rectángulo_5582" data-name="Rectángulo 5582" width="10.432" height="2.727" transform="translate(18.043 40.756)" fill="#98afbe"/>
          <rect id="Rectángulo_5583" data-name="Rectángulo 5583" width="10.431" height="2.727" transform="translate(32.84 28.86)" fill="#fff"/>
          <rect id="Rectángulo_5584" data-name="Rectángulo 5584" width="10.431" height="2.727" transform="translate(64.509 28.86)" fill="#fff"/>
          <rect id="Rectángulo_5585" data-name="Rectángulo 5585" width="5.932" height="2.727" transform="translate(24.794 59.247)" fill="#fff"/>
          <rect id="Rectángulo_5586" data-name="Rectángulo 5586" width="10.432" height="2.727" transform="translate(8.305 53.28)" fill="#98afbe"/>
          <rect id="Rectángulo_5587" data-name="Rectángulo 5587" width="7.431" height="2.727" transform="translate(13.544 59.247)" fill="#98afbe"/>
          <rect id="Rectángulo_5588" data-name="Rectángulo 5588" width="20.795" height="2.728" transform="translate(21.76 18)" fill="#ffc747"/>
          <rect id="Rectángulo_5589" data-name="Rectángulo 5589" width="14.523" height="2.727" transform="translate(46.714 28.86)" fill="#ffc747"/>
          <rect id="Rectángulo_5590" data-name="Rectángulo 5590" width="8.251" height="2.727" transform="translate(34.544 59.247)" fill="#ffc747"/>
          <rect id="Rectángulo_5591" data-name="Rectángulo 5591" width="57.988" height="2.727" transform="translate(23.089 46.723)" fill="#ffc747"/>
          <path id="Trazado_101779" data-name="Trazado 101779" d="M283.618,275.652a1.773,1.773,0,1,1-1.773-1.773A1.773,1.773,0,0,1,283.618,275.652Z" transform="translate(-274.444 -270.34)" fill="#ff7550"/>
          <circle id="Elipse_4151" data-name="Elipse 4151" cx="1.773" cy="1.773" r="1.773" transform="translate(10.537 3.539)" fill="#98afbe"/>
          <path id="Trazado_101780" data-name="Trazado 101780" d="M326.815,275.652a1.773,1.773,0,1,1-1.773-1.773A1.773,1.773,0,0,1,326.815,275.652Z" transform="translate(-307.824 -270.34)" fill="#fff"/>
        </g>
        <g id="Grupo_55306" data-name="Grupo 55306" transform="translate(132.183 75.822)">
          <rect id="Rectángulo_5592" data-name="Rectángulo 5592" width="1.775" height="1.071" transform="translate(2.069 0)" fill="#2d3e50"/>
          <rect id="Rectángulo_5593" data-name="Rectángulo 5593" width="1.775" height="1.071" transform="translate(6.271 0)" fill="#2d3e50"/>
          <rect id="Rectángulo_5594" data-name="Rectángulo 5594" width="8.085" height="2.545" transform="translate(1.036 3.382)" fill="#284356"/>
          <path id="Trazado_101781" data-name="Trazado 101781" d="M692.75,514.893a5,5,0,0,1-5-5V491.389a.426.426,0,0,1,.425-.426h9.146a.426.426,0,0,1,.426.426v18.505A5,5,0,0,1,692.75,514.893Z" transform="translate(-687.751 -485.91)" fill="#ff7550"/>
        </g>
        <g id="Grupo_55308" data-name="Grupo 55308" transform="translate(80.986 107.772)">
          <rect id="Rectángulo_5595" data-name="Rectángulo 5595" width="38.703" height="2.757" transform="translate(23.649 3.818)" fill="#fff"/>
          <path id="Trazado_101782" data-name="Trazado 101782" d="M722.96,628.844a1.372,1.372,0,1,1,0-2.744h2.092v2.744Z" transform="translate(-662.701 -622.282)" fill="#d1d3d4"/>
          <path id="Trazado_101783" data-name="Trazado 101783" d="M736.826,628.895a2.488,2.488,0,0,1,1.752-.727l.06,0v-1.292h-.06a2.484,2.484,0,0,1-1.752-.726h0v2.75Z" transform="translate(-674.475 -622.317)" fill="#d1d3d4"/>
          <path id="Trazado_101784" data-name="Trazado 101784" d="M474.915,616.769a.874.874,0,0,1,0-1.748h10.819a.874.874,0,1,1,0,1.748Z" transform="translate(-471.416 -613.721)" fill="#de6646"/>
          <path id="Trazado_101785" data-name="Trazado 101785" d="M475.029,629.9a.874.874,0,1,1,0-1.748h10.818a.874.874,0,1,1,0,1.748Z" transform="translate(-471.504 -623.869)" fill="#de6646"/>
          <path id="Trazado_101786" data-name="Trazado 101786" d="M475.184,642.579a.874.874,0,1,1,0-1.748H486a.874.874,0,1,1,0,1.748Z" transform="translate(-471.624 -633.665)" fill="#de6646"/>
          <path id="Trazado_101787" data-name="Trazado 101787" d="M552.2,620.406v-2.55a1.021,1.021,0,0,0-1.021-1.022h-4a2.958,2.958,0,0,1-2.087-.865,4.359,4.359,0,0,0-.718-.574v7.458a4.364,4.364,0,0,0,.709-.569,2.934,2.934,0,0,1,2.07-.858h4.025A1.021,1.021,0,0,0,552.2,620.406Z" transform="translate(-525.765 -614.01)" fill="#de6646"/>
          <g id="Grupo_55307" data-name="Grupo 55307" transform="translate(0)">
            <path id="Trazado_101788" data-name="Trazado 101788" d="M466.733,623.345a4.242,4.242,0,0,1-4.242-4.242v-9.166a.636.636,0,1,1,1.272,0v9.307a2.828,2.828,0,0,0,2.828,2.828h8.944a.636.636,0,0,1,0,1.273Z" transform="translate(-462.491 -609.301)" fill="#fff"/>
          </g>
        </g>
        <g id="Grupo_55309" data-name="Grupo 55309" transform="translate(113.383 41.029)">
          <rect id="Rectángulo_5596" data-name="Rectángulo 5596" width="36.006" height="11.876" rx="1" transform="translate(0.455 0.454)" fill="#fff"/>
          <path id="Trazado_101789" data-name="Trazado 101789" d="M639.7,328.427H607.28a2.252,2.252,0,0,1-2.249-2.249v-8.288a2.251,2.251,0,0,1,2.249-2.249H639.7a2.251,2.251,0,0,1,2.249,2.249v8.288A2.251,2.251,0,0,1,639.7,328.427ZM607.28,316.551a1.341,1.341,0,0,0-1.34,1.34v8.288a1.341,1.341,0,0,0,1.34,1.34H639.7a1.341,1.341,0,0,0,1.339-1.34v-8.288a1.341,1.341,0,0,0-1.339-1.34Z" transform="translate(-605.031 -315.642)" fill="#284356"/>
        </g>
        <g id="Grupo_55310" data-name="Grupo 55310" transform="translate(39.593)">
          <rect id="Rectángulo_5597" data-name="Rectángulo 5597" width="23.671" height="11.876" rx="2" transform="translate(0.455 0.455)" fill="#fff"/>
          <path id="Trazado_101790" data-name="Trazado 101790" d="M302.7,147.906H282.615a2.251,2.251,0,0,1-2.249-2.249V137.37a2.252,2.252,0,0,1,2.249-2.249H302.7a2.252,2.252,0,0,1,2.249,2.249v8.287A2.251,2.251,0,0,1,302.7,147.906ZM282.615,136.03a1.341,1.341,0,0,0-1.34,1.34v8.287a1.341,1.341,0,0,0,1.34,1.34H302.7a1.341,1.341,0,0,0,1.34-1.34V137.37a1.341,1.341,0,0,0-1.34-1.34Z" transform="translate(-280.366 -135.121)" fill="#284356"/>
        </g>
        <g id="Grupo_55313" data-name="Grupo 55313" transform="translate(17.674 33.878)">
          <g id="Grupo_55311" data-name="Grupo 55311">
            <rect id="Rectángulo_5598" data-name="Rectángulo 5598" width="20.489" height="11.876" rx="1" transform="translate(0.455 0.455)" fill="#fff"/>
            <path id="Trazado_101791" data-name="Trazado 101791" d="M203.074,296.965h-16.9a2.251,2.251,0,0,1-2.249-2.249v-8.287a2.251,2.251,0,0,1,2.249-2.249h16.9a2.251,2.251,0,0,1,2.249,2.249v8.287A2.251,2.251,0,0,1,203.074,296.965Zm-16.9-11.876a1.341,1.341,0,0,0-1.34,1.34v8.287a1.341,1.341,0,0,0,1.34,1.34h16.9a1.341,1.341,0,0,0,1.34-1.34v-8.287a1.341,1.341,0,0,0-1.34-1.34Z" transform="translate(-183.925 -284.18)" fill="#284356"/>
          </g>
          <g id="Grupo_55312" data-name="Grupo 55312" transform="translate(2.556 2.422)">
            <path id="Trazado_101792" data-name="Trazado 101792" d="M242.248,298.967l-6.791,3.774a.191.191,0,0,1-.2.016.2.2,0,0,1-.084-.184v-7.527a.2.2,0,0,1,.084-.184.194.194,0,0,1,.2.015l6.791,3.774a.165.165,0,0,1,0,.317Z" transform="translate(-226.08 -294.838)" fill="#98afbe"/>
            <path id="Trazado_101793" data-name="Trazado 101793" d="M195.171,298.809a.189.189,0,0,1,.118-.158l6.791-3.774a.194.194,0,0,1,.2-.015.2.2,0,0,1,.084.184v7.527a.2.2,0,0,1-.084.184.191.191,0,0,1-.2-.016l-6.791-3.774A.188.188,0,0,1,195.171,298.809Z" transform="translate(-195.171 -294.838)" fill="#98afbe"/>
          </g>
        </g>
        <g id="Grupo_55314" data-name="Grupo 55314" transform="translate(0 78.352)">
          <path id="Trazado_101794" data-name="Trazado 101794" d="M111.519,519.138a.644.644,0,0,0-.194.89l1.948,3.035a.644.644,0,0,0,.89.194l3.7-2.375a.369.369,0,0,1,.48.076,20.819,20.819,0,0,0,3.8,3.5.382.382,0,0,1,.131.482l-2,3.871a.644.644,0,0,0,.277.868l3.2,1.654a.644.644,0,0,0,.868-.277l1.976-3.829a.364.364,0,0,1,.45-.172,21.077,21.077,0,0,0,5.126,1.194.364.364,0,0,1,.319.351l.2,4.214a.644.644,0,0,0,.674.613l3.6-.169a.644.644,0,0,0,.613-.674l-.195-4.118a.361.361,0,0,1,.305-.371,20.813,20.813,0,0,0,5.135-1.526.372.372,0,0,1,.463.14l2.159,3.363a.644.644,0,0,0,.89.194l3.034-1.948a.644.644,0,0,0,.194-.89l-2.1-3.273a.37.37,0,0,1,.094-.485,20.836,20.836,0,0,0,3.759-3.968.368.368,0,0,1,.468-.106l3.339,1.723a.645.645,0,0,0,.868-.277l1.653-3.2a.644.644,0,0,0-.277-.868l-3.26-1.682a.372.372,0,0,1-.163-.467,21.1,21.1,0,0,0,1.264-5.415.372.372,0,0,1,.35-.337l3.568-.168a.644.644,0,0,0,.613-.674l-.17-3.6a.645.645,0,0,0-.674-.613l-3.512.166a.373.373,0,0,1-.376-.32,20.777,20.777,0,0,0-1.681-5.357.372.372,0,0,1,.127-.474l2.931-1.882a.645.645,0,0,0,.194-.89l-1.948-3.035a.644.644,0,0,0-.89-.194l-2.931,1.882a.354.354,0,0,1-.464-.058,20.791,20.791,0,0,0-4.2-3.792.364.364,0,0,1-.121-.466l1.613-3.123a.644.644,0,0,0-.277-.868l-3.206-1.655a.644.644,0,0,0-.868.277l-1.638,3.174a.383.383,0,0,1-.47.172,21.063,21.063,0,0,0-5.451-1.1.361.361,0,0,1-.338-.341l-.173-3.664a.644.644,0,0,0-.674-.613l-3.6.169a.644.644,0,0,0-.613.674l.177,3.752a.379.379,0,0,1-.309.385,20.857,20.857,0,0,0-5.172,1.771.36.36,0,0,1-.463-.124l-2.1-3.272a.644.644,0,0,0-.89-.194l-3.034,1.947a.645.645,0,0,0-.194.89l2.159,3.364a.383.383,0,0,1-.079.491,20.825,20.825,0,0,0-3.522,4.037.351.351,0,0,1-.455.108l-3.662-1.891a.644.644,0,0,0-.868.277l-1.654,3.2a.644.644,0,0,0,.277.868l3.748,1.935a.375.375,0,0,1,.181.453,21.05,21.05,0,0,0-1.043,5.159.354.354,0,0,1-.342.32l-4.3.2a.644.644,0,0,0-.613.673l.17,3.6a.644.644,0,0,0,.674.613l4.35-.205a.367.367,0,0,1,.379.294,20.8,20.8,0,0,0,1.619,4.951.358.358,0,0,1-.138.451Zm18.644-18.01a7.669,7.669,0,1,1-2.311,10.6A7.67,7.67,0,0,1,130.163,501.129Z" transform="translate(-107.709 -481.402)" fill="#98afbe"/>
          <path id="Trazado_101795" data-name="Trazado 101795" d="M131.787,532.344a1.1,1.1,0,0,1-1.1-1.047l-.2-4.144a21.546,21.546,0,0,1-5.079-1.184l-1.938,3.756a1.1,1.1,0,0,1-1.48.473l-3.2-1.654a1.1,1.1,0,0,1-.473-1.48l1.964-3.805a21.328,21.328,0,0,1-3.789-3.494l-3.633,2.332a1.1,1.1,0,0,1-1.518-.331L109.4,518.73a1.1,1.1,0,0,1,.331-1.519l3.633-2.333a21.282,21.282,0,0,1-1.6-4.9l-4.276.2a1.1,1.1,0,0,1-1.149-1.046l-.17-3.6a1.1,1.1,0,0,1,1.046-1.149l4.221-.2a21.5,21.5,0,0,1,1.038-5.111l-3.686-1.9a1.1,1.1,0,0,1-.473-1.48l1.654-3.2a1.1,1.1,0,0,1,1.48-.472l3.585,1.851a21.308,21.308,0,0,1,3.5-4.006l-2.121-3.3a1.1,1.1,0,0,1,.331-1.518l3.034-1.947a1.1,1.1,0,0,1,1.518.331l2.053,3.2a21.362,21.362,0,0,1,5.152-1.761l-.173-3.681a1.1,1.1,0,0,1,1.046-1.149l3.6-.169a1.106,1.106,0,0,1,1.149,1.046l.168,3.578a21.506,21.506,0,0,1,5.439,1.1l1.6-3.109a1.1,1.1,0,0,1,1.48-.473l3.206,1.655a1.1,1.1,0,0,1,.472,1.481l-1.575,3.05a21.263,21.263,0,0,1,4.168,3.756l2.865-1.839a1.1,1.1,0,0,1,1.518.331l1.948,3.035a1.1,1.1,0,0,1-.331,1.519l-2.865,1.839a21.256,21.256,0,0,1,1.68,5.354l3.428-.162a1.1,1.1,0,0,1,1.15,1.046l.17,3.6a1.1,1.1,0,0,1-1.045,1.15l-3.495.165a21.545,21.545,0,0,1-1.263,5.4l3.184,1.643a1.1,1.1,0,0,1,.473,1.48l-1.653,3.2a1.1,1.1,0,0,1-1.481.473l-3.276-1.691a21.316,21.316,0,0,1-3.745,3.951l2.053,3.2a1.1,1.1,0,0,1-.331,1.518l-3.034,1.948a1.1,1.1,0,0,1-1.518-.331l-2.122-3.3a21.291,21.291,0,0,1-5.1,1.517l.19,4.032a1.1,1.1,0,0,1-1.046,1.149l-3.6.17Zm-6.413-7.305a.821.821,0,0,1,.285.051,20.627,20.627,0,0,0,5.015,1.168.814.814,0,0,1,.726.782l.2,4.214a.188.188,0,0,0,.062.131.177.177,0,0,0,.136.049l3.6-.17a.189.189,0,0,0,.181-.2l-.194-4.118a.815.815,0,0,1,.686-.841,20.393,20.393,0,0,0,5.024-1.493.821.821,0,0,1,1.03.31l2.159,3.364a.19.19,0,0,0,.262.057l3.034-1.948a.19.19,0,0,0,.057-.262l-2.1-3.273a.823.823,0,0,1,.191-1.083A20.416,20.416,0,0,0,149.4,517.9a.818.818,0,0,1,1.044-.244l3.339,1.723a.19.19,0,0,0,.256-.082l1.653-3.2a.19.19,0,0,0-.082-.255l-3.26-1.682a.826.826,0,0,1-.379-1.031,20.639,20.639,0,0,0,1.237-5.3.83.83,0,0,1,.782-.747l3.568-.168a.19.19,0,0,0,.18-.2l-.17-3.6a.187.187,0,0,0-.2-.18l-3.512.166a.832.832,0,0,1-.845-.7,20.351,20.351,0,0,0-1.644-5.24.828.828,0,0,1,.293-1.05l2.931-1.882a.19.19,0,0,0,.057-.263l-1.948-3.034a.19.19,0,0,0-.262-.058l-2.931,1.882a.811.811,0,0,1-1.057-.148,20.359,20.359,0,0,0-4.112-3.709.818.818,0,0,1-.27-1.05l1.613-3.124a.189.189,0,0,0-.081-.255l-3.206-1.655a.189.189,0,0,0-.255.082l-1.638,3.174a.841.841,0,0,1-1.022.394,20.61,20.61,0,0,0-5.334-1.076.815.815,0,0,1-.761-.773l-.173-3.664a.187.187,0,0,0-.2-.18l-3.6.169a.186.186,0,0,0-.131.062.188.188,0,0,0-.049.136l.177,3.752a.828.828,0,0,1-.673.852,20.433,20.433,0,0,0-5.059,1.733.814.814,0,0,1-1.048-.286l-2.1-3.272a.19.19,0,0,0-.262-.058l-3.034,1.948a.19.19,0,0,0-.057.262l2.158,3.363a.832.832,0,0,1-.16,1.077,20.394,20.394,0,0,0-3.445,3.948.8.8,0,0,1-1.041.26l-3.662-1.891a.19.19,0,0,0-.255.081l-1.654,3.2a.19.19,0,0,0,.082.255l3.748,1.935a.825.825,0,0,1,.4,1,20.615,20.615,0,0,0-1.021,5.047.809.809,0,0,1-.774.741l-4.3.2a.189.189,0,0,0-.18.2l.17,3.6a.189.189,0,0,0,.062.132.18.18,0,0,0,.136.049l4.35-.205a.825.825,0,0,1,.847.663,20.383,20.383,0,0,0,1.583,4.843.814.814,0,0,1-.3,1.028l-3.7,2.375a.19.19,0,0,0-.057.262l1.949,3.034a.19.19,0,0,0,.262.057l3.7-2.375a.825.825,0,0,1,1.073.165,20.409,20.409,0,0,0,3.713,3.428.84.84,0,0,1,.27,1.06l-2,3.871a.187.187,0,0,0-.012.144.189.189,0,0,0,.094.111l3.2,1.654a.192.192,0,0,0,.145.012.189.189,0,0,0,.111-.094l1.976-3.829A.818.818,0,0,1,125.374,525.038Zm7.4-10.879a8.122,8.122,0,0,1-4.4-14.957h0a8.123,8.123,0,1,1,4.4,14.957Zm-.025-15.334a7.17,7.17,0,0,0-3.885,1.141h0a7.22,7.22,0,1,0,3.885-1.141Z" transform="translate(-106.163 -479.858)" fill="#284356"/>
        </g>
        <g id="Grupo_55315" data-name="Grupo 55315" transform="translate(39.98 98.605)">
          <rect id="Rectángulo_5599" data-name="Rectángulo 5599" width="42.619" height="11.876" transform="translate(0.455 0.455)" fill="#fff"/>
          <path id="Trazado_101796" data-name="Trazado 101796" d="M323.348,581.753H284.318a2.251,2.251,0,0,1-2.249-2.249v-8.287a2.251,2.251,0,0,1,2.249-2.249h39.031a2.252,2.252,0,0,1,2.249,2.249V579.5A2.252,2.252,0,0,1,323.348,581.753Zm-39.031-11.876a1.341,1.341,0,0,0-1.34,1.34V579.5a1.341,1.341,0,0,0,1.34,1.34h39.031a1.342,1.342,0,0,0,1.34-1.34v-8.287a1.341,1.341,0,0,0-1.34-1.34Z" transform="translate(-282.069 -568.968)" fill="#284356"/>
        </g>
        <g id="Grupo_55316" data-name="Grupo 55316" transform="translate(118.826 44.485)">
          <path id="Trazado_101797" data-name="Trazado 101797" d="M633.549,336.643H632.6v-2.611h-2.671v2.611h-.947V330.85h.947v2.369H632.6V330.85h.951Z" transform="translate(-628.981 -330.85)" fill="#284356"/>
          <path id="Trazado_101798" data-name="Trazado 101798" d="M655.585,336.643h-.947v-4.981h-1.7v-.812h4.355v.812h-1.7Z" transform="translate(-647.49 -330.85)" fill="#284356"/>
          <path id="Trazado_101799" data-name="Trazado 101799" d="M678.5,336.643l-1.68-4.838h-.032q.067,1.078.067,2.021v2.817H676V330.85h1.335l1.609,4.608h.024l1.656-4.608h1.339v5.793h-.911v-2.865q0-.432.022-1.125t.038-.84h-.032l-1.74,4.83Z" transform="translate(-665.313 -330.85)" fill="#284356"/>
          <path id="Trazado_101800" data-name="Trazado 101800" d="M708.949,336.643V330.85h.947v4.981h2.453v.812Z" transform="translate(-690.774 -330.85)" fill="#284356"/>
          <path id="Trazado_101801" data-name="Trazado 101801" d="M728.834,333.025a1.988,1.988,0,0,1,1.387.463,1.621,1.621,0,0,1,.511,1.264,1.847,1.847,0,0,1-.58,1.448,2.389,2.389,0,0,1-1.651.521,3.119,3.119,0,0,1-1.525-.313v-.844a2.788,2.788,0,0,0,.737.281,3.346,3.346,0,0,0,.773.1,1.437,1.437,0,0,0,.959-.282,1.024,1.024,0,0,0,.329-.824q0-1.038-1.324-1.038a3.484,3.484,0,0,0-.46.038q-.273.038-.479.085l-.416-.246.222-2.829h3.011v.828h-2.191l-.131,1.434.339-.055A3.2,3.2,0,0,1,728.834,333.025Z" transform="translate(-704.704 -330.85)" fill="#284356"/>
        </g>
        <g id="Grupo_55317" data-name="Grupo 55317" transform="translate(44.58 3.557)">
          <path id="Trazado_101802" data-name="Trazado 101802" d="M306.062,152.487a1.654,1.654,0,0,1-.582,1.362,2.565,2.565,0,0,1-1.656.473h-.59v2.121h-.927v-5.67h1.633a2.469,2.469,0,0,1,1.592.435A1.558,1.558,0,0,1,306.062,152.487Zm-2.827,1.055h.493a1.763,1.763,0,0,0,1.047-.248.9.9,0,0,0,.334-.776.881.881,0,0,0-.3-.729,1.474,1.474,0,0,0-.93-.24h-.644Z" transform="translate(-302.308 -150.773)" fill="#284356"/>
          <path id="Trazado_101803" data-name="Trazado 101803" d="M328.281,156.443h-.931v-2.556h-2.614v2.556h-.927v-5.67h.927v2.319h2.614v-2.319h.931Z" transform="translate(-318.922 -150.773)" fill="#284356"/>
          <path id="Trazado_101804" data-name="Trazado 101804" d="M353.808,152.487a1.654,1.654,0,0,1-.582,1.362,2.564,2.564,0,0,1-1.656.473h-.59v2.121h-.927v-5.67h1.633a2.469,2.469,0,0,1,1.592.435A1.559,1.559,0,0,1,353.808,152.487Zm-2.827,1.055h.492a1.763,1.763,0,0,0,1.047-.248.9.9,0,0,0,.333-.776.881.881,0,0,0-.3-.729,1.476,1.476,0,0,0-.931-.24h-.644Z" transform="translate(-339.202 -150.773)" fill="#284356"/>
        </g>
        <g id="Grupo_55318" data-name="Grupo 55318" transform="translate(44.361 101.704)">
          <path id="Trazado_101805" data-name="Trazado 101805" d="M301.983,591.029a1.811,1.811,0,0,1-.637-.1v-.781a2.376,2.376,0,0,0,.567.082q.761,0,.761-.963v-5.5h.932v5.473a1.925,1.925,0,0,1-.414,1.33A1.542,1.542,0,0,1,301.983,591.029Z" transform="translate(-301.346 -583.502)" fill="#284356"/>
          <path id="Trazado_101806" data-name="Trazado 101806" d="M317.25,593.882l-.182-.6h-.031a1.756,1.756,0,0,1-.626.534,1.976,1.976,0,0,1-.808.142,1.367,1.367,0,0,1-.988-.342,1.279,1.279,0,0,1-.355-.967,1.135,1.135,0,0,1,.493-1,2.843,2.843,0,0,1,1.5-.369l.742-.023v-.229a.868.868,0,0,0-.193-.616.784.784,0,0,0-.6-.2,2.069,2.069,0,0,0-.633.1,4.806,4.806,0,0,0-.583.229l-.3-.653a3.181,3.181,0,0,1,.765-.278,3.509,3.509,0,0,1,.785-.1,1.859,1.859,0,0,1,1.237.357,1.4,1.4,0,0,1,.417,1.122v2.894Zm-1.359-.621a1.131,1.131,0,0,0,.8-.278,1.008,1.008,0,0,0,.3-.779v-.373l-.551.023a1.89,1.89,0,0,0-.938.215.656.656,0,0,0-.293.589.574.574,0,0,0,.171.444A.734.734,0,0,0,315.89,593.26Z" transform="translate(-311.324 -587.939)" fill="#284356"/>
          <path id="Trazado_101807" data-name="Trazado 101807" d="M332.905,594.146l-1.631-4.3h.963l.874,2.5a4.957,4.957,0,0,1,.272,1.017h.031a6.829,6.829,0,0,1,.272-1.017l.874-2.5h.971l-1.639,4.3Z" transform="translate(-324.472 -588.203)" fill="#284356"/>
          <path id="Trazado_101808" data-name="Trazado 101808" d="M352.784,593.882l-.183-.6h-.031a1.756,1.756,0,0,1-.626.534,1.976,1.976,0,0,1-.808.142,1.367,1.367,0,0,1-.989-.342,1.279,1.279,0,0,1-.355-.967,1.135,1.135,0,0,1,.493-1,2.844,2.844,0,0,1,1.5-.369l.742-.023v-.229a.869.869,0,0,0-.192-.616.785.785,0,0,0-.6-.2,2.071,2.071,0,0,0-.633.1,4.785,4.785,0,0,0-.582.229l-.3-.653A3.177,3.177,0,0,1,351,589.6a3.51,3.51,0,0,1,.785-.1,1.859,1.859,0,0,1,1.237.357,1.4,1.4,0,0,1,.418,1.122v2.894Zm-1.36-.621a1.131,1.131,0,0,0,.8-.278,1.007,1.007,0,0,0,.3-.779v-.373l-.552.023a1.891,1.891,0,0,0-.938.215.656.656,0,0,0-.293.589.574.574,0,0,0,.171.444A.734.734,0,0,0,351.424,593.26Z" transform="translate(-338.782 -587.939)" fill="#284356"/>
          <path id="Trazado_101809" data-name="Trazado 101809" d="M372.152,587.625a1.429,1.429,0,0,1-.548,1.189,2.384,2.384,0,0,1-1.511.431,3.6,3.6,0,0,1-1.577-.3v-.878a4.277,4.277,0,0,0,.825.287,3.494,3.494,0,0,0,.814.1,1.3,1.3,0,0,0,.814-.21.684.684,0,0,0,.262-.563.706.706,0,0,0-.241-.54,3.626,3.626,0,0,0-.994-.524,2.632,2.632,0,0,1-1.1-.719,1.52,1.52,0,0,1-.318-.971,1.36,1.36,0,0,1,.5-1.119,2.1,2.1,0,0,1,1.356-.408,3.983,3.983,0,0,1,1.623.357l-.3.757a3.552,3.552,0,0,0-1.352-.318,1.038,1.038,0,0,0-.684.2.645.645,0,0,0-.233.519.731.731,0,0,0,.093.379.95.95,0,0,0,.307.3,5.162,5.162,0,0,0,.769.369,4.226,4.226,0,0,1,.917.486,1.429,1.429,0,0,1,.427.509A1.531,1.531,0,0,1,372.152,587.625Z" transform="translate(-353.25 -583.224)" fill="#284356"/>
          <path id="Trazado_101810" data-name="Trazado 101810" d="M388.032,593.959a1.88,1.88,0,0,1-1.482-.569,2.884,2.884,0,0,1,.023-3.3,1.967,1.967,0,0,1,1.532-.582,2.874,2.874,0,0,1,1.223.252l-.276.734a2.771,2.771,0,0,0-.955-.225q-1.115,0-1.115,1.48a1.773,1.773,0,0,0,.278,1.086.961.961,0,0,0,.814.363,2.334,2.334,0,0,0,1.154-.3v.8a1.793,1.793,0,0,1-.523.206A3.143,3.143,0,0,1,388.032,593.959Z" transform="translate(-366.793 -587.939)" fill="#284356"/>
          <path id="Trazado_101811" data-name="Trazado 101811" d="M404.93,589.508a2.195,2.195,0,0,1,.454.039l-.089.851a1.716,1.716,0,0,0-.4-.047,1.169,1.169,0,0,0-.888.357,1.292,1.292,0,0,0-.34.928v2.245h-.913v-4.3h.715l.12.758h.047a1.7,1.7,0,0,1,.557-.61A1.326,1.326,0,0,1,404.93,589.508Z" transform="translate(-379.704 -587.939)" fill="#284356"/>
          <path id="Trazado_101812" data-name="Trazado 101812" d="M415.852,583.112a.505.505,0,0,1,.134-.377.522.522,0,0,1,.383-.132.51.51,0,0,1,.375.132.5.5,0,0,1,.134.377.494.494,0,0,1-.134.367.505.505,0,0,1-.375.134.517.517,0,0,1-.383-.134A.5.5,0,0,1,415.852,583.112Zm.967,5.434h-.913v-4.3h.913Z" transform="translate(-389.827 -582.603)" fill="#284356"/>
          <path id="Trazado_101813" data-name="Trazado 101813" d="M426.278,593.959a1.505,1.505,0,0,1-1.266-.586h-.054q.054.543.054.66v1.76H424.1v-6.207h.738q.031.12.128.575h.047a1.43,1.43,0,0,1,1.282-.653,1.491,1.491,0,0,1,1.253.582,3.195,3.195,0,0,1-.008,3.278A1.5,1.5,0,0,1,426.278,593.959Zm-.221-3.706a.95.95,0,0,0-.794.318,1.653,1.653,0,0,0-.25,1.018v.136a2.01,2.01,0,0,0,.249,1.136.924.924,0,0,0,.812.351.824.824,0,0,0,.73-.388,2.006,2.006,0,0,0,.256-1.107,1.936,1.936,0,0,0-.255-1.093A.849.849,0,0,0,426.057,590.254Z" transform="translate(-396.2 -587.939)" fill="#284356"/>
          <path id="Trazado_101814" data-name="Trazado 101814" d="M444.052,590.237a2.219,2.219,0,0,0,.668-.105v.688a1.842,1.842,0,0,1-.39.111,2.707,2.707,0,0,1-.5.045q-1.3,0-1.3-1.367v-2.315h-.587v-.4l.629-.334.311-.909h.563v.955h1.223v.691h-1.223v2.3a.644.644,0,0,0,.165.487A.6.6,0,0,0,444.052,590.237Z" transform="translate(-409.994 -584.954)" fill="#284356"/>
        </g>
      </g>
    </g>
  </g>
</svg>
