<svg xmlns="http://www.w3.org/2000/svg" width="331" height="226.185" viewBox="0 0 331 226.185">
  <g id="Grupo_58555" data-name="Grupo 58555" transform="translate(-809 -915.815)">
    <rect id="Rectángulo_5477" data-name="Rectángulo 5477" width="331" height="135" transform="translate(809 1007)" fill="#01549e"/>
    <g id="Grupo_56560" data-name="Grupo 56560" transform="translate(793.697 776.213)">
      <g id="Ladder" transform="translate(222.61 295.169)">
        <g id="Grupo_56519" data-name="Grupo 56519" transform="translate(0 0)">
          <g id="Grupo_56514" data-name="Grupo 56514" transform="translate(21.334 1.874)">
            <path id="Trazado_102030" data-name="Trazado 102030" d="M334.385,400.282h5.22L346.716,361H341.5Z" transform="translate(-334.385 -360.998)" fill="#263238"/>
            <path id="Trazado_102031" data-name="Trazado 102031" d="M334.385,400.282h5.22L346.716,361H341.5Z" transform="translate(-334.385 -360.998)" fill="#fff" opacity="0.2"/>
            <path id="Trazado_102032" data-name="Trazado 102032" d="M334.385,400.282h3.8L345.294,361h-3.8Z" transform="translate(-334.385 -360.998)" fill="#fff" opacity="0.2"/>
          </g>
          <path id="Trazado_102033" data-name="Trazado 102033" d="M313.219,376.495h20.9a1.154,1.154,0,0,0,1.153-1.154h0a1.153,1.153,0,0,0-1.153-1.153h-20.9a1.153,1.153,0,0,0-1.153,1.153h0A1.154,1.154,0,0,0,313.219,376.495Z" transform="translate(-306.604 -362.934)" fill="#263238"/>
          <path id="Trazado_102034" data-name="Trazado 102034" d="M309.956,394.989h20.9a1.154,1.154,0,0,0,1.154-1.153h0a1.154,1.154,0,0,0-1.154-1.154h-20.9a1.154,1.154,0,0,0-1.154,1.154h0A1.154,1.154,0,0,0,309.956,394.989Z" transform="translate(-305.661 -368.276)" fill="#263238"/>
          <g id="Grupo_56515" data-name="Grupo 56515" transform="translate(0 1.874)">
            <path id="Trazado_102035" data-name="Trazado 102035" d="M304.385,400.282h5.22L316.716,361H311.5Z" transform="translate(-304.385 -360.998)" fill="#263238"/>
            <path id="Trazado_102036" data-name="Trazado 102036" d="M304.385,400.282h5.22L316.716,361H311.5Z" transform="translate(-304.385 -360.998)" fill="#fff" opacity="0.2"/>
            <path id="Trazado_102037" data-name="Trazado 102037" d="M304.385,400.282h3.8L315.294,361h-3.8Z" transform="translate(-304.385 -360.998)" fill="#fff" opacity="0.2"/>
          </g>
          <g id="Grupo_56516" data-name="Grupo 56516" transform="translate(36.267 1.874)">
            <path id="Trazado_102038" data-name="Trazado 102038" d="M367.716,400.282H362.5L355.385,361h5.22Z" transform="translate(-355.385 -360.998)" fill="#263238"/>
            <path id="Trazado_102039" data-name="Trazado 102039" d="M367.716,400.282H362.5L355.385,361h5.22Z" transform="translate(-355.385 -360.998)" fill="#fff" opacity="0.4"/>
            <path id="Trazado_102040" data-name="Trazado 102040" d="M366.294,400.282h-3.8L355.385,361h3.8Z" transform="translate(-355.385 -360.998)" fill="#fff" opacity="0.2"/>
          </g>
          <path id="Trazado_102041" data-name="Trazado 102041" d="M350.858,376.495h-20.9a1.154,1.154,0,0,1-1.154-1.154h0a1.154,1.154,0,0,1,1.154-1.153h20.9a1.154,1.154,0,0,1,1.154,1.153h0A1.154,1.154,0,0,1,350.858,376.495Z" transform="translate(-311.438 -362.934)" fill="#263238"/>
          <path id="Trazado_102042" data-name="Trazado 102042" d="M354.122,394.989h-20.9a1.153,1.153,0,0,1-1.153-1.153h0a1.154,1.154,0,0,1,1.153-1.154h20.9a1.154,1.154,0,0,1,1.153,1.154h0A1.153,1.153,0,0,1,354.122,394.989Z" transform="translate(-312.381 -368.276)" fill="#263238"/>
          <path id="Trazado_102043" data-name="Trazado 102043" d="M350.858,376.495h-20.9a1.154,1.154,0,0,1-1.154-1.154h0a1.154,1.154,0,0,1,1.154-1.153h20.9a1.154,1.154,0,0,1,1.154,1.153h0A1.154,1.154,0,0,1,350.858,376.495Z" transform="translate(-311.438 -362.934)" fill="#fff" opacity="0.2"/>
          <path id="Trazado_102044" data-name="Trazado 102044" d="M354.122,394.989h-20.9a1.153,1.153,0,0,1-1.153-1.153h0a1.154,1.154,0,0,1,1.153-1.154h20.9a1.154,1.154,0,0,1,1.153,1.154h0A1.153,1.153,0,0,1,354.122,394.989Z" transform="translate(-312.381 -368.276)" fill="#fff" opacity="0.2"/>
          <g id="Grupo_56517" data-name="Grupo 56517" transform="translate(14.934 1.874)">
            <path id="Trazado_102045" data-name="Trazado 102045" d="M337.716,400.282H332.5L325.385,361h5.22Z" transform="translate(-325.385 -360.998)" fill="#263238"/>
            <path id="Trazado_102046" data-name="Trazado 102046" d="M337.716,400.282H332.5L325.385,361h5.22Z" transform="translate(-325.385 -360.998)" fill="#fff" opacity="0.4"/>
            <path id="Trazado_102047" data-name="Trazado 102047" d="M336.294,400.282h-3.8L325.385,361h3.8Z" transform="translate(-325.385 -360.998)" fill="#fff" opacity="0.2"/>
          </g>
          <g id="Grupo_56518" data-name="Grupo 56518" transform="translate(4.923)">
            <rect id="Rectángulo_5640" data-name="Rectángulo 5640" width="39.448" height="3.748" rx="1.187" fill="#263238"/>
            <rect id="Rectángulo_5641" data-name="Rectángulo 5641" width="16.043" height="3.748" rx="1.187" fill="#fff" opacity="0.2"/>
          </g>
        </g>
      </g>
      <g id="interface" transform="translate(96.611 304.758)">
        <g id="Grupo_56522" data-name="Grupo 56522">
          <g id="Grupo_56520" data-name="Grupo 56520">
            <rect id="Rectángulo_5642" data-name="Rectángulo 5642" width="47.751" height="31.057" fill="#8ecae4"/>
            <rect id="Rectángulo_5643" data-name="Rectángulo 5643" width="47.751" height="31.057" fill="#fff" opacity="0.6" style="isolation: isolate"/>
          </g>
          <rect id="Rectángulo_5644" data-name="Rectángulo 5644" width="44.257" height="23.681" transform="translate(1.747 5.823)" fill="#bfeffc"/>
          <g id="Grupo_56521" data-name="Grupo 56521" transform="translate(5.353 9.362)">
            <rect id="Rectángulo_5645" data-name="Rectángulo 5645" width="32.738" height="1.019" fill="#8ecae4"/>
            <rect id="Rectángulo_5646" data-name="Rectángulo 5646" width="15.708" height="1.019" transform="translate(0 3.12)" fill="#8ecae4"/>
            <rect id="Rectángulo_5647" data-name="Rectángulo 5647" width="19.784" height="1.019" transform="translate(0 6.24)" fill="#8ecae4"/>
            <rect id="Rectángulo_5648" data-name="Rectángulo 5648" width="6.973" height="1.019" transform="translate(0 9.36)" fill="#8ecae4"/>
            <rect id="Rectángulo_5649" data-name="Rectángulo 5649" width="4.515" height="1.019" transform="translate(0 12.48)" fill="#8ecae4"/>
          </g>
        </g>
      </g>
      <g id="Monitor" transform="translate(87.605 157.224)">
        <g id="Grupo_56540" data-name="Grupo 56540">
          <g id="Grupo_56523" data-name="Grupo 56523" transform="translate(76.893 127.425)">
            <path id="Trazado_102048" data-name="Trazado 102048" d="M261.542,395.246H222.667l6.583-51.677h25.709Z" transform="translate(-222.667 -343.57)" fill="#01549e"/>
            <path id="Trazado_102049" data-name="Trazado 102049" d="M261.54,395.248H222.668l4.5-35.355,2.078-16.323h25.706l3.069,24.08Z" transform="translate(-222.668 -343.57)" fill="#fff" opacity="0.6"/>
            <path id="Trazado_102050" data-name="Trazado 102050" d="M259.855,367.65,229,359.893l2.078-16.323h25.706Z" transform="translate(-224.497 -343.57)" opacity="0.1" style="isolation: isolate"/>
          </g>
          <g id="Grupo_56524" data-name="Grupo 56524">
            <path id="Trazado_102051" data-name="Trazado 102051" d="M302.51,164.382H119.228a4.69,4.69,0,0,0-4.69,4.69V293.151a4.69,4.69,0,0,0,4.69,4.69H302.51a4.69,4.69,0,0,0,4.69-4.69V169.072A4.69,4.69,0,0,0,302.51,164.382Z" transform="translate(-114.538 -164.382)" fill="#01549e"/>
            <path id="Trazado_102052" data-name="Trazado 102052" d="M302.51,164.382H119.228a4.69,4.69,0,0,0-4.69,4.69V293.151a4.69,4.69,0,0,0,4.69,4.69H302.51a4.69,4.69,0,0,0,4.69-4.69V169.072A4.69,4.69,0,0,0,302.51,164.382Z" transform="translate(-114.538 -164.382)" fill="#fff" opacity="0.7"/>
          </g>
          <rect id="Rectángulo_5650" data-name="Rectángulo 5650" width="180.321" height="119.647" transform="translate(6.172 4.593)" fill="#bfeffc"/>
          <g id="Grupo_56525" data-name="Grupo 56525" transform="translate(62.947 175.219)">
            <rect id="Rectángulo_5651" data-name="Rectángulo 5651" width="66.768" height="3.82" rx="1.037" fill="#01549e"/>
            <rect id="Rectángulo_5652" data-name="Rectángulo 5652" width="66.768" height="3.82" rx="1.037" fill="#fff" opacity="0.7"/>
          </g>
          <g id="Grupo_56535" data-name="Grupo 56535" transform="translate(6.172 4.707)">
            <rect id="Rectángulo_5653" data-name="Rectángulo 5653" width="180.321" height="17.834" fill="#8ecae4" opacity="0.2" style="isolation: isolate"/>
            <rect id="Rectángulo_5654" data-name="Rectángulo 5654" width="77.273" height="101.488" transform="translate(0 18.045)" fill="#fff" opacity="0.4"/>
            <g id="Grupo_56529" data-name="Grupo 56529" transform="translate(84.01 5.598)">
              <rect id="Rectángulo_5655" data-name="Rectángulo 5655" width="67.432" height="38.986" transform="translate(1.127 1.127)" fill="none" stroke="#8ecae4" stroke-miterlimit="10" stroke-width="1" stroke-dasharray="5"/>
              <g id="Grupo_56526" data-name="Grupo 56526">
                <rect id="Rectángulo_5656" data-name="Rectángulo 5656" width="2.255" height="2.255" transform="translate(67.432)" fill="#407bff" stroke="#fff" stroke-miterlimit="10" stroke-width="1"/>
                <rect id="Rectángulo_5657" data-name="Rectángulo 5657" width="2.255" height="2.254" transform="translate(67.432 38.986)" fill="#407bff" stroke="#fff" stroke-miterlimit="10" stroke-width="1"/>
                <rect id="Rectángulo_5658" data-name="Rectángulo 5658" width="2.255" height="2.255" fill="#407bff" stroke="#fff" stroke-miterlimit="10" stroke-width="1"/>
                <rect id="Rectángulo_5659" data-name="Rectángulo 5659" width="2.255" height="2.254" transform="translate(0 38.986)" fill="#407bff" stroke="#fff" stroke-miterlimit="10" stroke-width="1"/>
              </g>
              <g id="Grupo_56527" data-name="Grupo 56527" transform="translate(33.716)">
                <rect id="Rectángulo_5660" data-name="Rectángulo 5660" width="2.254" height="2.254" fill="#407bff" stroke="#fff" stroke-miterlimit="10" stroke-width="1"/>
                <rect id="Rectángulo_5661" data-name="Rectángulo 5661" width="2.254" height="2.255" transform="translate(0 38.986)" fill="#407bff" stroke="#fff" stroke-miterlimit="10" stroke-width="1"/>
              </g>
              <g id="Grupo_56528" data-name="Grupo 56528" transform="translate(0 19.493)">
                <rect id="Rectángulo_5662" data-name="Rectángulo 5662" width="2.255" height="2.255" transform="translate(67.432)" fill="#407bff" stroke="#fff" stroke-miterlimit="10" stroke-width="1"/>
                <rect id="Rectángulo_5663" data-name="Rectángulo 5663" width="2.255" height="2.255" fill="#407bff" stroke="#fff" stroke-miterlimit="10" stroke-width="1"/>
              </g>
            </g>
            <path id="Rectángulo_5664" data-name="Rectángulo 5664" d="M1.893,0H17.3a1.894,1.894,0,0,1,1.894,1.894V5.208A1.894,1.894,0,0,1,17.3,7.1H1.893A1.893,1.893,0,0,1,0,5.208V1.893A1.893,1.893,0,0,1,1.893,0Z" transform="translate(128.599 19.82)" fill="#fff" opacity="0.7"/>
            <path id="Rectángulo_5665" data-name="Rectángulo 5665" d="M1.893,0H17.3a1.894,1.894,0,0,1,1.894,1.894V5.208A1.893,1.893,0,0,1,17.3,7.1H1.894A1.894,1.894,0,0,1,0,5.208V1.893A1.893,1.893,0,0,1,1.893,0Z" transform="translate(100.154 19.82)" fill="#fff" opacity="0.7"/>
            <path id="Rectángulo_5666" data-name="Rectángulo 5666" d="M1.894,0H17.3a1.894,1.894,0,0,1,1.894,1.894V5.208A1.893,1.893,0,0,1,17.3,7.1H1.894A1.894,1.894,0,0,1,0,5.208V1.894A1.894,1.894,0,0,1,1.894,0Z" transform="translate(63.532 106.285)" fill="#01549e" opacity="0.7"/>
            <g id="Grupo_56530" data-name="Grupo 56530" transform="translate(168.422 6.341)">
              <line id="Línea_202" data-name="Línea 202" x2="6.002" fill="none" stroke="#fff" stroke-linecap="round" stroke-linejoin="round" stroke-width="1.5"/>
              <line id="Línea_203" data-name="Línea 203" x2="6.002" transform="translate(0 2.845)" fill="none" stroke="#fff" stroke-linecap="round" stroke-linejoin="round" stroke-width="1.5"/>
              <line id="Línea_204" data-name="Línea 204" x2="6.002" transform="translate(0 5.689)" fill="none" stroke="#fff" stroke-linecap="round" stroke-linejoin="round" stroke-width="1.5"/>
            </g>
            <rect id="Rectángulo_5667" data-name="Rectángulo 5667" width="60.484" height="60.484" transform="translate(12.224 33.776)" fill="#fed55f" opacity="0.5"/>
            <g id="Grupo_56531" data-name="Grupo 56531" transform="translate(36.416 37.596)">
              <line id="Línea_205" data-name="Línea 205" y2="52.169" transform="translate(1.127 1.127)" fill="none" stroke="#8ecae4" stroke-miterlimit="10" stroke-width="1"/>
              <path id="Trazado_102053" data-name="Trazado 102053" d="M202.1,277.623h0a26.084,26.084,0,0,1-26.084-26.084h0A26.084,26.084,0,0,1,202.1,225.455h0" transform="translate(-174.884 -224.328)" fill="none" stroke="#8ecae4" stroke-miterlimit="10" stroke-width="1"/>
              <rect id="Rectángulo_5668" data-name="Rectángulo 5668" width="2.255" height="2.254" transform="translate(26.084)" fill="#fff" stroke="#8ecae4" stroke-miterlimit="10" stroke-width="1"/>
              <rect id="Rectángulo_5669" data-name="Rectángulo 5669" width="2.255" height="2.254" transform="translate(26.084 52.169)" fill="#fff" stroke="#8ecae4" stroke-miterlimit="10" stroke-width="1"/>
              <rect id="Rectángulo_5670" data-name="Rectángulo 5670" width="2.255" height="2.254" transform="translate(0 26.084)" fill="#fff" stroke="#8ecae4" stroke-miterlimit="10" stroke-width="1"/>
              <path id="Trazado_102054" data-name="Trazado 102054" d="M176.358,225.218a.585.585,0,1,1-.585-.585A.584.584,0,0,1,176.358,225.218Z" transform="translate(-174.646 -224.09)" fill="#fff" stroke="#8ecae4" stroke-miterlimit="10" stroke-width="1"/>
              <path id="Trazado_102055" data-name="Trazado 102055" d="M176.358,298.578a.585.585,0,1,1-.585-.584A.585.585,0,0,1,176.358,298.578Z" transform="translate(-174.646 -245.282)" fill="#fff" stroke="#8ecae4" stroke-miterlimit="10" stroke-width="1"/>
            </g>
            <path id="Trazado_102056" data-name="Trazado 102056" d="M307.341,317.371H289.033a5.291,5.291,0,0,1-5.291-5.291h0a5.291,5.291,0,0,1,5.291-5.291h18.309a5.291,5.291,0,0,1,5.291,5.291h0A5.291,5.291,0,0,1,307.341,317.371Z" transform="translate(-169.588 -210.226)" fill="#01549e" opacity="0.7"/>
            <path id="Trazado_102057" data-name="Trazado 102057" d="M316.1,257.279H259.541a1.156,1.156,0,0,1-1.156-1.156h0a1.156,1.156,0,0,1,1.156-1.156H316.1a1.156,1.156,0,0,1,1.156,1.156h0A1.156,1.156,0,0,1,316.1,257.279Z" transform="translate(-162.263 -195.256)" fill="#01549e" opacity="0.7"/>
            <path id="Trazado_102058" data-name="Trazado 102058" d="M316.1,269.155H259.541A1.156,1.156,0,0,1,258.385,268h0a1.156,1.156,0,0,1,1.156-1.157H316.1A1.156,1.156,0,0,1,317.261,268h0A1.156,1.156,0,0,1,316.1,269.155Z" transform="translate(-162.263 -198.687)" fill="#01549e" opacity="0.7"/>
            <path id="Trazado_102059" data-name="Trazado 102059" d="M324.771,281.032H289.541a1.156,1.156,0,0,1-1.156-1.156h0a1.156,1.156,0,0,1,1.156-1.156h35.229a1.156,1.156,0,0,1,1.156,1.156h0A1.156,1.156,0,0,1,324.771,281.032Z" transform="translate(-170.929 -202.118)" fill="#01549e" opacity="0.7"/>
            <g id="Grupo_56532" data-name="Grupo 56532" transform="translate(5.695 4.944)">
              <rect id="Rectángulo_5671" data-name="Rectángulo 5671" width="3.996" height="3.996" opacity="0.4" style="isolation: isolate"/>
              <path id="Rectángulo_5672" data-name="Rectángulo 5672" d="M1.439,0H2.556A1.44,1.44,0,0,1,4,1.44V2.556A1.439,1.439,0,0,1,2.556,4H1.44A1.44,1.44,0,0,1,0,2.556V1.439A1.439,1.439,0,0,1,1.439,0Z" transform="translate(7.769)" opacity="0.4" style="isolation: isolate"/>
              <path id="Rectángulo_5673" data-name="Rectángulo 5673" d="M2,0H2A2,2,0,0,1,4,2V2A2,2,0,0,1,2,4H2A2,2,0,0,1,0,2V2A2,2,0,0,1,2,0Z" transform="translate(15.539)" opacity="0.4" style="isolation: isolate"/>
            </g>
            <g id="Grupo_56534" data-name="Grupo 56534" transform="translate(8.147 97.791)">
              <g id="Grupo_56533" data-name="Grupo 56533">
                <path id="Trazado_102060" data-name="Trazado 102060" d="M144.474,314.2v-1.557l-.8-.075a4.154,4.154,0,0,0-.6-1.439l.516-.622-1.1-1.1-.622.515a4.151,4.151,0,0,0-1.438-.6l-.075-.8h-1.557l-.075.8a4.149,4.149,0,0,0-1.439.6l-.622-.515-1.1,1.1.515.622a4.154,4.154,0,0,0-.6,1.439l-.8.075V314.2l.8.075a4.15,4.15,0,0,0,.6,1.438l-.515.622,1.1,1.1.622-.516a4.149,4.149,0,0,0,1.439.6l.075.8h1.557l.075-.8a4.151,4.151,0,0,0,1.438-.6l.622.516,1.1-1.1-.516-.622a4.151,4.151,0,0,0,.6-1.438Zm-4.9,1.329a2.108,2.108,0,1,1,2.108-2.108A2.108,2.108,0,0,1,139.573,315.524Z" transform="translate(-134.673 -308.516)" fill="#fed55f" opacity="0.9"/>
                <path id="Trazado_102061" data-name="Trazado 102061" d="M154.21,320.875v-1.22l-.629-.06a3.25,3.25,0,0,0-.469-1.126l.4-.488-.863-.863-.488.4a3.267,3.267,0,0,0-1.127-.469l-.059-.628h-1.22l-.059.628a3.267,3.267,0,0,0-1.127.469l-.488-.4-.863.863.4.488a3.25,3.25,0,0,0-.469,1.126l-.629.06v1.22l.629.059a3.253,3.253,0,0,0,.469,1.127l-.4.487.863.863.488-.4a3.254,3.254,0,0,0,1.127.469l.059.629h1.22l.059-.629a3.254,3.254,0,0,0,1.127-.469l.488.4.863-.863-.4-.487a3.253,3.253,0,0,0,.469-1.127Zm-3.84,1.042a1.652,1.652,0,1,1,1.652-1.652A1.652,1.652,0,0,1,150.37,321.917Z" transform="translate(-138.098 -310.801)" fill="#fed55f" opacity="0.6"/>
                <path id="Trazado_102062" data-name="Trazado 102062" d="M145.834,326.036v-1.025l-.528-.05a2.733,2.733,0,0,0-.394-.947l.339-.41-.725-.725-.41.339a2.733,2.733,0,0,0-.947-.394l-.05-.528H142.1l-.05.528a2.737,2.737,0,0,0-.947.394l-.409-.339-.725.725.339.41a2.732,2.732,0,0,0-.393.947l-.528.05v1.025l.528.05a2.732,2.732,0,0,0,.393.947l-.339.41.725.725.409-.339a2.75,2.75,0,0,0,.947.393l.05.528h1.025l.05-.528a2.746,2.746,0,0,0,.947-.393l.41.339.725-.725-.339-.41a2.733,2.733,0,0,0,.394-.947Zm-3.226.875A1.388,1.388,0,1,1,144,325.524,1.388,1.388,0,0,1,142.609,326.911Z" transform="translate(-136.034 -312.497)" fill="#fed55f" opacity="0.4"/>
              </g>
            </g>
          </g>
          <g id="Grupo_56537" data-name="Grupo 56537" transform="translate(158.325 11.029)">
            <g id="Grupo_56536" data-name="Grupo 56536" transform="translate(0 0)">
              <path id="Trazado_102063" data-name="Trazado 102063" d="M337.177,179.892l3.017,8.063,5.046-5.046Z" transform="translate(-337.177 -179.892)" fill="#01549e"/>
              <rect id="Rectángulo_5674" data-name="Rectángulo 5674" width="1.59" height="3.533" transform="translate(3.729 4.853) rotate(-45)" fill="#01549e"/>
            </g>
            <path id="Trazado_102064" data-name="Trazado 102064" d="M345.24,182.909l-8.063-3.017,3.017,8.063,1.961-1.961,1.249,1.249,1.124-1.124-1.249-1.249Z" transform="translate(-337.177 -179.892)" fill="#01549e" opacity="0.4"/>
          </g>
          <g id="Grupo_56538" data-name="Grupo 56538" transform="translate(33.965 33.976)">
            <path id="Trazado_102065" data-name="Trazado 102065" d="M163.126,218.032l7.586,2.839-3.977-3.977a.775.775,0,0,1-.932-.119.785.785,0,1,1,1.111-1.11.775.775,0,0,1,.119.931l3.977,3.978-2.839-7.587-2.512.558-.1-.907-.476-.476-2.785,2.785.476.476.907.1Z" transform="translate(-162.3 -212.16)" fill="#263238"/>
            <path id="Trazado_102066" data-name="Trazado 102066" d="M163.126,218.032l7.586,2.839-3.977-3.977a.775.775,0,0,1-.932-.119.785.785,0,1,1,1.111-1.11.775.775,0,0,1,.119.931l3.977,3.978-2.839-7.587-2.512.558-.1-.907-.476-.476-2.785,2.785.476.476.907.1Z" transform="translate(-162.3 -212.16)" fill="#fff" opacity="0.2"/>
          </g>
          <g id="Grupo_56539" data-name="Grupo 56539" transform="translate(5.819 4.593)" opacity="0.1">
            <path id="Trazado_102067" data-name="Trazado 102067" d="M149.445,170.841,122.72,270.7V170.841Z" transform="translate(-122.72 -170.841)" fill="#fff"/>
            <path id="Trazado_102068" data-name="Trazado 102068" d="M180.742,170.841,148.719,290.488H126.66l32.015-119.647Z" transform="translate(-116.745 -170.841)" fill="#fff"/>
            <path id="Trazado_102069" data-name="Trazado 102069" d="M230.75,170.841,198.727,290.488H188.75l32.022-119.647Z" transform="translate(-141.795 -170.841)" fill="#fff"/>
            <path id="Trazado_102070" data-name="Trazado 102070" d="M274.882,170.841,242.86,290.488h-3.57l32.022-119.647Z" transform="translate(-156.394 -170.841)" fill="#fff"/>
          </g>
        </g>
      </g>
      <g id="Character_2" data-name="Character 2" transform="translate(253.69 154.854)">
        <g id="Grupo_56549" data-name="Grupo 56549" transform="translate(0 0)">
          <g id="Grupo_56542" data-name="Grupo 56542" transform="translate(55.709 33.357)">
            <path id="Trazado_102071" data-name="Trazado 102071" d="M437.433,207.958c2.522,2.913,15.365,27.653,12.883,33.429s-23.06-.883-23.06-.883l1.23-8.15s8,.281,8.762-.477-10.818-12.326-10.818-12.326Z" transform="translate(-426.429 -207.958)" fill="#263238"/>
            <g id="Grupo_56541" data-name="Grupo 56541" transform="translate(0.001 0.001)" opacity="0.2" style="isolation: isolate">
              <path id="Trazado_102072" data-name="Trazado 102072" d="M450.317,241.39a3.116,3.116,0,0,1-1.5,1.522c-.007,0-.014.007-.021.014-.128.064-.27.128-.412.185a.491.491,0,0,1-.057.021,3.16,3.16,0,0,1-.391.135,8.626,8.626,0,0,1-1.778.37c-.171.021-.341.036-.519.05-.256.021-.512.036-.775.043-.22.007-.448.014-.676.014-6.9.007-16.932-3.236-16.932-3.236l1.23-8.157s7.993.284,8.761-.476c.185-.185-.363-1.01-1.294-2.155l-.014-.014c-2.261-2.781-6.791-7.41-8.662-9.3-.526-.533-.846-.853-.846-.853l11-11.591C439.956,210.869,452.8,235.609,450.317,241.39Z" transform="translate(-426.43 -207.96)" fill="#fff"/>
            </g>
          </g>
          <path id="Trazado_102073" data-name="Trazado 102073" d="M449.151,245.535c-.007,0-.014.007-.021.014-.128.064-.27.128-.412.185a.5.5,0,0,1-.057.021,3.16,3.16,0,0,1-.391.135,8.625,8.625,0,0,1-1.778.37c-.171.021-.341.036-.519.05-.256.021-.512.036-.775.043-.22.007-.448.014-.676.014-6.9.007-16.932-3.236-16.932-3.236l1.23-8.157s9,.761,9.771,0a.1.1,0,0,0,.021-.036c.142-.3-.853-1.309-2.325-2.6l-.014-.014c-2.261-2.78-6.791-7.41-8.662-9.3l5.205-5.561,3.961-.427S445.525,231.2,449.151,245.535Z" transform="translate(-371.055 -177.224)" opacity="0.2" style="isolation: isolate"/>
          <g id="Grupo_56543" data-name="Grupo 56543" transform="translate(39.006 31.608)">
            <path id="Trazado_102074" data-name="Trazado 102074" d="M404.7,206.436c-1.426,1.034-2.127,2.5-1.567,3.272l37.578,51.808c.56.773,2.17.561,3.6-.472s2.127-2.5,1.566-3.272L408.3,205.964C407.735,205.191,406.125,205.4,404.7,206.436Z" transform="translate(-402.941 -205.499)" fill="#263238"/>
            <path id="Trazado_102075" data-name="Trazado 102075" d="M408.3,205.965l37.577,51.808c.56.772-.143,2.238-1.564,3.269s-3.034,1.243-3.593.471l-37.577-51.808a1.617,1.617,0,0,1,.137-1.724,4.162,4.162,0,0,1,.713-.93,5.575,5.575,0,0,1,.714-.614C406.124,205.406,407.736,205.194,408.3,205.965Z" transform="translate(-402.942 -205.499)" fill="#fff" opacity="0.7"/>
            <path id="Trazado_102076" data-name="Trazado 102076" d="M446.007,258.4c.56.772-.143,2.238-1.565,3.269s-3.034,1.243-3.593.471c-.309-.426.466-1.069.917-2l-38.357-51.529a4.163,4.163,0,0,1,.713-.93L441.7,259.5a5.618,5.618,0,0,1,.71-.62C443.835,257.844,445.447,257.632,446.007,258.4Z" transform="translate(-403.076 -206.129)" opacity="0.3" style="isolation: isolate"/>
          </g>
          <g id="Grupo_56544" data-name="Grupo 56544" transform="translate(34.855 29.68)">
            <path id="Trazado_102077" data-name="Trazado 102077" d="M398.36,204.215c-1.2,1.286-1.614,2.857-.917,3.509l46.721,43.741c.7.653,2.238.14,3.441-1.146s1.614-2.857.917-3.509L401.8,203.07C401.1,202.417,399.564,202.93,398.36,204.215Z" transform="translate(-397.104 -202.786)" fill="#407bff"/>
            <path id="Trazado_102078" data-name="Trazado 102078" d="M401.8,203.07l46.721,43.741c.7.651.284,2.225-.916,3.507s-2.743,1.8-3.438,1.144l-46.722-43.741a1.617,1.617,0,0,1-.192-1.719,4.173,4.173,0,0,1,.523-1.049,5.73,5.73,0,0,1,.585-.739C399.562,202.933,401.105,202.42,401.8,203.07Z" transform="translate(-397.105 -202.787)" fill="#fff" opacity="0.7"/>
            <path id="Trazado_102079" data-name="Trazado 102079" d="M448.581,247.692c.7.651.284,2.225-.916,3.507s-2.743,1.8-3.438,1.144c-.385-.359.255-1.138.52-2.141l-47.434-43.319a4.173,4.173,0,0,1,.523-1.049l46.727,43.746a5.641,5.641,0,0,1,.58-.744C446.343,247.554,447.886,247.041,448.581,247.692Z" transform="translate(-397.164 -203.667)" opacity="0.3" style="isolation: isolate"/>
          </g>
          <path id="Trazado_102080" data-name="Trazado 102080" d="M409.229,369.636l-3.563.057c-3.62-17-6.18-38.045-7.773-53.918-.249-2.489-.476-4.843-.676-7.04-.092-1.045-.185-2.048-.27-3.015-.427-4.772-.718-8.555-.9-10.894-.128-1.707-.192-2.645-.192-2.645h12.871l-.121,3.278-.4,10.823-.043,1.237-.27,7.147-.448,12.167C411.867,343.964,409.229,369.636,409.229,369.636Z" transform="translate(-361.889 -198.93)" fill="#ebb376"/>
          <path id="Trazado_102081" data-name="Trazado 102081" d="M444.554,368.847l-3.506.661c-7.019-17.544-13.611-40.008-17.9-55.7-.661-2.432-1.273-4.708-1.82-6.77-.028-.107-.05-.206-.078-.306-1.081-4.1-1.913-7.36-2.432-9.43-.4-1.621-.619-2.51-.619-2.51l12.687-2.19.718,5.333,1.06,7.837.206,1.536.718,5.341,1.927,14.322C442.784,343.1,444.554,368.847,444.554,368.847Z" transform="translate(-368.343 -199.051)" fill="#ebb376"/>
          <path id="Trazado_102082" data-name="Trazado 102082" d="M432.916,307.68l-11.335,1.266c-.028-.107-.05-.206-.078-.306-1.081-4.1-1.913-7.36-2.432-9.43l12.786.633Z" transform="translate(-368.594 -200.961)" opacity="0.2" style="isolation: isolate"/>
          <path id="Trazado_102083" data-name="Trazado 102083" d="M408.689,296.533l-.4,10.823-.043,1.237L397.3,309.81c-.092-1.045-.185-2.048-.27-3.015-.427-4.772-.718-8.555-.9-10.894Z" transform="translate(-361.967 -200.005)" opacity="0.2" style="isolation: isolate"/>
          <path id="Trazado_102084" data-name="Trazado 102084" d="M399.742,412.941a6.991,6.991,0,0,1,2.229-1.212h0s2.425-2.406,3.592-9.648l3.174-.828a2.7,2.7,0,0,1,2.888,1.128,1.527,1.527,0,0,1,.2.417,18.493,18.493,0,0,1,.339,2.354,65.43,65.43,0,0,1,.046,7.953h-.574l-.228-4.994c-.085-1.695-1.382.294-1.754,2.118s-1.161,3.768-4.876,3.859C400.446,414.173,398.647,414,399.742,412.941Z" transform="translate(-362.92 -230.416)" fill="#263238"/>
          <path id="Trazado_102085" data-name="Trazado 102085" d="M413.982,401.067c.208-1.695.274-4.642.274-4.642l-7.053.782a13.606,13.606,0,0,1,.149,5.867C410.905,402.142,413.982,401.067,413.982,401.067Z" transform="translate(-365.166 -229.044)" fill="#263238"/>
          <path id="Trazado_102086" data-name="Trazado 102086" d="M440.1,412.941a6.984,6.984,0,0,1,2.229-1.212h0s2.425-2.406,3.592-9.648l3.174-.828a2.7,2.7,0,0,1,2.888,1.128,1.548,1.548,0,0,1,.2.417,18.488,18.488,0,0,1,.339,2.354,65.434,65.434,0,0,1,.046,7.953H452l-.228-4.994c-.085-1.695-1.382.294-1.753,2.118s-1.161,3.768-4.876,3.859C440.8,414.173,439.006,414,440.1,412.941Z" transform="translate(-374.579 -230.416)" fill="#263238"/>
          <path id="Trazado_102087" data-name="Trazado 102087" d="M454.341,401.067c.208-1.695.274-4.642.274-4.642l-7.054.782a13.6,13.6,0,0,1,.15,5.867C451.264,402.142,454.341,401.067,454.341,401.067Z" transform="translate(-376.824 -229.044)" fill="#263238"/>
          <path id="Trazado_102088" data-name="Trazado 102088" d="M426.525,288.04l-13.419,1.714-.519.064-2.759-10.112-.725,10.838-14.379-.754c-6.407-37.6,4.544-46.479,4.544-46.479l19.506,3.925c8.834,15.015,6.732,32.471,6.732,32.471Z" transform="translate(-360.98 -184.813)" fill="#407bff"/>
          <g id="Grupo_56545" data-name="Grupo 56545" transform="translate(44.147)">
            <path id="Trazado_102089" data-name="Trazado 102089" d="M413.1,176.354c0,1.476-.655,2.672-1.463,2.672s-1.463-1.2-1.463-2.672.655-2.673,1.463-2.673S413.1,174.878,413.1,176.354Z" transform="translate(-410.17 -164.699)" fill="none" stroke="#263238" stroke-linecap="round" stroke-linejoin="round" stroke-width="0.5"/>
            <path id="Trazado_102090" data-name="Trazado 102090" d="M423.322,182.694a1,1,0,0,1-.169.124,7.776,7.776,0,0,1-2.725,1.333c-2.882.665-4.85.271-6.134-1.033h-.006c-1.8-1.956-2.249-5.42-1.995-9.6a15.7,15.7,0,0,1,.912-4.88c.007-.014.007-.061.014-.074.026-.053.046-.125.071-.178a5.705,5.705,0,0,1,4.192-3.481,11.564,11.564,0,0,1,2.47-.278C428.1,164.543,429.567,178.04,423.322,182.694Z" transform="translate(-410.764 -162.084)" fill="#ebb376"/>
            <path id="Trazado_102091" data-name="Trazado 102091" d="M423.992,189.949a7.583,7.583,0,0,1-2.725,1.219c-2.882.665-4.85.176-6.134-1.147a8.13,8.13,0,0,0,5.169-.424A4.237,4.237,0,0,1,423.992,189.949Z" transform="translate(-411.604 -169.214)" opacity="0.2" style="isolation: isolate"/>
            <path id="Trazado_102092" data-name="Trazado 102092" d="M425.371,196.643c.5,2.32-2.5,3.266-2.5,3.266-4.915-2.1-5.828-4.713-5.828-4.713,4.1-2.138,2.913-8.188,2.913-8.188l.835.411,5.855,1.146s-1.625,3.118-1.84,3.828c0,.006-.006.014-.006.02C423.7,196.128,425.371,196.643,425.371,196.643Z" transform="translate(-412.155 -168.549)" fill="#ebb376"/>
            <path id="Trazado_102093" data-name="Trazado 102093" d="M413.594,167.725a8.567,8.567,0,0,0,4.966,8.169s2.325,5.936,5.748,6.02c4.667.114,8.78-6.527,7.163-13.29C429.375,159.853,416.088,159.139,413.594,167.725Z" transform="translate(-411.157 -161.224)" fill="#263238"/>
            <path id="Trazado_102094" data-name="Trazado 102094" d="M416.725,178.476c0-.892.718-2.389,2.1-2.186,1.434.21,2.229,3.746-1.295,4.536C417.028,180.94,416.721,180.336,416.725,178.476Z" transform="translate(-412.064 -165.447)" fill="#ebb376"/>
            <path id="Trazado_102095" data-name="Trazado 102095" d="M422.822,161.478s-5.452-1.379-8.465.814c-3.519,2.559-4.853,5.208-.687,9.318,0,0,9.153-2.967,12.2-2.339a32.936,32.936,0,0,1,5.218,1.515C431.726,164.742,425.867,160.242,422.822,161.478Z" transform="translate(-410.434 -161.05)" fill="#263238"/>
            <path id="Trazado_102096" data-name="Trazado 102096" d="M416.4,172.785s1.456,6.59-.812,12.2c0,0,12.941,4.49,17.443,2.052s.375-10.626.187-15.347-2.239-11.7-9.09-10.131S416.4,172.785,416.4,172.785Z" transform="translate(-411.734 -161.133)" fill="#263238"/>
            <line id="Línea_206" data-name="Línea 206" x2="5.468" transform="translate(0 11.233)" fill="none" stroke="#263238" stroke-linecap="round" stroke-linejoin="round" stroke-width="0.5"/>
          </g>
          <path id="Trazado_102097" data-name="Trazado 102097" d="M420.058,298.3l-.519.064-2.759-10.112s5.917-10.105,4.068-15.367C421.111,273.25,427.482,282.7,420.058,298.3Z" transform="translate(-367.932 -193.355)" opacity="0.2" style="isolation: isolate"/>
          <g id="Grupo_56546" data-name="Grupo 56546" transform="translate(34.303 26.688)">
            <path id="Trazado_102098" data-name="Trazado 102098" d="M403.071,199.475s6.507-2.321,16.317.511,10.17,7.01,10.17,7.01a98.936,98.936,0,0,0-7.193,30.034l-25.56-.956S393.756,213.567,403.071,199.475Z" transform="translate(-396.327 -198.58)" fill="#263238"/>
            <path id="Trazado_102099" data-name="Trazado 102099" d="M429.562,206.994a99.019,99.019,0,0,0-7.2,30.038l-25.558-.953a68.574,68.574,0,0,1-.469-7.794,76.245,76.245,0,0,1,.711-11.442c.853-5.9,2.61-12.2,6.023-17.366,0,0,6.507-2.318,16.313.512S429.562,206.994,429.562,206.994Z" transform="translate(-396.329 -198.581)" fill="#fff" opacity="0.2" style="isolation: isolate"/>
          </g>
          <path id="Trazado_102100" data-name="Trazado 102100" d="M402.717,225.22a18.058,18.058,0,0,1-6.379,10.482,76.245,76.245,0,0,1,.711-11.442Z" transform="translate(-362.026 -179.31)" opacity="0.2" style="isolation: isolate"/>
          <path id="Trazado_102101" data-name="Trazado 102101" d="M360.545,194.98l-3.222-4.78s-.5-2.076-1.115-2.55a44.843,44.843,0,0,0-7.56-3.089c-.744.012-.744,4.821,0,5.639s4.647,2.569,5.67,2.747.527,0,.527,0l2.85,5.683Z" transform="translate(-348.09 -167.842)" fill="#ebb376"/>
          <g id="Grupo_56547" data-name="Grupo 56547" transform="translate(6.878 23.678)">
            <path id="Trazado_102102" data-name="Trazado 102102" d="M391.93,198.252A140.477,140.477,0,0,0,372,208.534l-10.4-14.188s-2.808.871-3.842,5.748c0,0,5.343,20.349,12.282,22.365s21.531-5.877,21.531-5.877S395.812,205.977,391.93,198.252Z" transform="translate(-357.762 -194.346)" fill="#263238"/>
            <path id="Trazado_102103" data-name="Trazado 102103" d="M391.93,198.252A140.477,140.477,0,0,0,372,208.534l-10.4-14.188s-2.808.871-3.842,5.748c0,0,5.343,20.349,12.282,22.365s21.531-5.877,21.531-5.877S395.812,205.977,391.93,198.252Z" transform="translate(-357.762 -194.346)" fill="#fff" opacity="0.2" style="isolation: isolate"/>
          </g>
          <g id="Grupo_56548" data-name="Grupo 56548" transform="translate(47.625 26.687)">
            <path id="Trazado_102104" data-name="Trazado 102104" d="M415.06,198.582s2.269,16.239,9.46,16.895,10.409-11.34,9.19-12.8S423.23,198.473,415.06,198.582Z" transform="translate(-415.06 -198.579)" fill="#263238"/>
            <path id="Trazado_102105" data-name="Trazado 102105" d="M415.06,198.582s2.269,16.239,9.46,16.895,10.409-11.34,9.19-12.8S423.23,198.473,415.06,198.582Z" transform="translate(-415.06 -198.579)" fill="#fff" opacity="0.3" style="isolation: isolate"/>
          </g>
        </g>
      </g>
      <g id="Character_1" data-name="Character 1" transform="translate(21.303 139.602)">
        <g id="_Group_" data-name="&lt;Group&gt;">
          <path id="Trazado_102106" data-name="Trazado 102106" d="M55.362,403.711h5.265l.435-12.2H55.791Z" transform="translate(-31.142 -212.372)" fill="#b97964"/>
          <path id="Trazado_102107" data-name="Trazado 102107" d="M60.583,407.809h-6.4a.463.463,0,0,0-.449.362L52.7,412.86a.777.777,0,0,0,.6.921.769.769,0,0,0,.171.017c2.07-.034,3.578-.161,6.177-.161,1.6,0,6.431.168,8.641.168s2.5-2.184,1.594-2.384c-4.059-.885-7.114-2.111-8.413-3.276A1.272,1.272,0,0,0,60.583,407.809Z" transform="translate(-30.368 -217.079)" fill="#263238"/>
          <path id="Trazado_102108" data-name="Trazado 102108" d="M64.263,408.37a.127.127,0,0,1-.094-.107.114.114,0,0,1,.06-.12c.188-.121,1.889-1.166,2.472-.865a.376.376,0,0,1,.214.348.735.735,0,0,1-.261.67,1.575,1.575,0,0,1-1.011.268A6.327,6.327,0,0,1,64.263,408.37Zm.362-.174A2.556,2.556,0,0,0,66.5,408.1a.515.515,0,0,0,.168-.449c-.007-.1-.047-.147-.08-.147a.281.281,0,0,0-.161-.033A5.108,5.108,0,0,0,64.625,408.2Z" transform="translate(-33.685 -216.91)" fill="#407bff"/>
          <path id="Trazado_102109" data-name="Trazado 102109" d="M64.23,407.913a.132.132,0,0,1-.06-.114c.007-.073.134-1.587.744-2.083a.668.668,0,0,1,.529-.161.408.408,0,0,1,.4.328c.107.556-.944,1.715-1.487,2.01H64.3A.111.111,0,0,1,64.23,407.913Zm.844-2.049a2.95,2.95,0,0,0-.623,1.648c.543-.408,1.212-1.286,1.146-1.628-.007-.033-.021-.127-.181-.127h-.06A.431.431,0,0,0,65.075,405.864Z" transform="translate(-33.686 -216.427)" fill="#407bff"/>
          <path id="Trazado_102110" data-name="Trazado 102110" d="M55.873,391.522h5.272l-.228,6.29H55.645Z" transform="translate(-31.224 -212.375)" opacity="0.2" style="isolation: isolate"/>
          <path id="Trazado_102111" data-name="Trazado 102111" d="M93.494,404.462l5.435.574,1.02-11.721-5.434-.574Z" transform="translate(-42.157 -212.727)" fill="#b97964"/>
          <path id="Trazado_102112" data-name="Trazado 102112" d="M98.734,407.574h-6.4a.462.462,0,0,0-.449.361l-1.038,4.689a.776.776,0,0,0,.6.921.763.763,0,0,0,.171.017c2.07-.033,3.578-.161,6.177-.161,1.6,0,6.431.167,8.641.167s2.5-2.183,1.594-2.384c-4.059-.884-7.114-2.11-8.413-3.275A1.271,1.271,0,0,0,98.734,407.574Z" transform="translate(-41.388 -217.012)" fill="#263238"/>
          <path id="Trazado_102113" data-name="Trazado 102113" d="M102.414,408.135a.126.126,0,0,1-.094-.107.115.115,0,0,1,.06-.121c.188-.12,1.889-1.166,2.472-.864a.374.374,0,0,1,.214.348.736.736,0,0,1-.261.67,1.57,1.57,0,0,1-1.011.267A6.284,6.284,0,0,1,102.414,408.135Zm.362-.174a2.56,2.56,0,0,0,1.875-.093.515.515,0,0,0,.168-.449c-.007-.1-.047-.147-.08-.147a.293.293,0,0,0-.161-.033A5.122,5.122,0,0,0,102.776,407.96Z" transform="translate(-44.706 -216.843)" fill="#407bff"/>
          <path id="Trazado_102114" data-name="Trazado 102114" d="M102.381,407.678a.133.133,0,0,1-.06-.114c.007-.074.134-1.588.744-2.084a.671.671,0,0,1,.529-.161.409.409,0,0,1,.4.329c.107.556-.944,1.715-1.487,2.01h-.06A.112.112,0,0,1,102.381,407.678Zm.844-2.049a2.949,2.949,0,0,0-.623,1.648c.543-.409,1.212-1.286,1.146-1.628-.007-.033-.021-.127-.181-.127h-.06A.424.424,0,0,0,103.226,405.628Z" transform="translate(-44.707 -216.359)" fill="#407bff"/>
          <path id="Trazado_102115" data-name="Trazado 102115" d="M94.713,392.741l5.434.574-.531,6.045-5.435-.574Z" transform="translate(-42.356 -212.727)" opacity="0.2" style="isolation: isolate"/>
          <path id="Trazado_102116" data-name="Trazado 102116" d="M57.258,241.05H85.207c2.658,14.512,10.976,65.865,5.008,111.621L80.754,351.5s.876-60.743-7.478-83.2c-.961,12.018-2.1,24.806-3.093,31.61-2.431,16.748-7.637,53.347-7.637,53.347H52.913s1.97-35.033,2.881-51.492C56.789,283.895,57.22,244.719,57.258,241.05Z" transform="translate(-30.434 -168.907)" fill="#263238"/>
          <g id="Grupo_56550" data-name="Grupo 56550" transform="translate(49.152 180.982)">
            <path id="Trazado_102117" data-name="Trazado 102117" d="M102.133,399.088l-11.711-1.742.358-3.243,12.183,1.6Z" transform="translate(-90.422 -394.103)" fill="#407bff"/>
          </g>
          <g id="Grupo_56551" data-name="Grupo 56551" transform="translate(21.909 180.809)">
            <path id="Trazado_102118" data-name="Trazado 102118" d="M63.474,397.475H52.113v-3.4l11.79-.221Z" transform="translate(-52.113 -393.858)" fill="#407bff"/>
          </g>
          <path id="Trazado_102119" data-name="Trazado 102119" d="M81.55,275.33a74.92,74.92,0,0,1,3.122,12.091c.782-10.694-2.345-22.036-2.345-22.036Z" transform="translate(-38.707 -175.937)" opacity="0.2" style="isolation: isolate"/>
          <path id="Trazado_102120" data-name="Trazado 102120" d="M57.653,247.89l-.638,3.376s19.557,2.532,31.724,2.462l-.422-2.321Z" transform="translate(-31.619 -170.883)" fill="#407bff"/>
          <path id="Trazado_102121" data-name="Trazado 102121" d="M113.737,205.759s6.767,21.327,11.392,22.722,16.39-16.206,16.39-16.206,10.543-.1,11.015-.821-2.74-8.145-3.511-8.157-9.95,3.454-10.306,4.033-10.89,10.653-11.4,10.368-4.5-12.975-4.5-12.975Z" transform="translate(-48.005 -158.001)" fill="#b97964"/>
          <path id="Trazado_102122" data-name="Trazado 102122" d="M154.7,214.292a2.263,2.263,0,0,0,.253-.065c-.046-.026-.085-.052-.124-.078A.868.868,0,0,1,154.7,214.292Z" transform="translate(-59.837 -161.136)" fill="#b97964"/>
          <g id="Grupo_56552" data-name="Grupo 56552" transform="translate(61.893 33.164)">
            <path id="Trazado_102123" data-name="Trazado 102123" d="M108.338,198.369l.825,1.52,3.851,7.118.8,1.468,10.8-3.754s-4.488-16.769-6.047-18.484Z" transform="translate(-108.338 -186.237)" fill="#407bff"/>
            <path id="Trazado_102124" data-name="Trazado 102124" d="M108.338,198.369l.825,1.52,3.851,7.118.8,1.468,10.8-3.754s-4.488-16.769-6.047-18.484Z" transform="translate(-108.338 -186.237)" fill="#fff" opacity="0.4" style="isolation: isolate"/>
          </g>
          <path id="Trazado_102125" data-name="Trazado 102125" d="M109.5,203.827l3.851,7.118c2.377-4.676,1.688-11.074,1.688-11.074Z" transform="translate(-46.78 -157.012)" opacity="0.2" style="isolation: isolate"/>
          <g id="Grupo_56553" data-name="Grupo 56553" transform="translate(25.393 25.15)">
            <path id="Trazado_102126" data-name="Trazado 102126" d="M103.74,182.98a22.915,22.915,0,0,0-16.267-7.9c-10.589-.5-13.912.556-17.782,4.01-5.653,5.046-12.675,48.532-12.675,48.532a98.2,98.2,0,0,0,31.729,3.451s.127-12.07,3.946-20.207A225.973,225.973,0,0,0,103.74,182.98Z" transform="translate(-57.012 -174.969)" fill="#407bff"/>
            <path id="Trazado_102127" data-name="Trazado 102127" d="M57.011,227.626a98.29,98.29,0,0,0,31.733,3.455s.014-1.487.2-3.773c.084-1.078.214-2.345.4-3.709.181-1.409.428-2.929.747-4.474.169-.831.363-1.669.578-2.507a33.361,33.361,0,0,1,2.02-5.747q.7-1.5,1.364-2.955c.767-1.688,1.488-3.332,2.163-4.9,1.416-3.306,2.63-6.333,3.644-8.976.727-1.9,1.35-3.6,1.87-5.059.578-1.624,1.033-2.962,1.364-3.955.435-1.318.649-2.04.649-2.04a13.687,13.687,0,0,0-1.143-1.254,23.116,23.116,0,0,0-14.775-6.618c-.117-.014-.234-.02-.351-.026-8.066-.377-11.918.143-15,1.942a16.656,16.656,0,0,0-2.78,2.072,9.6,9.6,0,0,0-1.935,3.027,65.617,65.617,0,0,0-3.228,9.43c-.156.565-.312,1.143-.468,1.728-.695,2.637-1.377,5.449-2.02,8.293-.182.806-.364,1.617-.539,2.423-.267,1.234-.526,2.468-.779,3.682-.636,3.066-1.215,6.04-1.721,8.71-.721,3.844-1.286,7.059-1.624,9.053C57.14,226.834,57.011,227.626,57.011,227.626ZM88.088,175.5c.747.026,1.474.084,2.117.169,2.871.383,7.216,2.663,7.106,3.748s-1.773,3.838-6.02,3.169a10.537,10.537,0,0,1-4.125-1.722c-2.351-1.552-4.059-3.65-4.228-4.331C82.736,175.727,85.5,175.422,88.088,175.5Z" transform="translate(-57.011 -174.969)" fill="#fff" opacity="0.4" style="isolation: isolate"/>
            <path id="Trazado_102128" data-name="Trazado 102128" d="M85.136,196.079S79.51,209.644,78.385,220.9l15.148,1.933s6.8-18.322,8.206-24.053C101.739,198.776,89.638,197.565,85.136,196.079Z" transform="translate(-63.185 -181.067)" fill="#fed55f"/>
            <path id="Trazado_102129" data-name="Trazado 102129" d="M107.066,200.615l2.11.211-1.547,1.2Z" transform="translate(-71.47 -182.377)" fill="#fff" opacity="0.4" style="isolation: isolate"/>
          </g>
          <path id="Trazado_102130" data-name="Trazado 102130" d="M95.468,172.185c1.144,3.272,5.4,4.765,7.64,4.954a3.8,3.8,0,0,0,4.05-2.2s-2.548-1.268-2.3-2.7a6.729,6.729,0,0,1,1.052-2.432,14.046,14.046,0,0,1,.873-1.2l-4.088-8.763C101.782,163.669,98.988,170.962,95.468,172.185Z" transform="translate(-42.727 -145.449)" fill="#b97964"/>
          <path id="Trazado_102131" data-name="Trazado 102131" d="M105.128,165.57a6.588,6.588,0,0,0,2.328,8.326,6.729,6.729,0,0,1,1.052-2.432Z" transform="translate(-45.323 -147.103)" opacity="0.2" style="isolation: isolate"/>
          <g id="Grupo_56556" data-name="Grupo 56556" transform="translate(53.954)">
            <g id="Grupo_56554" data-name="Grupo 56554" transform="translate(12.946 6.598)">
              <path id="Trazado_102132" data-name="Trazado 102132" d="M122,149.363s1.308,7.223-2.463,10.122-4.154-10.605-4.154-10.605Z" transform="translate(-115.38 -148.88)" fill="#b97964"/>
              <path id="Trazado_102133" data-name="Trazado 102133" d="M122,149.363s1.308,7.223-2.463,10.122-4.154-10.605-4.154-10.605Z" transform="translate(-115.38 -148.88)" opacity="0.4" style="isolation: isolate"/>
            </g>
            <path id="Trazado_102134" data-name="Trazado 102134" d="M105.047,165.464a6.587,6.587,0,0,0,7.632,2.337,7.444,7.444,0,0,0,4.417-4.233c1.77-4.487,2.169-15.44-2.616-15.031-3.92.335-7.766-.879-9.767,2.515a7.088,7.088,0,0,0-.983,3.171C103.3,159.422,102.8,162.458,105.047,165.464Z" transform="translate(-98.962 -142.18)" fill="#b97964"/>
            <path id="Trazado_102135" data-name="Trazado 102135" d="M114.606,159.848c-.088.412.112.791.391.83s.545-.274.607-.693-.118-.792-.391-.83S114.67,159.423,114.606,159.848Z" transform="translate(-102.204 -145.249)" fill="#263238"/>
            <path id="Trazado_102136" data-name="Trazado 102136" d="M121.292,160.8c-.088.412.118.793.391.831s.545-.275.607-.693-.118-.792-.391-.83S121.349,160.4,121.292,160.8Z" transform="translate(-104.135 -145.523)" fill="#263238"/>
            <path id="Trazado_102137" data-name="Trazado 102137" d="M118.9,161.068a15.106,15.106,0,0,0,1.5,3.883,2.457,2.457,0,0,1-2.074.09Z" transform="translate(-103.284 -145.803)" fill="#a24e3f"/>
            <path id="Trazado_102138" data-name="Trazado 102138" d="M112.777,157.194a.261.261,0,0,0,.253-.063,2.012,2.012,0,0,1,1.7-.6.248.248,0,0,0,.1-.484h0a2.472,2.472,0,0,0-2.15.732.249.249,0,0,0-.011.351l0,0A.383.383,0,0,0,112.777,157.194Z" transform="translate(-101.631 -144.343)" fill="#263238"/>
            <path id="Trazado_102139" data-name="Trazado 102139" d="M123.855,158.4a.242.242,0,0,0,.144.031.248.248,0,0,0,.164-.309v0a2.472,2.472,0,0,0-1.581-1.64.247.247,0,0,0-.3.174h0a.254.254,0,0,0,.174.305h0a2.009,2.009,0,0,1,1.232,1.318A.256.256,0,0,0,123.855,158.4Z" transform="translate(-104.424 -144.473)" fill="#263238"/>
            <path id="Trazado_102140" data-name="Trazado 102140" d="M113.684,166.918a3.128,3.128,0,0,0,2.655,1.809" transform="translate(-101.944 -147.493)" fill="none" stroke="#263238" stroke-linecap="round" stroke-linejoin="round" stroke-width="0.5"/>
            <g id="Grupo_56555" data-name="Grupo 56555" transform="translate(1.899 6.138)">
              <path id="Trazado_102141" data-name="Trazado 102141" d="M107.417,148.233l.065,2.315a1.714,1.714,0,0,0-1.058,2.069c.559,1.995-.812,4.879-2.4,5.932,0,0,.033-.838-.69-.706s-.934,4.494.245,6.695a12.6,12.6,0,0,1-3.264-6.983c-.69-4.319-.571-7.057.042-9.121Z" transform="translate(-99.845 -148.233)" fill="#b97964"/>
              <path id="Trazado_102142" data-name="Trazado 102142" d="M107.417,148.233l.065,2.315a1.714,1.714,0,0,0-1.058,2.069c.559,1.995-.812,4.879-2.4,5.932,0,0,.033-.838-.69-.706s-.934,4.494.245,6.695a12.6,12.6,0,0,1-3.264-6.983c-.69-4.319-.571-7.057.042-9.121Z" transform="translate(-99.845 -148.233)" opacity="0.4" style="isolation: isolate"/>
            </g>
            <path id="Trazado_102143" data-name="Trazado 102143" d="M99.126,148.52a24.033,24.033,0,0,0,7.585-.465c7.168-1.426,10.215,1.211,10.215,1.211a4.512,4.512,0,0,0,1.49-3.526c-.211-2.064-3.075-2.416-3.075-2.416a5.587,5.587,0,0,0-2.763-3.024c-1.9-.7-3.8,1.055-3.8,1.055s-2.371-2.286-5.127-1.636a4.139,4.139,0,0,0-3.309,4.028s-3.235.331-3.165,1.994S99.126,148.52,99.126,148.52Z" transform="translate(-97.174 -139.602)" fill="#263238"/>
            <ellipse id="Elipse_4155" data-name="Elipse 4155" cx="2.323" cy="2.678" rx="2.323" ry="2.678" transform="translate(10.63 12.267)" fill="none" stroke="#263238" stroke-linecap="round" stroke-linejoin="round" stroke-width="0.5"/>
            <path id="Trazado_102144" data-name="Trazado 102144" d="M124.988,160.087a2.346,2.346,0,1,1-2.323-2.677A2.519,2.519,0,0,1,124.988,160.087Z" transform="translate(-103.867 -144.746)" fill="none" stroke="#263238" stroke-linecap="round" stroke-linejoin="round" stroke-width="0.5"/>
            <path id="Trazado_102145" data-name="Trazado 102145" d="M118.654,160.991s.749-.471,1.2.076" transform="translate(-103.379 -145.726)" fill="none" stroke="#263238" stroke-linecap="round" stroke-linejoin="round" stroke-width="0.5"/>
            <path id="Trazado_102146" data-name="Trazado 102146" d="M109.785,160.389l-4.079-.544a2,2,0,0,0-1.5.405l-.178.139" transform="translate(-99.156 -145.444)" fill="none" stroke="#263238" stroke-linecap="round" stroke-linejoin="round" stroke-width="0.5"/>
            <path id="Trazado_102147" data-name="Trazado 102147" d="M99.812,160.805a4.963,4.963,0,0,0,2.465,2.884c1.555.78,2.665-.533,2.515-2.176-.148-1.459-1.12-3.669-2.822-3.75A2.216,2.216,0,0,0,99.812,160.805Z" transform="translate(-97.9 -144.847)" fill="#b97964"/>
          </g>
          <path id="Trazado_102148" data-name="Trazado 102148" d="M63.322,209.045c6.709-2.786,12.015-14.3,12.015-14.3l-3.812-2.305L66.349,196.6c-.156.565-.312,1.143-.468,1.728-.695,2.637-1.377,5.449-2.02,8.293C63.679,207.428,63.5,208.239,63.322,209.045Z" transform="translate(-33.441 -154.865)" opacity="0.2" style="isolation: isolate"/>
          <path id="Trazado_102149" data-name="Trazado 102149" d="M115.308,215.78l11.581-4.253.328.985-11.581,4.126Z" transform="translate(-48.458 -160.379)" fill="#407bff"/>
          <g id="Grupo_56558" data-name="Grupo 56558" transform="translate(0 79.347)">
            <rect id="Rectángulo_5675" data-name="Rectángulo 5675" width="33.978" height="20.957" transform="translate(3.283) rotate(9.013)" fill="#407bff"/>
            <g id="Grupo_56557" data-name="Grupo 56557" transform="translate(8.346 7.88)">
              <path id="Trazado_102150" data-name="Trazado 102150" d="M39.856,262.261l-6.816,3.533,5.389,5.469" transform="translate(-33.04 -262.261)" fill="none" stroke="#fff" stroke-linecap="round" stroke-linejoin="round" stroke-width="2"/>
              <path id="Trazado_102151" data-name="Trazado 102151" d="M51.789,273.035,58.6,269.5l-5.389-5.469" transform="translate(-38.456 -262.773)" fill="none" stroke="#fff" stroke-linecap="round" stroke-linejoin="round" stroke-width="2"/>
              <line id="Línea_207" data-name="Línea 207" y1="8.495" x2="4.623" transform="translate(7.763 0.883)" fill="none" stroke="#fff" stroke-linecap="round" stroke-linejoin="round" stroke-width="2"/>
            </g>
          </g>
          <path id="Trazado_102152" data-name="Trazado 102152" d="M60.992,183.375s-12.645,12.7-14.373,15.165S41.6,228.363,41.6,228.363s-.695.241-.755.832-.112,8.273,0,8.629,5.934,3.948,6.791,3.094,2.056-9.554,2.056-9.554l-3.069-3s3.573-20.147,5.8-23.407,11.448-10.247,11.448-10.247Z" transform="translate(-26.928 -152.247)" fill="#b97964"/>
          <g id="Grupo_56559" data-name="Grupo 56559" transform="translate(23.25 26.017)">
            <path id="Trazado_102153" data-name="Trazado 102153" d="M74.535,176.188c1.843,3.9.442,12.123-2.955,15.024a99.685,99.685,0,0,1-11.369,8.158L54,191.246s6.6-6.444,10.6-10.156A18.087,18.087,0,0,1,74.535,176.188Z" transform="translate(-53.997 -176.188)" fill="#407bff"/>
            <path id="Trazado_102154" data-name="Trazado 102154" d="M74.535,176.188c1.843,3.9.442,12.123-2.955,15.024a99.685,99.685,0,0,1-11.369,8.158L54,191.246s6.6-6.444,10.6-10.156A18.087,18.087,0,0,1,74.535,176.188Z" transform="translate(-53.997 -176.188)" fill="#fff" opacity="0.4" style="isolation: isolate"/>
          </g>
          <path id="Trazado_102155" data-name="Trazado 102155" d="M53.685,196.626l-.768,1.047,6.482,8.472.916-.656Z" transform="translate(-30.436 -156.075)" fill="#407bff"/>
        </g>
      </g>
    </g>
  </g>
</svg>
