<svg xmlns="http://www.w3.org/2000/svg" width="400" height="312" viewBox="0 0 400 312">
  <g id="Grupo_58556" data-name="Grupo 58556" transform="translate(-180 -21279)">
    <rect id="Rectángulo_5287" data-name="Rectángulo 5287" width="400" height="121" transform="translate(180 21470)" fill="#01549e"/>
    <circle id="Elipse_4134" data-name="Elipse 4134" cx="111" cy="111" r="111" transform="translate(275 21345)" fill="#bfeffc"/>
    <g id="Grupo_54963" data-name="Grupo 54963" transform="translate(204 21279)">
      <g id="OBJECTS" transform="translate(0.001 0)">
        <g id="Grupo_54952" data-name="Grupo 54952" transform="translate(42.273 0)">
          <g id="Grupo_54941" data-name="Grupo 54941" transform="translate(67.329 209.404)">
            <path id="Trazado_101266" data-name="Trazado 101266" d="M275.434,459.761c-2.308,3.089-5.818,4.6-10.41,1.83C257.9,457.3,243.665,416.5,243.665,416.5a25.937,25.937,0,0,1-7.911,8.815l-1.7,11.188s6.668,17.969,11.019,28.028a125.418,125.418,0,0,0,9.38,17.63h23.393S277.4,473.052,275.434,459.761Z" transform="translate(-192.088 -381.465)" fill="#091a2e"/>
            <path id="Trazado_101267" data-name="Trazado 101267" d="M218.091,390.355c13.318-1.315,23.34-8.189,27.818-11.839-1.686-4.309-2.673-6.469-2.673-6.469H199.048s-5.888,6.609-11.551,25.99C210.574,407.4,218.091,390.355,218.091,390.355Z" transform="translate(-182.223 -372.047)" fill="#091a2e"/>
            <path id="Trazado_101268" data-name="Trazado 101268" d="M232.382,408.82s14.239,40.8,21.359,45.092c4.592,2.771,8.1,1.259,10.41-1.83a271.837,271.837,0,0,0-7.3-34.447c-5.15-18.026-9.655-30.472-12.358-37.38-4.478,3.651-14.5,10.524-27.818,11.839,0,0-7.517,17.042-30.594,7.681-1.108,3.794-2.208,8.067-3.253,12.887-6.385,29.44,4.407,61.818,4.407,61.818H212.1s8.532-30.175,10.679-45.658l1.7-11.188A25.937,25.937,0,0,0,232.382,408.82Zm-33.339,52.212c-.735,3.391-4.295,5.82-6.442,5.425s-4.294-12.092-4.859-24.976,3.616-36.673,5.537-36.051,1.356,11.188,1.921,22.263S199.588,458.517,199.043,461.032Z" transform="translate(-180.806 -373.786)" fill="#12263f"/>
            <path id="Trazado_101269" data-name="Trazado 101269" d="M195.13,412.194c-1.921-.622-6.1,23.168-5.537,36.051s2.712,24.58,4.859,24.976,5.708-2.034,6.442-5.425c.545-2.515-3.278-22.263-3.842-33.339S197.052,412.816,195.13,412.194Z" transform="translate(-182.656 -380.55)" fill="#727997"/>
          </g>
          <g id="Grupo_54945" data-name="Grupo 54945" transform="translate(0 22.782)">
            <g id="Grupo_54942" data-name="Grupo 54942" transform="translate(235.038)">
              <path id="Trazado_101270" data-name="Trazado 101270" d="M436.47,149.331c-5.5,3.315-4.747,13.033,3.767,11.678s7.384-8.966,7.384-8.966l18.824-7.894,1.367-2.052-1.167-.161-19.778,8.6S441.969,146.016,436.47,149.331Z" transform="translate(-401.937 -136.673)"/>
              <path id="Trazado_101271" data-name="Trazado 101271" d="M439.281,150.628s1.13,7.609-7.384,8.966-9.267-8.363-3.766-11.678,10.4,1.205,10.4,1.205l19.777-8.6-38.236-5.264-5.124,10.849H393.6c10.376,7.894,28.757,16.69,38.525,15.407,5.65-.742,13.372-5.114,19.636-9.262l6.346-9.518Z" transform="translate(-393.597 -135.258)" fill="#d0d4dd"/>
              <path id="Trazado_101272" data-name="Trazado 101272" d="M393.6,149.024h0l17.054,40.61L427.527,171.8l10.7,3.67,13.533-20.3c-6.263,4.148-13.986,8.521-19.636,9.262C422.355,165.714,403.974,156.918,393.6,149.024Z" transform="translate(-393.597 -138.174)" fill="#acb2bc"/>
            </g>
            <g id="Grupo_54943" data-name="Grupo 54943" transform="translate(214.916 5.3)">
              <path id="Trazado_101273" data-name="Trazado 101273" d="M402.12,158.771c-6.043-10.378-16.433-16.616-18.954-16.783-2.938-.2-10.849,5.243-13.411,7.5s-1.448,6.439-1.448,6.439l7.727,14.945c7.028-1.9,14.341-4.181,17.906-6.24A75.183,75.183,0,0,0,402.12,158.771Z" transform="translate(-368.066 -141.982)" fill="#ffd150"/>
              <path id="Trazado_101274" data-name="Trazado 101274" d="M404.262,163.284a75.165,75.165,0,0,1-8.18,5.864c-3.565,2.059-10.878,4.34-17.906,6.24l12.83,24.814s3.494,2.624,5.853,2.926,11.429-3.014,12.559-5.666,2.411-15.053-2.562-28.691A34.182,34.182,0,0,0,404.262,163.284Z" transform="translate(-370.208 -146.496)" fill="#ffa440"/>
            </g>
            <g id="Grupo_54944" data-name="Grupo 54944" transform="translate(0 15.747)">
              <path id="Trazado_101275" data-name="Trazado 101275" d="M331.76,173.1a45.6,45.6,0,0,0-10.034-13.555c.076,9.619,0,18.51-.476,20.336-1.13,4.295-193.366,91.428-208.849,94.931-7.759,1.756-9.188-1.058-8.413-4.6-3.566,2.068-5.627,3.361-5.826,3.7-2.148,3.616-3.391,8.7-2.487,10.849s5.651,5.2,12.206,3.843,219.81-86.221,228.964-91.932C336.846,196.67,338.089,185.761,331.76,173.1Z" transform="translate(-95.378 -156.151)" fill="#44217c"/>
              <path id="Trazado_101276" data-name="Trazado 101276" d="M114.666,273.9c15.483-3.5,207.718-90.636,208.848-94.931.48-1.825.552-10.716.476-20.335a25.11,25.11,0,0,0-4.545-3.4S141.04,249.136,106.253,269.3C105.478,272.843,106.907,275.657,114.666,273.9Z" transform="translate(-97.642 -155.238)" fill="#803ece"/>
            </g>
          </g>
          <g id="Grupo_54951" data-name="Grupo 54951" transform="translate(35.254)">
            <g id="Grupo_54950" data-name="Grupo 54950">
              <g id="Grupo_54946" data-name="Grupo 54946" transform="translate(4.5)">
                <path id="Trazado_101277" data-name="Trazado 101277" d="M262.848,174.994s9.455-12.846-5.425-18.082a21.322,21.322,0,0,0,5.841-11.87c-1.093-2.911-2.9-5.654-5.916-6.859-7.8-3.119-11.188,0-11.188,0s-.9-5.832-5.764-6.736-8.024,3.278-8.024,3.278-6.724-12.375-19.778-10.511a14.662,14.662,0,0,0-13.223,13.969,5.3,5.3,0,0,0-7.233-.973c-4.351,2.769-2.487,7.719-2.487,7.719s-10.623-4.724-17.63,2.792-2.712,18.081-2.712,18.081-5.537-1.186-7.8,2.487,0,8.363,0,8.363-7.063.057-8.815,5.651,0,8.589,0,8.589-4.3-3.361-5.016-12.133a19.041,19.041,0,0,0-1.764,10.384c1.281,13.8,13.712,15.384,13.712,15.384s-4.295,11.637,10.85,10.49c0,0,1.318,12.941,14.6,11.058,0,0,5.293,7.551,13.58,2.457s9.192-10.519,9.192-10.519,2.9,7.459,10,7.609a9.114,9.114,0,0,0,9-6.178,17.7,17.7,0,0,0,16.562-1.431c8.514-5.425,7.082-14.994,7.082-14.994s8.288,0,13.561-5.876S267.142,178.761,262.848,174.994Zm-27.2-28.4A10.994,10.994,0,0,0,227.512,151s-.413-4.351-4.049-4.972-5.9,2.825-5.9,2.825-1.411-7.459-7.91-4.747c0,0,4.726-6.894,9.266-2.487,0,0,2.2-4.577,7.177-3.164s4.916,5.65,4.916,5.65,9.211-6.724,11.527,7.572C242.543,151.675,240.961,146.364,235.649,146.59Z" transform="translate(-145.818 -110.096)"/>
                <path id="Trazado_101278" data-name="Trazado 101278" d="M153.2,187.148s-1.751-2.995,0-8.589,8.815-5.651,8.815-5.651-2.26-4.689,0-8.363,7.8-2.487,7.8-2.487-4.295-10.567,2.712-18.081,17.63-2.792,17.63-2.792-1.864-4.95,2.487-7.719a5.3,5.3,0,0,1,7.233.973A14.662,14.662,0,0,1,213.1,120.47c13.053-1.865,19.778,10.511,19.778,10.511s3.164-4.182,8.024-3.278,5.764,6.736,5.764,6.736,3.39-3.119,11.188,0c3.011,1.205,4.823,3.948,5.916,6.859a19.765,19.765,0,0,0-.567-7.869c-3.24-11.829-17.479-7.535-17.479-7.535s-1.055-7.158-6.178-8.439-8.589,2.822-8.589,2.822,1.657-15.328-17.479-13.822-19.438,13.822-19.438,13.822-3.993-4.329-8.74-1.767-3.617,8.137-3.617,8.137-14.315-4.068-20.945,8.966,2.26,20.869,2.26,20.869-6.63-1.054-8.287,3.316a5.687,5.687,0,0,0,1.959,6.78,18.953,18.953,0,0,0-8.482,8.436C148.9,183.787,153.2,187.148,153.2,187.148Z" transform="translate(-146.319 -106.352)" fill="#2b2b2b"/>
                <path id="Trazado_101279" data-name="Trazado 101279" d="M248.177,147.91s.057-4.238-4.916-5.65-7.177,3.164-7.177,3.164c-4.54-4.407-9.266,2.487-9.266,2.487,6.5-2.712,7.91,4.747,7.91,4.747s2.26-3.447,5.9-2.825,4.049,4.972,4.049,4.972a10.994,10.994,0,0,1,8.137-4.407c5.312-.226,6.894,5.085,6.894,5.085C257.387,141.186,248.177,147.91,248.177,147.91Z" transform="translate(-162.979 -113.902)" fill="#2b2b2b"/>
              </g>
              <g id="Grupo_54947" data-name="Grupo 54947" transform="translate(0 98.576)">
                <path id="Trazado_101280" data-name="Trazado 101280" d="M224.812,273.2c7.178-1.716,9.928-7.422,10.983-11.515a12.666,12.666,0,0,1-4.032-.162c-1.968-.675-3.406-3.364-4.05-6.313-4.991,1.026-9.192-1.337-12.2-4.06-.827,3.559-1.811,6.812-2.907,8.565-1.245,1.993-3.893,3.7-7.256,5.558C209.139,269.532,216.284,275.239,224.812,273.2Z" transform="translate(-153.931 -235.606)" fill="#c16240"/>
                <path id="Trazado_101281" data-name="Trazado 101281" d="M230.444,251.032a16.2,16.2,0,0,1-.372-3.03c-.1-3.918,1.258-14.767,1.258-14.767l-10.4-1.808s-1.025,8.394-2.688,15.544C221.252,249.694,225.452,252.058,230.444,251.032Z" transform="translate(-156.662 -231.427)" fill="#893820"/>
                <path id="Trazado_101282" data-name="Trazado 101282" d="M222.76,350.836c-4.272,6.333-6.406,15.5-7.36,20.953a48.742,48.742,0,0,0,13.368.519c11.226-1.431,22.527-5.349,23.356-6.931s-.679-21.4-2.561-31.946c-.258-1.448-.484-2.732-.683-3.893C241.622,333.581,229.062,341.493,222.76,350.836Z" transform="translate(-156.06 -252.213)" fill="#ffd150"/>
                <path id="Trazado_101283" data-name="Trazado 101283" d="M273.126,251.375c-1.665.614-3.327,1.178-4.968,1.7a126.145,126.145,0,0,0,16.872-1.7c13.034-2.383,20.794-6.443,20.794-6.443s-2.863,8.054-15.37,14.458c0,0-19.287,9.592-34.959,10.146,0,0,8.411,6.567,8.288,12.457,0,0,27.267-11.754,40-21.247s16.653-18.459,18.16-22.3a50.816,50.816,0,0,0,2.133-6.611S287.289,246.147,273.126,251.375Z" transform="translate(-164.554 -231.513)" fill="#ffa440"/>
                <path id="Trazado_101284" data-name="Trazado 101284" d="M231.049,273.056c15.671-.554,34.959-10.146,34.959-10.146,12.507-6.4,15.37-14.458,15.37-14.458s-7.76,4.06-20.794,6.443a126.161,126.161,0,0,1-16.872,1.7,100.3,100.3,0,0,1-21.74,4.521c-1.055,4.094-3.8,9.8-10.983,11.515-8.528,2.038-15.673-3.67-19.461-7.929-5.538,3.067-13.022,6.571-19.4,12.524-10.247,9.569-28.253,43.02-31.342,50.027s4.972,16.952,11.151,22.791,19.664,10.209,20.945,9.154,7.158-11.377,6.781-12.959-15.22-16.425-15.22-16.425,18.189-20.488,21.906-24.071l6.329-6.1a24.52,24.52,0,0,0,3.955,2.486c2.43,1.244,13.053,2.43,25.428-1.356a53.114,53.114,0,0,0,17.147-9.365,15.03,15.03,0,0,0,.125-1.672v-4.219C239.46,279.623,231.049,273.056,231.049,273.056Z" transform="translate(-140.108 -235.034)" fill="#ffd150"/>
                <path id="Trazado_101285" data-name="Trazado 101285" d="M208.721,313.672a24.522,24.522,0,0,1-3.955-2.486l-6.329,6.1s4.313,9.832,3.861,19.551-5.575,23.13-5.124,24.75c.285,1.022,6.783,3.348,14.358,4.567.954-5.456,3.087-14.62,7.36-20.953,6.3-9.343,18.862-17.255,26.12-21.3-1.255-7.3-1.427-9.216-1.427-9.216s6.709-4.017,7.71-11.739a53.11,53.11,0,0,1-17.147,9.365C221.774,316.1,211.15,314.916,208.721,313.672Z" transform="translate(-152.192 -246.58)" fill="#ffa440"/>
              </g>
              <path id="Trazado_101286" data-name="Trazado 101286" d="M203.414,173.66a12.932,12.932,0,0,1,1.017,7.911c-.961,4.012-5.764,6.668-5.764,6.668s2.185,3.56,3.014,10.962-.641,9.833-.641,9.833-5.029-10-12.883-8.7-6.216,10.68-.9,13.788,10.962,4.012,14.466,0c0,0,2.147,7.233,6.78,9.719s21.642,7.12,26.219,6.894,15.314-9.324,17.178-22.038-5.312-30.4-5.312-30.4a8.4,8.4,0,0,1-8.023,1.921c-4.86-1.356-6.216-7.12-6.216-7.12s-2.995,3.164-4.86,2.825a3.674,3.674,0,0,1-2.712-3.843s-4.182,2.43-8.363.791-4.295-8.024-4.295-8.024S212.228,172.7,203.414,173.66Z" transform="translate(-149.145 -118.744)" fill="#c16240"/>
              <g id="Grupo_54949" data-name="Grupo 54949" transform="translate(39.825 61.674)">
                <g id="Grupo_54948" data-name="Grupo 54948" transform="translate(22.974 24.097)">
                  <path id="Trazado_101287" data-name="Trazado 101287" d="M233.975,235.341a10.6,10.6,0,0,1-7.151-.512c-4.226-1.834-5.978-5.97-6.621-9.744C223.846,224.912,231.533,225.749,233.975,235.341Z" transform="translate(-219.876 -217.275)" fill="#ff888e"/>
                  <path id="Trazado_101288" data-name="Trazado 101288" d="M220.165,215.43c.436-.873,6.707.675,11.192,2.62,3.6,1.56,9.4,4.247,11.548,5.247a1.077,1.077,0,0,1,.578,1.326,9.479,9.479,0,0,1-.5,1.132c-5.455-1.1-16.164-3.738-23.118-8.446A7.631,7.631,0,0,1,220.165,215.43Z" transform="translate(-219.806 -215.18)" fill="#fff"/>
                  <path id="Trazado_101289" data-name="Trazado 101289" d="M219.852,217.88c6.954,4.708,17.663,7.341,23.118,8.446a15.465,15.465,0,0,1-9.082,7.493c-2.442-9.592-10.129-10.429-13.772-10.256A23.992,23.992,0,0,1,219.852,217.88Z" transform="translate(-219.789 -215.752)"/>
                </g>
                <path id="Trazado_101290" data-name="Trazado 101290" d="M251.966,208.868c-1.092.08,1.111,3.562.952,5.009s-1.784,2.349-1.249,2.552,4.9,1.289,4.187-2.051S252.72,208.812,251.966,208.868Z" transform="translate(-203.546 -189.745)" fill="#893820"/>
                <path id="Trazado_101291" data-name="Trazado 101291" d="M252.055,200.056c2.029-.292.567-6.127-1.2-5.646S250.025,200.346,252.055,200.056Z" transform="translate(-203.198 -186.677)"/>
                <path id="Trazado_101292" data-name="Trazado 101292" d="M223.073,203.433c2.029-.292.568-6.127-1.2-5.646S221.043,203.724,223.073,203.433Z" transform="translate(-197.058 -187.392)"/>
                <path id="Trazado_101293" data-name="Trazado 101293" d="M199.315,219.578s-2.54-.154-3.1,1.411,1.548,2.956,1.548,2.956-5.635-.763-6.945-4.37S195.544,213.863,199.315,219.578Z" transform="translate(-190.639 -191.265)" fill="#893820"/>
                <path id="Trazado_101294" data-name="Trazado 101294" d="M255.7,188.732c.538-1.253-2.621-4.407-3.852-4.106s-1.381,1.642-1.109,2.591S254.992,190.37,255.7,188.732Z" transform="translate(-203.347 -184.605)"/>
                <path id="Trazado_101295" data-name="Trazado 101295" d="M218.636,190.432c1.089.82,4.905-1.5,4.906-2.764s-1.267-1.732-2.253-1.694S217.213,189.359,218.636,190.432Z" transform="translate(-196.492 -184.895)"/>
              </g>
            </g>
            <path id="Trazado_101296" data-name="Trazado 101296" d="M188.358,374.588a16.832,16.832,0,0,0,7.773,2.179c4.181,0,7.007-.226,8.928,1.13s6.894,10.679,5.537,11.979-4.407-3.673-6.216-6.1c0,0,3.729,7.572,1.7,9.493s-6.558-7.8-6.558-7.8,3.394,9.154,1.247,10.623-4.182-3.56-5.086-6.1l-.9-2.543a23.233,23.233,0,0,1-7.233-.4c-3.052-.847-4.747-6.329-4.747-6.329Z" transform="translate(-149.152 -163.181)" fill="#c16240"/>
          </g>
          <path id="Trazado_101297" data-name="Trazado 101297" d="M340.257,172.972s-2.11,8.513-6.1,8.438,2.3-10.321,4.068-13.561a10.7,10.7,0,0,1,7.007-5.575c2.637-.6,12.754-.678,12.754-.678l-5.768,3.041s-.7,11.8-3.369,13.232-2.186-6.856-2.186-6.856-1.732,8.777-4.369,9.493S340.257,172.972,340.257,172.972Z" transform="translate(-145.689 -118.056)" fill="#c16240"/>
        </g>
        <g id="Grupo_54956" data-name="Grupo 54956" transform="translate(266.21 105.484)">
          <g id="Grupo_54953" data-name="Grupo 54953" transform="translate(0 2.513)">
            <path id="Trazado_101298" data-name="Trazado 101298" d="M398.156,303.951a4.452,4.452,0,0,0,5.711,2.65l10.353-3.788a4.451,4.451,0,0,0,2.651-5.71l-4.589-12.543-18.714,6.847Zm7.925-7.339a2.4,2.4,0,1,1-1.43,3.082A2.4,2.4,0,0,1,406.08,296.611Z" transform="translate(-382.49 -252.105)" fill="#d0d4dd"/>
            <path id="Trazado_101299" data-name="Trazado 101299" d="M398.5,246.3a4.452,4.452,0,0,0-5.711-2.651l-10.353,3.787a4.453,4.453,0,0,0-2.651,5.711l1.433,3.915,18.715-6.847Z" transform="translate(-379.512 -243.381)" fill="#d0d4dd"/>
            <rect id="Rectángulo_5486" data-name="Rectángulo 5486" width="19.928" height="13.992" transform="translate(6.27 26.162) rotate(-20.096)" fill="#c40a4d"/>
            <rect id="Rectángulo_5487" data-name="Rectángulo 5487" width="19.928" height="13.285" transform="matrix(0.939, -0.344, 0.344, 0.939, 1.705, 13.686)" fill="#ff485e"/>
            <path id="Trazado_101300" data-name="Trazado 101300" d="M410.671,304.323a2.4,2.4,0,1,0-3.082-1.43A2.4,2.4,0,0,0,410.671,304.323Z" transform="translate(-385.429 -255.305)" fill="#2b2b2b"/>
          </g>
          <g id="Grupo_54954" data-name="Grupo 54954" transform="translate(12.071)">
            <path id="Trazado_101301" data-name="Trazado 101301" d="M395.242,291.768a4.451,4.451,0,0,0,2.163,5.913l10,4.642a4.453,4.453,0,0,0,5.913-2.163l5.624-12.114-18.075-8.391Zm10.793.415a2.4,2.4,0,1,1-3.19,1.167A2.4,2.4,0,0,1,406.035,292.182Z" transform="translate(-394.827 -248.553)" fill="#dfe2ea"/>
            <path id="Trazado_101302" data-name="Trazado 101302" d="M436.9,251.162a4.453,4.453,0,0,0-2.164-5.913l-10-4.642a4.451,4.451,0,0,0-5.913,2.163l-1.756,3.781,18.075,8.391Z" transform="translate(-399.538 -240.192)" fill="#fff"/>
            <rect id="Rectángulo_5488" data-name="Rectángulo 5488" width="13.992" height="19.928" transform="translate(6.039 31.101) rotate(-65.096)" fill="#ffa440"/>
            <rect id="Rectángulo_5489" data-name="Rectángulo 5489" width="13.285" height="19.928" transform="translate(11.931 18.41) rotate(-65.096)" fill="#ffd150"/>
            <path id="Trazado_101303" data-name="Trazado 101303" d="M406.107,299.848a2.4,2.4,0,1,0-1.167-3.191A2.4,2.4,0,0,0,406.107,299.848Z" transform="translate(-396.922 -251.86)" fill="#2b2b2b"/>
          </g>
          <g id="Grupo_54955" data-name="Grupo 54955" transform="translate(11.173 22.788)">
            <path id="Trazado_101304" data-name="Trazado 101304" d="M396.611,287.749a4.451,4.451,0,0,0-2.651,5.71l3.788,10.353a4.452,4.452,0,0,0,5.71,2.651L416,301.874l-6.847-18.714Zm7.339,7.925a2.4,2.4,0,1,1-3.082-1.431A2.4,2.4,0,0,1,403.95,295.674Z" transform="translate(-393.688 -272.083)" fill="#fff"/>
            <path id="Trazado_101305" data-name="Trazado 101305" d="M456.577,288.092a4.453,4.453,0,0,0,2.651-5.711l-3.788-10.352a4.452,4.452,0,0,0-5.711-2.651l-3.915,1.432,6.847,18.715Z" transform="translate(-404.731 -269.105)" fill="#fff"/>
            <rect id="Rectángulo_5490" data-name="Rectángulo 5490" width="13.992" height="19.928" transform="translate(15.466 11.077) rotate(-20.096)" fill="#1239c6"/>
            <rect id="Rectángulo_5491" data-name="Rectángulo 5491" width="13.285" height="19.928" transform="translate(28.606 6.269) rotate(-20.096)" fill="#1164f4"/>
            <path id="Trazado_101306" data-name="Trazado 101306" d="M400.943,300.264a2.4,2.4,0,1,0,1.43-3.082A2.4,2.4,0,0,0,400.943,300.264Z" transform="translate(-395.194 -275.023)" fill="#2b2b2b"/>
          </g>
        </g>
        <g id="Grupo_54959" data-name="Grupo 54959" transform="translate(23.468 203.324)">
          <g id="Grupo_54957" data-name="Grupo 54957">
            <path id="Trazado_101307" data-name="Trazado 101307" d="M87.253,364.483a3.724,3.724,0,0,0-4.622,2.528L71.668,404.44a3.726,3.726,0,0,0,2.528,4.622l4.716,1.381,13.057-44.577Z" transform="translate(-71.518 -364.332)" fill="#1164f4"/>
            <path id="Trazado_101308" data-name="Trazado 101308" d="M117.979,373.313l-4.356-1.276-13.056,44.578,4.355,1.275a3.724,3.724,0,0,0,4.622-2.528l10.963-37.428A3.725,3.725,0,0,0,117.979,373.313Z" transform="translate(-77.672 -365.964)" fill="#1164f4"/>
            <rect id="Rectángulo_5492" data-name="Rectángulo 5492" width="46.45" height="13.585" transform="matrix(0.281, -0.96, 0.96, 0.281, 7.395, 46.11)" fill="#d0d4dd"/>
            <rect id="Rectángulo_5493" data-name="Rectángulo 5493" width="46.45" height="2.567" transform="matrix(0.281, -0.96, 0.96, 0.281, 20.432, 49.929)" fill="#4f5359"/>
          </g>
          <g id="Grupo_54958" data-name="Grupo 54958" transform="translate(15.495 19.863)">
            <path id="Trazado_101309" data-name="Trazado 101309" d="M101.194,397.878a5.11,5.11,0,1,0-6.341,3.468A5.11,5.11,0,0,0,101.194,397.878Z" transform="translate(-91.178 -389.915)" fill="#acb2bc"/>
            <path id="Trazado_101310" data-name="Trazado 101310" d="M101.72,396.083a5.11,5.11,0,1,0-6.341,3.468A5.111,5.111,0,0,0,101.72,396.083Z" transform="translate(-91.289 -389.535)" fill="#dfe3ea"/>
            <path id="Trazado_101311" data-name="Trazado 101311" d="M99.363,395.488l-1.151-.337L98.549,394a.465.465,0,1,0-.892-.261l-.337,1.151-1.151-.337a.465.465,0,1,0-.261.892l1.151.337-.337,1.151a.465.465,0,0,0,.893.262l.337-1.151,1.151.337a.465.465,0,1,0,.262-.892Z" transform="translate(-92.109 -390.354)" fill="#acb2bc"/>
          </g>
        </g>
        <g id="Grupo_54960" data-name="Grupo 54960" transform="translate(0 2.775)">
          <path id="Trazado_101312" data-name="Trazado 101312" d="M60.982,204.148a1.181,1.181,0,0,1-.991-.537c-.642-.985-15.656-24.333-11.051-43.345,3-12.386,12.356-15.933,20.61-19.062,4.866-1.845,9.463-3.588,12.667-6.884,4.525-4.656,2.885-12.782-1.229-17.64-1.572-1.858-7.294-7.511-14.875-2.262-4.486,3.106-6.631,7.133-5.886,11.051.485,2.553,2.182,4.653,4.124,5.107a3.126,3.126,0,0,0,3.315-1.409,1.182,1.182,0,1,1,1.887,1.426,5.47,5.47,0,0,1-5.739,2.286c-2.87-.671-5.244-3.471-5.91-6.969-.439-2.307-.649-8.235,6.863-13.437,7.326-5.07,14.115-1.941,18.025,2.678,4.886,5.771,6.642,15.135,1.12,20.815-3.569,3.674-8.63,5.593-13.524,7.448-8.084,3.064-16.442,6.233-19.149,17.408-4.364,18.014,10.583,41.265,10.734,41.5a1.182,1.182,0,0,1-.989,1.828Z" transform="translate(-43.08 -109.873)" fill="#acb2bc"/>
          <path id="Trazado_101313" data-name="Trazado 101313" d="M60.385,223.161,52.592,205.2a16.432,16.432,0,0,0-7.342,6.01c.494,5.246,1.632,12.539,4.243,18.777A45.869,45.869,0,0,1,60.385,223.161Z" transform="translate(-42.484 -130.068)" fill="#d0d4dd"/>
          <path id="Trazado_101314" data-name="Trazado 101314" d="M44.507,212.821c-4.466,6.823-2.7,16.313-.432,23.079a60.622,60.622,0,0,1,4.674-4.3C46.139,225.36,45,218.067,44.507,212.821Z" transform="translate(-41.741 -131.684)" fill="#acb2bc"/>
          <path id="Trazado_101315" data-name="Trazado 101315" d="M81.006,218.76c-4.628-8.517-13.443-19.632-26.292-14.058-.052.022-.1.048-.148.071l7.792,17.965A54.471,54.471,0,0,1,81.006,218.76Z" transform="translate(-44.458 -129.645)" fill="#e6e9ef"/>
          <path id="Trazado_101316" data-name="Trazado 101316" d="M69.967,247.792c-9.77,2.62-15.718-2.468-19.341-9.68a60.619,60.619,0,0,0-4.838,4.466c.349.91.694,1.743,1.013,2.479,3.439,7.929,16.693,21.109,27.868,16.262,9.737-4.224,10.306-19.346,7.914-28.248C82.024,239.183,79.017,245.365,69.967,247.792Z" transform="translate(-42.598 -135.974)" fill="#acb2bc"/>
          <path id="Trazado_101317" data-name="Trazado 101317" d="M51.927,236.571c3.623,7.211,9.571,12.3,19.341,9.68,9.05-2.427,12.057-8.61,12.615-14.722a22.559,22.559,0,0,0-1.048-3.08c-.345-.8-.756-1.693-1.226-2.653a54.647,54.647,0,0,0-18.829,3.988A45.8,45.8,0,0,0,51.927,236.571Z" transform="translate(-43.899 -134.433)" fill="#d0d4dd"/>
          <path id="Trazado_101318" data-name="Trazado 101318" d="M61.828,227.62l-.3-.7a45.869,45.869,0,0,0-10.892,6.821q.476,1.14,1.02,2.225a45.8,45.8,0,0,1,10.853-6.787,54.648,54.648,0,0,1,18.829-3.988c-.352-.718-.74-1.473-1.162-2.249a54.471,54.471,0,0,0-18.648,3.978Z" transform="translate(-43.625 -133.828)" fill="#acb2bc"/>
          <path id="Trazado_101319" data-name="Trazado 101319" d="M49.376,236.645a60.616,60.616,0,0,0-4.674,4.3c.282.84.571,1.642.856,2.388A60.626,60.626,0,0,1,50.4,238.87Q49.852,237.787,49.376,236.645Z" transform="translate(-42.368 -136.731)" fill="#959ba5"/>
        </g>
        <g id="Grupo_54962" data-name="Grupo 54962" transform="translate(244.11 191.166)">
          <rect id="Rectángulo_5494" data-name="Rectángulo 5494" width="55.198" height="55.198" transform="translate(0 6.322) rotate(-6.576)" fill="#ffd150"/>
          <g id="Grupo_54961" data-name="Grupo 54961" transform="translate(6.822 6.405)">
            <path id="Trazado_101320" data-name="Trazado 101320" d="M363.829,394.694l1.924,16.682,2.14-.247-2.152-18.662C365.066,393.248,364.415,394.006,363.829,394.694Z" transform="translate(-360.911 -364.54)" fill="#1164f4"/>
            <path id="Trazado_101321" data-name="Trazado 101321" d="M362.644,364.9l37.715-4.348,2.974,25.8c.813.758,1.639,1.546,2.436,2.32l-3.648-31.644-42,4.842,2.918,25.313c.586-.688,1.237-1.446,1.912-2.226Z" transform="translate(-360.127 -357.033)" fill="#1239c6"/>
            <path id="Trazado_101322" data-name="Trazado 101322" d="M414.949,394.24l1.49,12.918,2.14-.247-1.193-10.351C416.588,395.786,415.762,395,414.949,394.24Z" transform="translate(-371.742 -364.916)" fill="#1164f4"/>
            <path id="Trazado_101323" data-name="Trazado 101323" d="M398.392,387.246c-1.649.393-8.684,10.487-8.684,10.487s-15.7-14.52-16.932-14.039c-.664.259-3.782,3.747-6.521,6.913l2.152,18.662,37.716-4.348L404.633,392C401.783,389.348,399.1,387.078,398.392,387.246Z" transform="translate(-361.425 -362.679)" fill="#2ea1ff"/>
            <path id="Trazado_101324" data-name="Trazado 101324" d="M363.321,365.852l2.312,20.056c2.739-3.166,5.857-6.653,6.521-6.913,1.232-.481,16.932,14.039,16.932,14.039s7.035-10.094,8.684-10.487c.7-.168,3.391,2.1,6.24,4.757l-2.974-25.8Zm25.052,12.764a5.789,5.789,0,1,1,5.087-6.414A5.79,5.79,0,0,1,388.374,378.616Z" transform="translate(-360.804 -357.98)" fill="#1164f4"/>
            <path id="Trazado_101325" data-name="Trazado 101325" d="M392.047,368.612a5.789,5.789,0,1,0,6.414,5.088A5.79,5.79,0,0,0,392.047,368.612Z" transform="translate(-365.803 -359.478)" fill="#ffd150"/>
          </g>
        </g>
      </g>
    </g>
  </g>
</svg>
