<svg xmlns="http://www.w3.org/2000/svg" width="125" height="125" viewBox="0 0 125 125">
  <g id="Grupo_58560" data-name="Grupo 58560" transform="translate(-895 -654)">
    <g id="Elipse_4178" data-name="Elipse 4178" transform="translate(895 654)" fill="#fff" stroke="#01549e" stroke-width="5">
      <circle cx="62.5" cy="62.5" r="62.5" stroke="none"/>
      <circle cx="62.5" cy="62.5" r="60" fill="none"/>
    </g>
    <g id="rompecabezas" transform="translate(922.005 682.033)">
      <path id="Trazado_103712" data-name="Trazado 103712" d="M255.319,342.961h-5.611a1.045,1.045,0,0,0-.914,1.558,4.258,4.258,0,0,1,.567,2.13v.178a4.281,4.281,0,0,1-4.281,4.281h0a4.281,4.281,0,0,1-4.281-4.281v-.178a4.258,4.258,0,0,1,.567-2.13,1.045,1.045,0,0,0-.914-1.558h-5.611a3.017,3.017,0,0,1-3.016-2.938H219.113v20.521h39.223V340.023h0A3.017,3.017,0,0,1,255.319,342.961Z" transform="translate(-188.732 -292.875)" fill="#bfeffc"/>
      <path id="Trazado_103713" data-name="Trazado 103713" d="M315.589,173.023v4.738a1.045,1.045,0,0,1-1.5.942,4.262,4.262,0,0,0-1.909-.449H312a4.281,4.281,0,0,0-4.281,4.281h0A4.281,4.281,0,0,0,312,186.816h.178a4.262,4.262,0,0,0,1.909-.449,1.045,1.045,0,0,1,1.5.942v6.19a3.018,3.018,0,0,0,3.018,3.018h5.611a1.05,1.05,0,0,0,1.81,0h5.611a3.018,3.018,0,0,0,3.018-3.018v-5.467a1.045,1.045,0,0,0-1.5-.942,4.261,4.261,0,0,1-1.909.449h-.178a4.281,4.281,0,0,1-4.281-4.281h0a4.281,4.281,0,0,1,4.281-4.281h.178a4.262,4.262,0,0,1,1.909.449,1.045,1.045,0,0,0,1.5-.942v-5.46a3.017,3.017,0,0,0-3.018-3.018H318.606A3.017,3.017,0,0,0,315.589,173.023Z" transform="translate(-265.051 -146.431)" fill="#fed55f"/>
      <rect id="Rectángulo_6129" data-name="Rectángulo 6129" width="33.886" height="15.643" transform="translate(6.725 8.205)" fill="#01549e"/>
      <path id="Trazado_103714" data-name="Trazado 103714" d="M78.482,98.622a4.258,4.258,0,0,1-.567-2.13v-.178a4.272,4.272,0,0,1,1.612-3.346,4.262,4.262,0,0,0-2.669-.935h0a4.281,4.281,0,0,0-4.281,4.281v.178a4.258,4.258,0,0,0,.567,2.13,1.045,1.045,0,0,1-.914,1.558h5.338A1.045,1.045,0,0,0,78.482,98.622Z" transform="translate(-62.215 -79.271)" fill="#fff"/>
      <path id="Trazado_103715" data-name="Trazado 103715" d="M69.33,130.882a3.005,3.005,0,0,0,.343-1.4v-5.467a1.045,1.045,0,0,0-1.5-.942,4.262,4.262,0,0,1-1.909.449h-.178a4.281,4.281,0,0,1-4.281-4.281h0a4.281,4.281,0,0,1,4.281-4.281h.178a4.262,4.262,0,0,1,1.909.449,1.045,1.045,0,0,0,1.5-.942v-5.46a3.018,3.018,0,0,0-3.018-3.018H61.045a1.045,1.045,0,0,1-.914-1.558,4.258,4.258,0,0,0,.567-2.13v-.178a4.272,4.272,0,0,0-1.612-3.346,4.272,4.272,0,0,0-1.612,3.346v.178a4.258,4.258,0,0,0,.567,2.13,1.045,1.045,0,0,1-.914,1.558H51.518a3.018,3.018,0,0,0-3.018,3.018v5.467a1.045,1.045,0,0,0,1.5.942,4.262,4.262,0,0,1,1.909-.449h.178a4.281,4.281,0,0,1,4.281,4.281h0a4.281,4.281,0,0,1-4.281,4.281h-.178A4.262,4.262,0,0,1,50,123.081a1.045,1.045,0,0,0-1.5.942v5.46a3.018,3.018,0,0,0,3.018,3.018H66.656A3.017,3.017,0,0,0,69.33,130.882Z" transform="translate(-41.775 -85.079)" fill="#bfeffc"/>
      <rect id="Rectángulo_6130" data-name="Rectángulo 6130" width="6.655" height="20.521" transform="translate(33.955 3.327)" fill="#fff"/>
      <path id="Trazado_103716" data-name="Trazado 103716" d="M354.08,39.174h-.4a2.781,2.781,0,0,0,.4-.032,2.759,2.759,0,0,0-2.73-3.244h-2.887a2.772,2.772,0,0,0,2.725-2.27H340.455a15.535,15.535,0,0,0-8.495,2.528l-1.458.952V54.672l.548.381a17.085,17.085,0,0,0,7.04,1.52h1.831a4.521,4.521,0,0,0,4.521-4.521l.04.486h3.871a2.775,2.775,0,1,0,0-5.546h2.887a2.775,2.775,0,1,0,0-5.546h.114A2.772,2.772,0,0,0,354.08,39.174Z" transform="translate(-284.677 -28.963)" fill="#feda9b"/>
      <path id="Trazado_103717" data-name="Trazado 103717" d="M18.039,330.67h.114a2.775,2.775,0,1,1,0-5.546H21.04a2.775,2.775,0,1,1,0-5.546h3.871l.04.486a4.521,4.521,0,0,1,4.521-4.521H31.3a17.082,17.082,0,0,1,4.963.739l-.485-.337a17.085,17.085,0,0,0-9.744-3.051H24.206a4.521,4.521,0,0,0-4.521,4.521l-.04-.486H15.774a2.775,2.775,0,1,0,0,5.546H12.887a2.775,2.775,0,1,0,0,5.546h-.114a2.773,2.773,0,1,0,0,5.546h2.5c0-.042-.006-.082-.006-.124A2.773,2.773,0,0,1,18.039,330.67Z" transform="translate(-8.613 -269.507)" fill="#fff"/>
      <g id="Grupo_57479" data-name="Grupo 57479" transform="translate(6.652 46.035)">
        <path id="Trazado_103718" data-name="Trazado 103718" d="M48.024,462c0,.01,0,.02,0,.03a2.775,2.775,0,0,1,.386-.03Z" transform="translate(-48.018 -443.972)" fill="#feda9b"/>
        <path id="Trazado_103719" data-name="Trazado 103719" d="M55.548,355.567H61.6a15.535,15.535,0,0,0,8.494-2.528l1.458-.952V334.524l-2.576-1.789A17.08,17.08,0,0,0,64.017,332H62.185a4.521,4.521,0,0,0-4.521,4.521l-.04-.486H53.753a2.775,2.775,0,1,0,0,5.546H50.866a2.775,2.775,0,1,0,0,5.546h-.114a2.773,2.773,0,0,0-2.773,2.773c0,.042,0,.083.006.124h.388a2.794,2.794,0,0,0-.386.03,2.771,2.771,0,0,0,2.765,2.619h2.887a2.773,2.773,0,0,0-2.773,2.773c0,.042,0,.083.006.124h4.675Z" transform="translate(-47.979 -331.996)" fill="#feda9b"/>
      </g>
      <rect id="Rectángulo_6131" data-name="Rectángulo 6131" width="6.655" height="20.521" transform="translate(30.38 47.148)" fill="#fff"/>
      <path id="Trazado_103720" data-name="Trazado 103720" d="M70.991,15.255a4.084,4.084,0,0,0-1.156-2.841,4.155,4.155,0,0,0-2.167-6.745A4.157,4.157,0,0,0,63.791,0H50.714a16.874,16.874,0,0,0-8.947,2.562,1.385,1.385,0,0,0-1.158-.624H1.387A1.387,1.387,0,0,0,0,3.327V23.848c0,.009,0,.018,0,.027s0,.035,0,.053V29.4a2.431,2.431,0,0,0,3.51,2.182,2.861,2.861,0,0,1,1.29-.3h.178a2.894,2.894,0,1,1,0,5.789H4.8a2.862,2.862,0,0,1-1.29-.3A2.431,2.431,0,0,0,0,38.944V44.4a4.411,4.411,0,0,0,3.2,4.235,4.042,4.042,0,0,0-.013,3.079A4.188,4.188,0,0,0,0,55.741,4.08,4.08,0,0,0,1.077,58.5,4.156,4.156,0,0,0,3.17,65.327a4.157,4.157,0,0,0,3.876,5.666h13.23a16.874,16.874,0,0,0,8.947-2.562,1.385,1.385,0,0,0,1.158.624H69.6a1.387,1.387,0,0,0,1.387-1.387V47.148c0-.009,0-.018,0-.027s0-.035,0-.053V41.6a2.431,2.431,0,0,0-3.51-2.182,2.861,2.861,0,0,1-1.29.3h-.178a2.894,2.894,0,1,1,0-5.789h.178a2.862,2.862,0,0,1,1.29.3,2.431,2.431,0,0,0,3.51-2.182v-5.46a4.411,4.411,0,0,0-3.2-4.235,4.042,4.042,0,0,0,.013-3.079A4.188,4.188,0,0,0,70.991,15.255ZM66.678,11.1H56.617a1.387,1.387,0,0,1,0-2.773H66.678a1.387,1.387,0,0,1,0,2.773ZM65.331,20.8a1.448,1.448,0,0,1-1.5,1.387H61.306V19.415H63.83A1.449,1.449,0,0,1,65.331,20.8ZM56.77,2.776h7.022a1.387,1.387,0,0,1,0,2.773H56.617a1.387,1.387,0,0,1,0-2.773Zm-6.056,0H52.7a4.15,4.15,0,0,0,.824,4.16,4.155,4.155,0,0,0,1.3,6.524,6.66,6.66,0,0,0-1.4,2.694,9.866,9.866,0,0,0-5.089-3.331A1.387,1.387,0,0,0,47.6,15.5,7.105,7.105,0,0,1,52.28,19.6l.439,1.039a1.386,1.386,0,0,0,2.633-.252l.722-3.4a3.951,3.951,0,0,1,2.458-2.86v8.964A3.138,3.138,0,0,1,55.4,26.223H53.567a15.627,15.627,0,0,1-8.954-2.8L42,21.6V5.72l.981-.641A14.114,14.114,0,0,1,50.714,2.776ZM39.5,41.771h.178a5.613,5.613,0,0,0,2.026-.373v4.364H30.381a1.383,1.383,0,0,0-1.054.487l-.346-.24a4.425,4.425,0,0,0,.3-1.6V38.937a2.431,2.431,0,0,0-3.51-2.182,2.859,2.859,0,0,1-1.29.3h-.178a2.894,2.894,0,0,1,0-5.789h.178a2.862,2.862,0,0,1,1.29.3,2.431,2.431,0,0,0,3.51-2.182V25.235H40.61a1.383,1.383,0,0,0,1.054-.487l.346.24a4.386,4.386,0,0,0-.3,1.6V30.81a5.611,5.611,0,0,0-2.026-.373H39.5a5.667,5.667,0,1,0,0,11.335ZM39.223,4.714V22.461H35.494V13.083a1.387,1.387,0,0,0-2.773,0v9.379H29.033a4.411,4.411,0,0,0-4.152-2.938H19.822a5.674,5.674,0,0,0,.488-2.3v-.178a5.667,5.667,0,0,0-11.335,0v.178a5.674,5.674,0,0,0,.488,2.3H4.4a4.378,4.378,0,0,0-1.631.314V4.714ZM2.773,39.464a5.611,5.611,0,0,0,2.026.373h.178a5.667,5.667,0,1,0,0-11.335H4.8a5.611,5.611,0,0,0-2.026.373V23.928A1.633,1.633,0,0,1,4.4,22.3h5.611a2.446,2.446,0,0,0,2.111-1.218,2.4,2.4,0,0,0,0-2.418,2.888,2.888,0,0,1-.382-1.439v-.178a2.894,2.894,0,1,1,5.789,0v.178a2.889,2.889,0,0,1-.382,1.439,2.4,2.4,0,0,0,0,2.418A2.446,2.446,0,0,0,19.27,22.3H24.88a1.633,1.633,0,0,1,1.631,1.631v4.94a5.611,5.611,0,0,0-2.026-.373h-.178a5.667,5.667,0,0,0,0,11.335h.178a5.613,5.613,0,0,0,2.026-.373v4.936A18.373,18.373,0,0,0,17.424,42H15.593a5.917,5.917,0,0,0-5.6,4.035H4.4A1.633,1.633,0,0,1,2.773,44.4ZM5.66,50.195a1.448,1.448,0,0,1,1.5-1.387H9.685v2.773H7.161A1.449,1.449,0,0,1,5.66,50.195Zm-1.387,4.16H9.685v2.773H4.273a1.391,1.391,0,1,1,0-2.773ZM4.16,59.9H14.221a1.387,1.387,0,1,1,0,2.773H4.16a1.387,1.387,0,1,1,0-2.773Zm1.5,6.933a1.388,1.388,0,0,1,1.387-1.387h7.175a1.387,1.387,0,1,1,0,2.773H7.047A1.388,1.388,0,0,1,5.66,66.833ZM20.277,68.22H18.142a4.15,4.15,0,0,0-.824-4.16,4.154,4.154,0,0,0-1.195-6.47,6.663,6.663,0,0,0,1.446-2.748,9.866,9.866,0,0,0,5.089,3.33,1.387,1.387,0,0,0,.736-2.674,7.105,7.105,0,0,1-4.684-4.105l-.439-1.039a1.386,1.386,0,0,0-2.633.252l-.722,3.4a3.95,3.95,0,0,1-2.458,2.86V47.908a3.138,3.138,0,0,1,3.135-3.135h1.832a15.628,15.628,0,0,1,8.954,2.8l2.617,1.817V65.276l-.981.641A14.114,14.114,0,0,1,20.277,68.22Zm11.491-1.938V48.535H35.65v9.379a1.387,1.387,0,1,0,2.773,0V48.535h3.535a4.411,4.411,0,0,0,4.152,2.938h5.059a5.674,5.674,0,0,0-.488,2.3v.178a5.667,5.667,0,0,0,11.335,0v-.178a5.676,5.676,0,0,0-.488-2.3h5.059a4.378,4.378,0,0,0,1.631-.314V66.282Zm36.45-34.75a5.611,5.611,0,0,0-2.026-.373h-.178a5.667,5.667,0,0,0,0,11.335h.178a5.611,5.611,0,0,0,2.026-.373v4.948A1.633,1.633,0,0,1,66.587,48.7H60.976a2.446,2.446,0,0,0-2.111,1.218,2.4,2.4,0,0,0,0,2.418,2.888,2.888,0,0,1,.382,1.439v.178a2.894,2.894,0,0,1-5.789,0v-.178a2.889,2.889,0,0,1,.382-1.439,2.4,2.4,0,0,0,0-2.418A2.446,2.446,0,0,0,51.721,48.7H46.11a1.633,1.633,0,0,1-1.631-1.631v-6.19a2.431,2.431,0,0,0-3.51-2.182,2.859,2.859,0,0,1-1.29.3H39.5a2.894,2.894,0,0,1,0-5.789h.178a2.862,2.862,0,0,1,1.29.3,2.431,2.431,0,0,0,3.51-2.182V26.6A18.372,18.372,0,0,0,53.567,29H55.4A5.917,5.917,0,0,0,61,24.961h5.587a1.633,1.633,0,0,1,1.631,1.631Zm-1.5-14.891H61.306V13.868h5.411a1.391,1.391,0,1,1,0,2.773Z" fill="#12263f"/>
      <path id="Trazado_103721" data-name="Trazado 103721" d="M234.987,51.075a1.406,1.406,0,0,0,.3.449,1.394,1.394,0,0,0,.211.173,1.479,1.479,0,0,0,.24.128A1.4,1.4,0,0,0,236,51.9a1.378,1.378,0,0,0,.272.026,1.364,1.364,0,0,0,.27-.026,1.4,1.4,0,0,0,.259-.079,1.468,1.468,0,0,0,.24-.128,1.4,1.4,0,0,0,.211-.173,1.327,1.327,0,0,0,.172-.211,1.416,1.416,0,0,0,.128-.238,1.4,1.4,0,0,0,.079-.259,1.339,1.339,0,0,0,0-.542,1.4,1.4,0,0,0-.079-.259,1.485,1.485,0,0,0-.128-.24,1.346,1.346,0,0,0-.383-.383,1.479,1.479,0,0,0-.24-.128,1.4,1.4,0,0,0-.259-.079,1.372,1.372,0,0,0-.542,0,1.4,1.4,0,0,0-.259.079,1.469,1.469,0,0,0-.24.128,1.393,1.393,0,0,0-.211.172,1.392,1.392,0,0,0-.3.451,1.4,1.4,0,0,0-.079.259,1.338,1.338,0,0,0,0,.542A1.4,1.4,0,0,0,234.987,51.075Z" transform="translate(-202.313 -42.339)" fill="#12263f"/>
      <path id="Trazado_103722" data-name="Trazado 103722" d="M259.777,443.7a1.4,1.4,0,0,0-.512-.623,1.5,1.5,0,0,0-.239-.126,1.3,1.3,0,0,0-.259-.079,1.371,1.371,0,0,0-.542,0,1.3,1.3,0,0,0-.259.079,1.456,1.456,0,0,0-.24.126,1.491,1.491,0,0,0-.211.173,1.383,1.383,0,0,0,.211,2.132,1.471,1.471,0,0,0,.24.128,1.3,1.3,0,0,0,.259.079,1.377,1.377,0,0,0,.27.028,1.387,1.387,0,0,0,1.387-1.387,1.375,1.375,0,0,0-.026-.27A1.444,1.444,0,0,0,259.777,443.7Z" transform="translate(-221.46 -381.443)" fill="#12263f"/>
    </g>
  </g>
</svg>
