<svg xmlns="http://www.w3.org/2000/svg" xmlns:xlink="http://www.w3.org/1999/xlink" width="61" height="61" viewBox="0 0 61 61">
  <defs>
    <clipPath id="clip-path">
      <rect id="Rectángulo_5808" data-name="Rectángulo 5808" width="61" height="61" transform="translate(522 2959)" fill="#01549e"/>
    </clipPath>
  </defs>
  <g id="Enmascarar_grupo_75" data-name="Enmascarar grupo 75" transform="translate(-522 -2959)" clip-path="url(#clip-path)">
    <g id="campana-publicitaria" transform="translate(522 2959.133)">
      <path id="Trazado_102429" data-name="Trazado 102429" d="M35.489,19.391l4.043-4.043L40.881,16.7l-4.043,4.043Zm0,0" fill="#01549e"/>
      <path id="Trazado_102430" data-name="Trazado 102430" d="M39.286,23.863l5.525-1.48.493,1.842L39.779,25.7Zm0,0" fill="#01549e"/>
      <path id="Trazado_102431" data-name="Trazado 102431" d="M30.524,16.449,32,10.926l1.841.493-1.48,5.524Zm0,0" fill="#01549e"/>
      <path id="Trazado_102432" data-name="Trazado 102432" d="M15.25,7.359h1.906V18.8H15.25Zm0,0" fill="#01549e"/>
      <path id="Trazado_102433" data-name="Trazado 102433" d="M19.063,7.359h1.906v7.625H19.063Zm0,0" fill="#01549e"/>
      <path id="Trazado_102434" data-name="Trazado 102434" d="M22.875,7.359h1.906v3.813H22.875Zm0,0" fill="#01549e"/>
      <path id="Trazado_102435" data-name="Trazado 102435" d="M43.844,35.953H45.75V47.391H43.844Zm0,0" fill="#01549e"/>
      <path id="Trazado_102436" data-name="Trazado 102436" d="M40.031,39.766h1.906v7.625H40.031Zm0,0" fill="#01549e"/>
      <path id="Trazado_102437" data-name="Trazado 102437" d="M36.219,43.578h1.906v3.813H36.219Zm0,0" fill="#01549e"/>
      <path id="Trazado_102438" data-name="Trazado 102438" d="M59.094,53.109V25.469A4.771,4.771,0,0,0,54.328,20.7H50.516V2.574L46.839,0,44.116,1.906,41.394,0,38.67,1.906,35.948,0,33.225,1.906,30.5,0,27.778,1.906,25.054,0,22.331,1.906,19.607,0,16.883,1.906,14.159,0,10.484,2.574V20.7H6.672a4.771,4.771,0,0,0-4.766,4.766V53.109H0v2.859a4.772,4.772,0,0,0,4.766,4.766H56.234A4.772,4.772,0,0,0,61,55.969V53.109ZM50.516,28.328h1.906V49.3H50.516ZM12.391,3.567l1.77-1.239,2.725,1.906,2.723-1.906,2.724,1.906,2.723-1.906L27.78,4.234,30.5,2.327l2.723,1.906,2.723-1.906L38.67,4.234l2.724-1.906,2.722,1.906L46.84,2.327l1.77,1.239V49.3H12.391Zm-8.578,21.9a2.859,2.859,0,0,1,2.859-2.859h3.813v3.813H6.672V51.2H54.328V26.422H50.516V22.609h3.813a2.859,2.859,0,0,1,2.859,2.859V53.109H34.313v.953a.953.953,0,0,1-.953.953H27.641a.953.953,0,0,1-.953-.953v-.953H3.813Zm6.672,2.859V49.3H8.578V28.328ZM59.094,55.969a2.86,2.86,0,0,1-2.859,2.859H4.766a2.86,2.86,0,0,1-2.859-2.859v-.953H24.944a2.866,2.866,0,0,0,2.7,1.906h5.719a2.866,2.866,0,0,0,2.7-1.906H59.094Zm0,0" fill="#01549e"/>
      <path id="Trazado_102439" data-name="Trazado 102439" d="M39.895,29.186,27.038,16.333l-3.825,9.942-1.878,1.878-4.717,4.719,6.738,6.739L24.7,38.262l3.37,3.369a2.86,2.86,0,1,0,4.045-4.043l-3.369-3.369,1.206-1.205ZM23.357,36.915l-4.043-4.043,2.7-2.7,4.044,4.044Zm7.414,2.022a.953.953,0,1,1-1.348,1.348l-3.37-3.369L27.4,35.571ZM27.4,32.87l-4.044-4.044,1.491-1.491,2.917-7.581,8.71,8.709-7.583,2.914Zm0,0" fill="#01549e"/>
      <path id="Trazado_102440" data-name="Trazado 102440" d="M15.27,36.915l1.348-1.348,4.044,4.043-1.348,1.348Zm0,0" fill="#01549e"/>
    </g>
  </g>
</svg>
