<svg xmlns="http://www.w3.org/2000/svg" xmlns:xlink="http://www.w3.org/1999/xlink" width="61" height="61" viewBox="0 0 61 61">
  <defs>
    <clipPath id="clip-path">
      <rect id="Rectángulo_5820" data-name="Rectángulo 5820" width="61" height="61" transform="translate(765 2959)" fill="#01549e"/>
    </clipPath>
  </defs>
  <g id="Enmascarar_grupo_80" data-name="Enmascarar grupo 80" transform="translate(-765 -2959)" clip-path="url(#clip-path)">
    <g id="documental" transform="translate(762.885 2956.882)">
      <path id="Trazado_102559" data-name="Trazado 102559" d="M62.223,9.254H3.007a.892.892,0,0,0-.892.892V50.193a.892.892,0,0,0,.892.892h1.8L4.4,52.841a2.548,2.548,0,0,0,4.832,1.568l1.389-3.324H54.613L56,54.409a2.548,2.548,0,0,0,4.832-1.568l-.414-1.756h1.8a.892.892,0,0,0,.892-.892V10.146a.892.892,0,0,0-.892-.892ZM54.987,44.288l-4.7-6.22,3.375-4.9a.892.892,0,0,0-.734-1.4h-1.42l3.348-4.862.692,1.009a.886.886,0,0,0,.76,1.346h1.42L53.965,34.73a.892.892,0,0,0,.734,1.4h1.478l-2.93,4.255a.892.892,0,0,0,.734,1.4h5.01v2.508Zm-46.119,0V41.78h3.261l-1.9,2.508Zm-4.977,0V41.78H4.8v2.508ZM58.666,34.82a.892.892,0,0,0-.789-.477H56.4l3.765-5.468a.892.892,0,0,0-.734-1.4h-1.42l3.328-4.831V40H55.681l2.93-4.255a.892.892,0,0,0,.055-.92Zm2.668-14.64a.878.878,0,0,0-.713.36l-3.993,5.8L55.59,24.832a.892.892,0,0,0-1.469,0l-5.046,7.324a.892.892,0,0,0,.734,1.4h1.42l-2.077,3.016-3.645-4.821-.49-.647-4.357-5.759a.923.923,0,0,0-1.422,0L34.883,31.1l-.49.647L28.4,39.67l-1.778-2.35-4.846-6.407a.923.923,0,0,0-1.422,0l-6.247,8.259-2.1-3.044H13.49a.892.892,0,0,0,.734-1.4l-3.762-5.468h1.42a.892.892,0,0,0,.734-1.4L7.572,20.537a.892.892,0,0,0-1.469,0L3.9,23.741V14.16H61.334ZM39.95,27.36l3.728,4.928-1.056,1.4-2.057-1.966a.892.892,0,0,0-1.232,0l-2.055,1.966-1.056-1.4ZM21.067,32.929l3.728,4.928-1.056,1.4-2.056-1.964a.892.892,0,0,0-1.232,0L18.4,39.254l-1.056-1.4ZM3.9,40V36.029l.2-.287a.891.891,0,0,0-.2-1.218V31.416l1.748-2.538a.892.892,0,0,0-.734-1.4H3.9v-.591l2.941-4.271,3.348,4.862H8.765a.892.892,0,0,0-.734,1.4L11.8,34.345H10.318a.892.892,0,0,0-.737,1.4L12.511,40ZM6.585,41.78h.5v2.508h-.5Zm7.806-.026a.877.877,0,0,0,.7-.932l1.125-1.488,1.356,1.792a.891.891,0,0,0,.64.351c.024,0,.048,0,.072,0a.893.893,0,0,0,.616-.247l2.163-2.068,2.164,2.067a.892.892,0,0,0,1.325-.107l1.355-1.792,1.371,1.812-.4.523-1.979,2.616H12.473ZM35.1,33.766l1.355,1.792a.891.891,0,0,0,.64.351c.024,0,.048,0,.072,0a.894.894,0,0,0,.616-.247L39.95,33.6l2.163,2.067a.892.892,0,0,0,1.325-.107l1.356-1.792,7.959,10.522H27.145ZM60.777,41.78h.556v2.508h-.556ZM3.9,11.038H61.334v1.339H3.9ZM7.583,53.721a.764.764,0,0,1-1.45-.47l.51-2.166H8.681Zm51.514-.47a.764.764,0,0,1-1.45.47l-1.1-2.637h2.038Zm2.237-3.95H3.9V46.072H61.334Z" fill="#01549e"/>
      <path id="Trazado_102560" data-name="Trazado 102560" d="M36.033,46.795H29.2a.892.892,0,0,0,0,1.784h6.837a.892.892,0,0,0,0-1.784Z" fill="#01549e"/>
      <path id="Trazado_102561" data-name="Trazado 102561" d="M8.893,46.795H7.814a.892.892,0,0,0,0,1.784h1.08a.892.892,0,1,0,0-1.784Z" fill="#01549e"/>
      <path id="Trazado_102562" data-name="Trazado 102562" d="M48.966,20.975h6.8a2.373,2.373,0,1,0,0-4.746h-6.8a2.373,2.373,0,1,0,0,4.746Zm0-2.962h6.8a.59.59,0,1,1,0,1.179h-6.8a.59.59,0,0,1,0-1.179Z" fill="#01549e"/>
    </g>
  </g>
</svg>
