<svg xmlns="http://www.w3.org/2000/svg" width="125" height="125" viewBox="0 0 125 125">
  <g id="Grupo_58559" data-name="Grupo 58559" transform="translate(-580 -654)">
    <g id="Elipse_4179" data-name="Elipse 4179" transform="translate(580 654)" fill="#fff" stroke="#fed55f" stroke-width="5">
      <circle cx="62.5" cy="62.5" r="62.5" stroke="none"/>
      <circle cx="62.5" cy="62.5" r="60" fill="none"/>
    </g>
    <g id="informacion" transform="translate(603.5 680.198)">
      <path id="Trazado_103698" data-name="Trazado 103698" d="M184.461,69.25h-50.91a3.219,3.219,0,0,1-3.219-3.219V13.219A3.219,3.219,0,0,1,133.551,10h50.91a3.219,3.219,0,0,1,3.219,3.219V66.032A3.219,3.219,0,0,1,184.461,69.25Zm0,0" transform="translate(-110.223 -8.457)" fill="#bfeffc"/>
      <path id="Trazado_103699" data-name="Trazado 103699" d="M131,106v40.734c0,2.045,1.25,3.7,2.792,3.7h51.659c1.542,0,2.792-1.658,2.792-3.7V106Zm0,0" transform="translate(-110.787 -89.645)" fill="#edf2fa"/>
      <path id="Trazado_103700" data-name="Trazado 103700" d="M112.593,222.758l17.286-29.941-3.648-6.318a3.25,3.25,0,0,0-5.629,0L99.667,222.758a3.25,3.25,0,0,0,2.815,4.875h12.926a3.25,3.25,0,0,1-2.815-4.875Zm0,0" transform="translate(-83.917 -156.348)" fill="#fff"/>
      <path id="Trazado_103701" data-name="Trazado 103701" d="M218.014,266.3l-17.286-29.941L183.442,266.3a3.25,3.25,0,0,0,2.815,4.875H215.2a3.25,3.25,0,0,0,2.815-4.875Zm0,0" transform="translate(-154.765 -199.886)" fill="#fed55f"/>
      <path id="Trazado_103702" data-name="Trazado 103702" d="M73.754,0H5.246A5.252,5.252,0,0,0,0,5.246V57.09a5.252,5.252,0,0,0,5.246,5.246H16.321l-1.906,3.3a4.793,4.793,0,0,0,4.151,7.19H60.434a4.793,4.793,0,0,0,4.151-7.19l-1.906-3.3H73.754A5.252,5.252,0,0,0,79,57.09V5.246A5.252,5.252,0,0,0,73.754,0ZM5.246,3.086H73.754a2.163,2.163,0,0,1,2.16,2.16v9.566H3.086V5.246A2.163,2.163,0,0,1,5.246,3.086Zm56.667,65.8a1.677,1.677,0,0,1-1.478.853H18.566a1.707,1.707,0,0,1-1.478-2.561L38.022,30.922a1.707,1.707,0,0,1,2.957,0L61.913,67.181A1.678,1.678,0,0,1,61.913,68.889ZM73.754,59.25H60.9L43.651,29.379a4.793,4.793,0,0,0-8.3,0L18.1,59.25H5.246a2.163,2.163,0,0,1-2.16-2.16V17.9H75.914V57.09a2.163,2.163,0,0,1-2.16,2.16Zm0,0" fill="#12263f"/>
      <path id="Trazado_103703" data-name="Trazado 103703" d="M223.875,55.418h33.277a1.543,1.543,0,0,0,0-3.086H223.875a1.543,1.543,0,0,0,0,3.086Zm0,0" transform="translate(-188.027 -44.257)" fill="#12263f"/>
      <path id="Trazado_103704" data-name="Trazado 103704" d="M55.543,55.414a1.543,1.543,0,1,0-1.091-.452A1.548,1.548,0,0,0,55.543,55.414Zm0,0" transform="translate(-45.668 -44.254)" fill="#12263f"/>
      <path id="Trazado_103705" data-name="Trazado 103705" d="M99.871,55.414a1.541,1.541,0,1,0-1.09-.45A1.552,1.552,0,0,0,99.871,55.414Zm0,0" transform="translate(-83.156 -44.254)" fill="#12263f"/>
      <path id="Trazado_103706" data-name="Trazado 103706" d="M144.215,55.414a1.543,1.543,0,1,0-1.091-.452A1.546,1.546,0,0,0,144.215,55.414Zm0,0" transform="translate(-120.658 -44.254)" fill="#12263f"/>
      <path id="Trazado_103707" data-name="Trazado 103707" d="M247.688,289.777a1.543,1.543,0,0,0-1.543,1.543v11.733a1.543,1.543,0,0,0,3.086,0V291.32A1.544,1.544,0,0,0,247.688,289.777Zm0,0" transform="translate(-208.166 -245.065)" fill="#12263f"/>
      <path id="Trazado_103708" data-name="Trazado 103708" d="M247.684,406.871a1.543,1.543,0,1,0,1.091.452A1.555,1.555,0,0,0,247.684,406.871Zm0,0" transform="translate(-208.162 -344.092)" fill="#12263f"/>
      <path id="Trazado_103709" data-name="Trazado 103709" d="M69.824,142H52.543a1.543,1.543,0,0,0,0,3.086H69.824a1.543,1.543,0,1,0,0-3.086Zm0,0" transform="translate(-43.131 -120.09)" fill="#12263f"/>
      <path id="Trazado_103710" data-name="Trazado 103710" d="M205.215,142a1.544,1.544,0,1,0,1.09.452A1.559,1.559,0,0,0,205.215,142Zm0,0" transform="translate(-172.246 -120.09)" fill="#12263f"/>
      <path id="Trazado_103711" data-name="Trazado 103711" d="M65.5,188H52.543a1.543,1.543,0,0,0,0,3.086H65.5a1.543,1.543,0,0,0,0-3.086Zm0,0" transform="translate(-43.131 -158.992)" fill="#12263f"/>
    </g>
  </g>
</svg>
