<svg xmlns="http://www.w3.org/2000/svg" width="125" height="125" viewBox="0 0 125 125">
  <g id="Grupo_58561" data-name="Grupo 58561" transform="translate(-1210 -654)">
    <g id="Elipse_4180" data-name="Elipse 4180" transform="translate(1210 654)" fill="#fff" stroke="#fed55f" stroke-width="5">
      <circle cx="62.5" cy="62.5" r="62.5" stroke="none"/>
      <circle cx="62.5" cy="62.5" r="60" fill="none"/>
    </g>
    <g id="corazon" transform="translate(1232.092 643.499)">
      <path id="Trazado_103724" data-name="Trazado 103724" d="M-4816.5-11005.593c-3.7-3.993-6.1-3.042-3.5,11.407s3.5,42.586,3.5,42.586,27.9-11.407,35.5-26.046c13.2-26.236-15-38.214-21-34.981C-4812.2-11011.486-4810.5-11008.777-4816.5-11005.593Z" transform="translate(4856.908 11056.501)" fill="#bfeffc"/>
      <path id="Trazado_103723" data-name="Trazado 103723" d="M57.132,41.957a23.4,23.4,0,0,0-16.724,6.974,23.4,23.4,0,0,0-16.723-6.974A23.812,23.812,0,0,0,0,65.84c0,9.511,2.7,16.954,8.485,23.424,5.2,5.814,13.176,11.154,25.853,17.315,1.36.66,5.29,2.744,5.33,2.765a1.578,1.578,0,0,0,1.479,0c.039-.021,3.971-2.1,5.333-2.765,12.675-6.161,20.648-11.5,25.85-17.315,5.789-6.47,8.485-13.912,8.485-23.424A23.811,23.811,0,0,0,57.132,41.957ZM45.1,103.738c-1.053.511-3.467,1.778-4.694,2.425-1.226-.647-3.639-1.914-4.691-2.424C11.373,91.908,3.157,82.345,3.157,65.84A20.651,20.651,0,0,1,23.686,45.114a20.273,20.273,0,0,1,14.656,6.218,2.9,2.9,0,0,0,2.067.867h0a2.892,2.892,0,0,0,2.066-.868,20.276,20.276,0,0,1,14.657-6.217A20.65,20.65,0,0,1,77.659,65.84c0,16.5-8.216,26.068-32.557,37.9Z" fill="#12263f"/>
    </g>
  </g>
</svg>
