<svg xmlns="http://www.w3.org/2000/svg" xmlns:xlink="http://www.w3.org/1999/xlink" width="61" height="61" viewBox="0 0 61 61">
  <defs>
    <clipPath id="clip-path">
      <rect id="Rectángulo_5832" data-name="Rectángulo 5832" width="61" height="61" transform="translate(1266 2959)" fill="#01549e"/>
    </clipPath>
  </defs>
  <g id="Enmascarar_grupo_89" data-name="Enmascarar grupo 89" transform="translate(-1266 -2959)" clip-path="url(#clip-path)">
    <g id="microphone" transform="translate(1266 2959)">
      <path id="Trazado_102622" data-name="Trazado 102622" d="M49.38,25.717V16.943a2.686,2.686,0,0,0-5.372,0V21.85h-2.3V11.207a11.21,11.21,0,0,0-16.463-9.9.9.9,0,0,0,.841,1.581,9.42,9.42,0,0,1,13.783,7.367h-2.63a.9.9,0,1,0,0,1.791h2.678v2.847H37.238a.9.9,0,1,0,0,1.791h2.678v2.848H37.238a.9.9,0,1,0,0,1.791h2.678v2.847H37.238a.9.9,0,1,0,0,1.791h2.63a9.416,9.416,0,0,1-18.736,0h2.63a.9.9,0,1,0,0-1.791H21.084V21.322h2.678a.9.9,0,1,0,0-1.791H21.084V16.683h2.678a.9.9,0,1,0,0-1.791H21.084V12.045h2.678a.9.9,0,1,0,0-1.791H21.134A9.391,9.391,0,0,1,23.5,4.9a.9.9,0,0,0-1.33-1.2,11.183,11.183,0,0,0-2.881,7.5V21.85h-2.3V16.943a2.686,2.686,0,0,0-5.372,0v8.775a18.91,18.91,0,0,0,15.644,18.6V55.187h-8.1a2.907,2.907,0,1,0,0,5.813h3.978a.9.9,0,0,0,0-1.791H19.167a1.116,1.116,0,1,1,0-2.232H41.833a1.116,1.116,0,1,1,0,2.232H26.727a.9.9,0,0,0,0,1.791H41.833a2.907,2.907,0,1,0,0-5.813h-8.1V44.319a18.91,18.91,0,0,0,15.644-18.6Zm-35.97,0V16.943a.9.9,0,1,1,1.791,0v8.775A15.293,15.293,0,0,0,39.162,38.322a.9.9,0,0,0-1.016-1.474A13.5,13.5,0,0,1,16.992,25.717V23.64h2.3v1.367a11.207,11.207,0,1,0,22.413,0V23.64h2.3v2.077a13.489,13.489,0,0,1-3.349,8.893.9.9,0,1,0,1.347,1.18A15.278,15.278,0,0,0,45.8,25.717V16.943a.9.9,0,0,1,1.791,0v8.775a17.09,17.09,0,0,1-34.18,0ZM31.946,55.187H29.055V44.543q.716.055,1.445.055t1.445-.055Z" fill="#01549e"/>
    </g>
  </g>
</svg>
