<svg xmlns="http://www.w3.org/2000/svg" xmlns:xlink="http://www.w3.org/1999/xlink" width="61" height="61" viewBox="0 0 61 61">
  <defs>
    <clipPath id="clip-path">
      <rect id="Rectángulo_5826" data-name="Rectángulo 5826" width="61" height="61" transform="translate(1016 2959)" fill="#01549e"/>
    </clipPath>
  </defs>
  <g id="Enmascarar_grupo_84" data-name="Enmascarar grupo 84" transform="translate(-1016 -2959)" clip-path="url(#clip-path)">
    <g id="newspaper" transform="translate(1016 2961.275)">
      <path id="Trazado_102587" data-name="Trazado 102587" d="M57.921,0H13.291a3.082,3.082,0,0,0-3.079,3.079V7.753H3.079A3.083,3.083,0,0,0,0,10.832V50.451a6.006,6.006,0,0,0,5.957,6H37.609a.894.894,0,1,0,0-1.787H10.268A5.98,5.98,0,0,0,12,50.451v-20.9a.894.894,0,0,0-1.787,0v20.9a4.217,4.217,0,0,1-4.19,4.212H6a4.217,4.217,0,0,1-4.213-4.211V10.832A1.294,1.294,0,0,1,3.079,9.54h7.134V26.219a.894.894,0,0,0,1.787,0V3.079a1.293,1.293,0,0,1,1.291-1.292h44.63a1.293,1.293,0,0,1,1.292,1.292V50.451A4.217,4.217,0,0,1,55,54.663H40.945a.894.894,0,1,0,0,1.787H55a6.006,6.006,0,0,0,6-6V3.079A3.083,3.083,0,0,0,57.921,0Zm0,0" fill="#01549e"/>
      <path id="Trazado_102588" data-name="Trazado 102588" d="M19.577,35.654H31.832a2.117,2.117,0,0,0,2.114-2.114V21.285a2.117,2.117,0,0,0-2.114-2.114H19.577a2.117,2.117,0,0,0-2.114,2.114V33.54A2.117,2.117,0,0,0,19.577,35.654ZM19.25,21.285a.327.327,0,0,1,.327-.327H31.832a.328.328,0,0,1,.327.327V33.54a.328.328,0,0,1-.327.327H19.577a.328.328,0,0,1-.327-.327Zm0,0" fill="#01549e"/>
      <path id="Trazado_102589" data-name="Trazado 102589" d="M37.195,20.958H53.779a.894.894,0,1,0,0-1.787H37.195a.894.894,0,1,0,0,1.787Zm0,0" fill="#01549e"/>
      <path id="Trazado_102590" data-name="Trazado 102590" d="M37.195,28.306H53.779a.894.894,0,1,0,0-1.787H37.195a.894.894,0,1,0,0,1.787Zm0,0" fill="#01549e"/>
      <path id="Trazado_102591" data-name="Trazado 102591" d="M37.195,35.654H53.779a.894.894,0,1,0,0-1.787H37.195a.894.894,0,1,0,0,1.787Zm0,0" fill="#01549e"/>
      <path id="Trazado_102592" data-name="Trazado 102592" d="M18.356,43H53.779a.894.894,0,1,0,0-1.787H18.356a.894.894,0,1,0,0,1.787Zm0,0" fill="#01549e"/>
      <path id="Trazado_102593" data-name="Trazado 102593" d="M18.356,50.351H53.779a.894.894,0,1,0,0-1.787H18.356a.894.894,0,1,0,0,1.787Zm0,0" fill="#01549e"/>
      <path id="Trazado_102594" data-name="Trazado 102594" d="M17.486,14.6V5.156a.482.482,0,0,1,.276-.444,1.365,1.365,0,0,1,.669-.153,1.415,1.415,0,0,1,.8.189,2.365,2.365,0,0,1,.611.814l2.808,5.427V5.142a.468.468,0,0,1,.276-.437,1.61,1.61,0,0,1,1.338,0,.468.468,0,0,1,.276.437V14.6a.486.486,0,0,1-.284.437,1.32,1.32,0,0,1-.662.16,1.136,1.136,0,0,1-1.091-.6L19.377,8.749V14.6a.486.486,0,0,1-.283.437,1.463,1.463,0,0,1-1.331,0,.486.486,0,0,1-.277-.437Zm0,0" fill="#01549e"/>
      <path id="Trazado_102595" data-name="Trazado 102595" d="M26.288,14.6V5.156a.5.5,0,0,1,.248-.437,1.047,1.047,0,0,1,.582-.16H32.3a.491.491,0,0,1,.444.248,1.057,1.057,0,0,1,.153.567,1.076,1.076,0,0,1-.16.6.5.5,0,0,1-.437.247H28.179v2.91h2.212a.509.509,0,0,1,.437.226.894.894,0,0,1,.16.531.877.877,0,0,1-.153.5.5.5,0,0,1-.444.225H28.179v2.925H32.3a.5.5,0,0,1,.437.247,1.077,1.077,0,0,1,.16.6,1.057,1.057,0,0,1-.153.567.49.49,0,0,1-.444.247H27.117a1.046,1.046,0,0,1-.582-.16.5.5,0,0,1-.248-.437Zm0,0" fill="#01549e"/>
      <path id="Trazado_102596" data-name="Trazado 102596" d="M33.839,5.316a.637.637,0,0,1,.393-.531,1.614,1.614,0,0,1,.814-.226q.524,0,.625.378l2.3,7.886L39.207,7.76q.131-.524.931-.524t.917.524l1.237,5.063,2.3-7.886q.1-.378.626-.378a1.615,1.615,0,0,1,.814.226.637.637,0,0,1,.393.531.557.557,0,0,1-.029.175l-2.881,9.151q-.219.641-1.237.64a1.793,1.793,0,0,1-.786-.168.707.707,0,0,1-.422-.473l-.931-3.928-.946,3.928a.708.708,0,0,1-.422.473,1.793,1.793,0,0,1-.786.168,1.827,1.827,0,0,1-.8-.168.755.755,0,0,1-.437-.473L33.867,5.491a.544.544,0,0,1-.029-.175Zm0,0" fill="#01549e"/>
      <path id="Trazado_102597" data-name="Trazado 102597" d="M46.9,13.521a1.133,1.133,0,0,1,.255-.677.719.719,0,0,1,.575-.342.745.745,0,0,1,.429.182,4.944,4.944,0,0,1,.465.4,2.136,2.136,0,0,0,.648.4,2.33,2.33,0,0,0,.931.181,2.005,2.005,0,0,0,1.164-.32,1.072,1.072,0,0,0,.465-.945,1.269,1.269,0,0,0-.255-.779,2.025,2.025,0,0,0-.669-.567Q50.5,10.83,50,10.619t-1-.473a5.807,5.807,0,0,1-.916-.589,2.354,2.354,0,0,1-.669-.873,2.9,2.9,0,0,1-.255-1.244,2.936,2.936,0,0,1,.313-1.381,2.379,2.379,0,0,1,.836-.93,3.913,3.913,0,0,1,1.12-.487A5.015,5.015,0,0,1,50.7,4.486a6.518,6.518,0,0,1,.8.053,7.4,7.4,0,0,1,.895.172,1.883,1.883,0,0,1,.771.373.765.765,0,0,1,.3.6,1.324,1.324,0,0,1-.2.67.619.619,0,0,1-.553.346A2.738,2.738,0,0,1,52,6.421,2.98,2.98,0,0,0,50.7,6.145a2.11,2.11,0,0,0-1.215.3A.976.976,0,0,0,49.406,8a2.738,2.738,0,0,0,.866.509q.516.2,1.12.495a9.58,9.58,0,0,1,1.12.647,2.717,2.717,0,0,1,.866,1.011,3.279,3.279,0,0,1,.349,1.55,2.859,2.859,0,0,1-.953,2.3,3.743,3.743,0,0,1-2.51.811,4.688,4.688,0,0,1-2.371-.568q-.99-.566-.989-1.236Zm0,0" fill="#01549e"/>
    </g>
  </g>
</svg>
