<svg xmlns="http://www.w3.org/2000/svg" xmlns:xlink="http://www.w3.org/1999/xlink" width="61" height="61" viewBox="0 0 61 61">
  <defs>
    <clipPath id="clip-path">
      <rect id="Rectángulo_5678" data-name="Rectángulo 5678" width="61" height="61" transform="translate(274 2959)" fill="#01549e"/>
    </clipPath>
  </defs>
  <g id="Enmascarar_grupo_67" data-name="Enmascarar grupo 67" transform="translate(-274 -2959)" clip-path="url(#clip-path)">
    <g id="ciencia-ficcion" transform="translate(274 2959)">
      <path id="Trazado_102158" data-name="Trazado 102158" d="M31.691,20.963A1.191,1.191,0,0,0,30.5,19.771c-1.914,0-8.307.5-10.2,6.87a1.191,1.191,0,0,0,2.284.68c1.388-4.664,6-5.167,7.921-5.167a1.192,1.192,0,0,0,1.191-1.192Z" fill="#01549e"/>
      <path id="Trazado_102159" data-name="Trazado 102159" d="M56.055,4.938A8.276,8.276,0,0,0,49.523,2.52C47.25.941,43.561-1.1,41.734.726c-1.214,1.212-.892,3.437.926,6.456A8.341,8.341,0,0,0,53.813,18.333c1.916,1.154,4.868,2.516,6.455.927,1.827-1.827-.215-5.517-1.794-7.789a8.277,8.277,0,0,0-2.418-6.533ZM43.422,2.415c.2-.083,1.15-.056,2.994.964a8.331,8.331,0,0,0-2.155,1.56l-.081.084C43.346,3.4,43.347,2.6,43.422,2.415Zm2.524,12.634a5.947,5.947,0,0,1-1.621-5.441,38.1,38.1,0,0,0,3.306,3.755,38.108,38.108,0,0,0,3.755,3.306A5.947,5.947,0,0,1,45.946,15.049Zm7.9.467a33.893,33.893,0,0,1-4.529-3.837,33.883,33.883,0,0,1-3.838-4.529,5.958,5.958,0,1,1,8.366,8.367Zm4.734,2.057c-.182.074-.987.076-2.607-.758l.083-.081a8.331,8.331,0,0,0,1.56-2.155C58.635,16.422,58.662,17.37,58.579,17.572Z" fill="#01549e"/>
      <path id="Trazado_102160" data-name="Trazado 102160" d="M18.586,12.623a1.191,1.191,0,0,0,1.191-1.191V10.24h1.191a1.191,1.191,0,0,0,0-2.383H19.777V6.666a1.191,1.191,0,0,0-2.383,0V7.857H16.2a1.191,1.191,0,0,0,0,2.383h1.191v1.191A1.191,1.191,0,0,0,18.586,12.623Z" fill="#01549e"/>
      <path id="Trazado_102161" data-name="Trazado 102161" d="M9.055,24.537a1.191,1.191,0,0,0,1.191-1.191V22.154h1.191a1.191,1.191,0,1,0,0-2.383H10.246V18.58a1.191,1.191,0,0,0-2.383,0v1.191H6.672a1.191,1.191,0,0,0,0,2.383H7.863v1.191A1.191,1.191,0,0,0,9.055,24.537Z" fill="#01549e"/>
      <circle id="Elipse_4156" data-name="Elipse 4156" cx="1.191" cy="1.191" r="1.191" transform="translate(14.654 56.228)" fill="#01549e"/>
      <path id="Trazado_102162" data-name="Trazado 102162" d="M59.809,56.228H58.162l-2.054-4.107a1.191,1.191,0,0,0-1.066-.659,49.272,49.272,0,0,1-9.875-1l-2.814-.624-4.2-8.99c1.06-.106,2.1-.234,3.1-.384a3.574,3.574,0,0,0,7.121-.437V38.86c4.681-1.519,7.148-3.578,7.148-5.983,0-2.862-3.559-5.259-10.044-6.785-1.74-7.072-7.722-11.086-14.976-11.086S17.264,19.02,15.524,26.092C9.04,27.618,5.48,30.015,5.48,32.877c0,2.405,2.468,4.465,7.148,5.983v1.165a3.574,3.574,0,0,0,7.121.437c1,.15,2.041.278,3.1.384l-4.2,8.99-2.815.624a49.276,49.276,0,0,1-9.875,1,1.191,1.191,0,0,0-1.066.659L2.838,56.228H1.191a1.191,1.191,0,0,0,0,2.383h9.293a1.191,1.191,0,1,0,0-2.383H5.5L6.7,53.84a50.667,50.667,0,0,0,9.651-1.054c4.713-.987,5.318-1.323,7-1.323,3.229,0,5.957,1.637,5.957,3.574a1.191,1.191,0,0,0,2.383,0c0-1.937,2.728-3.574,5.957-3.574,1.685,0,2.289.335,7,1.323A50.671,50.671,0,0,0,54.3,53.84L55.5,56.228H35.266a1.192,1.192,0,0,0-.842.349l-2.034,2.034H28.611l-2.034-2.034a1.192,1.192,0,0,0-.842-.349H21.207a1.191,1.191,0,0,0,0,2.383h4.034l2.034,2.034a1.192,1.192,0,0,0,.842.349h4.766a1.192,1.192,0,0,0,.842-.349l2.034-2.034H59.809a1.191,1.191,0,0,0,0-2.383Zm-13.82-16.2a1.191,1.191,0,0,1-2.381.035c.827-.16,1.622-.334,2.381-.523ZM30.5,17.388c7.293,0,12.713,4.535,13.085,12.236A49.339,49.339,0,0,1,30.5,31.685a49.448,49.448,0,0,1-13.085-2.062C17.788,21.917,23.214,17.388,30.5,17.388ZM16.2,41.216a1.193,1.193,0,0,1-1.191-1.191v-.488q1.138.283,2.381.523A1.192,1.192,0,0,1,16.2,41.216Zm-8.34-8.34c0-1.208,2.252-2.917,7.233-4.224-.056.6-.084,1.216-.084,1.841a1.191,1.191,0,0,0,.809,1.128A51.544,51.544,0,0,0,30.5,34.068a51.544,51.544,0,0,0,14.679-2.446,1.191,1.191,0,0,0,.809-1.128c0-.625-.028-1.24-.084-1.841,4.98,1.307,7.233,3.016,7.233,4.224,0,4.287-16.28,5.957-22.637,5.957C25.948,38.834,7.863,37.408,7.863,32.877Zm23.828,8.331v1.2a1.191,1.191,0,1,1-2.383,0v-1.2C29.7,41.213,31.3,41.213,31.691,41.208Zm5.957,7.872A9.337,9.337,0,0,0,30.5,51.925a9.337,9.337,0,0,0-7.148-2.845,11.829,11.829,0,0,0-1.784.135l3.817-8.161q.771.05,1.541.083v1.271a3.574,3.574,0,1,0,7.148,0V41.137q.77-.034,1.541-.083l3.817,8.161a11.831,11.831,0,0,0-1.784-.135Z" fill="#01549e"/>
    </g>
  </g>
</svg>
