<svg xmlns="http://www.w3.org/2000/svg" width="125" height="125" viewBox="0 0 125 125">
  <g id="Grupo_58558" data-name="Grupo 58558" transform="translate(-265 -654)">
    <g id="Elipse_4174" data-name="Elipse 4174" transform="translate(265 654)" fill="#fff" stroke="#01549e" stroke-width="5">
      <circle cx="62.5" cy="62.5" r="62.5" stroke="none"/>
      <circle cx="62.5" cy="62.5" r="60" fill="none"/>
    </g>
    <g id="cerebro" transform="translate(266 677)">
      <path id="Trazado_102956" data-name="Trazado 102956" d="M171.4,60.131a9.187,9.187,0,0,0-2.451-6.155,10.423,10.423,0,0,0,2.352-6.655,9.231,9.231,0,0,0-4.382-7.775,9.163,9.163,0,0,0,1.2-4.549A9.916,9.916,0,0,0,161.6,25.8a7.715,7.715,0,0,0-6.48-9.622,10.493,10.493,0,0,0-2.633-4.054,8.882,8.882,0,0,0-6.176-2.584,8.533,8.533,0,0,0-3.231.666,9.945,9.945,0,0,0-5.955,9.129,10.015,10.015,0,0,0-3.074-7.069,10.5,10.5,0,0,0-2.67,4.191,7.715,7.715,0,0,0-6.33,9.721,9.917,9.917,0,0,0-6.374,9.293,9.162,9.162,0,0,0,1.27,4.53,9.231,9.231,0,0,0-4.261,7.842,10.422,10.422,0,0,0,2.454,6.618,9.14,9.14,0,0,0,1.069,13.257,9.224,9.224,0,0,0-.266,2.172c.04,5.115,4.221,9.691,9.336,9.652a8.954,8.954,0,0,0,1.023-.111,10.915,10.915,0,0,0,3.506,4.2,11.563,11.563,0,0,0,4.742-9.347,11.524,11.524,0,0,0,6.321,10.124,10.119,10.119,0,0,0,4.57,1.06,10.672,10.672,0,0,0,6.162-2,10.916,10.916,0,0,0,3.57-4.348,8.96,8.96,0,0,0,1.024.1c5.115-.04,9.225-4.68,9.185-9.8a9.229,9.229,0,0,0-.3-2.168A9.2,9.2,0,0,0,171.4,60.131Z" transform="translate(-75.841 -8.07)" fill="#bfeffc"/>
      <path id="Trazado_102957" data-name="Trazado 102957" d="M297.543,86.087A1.543,1.543,0,1,0,296,84.543,1.544,1.544,0,0,0,297.543,86.087Z" transform="translate(-228.326 -70.189)" fill="#12263f"/>
      <path id="Trazado_102958" data-name="Trazado 102958" d="M197.543,86.087A1.543,1.543,0,1,0,196,84.543,1.544,1.544,0,0,0,197.543,86.087Z" transform="translate(-143.761 -70.189)" fill="#12263f"/>
      <path id="Trazado_102959" data-name="Trazado 102959" d="M26,52.324a10.725,10.725,0,0,0,3.226,7.643c-1.059,6.4,4.048,12.885,10.666,12.885l.141,0A12.168,12.168,0,0,0,61.5,72.313a12.168,12.168,0,0,0,21.468.537l.141,0c5.857,0,10.8-5.16,10.8-11.267a9.881,9.881,0,0,0-.139-1.618,10.655,10.655,0,0,0,1.238-13.835A12.344,12.344,0,0,0,97,39.513a10.72,10.72,0,0,0-3.91-8.293,10.434,10.434,0,0,0,.823-4.055,11.5,11.5,0,0,0-6.24-10.175A9.251,9.251,0,0,0,80.648,6.9,11.12,11.12,0,0,0,70.761,0,10.847,10.847,0,0,0,61.5,5.559,10.847,10.847,0,0,0,52.239,0a11.119,11.119,0,0,0-9.887,6.9,9.25,9.25,0,0,0-7.026,10.095,11.5,11.5,0,0,0-6.24,10.175,10.434,10.434,0,0,0,.823,4.055A10.721,10.721,0,0,0,26,39.513a12.342,12.342,0,0,0,1.988,6.619A10.708,10.708,0,0,0,26,52.324ZM70.761,3.087a7.8,7.8,0,0,1,6.288,3.66,9.2,9.2,0,0,0-5.119,2.6,1.543,1.543,0,1,0,2.181,2.184A6.175,6.175,0,0,1,84.652,15.9c0,.041,0,.08,0,.121a10.009,10.009,0,0,0-1.54-.121c-5.857,0-10.8,5.16-10.8,11.267a1.543,1.543,0,1,0,3.087,0c0-4.358,3.606-8.18,7.717-8.18,4.319,0,7.717,4.013,7.717,8.18a7.6,7.6,0,0,1-1.034,3.778,1.544,1.544,0,0,0,.517,2.065,7.675,7.675,0,0,1,3.6,6.5c0,4.373-3.541,8.18-7.717,8.18a1.543,1.543,0,1,0,0,3.087,10.417,10.417,0,0,0,6.585-2.428,7.6,7.6,0,0,1,1.132,3.971,7.684,7.684,0,0,1-2.813,5.9,1.543,1.543,0,0,0-.513,1.547,7.616,7.616,0,0,1,.24,1.809c0,4.791-4.333,8.663-8.24,8.129-.109-.015-.217-.029-.326-.042a1.542,1.542,0,0,0-1.574.884A9.287,9.287,0,0,1,72.3,75.939c-5.02,0-9.261-4.453-9.261-9.724A9.271,9.271,0,0,1,72.3,56.954a1.543,1.543,0,0,0,0-3.087,12.319,12.319,0,0,0-9.261,4.193V28.709a3.09,3.09,0,0,1,3.087-3.087,1.543,1.543,0,1,0,0-3.087,6.134,6.134,0,0,0-3.087.831v-12.1C63.043,6.91,66.65,3.087,70.761,3.087ZM32.691,33.009a1.543,1.543,0,0,0,.517-2.065,7.6,7.6,0,0,1-1.034-3.778c0-4.166,3.4-8.18,7.717-8.18,4.111,0,7.717,3.823,7.717,8.18a1.543,1.543,0,1,0,3.087,0c0-6.108-4.948-11.267-10.8-11.267a10.009,10.009,0,0,0-1.54.121c0-.041,0-.08,0-.121a6.175,6.175,0,0,1,10.541-4.366A1.543,1.543,0,1,0,51.07,9.348a9.2,9.2,0,0,0-5.119-2.6,7.8,7.8,0,0,1,6.288-3.66c4.111,0,7.717,3.823,7.717,8.18v12.1a6.134,6.134,0,0,0-3.087-.831,1.543,1.543,0,1,0,0,3.087,3.09,3.09,0,0,1,3.087,3.087V58.061A12.319,12.319,0,0,0,50.7,53.867a1.543,1.543,0,0,0,0,3.087,9.271,9.271,0,0,1,9.261,9.261c0,5.271-4.241,9.724-9.261,9.724a9.287,9.287,0,0,1-8.381-5.384,1.544,1.544,0,0,0-1.574-.884c-.109.013-.218.027-.326.042-4.393.6-9.34-4.373-8-9.938a1.543,1.543,0,0,0-.513-1.547,7.684,7.684,0,0,1-2.813-5.9,7.6,7.6,0,0,1,1.133-3.972A10.414,10.414,0,0,0,36.8,50.78a1.543,1.543,0,1,0,0-3.087c-4.189,0-7.717-3.823-7.717-8.18A7.674,7.674,0,0,1,32.691,33.009Z" fill="#12263f"/>
      <path id="Trazado_102960" data-name="Trazado 102960" d="M115.045,178.2a4.639,4.639,0,0,1-4.414,3.232,1.543,1.543,0,1,0,0,3.087,7.729,7.729,0,0,0,7.579-6.267,10.786,10.786,0,0,0,5.8-2.659,1.543,1.543,0,0,0-2.058-2.3,7.731,7.731,0,0,1-12.862-5.752,1.543,1.543,0,1,0-3.087,0A10.82,10.82,0,0,0,115.045,178.2Z" transform="translate(-67.652 -140.378)" fill="#12263f"/>
      <path id="Trazado_102961" data-name="Trazado 102961" d="M107.543,389a1.543,1.543,0,1,0,0,3.087c4.111,0,7.717,3.823,7.717,8.18a1.543,1.543,0,1,0,3.087,0C118.348,394.16,113.4,389,107.543,389Z" transform="translate(-67.652 -328.959)" fill="#12263f"/>
      <path id="Trazado_102962" data-name="Trazado 102962" d="M128.684,309a13.862,13.862,0,0,0-12.085,7.039,1.543,1.543,0,0,0,2.686,1.522,10.78,10.78,0,0,1,9.4-5.475,1.543,1.543,0,1,0,0-3.087Z" transform="translate(-76.445 -261.307)" fill="#12263f"/>
      <path id="Trazado_102963" data-name="Trazado 102963" d="M286.393,173.417a1.543,1.543,0,0,0,.121,2.179,10.787,10.787,0,0,0,5.8,2.659,7.729,7.729,0,0,0,7.579,6.267,1.543,1.543,0,1,0,0-3.087,4.639,4.639,0,0,1-4.414-3.232,10.82,10.82,0,0,0,9.045-10.659,1.543,1.543,0,1,0-3.087,0,7.717,7.717,0,0,1-12.862,5.752A1.543,1.543,0,0,0,286.393,173.417Z" transform="translate(-219.869 -140.378)" fill="#12263f"/>
      <path id="Trazado_102964" data-name="Trazado 102964" d="M336.8,389c-5.857,0-10.8,5.16-10.8,11.267a1.543,1.543,0,1,0,3.087,0c0-4.358,3.606-8.18,7.717-8.18a1.543,1.543,0,1,0,0-3.087Z" transform="translate(-253.696 -328.959)" fill="#12263f"/>
      <path id="Trazado_102965" data-name="Trazado 102965" d="M316.943,317.562a1.544,1.544,0,0,0,2.686-1.522A13.861,13.861,0,0,0,307.543,309a1.543,1.543,0,1,0,0,3.087A10.782,10.782,0,0,1,316.943,317.562Z" transform="translate(-236.783 -261.307)" fill="#12263f"/>
    </g>
  </g>
</svg>
