<svg xmlns="http://www.w3.org/2000/svg" width="564" height="293.493" viewBox="0 0 564 293.493">
  <g id="Grupo_57010" data-name="Grupo 57010" transform="translate(-687 -270.667)">
    <rect id="Rectángulo_5810" data-name="Rectángulo 5810" width="564" height="119" transform="translate(687 445)" fill="#01549e"/>
    <g id="Grupo_56782" data-name="Grupo 56782" transform="translate(773.997 244.781)">
      <g id="Background_Complete" data-name="Background Complete" transform="translate(41.078 23.886)">
        <g id="Grupo_56673" data-name="Grupo 56673" transform="translate(6.796 22.496)">
          <path id="Trazado_102447" data-name="Trazado 102447" d="M124.737,103.233h0a22.69,22.69,0,0,1-22.69-22.69h0a22.69,22.69,0,0,1,22.69-22.69h0a22.69,22.69,0,0,1,22.691,22.69h0A22.69,22.69,0,0,1,124.737,103.233Z" transform="translate(-102.047 -57.853)" fill="#ebebeb"/>
          <g id="Grupo_56672" data-name="Grupo 56672" transform="translate(11.95 10.046)">
            <g id="Grupo_56671" data-name="Grupo 56671">
              <rect id="Rectángulo_5811" data-name="Rectángulo 5811" width="4.696" height="15.171" transform="translate(0.451 7.585)" fill="#fff"/>
              <path id="Trazado_102448" data-name="Trazado 102448" d="M122.867,78.621a2.8,2.8,0,1,0-2.777-2.8A2.788,2.788,0,0,0,122.867,78.621Z" transform="translate(-120.09 -73.022)" fill="#fff"/>
            </g>
            <path id="Trazado_102449" data-name="Trazado 102449" d="M136.9,91.446c0-2.133.982-3.4,2.861-3.4,1.727,0,2.556,1.22,2.556,3.4V99.41h4.674V89.8c0-4.064-2.3-6.028-5.52-6.028a5.289,5.289,0,0,0-4.572,2.506V84.239h-4.5V99.41h4.5Z" transform="translate(-124.245 -76.654)" fill="#fff"/>
          </g>
        </g>
        <path id="Trazado_102450" data-name="Trazado 102450" d="M177.74,23.886l3.107,5.681,5.681,3.107-5.681,3.107-3.107,5.681-3.107-5.681-5.681-3.107,5.681-3.107Z" transform="translate(-128.845 -21.886)" fill="#f5f5f5"/>
        <path id="Trazado_102451" data-name="Trazado 102451" d="M374.51,256.273l2.33,4.261,4.261,2.33-4.261,2.33-2.33,4.261-2.33-4.261-4.261-2.33,4.261-2.33Z" transform="translate(-140.035 -102.362)" fill="#ebebeb"/>
        <path id="Trazado_102452" data-name="Trazado 102452" d="M386.306,224.508l1.051,1.922,1.922,1.051-1.922,1.051-1.051,1.922-1.051-1.922-1.922-1.051,1.922-1.051Z" transform="translate(-145.24 -91.635)" fill="#e0e0e0"/>
        <g id="Grupo_56675" data-name="Grupo 56675" transform="translate(-25 167.093)">
          <g id="Grupo_56674" data-name="Grupo 56674">
            <path id="Trazado_102453" data-name="Trazado 102453" d="M62,290.015a6.869,6.869,0,0,0,4.011-6.407,6.455,6.455,0,1,0-12.884.107,6.857,6.857,0,0,0,4.188,6.36c-9.893,1.622-9.3,12.39-9.3,12.39l23.442-.2S71.842,291.372,62,290.015Z" transform="translate(-48 -276.792)" fill="#e0e0e0"/>
          </g>
        </g>
        <g id="Grupo_56676" data-name="Grupo 56676" transform="translate(247.755 264.764)">
          <path id="Trazado_102454" data-name="Trazado 102454" d="M401.264,402.436a3.649,3.649,0,0,0-7.2.214,3.649,3.649,0,0,0-7.2-.151,4.925,4.925,0,0,0,.884,3.554,14.664,14.664,0,0,0,2.573,2.719c1.31,1.166,2.521,2.262,3.831,3.427,1.3-1.177,2.4-2.284,3.7-3.461A14.592,14.592,0,0,0,400.411,406,4.925,4.925,0,0,0,401.264,402.436Z" transform="translate(-386.806 -399.49)" fill="#ebebeb"/>
        </g>
        <g id="Grupo_56679" data-name="Grupo 56679" transform="translate(289.654 97.811)">
          <g id="Grupo_56677" data-name="Grupo 56677" transform="translate(7.464)">
            <path id="Trazado_102455" data-name="Trazado 102455" d="M431.688,185.862l2.511-.5,3.967-8.727-.995-5.014s3.835-1.009,4.68,5.647,1.008,4.886,1.008,4.886,8.25-1.6,9.078-1.023c.6.421,2.451,8.566,3.417,12.99a4.9,4.9,0,0,1-2.447,5.52,3.692,3.692,0,0,1-.864.3c-2.056.408-12.894.819-12.894.819l-4.339.86Z" transform="translate(-431.688 -171.569)" fill="#e0e0e0"/>
          </g>
          <g id="Grupo_56678" data-name="Grupo 56678" transform="translate(0 13.53)">
            <path id="Trazado_102456" data-name="Trazado 102456" d="M420.418,192.81l4.952,16.874,4.3-.853L426.334,192Z" transform="translate(-420.418 -191.997)" fill="#e0e0e0"/>
          </g>
        </g>
      </g>
      <g id="Floor" transform="translate(27.503 318.728)">
        <g id="Grupo_56680" data-name="Grupo 56680">
          <path id="Trazado_102457" data-name="Trazado 102457" d="M320.881,469.235c0,.1-65.68.172-146.682.172-81.03,0-146.7-.077-146.7-.172s65.666-.172,146.7-.172C255.2,469.063,320.881,469.14,320.881,469.235Z" transform="translate(-27.503 -469.063)" fill="#263238"/>
        </g>
      </g>
      <g id="Icons" transform="translate(41.252 78.252)">
        <g id="Grupo_56681" data-name="Grupo 56681" transform="translate(214.922 -13.98)">
          <path id="Trazado_102458" data-name="Trazado 102458" d="M373.708,157.087h0a26.91,26.91,0,0,1-35.968-12.429h0a26.91,26.91,0,0,1,12.429-35.969h0a26.91,26.91,0,0,1,35.969,12.429h0A26.91,26.91,0,0,1,373.708,157.087Z" transform="translate(-335.022 -105.973)" fill="#8ecae4"/>
          <path id="Trazado_102459" data-name="Trazado 102459" d="M361.811,144.453a.632.632,0,0,0,.626-.815c-.066-.326-.24-1.145-.308-1.489-.091-.469-.2-.592-.685-.8a5.3,5.3,0,0,1-2.664-2.709,8.694,8.694,0,0,1,4.282-11.86c4.433-2.156,8.186-.632,9.946,2.987,2.315,4.759,2.162,9.8-.965,11.322a2.842,2.842,0,0,1-4.153-1.911c-.519-2.334-.657-5.058-1.391-6.568a2.458,2.458,0,0,0-3.432-1.4c-1.766.858-2.3,3.375-1.106,5.822a7.066,7.066,0,0,0,1.8,2.356s1.917,8.534,2.252,10.029a20.563,20.563,0,0,0,3,6.3.244.244,0,0,0,.438-.1,19.576,19.576,0,0,0,.352-6.852c-.154-.833-1.044-5.1-1.044-5.1a5.263,5.263,0,0,0,5.033.1c5.308-2.582,6.555-9.17,3.4-15.646-2.382-4.9-8.746-7.44-15.051-4.375-7.844,3.815-9.064,11.362-6.783,16.052C356.743,142.63,359.047,144.634,361.811,144.453Z" transform="translate(-341.545 -111.522)" fill="#fff"/>
        </g>
        <g id="Grupo_56683" data-name="Grupo 56683" transform="translate(277.543 91.116)">
          <path id="Trazado_102460" data-name="Trazado 102460" d="M427.925,279.449h0a18.56,18.56,0,0,1-10.713-23.961h0a18.56,18.56,0,0,1,23.961-10.713h0a18.56,18.56,0,0,1,10.713,23.961h0A18.559,18.559,0,0,1,427.925,279.449Z" transform="translate(-415.985 -243.548)" fill="#bfeffc"/>
          <g id="Grupo_56682" data-name="Grupo 56682" transform="translate(5.421 8.454)">
            <path id="Trazado_102461" data-name="Trazado 102461" d="M447,269.574a10,10,0,0,0-18.6-7.3c-.056.134-.112.268-.164.4a9.847,9.847,0,0,0-.491,5.3l-3.582,4.327,5.8.332a10.008,10.008,0,0,0,16.948-2.821C446.946,269.733,446.976,269.654,447,269.574Zm-12.4,4.459a8.37,8.37,0,0,1-3.826-2.939l-3.383-.191,2.084-2.52a8.255,8.255,0,0,1,.251-5.139,7.748,7.748,0,0,1,.328-.741,8.407,8.407,0,0,1,15.579,6.123c-.06.208-.127.412-.206.617A8.38,8.38,0,0,1,434.6,274.033Z" transform="translate(-424.169 -256.312)" fill="#fff" fill-rule="evenodd"/>
            <path id="Trazado_102462" data-name="Trazado 102462" d="M445.961,272.018c-.188-.2-1.1-1.182-1.283-1.337s-.319-.252-.559-.083-.877.511-1.065.61-.331.068-.52-.134a6.643,6.643,0,0,1-1.409-1.831,7.276,7.276,0,0,1-.672-2.056c-.044-.277.121-.354.277-.425s.329-.179.5-.266l.125-.078a2.675,2.675,0,0,0,.248-.216.438.438,0,0,0,.134-.4c-.013-.136-.045-1.43-.064-1.958s-.236-.521-.372-.574-.276-.13-.429-.189a.907.907,0,0,0-.721.05,2.723,2.723,0,0,0-1.525,1.591,3.1,3.1,0,0,0-.178.819,5.512,5.512,0,0,0,.217,1.886,10.052,10.052,0,0,0,2.6,4.924c1.984,1.8,2.1,1.493,2.534,1.615a2.445,2.445,0,0,0,1.956-.49,2.005,2.005,0,0,0,.548-1.028C446.276,272.334,446.144,272.219,445.961,272.018Z" transform="translate(-428.986 -258.58)" fill="#fff" fill-rule="evenodd"/>
          </g>
        </g>
        <g id="Grupo_56684" data-name="Grupo 56684" transform="translate(-32 12.936)">
          <path id="Trazado_102463" data-name="Trazado 102463" d="M62.415,153.809h0a14.152,14.152,0,0,1-14.152-14.153h0A14.152,14.152,0,0,1,62.415,125.5h0a14.152,14.152,0,0,1,14.153,14.152h0A14.153,14.153,0,0,1,62.415,153.809Z" transform="translate(-48.263 -125.504)" fill="#bfeffc"/>
          <path id="Trazado_102464" data-name="Trazado 102464" d="M58.246,148.486a8.8,8.8,0,0,0,13.537-7.814,6.272,6.272,0,0,0,1.544-1.6,6.177,6.177,0,0,1-1.777.487,3.1,3.1,0,0,0,1.36-1.711,6.216,6.216,0,0,1-1.964.751,3.1,3.1,0,0,0-5.273,2.822,8.78,8.78,0,0,1-6.377-3.233,3.1,3.1,0,0,0,.957,4.131,3.077,3.077,0,0,1-1.4-.387A3.1,3.1,0,0,0,61.334,145a3.1,3.1,0,0,1-1.4.053,3.1,3.1,0,0,0,2.89,2.148A6.217,6.217,0,0,1,58.246,148.486Z" transform="translate(-51.634 -129.596)" fill="#fff"/>
        </g>
        <g id="Grupo_56686" data-name="Grupo 56686" transform="translate(-22.444 151.686)">
          <path id="Trazado_102465" data-name="Trazado 102465" d="M92.72,383.092h0a24.375,24.375,0,0,1-29.36-18.062h0a24.375,24.375,0,0,1,18.063-29.361h0a24.376,24.376,0,0,1,29.361,18.063h0A24.375,24.375,0,0,1,92.72,383.092Z" transform="translate(-62.691 -335)" fill="#455a64"/>
          <g id="Grupo_56685" data-name="Grupo 56685" transform="translate(9.955 9.955)">
            <path id="Trazado_102466" data-name="Trazado 102466" d="M89.608,353.8c3.472-.827,3.886-.911,5.271-1.176a7.408,7.408,0,0,1,2.521-.127,4.427,4.427,0,0,1,3.055,1.88,7.421,7.421,0,0,1,1.023,2.307c.389,1.356.5,1.764,1.327,5.236s.911,3.886,1.176,5.272a7.41,7.41,0,0,1,.128,2.521,4.424,4.424,0,0,1-1.88,3.055,7.393,7.393,0,0,1-2.307,1.023c-1.356.389-1.764.5-5.236,1.327s-3.886.911-5.272,1.176a7.38,7.38,0,0,1-2.521.126,4.423,4.423,0,0,1-3.055-1.879,7.4,7.4,0,0,1-1.023-2.307c-.389-1.356-.5-1.764-1.327-5.236s-.912-3.886-1.176-5.272a7.4,7.4,0,0,1-.127-2.521,4.427,4.427,0,0,1,1.88-3.055,7.405,7.405,0,0,1,2.307-1.023c1.356-.389,1.764-.5,5.236-1.328m-.558-2.342c-3.531.841-3.971.962-5.342,1.355a9.8,9.8,0,0,0-3.011,1.356,6.828,6.828,0,0,0-2.9,4.708,9.793,9.793,0,0,0,.147,3.3c.267,1.4.358,1.848,1.2,5.379s.962,3.97,1.355,5.342a9.8,9.8,0,0,0,1.356,3.012,6.832,6.832,0,0,0,4.708,2.9,9.834,9.834,0,0,0,3.3-.148c1.4-.267,1.848-.358,5.379-1.2s3.97-.962,5.342-1.355a9.806,9.806,0,0,0,3.011-1.356,6.831,6.831,0,0,0,2.9-4.708,9.831,9.831,0,0,0-.148-3.3c-.267-1.4-.358-1.848-1.2-5.379s-.962-3.971-1.355-5.342a9.806,9.806,0,0,0-1.356-3.012,6.831,6.831,0,0,0-4.708-2.9,9.831,9.831,0,0,0-3.3.148c-1.4.267-1.848.358-5.379,1.2" transform="translate(-77.722 -350.031)" fill="#fff"/>
            <path id="Trazado_102467" data-name="Trazado 102467" d="M94.413,361.636a6.863,6.863,0,1,0,8.266,5.086,6.862,6.862,0,0,0-8.266-5.086m2.623,11.009a4.455,4.455,0,1,1,3.3-5.366,4.455,4.455,0,0,1-3.3,5.366" transform="translate(-81.577 -353.886)" fill="#fff"/>
            <path id="Trazado_102468" data-name="Trazado 102468" d="M108.227,357.647a1.6,1.6,0,1,1-1.932-1.189,1.6,1.6,0,0,1,1.932,1.189" transform="translate(-86.955 -352.187)" fill="#fff"/>
          </g>
        </g>
        <g id="Grupo_56687" data-name="Grupo 56687" transform="translate(234.852 157.59)">
          <path id="Trazado_102469" data-name="Trazado 102469" d="M381.011,363.63h0a11.368,11.368,0,0,1-11.367-11.368h0a11.367,11.367,0,0,1,11.367-11.367h0a11.367,11.367,0,0,1,11.367,11.367h0A11.368,11.368,0,0,1,381.011,363.63Z" transform="translate(-369.644 -340.895)" fill="#455a64"/>
          <path id="Trazado_102470" data-name="Trazado 102470" d="M383.457,361.426h2.767V354.5h1.931l.206-2.32h-2.137v-1.321c0-.547.11-.763.639-.763h1.5v-2.408h-1.916c-2.059,0-2.988.907-2.988,2.643v1.85h-1.439v2.349h1.439Z" transform="translate(-373.823 -343.188)" fill="#fff"/>
        </g>
      </g>
      <g id="Device" transform="translate(115.498 50.591)">
        <g id="Grupo_56753" data-name="Grupo 56753">
          <g id="Grupo_56752" data-name="Grupo 56752">
            <g id="Grupo_56747" data-name="Grupo 56747">
              <g id="Grupo_56695" data-name="Grupo 56695">
                <g id="Grupo_56694" data-name="Grupo 56694">
                  <g id="Grupo_56690" data-name="Grupo 56690">
                    <g id="Grupo_56689" data-name="Grupo 56689">
                      <g id="Grupo_56688" data-name="Grupo 56688">
                        <path id="Trazado_102471" data-name="Trazado 102471" d="M271.569,333l-91.323-.054a19.893,19.893,0,0,1-19.881-19.9L160.41,84.1a19.893,19.893,0,0,1,19.9-19.89l91.324.054a19.893,19.893,0,0,1,19.881,19.9l-.045,228.949A19.891,19.891,0,0,1,271.569,333Z" transform="translate(-160.365 -64.207)" fill="#263238"/>
                      </g>
                    </g>
                  </g>
                  <g id="Grupo_56693" data-name="Grupo 56693" transform="translate(6.051 8.099)">
                    <g id="Grupo_56692" data-name="Grupo 56692">
                      <g id="Grupo_56691" data-name="Grupo 56691">
                        <path id="Trazado_102472" data-name="Trazado 102472" d="M274.626,76.488l-17.706-.01a4.4,4.4,0,0,0-4.3,4.492v3.212a4.4,4.4,0,0,1-4.3,4.492l-34.513-.021a4.4,4.4,0,0,1-4.3-4.5V80.945a4.4,4.4,0,0,0-4.3-4.5l-6.227,0-15.5-.009a13.931,13.931,0,0,0-13.94,13.929l-.044,223.47a13.932,13.932,0,0,0,13.924,13.936l91.141.053a13.932,13.932,0,0,0,13.939-13.929l.044-223.471A13.932,13.932,0,0,0,274.626,76.488Z" transform="translate(-169.502 -76.435)" fill="#fff"/>
                      </g>
                    </g>
                  </g>
                </g>
              </g>
              <g id="Grupo_56705" data-name="Grupo 56705" transform="translate(102.223 26.233)">
                <g id="Grupo_56698" data-name="Grupo 56698">
                  <g id="Grupo_56697" data-name="Grupo 56697">
                    <g id="Grupo_56696" data-name="Grupo 56696">
                      <path id="Trazado_102473" data-name="Trazado 102473" d="M325,103.889c0,.06-2.3.127-5.142.151s-5.143-.006-5.144-.066,2.3-.127,5.143-.151S325,103.829,325,103.889Z" transform="translate(-314.709 -103.815)" fill="#263238"/>
                    </g>
                  </g>
                </g>
                <g id="Grupo_56701" data-name="Grupo 56701" transform="translate(0.022 2.632)">
                  <g id="Grupo_56700" data-name="Grupo 56700">
                    <g id="Grupo_56699" data-name="Grupo 56699">
                      <path id="Trazado_102474" data-name="Trazado 102474" d="M325.028,107.863c0,.06-2.3.127-5.142.151s-5.143-.007-5.144-.066,2.3-.128,5.142-.151S325.028,107.8,325.028,107.863Z" transform="translate(-314.742 -107.789)" fill="#263238"/>
                    </g>
                  </g>
                </g>
                <g id="Grupo_56704" data-name="Grupo 56704" transform="translate(0.044 5.264)">
                  <g id="Grupo_56703" data-name="Grupo 56703">
                    <g id="Grupo_56702" data-name="Grupo 56702">
                      <path id="Trazado_102475" data-name="Trazado 102475" d="M325.061,111.836c0,.06-2.3.128-5.142.151s-5.144-.006-5.144-.066,2.3-.128,5.142-.151S325.061,111.777,325.061,111.836Z" transform="translate(-314.775 -111.763)" fill="#263238"/>
                    </g>
                  </g>
                </g>
              </g>
              <g id="Grupo_56708" data-name="Grupo 56708" transform="translate(15.528 23.286)">
                <g id="Grupo_56707" data-name="Grupo 56707">
                  <g id="Grupo_56706" data-name="Grupo 56706">
                    <path id="Trazado_102476" data-name="Trazado 102476" d="M183.949,110.217a2.114,2.114,0,0,1,.27-.018l.75-.025,2.768-.066-.077.078q-.015-.921-.032-2.007c0-.373-.032-.725,0-1.156a1.064,1.064,0,0,1,.929-.853c.446-.009.838-.029,1.322-.007a1.075,1.075,0,0,1,.908,1.069c.011.936.022,1.913.033,2.927l-.128-.126,3.492-.036-.132.135c-.013-1.406-.026-2.86-.039-4.351q0-.557-.009-1.108a1.128,1.128,0,0,0-.491-.825l-1.527-1.5-1.472-1.453-.714-.7c-.245-.236-.438-.481-.722-.539a.941.941,0,0,0-.8.153c-.211.179-.436.432-.65.639l-1.253,1.264c-.788.819-1.609,1.566-2.205,2.274a2.468,2.468,0,0,0-.176,1.3q0,.65,0,1.231-.007,1.132-.013,1.982c-.006.506-.011.925-.014,1.267a4.5,4.5,0,0,1-.017.457,3.321,3.321,0,0,1-.024-.42c-.009-.337-.021-.749-.035-1.248q-.019-.856-.045-2-.011-.593-.023-1.255,0-.335-.011-.686a1.452,1.452,0,0,1,.193-.731c.646-.791,1.417-1.492,2.211-2.335l1.243-1.274c.224-.22.407-.438.674-.668a1.186,1.186,0,0,1,1.012-.2,1.886,1.886,0,0,1,.838.6l.717.7,1.478,1.448,1.529,1.5a2.909,2.909,0,0,1,.39.423,1.144,1.144,0,0,1,.183.589q0,.553.01,1.113c.011,1.49.023,2.945.033,4.351v.134h-.134l-3.492.023h-.128v-.127c-.005-1.013-.01-1.992-.015-2.927a.842.842,0,0,0-.705-.848c-.4-.021-.876-.007-1.266,0a.857.857,0,0,0-.753.679c-.034.351-.008.76-.015,1.116q0,1.085,0,2.007v.078h-.077l-2.814-.02-.732-.013A1.373,1.373,0,0,1,183.949,110.217Z" transform="translate(-183.811 -99.366)" fill="#263238"/>
                  </g>
                </g>
              </g>
              <g id="Grupo_56727" data-name="Grupo 56727" transform="translate(13.319 200.646)">
                <g id="Grupo_56713" data-name="Grupo 56713" transform="translate(38.239 7.94)">
                  <g id="Grupo_56712" data-name="Grupo 56712">
                    <g id="Grupo_56709" data-name="Grupo 56709">
                      <path id="Trazado_102477" data-name="Trazado 102477" d="M262.563,379.318a5.072,5.072,0,0,1-.957.068l-2.609.055c-2.2.031-5.247.05-8.609.05s-6.407-.019-8.61-.05l-2.609-.055a5.072,5.072,0,0,1-.957-.068,5.119,5.119,0,0,1,.957-.067l2.609-.055c2.2-.031,5.247-.05,8.61-.05s6.406.019,8.609.05l2.609.055A5.119,5.119,0,0,1,262.563,379.318Z" transform="translate(-238.211 -379.146)" fill="#455a64"/>
                    </g>
                    <g id="Grupo_56710" data-name="Grupo 56710" transform="translate(0 5.991)">
                      <path id="Trazado_102478" data-name="Trazado 102478" d="M300.838,388.364c0,.1-14.021.172-31.312.172s-31.315-.077-31.315-.172,14.018-.172,31.315-.172S300.838,388.269,300.838,388.364Z" transform="translate(-238.211 -388.192)" fill="#455a64"/>
                    </g>
                    <g id="Grupo_56711" data-name="Grupo 56711" transform="translate(0 11.627)">
                      <path id="Trazado_102479" data-name="Trazado 102479" d="M281.267,396.874c0,.095-9.639.172-21.527.172s-21.529-.077-21.529-.172,9.637-.173,21.529-.173S281.267,396.778,281.267,396.874Z" transform="translate(-238.211 -396.701)" fill="#455a64"/>
                    </g>
                  </g>
                </g>
                <g id="Grupo_56714" data-name="Grupo 56714" transform="translate(98.306 25.019)">
                  <path id="Trazado_102480" data-name="Trazado 102480" d="M332.7,410.625l-1.946-1.952-1.852,1.848.009-5.586,3.8.006Zm-1.945-2.195.061.061,1.713,1.719.008-5.1-3.455-.005-.008,5Z" transform="translate(-328.905 -404.934)" fill="#263238"/>
                </g>
                <g id="Grupo_56715" data-name="Grupo 56715" transform="translate(46.792 26.133)">
                  <path id="Trazado_102481" data-name="Trazado 102481" d="M254.624,410.466l-.686-.306a1.881,1.881,0,1,1,1-1.652,1.9,1.9,0,0,1-.475,1.272Zm-1.6-3.72a1.777,1.777,0,0,0,.028,3.553,1.832,1.832,0,0,0,.855-.27l.028-.017.507.227-.115-.5.023-.025a1.774,1.774,0,0,0-1.327-2.97Z" transform="translate(-251.126 -406.616)" fill="#263238"/>
                </g>
                <g id="Grupo_56716" data-name="Grupo 56716" transform="translate(52.443 26.394)">
                  <path id="Trazado_102482" data-name="Trazado 102482" d="M261.92,410.3l-.787-1.921-1.476-1.345,3.58-.028Zm-1.929-3.137,1.257,1.154.67,1.636,1.125-2.814Z" transform="translate(-259.657 -407.01)" fill="#263238"/>
                </g>
                <g id="Grupo_56717" data-name="Grupo 56717" transform="translate(53.999 26.394)">
                  <rect id="Rectángulo_5812" data-name="Rectángulo 5812" width="2.328" height="0.131" transform="translate(0 1.27) rotate(-33.054)" fill="#263238"/>
                </g>
                <g id="Grupo_56718" data-name="Grupo 56718" transform="translate(40.272 25.934)">
                  <path id="Trazado_102483" data-name="Trazado 102483" d="M245.667,407.205a2.452,2.452,0,0,1-3.253-.872,1.144,1.144,0,0,0-1.115.907,1.494,1.494,0,0,0,.272,1.078,4.446,4.446,0,0,0,.783.822c.4.352.768.684,1.166,1.036.393-.358.727-.7,1.12-1.054a4.4,4.4,0,0,0,.771-.835A1.5,1.5,0,0,0,245.667,407.205Z" transform="translate(-241.281 -406.316)" fill="#e8505b"/>
                </g>
                <g id="Grupo_56719" data-name="Grupo 56719">
                  <path id="Trazado_102484" data-name="Trazado 102484" d="M286.567,402.81s-.008-.215-.012-.623-.007-1.019-.012-1.812c-.007-1.6-.016-3.949-.028-6.993-.015-6.087-.036-14.943-.062-26.052l.114.114-105.914.059h-.007l.173-.173c0,12.33,0,24.291-.006,35.48l-.167-.167,75.79.077,22.124.046,5.938.022,1.539.011c.347,0,.53.011.53.011s-.168.007-.509.011l-1.519.011-5.9.021-22.086.047-75.9.077h-.167v-.167c0-11.189,0-23.15-.005-35.48v-.172h.179l105.914.059h.114v.113c-.026,11.138-.048,20.017-.062,26.12-.012,3.033-.021,5.375-.028,6.967q-.008,1.176-.012,1.792C286.575,402.61,286.567,402.81,286.567,402.81Z" transform="translate(-180.475 -367.158)" fill="#263238"/>
                </g>
                <g id="Grupo_56726" data-name="Grupo 56726" transform="translate(4.268 5.945)">
                  <g id="Grupo_56723" data-name="Grupo 56723">
                    <g id="Grupo_56722" data-name="Grupo 56722">
                      <g id="Grupo_56721" data-name="Grupo 56721">
                        <rect id="Rectángulo_5813" data-name="Rectángulo 5813" width="23.456" height="29.34" transform="matrix(0.006, -1, 1, 0.006, 0.176, 23.612)" fill="#ebebeb"/>
                        <g id="Grupo_56720" data-name="Grupo 56720">
                          <path id="Trazado_102485" data-name="Trazado 102485" d="M216.568,376.457a1.147,1.147,0,0,1-.147.008l-.416.007-1.6.009-6.016.007-21.16-.043.155-.154c-.034,6.984-.074,14.986-.115,23.454.036.041-.321-.327-.166-.172h.5l.508,0,1.011.006,2.008.012,3.953.024,7.612.049,13.741.1-.144.142c.071-7.043.13-12.886.171-16.989.028-2.04.049-3.646.064-4.762q.015-.809.023-1.262c.007-.287.019-.442.019-.442s.01.135.013.412q0,.444.009,1.235c0,1.108.006,2.7.011,4.73-.006,4.124-.014,10-.023,17.08v.143h-.144L202.693,400l-7.613-.037-3.953-.021-2.008-.011-1.011-.005-.508,0-.254,0H187.1c.151.155-.215-.21-.177-.176.055-8.468.107-16.47.152-23.453v-.155h.154l21.259.2,5.981.075,1.571.027.4.011A.572.572,0,0,1,216.568,376.457Z" transform="translate(-186.92 -376.134)" fill="#263238"/>
                        </g>
                      </g>
                    </g>
                  </g>
                  <rect id="Rectángulo_5814" data-name="Rectángulo 5814" width="20.503" height="27.279" transform="matrix(0.006, -1, 1, 0.006, 1.195, 22.141)" fill="#e0e0e0"/>
                  <path id="Trazado_102486" data-name="Trazado 102486" d="M188.725,403.094l9.6-12.69,5.857,8.007,4.027-4.24L216,403.249Z" transform="translate(-187.529 -380.953)" fill="#f5f5f5"/>
                  <g id="Grupo_56725" data-name="Grupo 56725" transform="translate(14.916 5.777)">
                    <g id="Grupo_56724" data-name="Grupo 56724">
                      <path id="Trazado_102487" data-name="Trazado 102487" d="M213.737,387.017a2.148,2.148,0,1,1-2.136-2.16A2.149,2.149,0,0,1,213.737,387.017Z" transform="translate(-209.441 -384.857)" fill="#f5f5f5"/>
                    </g>
                  </g>
                </g>
              </g>
              <g id="Grupo_56742" data-name="Grupo 56742" transform="translate(17.573 49.97)">
                <g id="Grupo_56737" data-name="Grupo 56737">
                  <g id="Grupo_56730" data-name="Grupo 56730" transform="translate(18.961 4.607)">
                    <g id="Grupo_56729" data-name="Grupo 56729">
                      <g id="Grupo_56728" data-name="Grupo 56728">
                        <path id="Trazado_102488" data-name="Trazado 102488" d="M246.364,146.784a1.084,1.084,0,0,1-.313.035l-.9.032-3.3.054c-2.79.032-6.645.051-10.9.051s-8.113-.019-10.9-.051l-3.3-.054-.9-.032a1.084,1.084,0,0,1-.313-.035,1.1,1.1,0,0,1,.313-.034l.9-.032,3.3-.055c2.79-.031,6.646-.05,10.9-.05s8.112.019,10.9.05l3.3.055.9.032A1.1,1.1,0,0,1,246.364,146.784Z" transform="translate(-215.527 -146.612)" fill="#263238"/>
                      </g>
                    </g>
                  </g>
                  <g id="Grupo_56736" data-name="Grupo 56736" transform="translate(0 125.602)">
                    <g id="Grupo_56731" data-name="Grupo 56731" transform="translate(87.498 0.387)">
                      <path id="Trazado_102489" data-name="Trazado 102489" d="M324.654,338.341l-2.891-2.9-2.754,2.746.013-8.3,5.645.009Zm-2.89-3.261.09.089,2.546,2.555.012-7.575-5.134-.008-.012,7.43Z" transform="translate(-319.009 -329.885)" fill="#263238"/>
                    </g>
                    <g id="Grupo_56732" data-name="Grupo 56732" transform="translate(12.835 0.391)">
                      <path id="Trazado_102490" data-name="Trazado 102490" d="M213.163,337.47l-1.352-.6a3.7,3.7,0,1,1,1.974-3.252,3.741,3.741,0,0,1-.935,2.5ZM210,330.149a3.5,3.5,0,1,0,.056,6.994,3.6,3.6,0,0,0,1.684-.531l.056-.031,1,.444-.225-.979.045-.05A3.493,3.493,0,0,0,210,330.149Z" transform="translate(-206.277 -329.892)" fill="#263238"/>
                    </g>
                    <g id="Grupo_56733" data-name="Grupo 56733" transform="translate(23.956 0.906)">
                      <path id="Trazado_102491" data-name="Trazado 102491" d="M227.523,337.153l-1.549-3.781-2.9-2.647,7.046-.056Zm-3.8-6.177,2.474,2.271,1.319,3.221,2.213-5.54Z" transform="translate(-223.069 -330.668)" fill="#263238"/>
                    </g>
                    <g id="Grupo_56734" data-name="Grupo 56734" transform="translate(27.019 0.905)">
                      <rect id="Rectángulo_5815" data-name="Rectángulo 5815" width="4.583" height="0.257" transform="matrix(0.838, -0.545, 0.545, 0.838, 0, 2.5)" fill="#263238"/>
                    </g>
                    <g id="Grupo_56735" data-name="Grupo 56735">
                      <path id="Trazado_102492" data-name="Trazado 102492" d="M195.531,331.052a2.179,2.179,0,0,0-4.3.144,2.179,2.179,0,0,0-4.3-.074,2.941,2.941,0,0,0,.536,2.12,8.705,8.705,0,0,0,1.543,1.619c.785.693,1.51,1.346,2.295,2.039.774-.706,1.432-1.369,2.205-2.075a8.736,8.736,0,0,0,1.517-1.643A2.941,2.941,0,0,0,195.531,331.052Z" transform="translate(-186.898 -329.301)" fill="#e8505b"/>
                    </g>
                  </g>
                  <circle id="Elipse_4163" data-name="Elipse 4163" cx="4.779" cy="4.779" r="4.779" transform="translate(3.211)" fill="#ebebeb"/>
                </g>
                <g id="Grupo_56741" data-name="Grupo 56741" transform="translate(1.818 99.401)">
                  <g id="Grupo_56738" data-name="Grupo 56738" transform="translate(0 7.454)">
                    <path id="Trazado_102493" data-name="Trazado 102493" d="M279.163,301.167c0,.1-20.041.172-44.758.172s-44.762-.077-44.762-.172,20.037-.173,44.762-.173S279.163,301.071,279.163,301.167Z" transform="translate(-189.643 -300.994)" fill="#455a64"/>
                  </g>
                  <g id="Grupo_56739" data-name="Grupo 56739">
                    <path id="Trazado_102494" data-name="Trazado 102494" d="M279.163,289.911c0,.1-20.041.173-44.758.173s-44.762-.077-44.762-.173,20.037-.172,44.762-.172S279.163,289.816,279.163,289.911Z" transform="translate(-189.643 -289.739)" fill="#455a64"/>
                  </g>
                  <g id="Grupo_56740" data-name="Grupo 56740" transform="translate(0 15.008)">
                    <path id="Trazado_102495" data-name="Trazado 102495" d="M238.369,312.572c0,.1-10.909.173-24.362.173s-24.364-.078-24.364-.173,10.906-.172,24.364-.172S238.369,312.477,238.369,312.572Z" transform="translate(-189.643 -312.4)" fill="#455a64"/>
                  </g>
                </g>
              </g>
              <g id="Grupo_56746" data-name="Grupo 56746" transform="translate(58.301 243.831)">
                <g id="Grupo_56743" data-name="Grupo 56743">
                  <path id="Trazado_102496" data-name="Trazado 102496" d="M252.2,434.3a1.9,1.9,0,1,1-1.894-1.939A1.915,1.915,0,0,1,252.2,434.3Z" transform="translate(-248.392 -432.363)" fill="#263238"/>
                </g>
                <g id="Grupo_56744" data-name="Grupo 56744" transform="translate(5.893 0.027)">
                  <path id="Trazado_102497" data-name="Trazado 102497" d="M261.094,434.343A1.9,1.9,0,1,1,259.2,432.4,1.915,1.915,0,0,1,261.094,434.343Z" transform="translate(-257.29 -432.404)" fill="#263238"/>
                </g>
                <g id="Grupo_56745" data-name="Grupo 56745" transform="translate(11.786 0.054)">
                  <path id="Trazado_102498" data-name="Trazado 102498" d="M269.992,434.384a1.9,1.9,0,1,1-1.894-1.939A1.914,1.914,0,0,1,269.992,434.384Z" transform="translate(-266.188 -432.445)" fill="#263238"/>
                </g>
              </g>
            </g>
            <g id="Grupo_56750" data-name="Grupo 56750" transform="translate(14.126 64.208)">
              <rect id="Rectángulo_5816" data-name="Rectángulo 5816" width="105.92" height="64.776" fill="#e0e0e0"/>
              <path id="Trazado_102499" data-name="Trazado 102499" d="M196.457,238.262l30.352-40.624,18.816,25.405,12.753-13.588,25.013,28.782Z" transform="translate(-186.679 -173.474)" fill="#f5f5f5"/>
              <g id="Grupo_56749" data-name="Grupo 56749" transform="translate(53.232 12.337)">
                <g id="Grupo_56748" data-name="Grupo 56748">
                  <path id="Trazado_102500" data-name="Trazado 102500" d="M275.757,186.624a6.845,6.845,0,1,1-6.848-6.843A6.845,6.845,0,0,1,275.757,186.624Z" transform="translate(-262.067 -179.781)" fill="#f5f5f5"/>
                </g>
              </g>
            </g>
            <g id="Grupo_56751" data-name="Grupo 56751" transform="translate(13.669 42.484)">
              <path id="Trazado_102501" data-name="Trazado 102501" d="M287.1,275.053c0-1.386-.064-59.9-.156-146.528l.156.157-105.908.016h-.012l.172-.173c-.012,54.8-.023,105.512-.032,146.528l-.14-.14,105.92.14-105.92.14h-.14v-.14c-.009-41.016-.021-91.73-.032-146.528v-.172h.185l105.908.016h.156v.156c-.032,43.356-.058,80-.077,105.818-.018,12.888-.032,23.071-.042,30.037-.008,3.473-.015,6.144-.019,7.95q-.006,1.345-.009,2.039C287.1,274.826,287.1,275.053,287.1,275.053Z" transform="translate(-181.003 -128.353)" fill="#263238"/>
            </g>
          </g>
        </g>
      </g>
      <g id="Megaphone" transform="translate(72.211 89.567)">
        <g id="Grupo_56780" data-name="Grupo 56780" transform="translate(0)">
          <g id="Grupo_56774" data-name="Grupo 56774">
            <g id="Grupo_56772" data-name="Grupo 56772">
              <g id="Grupo_56754" data-name="Grupo 56754" transform="translate(70.367 132.429)">
                <path id="Trazado_102502" data-name="Trazado 102502" d="M244.163,358.964l2.343-7.873c.409-1.707.952-3.721,1.682-6.02a16.243,16.243,0,0,1,3.878-5.8c2.392-2.433,3.529-2.449,5.137-3.74.146-.094.309-.228.448-.3a2.535,2.535,0,0,0,.781-.676c1.386-1.5.055-3.818-2.758-3.6-2.119.166-5.573.772-11.19,6.567-.07.088-.144.162-.213.252-2.949,3.832-5.717-7.108-6.216-11.18a4.267,4.267,0,0,0-5.768-3.31l-13.684,6.4a6.387,6.387,0,0,0-3.994.135A4.067,4.067,0,0,0,212,334.648l5.55,22.155-16.3,54.238h35.135Z" transform="translate(-201.252 -323.009)" fill="#ffbe9d"/>
              </g>
              <g id="Grupo_56770" data-name="Grupo 56770">
                <g id="Grupo_56762" data-name="Grupo 56762">
                  <g id="Grupo_56756" data-name="Grupo 56756" transform="translate(78.607 110.913)">
                    <g id="Grupo_56755" data-name="Grupo 56755">
                      <path id="Trazado_102503" data-name="Trazado 102503" d="M275.356,298.18l-10.861,21.282-5.43-1.509-27.3,22.205a5.529,5.529,0,0,1-7.681-.683L213.694,327.4s20.956-9.028,24.832-16.5-.6-9.168-.6-9.168l9.863-11.208Z" transform="translate(-213.694 -290.522)" fill="#fed55f"/>
                    </g>
                  </g>
                  <g id="Grupo_56757" data-name="Grupo 56757">
                    <path id="Trazado_102504" data-name="Trazado 102504" d="M221.189,198.153s-15.9-3.516-38.27-25.03-32.883-50.081-35.622-49.942-14.7-5.412-37.436,44.056S96.078,228.193,100.6,228.1s35.252-8.656,54.445-6.474,43.861,12.184,43.861,12.184Z" transform="translate(-95.007 -123.056)" fill="#fed55f"/>
                  </g>
                  <g id="Grupo_56758" data-name="Grupo 56758" transform="translate(100.484 65.775)">
                    <path id="Trazado_102505" data-name="Trazado 102505" d="M306.2,258.654l-5.424,10.312-2.43,4.619a13.458,13.458,0,0,1-17.543,5.96l-34.075-11.872,19.845-45.3,34.044,18.142A13.46,13.46,0,0,1,306.2,258.654Z" transform="translate(-246.725 -222.368)" fill="#fed55f"/>
                  </g>
                  <g id="Grupo_56759" data-name="Grupo 56759" transform="translate(100.484 65.775)" opacity="0.4">
                    <path id="Trazado_102506" data-name="Trazado 102506" d="M306.2,258.654l-5.424,10.312-2.43,4.619a13.458,13.458,0,0,1-17.543,5.96l-34.075-11.872,19.845-45.3,34.044,18.142A13.46,13.46,0,0,1,306.2,258.654Z" transform="translate(-246.725 -222.368)"/>
                  </g>
                  <g id="Grupo_56760" data-name="Grupo 56760" transform="translate(2.978 1.134)">
                    <path id="Trazado_102507" data-name="Trazado 102507" d="M113.217,168.716c-12.1,26.8-17.14,50.676-11.253,53.336s20.472-16.909,32.575-43.706,17.14-50.676,11.253-53.335S125.32,141.919,113.217,168.716Z" transform="translate(-99.503 -124.769)" fill="#fed55f"/>
                  </g>
                  <g id="Grupo_56761" data-name="Grupo 56761" transform="translate(2.978 1.134)" opacity="0.5">
                    <path id="Trazado_102508" data-name="Trazado 102508" d="M113.217,168.716c-12.1,26.8-17.14,50.676-11.253,53.336s20.472-16.909,32.575-43.706,17.14-50.676,11.253-53.335S125.32,141.919,113.217,168.716Z" transform="translate(-99.503 -124.769)"/>
                  </g>
                </g>
                <g id="Grupo_56763" data-name="Grupo 56763" transform="translate(153.644 103.193)">
                  <path id="Trazado_102509" data-name="Trazado 102509" d="M336.226,292.632l-9.236-2.9,5.715-10.867,6.927,4.306Z" transform="translate(-326.991 -278.865)" fill="#fed55f"/>
                </g>
                <g id="Grupo_56764" data-name="Grupo 56764" transform="translate(153.644 103.193)" opacity="0.6">
                  <path id="Trazado_102510" data-name="Trazado 102510" d="M332.706,278.865l-5.715,10.867,1.9.6,4.647-10.948Z" transform="translate(-326.991 -278.865)"/>
                </g>
                <g id="Grupo_56765" data-name="Grupo 56765" transform="translate(132.891 96.582)">
                  <path id="Trazado_102511" data-name="Trazado 102511" d="M315.761,278c-.136.3-4.745-1.493-10.294-4s-9.943-4.785-9.807-5.083,4.743,1.493,10.295,4S315.895,277.7,315.761,278Z" transform="translate(-295.656 -268.884)" fill="#fed55f"/>
                </g>
                <g id="Grupo_56766" data-name="Grupo 56766" transform="translate(137.723 90.277)">
                  <path id="Trazado_102512" data-name="Trazado 102512" d="M321.065,268.314c-.146.295-4.316-1.464-9.317-3.926s-8.938-4.7-8.792-4.992,4.314,1.465,9.316,3.928S321.209,268.02,321.065,268.314Z" transform="translate(-302.952 -259.364)" fill="#fed55f"/>
                </g>
                <g id="Grupo_56767" data-name="Grupo 56767" transform="translate(131.085 104.308)">
                  <path id="Trazado_102513" data-name="Trazado 102513" d="M311.257,288.729c-.049.158-1.146-.1-2.9-.636-.874-.27-1.91-.612-3.057-1.009-1.139-.413-2.321-1.011-3.588-1.584-5.053-2.346-8.911-4.642-8.784-4.914.149-.321,4.273,1.513,9.279,3.836,1.256.569,2.421,1.2,3.519,1.654s2.091.862,2.916,1.228C310.3,288.038,311.3,288.572,311.257,288.729Z" transform="translate(-292.929 -280.549)" fill="#fed55f"/>
                </g>
                <g id="Grupo_56768" data-name="Grupo 56768" transform="translate(17.81 37.159)">
                  <path id="Trazado_102514" data-name="Trazado 102514" d="M145.454,181.125s-13.818-8.568-21.378,10.1,6.978,21.738,6.978,21.738A124.381,124.381,0,0,0,145.454,181.125Z" transform="translate(-121.897 -179.163)" fill="#fed55f"/>
                </g>
                <g id="Grupo_56769" data-name="Grupo 56769" transform="translate(16.472 16.873)" opacity="0.5">
                  <path id="Trazado_102515" data-name="Trazado 102515" d="M159.467,148.533a20.808,20.808,0,0,1-.541,3.566c-.437,2.282-1.055,5.593-1.941,9.658-.584,2-1.223,4.189-1.907,6.533L154,171.929l-.564,1.9c-.207.638-.476,1.264-.716,1.908l-3.121,8.054q-.407,1.048-.823,2.113c-.269.713-.649,1.384-.972,2.086l-2.053,4.235-2.06,4.233c-.352.688-.646,1.4-1.04,2.055l-1.152,1.953-4.4,7.435c-.359.587-.683,1.186-1.058,1.742s-.77,1.09-1.148,1.623l-2.2,3.1-3.961,5.543c-2.642,3.2-4.858,5.727-6.38,7.48a20.988,20.988,0,0,1-2.471,2.633A21.059,21.059,0,0,1,122,227.1l6.087-7.718,3.813-5.587q1.031-1.5,2.131-3.1l1.116-1.621c.364-.557.681-1.156,1.03-1.744l4.314-7.42,1.135-1.945c.389-.649.678-1.359,1.027-2.044q1.005-2.075,2.039-4.206l2.045-4.2c.323-.7.7-1.362.972-2.069l.827-2.094c1.1-2.764,2.156-5.432,3.164-7.975.246-.638.521-1.256.734-1.886q.3-.955.585-1.882.578-1.855,1.123-3.6c.731-2.317,1.411-4.478,2.037-6.457l2.3-9.536A21.333,21.333,0,0,1,159.467,148.533Z" transform="translate(-119.877 -148.533)"/>
                </g>
              </g>
              <g id="Grupo_56771" data-name="Grupo 56771" transform="translate(81.918 127.379)" opacity="0.4">
                <path id="Trazado_102516" data-name="Trazado 102516" d="M218.693,334.31a26.907,26.907,0,0,0,4.412,6.441,9.085,9.085,0,0,0,7.026,2.862c2.6-.262,5.062-2.421,5.09-5.033a3.255,3.255,0,0,0,4.193-.74,7.336,7.336,0,0,0,1.493-4.349,4.1,4.1,0,0,0,5.181-1.4,6.7,6.7,0,0,0,.653-5.667,19.844,19.844,0,0,0-2.72-5.21,7.2,7.2,0,0,0,3.853-.4c1.168-.591,1.956-2.135,1.274-3.253a3.242,3.242,0,0,0-1.9-1.211c-2.045-.64-3.479-1.152-5.607-.905-.495.005.852,5.614-12.507,13.285A112.239,112.239,0,0,1,218.693,334.31Z" transform="translate(-218.693 -315.383)"/>
              </g>
            </g>
            <g id="Grupo_56773" data-name="Grupo 56773" transform="translate(98.43 154.094)">
              <path id="Trazado_102517" data-name="Trazado 102517" d="M257.194,356.036c-.009.062-.9-.109-2.339-.07a13.225,13.225,0,0,0-9.818,4.707c-.933,1.1-1.356,1.9-1.41,1.868a2.045,2.045,0,0,1,.262-.58,10.577,10.577,0,0,1,.96-1.443,12.513,12.513,0,0,1,10-4.8,10.668,10.668,0,0,1,1.726.154A2.038,2.038,0,0,1,257.194,356.036Z" transform="translate(-243.624 -355.72)" fill="#eb996e"/>
            </g>
            <path id="Trazado_102518" data-name="Trazado 102518" d="M220.008,332.6c2.152,2.067,3.623,4.349,5.881,6.431,1.025.946,2.619,2.738,3.994,2.976s2.255.056,2.8-1.229c.44-1.04-.351-2.462-.9-3.32-1.438-2.255-2.813-4.019-3.89-5.773-.5-.821.148-.991.387-.611,1.036,1.074,2.58,2,3.508,3.173,1.27,1.6,1.5,3.72,4.825,3.05a3,3,0,0,0,1.234-.513,3.324,3.324,0,0,0,.777-3.957,10.83,10.83,0,0,0-1.85-2.8c1.415,1.6,2.959,3.28,5.209,3.461a3.1,3.1,0,0,0,3.15-1.7c.666-1.511-.289-2.972-1.246-4.154a43.266,43.266,0,0,0-5.649-5.771,4.3,4.3,0,0,0-2.746-1.018c-1.163-.008-2.619.211-3.339,1.223a4.517,4.517,0,0,0-.9,3.462s-2.918-1.48-5.263.068a7.436,7.436,0,0,0-2.925,4.207Z" transform="translate(-137.219 -189.846)" fill="#ffbe9d"/>
            <path id="Trazado_102519" data-name="Trazado 102519" d="M243.03,316.655a3.5,3.5,0,0,1-.413-3.947c.5-.972,1.123-1.917,1.757-2.132,2.776-.936,14.9,1.162,14.793,3.854-.113,2.764-1,3.98-7.578,3.029-1.158-.167-2.974-.4-2.974-.4l-1.588,2.384Z" transform="translate(-144.713 -186.304)" fill="#ffbe9d"/>
          </g>
          <g id="Grupo_56775" data-name="Grupo 56775" transform="translate(93.805 135.556)">
            <path id="Trazado_102520" data-name="Trazado 102520" d="M243.324,333.794a15.921,15.921,0,0,0-6.683-6.059,3.876,3.876,0,0,1,1.284.452,11.518,11.518,0,0,1,4.824,4.373A3.875,3.875,0,0,1,243.324,333.794Z" transform="translate(-236.641 -327.729)" fill="#eb996e"/>
          </g>
          <g id="Grupo_56776" data-name="Grupo 56776" transform="translate(98.53 130.984)">
            <path id="Trazado_102521" data-name="Trazado 102521" d="M247.775,323.192c-.061.056-.861-.6-1.953-1.265a13.739,13.739,0,0,0-1.423-.785c-.375-.176-.623-.224-.623-.276s.285-.079.707.048a6.519,6.519,0,0,1,1.521.72A4.694,4.694,0,0,1,247.775,323.192Z" transform="translate(-243.776 -320.826)" fill="#eb996e"/>
          </g>
          <g id="Grupo_56777" data-name="Grupo 56777" transform="translate(100.291 129.25)">
            <path id="Trazado_102522" data-name="Trazado 102522" d="M250.709,319.806a5.24,5.24,0,0,1-2.336-.263,4.269,4.269,0,0,1-1.495-.784c-.333-.283-.472-.52-.439-.548a9.777,9.777,0,0,0,2.036,1A17.413,17.413,0,0,1,250.709,319.806Z" transform="translate(-246.434 -318.208)" fill="#eb996e"/>
          </g>
          <g id="Grupo_56778" data-name="Grupo 56778" transform="translate(83.142 138.911)">
            <path id="Trazado_102523" data-name="Trazado 102523" d="M230.178,338.838a8.445,8.445,0,0,1-1.105-1.437,13.041,13.041,0,0,0-2.831-3.217,5.706,5.706,0,0,0-4.01-1.062,7.29,7.29,0,0,0-1.689.537c-.012-.015.115-.138.387-.306a3.773,3.773,0,0,1,1.263-.472,5.634,5.634,0,0,1,4.25,1.023,11.522,11.522,0,0,1,2.833,3.363A10.775,10.775,0,0,1,230.178,338.838Z" transform="translate(-220.542 -332.796)" fill="#eb996e"/>
          </g>
          <g id="Grupo_56779" data-name="Grupo 56779" transform="translate(92.105 171.75)">
            <path id="Trazado_102524" data-name="Trazado 102524" d="M244.026,382.4a36.449,36.449,0,0,1-4.957.713,36.474,36.474,0,0,1-4.994.37,36.425,36.425,0,0,1,4.957-.713A36.471,36.471,0,0,1,244.026,382.4Z" transform="translate(-234.074 -382.378)" fill="#eb996e"/>
          </g>
        </g>
      </g>
      <g id="Stars" transform="translate(41.549 41.078)">
        <g id="Grupo_56781" data-name="Grupo 56781">
          <path id="Trazado_102525" data-name="Trazado 102525" d="M405.553,49.844l.748,1.367,1.367.748-1.367.748-.748,1.367-.748-1.367-1.367-.748,1.367-.748Z" transform="translate(-168.501 -49.844)" fill="#fed55f"/>
          <path id="Trazado_102526" data-name="Trazado 102526" d="M429.158,101.014l.748,1.367,1.367.748-1.367.748-.748,1.367-.748-1.367-1.367-.748,1.367-.748Z" transform="translate(-176.472 -67.124)" fill="#fed55f"/>
          <path id="Trazado_102527" data-name="Trazado 102527" d="M50.825,237.533l.748,1.367,1.367.748-1.367.748-.748,1.367-.748-1.367-1.367-.748,1.367-.748Z" transform="translate(-48.711 -113.226)" fill="#fed55f"/>
          <path id="Trazado_102528" data-name="Trazado 102528" d="M373.172,62.562l1.727,3.157,3.157,1.727L374.9,69.172l-1.727,3.157-1.727-3.157-3.157-1.726,3.157-1.727Z" transform="translate(-156.631 -54.138)" fill="#fed55f"/>
          <path id="Trazado_102529" data-name="Trazado 102529" d="M70.577,205.1l1.723,3.15,3.15,1.723-3.15,1.723-1.723,3.15-1.723-3.15L65.7,209.97l3.15-1.723Z" transform="translate(-54.449 -102.272)" fill="#fed55f"/>
          <path id="Trazado_102530" data-name="Trazado 102530" d="M434.173,318.565l1.723,3.15,3.15,1.723-3.15,1.723-1.723,3.15-1.723-3.15-3.15-1.723,3.15-1.723Z" transform="translate(-177.235 -140.59)" fill="#fed55f"/>
        </g>
      </g>
    </g>
  </g>
</svg>
