<svg xmlns="http://www.w3.org/2000/svg" width="564" height="255" viewBox="0 0 564 255">
  <g id="Grupo_57009" data-name="Grupo 57009" transform="translate(-687 -1546)">
    <rect id="Rectángulo_5829" data-name="Rectángulo 5829" width="564" height="119" transform="translate(687 1682)" fill="#01549e"/>
    <g id="Grupo_57008" data-name="Grupo 57008" transform="translate(-761.541 1051.841)">
      <g id="Grupo_56787" data-name="Grupo 56787" transform="translate(1608.965 502.416)">
        <path id="Trazado_102642" data-name="Trazado 102642" d="M1912.049,527.221s46.371,18.195,74.6,44.407c0,0,67.54-48.522,104.5-47.721s56.347,18.256,56.347,18.256.553,122.478-65.132,134.9-157.208,18.412-195.364-24.23c-37.749-42.188-28.852-109.474-28.852-109.474Z" transform="translate(-1857.226 -523.898)" fill="#eaeaea" opacity="0.3"/>
      </g>
      <g id="Grupo_56788" data-name="Grupo 56788" transform="translate(1513.54 697.087)">
        <ellipse id="Elipse_4167" data-name="Elipse 4167" cx="231.405" cy="17.986" rx="231.405" ry="17.986" transform="translate(0)" fill="#024885"/>
      </g>
      <g id="Grupo_56789" data-name="Grupo 56789" transform="translate(1546.738 494.159)">
        <path id="Trazado_102643" data-name="Trazado 102643" d="M1633.993,500.126l-.821,4.277a3.577,3.577,0,0,0,3.556,4.252c43.264-.518,392.347-4.729,392.719-5.844.4-1.189-.793-6.736-3.17-6.736-2.239,0-343.332-3.825-386.974-.667A5.833,5.833,0,0,0,1633.993,500.126Z" transform="translate(-1633.107 -494.159)" fill="#8ecae4"/>
      </g>
      <g id="Grupo_56792" data-name="Grupo 56792" transform="translate(1607.378 499.466)">
        <g id="Grupo_56790" data-name="Grupo 56790" transform="translate(0 0)">
          <path id="Trazado_102644" data-name="Trazado 102644" d="M1853.915,513.567l57.688-.295a2.161,2.161,0,0,1,1.932,3.127l-9.045,18.091a2.161,2.161,0,0,1-1.932,1.194h-48.546c-1.606,0-2.42-1.511-2.5-4.045l.471-16.878A2.161,2.161,0,0,1,1853.915,513.567Z" transform="translate(-1851.511 -513.272)" fill="#364154"/>
        </g>
        <g id="Grupo_56791" data-name="Grupo 56791" transform="translate(6.096 3.974)">
          <path id="Trazado_102645" data-name="Trazado 102645" d="M1883.656,527.585h38.772a1.548,1.548,0,0,1,1.353,2.3l-6.867,12.344a3.366,3.366,0,0,1-2.941,1.73h-39.218a1.286,1.286,0,0,1-1.124-1.911l7.083-12.733A3.366,3.366,0,0,1,1883.656,527.585Z" transform="translate(-1873.467 -527.585)" fill="#fed55f"/>
        </g>
      </g>
      <g id="Grupo_56795" data-name="Grupo 56795" transform="translate(1842.661 499.466)">
        <g id="Grupo_56793" data-name="Grupo 56793" transform="translate(0 0)">
          <path id="Trazado_102646" data-name="Trazado 102646" d="M2755.574,513.551l-54.609-.279a2.045,2.045,0,0,0-1.829,2.96l8.563,17.125a2.045,2.045,0,0,0,1.829,1.131h45.955c1.521,0,2.29-1.43,2.366-3.829l-.446-15.977A2.046,2.046,0,0,0,2755.574,513.551Z" transform="translate(-2698.918 -513.272)" fill="#364154"/>
        </g>
        <g id="Grupo_56794" data-name="Grupo 56794" transform="translate(5.346 3.762)">
          <path id="Trazado_102647" data-name="Trazado 102647" d="M2756.342,526.821h-36.7a1.465,1.465,0,0,0-1.281,2.177l6.5,11.685a3.186,3.186,0,0,0,2.784,1.637h37.124a1.217,1.217,0,0,0,1.064-1.809l-6.7-12.053A3.186,3.186,0,0,0,2756.342,526.821Z" transform="translate(-2718.172 -526.821)" fill="#fed55f"/>
        </g>
      </g>
      <g id="Grupo_56846" data-name="Grupo 56846" transform="translate(1532.909 553.738)">
        <g id="Grupo_56815" data-name="Grupo 56815" transform="translate(52.487 5.359)">
          <g id="Grupo_56796" data-name="Grupo 56796" transform="translate(35.217 13.2)">
            <rect id="Rectángulo_5836" data-name="Rectángulo 5836" width="3.824" height="6.161" fill="#080435"/>
          </g>
          <g id="Grupo_56797" data-name="Grupo 56797" transform="translate(33.108 8.035)">
            <path id="Trazado_102648" data-name="Trazado 102648" d="M1901.14,757.031l-7.913,2.042a1.491,1.491,0,0,0-1.115,1.352l-.526,8.57c-.048.778.614.481,1.385.588l8.621,2.189a1.491,1.491,0,0,0,1.695-1.512L1903,758.438A1.49,1.49,0,0,0,1901.14,757.031Z" transform="translate(-1891.583 -756.983)" fill="#131f2d"/>
          </g>
          <g id="Grupo_56798" data-name="Grupo 56798" transform="translate(15.726 21.91)">
            <path id="Trazado_102649" data-name="Trazado 102649" d="M1838.075,806.957h-7.191a1.905,1.905,0,0,0-1.862,2.308l.532,2.457a1.9,1.9,0,0,0,1.862,1.5h5.673a1.905,1.905,0,0,0,1.768-1.2l.986-2.457A1.905,1.905,0,0,0,1838.075,806.957Z" transform="translate(-1828.978 -806.957)" fill="#131f2d"/>
          </g>
          <g id="Grupo_56799" data-name="Grupo 56799" transform="translate(4.642)">
            <path id="Trazado_102650" data-name="Trazado 102650" d="M1798.953,728.211l-9.623-.168-.273,3.316,10.318-.28c.069,0,.985-.068.985-.7v-1.4C1800.36,728.3,1799.022,728.211,1798.953,728.211Z" transform="translate(-1789.057 -728.043)" fill="#131f2d"/>
          </g>
          <g id="Grupo_56800" data-name="Grupo 56800" transform="translate(6.278 0.673)">
            <path id="Trazado_102651" data-name="Trazado 102651" d="M1798.75,737.408l-3.8-.249,3.539-6.692,2.166.939Z" transform="translate(-1794.949 -730.467)" fill="#131f2d"/>
          </g>
          <g id="Grupo_56801" data-name="Grupo 56801" transform="translate(12.822 6.372)">
            <path id="Trazado_102652" data-name="Trazado 102652" d="M1839.549,752.017l-21.029-1.026,1.038,18.523,18.335-1.522a4.336,4.336,0,0,0,3.977-4.321v-9.215A2.441,2.441,0,0,0,1839.549,752.017Z" transform="translate(-1818.52 -750.991)" fill="#364154"/>
          </g>
          <g id="Grupo_56802" data-name="Grupo 56802" transform="translate(32.349 8.446)">
            <path id="Trazado_102653" data-name="Trazado 102653" d="M1890.2,759.139a.677.677,0,1,0-.677.677A.677.677,0,0,0,1890.2,759.139Z" transform="translate(-1888.848 -758.462)" fill="#131f2d"/>
          </g>
          <g id="Grupo_56803" data-name="Grupo 56803" transform="translate(29.321 8.446)">
            <path id="Trazado_102654" data-name="Trazado 102654" d="M1879.3,759.139a.677.677,0,1,0-.677.677A.677.677,0,0,0,1879.3,759.139Z" transform="translate(-1877.944 -758.462)" fill="#131f2d"/>
          </g>
          <g id="Grupo_56804" data-name="Grupo 56804" transform="translate(25.942 8.446)">
            <path id="Trazado_102655" data-name="Trazado 102655" d="M1867.129,759.139a.677.677,0,1,0-.677.677A.677.677,0,0,0,1867.129,759.139Z" transform="translate(-1865.774 -758.462)" fill="#131f2d"/>
          </g>
          <g id="Grupo_56805" data-name="Grupo 56805" transform="translate(23.104 26.237)">
            <path id="Trazado_102656" data-name="Trazado 102656" d="M1864.8,950.576c-.224,0-.418-.323-.449-.768l-8.79-126.261c-.034-.486.14-.933.388-1s.477.274.511.76l8.79,126.262c.034.486-.14.933-.389,1A.238.238,0,0,1,1864.8,950.576Z" transform="translate(-1855.553 -822.539)" fill="#131f2d"/>
          </g>
          <g id="Grupo_56806" data-name="Grupo 56806" transform="translate(8.728 26.237)">
            <path id="Trazado_102657" data-name="Trazado 102657" d="M1804.228,950.577a.235.235,0,0,1-.062-.008c-.249-.066-.423-.513-.389-1l8.79-126.262c.034-.486.263-.825.511-.76s.423.513.389,1l-8.79,126.261C1804.646,950.254,1804.452,950.577,1804.228,950.577Z" transform="translate(-1803.774 -822.54)" fill="#131f2d"/>
          </g>
          <g id="Grupo_56807" data-name="Grupo 56807" transform="translate(20.316 26.237)">
            <path id="Trazado_102658" data-name="Trazado 102658" d="M1845.963,950.577c-.251,0-.454-.4-.454-.888V823.427c0-.49.2-.887.454-.887s.454.4.454.887V949.689C1846.417,950.179,1846.214,950.577,1845.963,950.577Z" transform="translate(-1845.509 -822.54)" fill="#131f2d"/>
          </g>
          <g id="Grupo_56808" data-name="Grupo 56808" transform="translate(0 6.372)">
            <path id="Trazado_102659" data-name="Trazado 102659" d="M1785.161,750.991h-9.534a1.556,1.556,0,0,0-1.545,1.373l-1.733,14.672a1.555,1.555,0,0,0,1.436,1.734l11.79.828a1.556,1.556,0,0,0,1.664-1.6l-.523-15.5A1.556,1.556,0,0,0,1785.161,750.991Z" transform="translate(-1772.339 -750.991)" fill="#131f2d"/>
          </g>
          <g id="Grupo_56809" data-name="Grupo 56809" transform="translate(0.941)">
            <path id="Trazado_102660" data-name="Trazado 102660" d="M1779.428,731.359l-2.251-.248a1.454,1.454,0,0,1-1.449-1.45h0a1.454,1.454,0,0,1,1.449-1.45l2.525-.168c.8,0,1.26.612,1.142,1.6C1780.689,730.949,1780.225,731.359,1779.428,731.359Z" transform="translate(-1775.727 -728.043)" fill="#364154"/>
          </g>
          <g id="Grupo_56810" data-name="Grupo 56810" transform="translate(1.541 0.446)">
            <path id="Trazado_102661" data-name="Trazado 102661" d="M1780.66,732.119l-1.685-.185a1.085,1.085,0,0,1-1.085-1.079h0a1.085,1.085,0,0,1,1.085-1.079l1.889-.125c.6,0,.943.455.855,1.193C1781.6,731.814,1781.257,732.119,1780.66,732.119Z" transform="translate(-1777.89 -729.651)" fill="#131f2d"/>
          </g>
          <g id="Grupo_56811" data-name="Grupo 56811" transform="translate(2.681 9.123)">
            <path id="Trazado_102662" data-name="Trazado 102662" d="M1782.441,761.217l8.033-.315a.876.876,0,0,1,.909.83l.15,2.866a.876.876,0,0,1-.966.917l-7.785-.812a.876.876,0,0,1-.784-.923l.132-2.26A.324.324,0,0,1,1782.441,761.217Z" transform="translate(-1781.995 -760.902)" fill="#364154"/>
          </g>
          <g id="Grupo_56812" data-name="Grupo 56812" transform="translate(11.022 7.134)">
            <path id="Trazado_102663" data-name="Trazado 102663" d="M1813,754.217a.48.48,0,1,0-.48.48A.48.48,0,0,0,1813,754.217Z" transform="translate(-1812.036 -753.737)" fill="#364154"/>
          </g>
          <g id="Grupo_56813" data-name="Grupo 56813" transform="translate(11.126 115.169)">
            <path id="Trazado_102664" data-name="Trazado 102664" d="M1822.507,1146.987a.342.342,0,0,1-.115-.02l-9.751-3.457a.345.345,0,0,1,.23-.65l9.638,3.417,8.931-3.034a.345.345,0,0,1,.222.653l-9.044,3.073A.347.347,0,0,1,1822.507,1146.987Z" transform="translate(-1812.411 -1142.84)" fill="#131f2d"/>
          </g>
          <g id="Grupo_56814" data-name="Grupo 56814" transform="translate(14.497 71.228)">
            <path id="Trazado_102665" data-name="Trazado 102665" d="M1831.049,988.59a.276.276,0,0,1-.134-.035l-6.223-3.457a.276.276,0,1,1,.268-.482l6.092,3.384,5.64-3a.275.275,0,1,1,.259.486l-5.772,3.073A.278.278,0,0,1,1831.049,988.59Z" transform="translate(-1824.55 -984.582)" fill="#131f2d"/>
          </g>
        </g>
        <g id="Grupo_56845" data-name="Grupo 56845" transform="translate(0 0)">
          <g id="Grupo_56822" data-name="Grupo 56822" transform="translate(65.074 21.712)">
            <g id="Grupo_56816" data-name="Grupo 56816" transform="translate(6.074 4.791)">
              <rect id="Rectángulo_5837" data-name="Rectángulo 5837" width="2.186" height="6.51" rx="1.093" transform="translate(1.975 6.819) rotate(-154.606)" fill="#ff7955"/>
            </g>
            <g id="Grupo_56817" data-name="Grupo 56817" transform="translate(4.366 3.311)">
              <rect id="Rectángulo_5838" data-name="Rectángulo 5838" width="2.186" height="6.786" rx="1.093" transform="translate(1.975 7.068) rotate(-154.611)" fill="#ff7955"/>
            </g>
            <g id="Grupo_56818" data-name="Grupo 56818" transform="translate(0 5.359)">
              <path id="Trazado_102666" data-name="Trazado 102666" d="M1820.358,814.67l.313-.073a1.1,1.1,0,0,0,.816-1.311l-1.327-5.7c-.136-.585-.91-1.474-1.494-1.335a1.528,1.528,0,0,0-.945,1.9l1.327,5.7A1.094,1.094,0,0,0,1820.358,814.67Z" transform="translate(-1817.674 -806.242)" fill="#ff7955"/>
            </g>
            <g id="Grupo_56819" data-name="Grupo 56819" transform="translate(2.609)">
              <path id="Trazado_102667" data-name="Trazado 102667" d="M1827.66,796.006l.176.084a1.034,1.034,0,0,0,1.374-.49l3.114-6.56c.243-.513.6-1.72-.356-2.066-.7-.253-1.381.966-1.772,1.749-.784,1.569-3.025,5.909-3.025,5.909A1.035,1.035,0,0,0,1827.66,796.006Z" transform="translate(-1827.071 -786.94)" fill="#ff7955"/>
            </g>
            <g id="Grupo_56820" data-name="Grupo 56820" transform="translate(1.359 4.828)">
              <path id="Trazado_102668" data-name="Trazado 102668" d="M1828,815.132s4.461-3.921,4.711-7.578c.087-1.266-5.549-3.933-6.66-3.046s-3.485,6.239-3.485,6.239Z" transform="translate(-1822.567 -804.33)" fill="#ff7955"/>
            </g>
            <g id="Grupo_56821" data-name="Grupo 56821" transform="translate(8.251 6.252)">
              <path id="Trazado_102669" data-name="Trazado 102669" d="M1847.865,814.9l.464.22c.414.2.073,1.005.357.645a13.93,13.93,0,0,0,2.522-4.766,1.161,1.161,0,0,0-.4-1.364l-.414-.123a.97.97,0,0,0-1.158.552l-1.768,3.725A.837.837,0,0,0,1847.865,814.9Z" transform="translate(-1847.389 -809.457)" fill="#ff7955"/>
            </g>
          </g>
          <g id="Grupo_56823" data-name="Grupo 56823" transform="translate(34.248 155.008)">
            <path id="Trazado_102670" data-name="Trazado 102670" d="M1712.76,1267.026s.158,3.031,2.233,3.83,8.041,1.412,5.872,3.421c-1.244,1.153-7.272.592-8.968.638s-3.269.828-4.56-.273c-1.42-1.212-.2-7.465-.2-7.465a6.778,6.778,0,0,0,2.8.653A5.4,5.4,0,0,0,1712.76,1267.026Z" transform="translate(-1706.65 -1267.026)" fill="#131f2d"/>
          </g>
          <g id="Grupo_56824" data-name="Grupo 56824" transform="translate(30.698 73.955)">
            <path id="Trazado_102671" data-name="Trazado 102671" d="M1718.41,979.763c-.4,6.292-1.146,14.457-2.531,24.444-2.642,19.038-5.849,38.237-7.428,47.442a7.145,7.145,0,0,1-6.516,5.981l-1.753.118a6,6,0,0,1-6.312-6.33l2.76-62.064.262-9.872S1719.06,969.441,1718.41,979.763Z" transform="translate(-1693.863 -975.102)" fill="#364154"/>
          </g>
          <g id="Grupo_56825" data-name="Grupo 56825" transform="translate(14.815 155.532)">
            <path id="Trazado_102672" data-name="Trazado 102672" d="M1642.767,1268.914s.158,3.03,2.233,3.83,8.041,1.411,5.872,3.421c-1.245,1.153-7.272.593-8.968.638s-3.269.828-4.56-.273c-1.42-1.212-.2-7.465-.2-7.465a6.777,6.777,0,0,0,2.8.653A5.4,5.4,0,0,0,1642.767,1268.914Z" transform="translate(-1636.657 -1268.914)" fill="#131f2d"/>
          </g>
          <g id="Grupo_56826" data-name="Grupo 56826" transform="translate(11.264 63.539)">
            <path id="Trazado_102673" data-name="Trazado 102673" d="M1648.766,937.588s.778,13.674-2.881,40.045c-2.642,19.038-5.849,38.237-7.428,47.442a7.145,7.145,0,0,1-6.516,5.981l-1.752.118a6,6,0,0,1-6.312-6.33l2.76-62.064.542-20.418Z" transform="translate(-1623.87 -937.588)" fill="#364154"/>
          </g>
          <g id="Grupo_56827" data-name="Grupo 56827" transform="translate(23.46 85.968)">
            <path id="Trazado_102674" data-name="Trazado 102674" d="M1676.759,1041.353c-.015-.113-1.511-11.3-2.635-15.309-1.113-3.967-6.277-7.419-6.329-7.453l.146-.221c.053.035,5.3,3.54,6.438,7.6,1.13,4.025,2.627,15.233,2.642,15.345Z" transform="translate(-1667.795 -1018.37)" fill="#131f2d"/>
          </g>
          <g id="Grupo_56828" data-name="Grupo 56828" transform="translate(28.959 9.216)">
            <path id="Trazado_102675" data-name="Trazado 102675" d="M1690.984,754.221l1.365-4.092.4-1.191,2.336-7,.307,6.967.184,4.182.058,1.324c.039.9.629,1.087,1.347,1.868.291.317,2.152,2.235.04,3.1-2.631,1.079-7.55-.555-9.42-2.7C1687.614,756.676,1690.542,755.543,1690.984,754.221Z" transform="translate(-1687.599 -741.934)" fill="#ff7955"/>
          </g>
          <g id="Grupo_56829" data-name="Grupo 56829" transform="translate(27.957 3.064)">
            <ellipse id="Elipse_4168" data-name="Elipse 4168" cx="6.689" cy="7.521" rx="6.689" ry="7.521" transform="matrix(0.977, -0.212, 0.212, 0.977, 0, 2.831)" fill="#ff7955"/>
          </g>
          <g id="Grupo_56830" data-name="Grupo 56830" transform="translate(26.237 0.095)">
            <path id="Trazado_102676" data-name="Trazado 102676" d="M1691.42,718.205c3.832.134,5.691-1.92,5.735-3.821.057-2.438-1.6-4.6-3.521-3.691s-1.1-1.316-2.95-1.552c-3.459-.441-4.108,1.844-6.939,1.955-3.734.147-7.991,5.924-4.862,10.141C1678.884,721.237,1688.394,718.1,1691.42,718.205Z" transform="translate(-1677.797 -709.085)" fill="#131f2d"/>
          </g>
          <g id="Grupo_56831" data-name="Grupo 56831" transform="translate(27.173 5.035)">
            <path id="Trazado_102677" data-name="Trazado 102677" d="M1697.266,728.6s-4.094,3.661-3.554,5.721.4,2.867-1.988,3.966-.28,2.883-3.467,3.012-7.091-3.369-7.09-9.118a8.3,8.3,0,0,1,1.983-5.3Z" transform="translate(-1681.167 -726.877)" fill="#131f2d"/>
          </g>
          <g id="Grupo_56832" data-name="Grupo 56832" transform="translate(39.363 11.776)">
            <path id="Trazado_102678" data-name="Trazado 102678" d="M1727.494,751.765a1.453,1.453,0,0,0-1.906-.41,1.227,1.227,0,0,0-.225,1.8,1.452,1.452,0,0,0,1.905.41A1.228,1.228,0,0,0,1727.494,751.765Z" transform="translate(-1725.072 -751.154)" fill="#ff7955"/>
          </g>
          <g id="Grupo_56833" data-name="Grupo 56833" transform="translate(25.692 12.358)">
            <path id="Trazado_102679" data-name="Trazado 102679" d="M1675.93,754.726l-.022,0a.1.1,0,0,1-.07-.115,2.347,2.347,0,0,1,1.083-1.345.1.1,0,0,1,.091.167,2.191,2.191,0,0,0-.99,1.222A.1.1,0,0,1,1675.93,754.726Z" transform="translate(-1675.834 -753.252)" fill="#131f2d"/>
          </g>
          <g id="Grupo_56834" data-name="Grupo 56834" transform="translate(25.445 11.023)">
            <path id="Trazado_102680" data-name="Trazado 102680" d="M1676.324,749.523h-.006c-.049,0-1.194-.079-1.371-.966a.1.1,0,1,1,.187-.037c.148.742,1.185.812,1.2.813a.1.1,0,0,1-.005.19Z" transform="translate(-1674.945 -748.443)" fill="#131f2d"/>
          </g>
          <g id="Grupo_56835" data-name="Grupo 56835" transform="translate(40.525)">
            <path id="Trazado_102681" data-name="Trazado 102681" d="M1730.225,710.3a.639.639,0,0,1-.368-.115c-.491-.335-.6-1.3-.6-1.341a.1.1,0,1,1,.189-.019c0,.009.1.917.518,1.2a.473.473,0,0,0,.415.06,2.6,2.6,0,0,0,.732-.365,1.813,1.813,0,0,1,1.756-.294.1.1,0,0,1-.054.182,1.617,1.617,0,0,0-1.6.272,2.758,2.758,0,0,1-.785.388A.787.787,0,0,1,1730.225,710.3Z" transform="translate(-1729.257 -708.742)" fill="#131f2d"/>
          </g>
          <g id="Grupo_56836" data-name="Grupo 56836" transform="translate(31.962 0.685)">
            <path id="Trazado_102682" data-name="Trazado 102682" d="M1698.931,712.331a2.922,2.922,0,0,1-.435-.032.1.1,0,0,1,.028-.188,3.814,3.814,0,0,0,2.737-.877.1.1,0,0,1,.126.143A4.109,4.109,0,0,1,1698.931,712.331Z" transform="translate(-1698.415 -711.21)" fill="#131f2d"/>
          </g>
          <g id="Grupo_56837" data-name="Grupo 56837" transform="translate(39.455 13.485)">
            <path id="Trazado_102683" data-name="Trazado 102683" d="M1726.708,758.283a1.471,1.471,0,0,1-1.3-.907.046.046,0,0,1,.081-.044c.588,1.088,1.419.842,1.455.831a.046.046,0,0,1,.027.087A.985.985,0,0,1,1726.708,758.283Z" transform="translate(-1725.402 -757.309)" fill="#131f2d"/>
          </g>
          <g id="Grupo_56838" data-name="Grupo 56838" transform="translate(14.058 71.041)">
            <path id="Trazado_102684" data-name="Trazado 102684" d="M1675.119,972.181s-27.8-1.519-40.99,1.661l-.2-3.761,18.5-5.477,14.934.367,4.588.979,3.237,5Z" transform="translate(-1633.933 -964.605)" fill="#131f2d"/>
          </g>
          <g id="Grupo_56839" data-name="Grupo 56839" transform="translate(13.292 22.291)">
            <path id="Trazado_102685" data-name="Trazado 102685" d="M1634.6,799.545s2.447-10.521,17.413-10.52c26.082,0,18.766,21.274,21.179,55.095,0,0-16.815-3.644-41.148,1.206,0,0-2.369-18.316.692-33.8C1633.549,807.437,1633.4,803.1,1634.6,799.545Z" transform="translate(-1631.174 -789.025)" fill="#fed55f"/>
          </g>
          <g id="Grupo_56840" data-name="Grupo 56840" transform="translate(37.138 22.29)">
            <path id="Trazado_102686" data-name="Trazado 102686" d="M1717.059,789.022s8.368.122,14.589,5.994,14.234,13.961,15.934,18.615c2.094,5.73-1.76,11.48-6.654,11.6s-9.28-3.425-9.28-3.425Z" transform="translate(-1717.059 -789.022)" fill="#fed55f"/>
          </g>
          <g id="Grupo_56841" data-name="Grupo 56841" transform="translate(0 24.909)">
            <path id="Trazado_102687" data-name="Trazado 102687" d="M1583.384,826.788c2.447-18.106,23.067-28.331,23.067-28.331l4.4,22.71-8.589,2.725a6.857,6.857,0,0,0-3.547,10.481c3.42,4.829,5.417,11.3,1.886,10.111C1594.564,842.447,1582.16,834.74,1583.384,826.788Z" transform="translate(-1583.3 -798.457)" fill="#fed55f"/>
          </g>
          <g id="Grupo_56842" data-name="Grupo 56842" transform="translate(13.253 43.315)">
            <path id="Trazado_102688" data-name="Trazado 102688" d="M1631.172,891.775a137.3,137.3,0,0,1,1.649-27.026l.181.032a137.1,137.1,0,0,0-1.646,26.984Z" transform="translate(-1631.033 -864.749)" fill="#131f2d"/>
          </g>
          <g id="Grupo_56843" data-name="Grupo 56843" transform="translate(43.202 46.209)">
            <path id="Trazado_102689" data-name="Trazado 102689" d="M1750.324,885.944c-4.944-2.916-11.362-10.581-11.426-10.658l.141-.118c.064.077,6.462,7.717,11.379,10.617Z" transform="translate(-1738.898 -875.169)" fill="#131f2d"/>
          </g>
          <g id="Grupo_56844" data-name="Grupo 56844" transform="translate(56.843 31.365)">
            <path id="Trazado_102690" data-name="Trazado 102690" d="M1788.029,828.784s6.322-6.592,8.531-7.04,14.949,3.063.969,24.281Z" transform="translate(-1788.029 -821.708)" fill="#fed55f"/>
          </g>
        </g>
      </g>
      <g id="Grupo_56879" data-name="Grupo 56879" transform="translate(1653.159 555.65)">
        <g id="Grupo_56847" data-name="Grupo 56847" transform="translate(73.091 50.869)">
          <path id="Trazado_102691" data-name="Trazado 102691" d="M2289.953,904.421l0-.016c9.3-1.795,2.536-3.017-1.942-2.485.542-.805,1.463-2.607,1.013-2.995h0c-.518-.446-2.344.958-2.856,1.411-1.18,1.044-5.134,2.7-6.294,3.765-.5.463,0,6.786,0,6.786a63.678,63.678,0,0,0,7.55.944,2.581,2.581,0,0,0,.6.045c.266-.01.619-.016,1.023-.026h0c1.926-.045,5.016-.164,5.468-1.054.8-1.58-4.52-.82-4.52-.82s4.149-.686,5-1.952c.677-1.008-3.218-1.019-4.834-.982V907c1.574-.173,5.371-.708,5.7-1.876C2296.236,903.8,2290.913,904.326,2289.953,904.421Z" transform="translate(-2279.648 -898.84)" fill="#ff7955"/>
        </g>
        <g id="Grupo_56848" data-name="Grupo 56848" transform="translate(35.056 22.995)">
          <path id="Trazado_102692" data-name="Trazado 102692" d="M2142.658,798.446c.164.225,12.227,1.61,18.9,10.427s6.992,16.752,11.927,19.119c5.751,2.759,10.253.47,8.521,10.6-.4,2.329-22.655,1.708-22.655,1.708Z" transform="translate(-2142.658 -798.446)" fill="#016eb9"/>
        </g>
        <g id="Grupo_56849" data-name="Grupo 56849" transform="translate(6.886 22.586)">
          <path id="Trazado_102693" data-name="Trazado 102693" d="M2044.792,806.129s2.286-9.062,19.156-9.154c24.327-.133,22.074,22.22,24.325,56.191,0,0-23.962-3.389-46.658,1.483C2041.615,854.649,2039.51,819.975,2044.792,806.129Z" transform="translate(-2041.201 -796.975)" fill="#016eb9"/>
        </g>
        <g id="Grupo_56850" data-name="Grupo 56850" transform="translate(23.697 8.995)">
          <path id="Trazado_102694" data-name="Trazado 102694" d="M2105.334,760l1.612-3.989.469-1.161,2.759-6.828-.3,7-.18,4.2-.057,1.329a4.021,4.021,0,0,0,.656,2.651c.244.339,1.131,2.3-.911,2.981-1.644.551-6.078-1.816-7.636-4.105C2101.748,762.077,2104.813,761.291,2105.334,760Z" transform="translate(-2101.748 -748.023)" fill="#ff7955"/>
        </g>
        <g id="Grupo_56851" data-name="Grupo 56851" transform="translate(45.336 35.142)">
          <path id="Trazado_102695" data-name="Trazado 102695" d="M2189.128,868.4c-1.386-12.581-9.365-25.927-9.445-26.061l.238-.144c.081.134,8.091,13.532,9.483,26.174Z" transform="translate(-2179.683 -842.198)" fill="#131f2d"/>
        </g>
        <g id="Grupo_56852" data-name="Grupo 56852" transform="translate(28.463 18.055)">
          <path id="Trazado_102696" data-name="Trazado 102696" d="M2122.094,782.791s-2.367-.652-3.183-2.137l3.464,1.059Z" transform="translate(-2118.911 -780.654)" fill="#131f2d"/>
        </g>
        <g id="Grupo_56866" data-name="Grupo 56866" transform="translate(20.807 0)">
          <g id="Grupo_56853" data-name="Grupo 56853" transform="translate(14.458 6.831)">
            <path id="Trazado_102697" data-name="Trazado 102697" d="M2146.079,740.229a9.239,9.239,0,0,1-.321,3.824c-.621,2.09-2.347-3.32-2.347-3.32Z" transform="translate(-2143.412 -740.229)" fill="#5c305d"/>
          </g>
          <g id="Grupo_56854" data-name="Grupo 56854" transform="translate(4.167 3.76)">
            <ellipse id="Elipse_4169" data-name="Elipse 4169" cx="6.252" cy="7.538" rx="6.252" ry="7.538" transform="translate(0 0.587) rotate(-2.69)" fill="#ff7955"/>
          </g>
          <g id="Grupo_56855" data-name="Grupo 56855">
            <path id="Trazado_102698" data-name="Trazado 102698" d="M2095.885,725.341l3.042-.06a2.2,2.2,0,0,0,1.711-.85c.7-.915,1.484-1.35,4.288-1.008,3.551.432,6.081-1.494,6.622-3.326a2.135,2.135,0,0,0-3.028-2.555c-1.865.757-.911-1.4-2.611-1.783-3.178-.71-3.988,1.717-6.613,1.416-3.442-.395-9.844,1.71-7.421,8.031Z" transform="translate(-2091.339 -715.628)" fill="#131f2d"/>
          </g>
          <g id="Grupo_56856" data-name="Grupo 56856" transform="translate(9.54 11.025)">
            <path id="Trazado_102699" data-name="Trazado 102699" d="M2127.278,755.608a.127.127,0,0,0-.037-.237,1.372,1.372,0,0,0-1.525.707.128.128,0,0,0,.042.174.139.139,0,0,0,.174-.043,2.169,2.169,0,0,1,1.266-.588A.126.126,0,0,0,2127.278,755.608Z" transform="translate(-2125.698 -755.337)" fill="#080435"/>
          </g>
          <g id="Grupo_56857" data-name="Grupo 56857" transform="translate(10.424 12.255)">
            <path id="Trazado_102700" data-name="Trazado 102700" d="M2128.9,760.381c.055.3.275.506.49.466a.491.491,0,0,0,.291-.611c-.055-.3-.274-.506-.49-.466A.491.491,0,0,0,2128.9,760.381Z" transform="translate(-2128.883 -759.765)" fill="#080435"/>
          </g>
          <g id="Grupo_56858" data-name="Grupo 56858" transform="translate(14.525 10.811)">
            <path id="Trazado_102701" data-name="Trazado 102701" d="M2144.95,755.068a.092.092,0,0,0,.073-.057.152.152,0,0,0-.035-.175.889.889,0,0,0-1.3.038.151.151,0,0,0-.017.177.094.094,0,0,0,.138.031,1.329,1.329,0,0,1,1.08-.033A.084.084,0,0,0,2144.95,755.068Z" transform="translate(-2143.651 -754.567)" fill="#080435"/>
          </g>
          <g id="Grupo_56859" data-name="Grupo 56859" transform="translate(14.547 12.05)">
            <path id="Trazado_102702" data-name="Trazado 102702" d="M2143.749,759.489a.491.491,0,0,0,.276.618c.215.045.44-.158.5-.454a.491.491,0,0,0-.276-.618C2144.036,758.99,2143.811,759.193,2143.749,759.489Z" transform="translate(-2143.733 -759.029)" fill="#080435"/>
          </g>
          <g id="Grupo_56860" data-name="Grupo 56860" transform="translate(0.534 9.051)">
            <path id="Trazado_102703" data-name="Trazado 102703" d="M2093.264,748.753s1.706,4.668,4.631,5.246a4.075,4.075,0,0,1,3.107-5.29S2096.442,747.594,2093.264,748.753Z" transform="translate(-2093.264 -748.226)" fill="#5c305d"/>
          </g>
          <g id="Grupo_56861" data-name="Grupo 56861" transform="translate(4.331 10.447)">
            <path id="Trazado_102704" data-name="Trazado 102704" d="M2107.181,755.372a1.268,1.268,0,1,0,.308-2.009A1.468,1.468,0,0,0,2107.181,755.372Z" transform="translate(-2106.936 -753.254)" fill="#ff7955"/>
          </g>
          <g id="Grupo_56862" data-name="Grupo 56862" transform="translate(10.774 15.4)">
            <path id="Trazado_102705" data-name="Trazado 102705" d="M2134.233,771.114a12.822,12.822,0,0,1-4.091-.021,1.967,1.967,0,0,0,2.327,1.779C2133.736,772.749,2134.233,771.114,2134.233,771.114Z" transform="translate(-2130.142 -771.093)" fill="#fff"/>
          </g>
          <g id="Grupo_56863" data-name="Grupo 56863" transform="translate(15.872 0.684)">
            <path id="Trazado_102706" data-name="Trazado 102706" d="M2149.507,719a.956.956,0,0,1-1-.9l.17,0a.782.782,0,0,0,.841.735Z" transform="translate(-2148.504 -718.09)" fill="#131f2d"/>
          </g>
          <g id="Grupo_56864" data-name="Grupo 56864" transform="translate(14.663 2.568)">
            <path id="Trazado_102707" data-name="Trazado 102707" d="M2144.166,729.188l-.017-.084c.039-.008,3.923-.814,4.244-2.752a1.285,1.285,0,0,0-.188-1.143c-.348-.355-1.045-.253-1.661-.162-.094.014-.187.027-.276.039l-.011-.085.275-.039c.635-.093,1.355-.2,1.734.187a1.36,1.36,0,0,1,.212,1.217c-.137.829-.928,1.579-2.287,2.172A11.4,11.4,0,0,1,2144.166,729.188Z" transform="translate(-2144.149 -724.875)" fill="#fff"/>
          </g>
          <g id="Grupo_56865" data-name="Grupo 56865" transform="translate(6.417 0.902)">
            <path id="Trazado_102708" data-name="Trazado 102708" d="M2116.222,720.3a8.174,8.174,0,0,1-1.772-.2l.018-.083a6.982,6.982,0,0,0,4.2-.262,4.64,4.64,0,0,0,1.43-.877l.061.06a4.611,4.611,0,0,1-1.454.895A6.531,6.531,0,0,1,2116.222,720.3Z" transform="translate(-2114.45 -718.877)" fill="#fff"/>
          </g>
        </g>
        <g id="Grupo_56876" data-name="Grupo 56876" transform="translate(4.542 32.968)">
          <g id="Grupo_56872" data-name="Grupo 56872" transform="translate(26.18 22.458)">
            <g id="Grupo_56868" data-name="Grupo 56868">
              <g id="Grupo_56867" data-name="Grupo 56867">
                <path id="Trazado_102709" data-name="Trazado 102709" d="M2134.9,915.711s5.083-1.282,7.622.44,4.48,5.843,2.68,5.109a14.481,14.481,0,0,1-3.163-1.813s3.525,3.072,2.265,3.694-3.385-1.347-3.385-1.347,3.164,3.475,1.784,3.677-3.538-2.082-3.538-2.082,2.807,3.225,1.2,3.423-3.42-3.734-4.68-3.112-6.474,2.667-8.631-.623Z" transform="translate(-2127.051 -915.252)" fill="#ff7955"/>
              </g>
            </g>
            <g id="Grupo_56869" data-name="Grupo 56869" transform="translate(12.297 2.505)">
              <path id="Trazado_102710" data-name="Trazado 102710" d="M2173.267,925.545c-.01-.012-1.018-1.146-1.9-1.038l-.028-.225c1-.123,2.052,1.063,2.1,1.113Z" transform="translate(-2171.341 -924.274)" fill="#ef6343"/>
            </g>
            <g id="Grupo_56870" data-name="Grupo 56870" transform="translate(9.973 3.978)">
              <path id="Trazado_102711" data-name="Trazado 102711" d="M2165.277,931.05a3.821,3.821,0,0,0-2.306-1.244l.017-.226a3.982,3.982,0,0,1,2.462,1.324Z" transform="translate(-2162.971 -929.58)" fill="#ef6343"/>
            </g>
            <g id="Grupo_56871" data-name="Grupo 56871" transform="translate(8.494 5.525)">
              <path id="Trazado_102712" data-name="Trazado 102712" d="M2159.8,936.55a2.156,2.156,0,0,0-2.121-1.147l-.036-.224a2.423,2.423,0,0,1,2.358,1.266Z" transform="translate(-2157.644 -935.152)" fill="#ef6343"/>
            </g>
          </g>
          <g id="Grupo_56874" data-name="Grupo 56874">
            <g id="Grupo_56873" data-name="Grupo 56873">
              <path id="Trazado_102713" data-name="Trazado 102713" d="M2060.509,865.053c2.1,0,7.153-7.892,7.153-7.892-12.267,1.292-20.413-2.946-22.681-5.679-4.577-5.518-3.218-13.291-3.19-13.385,0,0,.375-1.546-3.423-3.688-1.825-1.029-9.727,16.885-2.839,25.263C2040.24,865.4,2051.188,866.38,2060.509,865.053Z" transform="translate(-2032.759 -834.367)" fill="#ff7955"/>
            </g>
          </g>
          <g id="Grupo_56875" data-name="Grupo 56875" transform="translate(5.193 21.478)" opacity="0.5">
            <path id="Trazado_102714" data-name="Trazado 102714" d="M2055.177,916.5a3.866,3.866,0,0,1-1.978-.606c-1.439-.885-2.109-2.36-1.527-3.357a1.617,1.617,0,0,1,1.042-.74,3.5,3.5,0,0,1,2.579.535c1.438.885,2.109,2.36,1.527,3.358a1.618,1.618,0,0,1-1.043.739A2.46,2.46,0,0,1,2055.177,916.5Zm-1.855-4.219a1.937,1.937,0,0,0-.472.056,1.091,1.091,0,0,0-.7.48c-.415.71.2,1.9,1.338,2.6a2.944,2.944,0,0,0,2.153.47,1.091,1.091,0,0,0,.7-.481c.415-.71-.2-1.9-1.338-2.6A3.3,3.3,0,0,0,2053.322,912.279Z" transform="translate(-2051.462 -911.724)" fill="#ec865c"/>
          </g>
        </g>
        <g id="Grupo_56877" data-name="Grupo 56877" transform="translate(0 23.67)">
          <path id="Trazado_102715" data-name="Trazado 102715" d="M2037.206,800.877s-26.941,6.681-19.511,29.862c4.724,14.739,31,10.123,31,10.123l2.973-8.448-19.209-24.16Z" transform="translate(-2016.399 -800.877)" fill="#016eb9"/>
        </g>
        <g id="Grupo_56878" data-name="Grupo 56878" transform="translate(13.77 37.915)">
          <path id="Trazado_102716" data-name="Trazado 102716" d="M2087.185,870.407c-.042-.007-4.2-.707-8.661-1.944-6.018-1.667-9.7-3.464-10.955-5.341-2.976-4.463-.83-10.874-.808-10.938l.263.09a16.938,16.938,0,0,0-.712,3.71,11.13,11.13,0,0,0,1.488,6.985c2.905,4.357,19.266,7.138,19.431,7.166Z" transform="translate(-2065.992 -852.183)" fill="#131f2d"/>
        </g>
      </g>
      <g id="Grupo_56918" data-name="Grupo 56918" transform="translate(1760.927 556.279)">
        <g id="Grupo_56880" data-name="Grupo 56880" transform="translate(10.038 116.196)">
          <path id="Trazado_102717" data-name="Trazado 102717" d="M2447.3,1138.741s-.823,5.371-3.015,8.109c-1.444,1.8-5.428,5.379-2.595,6.57,2.263.951,6.62-3.283,8.035-4.337s3.548-3.048,3.074-4.747a27.5,27.5,0,0,1-.657-7.945Z" transform="translate(-2440.696 -1136.391)" fill="#131f2d"/>
        </g>
        <g id="Grupo_56881" data-name="Grupo 56881" transform="translate(25.931 110.493)">
          <path id="Trazado_102718" data-name="Trazado 102718" d="M2499.586,1119.738s1.1,5.322-.007,8.651c-.727,2.194-3.22,6.931-.149,7.062,2.452.105,5.065-5.38,6.025-6.86s2.267-4.091,1.232-5.52a27.5,27.5,0,0,1-3.378-7.221Z" transform="translate(-2497.935 -1115.851)" fill="#131f2d"/>
        </g>
        <g id="Grupo_56883" data-name="Grupo 56883" transform="translate(0 56.53)">
          <g id="Grupo_56882" data-name="Grupo 56882">
            <path id="Trazado_102719" data-name="Trazado 102719" d="M2430.588,983.107c-29.373-19.593-27.922-36.757-23.852-43.47,4.728-7.8,12.213-13.96,23.685-16.71a63.5,63.5,0,0,1,8.4-1.4,5.875,5.875,0,0,1,6.464,6l-.263,10h.022c-4.9-.1-19.769,1.392-23.665,9.315-.81,1.647,18.962,24.87,18.225,29.037C2438.77,980.588,2433.46,985.023,2430.588,983.107Z" transform="translate(-2404.542 -921.497)" fill="#364154"/>
          </g>
        </g>
        <g id="Grupo_56885" data-name="Grupo 56885" transform="translate(8.774 57.929)">
          <g id="Grupo_56884" data-name="Grupo 56884">
            <path id="Trazado_102720" data-name="Trazado 102720" d="M2442.027,989.68a5.851,5.851,0,0,1-5.873-6.192c.443-7.5,1.836-20.256,6.2-29.9a41.242,41.242,0,0,1,11.7-14.775,65.445,65.445,0,0,1,14.182-8.687c9.021-4.148,15.518-3.569,15.518-3.569l4.93,7.27c-.065.013,1.383,7.333-9.04,13.861-5.75,3.6-17.311,5.8-22.067,15.109-3.4,6.645-4.693,15.455-5.124,21.611a5.643,5.643,0,0,1-5.6,5.244Z" transform="translate(-2436.144 -926.534)" fill="#364154"/>
          </g>
        </g>
        <g id="Grupo_56886" data-name="Grupo 56886" transform="translate(13.045 32.189)">
          <path id="Trazado_102721" data-name="Trazado 102721" d="M2459.845,833.826a64.759,64.759,0,0,0-8.229,23.138c-1.436,9.143,14.336,7.407,14.336,7.407l1.607-28.008Z" transform="translate(-2451.524 -833.826)" fill="#ff7955"/>
        </g>
        <g id="Grupo_56887" data-name="Grupo 56887" transform="translate(20.666 20.992)">
          <path id="Trazado_102722" data-name="Trazado 102722" d="M2509.958,799.427s-4.615-7.888-15.252-5.467-14.971,13.285-15.733,39.377c0,0,6.388,11.3,35.449,9.1,3.22-.244,7.834-.67,6.26-5.891C2517.756,826.842,2514.922,807.484,2509.958,799.427Z" transform="translate(-2478.972 -793.499)" fill="#364154"/>
        </g>
        <g id="Grupo_56888" data-name="Grupo 56888" transform="translate(20.349 20.654)">
          <path id="Trazado_102723" data-name="Trazado 102723" d="M2520.835,800.851l-10.942,2.057s-19.133,5.659-24.49,5.7a8.674,8.674,0,0,1-7.573-3.873,28.334,28.334,0,0,1,13.374-10.792,26.226,26.226,0,0,1,2.676-.865,19.668,19.668,0,0,1,4.758-.8C2516.7,792.077,2520.835,800.851,2520.835,800.851Z" transform="translate(-2477.831 -792.281)" fill="#364154"/>
        </g>
        <g id="Grupo_56889" data-name="Grupo 56889" transform="translate(52.233 28.603)">
          <path id="Trazado_102724" data-name="Trazado 102724" d="M2603.787,821.532c.237.863-2.057,2.3-5.123,3.215s-5.743.954-5.98.091,2.057-2.3,5.123-3.215S2603.551,820.669,2603.787,821.532Z" transform="translate(-2592.668 -820.911)" fill="#131f2d"/>
        </g>
        <g id="Grupo_56891" data-name="Grupo 56891" transform="translate(37.804 29.639)">
          <g id="Grupo_56890" data-name="Grupo 56890">
            <path id="Trazado_102725" data-name="Trazado 102725" d="M2564.359,848.525c-4.673,7.323-13.931,12-23.659,11.69l1.037-7.8c7.543-1.375,13.325-6.284,14.4-10.422a33.6,33.6,0,0,0,.242-14.071.983.983,0,0,1,.372-.947c.964-.739,3.463-2.241,7.928-2.329a.864.864,0,0,1,.851.642C2567.4,832.321,2568.529,841.991,2564.359,848.525Z" transform="translate(-2540.7 -824.642)" fill="#ff7955"/>
          </g>
        </g>
        <g id="Grupo_56892" data-name="Grupo 56892" transform="translate(55.183 51.73)" opacity="0.3">
          <path id="Trazado_102726" data-name="Trazado 102726" d="M2604.65,908.4a1.247,1.247,0,0,1-.493-.1,1.964,1.964,0,0,1-.641-2.629,2.482,2.482,0,0,1,1.273-1.348,1.353,1.353,0,0,1,1.056-.014,1.964,1.964,0,0,1,.641,2.629,2.483,2.483,0,0,1-1.274,1.348A1.5,1.5,0,0,1,2604.65,908.4Zm.7-3.832a1.142,1.142,0,0,0-.427.088,2.119,2.119,0,0,0-1.077,1.154c-.388.919-.186,1.887.451,2.159a1,1,0,0,0,.779-.017,2.119,2.119,0,0,0,1.077-1.155h0c.388-.918.186-1.887-.451-2.159A.9.9,0,0,0,2605.35,904.566Z" transform="translate(-2603.293 -904.206)" fill="#ec865c"/>
        </g>
        <g id="Grupo_56897" data-name="Grupo 56897" transform="translate(26.363 55.954)">
          <g id="Grupo_56893" data-name="Grupo 56893">
            <path id="Trazado_102727" data-name="Trazado 102727" d="M2511.971,920.874s-6.986-2.222-9.207-1.171-4.263,4.072-2.748,3.713a16.189,16.189,0,0,0,3.324-1.353s-3.765,2.3-2.844,2.952,4.175-1.389,4.175-1.389-4.262,3.1-3.194,3.429,4.288-2.047,4.288-2.047-3.85,3.042-2.6,3.4,3.165-2.534,4.085-1.887,3.268,3.619,5.379,1.28Z" transform="translate(-2499.493 -919.421)" fill="#ff7955"/>
          </g>
          <g id="Grupo_56894" data-name="Grupo 56894" transform="translate(3.788 1.911)">
            <path id="Trazado_102728" data-name="Trazado 102728" d="M2513.253,927.106l-.116-.139c.041-.035,1.018-.845,1.8-.624l-.05.175C2514.2,926.323,2513.263,927.1,2513.253,927.106Z" transform="translate(-2513.137 -926.305)" fill="#ef6343"/>
          </g>
          <g id="Grupo_56895" data-name="Grupo 56895" transform="translate(5.118 3.385)">
            <path id="Trazado_102729" data-name="Trazado 102729" d="M2518.044,932.5l-.119-.137a3.174,3.174,0,0,1,2.111-.745l-.014.181A3.065,3.065,0,0,0,2518.044,932.5Z" transform="translate(-2517.925 -931.612)" fill="#ef6343"/>
          </g>
          <g id="Grupo_56896" data-name="Grupo 56896" transform="translate(6.212 4.763)">
            <path id="Trazado_102730" data-name="Trazado 102730" d="M2521.985,937.469l-.117-.139c.049-.041,1.2-1,2.011-.695l-.064.17C2523.1,936.537,2522,937.459,2521.985,937.469Z" transform="translate(-2521.868 -936.575)" fill="#ef6343"/>
          </g>
        </g>
        <g id="Grupo_56898" data-name="Grupo 56898" transform="translate(9.719 69.853)">
          <path id="Trazado_102731" data-name="Trazado 102731" d="M2439.728,1004.169l-.181-.012a82.455,82.455,0,0,1,2.547-14.363c1.916-7.01,5.635-16.225,12.468-20.315l.093.156c-3.743,2.24-8.93,7.564-12.385,20.2A82.3,82.3,0,0,0,2439.728,1004.169Z" transform="translate(-2439.547 -969.479)" fill="#020202"/>
        </g>
        <g id="Grupo_56899" data-name="Grupo 56899" transform="translate(24.69 98.706)">
          <path id="Trazado_102732" data-name="Trazado 102732" d="M2493.647,1091.979l-.181,0a53.231,53.231,0,0,1,3.523-18.578l.166.072A53.058,53.058,0,0,0,2493.647,1091.979Z" transform="translate(-2493.466 -1073.399)" fill="#020202"/>
        </g>
        <g id="Grupo_56900" data-name="Grupo 56900" transform="translate(29.54 12.038)">
          <path id="Trazado_102733" data-name="Trazado 102733" d="M2513.329,771.189s2.486-1.278,2.755-2.756,1.271-1.126,1.79-1.547-1.4-4.187-1.4-4.187l-5.537-1.45,1.2,6.813Z" transform="translate(-2510.935 -761.249)" fill="#131f2d"/>
        </g>
        <g id="Grupo_56901" data-name="Grupo 56901" transform="translate(35.131 9.495)">
          <path id="Trazado_102734" data-name="Trazado 102734" d="M2539.059,763.268a3.2,3.2,0,0,1-2.774-1.653l-1.74-3.178-.5-.922-2.969-5.424.977,5.82.587,3.493.167,1a1.607,1.607,0,0,1-1.16,1.812l-.014,0c-.366.745-1.14,7.62.7,8.02,2.164.47,5.716-6.892,6.749-8.967Z" transform="translate(-2531.07 -752.092)" fill="#ff7955"/>
        </g>
        <g id="Grupo_56902" data-name="Grupo 56902" transform="translate(36.107 14.853)">
          <path id="Trazado_102735" data-name="Trazado 102735" d="M2537.083,772.28c0,.032,0,.065,0,.1a3.733,3.733,0,0,1-1.9,2.976l-.013-.009-.587-3.493a3.012,3.012,0,0,1,1.993-.4A.828.828,0,0,1,2537.083,772.28Z" transform="translate(-2534.588 -771.39)" fill="#e1986c"/>
        </g>
        <g id="Grupo_56903" data-name="Grupo 56903" transform="translate(28.805 3.144)">
          <ellipse id="Elipse_4170" data-name="Elipse 4170" cx="5.53" cy="6.822" rx="5.53" ry="6.822" transform="translate(0 1.042) rotate(-5.408)" fill="#ff7955"/>
        </g>
        <g id="Grupo_56904" data-name="Grupo 56904" transform="translate(32.405 14.16)">
          <path id="Trazado_102736" data-name="Trazado 102736" d="M2521.252,769.866a12,12,0,0,0,3.7-.973,1.841,1.841,0,0,1-1.693,2.156C2522.084,771.233,2521.252,769.866,2521.252,769.866Z" transform="translate(-2521.252 -768.893)" fill="#fff"/>
        </g>
        <g id="Grupo_56906" data-name="Grupo 56906" transform="translate(34.323 10.147)">
          <g id="Grupo_56905" data-name="Grupo 56905">
            <path id="Trazado_102737" data-name="Trazado 102737" d="M2528.264,754.866a.126.126,0,0,1-.037-.236,1.362,1.362,0,0,1,1.655.208.127.127,0,0,1,.012.178.139.139,0,0,1-.178.012,2.154,2.154,0,0,0-1.375-.174A.125.125,0,0,1,2528.264,754.866Z" transform="translate(-2528.16 -754.439)" fill="#080435"/>
          </g>
        </g>
        <g id="Grupo_56907" data-name="Grupo 56907" transform="translate(35.018 11.275)">
          <path id="Trazado_102738" data-name="Trazado 102738" d="M2531.455,758.994c.038.3-.107.561-.323.589s-.422-.192-.459-.49.107-.561.323-.589S2531.417,758.7,2531.455,758.994Z" transform="translate(-2530.666 -758.503)" fill="#080435"/>
        </g>
        <g id="Grupo_56908" data-name="Grupo 56908" transform="translate(31.478 11.876)">
          <path id="Trazado_102739" data-name="Trazado 102739" d="M2518.7,761.13a.487.487,0,0,1-.284.608c-.214.041-.433-.165-.49-.459a.487.487,0,0,1,.285-.608C2518.426,760.629,2518.646,760.835,2518.7,761.13Z" transform="translate(-2517.914 -760.665)" fill="#080435"/>
        </g>
        <g id="Grupo_56909" data-name="Grupo 56909" transform="translate(26.71 0)">
          <path id="Trazado_102740" data-name="Trazado 102740" d="M2511.245,723.749a9.693,9.693,0,0,0-6.471,9.8q.024.378.062.776a3.906,3.906,0,0,1,3.323,3.141c.131.871-2.257,2.6-2.441,2.54-1.382-.465-5.148-3.365-4.97-9.845s2.216-11.421,8.08-12.174,5.451,3.243,5.451,3.243A5.536,5.536,0,0,1,2511.245,723.749Z" transform="translate(-2500.742 -717.894)" fill="#131f2d"/>
        </g>
        <g id="Grupo_56910" data-name="Grupo 56910" transform="translate(36.389 2.929)">
          <path id="Trazado_102741" data-name="Trazado 102741" d="M2535.6,731.459s.106.055.279.165a6.331,6.331,0,0,1,2.807,3.7c.589,2.566-1.758,4.42-.881,6.365s2.477-.482,3.98-.278,2.517-.584,2.336-3.535-1.516-9.749-5-9.419Z" transform="translate(-2535.602 -728.442)" fill="#131f2d"/>
        </g>
        <g id="Grupo_56911" data-name="Grupo 56911" transform="translate(38.174 8.639)">
          <path id="Trazado_102742" data-name="Trazado 102742" d="M2544.31,751.34a1.359,1.359,0,0,1-1.935.321,1.52,1.52,0,0,1,.119-2.049,1.359,1.359,0,0,1,1.935-.321A1.52,1.52,0,0,1,2544.31,751.34Z" transform="translate(-2542.031 -749.009)" fill="#ff7955"/>
        </g>
        <g id="Grupo_56912" data-name="Grupo 56912" transform="translate(29.306 4.668)">
          <path id="Trazado_102743" data-name="Trazado 102743" d="M2510.426,749.1a.066.066,0,0,1-.065-.054,15.987,15.987,0,0,1,1.818-10.833,7.572,7.572,0,0,1,3.5-3.147,4.208,4.208,0,0,1,1.748-.353.067.067,0,0,1,.061.072.069.069,0,0,1-.072.061c-.03,0-2.842-.177-5.122,3.439a15.843,15.843,0,0,0-1.8,10.737.067.067,0,0,1-.053.078Z" transform="translate(-2510.093 -734.705)" fill="#fff"/>
        </g>
        <g id="Grupo_56913" data-name="Grupo 56913" transform="translate(38.092 3.869)">
          <path id="Trazado_102744" data-name="Trazado 102744" d="M2546.045,741.579a.067.067,0,0,1-.062-.089c1.044-2.859-.066-7.534-1.292-8.843a2.381,2.381,0,0,0-2.856-.369.067.067,0,0,1-.065-.116,2.556,2.556,0,0,1,3.019.394c1.246,1.331,2.378,6.079,1.319,8.979A.066.066,0,0,1,2546.045,741.579Z" transform="translate(-2541.735 -731.828)" fill="#fff"/>
        </g>
        <g id="Grupo_56914" data-name="Grupo 56914" transform="translate(28.699 3.253)">
          <path id="Trazado_102745" data-name="Trazado 102745" d="M2507.978,740.212a.066.066,0,0,1-.066-.064,27.3,27.3,0,0,1,.236-4.23c.414-2.96,1.28-4.819,2.574-5.524a5.916,5.916,0,0,1,5.66-.132.066.066,0,1,1-.069.113,5.78,5.78,0,0,0-5.526.135c-3,1.637-2.744,9.553-2.741,9.633a.067.067,0,0,1-.064.069Z" transform="translate(-2507.904 -729.609)" fill="#fff"/>
        </g>
        <g id="Grupo_56915" data-name="Grupo 56915" transform="translate(34.272 35.23)">
          <path id="Trazado_102746" data-name="Trazado 102746" d="M2527.978,845.208a.429.429,0,1,1,.429.429A.429.429,0,0,1,2527.978,845.208Z" transform="translate(-2527.978 -844.779)" fill="#131f2d"/>
        </g>
        <g id="Grupo_56916" data-name="Grupo 56916" transform="translate(33.837 42.131)">
          <path id="Trazado_102747" data-name="Trazado 102747" d="M2526.41,870.065a.429.429,0,1,1,.429.43A.429.429,0,0,1,2526.41,870.065Z" transform="translate(-2526.41 -869.636)" fill="#131f2d"/>
        </g>
        <g id="Grupo_56917" data-name="Grupo 56917" transform="translate(33.837 49.858)">
          <path id="Trazado_102748" data-name="Trazado 102748" d="M2526.41,897.894a.429.429,0,1,1,.429.429A.429.429,0,0,1,2526.41,897.894Z" transform="translate(-2526.41 -897.465)" fill="#131f2d"/>
        </g>
      </g>
      <g id="Grupo_56981" data-name="Grupo 56981" transform="translate(1816.043 540.125)">
        <g id="Grupo_56920" data-name="Grupo 56920" transform="translate(62.298 41.228)">
          <g id="Grupo_56919" data-name="Grupo 56919">
            <path id="Trazado_102749" data-name="Trazado 102749" d="M2845.456,828.447c-4.637,0-9.136-2.59-13.377-7.7a42.076,42.076,0,0,1-4.654-6.973l2.741-3.591,1.651-1.321,2.278-.66c2.033,3.953,8.388,10.539,11.369,10.539h.06c2.078-.052,7.2-3.747,9.606-9.053l6.394,4.5c-4.22,9.315-9.53,14.111-15.783,14.254C2845.646,828.446,2845.551,828.447,2845.456,828.447Z" transform="translate(-2827.425 -808.2)" fill="#ff7955"/>
          </g>
        </g>
        <g id="Grupo_56921" data-name="Grupo 56921" transform="translate(90.803 171.113)">
          <path id="Trazado_102750" data-name="Trazado 102750" d="M2939.246,1276s-.083,3.308-2.321,4.241-8.723,1.775-6.3,3.9c1.391,1.22,7.943.432,9.793.432s3.587.806,4.962-.432c1.512-1.362,0-8.142,0-8.142a7.389,7.389,0,0,1-3.032.794A5.891,5.891,0,0,1,2939.246,1276Z" transform="translate(-2930.091 -1276.002)" fill="#131f2d"/>
        </g>
        <g id="Grupo_56922" data-name="Grupo 56922" transform="translate(116.507 171.113)">
          <path id="Trazado_102751" data-name="Trazado 102751" d="M3031.822,1276s-.083,3.308-2.321,4.241-8.723,1.775-6.3,3.9c1.39,1.22,7.943.432,9.793.432s3.587.806,4.962-.432c1.512-1.362,0-8.142,0-8.142a7.391,7.391,0,0,1-3.032.794A5.889,5.889,0,0,1,3031.822,1276Z" transform="translate(-3022.667 -1276)" fill="#131f2d"/>
        </g>
        <g id="Grupo_56923" data-name="Grupo 56923" transform="translate(83.313 80.437)">
          <path id="Trazado_102752" data-name="Trazado 102752" d="M2903.123,949.418s-.414,13.846,4.005,40.406c3.19,19.175,6.957,38.5,8.8,47.76a7.227,7.227,0,0,0,6.751,5.869l1.775.071a6.066,6.066,0,0,0,6.208-6.572l-4.483-62.67-1.105-20.627Z" transform="translate(-2903.113 -949.418)" fill="#00a3fe"/>
        </g>
        <g id="Grupo_56924" data-name="Grupo 56924" transform="translate(81.801 85.533)">
          <path id="Trazado_102753" data-name="Trazado 102753" d="M2939.614,974.859c-.2,1.685-9.732,1.48-21.4,0s-20.748-4-20.544-5.689,9.615-1.89,21.281-.413S2939.818,973.174,2939.614,974.859Z" transform="translate(-2897.668 -967.77)" fill="#131f2d"/>
        </g>
        <g id="Grupo_56925" data-name="Grupo 56925" transform="translate(96.71 89.028)">
          <path id="Trazado_102754" data-name="Trazado 102754" d="M2951.371,981.659l24.908,80.011a8.029,8.029,0,0,0,7.492,5.7l1.5.026a5.683,5.683,0,0,0,5.592-6.764l-13.625-75.181a2.475,2.475,0,0,0-1.719-1.853C2970.844,982.253,2950.913,978.35,2951.371,981.659Z" transform="translate(-2951.363 -980.361)" fill="#00a3fe"/>
        </g>
        <g id="Grupo_56926" data-name="Grupo 56926" transform="translate(81.804 37.642)">
          <path id="Trazado_102755" data-name="Trazado 102755" d="M2935.728,804.2s-3.314-9.324-15.12-8.9-20.719,15.938-22.928,49.28c0,0,19.331-4.239,41.977,5.651C2939.657,850.23,2940.913,817.789,2935.728,804.2Z" transform="translate(-2897.68 -795.285)" fill="#fed55f"/>
        </g>
        <g id="Grupo_56927" data-name="Grupo 56927" transform="translate(88.505 37.589)">
          <path id="Trazado_102756" data-name="Trazado 102756" d="M2960.77,804.569l-7.683,4.285s-23.107,5.206-28.814,4.171-1.023-15.42,9.308-17.269c.971-.175,3.415-.518,4.459-.593a29.266,29.266,0,0,1,5.222.114C2957.829,796.857,2960.77,804.569,2960.77,804.569Z" transform="translate(-2921.813 -795.094)" fill="#fed55f"/>
        </g>
        <g id="Grupo_56928" data-name="Grupo 56928" transform="translate(95.517 100.836)">
          <path id="Trazado_102757" data-name="Trazado 102757" d="M2959.4,1048.14l-5.356-16.284a15.438,15.438,0,0,0-6.976-8.6l.208-.363a15.856,15.856,0,0,1,7.166,8.838l5.356,16.284Z" transform="translate(-2947.067 -1022.888)" fill="#020202"/>
        </g>
        <g id="Grupo_56929" data-name="Grupo 56929" transform="translate(83.533 87.883)">
          <path id="Trazado_102758" data-name="Trazado 102758" d="M2934.74,979.148s-23.284-4.448-30.834-2.35l3.62,5.365,13.458.762Z" transform="translate(-2903.907 -976.236)" fill="#00a3fe"/>
        </g>
        <g id="Grupo_56931" data-name="Grupo 56931" transform="translate(87.691 48.077)">
          <g id="Grupo_56930" data-name="Grupo 56930">
            <path id="Trazado_102759" data-name="Trazado 102759" d="M2951.21,852.868c9.33-7.436,8.935-18.9,8.907-19.385,0,0-.309-.963-6.029-.476s-5.783,1.8-5.783,1.8a14.115,14.115,0,0,1-4.821,9.55c-4.553,3.914-13.676,6.032-24.6,3.953l4.284,9.151C2926.142,858.026,2941.6,860.527,2951.21,852.868Z" transform="translate(-2918.882 -832.87)" fill="#ff7955"/>
          </g>
        </g>
        <g id="Grupo_56932" data-name="Grupo 56932" transform="translate(110.883 37.881)">
          <path id="Trazado_102760" data-name="Trazado 102760" d="M3002.412,796.147s15.121,1.894,18.687,12.208c0,0-5.143,3.423-14.148,2.193-1.19-.162-2.5-3.1-2.5-3.1Z" transform="translate(-3002.412 -796.147)" fill="#fed55f"/>
        </g>
        <g id="Grupo_56933" data-name="Grupo 56933" transform="translate(87.027 37.938)">
          <path id="Trazado_102761" data-name="Trazado 102761" d="M2931.188,796.352a19.566,19.566,0,0,0-14.3,7.277s-1.915,5.622,2.642,8.4S2931.188,796.352,2931.188,796.352Z" transform="translate(-2916.491 -796.352)" fill="#fed55f"/>
        </g>
        <g id="Grupo_56958" data-name="Grupo 56958" transform="translate(94.423 17.151)">
          <g id="Grupo_56934" data-name="Grupo 56934" transform="translate(0.05 10.056)">
            <path id="Trazado_102762" data-name="Trazado 102762" d="M2945.471,766.075a3.167,3.167,0,0,1-2.04-1.477,2.139,2.139,0,0,1,.323-1.976c.2-.328.387-.624.557-.9,1.183-1.885,1.581-2.521,1.271-4l.134-.028c.321,1.53-.117,2.229-1.289,4.1-.17.271-.356.567-.557.894a2.012,2.012,0,0,0-.312,1.851c.426,1.026,1.929,1.392,1.945,1.4Z" transform="translate(-2943.307 -757.702)" fill="#364154"/>
          </g>
          <g id="Grupo_56935" data-name="Grupo 56935" transform="translate(0.736 10.07)">
            <path id="Trazado_102763" data-name="Trazado 102763" d="M2947.433,757.753a6.964,6.964,0,0,1-1.046,4.846c-1.569,2.478.139,4.289,2.264,3.336s2.936,1.756,5.652.258S2947.433,757.753,2947.433,757.753Z" transform="translate(-2945.777 -757.753)" fill="#364154"/>
          </g>
          <g id="Grupo_56936" data-name="Grupo 56936" transform="translate(6.834 8.41)">
            <path id="Trazado_102764" data-name="Trazado 102764" d="M2975.855,763.9a3.265,3.265,0,0,1-2.66-1.947l-1.463-3.4-.425-.986-2.5-5.8.433,6.009.26,3.607.074,1.028a1.641,1.641,0,0,1-1.354,1.73l-.014,0c-.444.722-1.058,2.191.775,2.774,2.154.686,5.638-1.01,6.889-3.02Z" transform="translate(-2967.742 -751.775)" fill="#ff7955"/>
          </g>
          <g id="Grupo_56937" data-name="Grupo 56937" transform="translate(8.336 14.095)">
            <path id="Trazado_102765" data-name="Trazado 102765" d="M2975.643,773.252c0,.033,0,.066-.006.1a3.812,3.812,0,0,1-2.215,2.842l-.013-.011-.26-3.607a3.077,3.077,0,0,1,2.064-.211A.846.846,0,0,1,2975.643,773.252Z" transform="translate(-2973.149 -772.252)" fill="#131f2d"/>
          </g>
          <g id="Grupo_56938" data-name="Grupo 56938" transform="translate(1.984 2.406)">
            <ellipse id="Elipse_4171" data-name="Elipse 4171" cx="5.646" cy="6.965" rx="5.646" ry="6.965" fill="#ff7955"/>
          </g>
          <g id="Grupo_56939" data-name="Grupo 56939" transform="translate(10.251 7.988)">
            <path id="Trazado_102766" data-name="Trazado 102766" d="M2982.318,752.688a1.388,1.388,0,0,1-2,.14,1.552,1.552,0,0,1,.319-2.072,1.388,1.388,0,0,1,2-.14A1.552,1.552,0,0,1,2982.318,752.688Z" transform="translate(-2980.049 -750.254)" fill="#ff7955"/>
          </g>
          <g id="Grupo_56940" data-name="Grupo 56940" transform="translate(4.59 13.246)">
            <path id="Trazado_102767" data-name="Trazado 102767" d="M2959.657,769.824a12.251,12.251,0,0,0,3.857-.633,1.88,1.88,0,0,1-1.929,2.028C2960.371,771.293,2959.657,769.824,2959.657,769.824Z" transform="translate(-2959.657 -769.191)" fill="#e9633e"/>
          </g>
          <g id="Grupo_56941" data-name="Grupo 56941" transform="translate(4.59 13.246)">
            <path id="Trazado_102768" data-name="Trazado 102768" d="M2959.657,769.824a2.524,2.524,0,0,0,1.556.383,4.516,4.516,0,0,0,2.3-1.015A18.434,18.434,0,0,1,2959.657,769.824Z" transform="translate(-2959.657 -769.191)" fill="#fff"/>
          </g>
          <g id="Grupo_56943" data-name="Grupo 56943" transform="translate(6.989 9.063)">
            <g id="Grupo_56942" data-name="Grupo 56942">
              <path id="Trazado_102769" data-name="Trazado 102769" d="M2968.394,754.5a.129.129,0,0,1-.014-.243,1.39,1.39,0,0,1,1.663.371.129.129,0,0,1,0,.182.141.141,0,0,1-.182,0,2.2,2.2,0,0,0-1.38-.309A.128.128,0,0,1,2968.394,754.5Z" transform="translate(-2968.299 -754.125)" fill="#080435"/>
            </g>
          </g>
          <g id="Grupo_56944" data-name="Grupo 56944" transform="translate(7.295 10.308)">
            <path id="Trazado_102770" data-name="Trazado 102770" d="M2970.206,759.151c.01.307-.163.561-.385.568s-.41-.235-.42-.542.163-.56.385-.568S2970.2,758.845,2970.206,759.151Z" transform="translate(-2969.4 -758.609)" fill="#080435"/>
          </g>
          <g id="Grupo_56946" data-name="Grupo 56946" transform="translate(2.355 9.437)">
            <g id="Grupo_56945" data-name="Grupo 56945">
              <path id="Trazado_102771" data-name="Trazado 102771" d="M2951.755,756.145a.129.129,0,0,1-.106-.219,1.391,1.391,0,0,1,1.678-.291.13.13,0,0,1,.065.17.141.141,0,0,1-.17.065,2.2,2.2,0,0,0-1.394.24A.129.129,0,0,1,2951.755,756.145Z" transform="translate(-2951.611 -755.474)" fill="#080435"/>
            </g>
          </g>
          <g id="Grupo_56947" data-name="Grupo 56947" transform="translate(3.178 10.658)">
            <path id="Trazado_102772" data-name="Trazado 102772" d="M2955.372,760.239a.5.5,0,0,1-.14.671c-.2.091-.469-.062-.595-.341a.5.5,0,0,1,.14-.671C2954.98,759.807,2955.246,759.96,2955.372,760.239Z" transform="translate(-2954.573 -759.872)" fill="#080435"/>
          </g>
          <g id="Grupo_56948" data-name="Grupo 56948" transform="translate(1.375)">
            <path id="Trazado_102773" data-name="Trazado 102773" d="M2951.937,725.153s.122,2.417,3.14,2.829,5.1,1.689,4.694,3.863-5.27,6.685-1.695,8.432,2.814-1.51,6.691-.755,4.575-4.421,1.906-7.425-1.588-10.953-11.6-10.6-6.342,8.338-6.342,8.338S2951.943,727.822,2951.937,725.153Z" transform="translate(-2948.079 -721.485)" fill="#364154"/>
          </g>
          <g id="Grupo_56949" data-name="Grupo 56949" transform="translate(5.468 2.629)">
            <path id="Trazado_102774" data-name="Trazado 102774" d="M2969.754,747.563a2.1,2.1,0,0,1-1.376-1.346c-.44-1.621,1.449-4.069,3.116-6.23.438-.568.853-1.105,1.22-1.618a3.723,3.723,0,0,0,.234-4.359,4.34,4.34,0,0,0-4.755-1.581,5.727,5.727,0,0,1-4.114-.382,3.7,3.7,0,0,1-1.259-1.05l.068-.046c.015.023,1.573,2.26,5.287,1.4a4.419,4.419,0,0,1,4.841,1.615,3.849,3.849,0,0,1-.236,4.452c-.368.513-.782,1.051-1.222,1.62-1.655,2.145-3.531,4.577-3.1,6.158a2,2,0,0,0,1.328,1.292Z" transform="translate(-2962.821 -730.953)" fill="#fff"/>
          </g>
          <g id="Grupo_56951" data-name="Grupo 56951" transform="translate(0 6.726)">
            <g id="Grupo_56950" data-name="Grupo 56950">
              <path id="Trazado_102775" data-name="Trazado 102775" d="M2945.417,753.547a3.779,3.779,0,0,1-1.993-2.505c-.651-2.048-.194-4.324,1.021-5.076a1.614,1.614,0,0,1,1.467-.145,3.778,3.778,0,0,1,1.993,2.5h0c.652,2.044.194,4.324-1.02,5.08a1.609,1.609,0,0,1-.864.254A1.773,1.773,0,0,1,2945.417,753.547Zm2.248-5.145a3.531,3.531,0,0,0-1.841-2.346,1.4,1.4,0,0,0-1.247.12c-1.124.7-1.532,2.847-.913,4.789a3.54,3.54,0,0,0,1.841,2.345,1.4,1.4,0,0,0,1.246-.12c1.124-.7,1.534-2.85.915-4.789Z" transform="translate(-2943.127 -745.708)" fill="#364154"/>
            </g>
          </g>
          <g id="Grupo_56952" data-name="Grupo 56952" transform="translate(6.299 5.391)" opacity="0.3">
            <path id="Trazado_102776" data-name="Trazado 102776" d="M2970.824,743.52c.453,1.989-.271,4.124-1.617,4.769s-2.8-.444-3.258-2.433.271-4.124,1.617-4.769S2970.372,741.532,2970.824,743.52Z" transform="translate(-2965.815 -740.902)" fill="#fff"/>
          </g>
          <g id="Grupo_56953" data-name="Grupo 56953" transform="translate(0.206 6.829)" opacity="0.3">
            <ellipse id="Elipse_4172" data-name="Elipse 4172" cx="2.321" cy="3.82" rx="2.321" ry="3.82" transform="translate(0 0.162) rotate(-1.998)" fill="#fff"/>
          </g>
          <g id="Grupo_56955" data-name="Grupo 56955" transform="translate(5.85 4.873)">
            <g id="Grupo_56954" data-name="Grupo 56954">
              <path id="Trazado_102777" data-name="Trazado 102777" d="M2966.159,746.969a3.73,3.73,0,0,1-1.817-2.611c-.494-2.124.31-4.419,1.793-5.116a2.073,2.073,0,0,1,1.834.015,3.726,3.726,0,0,1,1.812,2.607h0c.5,2.128-.309,4.422-1.793,5.116a2.065,2.065,0,0,1-.9.211A2.154,2.154,0,0,1,2966.159,746.969Zm.082-7.5c-1.38.65-2.122,2.818-1.656,4.833a3.538,3.538,0,0,0,1.685,2.444,1.87,1.87,0,0,0,1.612.011c1.382-.65,2.124-2.818,1.656-4.833h0a3.543,3.543,0,0,0-1.679-2.44,1.827,1.827,0,0,0-1.617-.014Z" transform="translate(-2964.197 -739.036)" fill="#364154"/>
            </g>
          </g>
          <g id="Grupo_56957" data-name="Grupo 56957" transform="translate(4.331 9.376)">
            <g id="Grupo_56956" data-name="Grupo 56956">
              <path id="Trazado_102778" data-name="Trazado 102778" d="M2958.959,756.127a.23.23,0,0,0,.149-.055h0a2.119,2.119,0,0,1,1.683-.3.243.243,0,0,0,.276-.185.23.23,0,0,0-.185-.272,2.53,2.53,0,0,0-2.073.392.236.236,0,0,0-.029.33A.227.227,0,0,0,2958.959,756.127Z" transform="translate(-2958.725 -755.253)" fill="#364154"/>
            </g>
          </g>
        </g>
        <g id="Grupo_56959" data-name="Grupo 56959" transform="translate(16.44 1.056)">
          <path id="Trazado_102779" data-name="Trazado 102779" d="M2746.762,790.655a.594.594,0,0,1-.555-.382l-47.982-125.146-35.377-.425a.594.594,0,0,1,.007-1.189h.007l35.781.43a.594.594,0,0,1,.548.382l48.126,125.522a.6.6,0,0,1-.555.807Z" transform="translate(-2662.262 -663.514)" fill="#131f2d"/>
        </g>
        <g id="Grupo_56960" data-name="Grupo 56960" transform="translate(49.71 0)">
          <circle id="Elipse_4173" data-name="Elipse 4173" cx="2.221" cy="2.221" r="2.221" transform="matrix(0.592, -0.806, 0.806, 0.592, 0, 3.581)" fill="#00a3fe"/>
        </g>
        <g id="Grupo_56961" data-name="Grupo 56961" transform="translate(66.399 39.58)">
          <path id="Trazado_102780" data-name="Trazado 102780" d="M2872.225,879.808a1.288,1.288,0,0,1-1.2-.827l-28.742-74.966a1.288,1.288,0,0,1,2.405-.922l28.742,74.966a1.289,1.289,0,0,1-1.2,1.749Z" transform="translate(-2842.194 -802.266)" fill="#364154"/>
        </g>
        <g id="Grupo_56962" data-name="Grupo 56962" transform="translate(18.101 2.451)">
          <path id="Trazado_102781" data-name="Trazado 102781" d="M2756.343,864.963l-.191-.05a3.421,3.421,0,0,0-.475-3.105c-2.415-3.184-11.5-3.347-21.113-3.519-7.907-.142-16.082-.289-22.185-1.972-4.906-1.354-7.522-4.231-7.177-7.894.348-3.694,3.58-7.663,8.868-10.892,4.214-2.573,11.641-5.835,23.092-6.769,6.6-.538,11.322-3.1,14.036-7.613,3.831-6.372,2.976-15.585,1.584-22.192a77.145,77.145,0,0,0-3.97-12.92c-9.128-3.378-16.8-10.059-22.817-19.856-4.9-7.982-8.728-18.079-11.385-30.012a197.534,197.534,0,0,1-4.229-45.47c.008-.479.014-.826.008-.873-.033-.18-.337-.142-1.019-.039a16.864,16.864,0,0,1-7.493-.469c-2.871-.767-6.729-6.344-10.46-11.737-3.888-5.62-7.908-11.432-9.944-10.089-4.3,2.839-6.762,3.827-8.5,3.411-1.318-.317-2.177-1.427-3.136-3.116a2.418,2.418,0,0,0-1.6-1.051l.033-.2a2.633,2.633,0,0,1,1.736,1.149c.933,1.643,1.761,2.721,3.01,3.021,1.676.4,4.093-.578,8.342-3.383,2.2-1.451,6.092,4.181,10.216,10.141,3.711,5.363,7.548,10.909,10.349,11.658a16.683,16.683,0,0,0,7.412.465c.757-.114,1.173-.176,1.243.2.01.052.007.26,0,.912a197.3,197.3,0,0,0,4.224,45.423c2.652,11.911,6.474,21.988,11.36,29.951,6,9.773,13.653,16.43,22.756,19.788l.04.015.017.039a77.089,77.089,0,0,1,4,12.993c1.4,6.643,2.257,15.91-1.607,22.338-2.749,4.572-7.523,7.165-14.189,7.709-11.414.93-18.811,4.178-23.006,6.74-5.234,3.2-8.432,7.11-8.774,10.741-.335,3.558,2.228,6.359,7.033,7.685,6.079,1.677,14.241,1.824,22.135,1.965,10.084.181,18.794.337,21.267,3.6A3.652,3.652,0,0,1,2756.343,864.963Z" transform="translate(-2668.244 -668.54)" fill="#131f2d"/>
        </g>
        <g id="Grupo_56963" data-name="Grupo 56963" transform="translate(30.879 0.535)">
          <path id="Trazado_102782" data-name="Trazado 102782" d="M2715.511,665.4h0a.8.8,0,0,1-.9-.663l-.334-2.181a.794.794,0,0,1,.663-.9h0a.8.8,0,0,1,.9.663l.335,2.181A.8.8,0,0,1,2715.511,665.4Z" transform="translate(-2714.264 -661.64)" fill="#131f2d"/>
        </g>
        <g id="Grupo_56964" data-name="Grupo 56964" transform="translate(58.658 24.268)">
          <path id="Trazado_102783" data-name="Trazado 102783" d="M2815.38,749.366l2.677-.411a.927.927,0,0,0,.773-1.054h0a.927.927,0,0,0-1.054-.773l-2.676.411a.927.927,0,0,0-.774,1.054h0A.927.927,0,0,0,2815.38,749.366Z" transform="translate(-2814.315 -747.116)" fill="#131f2d"/>
        </g>
        <g id="Grupo_56965" data-name="Grupo 56965" transform="translate(14.534 0.687)">
          <path id="Trazado_102784" data-name="Trazado 102784" d="M2655.635,664.748a3.8,3.8,0,0,1-.177-2.006,2.539,2.539,0,0,1,3.657.56,1.884,1.884,0,1,1-3.48,1.446Z" transform="translate(-2655.396 -662.186)" fill="#131f2d"/>
        </g>
        <g id="Grupo_56969" data-name="Grupo 56969" transform="translate(0 1.243)">
          <g id="Grupo_56966" data-name="Grupo 56966" transform="translate(0 14.579)">
            <path id="Trazado_102785" data-name="Trazado 102785" d="M2603.741,718.545a4.139,4.139,0,1,0,5.739-1.157A4.14,4.14,0,0,0,2603.741,718.545Z" transform="translate(-2603.049 -716.696)" fill="#131f2d"/>
          </g>
          <g id="Grupo_56967" data-name="Grupo 56967" transform="translate(3.614)">
            <path id="Trazado_102786" data-name="Trazado 102786" d="M2630.57,666.528l-3.522-2.34-10.982,14.068,5.253,3.49Z" transform="translate(-2616.066 -664.189)" fill="#364154"/>
          </g>
          <g id="Grupo_56968" data-name="Grupo 56968" transform="translate(2.544 13.673)">
            <path id="Trazado_102787" data-name="Trazado 102787" d="M2612.21,714.436l.476-1,6.206,4.123-.837,1.261Z" transform="translate(-2612.21 -713.432)" fill="#364154"/>
          </g>
        </g>
        <g id="Grupo_56974" data-name="Grupo 56974" transform="translate(60.887 38.321)">
          <g id="Grupo_56971" data-name="Grupo 56971" transform="translate(0 0.1)">
            <g id="Grupo_56970" data-name="Grupo 56970">
              <path id="Trazado_102788" data-name="Trazado 102788" d="M2822.7,801.531a1.852,1.852,0,0,1,1.02-2.877c2.933-1.086,8.072-.509,6.8,1.009a14.492,14.492,0,0,1-2.942,1.074s5.034-.483,4.779,1.006-4.788,1.893-4.788,1.893,4.691.049,4.014,1.347-3.736,1.49-3.736,1.49,4.239-.082,3.417,1.4-4.148.98-5.586,1.1c-1.358.116-1.677-.821-1.765-2.219a1.974,1.974,0,0,1-.563-2.2c.12-.335-.573-.805-.632-1.055A4.8,4.8,0,0,1,2822.7,801.531Z" transform="translate(-2822.341 -798.094)" fill="#ff7955"/>
            </g>
          </g>
          <g id="Grupo_56973" data-name="Grupo 56973" transform="translate(1.342)">
            <g id="Grupo_56972" data-name="Grupo 56972">
              <path id="Trazado_102789" data-name="Trazado 102789" d="M2829.171,808.816l-.017-.2c.343-.029.779-.023,1.282-.016,1.529.021,3.625.049,4.225-1.035a.494.494,0,0,0,.033-.521c-.391-.649-2.559-.75-3.362-.736l-.008-.2c.03,0,3.011-.2,3.655-1.437a.35.35,0,0,0,.009-.363c-.394-.658-2.974-.828-3.935-.839l-.008-.2a17.429,17.429,0,0,0,2.286-.386c1.482-.366,2.317-.858,2.414-1.425a.445.445,0,0,0-.121-.4c-.78-.84-4.514-.493-4.552-.489l-.035-.194a12.993,12.993,0,0,0,2.893-1.042c.2-.233.228-.437.1-.622-.6-.859-4.35-1.133-6.785-.231l-.069-.185c2.37-.878,6.3-.709,7.016.3a.655.655,0,0,1-.108.863,7.735,7.735,0,0,1-2.121.852c1.2-.05,3.213-.031,3.808.61a.641.641,0,0,1,.171.57c-.185,1.078-2.392,1.605-3.776,1.831,1.095.086,2.65.307,2.994.881a.54.54,0,0,1,0,.557c-.422.808-1.688,1.2-2.649,1.385.9.073,2.045.269,2.359.791a.685.685,0,0,1-.03.72c-.657,1.188-2.733,1.16-4.4,1.137C2829.956,808.793,2829.5,808.787,2829.171,808.816Z" transform="translate(-2827.173 -797.732)" fill="#e7945e"/>
            </g>
          </g>
        </g>
        <g id="Grupo_56980" data-name="Grupo 56980" transform="translate(73.751 62.912)">
          <g id="Grupo_56976" data-name="Grupo 56976">
            <g id="Grupo_56975" data-name="Grupo 56975">
              <path id="Trazado_102790" data-name="Trazado 102790" d="M2882.616,886.905s-7.11-1.338-9.871-.033-5.3,5.06-3.419,4.615a20.128,20.128,0,0,0,4.134-1.68s-4.682,2.863-3.539,3.667,5.192-1.724,5.192-1.724-5.3,3.85-3.973,4.261,5.332-2.543,5.332-2.543-4.788,3.779-3.236,4.22,3.936-3.149,5.08-2.344,5.959,3.616,8.584.71Z" transform="translate(-2868.676 -886.301)" fill="#ff7955"/>
            </g>
          </g>
          <g id="Grupo_56977" data-name="Grupo 56977" transform="translate(4.711 2.599)">
            <path id="Trazado_102791" data-name="Trazado 102791" d="M2885.787,896.654l-.145-.173c.051-.043,1.266-1.049,2.232-.774l-.062.217C2886.96,895.681,2885.8,896.644,2885.787,896.654Z" transform="translate(-2885.642 -895.66)" fill="#ef6343"/>
          </g>
          <g id="Grupo_56978" data-name="Grupo 56978" transform="translate(6.362 4.431)">
            <path id="Trazado_102792" data-name="Trazado 102792" d="M2891.739,903.364l-.148-.17a3.951,3.951,0,0,1,2.625-.925l-.018.225A3.817,3.817,0,0,0,2891.739,903.364Z" transform="translate(-2891.591 -902.26)" fill="#ef6343"/>
          </g>
          <g id="Grupo_56979" data-name="Grupo 56979" transform="translate(7.722 6.145)">
            <path id="Trazado_102793" data-name="Trazado 102793" d="M2896.635,909.542l-.145-.172c.061-.051,1.494-1.243,2.5-.863l-.08.211C2898.028,908.385,2896.649,909.531,2896.635,909.542Z" transform="translate(-2896.49 -908.432)" fill="#ef6343"/>
          </g>
        </g>
      </g>
      <g id="Grupo_56988" data-name="Grupo 56988" transform="translate(1745.556 602.365)">
        <g id="Grupo_56982" data-name="Grupo 56982" transform="translate(1.408 0.008)">
          <path id="Trazado_102794" data-name="Trazado 102794" d="M2382.34,900.151l-22.427-.132a1.09,1.09,0,0,1-1.03-.747l-4.579-13.946a1.084,1.084,0,0,1,1.043-1.418l21.568.127a2.281,2.281,0,0,1,2.156,1.564l4.312,13.134A1.084,1.084,0,0,1,2382.34,900.151Z" transform="translate(-2354.249 -883.907)" fill="#131f2d"/>
        </g>
        <g id="Grupo_56983" data-name="Grupo 56983" transform="translate(0)">
          <path id="Trazado_102795" data-name="Trazado 102795" d="M2377.27,900.121l-22.427-.132a1.089,1.089,0,0,1-1.03-.747l-4.579-13.946a1.084,1.084,0,0,1,1.043-1.418l21.568.127a2.281,2.281,0,0,1,2.156,1.564l4.313,13.135A1.084,1.084,0,0,1,2377.27,900.121Z" transform="translate(-2349.179 -883.877)" fill="#131f2d"/>
        </g>
        <g id="Grupo_56984" data-name="Grupo 56984" transform="translate(12.427 6.916)">
          <path id="Trazado_102796" data-name="Trazado 102796" d="M2393.935,909.524c0-.528.614-.74,1.146-.737a1.524,1.524,0,0,1,1.388,1.329c-.01.8-.635.9-1.168.9A1.76,1.76,0,0,1,2393.935,909.524Z" transform="translate(-2393.935 -908.787)" fill="#bfeffc"/>
        </g>
        <g id="Grupo_56985" data-name="Grupo 56985" transform="translate(5.653 14.145)">
          <path id="Trazado_102797" data-name="Trazado 102797" d="M2400.232,935l-30.684-.18-.011,1.967,31.325.184a.663.663,0,0,0,.667-.659h0A1.3,1.3,0,0,0,2400.232,935Z" transform="translate(-2369.537 -934.821)" fill="#131f2d"/>
        </g>
        <g id="Grupo_56986" data-name="Grupo 56986" transform="translate(23.191 0.06)">
          <path id="Trazado_102798" data-name="Trazado 102798" d="M2436.062,891.22a39.2,39.2,0,0,0-1.792-5.461,3.035,3.035,0,0,0-1.567-1.526l.04-.14a3.115,3.115,0,0,1,1.655,1.6,38.393,38.393,0,0,1,1.805,5.494Z" transform="translate(-2432.703 -884.093)" fill="#00a3fe"/>
        </g>
        <g id="Grupo_56987" data-name="Grupo 56987" transform="translate(27.055 8.683)">
          <path id="Trazado_102799" data-name="Trazado 102799" d="M2449.39,920.826c-.832-.005-1.036-.374-1.044-.39l-1.722-5.241.138-.046,1.717,5.231h0s.188.3.912.3Z" transform="translate(-2446.623 -915.149)" fill="#00a3fe"/>
        </g>
      </g>
      <g id="Grupo_56997" data-name="Grupo 56997" transform="translate(1627.308 617.149)">
        <g id="Grupo_56989" data-name="Grupo 56989" transform="translate(4.893 3.23)">
          <path id="Trazado_102800" data-name="Trazado 102800" d="M1948.541,1014.664l-7.625-65.9h234.209l-13.876,78.421a10.809,10.809,0,0,1-10.643,8.926h-178A24.227,24.227,0,0,1,1948.541,1014.664Z" transform="translate(-1940.916 -948.76)" fill="#bfeffc"/>
        </g>
        <g id="Grupo_56990" data-name="Grupo 56990" transform="translate(8.087 20.134)">
          <path id="Trazado_102801" data-name="Trazado 102801" d="M1952.421,1020.347l228.023-10.708-6.935,39.194-217.286,4.375Z" transform="translate(-1952.421 -1009.64)" fill="#b8c1c9"/>
        </g>
        <g id="Grupo_56995" data-name="Grupo 56995" transform="translate(19.632 37.563)">
          <g id="Grupo_56991" data-name="Grupo 56991" transform="translate(0 0.193)">
            <path id="Trazado_102802" data-name="Trazado 102802" d="M1994,1084.943v-10.633a1.2,1.2,0,0,1,1.2-1.2h1.544a1.2,1.2,0,0,1,1.043.607l2.362,4.168a41.111,41.111,0,0,1,2.127,4.466h.039a53.818,53.818,0,0,1-.232-5.452v-2.591a1.2,1.2,0,0,1,1.2-1.2h.309a1.2,1.2,0,0,1,1.2,1.2v10.633a1.2,1.2,0,0,1-1.2,1.2H2002.4a1.2,1.2,0,0,1-1.049-.618l-2.441-4.409a44.113,44.113,0,0,1-2.262-4.6h-.077c.1,1.74.135,3.576.135,5.7v2.726a1.2,1.2,0,0,1-1.2,1.2h-.309A1.2,1.2,0,0,1,1994,1084.943Z" transform="translate(-1994.002 -1073.112)" fill="#364154"/>
          </g>
          <g id="Grupo_56992" data-name="Grupo 56992" transform="translate(13.357 0.193)">
            <path id="Trazado_102803" data-name="Trazado 102803" d="M2048.643,1080.632h-2.4a1.2,1.2,0,0,0-1.2,1.2v.7a1.2,1.2,0,0,0,1.2,1.2h2.958a1.2,1.2,0,0,1,1.2,1.2v.019a1.2,1.2,0,0,1-1.2,1.2h-5.9a1.2,1.2,0,0,1-1.2-1.2v-10.633a1.2,1.2,0,0,1,1.2-1.2h5.626a1.2,1.2,0,0,1,1.2,1.2v.019a1.2,1.2,0,0,1-1.2,1.2h-2.687a1.2,1.2,0,0,0-1.2,1.2v.309a1.2,1.2,0,0,0,1.2,1.2h2.4a1.2,1.2,0,0,1,1.2,1.2h0A1.2,1.2,0,0,1,2048.643,1080.632Z" transform="translate(-2042.108 -1073.112)" fill="#364154"/>
          </g>
          <g id="Grupo_56993" data-name="Grupo 56993" transform="translate(23.126 0.193)">
            <path id="Trazado_102804" data-name="Trazado 102804" d="M2079.851,1085.22l-2.524-10.633a1.2,1.2,0,0,1,1.166-1.475h.637a1.2,1.2,0,0,1,1.179.982l.805,4.374c.29,1.566.561,3.248.773,4.563h.039c.213-1.411.522-2.977.851-4.6l.9-4.361a1.2,1.2,0,0,1,1.174-.955h1.164a1.2,1.2,0,0,1,1.178.975l.858,4.516c.29,1.527.5,2.919.7,4.369h.039c.193-1.45.483-2.977.754-4.543l.871-4.353a1.2,1.2,0,0,1,1.175-.964h.467a1.2,1.2,0,0,1,1.161,1.5l-2.745,10.633a1.2,1.2,0,0,1-1.16.9h-1.276a1.2,1.2,0,0,1-1.176-.967l-.912-4.639c-.251-1.315-.464-2.533-.619-4.021h-.039c-.232,1.469-.445,2.707-.754,4.021l-1.03,4.666a1.2,1.2,0,0,1-1.17.94h-1.318A1.2,1.2,0,0,1,2079.851,1085.22Z" transform="translate(-2077.293 -1073.112)" fill="#364154"/>
          </g>
          <g id="Grupo_56994" data-name="Grupo 56994" transform="translate(40.457)">
            <path id="Trazado_102805" data-name="Trazado 102805" d="M2139.823,1083.953a1.2,1.2,0,0,1,1.51-.87,7.178,7.178,0,0,0,2.091.334c1.353,0,2.068-.561,2.068-1.411,0-.812-.619-1.276-2.185-1.817-2.165-.774-3.6-1.972-3.6-3.867,0-2.223,1.875-3.905,4.93-3.905a8.868,8.868,0,0,1,2.153.243,1.2,1.2,0,0,1,.873,1.489l-.01.034a1.191,1.191,0,0,1-1.443.841,6.284,6.284,0,0,0-1.612-.208c-1.276,0-1.895.6-1.895,1.256,0,.832.715,1.2,2.417,1.836,2.3.851,3.364,2.05,3.364,3.886,0,2.184-1.663,4.04-5.239,4.04a9.454,9.454,0,0,1-2.609-.381,1.2,1.2,0,0,1-.833-1.442Z" transform="translate(-2139.713 -1072.416)" fill="#364154"/>
          </g>
        </g>
        <g id="Grupo_56996" data-name="Grupo 56996" transform="translate(0 0)">
          <path id="Trazado_102806" data-name="Trazado 102806" d="M1923.359,944.428l1.147-5.159a2.738,2.738,0,0,1,2.7-2.144l234.153,2.214a2.737,2.737,0,0,1,2.711,2.738h0a2.737,2.737,0,0,1-2.7,2.737l-235.3,2.945A2.738,2.738,0,0,1,1923.359,944.428Z" transform="translate(-1923.293 -937.125)" fill="#364154"/>
        </g>
      </g>
      <g id="Grupo_57007" data-name="Grupo 57007" transform="translate(1794.336 631.841)">
        <g id="Grupo_56998" data-name="Grupo 56998" transform="translate(0 0)">
          <path id="Trazado_102807" data-name="Trazado 102807" d="M2538.764,991.863l-13.725,28.7a1.668,1.668,0,0,0,1.446,2.41H2561.5a3.063,3.063,0,0,0,2.868-2.07l8.722-24.511a1.721,1.721,0,0,0-1.348-2.3l-27.638-3.965C2541.432,989.749,2539.343,990.654,2538.764,991.863Z" transform="translate(-2524.87 -990.041)" fill="#364154"/>
        </g>
        <g id="Grupo_56999" data-name="Grupo 56999" transform="translate(2.213 0.062)">
          <path id="Trazado_102808" data-name="Trazado 102808" d="M2546.734,992.025l-13.725,28.7a1.667,1.667,0,0,0,1.446,2.41h35.015a3.063,3.063,0,0,0,2.868-2.07l8.722-24.511a1.721,1.721,0,0,0-1.347-2.3l-29.851-3.965A3.034,3.034,0,0,0,2546.734,992.025Z" transform="translate(-2532.84 -990.265)" fill="#364154"/>
        </g>
        <g id="Grupo_57000" data-name="Grupo 57000" transform="translate(17.527 8.287)">
          <path id="Trazado_102809" data-name="Trazado 102809" d="M2594.388,1020.67l-6.314,12.761a.742.742,0,0,0,.666,1.072h16.107a1.405,1.405,0,0,0,1.319-.92l4.012-10.9a.764.764,0,0,0-.62-1.022l-13.732-1.763A1.406,1.406,0,0,0,2594.388,1020.67Z" transform="translate(-2587.996 -1019.888)" fill="#131f2d"/>
        </g>
        <g id="Grupo_57003" data-name="Grupo 57003" transform="translate(12.616 79.298)">
          <g id="Grupo_57001" data-name="Grupo 57001" transform="translate(9.917)">
            <path id="Trazado_102810" data-name="Trazado 102810" d="M2615.434,1292.325a.962.962,0,0,1-.82-.458c-.245-.4-6.041-9.828-8.492-14.838a.962.962,0,0,1,1.729-.846c2.411,4.927,8.342,14.578,8.4,14.675a.963.963,0,0,1-.819,1.467Z" transform="translate(-2606.023 -1275.644)" fill="#364154"/>
          </g>
          <g id="Grupo_57002" data-name="Grupo 57002" transform="translate(0 0.001)">
            <path id="Trazado_102811" data-name="Trazado 102811" d="M2582.923,1293.289a.962.962,0,0,1-.942-.77l-2.663-13.048c-2.766,5.135-7.02,12.057-7.229,12.4a.963.963,0,0,1-1.639-1.009c.06-.1,5.992-9.749,8.4-14.675a.962.962,0,0,1,1.807.23l3.208,15.719a.962.962,0,0,1-.75,1.135A.981.981,0,0,1,2582.923,1293.289Z" transform="translate(-2570.307 -1275.646)" fill="#364154"/>
          </g>
        </g>
        <g id="Grupo_57004" data-name="Grupo 57004" transform="translate(21.364 13.37)">
          <path id="Trazado_102812" data-name="Trazado 102812" d="M2603.146,1105.606c-.038,0-.075,0-.114,0a1.328,1.328,0,0,1-1.211-1.436c2.02-23.883,5.454-64.091,5.749-65.037a1.328,1.328,0,0,1,2.562.7c-.339,2.056-4.2,47.26-5.663,64.563A1.328,1.328,0,0,1,2603.146,1105.606Zm6.982-65.765c-.007.026-.014.052-.022.078C2610.112,1039.9,2610.12,1039.876,2610.128,1039.841Z" transform="translate(-2601.817 -1038.195)" fill="#131f2d"/>
        </g>
        <g id="Grupo_57005" data-name="Grupo 57005" transform="translate(21.112 50.51)">
          <path id="Rectángulo_5839" data-name="Rectángulo 5839" d="M2.289,0H16.962a2.289,2.289,0,0,1,2.289,2.289v0a2.289,2.289,0,0,1-2.289,2.289H2.289A2.289,2.289,0,0,1,0,2.289v0A2.289,2.289,0,0,1,2.289,0Z" transform="matrix(0.08, -0.997, 0.997, 0.08, 0, 19.189)" fill="#364154"/>
        </g>
        <g id="Grupo_57006" data-name="Grupo 57006" transform="translate(20.943 77.635)">
          <path id="Trazado_102813" data-name="Trazado 102813" d="M2600.3,1271.474a1.817,1.817,0,1,1,1.817,1.817A1.817,1.817,0,0,1,2600.3,1271.474Z" transform="translate(-2600.299 -1269.657)" fill="#364154"/>
        </g>
      </g>
    </g>
  </g>
</svg>
