<svg xmlns="http://www.w3.org/2000/svg" width="564" height="277" viewBox="0 0 564 277">
  <g id="Grupo_57183" data-name="Grupo 57183" transform="translate(-687 -2169.5)">
    <rect id="Rectángulo_5834" data-name="Rectángulo 5834" width="564" height="119" transform="translate(687 2327.5)" fill="#01549e"/>
    <g id="Grupo_57182" data-name="Grupo 57182" transform="translate(-410.612 1815.746)">
      <g id="Grupo_57161" data-name="Grupo 57161" transform="translate(1368.556 353.754)">
        <g id="Grupo_57011" data-name="Grupo 57011" transform="translate(86.124 239.442)">
          <path id="Trazado_102814" data-name="Trazado 102814" d="M2338.708,1694.493s1.8,10.566,1.4,12.561-32.852,7.471-34.891,5.405-4.447-7.47.47-10.936c3.317-2.34,14.656-2.647,17.974-6.627C2326.96,1692.274,2332.74,1693.249,2338.708,1694.493Z" transform="translate(-2302.792 -1693.237)" fill="#208abd"/>
        </g>
        <g id="Grupo_57012" data-name="Grupo 57012" transform="translate(86.123 246.084)">
          <path id="Trazado_102815" data-name="Trazado 102815" d="M2304.535,1742.171l3.607.123,7.215-.956s.938-8.583-5.249-10.947a14.482,14.482,0,0,0-4.428,1.645C2301.31,1735.114,2302.721,1739.74,2304.535,1742.171Z" transform="translate(-2302.787 -1730.392)" fill="#fff"/>
        </g>
        <g id="Grupo_57013" data-name="Grupo 57013" transform="translate(86.906 249.831)">
          <path id="Trazado_102816" data-name="Trazado 102816" d="M2307.169,1757.76a8.741,8.741,0,0,0,1.639,2.429c2.035,2.069,34.486-3.408,34.891-5.405a14.916,14.916,0,0,0-.106-3.428C2337.721,1754.555,2318.323,1758.406,2307.169,1757.76Z" transform="translate(-2307.169 -1751.356)" fill="#08222f"/>
        </g>
        <g id="Grupo_57014" data-name="Grupo 57014" transform="translate(104.634 242.724)">
          <path id="Trazado_102817" data-name="Trazado 102817" d="M2412.014,1713.775a.107.107,0,0,0,.036-.208l-5.569-1.961a.106.106,0,0,0-.137.065.108.108,0,0,0,.065.137l5.569,1.961A.113.113,0,0,0,2412.014,1713.775Z" transform="translate(-2406.338 -1711.599)" fill="#08222f"/>
        </g>
        <g id="Grupo_57015" data-name="Grupo 57015" transform="translate(101.748 243.92)">
          <path id="Trazado_102818" data-name="Trazado 102818" d="M2394.937,1721.262a.1.1,0,0,0,.092-.053.105.105,0,0,0-.038-.146l-4.634-2.759a.105.105,0,0,0-.146.038.107.107,0,0,0,.038.146l4.635,2.758A.1.1,0,0,0,2394.937,1721.262Z" transform="translate(-2390.195 -1718.288)" fill="#08222f"/>
        </g>
        <g id="Grupo_57016" data-name="Grupo 57016" transform="translate(98.538 244.814)">
          <path id="Trazado_102819" data-name="Trazado 102819" d="M2376.381,1726.689a.11.11,0,0,0,.085-.041.107.107,0,0,0-.019-.151l-4.036-3.182a.107.107,0,1,0-.132.169l4.036,3.183A.109.109,0,0,0,2376.381,1726.689Z" transform="translate(-2372.238 -1723.292)" fill="#08222f"/>
        </g>
        <g id="Grupo_57017" data-name="Grupo 57017" transform="translate(93.313 254.476)">
          <path id="Trazado_102820" data-name="Trazado 102820" d="M2343.114,1777.89h.01l3.529-.336a.1.1,0,0,0,.1-.116.1.1,0,0,0-.116-.1l-3.529.336a.106.106,0,0,0-.1.116A.108.108,0,0,0,2343.114,1777.89Z" transform="translate(-2343.007 -1777.338)" fill="#08222f"/>
        </g>
        <g id="Grupo_57018" data-name="Grupo 57018" transform="translate(104.072 225.28)">
          <path id="Trazado_102821" data-name="Trazado 102821" d="M2420.229,1614.011l.932,15.418a25.478,25.478,0,0,1-8.274,1.517s-1.753-1.6-6.776-1.113l-2.918-14.443Z" transform="translate(-2403.194 -1614.011)" fill="#08222f"/>
        </g>
        <g id="Grupo_57020" data-name="Grupo 57020" transform="translate(117.659 229.564)">
          <g id="Grupo_57019" data-name="Grupo 57019">
            <path id="Trazado_102822" data-name="Trazado 102822" d="M2479.223,1639.207a1.044,1.044,0,1,0,.842-1.214A1.043,1.043,0,0,0,2479.223,1639.207Z" transform="translate(-2479.206 -1637.976)" fill="#208abd"/>
          </g>
        </g>
        <g id="Grupo_57022" data-name="Grupo 57022" transform="translate(115.079 233.959)">
          <g id="Grupo_57021" data-name="Grupo 57021">
            <path id="Trazado_102823" data-name="Trazado 102823" d="M2464.787,1663.794a1.045,1.045,0,1,0,.842-1.214A1.044,1.044,0,0,0,2464.787,1663.794Z" transform="translate(-2464.77 -1662.563)" fill="#208abd"/>
          </g>
        </g>
        <g id="Grupo_57024" data-name="Grupo 57024" transform="translate(111.781 231.442)">
          <g id="Grupo_57023" data-name="Grupo 57023">
            <path id="Trazado_102824" data-name="Trazado 102824" d="M2446.341,1649.717a1.045,1.045,0,1,0,.842-1.213A1.044,1.044,0,0,0,2446.341,1649.717Z" transform="translate(-2446.324 -1648.487)" fill="#208abd"/>
          </g>
        </g>
        <g id="Grupo_57026" data-name="Grupo 57026" transform="translate(107.315 234.791)">
          <g id="Grupo_57025" data-name="Grupo 57025">
            <path id="Trazado_102825" data-name="Trazado 102825" d="M2421.353,1668.452a1.044,1.044,0,1,0,.842-1.213A1.044,1.044,0,0,0,2421.353,1668.452Z" transform="translate(-2421.336 -1667.221)" fill="#208abd"/>
          </g>
        </g>
        <g id="Grupo_57028" data-name="Grupo 57028" transform="translate(106.556 230.585)">
          <g id="Grupo_57027" data-name="Grupo 57027">
            <path id="Trazado_102826" data-name="Trazado 102826" d="M2417.11,1644.923a1.045,1.045,0,1,0,.842-1.214A1.045,1.045,0,0,0,2417.11,1644.923Z" transform="translate(-2417.093 -1643.692)" fill="#208abd"/>
          </g>
        </g>
        <g id="Grupo_57030" data-name="Grupo 57030" transform="translate(110.726 237.466)">
          <g id="Grupo_57029" data-name="Grupo 57029">
            <path id="Trazado_102827" data-name="Trazado 102827" d="M2440.439,1683.413a1.044,1.044,0,1,0,.842-1.214A1.044,1.044,0,0,0,2440.439,1683.413Z" transform="translate(-2440.423 -1682.182)" fill="#208abd"/>
          </g>
        </g>
        <g id="Grupo_57032" data-name="Grupo 57032" transform="translate(117.28 237.759)">
          <g id="Grupo_57031" data-name="Grupo 57031">
            <path id="Trazado_102828" data-name="Trazado 102828" d="M2477.1,1685.051a1.045,1.045,0,1,0,.842-1.214A1.043,1.043,0,0,0,2477.1,1685.051Z" transform="translate(-2477.087 -1683.82)" fill="#208abd"/>
          </g>
        </g>
        <g id="Grupo_57034" data-name="Grupo 57034" transform="translate(120.365 233.496)">
          <g id="Grupo_57033" data-name="Grupo 57033">
            <path id="Trazado_102829" data-name="Trazado 102829" d="M2494.361,1661.211a1.048,1.048,0,0,0,1.217.839.609.609,0,0,0,.127-.034l-.119-2.021a.932.932,0,0,0-.378,0A1.049,1.049,0,0,0,2494.361,1661.211Z" transform="translate(-2494.344 -1659.976)" fill="#208abd"/>
          </g>
        </g>
        <g id="Grupo_57035" data-name="Grupo 57035" transform="translate(28.977 237.693)">
          <path id="Trazado_102830" data-name="Trazado 102830" d="M2020.727,1686.549s-.1,10.719-.858,12.61-33.657,1.513-35.3-.882-3.048-8.143,2.406-10.679c3.681-1.712,14.892,0,18.865-3.327C2009.56,1682.278,2015.075,1684.264,2020.727,1686.549Z" transform="translate(-1983.102 -1683.452)" fill="#208abd"/>
        </g>
        <g id="Grupo_57036" data-name="Grupo 57036" transform="translate(28.976 241.008)">
          <path id="Trazado_102831" data-name="Trazado 102831" d="M1984.045,1712.6l3.528.763,7.27.342s2.449-8.28-3.219-11.705a14.517,14.517,0,0,0-4.651.832C1982.126,1705.081,1982.692,1709.883,1984.045,1712.6Z" transform="translate(-1983.095 -1701.997)" fill="#fff"/>
        </g>
        <g id="Grupo_57037" data-name="Grupo 57037" transform="translate(29.267 249.837)">
          <path id="Trazado_102832" data-name="Trazado 102832" d="M1984.722,1751.387a8.74,8.74,0,0,0,1.181,2.682c1.635,2.4,34.543,2.774,35.3.882a14.994,14.994,0,0,0,.5-3.393C2015.356,1753.662,1995.584,1754.005,1984.722,1751.387Z" transform="translate(-1984.722 -1751.387)" fill="#08222f"/>
        </g>
        <g id="Grupo_57038" data-name="Grupo 57038" transform="translate(49.092 239.707)">
          <path id="Trazado_102833" data-name="Trazado 102833" d="M2100.868,1697.857a.1.1,0,0,0,.093-.054.106.106,0,0,0-.039-.146l-5.133-2.921a.1.1,0,0,0-.146.04.107.107,0,0,0,.04.146l5.132,2.92A.1.1,0,0,0,2100.868,1697.857Z" transform="translate(-2095.629 -1694.721)" fill="#08222f"/>
        </g>
        <g id="Grupo_57039" data-name="Grupo 57039" transform="translate(46.039 240.372)">
          <path id="Trazado_102834" data-name="Trazado 102834" d="M2082.727,1702.194a.111.111,0,0,0,.082-.037.108.108,0,0,0-.011-.152l-4.071-3.539a.107.107,0,0,0-.14.163l4.071,3.539A.106.106,0,0,0,2082.727,1702.194Z" transform="translate(-2078.549 -1698.441)" fill="#08222f"/>
        </g>
        <g id="Grupo_57040" data-name="Grupo 57040" transform="translate(42.721 240.682)">
          <path id="Trazado_102835" data-name="Trazado 102835" d="M2063.5,1704.237a.113.113,0,0,0,.071-.027.107.107,0,0,0,.01-.152l-3.407-3.849a.107.107,0,1,0-.16.142l3.406,3.849A.112.112,0,0,0,2063.5,1704.237Z" transform="translate(-2059.989 -1700.173)" fill="#08222f"/>
        </g>
        <g id="Grupo_57041" data-name="Grupo 57041" transform="translate(47.016 248.741)">
          <path id="Trazado_102836" data-name="Trazado 102836" d="M2087.737,1747.02a50.245,50.245,0,0,0,13.3-1.551.105.105,0,0,0,.074-.131.1.1,0,0,0-.131-.075,55.074,55.074,0,0,1-16.858,1.461.11.11,0,0,0-.112.1.107.107,0,0,0,.1.112Q2085.977,1747.021,2087.737,1747.02Z" transform="translate(-2084.012 -1745.258)" fill="#08222f"/>
        </g>
        <g id="Grupo_57042" data-name="Grupo 57042" transform="translate(51.415 223.782)">
          <path id="Trazado_102837" data-name="Trazado 102837" d="M2125.635,1607.3l-1.823,15.337a25.459,25.459,0,0,1-8.412.022s-1.44-1.886-6.471-2.3l-.3-14.73Z" transform="translate(-2108.626 -1605.634)" fill="#08222f"/>
        </g>
        <g id="Grupo_57044" data-name="Grupo 57044" transform="translate(64.068 229.224)">
          <g id="Grupo_57043" data-name="Grupo 57043">
            <path id="Trazado_102838" data-name="Trazado 102838" d="M2179.406,1637.12a1.044,1.044,0,1,0,1.045-1.046A1.044,1.044,0,0,0,2179.406,1637.12Z" transform="translate(-2179.406 -1636.075)" fill="#208abd"/>
          </g>
        </g>
        <g id="Grupo_57046" data-name="Grupo 57046" transform="translate(60.364 233.118)">
          <g id="Grupo_57045" data-name="Grupo 57045">
            <path id="Trazado_102839" data-name="Trazado 102839" d="M2158.688,1658.905a1.044,1.044,0,1,0,1.045-1.045A1.045,1.045,0,0,0,2158.688,1658.905Z" transform="translate(-2158.688 -1657.861)" fill="#208abd"/>
          </g>
        </g>
        <g id="Grupo_57048" data-name="Grupo 57048" transform="translate(57.325 227.894)">
          <g id="Grupo_57047" data-name="Grupo 57047">
            <path id="Trazado_102840" data-name="Trazado 102840" d="M2141.684,1629.683a1.045,1.045,0,1,0,1.045-1.045A1.045,1.045,0,0,0,2141.684,1629.683Z" transform="translate(-2141.684 -1628.638)" fill="#208abd"/>
          </g>
        </g>
        <g id="Grupo_57050" data-name="Grupo 57050" transform="translate(52.861 230.839)">
          <g id="Grupo_57049" data-name="Grupo 57049">
            <path id="Trazado_102841" data-name="Trazado 102841" d="M2116.713,1646.154a1.045,1.045,0,1,0,1.045-1.044A1.046,1.046,0,0,0,2116.713,1646.154Z" transform="translate(-2116.713 -1645.109)" fill="#208abd"/>
          </g>
        </g>
        <g id="Grupo_57052" data-name="Grupo 57052" transform="translate(55.426 236.062)">
          <g id="Grupo_57051" data-name="Grupo 57051">
            <path id="Trazado_102842" data-name="Trazado 102842" d="M2131.06,1675.372a1.044,1.044,0,1,0,1.045-1.045A1.044,1.044,0,0,0,2131.06,1675.372Z" transform="translate(-2131.06 -1674.327)" fill="#208abd"/>
          </g>
        </g>
        <g id="Grupo_57054" data-name="Grupo 57054" transform="translate(63.498 237.012)">
          <g id="Grupo_57053" data-name="Grupo 57053">
            <path id="Trazado_102843" data-name="Trazado 102843" d="M2176.216,1680.686a1.045,1.045,0,1,0,1.046-1.045A1.046,1.046,0,0,0,2176.216,1680.686Z" transform="translate(-2176.216 -1679.641)" fill="#208abd"/>
          </g>
        </g>
        <g id="Grupo_57056" data-name="Grupo 57056" transform="translate(51.478 226.879)">
          <g id="Grupo_57055" data-name="Grupo 57055">
            <path id="Trazado_102844" data-name="Trazado 102844" d="M2108.976,1623.01l.043,2a1.061,1.061,0,0,0,.282.043,1.045,1.045,0,1,0,0-2.09A1.038,1.038,0,0,0,2108.976,1623.01Z" transform="translate(-2108.976 -1622.958)" fill="#208abd"/>
          </g>
        </g>
        <g id="Grupo_57057" data-name="Grupo 57057" transform="translate(83.462 131.257)">
          <path id="Trazado_102845" data-name="Trazado 102845" d="M2321,1089.493a50.884,50.884,0,0,0,1.283,7.66c1.26,5.246,3.253,10.177,2.938,13.743-.456,5.173-3.13,5.756-3.414,9.731s4.543,7.67,4.259,13.634-1.57,7.941-1.7,15.049c-.1,5.143,1.987,32.38,1.987,32.38l-21.3,2.554s-6.816-29.82-9.372-46.292-7.776-49.922-7.776-49.922Z" transform="translate(-2287.9 -1088.031)" fill="#fa7662"/>
        </g>
        <g id="Grupo_57058" data-name="Grupo 57058" transform="translate(104.288 133.388)">
          <path id="Trazado_102846" data-name="Trazado 102846" d="M2416.91,1108.471a.106.106,0,0,0,.1-.061.107.107,0,0,0-.051-.143,48.075,48.075,0,0,1-12.372-8.285.105.105,0,0,0-.151,0,.107.107,0,0,0,0,.152,48.269,48.269,0,0,0,12.426,8.323A.114.114,0,0,0,2416.91,1108.471Z" transform="translate(-2404.403 -1099.952)" fill="#08222f"/>
        </g>
        <g id="Grupo_57059" data-name="Grupo 57059" transform="translate(96.149 149.168)">
          <path id="Trazado_102847" data-name="Trazado 102847" d="M2370.785,1262.071l.021,0a.106.106,0,0,0,.083-.126c-4.889-23.966-8.86-48.734-11.8-73.617a.1.1,0,0,0-.119-.094.107.107,0,0,0-.094.118c2.942,24.889,6.915,49.663,11.806,73.635A.107.107,0,0,0,2370.785,1262.071Z" transform="translate(-2358.874 -1188.23)" fill="#08222f"/>
        </g>
        <g id="Grupo_57061" data-name="Grupo 57061" transform="translate(98.916 177.488)">
          <g id="Grupo_57060" data-name="Grupo 57060">
            <path id="Trazado_102848" data-name="Trazado 102848" d="M2374.352,1389.068c1.018,4.589,1.694,7.57,1.694,7.57l21.3-2.554s-2.081-27.234-1.987-32.38c.136-7.108,1.42-9.089,1.7-15.049,0,0-5.242,7.194-6.757,14.747C2388.832,1368.8,2388.318,1384.4,2374.352,1389.068Z" transform="translate(-2374.352 -1346.654)" fill="#e85741"/>
          </g>
        </g>
        <g id="Grupo_57062" data-name="Grupo 57062" transform="translate(96.987 221.482)">
          <path id="Trazado_102849" data-name="Trazado 102849" d="M2390.265,1593.151c.838,1,.218,6.361-.169,6.8s-22.753,2.527-23.706,2.085-3.366-6.909-2.719-7.814S2389.427,1592.152,2390.265,1593.151Z" transform="translate(-2363.562 -1592.767)" fill="#fa7662"/>
        </g>
        <g id="Grupo_57063" data-name="Grupo 57063" transform="translate(97.746 224.131)">
          <path id="Trazado_102850" data-name="Trazado 102850" d="M2367.914,1609.2h.009c10.192-.837,18.212-1.269,26-1.4a.107.107,0,0,0,0-.214c-7.8.067-15.822.565-26.018,1.4a.107.107,0,0,0,.008.214Z" transform="translate(-2367.806 -1607.583)" fill="#08222f"/>
        </g>
        <g id="Grupo_57064" data-name="Grupo 57064" transform="translate(48.534 129.703)">
          <path id="Trazado_102851" data-name="Trazado 102851" d="M2130.1,1087.357a59.085,59.085,0,0,0-1.988,9.374c-.852,5.964,1.136,9.939,0,12.495s-3.974,3.123-4.259,5.4,1.988,8.521.567,11.362-1.7,2.555-2.841,9.087-7.7,37.787-7.7,37.787l-21.37-2.484s.671-42.971,2.091-62,5.242-29.039,5.242-29.039l30.4,1.025Z" transform="translate(-2092.504 -1079.335)" fill="#fa7662"/>
        </g>
        <g id="Grupo_57066" data-name="Grupo 57066" transform="translate(48.534 142.691)">
          <g id="Grupo_57065" data-name="Grupo 57065">
            <path id="Trazado_102852" data-name="Trazado 102852" d="M2092.5,1230.043l21.37,2.484s6.571-31.255,7.7-37.787,1.419-6.244,2.841-9.087-.857-9.084-.567-11.361,3.12-2.844,4.259-5.4-.848-6.535,0-12.495c.239-1.678.5-3.149.753-4.408-2.134,3.036-3.432,7.712-6.082,11.443-2.305,3.245-5.281,5.68-6.034,10.212-.959,5.767,2.26,8.76.4,14.334s-2.783,20.294-6.37,31.708S2092.5,1230.043,2092.5,1230.043Z" transform="translate(-2092.504 -1151.993)" fill="#e85741"/>
          </g>
        </g>
        <g id="Grupo_57067" data-name="Grupo 57067" transform="translate(59.483 144.385)">
          <path id="Trazado_102853" data-name="Trazado 102853" d="M2153.863,1194.537a.107.107,0,0,0,.106-.092,199.7,199.7,0,0,1,7.632-32.831.107.107,0,0,0-.066-.136.106.106,0,0,0-.136.066,199.845,199.845,0,0,0-7.642,32.871.108.108,0,0,0,.091.122Z" transform="translate(-2153.755 -1161.472)" fill="#08222f"/>
        </g>
        <g id="Grupo_57068" data-name="Grupo 57068" transform="translate(57.177 186.46)">
          <path id="Trazado_102854" data-name="Trazado 102854" d="M2140.958,1424.158a.111.111,0,0,0,.111-.1l1.154-27.1a.107.107,0,0,0-.1-.111.11.11,0,0,0-.111.1l-1.154,27.1A.107.107,0,0,0,2140.958,1424.158Z" transform="translate(-2140.855 -1396.848)" fill="#08222f"/>
        </g>
        <g id="Grupo_57069" data-name="Grupo 57069" transform="translate(45.648 219.665)">
          <path id="Trazado_102855" data-name="Trazado 102855" d="M2102.264,1585.066c-.56-.373-24.878-2.662-25.263-2.449s-.891,5.656-.5,6.049,24.746,2.148,25.379,1.921S2102.823,1585.439,2102.264,1585.066Z" transform="translate(-2076.359 -1582.603)" fill="#fa7662"/>
        </g>
        <g id="Grupo_57070" data-name="Grupo 57070" transform="translate(45.888 221.607)">
          <path id="Trazado_102856" data-name="Trazado 102856" d="M2103.437,1595.822a.11.11,0,0,0,.111-.1.108.108,0,0,0-.1-.111c-8.352-.283-16.971-1-25.62-2.14a.1.1,0,0,0-.121.092.108.108,0,0,0,.093.121A228.213,228.213,0,0,0,2103.437,1595.822Z" transform="translate(-2077.703 -1593.466)" fill="#08222f"/>
        </g>
        <g id="Grupo_57071" data-name="Grupo 57071" transform="translate(74.471 29)">
          <path id="Trazado_102857" data-name="Trazado 102857" d="M2280.4,527.439s3.233-.835,3.547-3.859-2.607-6.258-7.094-7.2-8.552,0-13.038.73-13.414.3-18.775,1.252c-6.508,1.154-7.927,4.068-7.3,7.927a7.14,7.14,0,0,0,3.233,5.215Z" transform="translate(-2237.602 -515.988)" fill="#1379ab"/>
        </g>
        <g id="Grupo_57073" data-name="Grupo 57073" transform="translate(77.211 31.928)">
          <g id="Grupo_57072" data-name="Grupo 57072">
            <path id="Trazado_102858" data-name="Trazado 102858" d="M2263.586,534.131c7.346-.193,13.823-2.61,22.038-1.45s3,7.635,3,7.635l-33.927,1.837C2249.668,537.8,2256.24,534.324,2263.586,534.131Z" transform="translate(-2252.929 -532.367)" fill="#08222f"/>
          </g>
        </g>
        <g id="Grupo_57074" data-name="Grupo 57074" transform="translate(55.481 38.028)">
          <path id="Trazado_102859" data-name="Trazado 102859" d="M2156.75,569.227s-12.013,1.726-16.945,3.37c0,0-3.654,27.4-4.383,36.347s-.55,18.08-.916,22.464-2.266,7.9-2.92,12.239c-.636,4.215.174,7.426,1.644,8.4,0,0,8.949,7.488,26.119,7.671a146.351,146.351,0,0,0,33.059-3.834c1.171-.638.921-2.1,2.373-3.656,1.6-1.709,3.927-2.9,3.836-5.113-.074-1.824-2.739-3.1-2.921-6.209s.914-73.061.914-73.061a77.945,77.945,0,0,0-15.868-1.332Z" transform="translate(-2131.367 -566.491)" fill="#208abd"/>
        </g>
        <g id="Grupo_57076" data-name="Grupo 57076" transform="translate(70.175 59.866)">
          <g id="Grupo_57075" data-name="Grupo 57075">
            <path id="Trazado_102860" data-name="Trazado 102860" d="M2213.687,711.268c1.149,11.377,10.592,19.742,21.088,18.682s18.069-11.145,16.92-22.522-10.589-19.74-21.085-18.68S2212.538,699.891,2213.687,711.268Z" transform="translate(-2213.572 -688.656)" fill="#bfeffc"/>
          </g>
        </g>
        <g id="Grupo_57078" data-name="Grupo 57078" transform="translate(70.175 60.42)">
          <g id="Grupo_57077" data-name="Grupo 57077">
            <path id="Trazado_102861" data-name="Trazado 102861" d="M2213.688,713.814c1.149,11.38,10.589,19.736,21.088,18.682a17.708,17.708,0,0,0,4.994-1.256,18.725,18.725,0,0,1-2.613.462c-10.5,1.062-19.942-7.3-21.09-18.684-.959-9.471,4.136-18.05,11.928-21.261C2218.893,694.086,2212.636,703.4,2213.688,713.814Z" transform="translate(-2213.573 -691.757)" fill="#b1e959"/>
          </g>
        </g>
        <g id="Grupo_57080" data-name="Grupo 57080" transform="translate(86.294 76.646)">
          <g id="Grupo_57079" data-name="Grupo 57079">
            <path id="Trazado_102862" data-name="Trazado 102862" d="M2303.744,837.141a148.126,148.126,0,0,0,30.227-3.836c1.173-.642.926-2.1,2.373-3.656,1.6-1.7,3.93-2.9,3.836-5.113-.069-1.824-2.741-3.109-2.921-6.209-.042-.711-.017-4.939.052-11.036l-19.779-24.764s.9,16.141,5.051,23.993,4.491,16.638,3.937,18.476C2324.706,831.009,2314.585,834.63,2303.744,837.141Z" transform="translate(-2303.744 -782.527)" fill="#1379ab"/>
          </g>
        </g>
        <g id="Grupo_57081" data-name="Grupo 57081" transform="translate(55.866 123.586)">
          <path id="Trazado_102863" data-name="Trazado 102863" d="M2194.179,1048.954a10.049,10.049,0,0,1,.039,5.3,148.448,148.448,0,0,1-31.234,1.952c-19.343-.887-29.459-4.969-29.459-4.969a17.156,17.156,0,0,1,1.477-6.117C2146.835,1050.878,2172.346,1052.141,2194.179,1048.954Z" transform="translate(-2133.525 -1045.117)" fill="#208abd"/>
        </g>
        <g id="Grupo_57082" data-name="Grupo 57082" transform="translate(57.236 123.479)">
          <path id="Trazado_102864" data-name="Trazado 102864" d="M2166.033,1050.233a.107.107,0,0,0,.012-.213c-10.858-1.186-18.94-2.982-24.708-5.494a.106.106,0,1,0-.085.2c5.787,2.521,13.889,4.323,24.769,5.511Z" transform="translate(-2141.188 -1044.516)" fill="#08222f"/>
        </g>
        <g id="Grupo_57083" data-name="Grupo 57083" transform="translate(73.457 127.991)">
          <path id="Trazado_102865" data-name="Trazado 102865" d="M2232.037,1074.333a.106.106,0,0,0,.1-.09l.708-4.361a.106.106,0,0,0-.088-.122.111.111,0,0,0-.123.089l-.707,4.36a.106.106,0,0,0,.088.122Z" transform="translate(-2231.93 -1069.758)" fill="#08222f"/>
        </g>
        <g id="Grupo_57084" data-name="Grupo 57084" transform="translate(68.21 127.01)">
          <path id="Trazado_102866" data-name="Trazado 102866" d="M2202.687,1070.234a.107.107,0,0,0,.106-.093l.719-5.748a.108.108,0,0,0-.094-.12.1.1,0,0,0-.119.093l-.719,5.748a.107.107,0,0,0,.092.12Z" transform="translate(-2202.58 -1064.27)" fill="#08222f"/>
        </g>
        <g id="Grupo_57085" data-name="Grupo 57085" transform="translate(64.259 126.111)">
          <path id="Trazado_102867" data-name="Trazado 102867" d="M2180.581,1062.2a.107.107,0,0,0,.106-.094l.314-2.74a.106.106,0,0,0-.094-.118.1.1,0,0,0-.119.093l-.314,2.739a.106.106,0,0,0,.093.119Z" transform="translate(-2180.474 -1059.245)" fill="#08222f"/>
        </g>
        <g id="Grupo_57086" data-name="Grupo 57086" transform="translate(59.138 124.811)">
          <path id="Trazado_102868" data-name="Trazado 102868" d="M2151.936,1058.022a.108.108,0,0,0,.105-.088l1.124-5.838a.109.109,0,0,0-.086-.125.113.113,0,0,0-.126.085l-1.123,5.839a.107.107,0,0,0,.086.125Z" transform="translate(-2151.829 -1051.971)" fill="#08222f"/>
        </g>
        <g id="Grupo_57087" data-name="Grupo 57087" transform="translate(77.413 38.611)">
          <path id="Trazado_102869" data-name="Trazado 102869" d="M2269.482,581.752a28.451,28.451,0,0,0,3.015-.165c13.115-1.4,12.558-11.629,12.551-11.733a.107.107,0,0,0-.115-.1.108.108,0,0,0-.1.115,10.7,10.7,0,0,1-1.283,5.234c-2.408,4.465-7.353,5.874-11.078,6.27-4.185.445-10.112.178-14.6-3.618a12.609,12.609,0,0,1-3.6-4.79.107.107,0,0,0-.2.072C2254.1,573.131,2257.3,581.752,2269.482,581.752Z" transform="translate(-2254.061 -569.753)" fill="#08222f"/>
        </g>
        <g id="Grupo_57088" data-name="Grupo 57088" transform="translate(87.253 46.777)">
          <path id="Trazado_102870" data-name="Trazado 102870" d="M2309.212,618.577a.107.107,0,0,0,.1-.078l.838-2.93a.107.107,0,0,0-.207-.059l-.837,2.931a.107.107,0,0,0,.073.132A.087.087,0,0,0,2309.212,618.577Z" transform="translate(-2309.105 -615.432)" fill="#08222f"/>
        </g>
        <g id="Grupo_57089" data-name="Grupo 57089" transform="translate(83.473 45.824)">
          <path id="Trazado_102871" data-name="Trazado 102871" d="M2288.068,612.674a.106.106,0,0,0,.093-.055l1.318-2.357a.107.107,0,1,0-.187-.1l-1.318,2.358a.106.106,0,0,0,.041.145A.1.1,0,0,0,2288.068,612.674Z" transform="translate(-2287.961 -610.102)" fill="#08222f"/>
        </g>
        <g id="Grupo_57090" data-name="Grupo 57090" transform="translate(79.589 43.813)">
          <path id="Trazado_102872" data-name="Trazado 102872" d="M2266.343,600.386a.107.107,0,0,0,.074-.031l1.353-1.317a.107.107,0,0,0,0-.152.108.108,0,0,0-.152,0l-1.353,1.318a.106.106,0,0,0,0,.151A.11.11,0,0,0,2266.343,600.386Z" transform="translate(-2266.236 -598.854)" fill="#08222f"/>
        </g>
        <g id="Grupo_57091" data-name="Grupo 57091" transform="translate(104.603 39.745)">
          <path id="Trazado_102873" data-name="Trazado 102873" d="M2409.562,577.607a.107.107,0,0,0,.039-.206l-3.287-1.3a.107.107,0,0,0-.079.2l3.287,1.3A.1.1,0,0,0,2409.562,577.607Z" transform="translate(-2406.167 -576.093)" fill="#08222f"/>
        </g>
        <g id="Grupo_57092" data-name="Grupo 57092" transform="translate(104.29 43.21)">
          <path id="Trazado_102874" data-name="Trazado 102874" d="M2406.454,597.37a.11.11,0,0,0,.081-.037.107.107,0,0,0-.011-.151l-1.932-1.676a.108.108,0,0,0-.151.01.107.107,0,0,0,.011.151l1.932,1.676A.1.1,0,0,0,2406.454,597.37Z" transform="translate(-2404.415 -595.481)" fill="#08222f"/>
        </g>
        <g id="Grupo_57093" data-name="Grupo 57093" transform="translate(101.677 44.97)">
          <path id="Trazado_102875" data-name="Trazado 102875" d="M2391.864,608.1a.1.1,0,0,0,.065-.022.107.107,0,0,0,.021-.15l-1.96-2.557a.108.108,0,0,0-.171.131l1.96,2.556A.11.11,0,0,0,2391.864,608.1Z" transform="translate(-2389.796 -605.327)" fill="#08222f"/>
        </g>
        <g id="Grupo_57094" data-name="Grupo 57094" transform="translate(91.689 46.985)">
          <path id="Trazado_102876" data-name="Trazado 102876" d="M2334.031,620.208a.108.108,0,0,0,.107-.1l.3-3.4a.108.108,0,0,0-.214-.018l-.3,3.4a.108.108,0,0,0,.1.116Z" transform="translate(-2333.923 -616.595)" fill="#08222f"/>
        </g>
        <g id="Grupo_57095" data-name="Grupo 57095" transform="translate(23.919 44.134)">
          <path id="Trazado_102877" data-name="Trazado 102877" d="M1994.807,600.649c-2.545.671-9.5,2.252-12.6,7.854-3.422,6.623-5.661,23.38-6.027,31.416,0,0-6.757-9.68-14.428-12.6l-6.941,16.8a13.8,13.8,0,0,0,2.009,5.844c1.644,2.191,3.47.55,4.384,1.829s1.1,2.736,2.558,3.1,2.189-.912,3.65-.181,2.193,4.017,4.75,7.305a11.243,11.243,0,0,0,10.081,3.8c2.5-.6,5.991-2.158,9.28-10.743S1994.807,600.649,1994.807,600.649Z" transform="translate(-1954.807 -600.649)" fill="#208abd"/>
        </g>
        <g id="Grupo_57096" data-name="Grupo 57096" transform="translate(40.759 78.066)">
          <path id="Trazado_102878" data-name="Trazado 102878" d="M2058.813,799.973a.1.1,0,0,0,.094-.056.107.107,0,0,0-.042-.145,21.935,21.935,0,0,1-5.244-4.034c-.653-.768-1.187-1.51-1.706-2.227a11.267,11.267,0,0,0-2.74-3.023.107.107,0,0,0-.117.18,11.124,11.124,0,0,1,2.685,2.969c.52.721,1.057,1.467,1.716,2.241a22.2,22.2,0,0,0,5.3,4.084A.112.112,0,0,0,2058.813,799.973Z" transform="translate(-2049.009 -790.47)" fill="#08222f"/>
        </g>
        <g id="Grupo_57098" data-name="Grupo 57098" transform="translate(24.592 72.34)">
          <g id="Grupo_57097" data-name="Grupo 57097">
            <path id="Trazado_102879" data-name="Trazado 102879" d="M1958.568,776.82a9.554,9.554,0,0,0,1.336,2.724c1.643,2.192,3.467.545,4.384,1.829s1.094,2.743,2.558,3.1,2.194-.908,3.65-.181,2.19,4.017,4.75,7.305a11.249,11.249,0,0,0,10.08,3.8c2-.479,4.605-1.56,7.243-6.3.009-.017.018-.041.026-.058a34.289,34.289,0,0,0,1.495-6.785c.427-3.165.618-7.025,1.188-10.616.447-2.818,1.036-5.422,1.432-7.671.594-3.377,1.193-5.533,1.193-5.533s-.23.274-.6.771a27.5,27.5,0,0,0-4.255,8.246c-1.525,5.129-1.25,16.637-6.79,18.581s-8.742-8.04-12.484-8.734-6.663-.976-8.323-2.911-1.8-3.888-2.911-4.025a31.739,31.739,0,0,1-3.881,6.189Z" transform="translate(-1958.568 -758.436)" fill="#1379ab"/>
          </g>
        </g>
        <g id="Grupo_57099" data-name="Grupo 57099" transform="translate(20.529 74.092)">
          <path id="Trazado_102880" data-name="Trazado 102880" d="M1936.4,773.814c-.953,3.423-.666,6.491.64,6.855s3.138-2.115,4.09-5.538.667-6.491-.639-6.855S1937.355,770.391,1936.4,773.814Z" transform="translate(-1935.84 -768.241)" fill="#08222f"/>
        </g>
        <g id="Grupo_57100" data-name="Grupo 57100" transform="translate(0 58.887)">
          <path id="Trazado_102881" data-name="Trazado 102881" d="M1838.56,690.427c-.668-.129-1.863-.791-4.3-2.936-3.061-2.69-6.411-5.026-7.393-4.109-1.576,1.472,7.325,8.907,7.325,8.907s-10.994-7.709-12.544-5.782c-1.472,1.83,11.3,8.6,11.3,8.6s-10.948-4.745-11.865-3.248c-1.243,2.03,11.4,7.171,11.4,7.171s-8.306-2.493-8.571-1.093c-.2,1.048,1.344,2.175,7.336,4.631a47.454,47.454,0,0,0,6.087,2.205c3.81,1.14,5.168.5,10.722,2.868l.111-10.054Z" transform="translate(-1820.998 -683.179)" fill="#f7bfa3"/>
        </g>
        <g id="Grupo_57101" data-name="Grupo 57101" transform="translate(17.561 56.41)">
          <path id="Trazado_102882" data-name="Trazado 102882" d="M1928.066,681.12c-2.589-.513-4.374-12-5.6-11.794-2.333.4-.043,9.766-3.229,9.722l9.049,13.291A20.024,20.024,0,0,0,1928.066,681.12Z" transform="translate(-1919.24 -669.323)" fill="#f7bfa3"/>
        </g>
        <g id="Grupo_57102" data-name="Grupo 57102" transform="translate(18.056 66.146)">
          <path id="Trazado_102883" data-name="Trazado 102883" d="M1924.287,730.294a.11.11,0,0,0,.088-.045.108.108,0,0,0-.027-.15c-3.249-2.273-1.82-6.125-1.805-6.164a.108.108,0,0,0-.062-.138.106.106,0,0,0-.139.061c-.015.041-1.5,4.048,1.884,6.417A.107.107,0,0,0,1924.287,730.294Z" transform="translate(-1922.005 -723.789)" fill="#08222f"/>
        </g>
        <g id="Grupo_57103" data-name="Grupo 57103" transform="translate(21.15 68.041)">
          <path id="Trazado_102884" data-name="Trazado 102884" d="M1949.027,737.146a5.8,5.8,0,0,0-4.794-2.76c.44,1.161.284,5.329-.985,10.506-1.265,5.159-2.336,7.92-3.931,7.578,0,0,2.337,4.674,3.533,4.333S1949.027,737.146,1949.027,737.146Z" transform="translate(-1939.318 -734.386)" fill="#208abd"/>
        </g>
        <g id="Grupo_57104" data-name="Grupo 57104" transform="translate(26.025 67.972)">
          <path id="Trazado_102885" data-name="Trazado 102885" d="M1967.656,752.947a.1.1,0,0,0,.091-.051,26.9,26.9,0,0,0,3.781-16.072.108.108,0,0,0-.019-.055A5.968,5.968,0,0,0,1966.7,734a.112.112,0,0,0-.113.1.107.107,0,0,0,.1.113,5.757,5.757,0,0,1,4.628,2.651,26.687,26.687,0,0,1-3.75,15.917.106.106,0,0,0,.035.146A.1.1,0,0,0,1967.656,752.947Z" transform="translate(-1966.585 -734.002)" fill="#08222f"/>
        </g>
        <g id="Grupo_57105" data-name="Grupo 57105" transform="translate(27.097 72.067)">
          <path id="Trazado_102886" data-name="Trazado 102886" d="M1976.354,759.2a.107.107,0,0,0,.053-.2l-3.664-2.076a.106.106,0,0,0-.146.04.108.108,0,0,0,.04.146l3.663,2.076A.109.109,0,0,0,1976.354,759.2Z" transform="translate(-1972.583 -756.91)" fill="#08222f"/>
        </g>
        <g id="Grupo_57106" data-name="Grupo 57106" transform="translate(27.584 76.63)">
          <path id="Trazado_102887" data-name="Trazado 102887" d="M1978.2,783.694a.107.107,0,0,0,.038-.207l-2.787-1.045a.107.107,0,1,0-.075.2l2.787,1.045A.1.1,0,0,0,1978.2,783.694Z" transform="translate(-1975.31 -782.436)" fill="#08222f"/>
        </g>
        <g id="Grupo_57107" data-name="Grupo 57107" transform="translate(24.589 79.834)">
          <path id="Trazado_102888" data-name="Trazado 102888" d="M1963.014,803.535a.107.107,0,0,0,.06-.2l-4.354-2.96a.107.107,0,0,0-.12.177l4.354,2.961A.11.11,0,0,0,1963.014,803.535Z" transform="translate(-1958.553 -800.361)" fill="#08222f"/>
        </g>
        <g id="Grupo_57108" data-name="Grupo 57108" transform="translate(24.137 83.665)">
          <path id="Trazado_102889" data-name="Trazado 102889" d="M1959.3,824.514a.108.108,0,0,0,.084-.04.107.107,0,0,0-.018-.151l-3.169-2.507a.107.107,0,1,0-.132.168l3.169,2.507A.106.106,0,0,0,1959.3,824.514Z" transform="translate(-1956.024 -821.792)" fill="#08222f"/>
        </g>
        <g id="Grupo_57109" data-name="Grupo 57109" transform="translate(22.24 88.012)">
          <path id="Trazado_102890" data-name="Trazado 102890" d="M1947.731,848.685a.423.423,0,0,0,.167-.032c.715-.3,1.56-2.142,1.6-2.219a.107.107,0,0,0-.2-.088c-.232.512-.953,1.89-1.481,2.11s-1.766-1.527-2.2-2.29a.107.107,0,1,0-.185.106C1945.443,846.3,1946.847,848.685,1947.731,848.685Z" transform="translate(-1945.415 -846.111)" fill="#08222f"/>
        </g>
        <g id="Grupo_57110" data-name="Grupo 57110" transform="translate(56.567 70.566)">
          <path id="Trazado_102891" data-name="Trazado 102891" d="M2137.552,783.977a.11.11,0,0,0,.076-.032c2.952-3.007,3.5-9.16,3.993-14.589.12-1.328.232-2.583.375-3.73.713-5.713,3.227-16.869,3.252-16.982a.108.108,0,0,0-.081-.128.11.11,0,0,0-.129.081c-.025.112-2.54,11.279-3.255,17-.144,1.15-.256,2.407-.376,3.737-.485,5.394-1.034,11.507-3.932,14.458a.107.107,0,0,0,0,.151A.109.109,0,0,0,2137.552,783.977Z" transform="translate(-2137.444 -748.515)" fill="#08222f"/>
        </g>
        <g id="Grupo_57111" data-name="Grupo 57111" transform="translate(100.036 20.187)">
          <path id="Trazado_102892" data-name="Trazado 102892" d="M2387.391,466.775s.637,1.436-1.129,3.953c-.476.678-.849,1.564-.469,2.123.493.725,1.847.6,1.88.794a4.134,4.134,0,0,1-2.374,1.411,4.627,4.627,0,0,1-3.742-.563C2378.452,472.61,2383.721,465.834,2387.391,466.775Z" transform="translate(-2380.617 -466.686)" fill="#08222f"/>
        </g>
        <g id="Grupo_57112" data-name="Grupo 57112" transform="translate(80.864 38.053)">
          <path id="Trazado_102893" data-name="Trazado 102893" d="M2297.355,566.627s-15.333.313-23.99,2.712c0,0,3.025,6.885,13.246,6.05S2297.355,566.627,2297.355,566.627Z" transform="translate(-2273.365 -566.627)" fill="#f7bfa3"/>
        </g>
        <g id="Grupo_57113" data-name="Grupo 57113" transform="translate(83.731 25.772)">
          <path id="Trazado_102894" data-name="Trazado 102894" d="M2307.809,497.93l.518,13.52-18.919,1.036,2.937-14.556Z" transform="translate(-2289.408 -497.93)" fill="#f7bfa3"/>
        </g>
        <g id="Grupo_57114" data-name="Grupo 57114" transform="translate(77.4 0.566)">
          <path id="Trazado_102895" data-name="Trazado 102895" d="M2259.721,366.476c.758-1.353-.324-3.354.7-4.382s2.031-.969,3-1.652c.9-.64,1.072-2.162,2.492-2.538a2.3,2.3,0,0,1,2.675,1.357c1.591-1.519,4.086-2.594,5.966-2.287,1.451.237,1.353,1.622,2.2,1.622.923,0,1.342-.876,3.415-.665,2.38.242,4.177,2.226,4.076,5.5-.052,1.7-1.355,4.026.246,4.9,1.267.692,3.284-.144,3.417.257.162.487-.434,2-2,2.76s-4.143.182-4.143.182l-21.916-.568a5.914,5.914,0,0,1-5.86-1.4A7.462,7.462,0,0,0,2259.721,366.476Z" transform="translate(-2253.987 -356.921)" fill="#08222f"/>
        </g>
        <g id="Grupo_57115" data-name="Grupo 57115" transform="translate(85.876 0)">
          <path id="Trazado_102896" data-name="Trazado 102896" d="M2307.53,356.66c.094-.022-.6-3.322-3.129-2.862s-1.957,2.686-2.993,3.377c0,0,.729,0,1.343-1.075.428-.749,1.074-1.606,1.958-1.574,1.036.038,2,2.226,2,2.226Z" transform="translate(-2301.407 -353.754)" fill="#08222f"/>
        </g>
        <g id="Grupo_57116" data-name="Grupo 57116" transform="translate(91.172 0.77)">
          <path id="Trazado_102897" data-name="Trazado 102897" d="M2334.34,358.064a7.536,7.536,0,0,0-2.171,2.438l-1.138-.21A4.386,4.386,0,0,1,2334.34,358.064Z" transform="translate(-2331.03 -358.064)" fill="#08222f"/>
        </g>
        <g id="Grupo_57117" data-name="Grupo 57117" transform="translate(76.638 8.397)">
          <path id="Trazado_102898" data-name="Trazado 102898" d="M2254.79,400.729a4.395,4.395,0,0,1-1.883,3.049,5.535,5.535,0,0,1-3.183.807A14.573,14.573,0,0,0,2254.79,400.729Z" transform="translate(-2249.724 -400.729)" fill="#08222f"/>
        </g>
        <g id="Grupo_57118" data-name="Grupo 57118" transform="translate(101.802 1.541)">
          <path id="Trazado_102899" data-name="Trazado 102899" d="M2390.5,362.54a5.7,5.7,0,0,1,3.537,1.2c2.166,1.777,2.149,4.915,1.892,6.508a15.294,15.294,0,0,0,.429-2.337c.1-3.271-1.7-5.26-4.076-5.5A4.378,4.378,0,0,0,2390.5,362.54Z" transform="translate(-2390.495 -362.375)" fill="#208abd"/>
        </g>
        <g id="Grupo_57119" data-name="Grupo 57119" transform="translate(107.905 11.974)">
          <path id="Trazado_102900" data-name="Trazado 102900" d="M2424.638,420.737a8.93,8.93,0,0,0,2.922,1.754,2.05,2.05,0,0,0,.5-1.5C2427.918,420.591,2425.9,421.431,2424.638,420.737Z" transform="translate(-2424.638 -420.737)" fill="#208abd"/>
        </g>
        <g id="Grupo_57120" data-name="Grupo 57120" transform="translate(94.42 0.565)">
          <path id="Trazado_102901" data-name="Trazado 102901" d="M2349.2,357.626a7.027,7.027,0,0,1,5.051.5,2.161,2.161,0,0,0-1.507-1.156A6.273,6.273,0,0,0,2349.2,357.626Z" transform="translate(-2349.204 -356.913)" fill="#208abd"/>
        </g>
        <g id="Grupo_57121" data-name="Grupo 57121" transform="translate(80.907 14.589)">
          <path id="Trazado_102902" data-name="Trazado 102902" d="M2279.2,437.744c.686,1.779.087,3.667-1.338,4.216a3.212,3.212,0,0,1-4.007-2c-.686-1.779.1-3.9,1.522-4.446S2278.516,435.965,2279.2,437.744Z" transform="translate(-2273.605 -435.367)" fill="#f7bfa3"/>
        </g>
        <g id="Grupo_57122" data-name="Grupo 57122" transform="translate(103.079 14.58)">
          <path id="Trazado_102903" data-name="Trazado 102903" d="M2397.929,437.75a3.26,3.26,0,0,0,1.505,4.337,3.464,3.464,0,0,0,4.3-1.82c.933-1.847.325-4.231-1.254-4.776A3.785,3.785,0,0,0,2397.929,437.75Z" transform="translate(-2397.642 -435.317)" fill="#f7bfa3"/>
        </g>
        <g id="Grupo_57123" data-name="Grupo 57123" transform="translate(105.513 15.914)">
          <path id="Trazado_102904" data-name="Trazado 102904" d="M2411.381,446.617h.009a.108.108,0,0,0,.1-.116,3.018,3.018,0,0,1,2.571-3.507.107.107,0,0,0,.093-.12.1.1,0,0,0-.119-.092,3.271,3.271,0,0,0-2.758,3.738A.107.107,0,0,0,2411.381,446.617Z" transform="translate(-2411.255 -442.781)" fill="#08222f"/>
        </g>
        <g id="Grupo_57124" data-name="Grupo 57124" transform="translate(105.768 17.78)">
          <path id="Trazado_102905" data-name="Trazado 102905" d="M2414.012,453.652a3.554,3.554,0,0,0,.447-.028.107.107,0,1,0-.027-.212,3.425,3.425,0,0,1-1.606-.185.107.107,0,0,0-.074.2A3.643,3.643,0,0,0,2414.012,453.652Z" transform="translate(-2412.682 -453.219)" fill="#08222f"/>
        </g>
        <g id="Grupo_57125" data-name="Grupo 57125" transform="translate(83.025 4.09)">
          <path id="Trazado_102906" data-name="Trazado 102906" d="M2285.456,390.222c0,7.5,4.965,13.588,11.086,13.588s11.082-6.084,11.082-13.588-4.962-13.586-11.083-13.586S2285.456,382.718,2285.456,390.222Z" transform="translate(-2285.456 -376.636)" fill="#f7bfa3"/>
        </g>
        <g id="Grupo_57126" data-name="Grupo 57126" transform="translate(83.025 13.805)">
          <path id="Trazado_102907" data-name="Trazado 102907" d="M2285.455,434.854c0,.129,0,.264.007.393,0,.146.009.282.016.428v.034c0,.154.018.308.026.462s.034.325.051.488c.018.206.043.4.077.608s.068.42.1.625.087.411.128.617a.365.365,0,0,0,.017.094c.01.026.01.043.018.068.042.171.085.343.137.514s.1.368.162.548a.938.938,0,0,0,.043.146c.051.163.1.317.163.48.085.231.172.462.265.685a.448.448,0,0,1,.017.043c.069.171.146.334.222.5.077.18.164.351.257.522s.189.36.292.531c.085.163.188.317.273.471.009.009.009.017.018.026.188.3.384.582.582.856.154.206.316.4.479.6.06.068.129.146.189.223s.127.137.2.214c.171.18.343.36.522.531a8.736,8.736,0,0,0,.788.694c.146.12.309.24.462.351a8.984,8.984,0,0,0,.771.5c.154.094.325.188.487.274.137.068.274.137.42.206a9.145,9.145,0,0,0,1.7.6,5.32,5.32,0,0,0,.531.111c.2.034.41.069.616.094.154.017.3.034.445.043.2.009.393.017.6.017.188,0,.386-.008.574-.017s.394-.034.592-.06.394-.06.581-.094l.385-.077c.248-.06.489-.128.728-.205.2-.068.394-.137.583-.214.042-.017.093-.034.145-.06.18-.077.36-.154.531-.248a.184.184,0,0,0,.068-.034c.214-.1.41-.214.617-.334.162-.094.325-.2.479-.3s.308-.214.462-.326.326-.248.488-.385c.138-.111.265-.231.394-.351.146-.129.283-.257.42-.4s.273-.274.4-.42c.257-.291.505-.591.746-.908.008-.009.008-.009.008-.017.232-.317.462-.651.669-.993.111-.18.222-.359.317-.548s.2-.36.291-.548.188-.4.283-.6c.076-.18.153-.368.222-.557.085-.205.154-.411.231-.617s.129-.394.189-.6c.042-.154.084-.3.127-.445.034-.128.06-.257.094-.385a16.067,16.067,0,0,0,.455-3.843,16.282,16.282,0,0,0-.395-3.572,1.07,1.07,0,0,0-.5-.291c-1.148-.24-1.073,4.809-3.576,6.7-1.853,1.4-4.237,1.369-6.8,1.866-3.073.6-5,1.712-7.541.291-1.793-1-1.374-5.095-3.318-6.011C2285.462,434.168,2285.455,434.511,2285.455,434.854Z" transform="translate(-2285.455 -430.983)" fill="#08222f"/>
        </g>
        <g id="Grupo_57127" data-name="Grupo 57127" transform="translate(89.657 22.095)">
          <path id="Trazado_102908" data-name="Trazado 102908" d="M2331.905,477.357a11.156,11.156,0,0,1-4.435,2.046,11.688,11.688,0,0,1-4.911.2s2.183,3.343,5.867,2.456A4.627,4.627,0,0,0,2331.905,477.357Z" transform="translate(-2322.559 -477.357)" fill="#fff"/>
        </g>
        <g id="Grupo_57128" data-name="Grupo 57128" transform="translate(96.544 14.876)">
          <path id="Trazado_102909" data-name="Trazado 102909" d="M2361.081,438.033c0,.585.316,1.059.706,1.059s.706-.474.706-1.059-.316-1.058-.706-1.058S2361.081,437.448,2361.081,438.033Z" transform="translate(-2361.081 -436.975)" fill="#08222f"/>
        </g>
        <g id="Grupo_57129" data-name="Grupo 57129" transform="translate(97.264 16.598)">
          <path id="Trazado_102910" data-name="Trazado 102910" d="M2365.216,447a.109.109,0,0,0,.046-.01,1.73,1.73,0,0,1,1-.156.1.1,0,0,0,.116-.1.107.107,0,0,0-.1-.117,1.973,1.973,0,0,0-1.112.176.107.107,0,0,0-.05.143A.105.105,0,0,0,2365.216,447Z" transform="translate(-2365.109 -446.608)" fill="#08222f"/>
        </g>
        <g id="Grupo_57130" data-name="Grupo 57130" transform="translate(88.662 14.915)">
          <path id="Trazado_102911" data-name="Trazado 102911" d="M2316.992,438.252c0,.585.315,1.059.706,1.059s.705-.474.705-1.059-.316-1.058-.705-1.058S2316.992,437.668,2316.992,438.252Z" transform="translate(-2316.992 -437.194)" fill="#08222f"/>
        </g>
        <g id="Grupo_57131" data-name="Grupo 57131" transform="translate(88.751 16.87)">
          <path id="Trazado_102912" data-name="Trazado 102912" d="M2317.594,448.753a.107.107,0,0,0,.076-.032,1.48,1.48,0,0,1,1.494-.289.107.107,0,1,0,.075-.2,1.7,1.7,0,0,0-1.722.339.107.107,0,0,0,.076.182Z" transform="translate(-2317.487 -448.131)" fill="#08222f"/>
        </g>
        <g id="Grupo_57132" data-name="Grupo 57132" transform="translate(85.976 10.619)">
          <path id="Trazado_102913" data-name="Trazado 102913" d="M2306.9,414.536a15.031,15.031,0,0,1-2.51,1.415,6.341,6.341,0,0,1-2.426.495s1.14-1.167,1.9-1.812c.789-.672,1.885-1.57,2.571-1.468C2306.99,413.249,2307.176,414.3,2306.9,414.536Z" transform="translate(-2301.965 -413.158)" fill="#08222f"/>
        </g>
        <g id="Grupo_57133" data-name="Grupo 57133" transform="translate(91.189 10.538)">
          <path id="Trazado_102914" data-name="Trazado 102914" d="M2331.574,412.8c-.086-.141-.283-.131-.4.03s0,1.119.171,1.138S2331.721,413.045,2331.574,412.8Z" transform="translate(-2331.125 -412.705)" fill="#08222f"/>
        </g>
        <g id="Grupo_57134" data-name="Grupo 57134" transform="translate(95.568 12.426)">
          <path id="Trazado_102915" data-name="Trazado 102915" d="M2361.024,425.247a3.83,3.83,0,0,0-2.287-1.707c-.89-.223-2.776-.4-2.98-.156s-.178,1.208.148,1.29S2359.468,424.592,2361.024,425.247Z" transform="translate(-2355.626 -423.266)" fill="#08222f"/>
        </g>
        <g id="Grupo_57135" data-name="Grupo 57135" transform="translate(95.824 11.948)">
          <path id="Trazado_102916" data-name="Trazado 102916" d="M2359.566,421.079a1.948,1.948,0,0,0-1.234-.486,2.379,2.379,0,0,0-1.277.385A6.576,6.576,0,0,1,2359.566,421.079Z" transform="translate(-2357.056 -420.593)" fill="#08222f"/>
        </g>
        <g id="Grupo_57136" data-name="Grupo 57136" transform="translate(90.389 16.053)">
          <path id="Trazado_102917" data-name="Trazado 102917" d="M2328.048,450.288a7.306,7.306,0,0,0,1.356-.152.107.107,0,0,0,.086-.125.105.105,0,0,0-.126-.085c-1.18.228-2.008.191-2.336-.106a.516.516,0,0,1-.158-.462c.027-.289.519-.673,1.04-1.079a5.323,5.323,0,0,0,1.587-1.635,4.75,4.75,0,0,0-.063-3.014.109.109,0,0,0-.136-.066.107.107,0,0,0-.066.136,4.632,4.632,0,0,1,.072,2.853,5.2,5.2,0,0,1-1.525,1.557c-.581.455-1.084.847-1.12,1.228a.722.722,0,0,0,.227.641A1.759,1.759,0,0,0,2328.048,450.288Z" transform="translate(-2326.653 -443.56)" fill="#08222f"/>
        </g>
        <g id="Grupo_57137" data-name="Grupo 57137" transform="translate(83.24 4.009)">
          <path id="Trazado_102918" data-name="Trazado 102918" d="M2295.868,377.885c-.081.522.053,1.52-3.35,2.881a10.433,10.433,0,0,0-5.793,6.012s-.557-2.61,1.54-6.3,7.587-4.3,7.587-4.3A13.026,13.026,0,0,1,2295.868,377.885Z" transform="translate(-2286.658 -376.18)" fill="#08222f"/>
        </g>
        <g id="Grupo_57138" data-name="Grupo 57138" transform="translate(92.11 4.009)">
          <path id="Trazado_102919" data-name="Trazado 102919" d="M2336.279,377.729a3.332,3.332,0,0,0,2.807,2.968c2.775.71,5,.226,5.614.387s.825,2.8,1.969,4.421a4.618,4.618,0,0,0,2.424,1.823,8,8,0,0,0,3.769.059,11.463,11.463,0,0,0-1.51-1.5c-.671-.416-1.9-.563-2.393-2.288-.872-3.065-3.678-6.129-5.549-6.743s-6.806-.677-6.806-.677Z" transform="translate(-2336.279 -376.18)" fill="#08222f"/>
        </g>
        <g id="Grupo_57139" data-name="Grupo 57139" transform="translate(98.44 39.385)">
          <path id="Trazado_102920" data-name="Trazado 102920" d="M2393.971,574.081c3.287.464,8.559,1.307,10.984,6.368,3.113,6.5,2.713,15.367,3.262,22.49s1.644,35.982-1.1,43.1-10.958,6.393-15.707.731-9.864-12.238-12.42-19.727-4.2-13.515-5.664-15.706-1.642-6.577-1.642-6.577Z" transform="translate(-2371.688 -574.081)" fill="#208abd"/>
        </g>
        <g id="Grupo_57140" data-name="Grupo 57140" transform="translate(101.515 50.994)">
          <path id="Trazado_102921" data-name="Trazado 102921" d="M2398.052,649.467s-1.176-6.448-2.368-8.152-6.792-2.29-6.792-2.29l.861,6.972,6.387,4.94Z" transform="translate(-2388.892 -639.026)" fill="#f7bfa3"/>
        </g>
        <g id="Grupo_57141" data-name="Grupo 57141" transform="translate(92.779 40.21)">
          <path id="Trazado_102922" data-name="Trazado 102922" d="M2348.14,578.694l3.742,18.282-5.887,2.1-5.971-17.829Z" transform="translate(-2340.024 -578.694)" fill="#08222f"/>
        </g>
        <g id="Grupo_57142" data-name="Grupo 57142" transform="translate(90.199 32.374)">
          <path id="Trazado_102923" data-name="Trazado 102923" d="M2325.59,540.661a5.621,5.621,0,1,0,5.619-5.8A5.71,5.71,0,0,0,2325.59,540.661Z" transform="translate(-2325.59 -534.862)" fill="#fa7662"/>
        </g>
        <g id="Grupo_57144" data-name="Grupo 57144" transform="translate(90.199 34.372)">
          <g id="Grupo_57143" data-name="Grupo 57143">
            <path id="Trazado_102924" data-name="Trazado 102924" d="M2325.59,549.841a5.605,5.605,0,0,0,11.131,1.114,5.513,5.513,0,0,1-4.238,2,5.711,5.711,0,0,1-5.618-5.8,5.994,5.994,0,0,1,.1-1.113A5.846,5.846,0,0,0,2325.59,549.841Z" transform="translate(-2325.59 -546.04)" fill="#e85741"/>
          </g>
        </g>
        <g id="Grupo_57145" data-name="Grupo 57145" transform="translate(89.909 35.417)">
          <path id="Trazado_102925" data-name="Trazado 102925" d="M2325.667,555.955a15.013,15.013,0,0,0,9.924-3.7.214.214,0,0,0-.276-.327,14.654,14.654,0,0,1-11.114,3.53.208.208,0,0,0-.232.194.214.214,0,0,0,.194.232Q2324.924,555.955,2325.667,555.955Z" transform="translate(-2323.968 -551.881)" fill="#08222f"/>
        </g>
        <g id="Grupo_57146" data-name="Grupo 57146" transform="translate(92.841 52.554)">
          <path id="Trazado_102926" data-name="Trazado 102926" d="M2352.117,647.885s-7.494-.426-8.175.255-1.448,2.64-1.022,3.151a2.6,2.6,0,0,0-1.422,2.4,2.469,2.469,0,0,0-.781,2.554s-.779,2.2-.012,3.137,2.9,3.151,4.513,2.469a24.971,24.971,0,0,0,.351,2.827s6.036.154,8.761-2.231a12.59,12.59,0,0,0,3.577-5.705Z" transform="translate(-2340.367 -647.753)" fill="#f7bfa3"/>
        </g>
        <g id="Grupo_57147" data-name="Grupo 57147" transform="translate(95.286 55.985)">
          <path id="Trazado_102927" data-name="Trazado 102927" d="M2360,667.514a.107.107,0,0,0,.007-.214l-5.852-.355a.107.107,0,0,0-.007.214Z" transform="translate(-2354.045 -666.945)" fill="#08222f"/>
        </g>
        <g id="Grupo_57148" data-name="Grupo 57148" transform="translate(93.893 58.402)">
          <path id="Trazado_102928" data-name="Trazado 102928" d="M2351.244,681.019a.107.107,0,0,0,.008-.214l-4.881-.336a.1.1,0,0,0-.115.1.107.107,0,0,0,.1.114Z" transform="translate(-2346.256 -680.468)" fill="#08222f"/>
        </g>
        <g id="Grupo_57149" data-name="Grupo 57149" transform="translate(97.176 64.335)">
          <path id="Trazado_102929" data-name="Trazado 102929" d="M2365.219,717.7h.013a.107.107,0,0,0,.093-.12l-.494-3.828a.106.106,0,0,0-.12-.093.108.108,0,0,0-.093.12l.494,3.828A.107.107,0,0,0,2365.219,717.7Z" transform="translate(-2364.618 -713.659)" fill="#08222f"/>
        </g>
        <g id="Grupo_57150" data-name="Grupo 57150" transform="translate(93.136 60.969)">
          <path id="Trazado_102930" data-name="Trazado 102930" d="M2346.164,695.547a.107.107,0,0,0,.014-.213l-4.04-.505a.1.1,0,0,0-.12.093.107.107,0,0,0,.093.119l4.039.505Z" transform="translate(-2342.017 -694.828)" fill="#08222f"/>
        </g>
        <g id="Grupo_57151" data-name="Grupo 57151" transform="translate(100.559 52.319)">
          <path id="Trazado_102931" data-name="Trazado 102931" d="M2388.835,647.322a.1.1,0,0,0,.094-.057.106.106,0,0,0-.044-.145,8.3,8.3,0,0,0-3.906-.643c-.4-.01-.838-.021-1.325-.038a.1.1,0,0,0-.111.1.108.108,0,0,0,.1.111c.488.018.927.028,1.329.039a8.025,8.025,0,0,1,3.812.619A.1.1,0,0,0,2388.835,647.322Z" transform="translate(-2383.542 -646.438)" fill="#08222f"/>
        </g>
        <g id="Grupo_57153" data-name="Grupo 57153" transform="translate(114.428 65.329)">
          <g id="Grupo_57152" data-name="Grupo 57152">
            <path id="Trazado_102932" data-name="Trazado 102932" d="M2461.131,719.218a10.421,10.421,0,0,1,7.488,4.09c2.281,2.862,2.107,5.62,3.11,10.035s2.774,9.838,1.458,10.655c0,0-3.7-6.18-4.426-8.326a130.512,130.512,0,0,0-4.446-12.528C2463.148,720.58,2462.779,719.913,2461.131,719.218Z" transform="translate(-2461.131 -719.218)" fill="#1379ab"/>
          </g>
        </g>
        <g id="Grupo_57154" data-name="Grupo 57154" transform="translate(97.62 60.212)">
          <path id="Trazado_102933" data-name="Trazado 102933" d="M2380.142,690.591a6.368,6.368,0,0,1,2.787,5.589,32.6,32.6,0,0,1-7.75,5.025,34.531,34.531,0,0,1-6.849,2.447s-1.752-3.64-1.071-5C2374.157,698.054,2378.949,694.168,2380.142,690.591Z" transform="translate(-2367.101 -690.591)" fill="#208abd"/>
        </g>
        <g id="Grupo_57155" data-name="Grupo 57155" transform="translate(98.734 60.462)">
          <path id="Trazado_102934" data-name="Trazado 102934" d="M2373.439,704.918l.022,0a26.894,26.894,0,0,0,14.246-8.345.108.108,0,0,0,.027-.052,5.106,5.106,0,0,0-2.489-4.516.107.107,0,1,0-.105.187,4.969,4.969,0,0,1,2.39,4.258,26.678,26.678,0,0,1-14.113,8.259.107.107,0,0,0,.022.211Z" transform="translate(-2373.333 -691.988)" fill="#08222f"/>
        </g>
        <g id="Grupo_57156" data-name="Grupo 57156" transform="translate(109.664 63.546)">
          <path id="Trazado_102935" data-name="Trazado 102935" d="M2436.286,712.287a.107.107,0,0,0,.092-.162l-1.7-2.828a.106.106,0,0,0-.147-.037.108.108,0,0,0-.037.147l1.7,2.827A.1.1,0,0,0,2436.286,712.287Z" transform="translate(-2434.482 -709.244)" fill="#08222f"/>
        </g>
        <g id="Grupo_57157" data-name="Grupo 57157" transform="translate(106.892 65.365)">
          <path id="Trazado_102936" data-name="Trazado 102936" d="M2420.772,722.95a.1.1,0,0,0,.049-.012.106.106,0,0,0,.046-.144l-1.69-3.319a.107.107,0,0,0-.191.1l1.691,3.319A.106.106,0,0,0,2420.772,722.95Z" transform="translate(-2418.975 -719.418)" fill="#08222f"/>
        </g>
        <g id="Grupo_57158" data-name="Grupo 57158" transform="translate(104.266 68.124)">
          <path id="Trazado_102937" data-name="Trazado 102937" d="M2405.571,737.584a.107.107,0,0,0,.1-.152l-1.182-2.52a.11.11,0,0,0-.142-.051.108.108,0,0,0-.051.143l1.182,2.519A.106.106,0,0,0,2405.571,737.584Z" transform="translate(-2404.282 -734.851)" fill="#08222f"/>
        </g>
        <g id="Grupo_57159" data-name="Grupo 57159" transform="translate(100.204 68.02)">
          <path id="Trazado_102938" data-name="Trazado 102938" d="M2382.9,738.857a.091.091,0,0,0,.029,0,.106.106,0,0,0,.073-.132l-1.234-4.37a.105.105,0,0,0-.133-.074.107.107,0,0,0-.073.132l1.235,4.37A.106.106,0,0,0,2382.9,738.857Z" transform="translate(-2381.556 -734.273)" fill="#08222f"/>
        </g>
        <g id="Grupo_57160" data-name="Grupo 57160" transform="translate(112.955 64.882)">
          <path id="Trazado_102939" data-name="Trazado 102939" d="M2466.43,742.075a.107.107,0,0,0,.088-.168,43.93,43.93,0,0,1-4.424-8.329c-.7-1.923-1.207-3.518-1.7-5.061-.7-2.2-1.355-4.281-2.509-7.1-1.973-4.832-4.789-4.711-4.9-4.7a.108.108,0,0,0-.1.114.1.1,0,0,0,.114.1,3.184,3.184,0,0,1,1.613.5,7.935,7.935,0,0,1,3.075,4.062c1.149,2.814,1.806,4.889,2.5,7.087.489,1.545,1,3.143,1.7,5.069a44.232,44.232,0,0,0,4.449,8.377A.109.109,0,0,0,2466.43,742.075Z" transform="translate(-2452.891 -716.714)" fill="#08222f"/>
        </g>
      </g>
      <g id="Grupo_57181" data-name="Grupo 57181" transform="translate(1270.074 416.516)">
        <g id="Grupo_57162" data-name="Grupo 57162" transform="translate(19.804 4.389)">
          <path id="Trazado_102940" data-name="Trazado 102940" d="M1381.718,912.1a.855.855,0,0,0,.856-.856V730.267a.856.856,0,0,0-1.712,0V911.241A.855.855,0,0,0,1381.718,912.1Z" transform="translate(-1380.862 -729.411)" fill="#bfeffc"/>
        </g>
        <g id="Grupo_57163" data-name="Grupo 57163" transform="translate(2.277 177.231)">
          <path id="Trazado_102941" data-name="Trazado 102941" d="M1319.275,1715.4a.428.428,0,0,0,.194-.81l-36.035-18.224a.428.428,0,1,0-.387.764l36.035,18.224A.434.434,0,0,0,1319.275,1715.4Z" transform="translate(-1282.813 -1696.323)" fill="#bfeffc"/>
        </g>
        <g id="Grupo_57164" data-name="Grupo 57164" transform="translate(0 180.113)">
          <path id="Trazado_102942" data-name="Trazado 102942" d="M1270.5,1725.9a.423.423,0,0,0,.134-.021L1309,1713.281a.428.428,0,0,0-.268-.813l-38.366,12.593a.428.428,0,0,0,.133.835Z" transform="translate(-1270.074 -1712.445)" fill="#bfeffc"/>
        </g>
        <g id="Grupo_57165" data-name="Grupo 57165" transform="translate(18.686 63.387)">
          <path id="Trazado_102943" data-name="Trazado 102943" d="M1376.584,1079.214a1.974,1.974,0,0,0,1.974-1.974v-15.81a1.974,1.974,0,0,0-3.948,0v15.81A1.974,1.974,0,0,0,1376.584,1079.214Z" transform="translate(-1374.61 -1059.457)" fill="#08222f"/>
        </g>
        <g id="Grupo_57166" data-name="Grupo 57166" transform="translate(17.007 6.384)">
          <path id="Trazado_102944" data-name="Trazado 102944" d="M1368.87,761.023a3.653,3.653,0,0,0,3.653-3.653v-13.15a3.653,3.653,0,1,0-7.306,0v13.15A3.653,3.653,0,0,0,1368.87,761.023Z" transform="translate(-1365.217 -740.568)" fill="#08222f"/>
        </g>
        <g id="Grupo_57167" data-name="Grupo 57167" transform="translate(17.779 0)">
          <rect id="Rectángulo_5840" data-name="Rectángulo 5840" width="9.505" height="5.283" transform="translate(0 7.803) rotate(-55.179)" fill="#08222f"/>
        </g>
        <g id="Grupo_57168" data-name="Grupo 57168" transform="translate(92.791 90.288)">
          <path id="Trazado_102945" data-name="Trazado 102945" d="M1795.012,1299.218h.026a.427.427,0,0,0,.4-.453l-5.417-88.415a.421.421,0,0,0-.453-.4.428.428,0,0,0-.4.453l5.417,88.415A.428.428,0,0,0,1795.012,1299.218Z" transform="translate(-1789.167 -1209.944)" fill="#08222f"/>
        </g>
        <g id="Grupo_57169" data-name="Grupo 57169" transform="translate(62.619 94.012)">
          <path id="Trazado_102946" data-name="Trazado 102946" d="M1620.8,1312.788a.428.428,0,0,0,.427-.406l4.351-81.155a.427.427,0,0,0-.405-.449.416.416,0,0,0-.449.4l-4.351,81.156a.427.427,0,0,0,.405.45Z" transform="translate(-1620.375 -1230.776)" fill="#08222f"/>
        </g>
        <g id="Grupo_57170" data-name="Grupo 57170" transform="translate(51.996 90.422)">
          <path id="Trazado_102947" data-name="Trazado 102947" d="M1561.379,1302.763a.428.428,0,0,0,.427-.4l5.262-91.209a.429.429,0,0,0-.4-.452.4.4,0,0,0-.451.4l-5.262,91.209a.428.428,0,0,0,.4.451Z" transform="translate(-1560.951 -1210.696)" fill="#08222f"/>
        </g>
        <g id="Grupo_57171" data-name="Grupo 57171" transform="translate(79.735 97.321)">
          <path id="Trazado_102948" data-name="Trazado 102948" d="M1718.857,1341.65h.011a.428.428,0,0,0,.417-.439l-2.3-91.5a.428.428,0,0,0-.428-.417h-.01a.429.429,0,0,0-.418.438l2.3,91.5A.428.428,0,0,0,1718.857,1341.65Z" transform="translate(-1716.127 -1249.29)" fill="#08222f"/>
        </g>
        <g id="Grupo_57172" data-name="Grupo 57172" transform="translate(50.405 149.779)">
          <path id="Trazado_102949" data-name="Trazado 102949" d="M1552.052,1549.678c0-4.336,12.471-6.927,24.528-6.927s24.528,2.591,24.528,6.927-12.471,6.927-24.528,6.927S1552.052,1554.014,1552.052,1549.678Zm.856,0c0,2.932,9.512,6.071,23.671,6.071s23.672-3.139,23.672-6.071-9.512-6.071-23.672-6.071S1552.908,1546.746,1552.908,1549.678Z" transform="translate(-1552.052 -1542.751)" fill="#08222f"/>
        </g>
        <g id="Grupo_57173" data-name="Grupo 57173" transform="translate(50.834 85.123)">
          <path id="Trazado_102950" data-name="Trazado 102950" d="M1554.448,1187.551c0,3.589,10.79,6.5,24.1,6.5s24.1-2.91,24.1-6.5-10.79-6.5-24.1-6.5S1554.448,1183.962,1554.448,1187.551Z" transform="translate(-1554.448 -1181.052)" fill="#dea50b"/>
        </g>
        <g id="Grupo_57174" data-name="Grupo 57174" transform="translate(50.838 87.795)">
          <rect id="Rectángulo_5841" data-name="Rectángulo 5841" width="48.183" height="3.733" fill="#dea50b"/>
        </g>
        <g id="Grupo_57175" data-name="Grupo 57175" transform="translate(50.834 81.358)">
          <path id="Trazado_102951" data-name="Trazado 102951" d="M1554.448,1166.486c0,3.589,10.79,6.5,24.1,6.5s24.1-2.911,24.1-6.5-10.79-6.5-24.1-6.5S1554.448,1162.9,1554.448,1166.486Z" transform="translate(-1554.448 -1159.987)" fill="#fed55f"/>
        </g>
        <g id="Grupo_57176" data-name="Grupo 57176" transform="translate(79.509 85.298)">
          <path id="Trazado_102952" data-name="Trazado 102952" d="M1714.863,1183.258c0,.68,2.277,1.235,5.093,1.235s5.1-.555,5.1-1.235-2.283-1.23-5.1-1.23S1714.863,1182.577,1714.863,1183.258Z" transform="translate(-1714.863 -1182.028)" fill="#fa7662"/>
        </g>
        <g id="Grupo_57177" data-name="Grupo 57177" transform="translate(77.802 68.528)">
          <path id="Trazado_102953" data-name="Trazado 102953" d="M1707.019,1106.216h10.195l1.712-18h-13.614Z" transform="translate(-1705.312 -1088.217)" fill="#fa7662"/>
        </g>
        <g id="Grupo_57179" data-name="Grupo 57179" transform="translate(77.802 68.528)">
          <g id="Grupo_57178" data-name="Grupo 57178">
            <path id="Trazado_102954" data-name="Trazado 102954" d="M1707.025,1106.194a.024.024,0,0,0-.006.022c0,.676,2.285,1.235,5.093,1.235,2.6,0,4.734-.469,5.059-1.077-7.81-5.223-9.437-15.57-9.719-18.157h-2.141Z" transform="translate(-1705.312 -1088.217)" fill="#e85741"/>
          </g>
        </g>
        <g id="Grupo_57180" data-name="Grupo 57180" transform="translate(77.802 67.22)">
          <path id="Trazado_102955" data-name="Trazado 102955" d="M1705.312,1082.209c0,.725,3.049,1.316,6.807,1.316s6.807-.59,6.807-1.316-3.048-1.308-6.807-1.308S1705.312,1081.483,1705.312,1082.209Z" transform="translate(-1705.312 -1080.901)" fill="#fb9181"/>
        </g>
      </g>
    </g>
  </g>
</svg>
