<svg xmlns="http://www.w3.org/2000/svg" width="85.998" height="86" viewBox="0 0 85.998 86">
  <g id="Grupo_57193" data-name="Grupo 57193" transform="translate(-554.915 -123.928)">
    <path id="Trazado_101749" data-name="Trazado 101749" d="M640.913,198.262a11.665,11.665,0,0,1-11.664,11.666H566.582a11.665,11.665,0,0,1-11.667-11.666V135.594a11.665,11.665,0,0,1,11.667-11.666h62.667a11.665,11.665,0,0,1,11.664,11.666Z" transform="translate(0 0)" fill="#01549e"/>
    <g id="Grupo_55287" data-name="Grupo 55287" transform="translate(569.292 134.183)">
      <g id="Grupo_55277" data-name="Grupo 55277" transform="translate(4.585 33.059)">
        <path id="Trazado_101750" data-name="Trazado 101750" d="M633.07,297.783V324.37a3.988,3.988,0,0,0,3.988,3.988h42.834a3.985,3.985,0,0,0,3.983-3.988V297.783Z" transform="translate(-632.143 -296.856)" fill="#fed55f"/>
        <path id="Trazado_101751" data-name="Trazado 101751" d="M677.177,326.57H634.344a4.92,4.92,0,0,1-4.914-4.915V295.069a.926.926,0,0,1,.927-.927h50.805a.926.926,0,0,1,.927.927v26.587A4.918,4.918,0,0,1,677.177,326.57Zm-45.9-30.575v25.66a3.065,3.065,0,0,0,3.062,3.061h42.834a3.063,3.063,0,0,0,3.057-3.061v-25.66Z" transform="translate(-629.429 -294.142)" fill="#12263f"/>
      </g>
      <path id="Trazado_101752" data-name="Trazado 101752" d="M676.455,297.783c0,.083,0,.171,0,.256a24.5,24.5,0,0,1-41.829,17.325c-.549-.546-1.066-1.12-1.558-1.716V324.37a3.988,3.988,0,0,0,3.988,3.988h42.834a3.985,3.985,0,0,0,3.983-3.988V297.783Z" transform="translate(-627.559 -263.798)" fill="#fed55f" style="mix-blend-mode: multiply;isolation: isolate"/>
      <g id="Grupo_55283" data-name="Grupo 55283" transform="translate(0 0)">
        <g id="Grupo_55278" data-name="Grupo 55278">
          <rect id="Rectángulo_5567" data-name="Rectángulo 5567" width="52.839" height="10.181" transform="translate(0.926 24.883) rotate(-26.961)" fill="#bfeffc"/>
          <path id="Trazado_101753" data-name="Trazado 101753" d="M616.953,199.113a.927.927,0,0,1-.826-.507l-4.614-9.075a.926.926,0,0,1,.406-1.246l47.1-23.956a.926.926,0,0,1,1.246.406l4.614,9.075a.926.926,0,0,1-.406,1.246l-47.1,23.956A.924.924,0,0,1,616.953,199.113Zm-3.368-9.6,3.774,7.423L662.8,173.825l-3.774-7.424Z" transform="translate(-611.412 -164.229)" fill="#12263f"/>
        </g>
        <g id="Grupo_55282" data-name="Grupo 55282" transform="translate(6.717 3.416)">
          <g id="Grupo_55279" data-name="Grupo 55279" transform="translate(0 13.705)">
            <path id="Trazado_101754" data-name="Trazado 101754" d="M652.781,244.227l-6.717,3.416-4.614-9.075,6.715-3.416Z" transform="translate(-640.523 -234.226)" fill="#fed55f"/>
            <path id="Trazado_101755" data-name="Trazado 101755" d="M643.35,245.857a.926.926,0,0,1-.826-.507l-4.614-9.075a.927.927,0,0,1,.406-1.246l6.715-3.416a.926.926,0,0,1,1.246.406l4.617,9.075a.927.927,0,0,1-.406,1.246l-6.717,3.416A.924.924,0,0,1,643.35,245.857Zm-3.369-9.6,3.775,7.424,5.065-2.576-3.776-7.424Z" transform="translate(-637.809 -231.513)" fill="#12263f"/>
          </g>
          <path id="Trazado_101756" data-name="Trazado 101756" d="M705.726,217.305l-6.715,3.413-4.616-9.072,6.717-3.416Z" transform="translate(-679.996 -200.449)" fill="#fed55f"/>
          <path id="Trazado_101757" data-name="Trazado 101757" d="M696.3,218.931a.926.926,0,0,1-.826-.506l-4.616-9.071a.926.926,0,0,1,.406-1.246l6.717-3.416a.926.926,0,0,1,1.246.406l4.614,9.075a.926.926,0,0,1-.406,1.246l-6.715,3.413A.924.924,0,0,1,696.3,218.931Zm-3.371-9.592,3.776,7.421,5.063-2.574-3.774-7.423Z" transform="translate(-677.281 -197.736)" fill="#12263f"/>
          <rect id="Rectángulo_5568" data-name="Rectángulo 5568" width="7.536" height="10.182" transform="matrix(0.891, -0.453, 0.453, 0.891, 27.872, 4.342)" fill="#fed55f"/>
          <path id="Trazado_101758" data-name="Trazado 101758" d="M749.242,192a.926.926,0,0,1-.826-.507l-4.617-9.075a.926.926,0,0,1,.406-1.246l6.717-3.416a.926.926,0,0,1,1.246.406l4.617,9.075a.927.927,0,0,1-.406,1.246l-6.717,3.416A.926.926,0,0,1,749.242,192Zm-3.371-9.6,3.777,7.424,5.065-2.576-3.776-7.424Z" transform="translate(-716.753 -177.653)" fill="#12263f"/>
        </g>
      </g>
      <g id="Grupo_55286" data-name="Grupo 55286" transform="translate(20.428 38.784)">
        <g id="Grupo_55284" data-name="Grupo 55284">
          <path id="Trazado_101759" data-name="Trazado 101759" d="M714.449,329.843a9.56,9.56,0,1,1-9.56-9.559A9.559,9.559,0,0,1,714.449,329.843Z" transform="translate(-694.404 -319.357)" fill="#fff"/>
          <path id="Trazado_101760" data-name="Trazado 101760" d="M702.175,337.617a10.487,10.487,0,1,1,10.486-10.488A10.5,10.5,0,0,1,702.175,337.617Zm0-19.121a8.634,8.634,0,1,0,8.633,8.633A8.643,8.643,0,0,0,702.175,318.5Z" transform="translate(-691.689 -316.643)" fill="#12263f"/>
        </g>
        <g id="Grupo_55285" data-name="Grupo 55285" transform="translate(6.508 4.405)">
          <path id="Trazado_101761" data-name="Trazado 101761" d="M720.907,342.75V337.6l4.464,2.577,4.464,2.577-4.464,2.579-4.464,2.577Z" transform="translate(-719.98 -336.669)" fill="#bfeffc"/>
          <path id="Trazado_101762" data-name="Trazado 101762" d="M718.193,346.118a.926.926,0,0,1-.927-.927v-10.31a.926.926,0,0,1,1.39-.8l8.929,5.154a.926.926,0,0,1,0,1.6l-8.929,5.156A.926.926,0,0,1,718.193,346.118Zm.926-9.632v7.1l6.15-3.551Z" transform="translate(-717.266 -333.955)" fill="#12263f"/>
        </g>
      </g>
    </g>
  </g>
</svg>
