<svg xmlns="http://www.w3.org/2000/svg" width="85" height="85.003" viewBox="0 0 85 85.003">
  <g id="Grupo_57187" data-name="Grupo 57187" transform="translate(-120.322 -1478.867)">
    <path id="Trazado_101695" data-name="Trazado 101695" d="M205.322,1552.339a11.53,11.53,0,0,1-11.529,11.532H131.851a11.532,11.532,0,0,1-11.529-11.532V1490.4a11.532,11.532,0,0,1,11.529-11.532h61.941a11.53,11.53,0,0,1,11.529,11.532Z" fill="#01549e"/>
    <g id="Grupo_55260" data-name="Grupo 55260" transform="translate(129.992 1495.209)">
      <g id="Grupo_55253" data-name="Grupo 55253" transform="translate(0 11.679)">
        <path id="Trazado_101696" data-name="Trazado 101696" d="M225.954,1626.36a6.076,6.076,0,0,1-6.079,6.081H167.917a6.079,6.079,0,0,1-6.079-6.081v-26.933a6.079,6.079,0,0,1,6.079-6.081h51.958a6.076,6.076,0,0,1,6.079,6.081Z" transform="translate(-161.066 -1592.574)" fill="#fed55f"/>
        <path id="Trazado_101697" data-name="Trazado 101697" d="M217.577,1630.914H165.619a6.86,6.86,0,0,1-6.851-6.853v-26.933a6.86,6.86,0,0,1,6.851-6.853h51.958a6.86,6.86,0,0,1,6.851,6.853v26.933A6.86,6.86,0,0,1,217.577,1630.914Zm-51.958-39.095a5.313,5.313,0,0,0-5.307,5.309v26.933a5.314,5.314,0,0,0,5.307,5.309h51.958a5.314,5.314,0,0,0,5.307-5.309v-26.933a5.313,5.313,0,0,0-5.307-5.309Z" transform="translate(-158.768 -1590.275)" fill="#12263f"/>
      </g>
      <path id="Trazado_101698" data-name="Trazado 101698" d="M219.875,1593.346H213.51a30.141,30.141,0,0,1,.2,3.432,30.371,30.371,0,0,1-51.847,21.474.244.244,0,0,1-.027-.031v8.14a6.079,6.079,0,0,0,6.079,6.081h51.958a6.076,6.076,0,0,0,6.079-6.081v-26.933A6.076,6.076,0,0,0,219.875,1593.346Z" transform="translate(-161.066 -1580.894)" fill="#fed55f" style="mix-blend-mode: multiply;isolation: isolate"/>
      <g id="Grupo_55254" data-name="Grupo 55254" transform="translate(17.184 0)">
        <path id="Trazado_101699" data-name="Trazado 101699" d="M259.908,1558.589H230.16l4.408-11.68H255.5Z" transform="translate(-229.388 -1546.137)" fill="#fed55f"/>
        <path id="Trazado_101700" data-name="Trazado 101700" d="M257.61,1557.064H227.862a.772.772,0,0,1-.722-1.045l4.408-11.68a.772.772,0,0,1,.723-.5H253.2a.772.772,0,0,1,.722.5l4.406,11.68a.772.772,0,0,1-.722,1.045Zm-28.631-1.544h27.514l-3.823-10.135H232.8Z" transform="translate(-227.09 -1543.84)" fill="#12263f"/>
      </g>
      <g id="Grupo_55255" data-name="Grupo 55255" transform="translate(22.384 2.992)">
        <path id="Trazado_101701" data-name="Trazado 101701" d="M270.182,1564.5H250.834l2.321-5.7h14.711Z" transform="translate(-250.062 -1558.033)" fill="#bfeffc"/>
        <path id="Trazado_101702" data-name="Trazado 101702" d="M267.884,1562.976H248.536a.772.772,0,0,1-.715-1.063l2.321-5.7a.772.772,0,0,1,.715-.481h14.711a.772.772,0,0,1,.715.481l2.316,5.7a.772.772,0,0,1-.715,1.063Zm-18.2-1.544h17.052l-1.688-4.152H251.376Z" transform="translate(-247.764 -1555.736)" fill="#12263f"/>
      </g>
      <g id="Grupo_55256" data-name="Grupo 55256" transform="translate(15.794 14.963)">
        <path id="Trazado_101703" data-name="Trazado 101703" d="M257.161,1622.666A16.264,16.264,0,1,1,240.9,1606.4,16.261,16.261,0,0,1,257.161,1622.666Z" transform="translate(-223.861 -1605.629)" fill="#bfeffc"/>
        <path id="Trazado_101704" data-name="Trazado 101704" d="M238.6,1637.4a17.036,17.036,0,1,1,17.035-17.035A17.055,17.055,0,0,1,238.6,1637.4Zm0-32.527a15.492,15.492,0,1,0,15.491,15.493A15.51,15.51,0,0,0,238.6,1604.876Z" transform="translate(-221.563 -1603.332)" fill="#12263f"/>
      </g>
      <path id="Trazado_101705" data-name="Trazado 101705" d="M257.386,1680.1a16.261,16.261,0,0,0,24.29-14.143,16.706,16.706,0,0,0-.09-1.719,30.307,30.307,0,0,1-24.2,15.861Z" transform="translate(-232.582 -1633.954)" fill="#bfeffc" style="mix-blend-mode: multiply;isolation: isolate"/>
      <g id="Grupo_55257" data-name="Grupo 55257" transform="translate(21.229 20.398)">
        <path id="Trazado_101706" data-name="Trazado 101706" d="M267.9,1638.84a10.829,10.829,0,1,1-10.828-10.83A10.828,10.828,0,0,1,267.9,1638.84Z" transform="translate(-245.47 -1627.238)" fill="#7ccdf5"/>
        <path id="Trazado_101707" data-name="Trazado 101707" d="M254.774,1648.143a11.6,11.6,0,1,1,11.6-11.6A11.614,11.614,0,0,1,254.774,1648.143Zm0-21.658a10.057,10.057,0,1,0,10.056,10.058A10.069,10.069,0,0,0,254.774,1626.485Z" transform="translate(-243.172 -1624.941)" fill="#12263f"/>
      </g>
      <g id="Grupo_55258" data-name="Grupo 55258" transform="translate(4.756 16.428)">
        <path id="Trazado_101708" data-name="Trazado 101708" d="M190.331,1614.1a1.878,1.878,0,0,1-1.879,1.877h-5.83a1.878,1.878,0,0,1-1.877-1.877h0a1.877,1.877,0,0,1,1.877-1.878h5.83a1.878,1.878,0,0,1,1.879,1.878Z" transform="translate(-179.974 -1611.455)" fill="#01549e"/>
        <path id="Trazado_101709" data-name="Trazado 101709" d="M186.155,1614.456h-5.83a2.649,2.649,0,0,1,0-5.3h5.83a2.649,2.649,0,1,1,0,5.3Zm-5.83-3.755a1.105,1.105,0,0,0,0,2.211h5.83a1.105,1.105,0,1,0,0-2.211Z" transform="translate(-177.676 -1609.157)" fill="#12263f"/>
      </g>
      <g id="Grupo_55259" data-name="Grupo 55259" transform="translate(50.811 8.169)">
        <rect id="Rectángulo_5565" data-name="Rectángulo 5565" width="7.049" height="3.51" transform="translate(0.772 0.772)" fill="#bfeffc"/>
        <path id="Trazado_101710" data-name="Trazado 101710" d="M368.606,1581.374h-7.05a.772.772,0,0,1-.772-.772v-3.51a.772.772,0,0,1,.772-.772h7.05a.772.772,0,0,1,.772.772v3.51A.772.772,0,0,1,368.606,1581.374Zm-6.277-1.544h5.505v-1.966h-5.505Z" transform="translate(-360.785 -1576.32)" fill="#12263f"/>
      </g>
      <path id="Trazado_101711" data-name="Trazado 101711" d="M255.522,1547.123a16.284,16.284,0,0,1-14.357,8.867,15.931,15.931,0,0,1-8.926-2.755l-2.079,5.514h29.747Z" transform="translate(-212.204 -1546.297)" fill="#fed55f" style="mix-blend-mode: multiply;isolation: isolate"/>
    </g>
  </g>
</svg>
