<svg xmlns="http://www.w3.org/2000/svg" width="85" height="84.998" viewBox="0 0 85 84.998">
  <g id="Grupo_57186" data-name="Grupo 57186" transform="translate(-989.462 -577.553)">
    <path id="Trazado_101667" data-name="Trazado 101667" d="M1074.462,651.022a11.529,11.529,0,0,1-11.529,11.529h-61.94a11.53,11.53,0,0,1-11.531-11.529V589.083a11.53,11.53,0,0,1,11.531-11.53h61.94a11.53,11.53,0,0,1,11.529,11.53Z" fill="#01549e"/>
    <g id="Grupo_55238" data-name="Grupo 55238" transform="translate(999.437 594.135)">
      <g id="Grupo_55227" data-name="Grupo 55227" transform="translate(8.004)">
        <rect id="Rectángulo_5555" data-name="Rectángulo 5555" width="47.835" height="33.427" transform="translate(0.601 0.6)" fill="#fed55f"/>
        <path id="Trazado_101668" data-name="Trazado 101668" d="M1109.386,678.112h-47.835a.6.6,0,0,1-.6-.6V644.085a.6.6,0,0,1,.6-.6h47.835a.6.6,0,0,1,.6.6v33.427A.6.6,0,0,1,1109.386,678.112Zm-47.234-1.2h46.634V644.685h-46.634Z" transform="translate(-1060.951 -643.484)" fill="#12263f"/>
      </g>
      <path id="Trazado_101669" data-name="Trazado 101669" d="M1105.685,645.871a24.436,24.436,0,0,1,.375,4.269,24.7,24.7,0,0,1-42.167,17.466c-.186-.188-.372-.381-.554-.576V679.3h47.835V645.871Z" transform="translate(-1054.734 -645.271)" fill="#fed55f" style="mix-blend-mode: multiply;isolation: isolate"/>
      <g id="Grupo_55228" data-name="Grupo 55228" transform="translate(11.41 4.579)">
        <rect id="Rectángulo_5556" data-name="Rectángulo 5556" width="41.028" height="26.07" transform="translate(0.6 0.6)" fill="#bfeffc"/>
        <path id="Trazado_101670" data-name="Trazado 101670" d="M1116.121,688.963h-41.028a.6.6,0,0,1-.6-.6v-26.07a.6.6,0,0,1,.6-.6h41.028a.6.6,0,0,1,.6.6v26.07A.6.6,0,0,1,1116.121,688.963Zm-40.427-1.2h39.827V662.893h-39.827Z" transform="translate(-1074.493 -661.692)" fill="#12263f"/>
      </g>
      <path id="Trazado_101671" data-name="Trazado 101671" d="M1108.962,681.235a24.679,24.679,0,0,1-32.082,2.439v6.475h41.028v-26.07h-1.715A24.8,24.8,0,0,1,1108.962,681.235Z" transform="translate(-1064.869 -658.899)" fill="#7ccdf5" style="mix-blend-mode: multiply;isolation: isolate"/>
      <g id="Grupo_55229" data-name="Grupo 55229" transform="translate(26.82 2.26)">
        <path id="Trazado_101672" data-name="Trazado 101672" d="M1146.57,653.671h-10.206a.6.6,0,0,1,0-1.2h10.206a.6.6,0,1,1,0,1.2Z" transform="translate(-1135.764 -652.47)" fill="#12263f"/>
      </g>
      <g id="Grupo_55230" data-name="Grupo 55230" transform="translate(0 33.427)">
        <path id="Trazado_101673" data-name="Trazado 101673" d="M1095.361,792.183h-63.848l8-13.4h47.835Z" transform="translate(-1030.913 -778.18)" fill="#fed55f"/>
        <path id="Trazado_101674" data-name="Trazado 101674" d="M1093.574,791h-63.848a.6.6,0,0,1-.516-.908l8-13.4a.6.6,0,0,1,.516-.293h47.835a.6.6,0,0,1,.516.293l8.009,13.4a.6.6,0,0,1-.516.908Zm-62.79-1.2h61.732l-7.291-12.2h-47.153Z" transform="translate(-1029.126 -776.393)" fill="#12263f"/>
      </g>
      <path id="Trazado_101675" data-name="Trazado 101675" d="M1087.352,778.781h-5.832c-1.839,1.581-3.823,3.021-5.737,4.427a14.633,14.633,0,0,1-2.87,1.669c-2.65,1.144-5.892,2.888-8.975,3.36-1.231.19-2.486.4-3.755.586a24.663,24.663,0,0,1-4.888.494c-.054,0-.11,0-.164,0-.475.015-.946.017-1.415,0a24.61,24.61,0,0,1-12.468-3.373q-2.055-1.589-4.112-3.177l-5.623,9.416h63.848Z" transform="translate(-1030.912 -744.753)" fill="#fed55f" style="mix-blend-mode: multiply;isolation: isolate"/>
      <g id="Grupo_55233" data-name="Grupo 55233" transform="translate(7.637 35.233)">
        <g id="Grupo_55231" data-name="Grupo 55231">
          <path id="Trazado_101676" data-name="Trazado 101676" d="M1110.943,791.391l-3.186-5.429h-42.692l-3.188,5.429Z" transform="translate(-1061.276 -785.361)" fill="#bfeffc"/>
          <path id="Trazado_101677" data-name="Trazado 101677" d="M1109.156,790.2H1060.09a.6.6,0,0,1-.518-.9l3.188-5.429a.6.6,0,0,1,.518-.3h42.692a.6.6,0,0,1,.518.3l3.186,5.429a.6.6,0,0,1-.518.9Zm-48.017-1.2h46.968l-2.481-4.228h-42Z" transform="translate(-1059.489 -783.574)" fill="#12263f"/>
        </g>
        <g id="Grupo_55232" data-name="Grupo 55232" transform="translate(15.636 7.075)">
          <path id="Trazado_101678" data-name="Trazado 101678" d="M1141.842,816.806h-17.793l1.592-2.714h14.609Z" transform="translate(-1123.448 -813.491)" fill="#bfeffc"/>
          <path id="Trazado_101679" data-name="Trazado 101679" d="M1140.055,815.619h-17.793a.6.6,0,0,1-.518-.9l1.592-2.714a.6.6,0,0,1,.518-.3h14.61a.6.6,0,0,1,.518.3l1.592,2.714a.6.6,0,0,1-.518.9Zm-16.745-1.2h15.7l-.888-1.513H1124.2Z" transform="translate(-1121.661 -811.704)" fill="#12263f"/>
        </g>
      </g>
      <g id="Grupo_55234" data-name="Grupo 55234" transform="translate(0 46.829)">
        <rect id="Rectángulo_5557" data-name="Rectángulo 5557" width="63.848" height="3.803" transform="translate(0.601 0.6)" fill="#fed55f"/>
        <path id="Trazado_101680" data-name="Trazado 101680" d="M1093.574,834.685h-63.848a.6.6,0,0,1-.6-.6v-3.8a.6.6,0,0,1,.6-.6h63.848a.6.6,0,0,1,.6.6v3.8A.6.6,0,0,1,1093.574,834.685Zm-63.247-1.2h62.647v-2.6h-62.647Z" transform="translate(-1029.125 -829.681)" fill="#12263f"/>
      </g>
      <g id="Grupo_55237" data-name="Grupo 55237" transform="translate(23.242 8.932)">
        <g id="Grupo_55235" data-name="Grupo 55235">
          <path id="Trazado_101681" data-name="Trazado 101681" d="M1141.286,690.068a8.681,8.681,0,1,1-8.681-8.681A8.678,8.678,0,0,1,1141.286,690.068Z" transform="translate(-1123.323 -680.787)" fill="#fff"/>
          <path id="Trazado_101682" data-name="Trazado 101682" d="M1130.818,697.563a9.281,9.281,0,1,1,9.282-9.281A9.292,9.292,0,0,1,1130.818,697.563Zm0-17.362a8.08,8.08,0,1,0,8.081,8.081A8.09,8.09,0,0,0,1130.818,680.2Z" transform="translate(-1121.536 -679)" fill="#12263f"/>
        </g>
        <g id="Grupo_55236" data-name="Grupo 55236" transform="translate(5.91 4.001)">
          <path id="Trazado_101683" data-name="Trazado 101683" d="M1147.423,701.976V697.3l4.054,2.342,4.054,2.339-4.054,2.34-4.054,2.342Z" transform="translate(-1146.822 -696.695)" fill="#01549e"/>
        </g>
      </g>
    </g>
  </g>
</svg>
