<svg xmlns="http://www.w3.org/2000/svg" width="109.42" height="109.42" viewBox="0 0 109.42 109.42">
  <g id="Grupo_58562" data-name="Grupo 58562" transform="translate(-286.201 -716.105)">
    <circle id="Elipse_4182" data-name="Elipse 4182" cx="54.71" cy="54.71" r="54.71" transform="translate(286.201 716.105)" fill="#8ecae4"/>
    <g id="storyboard_2_" data-name="storyboard (2)" transform="translate(305.333 690.36)">
      <path id="Trazado_103007" data-name="Trazado 103007" d="M71.6,64.408a1.066,1.066,0,0,0,1.066-1.066v-3.8a3.819,3.819,0,0,0-3.815-3.815H3.815A3.819,3.819,0,0,0,0,59.543v41.5a3.819,3.819,0,0,0,3.815,3.815H49.55v4.517a3.2,3.2,0,0,0,3.2,3.2h5.81a3.2,3.2,0,0,0,3.2-3.2v-4.517h7.1a3.819,3.819,0,0,0,3.815-3.815V68.47a1.066,1.066,0,0,0-2.132,0V79.228h-10.6l-1.9-5.54a2.518,2.518,0,0,0-4.763,0L49.7,84.047a2.779,2.779,0,0,0-.153.889v4.243H37.032V81.361h9.092a1.066,1.066,0,1,0,0-2.132H37.032V57.86h31.82a1.685,1.685,0,0,1,1.683,1.683v3.8A1.066,1.066,0,0,0,71.6,64.408ZM8.161,102.729a10.5,10.5,0,1,1,20.8,0ZM53.537,79.485h4.232l1.518,4.385H52.02ZM59.624,86v19.092H51.682V86Zm-1.066,24.442h-5.81a1.067,1.067,0,0,1-1.066-1.066v-2.151h7.943v2.151a1.067,1.067,0,0,1-1.066,1.066Zm11.977-9.4a1.685,1.685,0,0,1-1.683,1.683h-7.1V91.311h8.778Zm0-19.685v7.818H61.756V84.926a2.764,2.764,0,0,0-.152-.879l-.93-2.686ZM55.289,74.38a.385.385,0,0,1,.729,0l1.019,2.973H54.27ZM49.55,91.31v11.418H37.032V91.31ZM34.9,79.228H20.719A12.24,12.24,0,0,1,32.9,68.072h2Zm0-13.289h-2A14.374,14.374,0,0,0,18.581,79.228H11.649a1.066,1.066,0,1,0,0,2.132H34.9v21.368H31.111a12.634,12.634,0,1,0-25.1,0h-2.2a1.685,1.685,0,0,1-1.683-1.683V81.361H6.215a1.066,1.066,0,0,0,0-2.132H2.132V59.543A1.685,1.685,0,0,1,3.815,57.86H34.9Z" transform="translate(0 0)" fill="#fff"/>
      <path id="Trazado_103008" data-name="Trazado 103008" d="M59.461,114.16a4.648,4.648,0,1,0-4.648-4.648A4.653,4.653,0,0,0,59.461,114.16Zm0-7.164a2.516,2.516,0,1,1-2.516,2.516A2.519,2.519,0,0,1,59.461,107Z" transform="translate(-47.034 -42.162)" fill="#fff"/>
      <path id="Trazado_103009" data-name="Trazado 103009" d="M287.773,86.536a5.986,5.986,0,1,0-2.1,7.848,4.646,4.646,0,1,0,2.1-7.848Zm-9.142,2.79a3.851,3.851,0,1,1,3.851,3.851A3.855,3.855,0,0,1,278.631,89.325Zm12.787,1.719a2.515,2.515,0,0,1-4.171,1.894,5.951,5.951,0,0,0,1.218-3.613,6.015,6.015,0,0,0-.048-.749,2.514,2.514,0,0,1,3,2.468Z" transform="translate(-237.256 -23.695)" fill="#fff"/>
    </g>
  </g>
</svg>
