<svg xmlns="http://www.w3.org/2000/svg" width="109.42" height="109.42" viewBox="0 0 109.42 109.42">
  <g id="Grupo_58415" data-name="Grupo 58415" transform="translate(-409.201 -2893.105)">
    <circle id="Elipse_4182" data-name="Elipse 4182" cx="54.71" cy="54.71" r="54.71" transform="translate(409.201 2893.105)" fill="#fff"/>
    <g id="Grupo_58414" data-name="Grupo 58414" transform="translate(-4 0)">
      <g id="storyboard_3_" data-name="storyboard (3)" transform="translate(432.333 2866.181)">
        <g id="Grupo_57234" data-name="Grupo 57234" transform="translate(1.066 56.794)">
          <path id="Trazado_103046" data-name="Trazado 103046" d="M75.3,110.241H10.257A2.745,2.745,0,0,1,7.512,107.5V65.985a2.745,2.745,0,0,1,2.745-2.745H75.3a2.745,2.745,0,0,1,2.745,2.745V107.5A2.745,2.745,0,0,1,75.3,110.241Z" transform="translate(-7.512 -63.24)" fill="#f1f4f6"/>
        </g>
        <g id="Grupo_57235" data-name="Grupo 57235" transform="translate(1.066 56.794)">
          <path id="Trazado_103047" data-name="Trazado 103047" d="M75.3,63.24H73.062v39.268a2.749,2.749,0,0,1-2.749,2.749H7.512v2.235a2.749,2.749,0,0,0,2.749,2.749H75.3a2.749,2.749,0,0,0,2.749-2.749v-41.5A2.749,2.749,0,0,0,75.3,63.24Z" transform="translate(-7.512 -63.24)" fill="#dfeaef"/>
        </g>
        <g id="Grupo_57236" data-name="Grupo 57236" transform="translate(8.846 63.768)">
          <circle id="Elipse_4189" data-name="Elipse 4189" cx="3.582" cy="3.582" r="3.582" fill="#cbafea"/>
        </g>
        <g id="Grupo_57237" data-name="Grupo 57237" transform="translate(48.064 63.768)">
          <circle id="Elipse_4190" data-name="Elipse 4190" cx="3.582" cy="3.582" r="3.582" fill="#cbafea"/>
        </g>
        <g id="Grupo_57238" data-name="Grupo 57238" transform="translate(19.607 67.006)">
          <path id="Trazado_103048" data-name="Trazado 103048" d="M151.417,135.188h3.091v13.289H138.149v-.021a13.268,13.268,0,0,1,13.268-13.268Z" transform="translate(-138.149 -135.188)" fill="#ffe07d"/>
        </g>
        <g id="Grupo_57239" data-name="Grupo 57239" transform="translate(35.966 90.244)">
          <path id="Trazado_103049" data-name="Trazado 103049" d="M253.413,298.924v13.55H286.3a2.749,2.749,0,0,0,2.749-2.749v-10.8Z" transform="translate(-253.413 -298.924)" fill="#cbafea"/>
        </g>
        <g id="Grupo_57240" data-name="Grupo 57240" transform="translate(35.966 90.244)">
          <path id="Trazado_103050" data-name="Trazado 103050" d="M289.047,309.726v-10.8h-4.984v5.817a2.749,2.749,0,0,1-2.749,2.749h-27.9v4.984H286.3A2.749,2.749,0,0,0,289.047,309.726Z" transform="translate(-253.412 -298.924)" fill="#bc95e2"/>
        </g>
        <g id="Grupo_57241" data-name="Grupo 57241" transform="translate(40.309 60.713)">
          <circle id="Elipse_4191" data-name="Elipse 4191" cx="4.917" cy="4.917" r="4.917" fill="#ffe07d"/>
        </g>
        <g id="Grupo_57242" data-name="Grupo 57242" transform="translate(6.993 89.71)">
          <path id="Trazado_103051" data-name="Trazado 103051" d="M60.841,295.162a11.565,11.565,0,0,0-11.29,14.085H72.132a11.565,11.565,0,0,0-11.291-14.085Z" transform="translate(-49.273 -295.162)" fill="#ffe07d"/>
        </g>
        <g id="Grupo_57243" data-name="Grupo 57243" transform="translate(6.993 98.811)">
          <path id="Trazado_103052" data-name="Trazado 103052" d="M72.132,364.265a11.548,11.548,0,0,0,.011-4.984H49.54a11.548,11.548,0,0,0,.011,4.984Z" transform="translate(-49.273 -359.281)" fill="#ffd064"/>
        </g>
        <g id="Grupo_57244" data-name="Grupo 57244" transform="translate(50.616 103.999)">
          <path id="Trazado_103053" data-name="Trazado 103053" d="M358.761,403.351h5.81a2.132,2.132,0,0,0,2.132-2.132V398l-.711-2.161H357.34L356.629,398v3.217A2.132,2.132,0,0,0,358.761,403.351Z" transform="translate(-356.629 -395.84)" fill="#f1f4f6"/>
        </g>
        <g id="Grupo_57245" data-name="Grupo 57245" transform="translate(50.616 103.999)">
          <path id="Trazado_103054" data-name="Trazado 103054" d="M356.63,401.219v-1.282h4.824a2.132,2.132,0,0,0,2.132-2.132V395.84h2.408L366.7,398v3.217a2.132,2.132,0,0,1-2.132,2.132h-5.81A2.132,2.132,0,0,1,356.63,401.219Z" transform="translate(-356.63 -395.84)" fill="#dfeaef"/>
        </g>
        <g id="Grupo_57246" data-name="Grupo 57246" transform="translate(50.616 84.379)">
          <path id="Trazado_103055" data-name="Trazado 103055" d="M366.7,258.157l-.52-.557H357.15l-.52.556v21.225H366.7Z" transform="translate(-356.63 -257.6)" fill="#407093"/>
        </g>
        <g id="Grupo_57247" data-name="Grupo 57247" transform="translate(57.502 84.379)">
          <path id="Trazado_103056" data-name="Trazado 103056" d="M407.819,257.6h-2.668a1.71,1.71,0,0,1,.07.464v21.12c0,.067,0,.132-.01.2h3.128V258.157Z" transform="translate(-405.151 -257.6)" fill="#365e7d"/>
        </g>
        <g id="Grupo_57248" data-name="Grupo 57248" transform="translate(50.616 77.793)">
          <path id="Trazado_103057" data-name="Trazado 103057" d="M356.63,218.339a1.7,1.7,0,0,1,.095-.54l2.067-5.977.642-.625H363.9l.64.625,2.069,5.977a1.707,1.707,0,0,1,.093.541Z" transform="translate(-356.63 -211.197)" fill="#ffcbbe"/>
        </g>
        <g id="Grupo_57249" data-name="Grupo 57249" transform="translate(55.228 77.794)">
          <path id="Trazado_103058" data-name="Trazado 103058" d="M391.47,218.248a1.7,1.7,0,0,0-.093-.541l-2.069-5.977-.182-.532h2.66l.64.625L394.5,217.8a1.708,1.708,0,0,1,.093.541H391.47Z" transform="translate(-389.126 -211.198)" fill="#eaac9d"/>
        </g>
        <g id="Grupo_57250" data-name="Grupo 57250" transform="translate(52.778 73.053)">
          <path id="Trazado_103059" data-name="Trazado 103059" d="M371.862,183.163l1.5-4.384a1.451,1.451,0,0,1,2.746,0l1.5,4.384Z" transform="translate(-371.862 -177.798)" fill="#407093"/>
        </g>
        <g id="Grupo_57251" data-name="Grupo 57251" transform="translate(54.11 73.053)">
          <path id="Trazado_103060" data-name="Trazado 103060" d="M382.549,183.071l-1.3-3.795.17-.5a1.451,1.451,0,0,1,2.746,0l1.5,4.384h-3.086Z" transform="translate(-381.249 -177.799)" fill="#365e7d"/>
        </g>
        <g id="Grupo_57252" data-name="Grupo 57252" transform="translate(0 55.728)">
          <path id="Trazado_103061" data-name="Trazado 103061" d="M71.6,64.408a1.066,1.066,0,0,0,1.066-1.066v-3.8a3.819,3.819,0,0,0-3.815-3.815H3.815A3.819,3.819,0,0,0,0,59.543v41.5a3.819,3.819,0,0,0,3.815,3.815H49.55v4.517a3.2,3.2,0,0,0,3.2,3.2h5.81a3.2,3.2,0,0,0,3.2-3.2v-4.517h7.1a3.819,3.819,0,0,0,3.815-3.815V68.47a1.066,1.066,0,1,0-2.132,0V79.228h-10.6l-1.9-5.54a2.518,2.518,0,0,0-4.763,0L49.7,84.047a2.779,2.779,0,0,0-.153.889v4.243H37.032V81.361h9.092a1.066,1.066,0,0,0,0-2.132H37.032V57.86h31.82a1.685,1.685,0,0,1,1.683,1.683v3.8A1.066,1.066,0,0,0,71.6,64.408ZM8.161,102.729a10.5,10.5,0,1,1,20.8,0ZM53.537,79.485h4.232l1.518,4.385H52.02ZM59.624,86v19.092H51.682V86Zm-1.066,24.442h-5.81a1.067,1.067,0,0,1-1.066-1.066v-2.151h7.943v2.151a1.067,1.067,0,0,1-1.066,1.066Zm11.977-9.4a1.685,1.685,0,0,1-1.683,1.683h-7.1V91.311h8.778Zm0-19.685v7.818H61.756V84.926a2.764,2.764,0,0,0-.152-.879l-.93-2.686ZM55.289,74.38a.385.385,0,0,1,.729,0l1.019,2.973H54.27ZM49.55,91.31v11.418H37.032V91.31ZM34.9,79.228H20.719A12.24,12.24,0,0,1,32.9,68.072h2Zm0-13.289h-2A14.374,14.374,0,0,0,18.581,79.228H11.649a1.066,1.066,0,1,0,0,2.132H34.9v21.368H31.111a12.634,12.634,0,1,0-25.1,0h-2.2a1.685,1.685,0,0,1-1.683-1.683V81.361H6.215a1.066,1.066,0,1,0,0-2.132H2.132V59.543A1.685,1.685,0,0,1,3.815,57.86H34.9Z" transform="translate(0 -55.728)"/>
          <path id="Trazado_103062" data-name="Trazado 103062" d="M59.461,114.16a4.648,4.648,0,1,0-4.648-4.648A4.653,4.653,0,0,0,59.461,114.16Zm0-7.164a2.516,2.516,0,1,1-2.516,2.516A2.519,2.519,0,0,1,59.461,107Z" transform="translate(-47.034 -97.89)"/>
          <path id="Trazado_103063" data-name="Trazado 103063" d="M287.773,86.536a5.986,5.986,0,1,0-2.1,7.848,4.646,4.646,0,1,0,2.1-7.848Zm-9.142,2.79a3.851,3.851,0,1,1,3.851,3.851A3.855,3.855,0,0,1,278.631,89.325Zm12.787,1.719a2.515,2.515,0,0,1-4.171,1.894,5.94,5.94,0,0,0,1.17-4.362,2.514,2.514,0,0,1,3,2.468Z" transform="translate(-237.256 -79.423)"/>
        </g>
      </g>
    </g>
  </g>
</svg>
