<svg xmlns="http://www.w3.org/2000/svg" width="85" height="84.999" viewBox="0 0 85 84.999">
  <g id="Grupo_57192" data-name="Grupo 57192" transform="translate(-1418.492 -123.928)">
    <path id="Trazado_101712" data-name="Trazado 101712" d="M1503.492,197.4a11.531,11.531,0,0,1-11.531,11.53h-61.936a11.532,11.532,0,0,1-11.533-11.53V135.459a11.532,11.532,0,0,1,11.533-11.531h61.936a11.532,11.532,0,0,1,11.531,11.531Z" fill="#01549e"/>
    <g id="Grupo_55270" data-name="Grupo 55270" transform="translate(1441.919 133.623)">
      <g id="Grupo_55262" data-name="Grupo 55262" transform="translate(0 0)">
        <path id="Trazado_101713" data-name="Trazado 101713" d="M1551.371,225.82a3.849,3.849,0,0,1-3.85,3.848h-28.849a3.847,3.847,0,0,1-3.848-3.848V169.512a3.848,3.848,0,0,1,3.848-3.85h28.849a3.85,3.85,0,0,1,3.85,3.85Z" transform="translate(-1514.023 -164.86)" fill="#fed55f"/>
        <path id="Trazado_101714" data-name="Trazado 101714" d="M1545.136,228.083h-28.849a4.654,4.654,0,0,1-4.649-4.649V167.126a4.655,4.655,0,0,1,4.649-4.651h28.849a4.657,4.657,0,0,1,4.651,4.651v56.308A4.655,4.655,0,0,1,1545.136,228.083Zm-28.849-64.005a3.05,3.05,0,0,0-3.046,3.048v56.308a3.049,3.049,0,0,0,3.046,3.046h28.849a3.05,3.05,0,0,0,3.048-3.046V167.126a3.051,3.051,0,0,0-3.048-3.048Z" transform="translate(-1511.638 -162.475)" fill="#12263f"/>
      </g>
      <path id="Trazado_101715" data-name="Trazado 101715" d="M1547.521,165.662h-6.376a32.872,32.872,0,0,1-24.793,54.456c-.509,0-1.018-.015-1.527-.038v5.74a3.847,3.847,0,0,0,3.848,3.848h28.849a3.849,3.849,0,0,0,3.85-3.848V169.512A3.85,3.85,0,0,0,1547.521,165.662Z" transform="translate(-1514.023 -164.86)" fill="#fed55f" style="mix-blend-mode: multiply;isolation: isolate"/>
      <g id="Grupo_55263" data-name="Grupo 55263" transform="translate(3.688 6.634)">
        <rect id="Rectángulo_5566" data-name="Rectángulo 5566" width="29.127" height="48.436" transform="translate(0.822 0.822)" fill="#bfeffc"/>
        <path id="Trazado_101716" data-name="Trazado 101716" d="M1556.252,238.933h-29.127a.822.822,0,0,1-.822-.822V189.676a.822.822,0,0,1,.822-.822h29.127a.821.821,0,0,1,.822.822v48.436A.822.822,0,0,1,1556.252,238.933Zm-28.305-1.644h27.483V190.5h-27.483Z" transform="translate(-1526.303 -188.854)" fill="#12263f"/>
      </g>
      <g id="Grupo_55264" data-name="Grupo 55264" transform="translate(4.51 7.456)" style="mix-blend-mode: multiply;isolation: isolate">
        <path id="Trazado_101717" data-name="Trazado 101717" d="M1558.7,291.159a32.825,32.825,0,0,1-29.127,22.817v.711H1558.7Z" transform="translate(-1529.57 -266.25)" fill="#bfeffc"/>
        <path id="Trazado_101718" data-name="Trazado 101718" d="M1639.329,197.068v-4.947H1637.3A32.962,32.962,0,0,1,1639.329,197.068Z" transform="translate(-1610.202 -192.121)" fill="#7ccdf5"/>
      </g>
      <g id="Grupo_55267" data-name="Grupo 55267" transform="translate(8.458 19.886)">
        <g id="Grupo_55265" data-name="Grupo 55265">
          <path id="Trazado_101719" data-name="Trazado 101719" d="M1567.855,254.2a9.929,9.929,0,1,1-9.928-9.93A9.927,9.927,0,0,1,1567.855,254.2Z" transform="translate(-1547.31 -243.585)" fill="#fff"/>
          <path id="Trazado_101720" data-name="Trazado 101720" d="M1555.884,262.773a10.616,10.616,0,1,1,10.615-10.615A10.628,10.628,0,0,1,1555.884,262.773Zm0-19.858a9.243,9.243,0,1,0,9.241,9.244A9.254,9.254,0,0,0,1555.884,242.915Z" transform="translate(-1545.267 -241.542)" fill="#12263f"/>
        </g>
        <g id="Grupo_55266" data-name="Grupo 55266" transform="translate(6.76 4.577)">
          <path id="Trazado_101721" data-name="Trazado 101721" d="M1574.875,267.825v-5.353l4.637,2.675,4.637,2.678-4.637,2.675-4.637,2.677Z" transform="translate(-1574.188 -261.785)" fill="#01549e"/>
          <path id="Trazado_101722" data-name="Trazado 101722" d="M1572.832,271.819a.687.687,0,0,1-.687-.687v-10.7a.687.687,0,0,1,1.03-.6l9.274,5.353a.687.687,0,0,1,0,1.19l-9.273,5.352A.685.685,0,0,1,1572.832,271.819Zm.687-10.2v8.326l7.213-4.163Z" transform="translate(-1572.145 -259.741)" fill="#12263f"/>
        </g>
      </g>
      <g id="Grupo_55268" data-name="Grupo 55268" transform="translate(12.513 3.359)">
        <line id="Línea_201" data-name="Línea 201" x2="11.518" transform="translate(0.802 0.801)" fill="#7ccdf5"/>
        <path id="Trazado_101723" data-name="Trazado 101723" d="M1573.71,177.433h-11.518a.8.8,0,1,1,0-1.6h11.518a.8.8,0,1,1,0,1.6Z" transform="translate(-1561.391 -175.83)" fill="#12263f"/>
      </g>
      <g id="Grupo_55269" data-name="Grupo 55269" transform="translate(12.455 58.364)">
        <path id="Trazado_101724" data-name="Trazado 101724" d="M1575.982,399.13a1.41,1.41,0,0,1-1.41,1.409h-8.818a1.409,1.409,0,0,1-1.408-1.409h0a1.409,1.409,0,0,1,1.408-1.409h8.818a1.409,1.409,0,0,1,1.41,1.409Z" transform="translate(-1563.544 -396.919)" fill="#bfeffc"/>
        <path id="Trazado_101725" data-name="Trazado 101725" d="M1572.186,398.955h-8.818a2.211,2.211,0,0,1,0-4.421h8.818a2.211,2.211,0,1,1,0,4.421Zm-8.818-2.818a.608.608,0,0,0,0,1.215h8.818a.608.608,0,1,0,0-1.215Z" transform="translate(-1561.158 -394.534)" fill="#12263f"/>
      </g>
    </g>
  </g>
</svg>
