<?xml version="1.0" encoding="UTF-8" standalone="no"?><!DOCTYPE svg PUBLIC "-//W3C//DTD SVG 1.1//EN" "http://www.w3.org/Graphics/SVG/1.1/DTD/svg11.dtd"><svg width="100%" height="100%" viewBox="0 0 110 110" version="1.1" xmlns="http://www.w3.org/2000/svg" xmlns:xlink="http://www.w3.org/1999/xlink" xml:space="preserve" xmlns:serif="http://www.serif.com/" style="fill-rule:evenodd;clip-rule:evenodd;stroke-linejoin:round;stroke-miterlimit:2;"><rect id="Mesa-de-trabajo1" serif:id="Mesa de trabajo1" x="0" y="0" width="109.4" height="109.4" style="fill:none;"/><clipPath id="_clip1"><rect x="0" y="0" width="109.4" height="109.4"/></clipPath><g clip-path="url(#_clip1)"><g id="Grupo_58418"><path id="Elipse_4186" d="M0.696,45.937c4.837,-29.806 32.962,-50.077 62.767,-45.241c29.806,4.837 50.077,32.962 45.241,62.767c-4.837,29.806 -32.962,50.077 -62.767,45.241c-29.806,-4.837 -50.077,-32.962 -45.241,-62.767Z" style="fill:#fff;"/><g id="storyboard_5_"><path id="Rect치ngulo_5873" d="M52.7,26.7c-0,-1.104 -0.896,-2 -2,-2l-24,-0c-1.104,-0 -2,0.896 -2,2l-0,24c-0,1.104 0.896,2 2,2l24,-0c1.104,-0 2,-0.896 2,-2l-0,-24Z" style="fill:#e0e0e2;"/><path id="Rect치ngulo_5874" d="M52.7,58.7c-0,-1.104 -0.896,-2 -2,-2l-24,-0c-1.104,-0 -2,0.896 -2,2l-0,24c-0,1.104 0.896,2 2,2l24,-0c1.104,-0 2,-0.896 2,-2l-0,-24Z" style="fill:#3d9ae2;"/><path id="Rect치ngulo_5875" d="M84.7,26.7c-0,-1.104 -0.896,-2 -2,-2l-24,-0c-1.104,-0 -2,0.896 -2,2l-0,24c-0,1.104 0.896,2 2,2l24,-0c1.104,-0 2,-0.896 2,-2l-0,-24Z" style="fill:#3d9ae2;"/><path id="Trazado_103080" d="M33.7,30.7l-0,15l11,-7l-11,-8Z" style="fill:#ff5023;fill-rule:nonzero;"/><path id="Rect치ngulo_5876" d="M84.7,58.7c-0,-1.104 -0.896,-2 -2,-2l-24,-0c-1.104,-0 -2,0.896 -2,2l-0,24c-0,1.104 0.896,2 2,2l24,-0c1.104,-0 2,-0.896 2,-2l-0,-24Z" style="fill:#e0e0e2;"/><path id="Trazado_103081" d="M65.7,62.7l-0,15l11,-7l-11,-8Z" style="fill:#ff5023;fill-rule:nonzero;"/><rect id="Trazado_103082" x="60.7" y="28.7" width="9" height="8" style="fill:#ffda44;fill-rule:nonzero;"/><rect id="Trazado_103083" x="28.7" y="60.7" width="9" height="8" style="fill:#ffda44;fill-rule:nonzero;"/><path id="Trazado_103084" d="M50.7,23.7l-24,-0c-1.646,-0 -3,1.354 -3,3l-0,24c-0,1.646 1.354,3 3,3l24,-0c1.646,-0 3,-1.354 3,-3l-0,-24c-0,-1.646 -1.354,-3 -3,-3Zm1,27c-0,0.549 -0.451,1 -1,1l-24,-0c-0.549,-0 -1,-0.451 -1,-1l-0,-24c-0,-0.549 0.451,-1 1,-1l24,-0c0.549,-0 1,0.451 1,1l-0,24Z" style="fill-rule:nonzero;"/><path id="Trazado_103085" d="M50.7,55.7l-24,-0c-1.646,-0 -3,1.354 -3,3l-0,24c-0,1.646 1.354,3 3,3l24,-0c1.646,-0 3,-1.354 3,-3l-0,-24c-0,-1.646 -1.354,-3 -3,-3Zm1,27c-0,0.549 -0.451,1 -1,1l-24,-0c-0.549,-0 -1,-0.451 -1,-1l-0,-24c-0,-0.549 0.451,-1 1,-1l24,-0c0.549,-0 1,0.451 1,1l-0,24Z" style="fill-rule:nonzero;"/><path id="Trazado_103086" d="M82.7,23.7l-24,-0c-1.646,-0 -3,1.354 -3,3l-0,24c-0,1.646 1.354,3 3,3l24,-0c1.646,-0 3,-1.354 3,-3l-0,-24c-0,-1.646 -1.354,-3 -3,-3Zm1,27c-0,0.549 -0.451,1 -1,1l-24,-0c-0.549,-0 -1,-0.451 -1,-1l-0,-24c-0,-0.549 0.451,-1 1,-1l24,-0c0.549,-0 1,0.451 1,1l-0,24Z" style="fill-rule:nonzero;"/><path id="Trazado_103087" d="M45.288,37.891l-11,-8c-0.171,-0.124 -0.377,-0.191 -0.588,-0.191c-0.549,-0 -1,0.451 -1,1l-0,15c-0,0.549 0.451,1 1,1c0.19,0 0.377,-0.054 0.537,-0.156l11,-7c0.288,-0.183 0.463,-0.502 0.463,-0.844c0,-0.32 -0.153,-0.621 -0.412,-0.809Zm-10.588,5.987l-0,-11.214l8.224,5.981l-8.224,5.233Z" style="fill-rule:nonzero;"/><path id="Trazado_103088" d="M82.7,55.7l-24,-0c-1.646,-0 -3,1.354 -3,3l-0,24c-0,1.646 1.354,3 3,3l24,-0c1.646,-0 3,-1.354 3,-3l-0,-24c-0,-1.646 -1.354,-3 -3,-3Zm1,27c-0,0.549 -0.451,1 -1,1l-24,-0c-0.549,-0 -1,-0.451 -1,-1l-0,-24c-0,-0.549 0.451,-1 1,-1l24,-0c0.549,-0 1,0.451 1,1l-0,24Z" style="fill-rule:nonzero;"/><path id="Trazado_103089" d="M77.288,69.891l-11,-8c-0.171,-0.124 -0.377,-0.191 -0.588,-0.191c-0.549,-0 -1,0.451 -1,1l-0,15c-0,0.549 0.451,1 1,1c0.19,0 0.377,-0.054 0.537,-0.156l11,-7c0.288,-0.183 0.463,-0.502 0.463,-0.844c0,-0.32 -0.153,-0.621 -0.412,-0.809Zm-10.588,5.987l0,-11.214l8.224,5.981l-8.224,5.233Z" style="fill-rule:nonzero;"/><path id="Trazado_103090" d="M34.7,79.7l-6,-0c-0.549,-0 -1,0.451 -1,1c-0,0.549 0.451,1 1,1l6,-0c0.549,-0 1,-0.451 1,-1c-0,-0.549 -0.451,-1 -1,-1Z" style="fill-rule:nonzero;"/><path id="Trazado_103091" d="M38.7,79.7l-1,-0c-0.549,-0 -1,0.451 -1,1c-0,0.549 0.451,1 1,1l1,-0c0.549,-0 1,-0.451 1,-1c-0,-0.549 -0.451,-1 -1,-1Z" style="fill-rule:nonzero;"/><path id="Trazado_103092" d="M66.7,47.7l-6,-0c-0.549,-0 -1,0.451 -1,1c-0,0.549 0.451,1 1,1l6,-0c0.549,-0 1,-0.451 1,-1c-0,-0.549 -0.451,-1 -1,-1Z" style="fill-rule:nonzero;"/><path id="Trazado_103093" d="M70.7,47.7l-1,-0c-0.549,-0 -1,0.451 -1,1c-0,0.549 0.451,1 1,1l1,-0c0.549,-0 1,-0.451 1,-1c-0,-0.549 -0.451,-1 -1,-1Z" style="fill-rule:nonzero;"/><path id="Trazado_103094" d="M81.7,43.7l-21,-0c-0.549,-0 -1,0.451 -1,1c-0,0.549 0.451,1 1,1l21,-0c0.549,-0 1,-0.451 1,-1c-0,-0.549 -0.451,-1 -1,-1Z" style="fill-rule:nonzero;"/><path id="Trazado_103095" d="M81.7,39.7l-21,-0c-0.549,-0 -1,0.451 -1,1c-0,0.549 0.451,1 1,1l21,-0c0.549,-0 1,-0.451 1,-1c-0,-0.549 -0.451,-1 -1,-1Z" style="fill-rule:nonzero;"/><path id="Trazado_103096" d="M60.7,37.7l9,-0c0.549,-0 1,-0.451 1,-1l-0,-8c-0,-0.549 -0.451,-1 -1,-1l-9,-0c-0.549,-0 -1,0.451 -1,1l-0,8c-0,0.549 0.451,1 1,1Zm1,-8l7,-0l-0,6l-7,-0l-0,-6Z" style="fill-rule:nonzero;"/><path id="Trazado_103097" d="M49.7,75.7l-21,-0c-0.549,-0 -1,0.451 -1,1c-0,0.549 0.451,1 1,1l21,-0c0.549,-0 1,-0.451 1,-1c-0,-0.549 -0.451,-1 -1,-1Z" style="fill-rule:nonzero;"/><path id="Trazado_103098" d="M49.7,71.7l-21,-0c-0.549,-0 -1,0.451 -1,1c-0,0.549 0.451,1 1,1l21,-0c0.549,-0 1,-0.451 1,-1c-0,-0.549 -0.451,-1 -1,-1Z" style="fill-rule:nonzero;"/><path id="Trazado_103099" d="M28.7,69.7l9,-0c0.549,-0 1,-0.451 1,-1l-0,-8c-0,-0.549 -0.451,-1 -1,-1l-9,-0c-0.549,-0 -1,0.451 -1,1l-0,8c-0,0.549 0.451,1 1,1Zm1,-8l7,-0l-0,6l-7,-0l-0,-6Z" style="fill-rule:nonzero;"/></g></g></g></svg>