<svg xmlns="http://www.w3.org/2000/svg" width="85" height="84.999" viewBox="0 0 85 84.999">
  <g id="Grupo_57191" data-name="Grupo 57191" transform="translate(-989.462 -1478.867)">
    <path id="Trazado_101685" data-name="Trazado 101685" d="M1074.462,1552.333a11.53,11.53,0,0,1-11.531,11.532h-61.94a11.53,11.53,0,0,1-11.529-11.532V1490.4a11.529,11.529,0,0,1,11.529-11.53h61.94a11.53,11.53,0,0,1,11.531,11.53Z" fill="#01549e"/>
    <g id="palanca-de-mando" transform="translate(995.458 1478.834)">
      <path id="Trazado_101733" data-name="Trazado 101733" d="M26.783,247.463a18.975,18.975,0,0,0-2.018.108c-7.8.838-15.249,8.256-16.115,16.06a18.249,18.249,0,0,0,27.739,17.6,13.177,13.177,0,0,1,5.887-2.068q.759-.068,1.54-.067.741,0,1.47.052a13.2,13.2,0,0,1,5.976,2.088,18.249,18.249,0,0,0,27.715-17.612c-.865-7.8-8.314-15.214-16.116-16.052a18.84,18.84,0,0,0-2.012-.108Z" transform="translate(-7.312 -212.148)" fill="#ffd33f"/>
      <circle id="Elipse_4146" data-name="Elipse 4146" cx="3.65" cy="3.65" r="3.65" transform="translate(41.366 49.91)" fill="#ea3836"/>
      <path id="Trazado_101734" data-name="Trazado 101734" d="M114.778,302.656c-14.643,16.411-47.623,22.519-60.5,24.333a18.182,18.182,0,0,0,21.334,1.559,13.175,13.175,0,0,1,5.887-2.068c.508-.04,1.024-.061,1.544-.061q.741,0,1.47.052a13.2,13.2,0,0,1,5.976,2.088A18.249,18.249,0,0,0,118.2,310.946,17.3,17.3,0,0,0,114.778,302.656Z" transform="translate(-46.536 -259.47)" fill="#ffac3e"/>
      <path id="Trazado_101735" data-name="Trazado 101735" d="M82.908,315.719h4.867V321.8h6.083v4.867H87.775v6.083H82.908v-6.083H76.825V321.8h6.083Z" transform="translate(-65.87 -270.671)" fill="#383856"/>
      <g id="Grupo_55276" data-name="Grupo 55276" transform="translate(49.882 42.61)">
        <circle id="Elipse_4147" data-name="Elipse 4147" cx="3.65" cy="3.65" r="3.65" fill="#91cece"/>
        <circle id="Elipse_4148" data-name="Elipse 4148" cx="3.65" cy="3.65" r="3.65" transform="translate(0 14.6)" fill="#91cece"/>
      </g>
      <circle id="Elipse_4149" data-name="Elipse 4149" cx="3.65" cy="3.65" r="3.65" transform="translate(58.399 49.91)" fill="#ea3836"/>
      <path id="Trazado_101736" data-name="Trazado 101736" d="M238.934,218.2v-4.867H243.8V218.2" transform="translate(-204.863 -182.885)" fill="#874d1b"/>
      <path id="Trazado_101737" data-name="Trazado 101737" d="M298.929,353.653a3.609,3.609,0,0,1,.543,1.891,3.65,3.65,0,0,1-3.65,3.65,3.609,3.609,0,0,1-1.891-.543,3.64,3.64,0,1,0,5-5Z" transform="translate(-252.018 -303.195)" fill="#d62121"/>
      <path id="Trazado_101738" data-name="Trazado 101738" d="M358.654,302.46a3.608,3.608,0,0,1,.543,1.891,3.65,3.65,0,0,1-3.65,3.65,3.609,3.609,0,0,1-1.891-.543,3.64,3.64,0,1,0,5-5Z" transform="translate(-303.226 -259.302)" fill="#83b2b7"/>
      <path id="Trazado_101739" data-name="Trazado 101739" d="M418.378,353.653a3.609,3.609,0,0,1,.543,1.891,3.65,3.65,0,0,1-3.65,3.65,3.609,3.609,0,0,1-1.891-.543,3.64,3.64,0,1,0,5-5Z" transform="translate(-354.434 -303.195)" fill="#d62121"/>
      <path id="Trazado_101740" data-name="Trazado 101740" d="M358.654,404.845a3.608,3.608,0,0,1,.543,1.891,3.65,3.65,0,0,1-3.65,3.65,3.609,3.609,0,0,1-1.891-.543,3.64,3.64,0,1,0,5-5Z" transform="translate(-303.226 -347.087)" fill="#83b2b7"/>
      <path id="Trazado_101741" data-name="Trazado 101741" d="M76.825,362.058v1.189h6.083v6.083h4.867v-6.083h6.083V358.38H91.827C87.022,361.731,79.694,362.066,76.825,362.058Z" transform="translate(-65.87 -307.248)" fill="#202033"/>
      <path id="Trazado_101742" data-name="Trazado 101742" d="M238.934,223.1v.332H243.8v-4A9.2,9.2,0,0,1,238.934,223.1Z" transform="translate(-204.863 -188.115)" fill="#6b3713"/>
      <path id="Trazado_101743" data-name="Trazado 101743" d="M86.543,313.27H81.676V308.4a1.217,1.217,0,0,0-1.217-1.217H75.593a1.217,1.217,0,0,0-1.217,1.217v4.867H69.51a1.217,1.217,0,0,0-1.217,1.217v4.867a1.217,1.217,0,0,0,1.217,1.217h4.867v4.867a1.217,1.217,0,0,0,1.217,1.217h4.867a1.217,1.217,0,0,0,1.217-1.217V320.57h4.867a1.217,1.217,0,0,0,1.217-1.217v-4.867A1.217,1.217,0,0,0,86.543,313.27Zm-1.217,4.867H80.459a1.217,1.217,0,0,0-1.217,1.217v4.867H76.81v-4.867a1.217,1.217,0,0,0-1.217-1.217H70.726V315.7h4.867a1.217,1.217,0,0,0,1.217-1.217V309.62h2.433v4.866a1.217,1.217,0,0,0,1.217,1.217h4.867v2.433Z" transform="translate(-58.555 -263.355)" fill="#12263f"/>
      <path id="Trazado_101744" data-name="Trazado 101744" d="M346.186,299.856a4.867,4.867,0,1,0-4.866-4.867A4.867,4.867,0,0,0,346.186,299.856Zm0-7.3a2.433,2.433,0,1,1-2.433,2.433A2.433,2.433,0,0,1,346.186,292.556Z" transform="translate(-292.649 -248.724)" fill="#12263f"/>
      <path id="Trazado_101745" data-name="Trazado 101745" d="M346.186,392.508a4.867,4.867,0,1,0,4.867,4.867A4.867,4.867,0,0,0,346.186,392.508Zm0,7.3a2.433,2.433,0,1,1,2.433-2.433A2.433,2.433,0,0,1,346.186,399.808Z" transform="translate(-292.649 -336.51)" fill="#12263f"/>
      <path id="Trazado_101746" data-name="Trazado 101746" d="M286.462,341.315a4.867,4.867,0,1,0,4.866,4.867A4.867,4.867,0,0,0,286.462,341.315Zm0,7.3a2.433,2.433,0,1,1,2.433-2.433A2.433,2.433,0,0,1,286.462,348.615Z" transform="translate(-241.441 -292.617)" fill="#12263f"/>
      <path id="Trazado_101747" data-name="Trazado 101747" d="M405.91,341.315a4.867,4.867,0,1,0,4.867,4.867A4.867,4.867,0,0,0,405.91,341.315Zm0,7.3a2.433,2.433,0,1,1,2.433-2.433A2.433,2.433,0,0,1,405.91,348.615Z" transform="translate(-343.856 -292.617)" fill="#12263f"/>
      <path id="Trazado_101748" data-name="Trazado 101748" d="M55.683,34.22a20.071,20.071,0,0,0-2.146-.122H40.154V29.232H37.721V26.8a4.867,4.867,0,0,0-4.867-4.867H26.771a2.433,2.433,0,0,1,0-4.867H46.237a4.867,4.867,0,1,0,0-9.733H40.154A2.433,2.433,0,0,1,37.721,4.9V.033H35.287V4.9a4.867,4.867,0,0,0,4.867,4.867h6.083a2.433,2.433,0,0,1,0,4.867H26.771a4.867,4.867,0,0,0,0,9.733h6.083A2.433,2.433,0,0,1,35.287,26.8v2.433H32.854V34.1H19.471a19.841,19.841,0,0,0-2.149.122c-8.395.9-16.264,8.744-17.195,17.128A19.467,19.467,0,0,0,29.716,70.111a11.922,11.922,0,0,1,5.34-1.887,18.769,18.769,0,0,1,2.829-.01,12.007,12.007,0,0,1,5.424,1.908,19.466,19.466,0,0,0,29.573-18.78C71.948,42.958,64.074,35.115,55.683,34.22Zm-20.4-2.555h2.433V34.1H35.287ZM66.232,64.921a17.022,17.022,0,0,1-21.641,3.133,14.35,14.35,0,0,0-6.532-2.267q-.77-.056-1.555-.056c-.554,0-1.095.023-1.64.066a14.315,14.315,0,0,0-6.434,2.246A17.032,17.032,0,0,1,2.546,51.618c.8-7.2,7.825-14.2,15.038-14.978a17.46,17.46,0,0,1,1.887-.108H53.537a17.784,17.784,0,0,1,1.887.1c7.211.775,14.235,7.773,15.038,14.978A16.908,16.908,0,0,1,66.232,64.921Z" transform="translate(0)" fill="#12263f"/>
    </g>
  </g>
</svg>
