<svg xmlns="http://www.w3.org/2000/svg" width="125.535" height="125.535" viewBox="0 0 125.535 125.535">
  <g id="Grupo_58563" data-name="Grupo 58563" transform="translate(-599.926 -2760.204)">
    <circle id="Elipse_4186" data-name="Elipse 4186" cx="54.71" cy="54.71" r="54.71" transform="translate(599.926 2868.211) rotate(-80.783)" fill="#fed55f"/>
    <g id="Storyboard" transform="translate(630 2789.304)">
      <path id="Trazado_103064" data-name="Trazado 103064" d="M28,1H4A3,3,0,0,0,1,4V28a3,3,0,0,0,3,3H28a3,3,0,0,0,3-3V4a3,3,0,0,0-3-3Zm1,27a1,1,0,0,1-1,1H4a1,1,0,0,1-1-1V4A1,1,0,0,1,4,3H28a1,1,0,0,1,1,1Z" fill="#12263f"/>
      <path id="Trazado_103065" data-name="Trazado 103065" d="M28,33H4a3,3,0,0,0-3,3V60a3,3,0,0,0,3,3H28a3,3,0,0,0,3-3V36a3,3,0,0,0-3-3Zm1,27a1,1,0,0,1-1,1H4a1,1,0,0,1-1-1V36a1,1,0,0,1,1-1H28a1,1,0,0,1,1,1Z" fill="#12263f"/>
      <path id="Trazado_103066" data-name="Trazado 103066" d="M60,1H36a3,3,0,0,0-3,3V28a3,3,0,0,0,3,3H60a3,3,0,0,0,3-3V4A3,3,0,0,0,60,1Zm1,27a1,1,0,0,1-1,1H36a1,1,0,0,1-1-1V4a1,1,0,0,1,1-1H60a1,1,0,0,1,1,1Z" fill="#12263f"/>
      <path id="Trazado_103067" data-name="Trazado 103067" d="M22.588,15.191l-11-8A1,1,0,0,0,10,8V23a1,1,0,0,0,1.537.844l11-7a1,1,0,0,0,.051-1.653ZM12,21.178V9.964l8.224,5.981Z" fill="#12263f"/>
      <path id="Trazado_103068" data-name="Trazado 103068" d="M60,33H36a3,3,0,0,0-3,3V60a3,3,0,0,0,3,3H60a3,3,0,0,0,3-3V36A3,3,0,0,0,60,33Zm1,27a1,1,0,0,1-1,1H36a1,1,0,0,1-1-1V36a1,1,0,0,1,1-1H60a1,1,0,0,1,1,1Z" fill="#12263f"/>
      <path id="Trazado_103069" data-name="Trazado 103069" d="M54.588,47.191l-11-8A1,1,0,0,0,42,40V55a1,1,0,0,0,1.537.844l11-7a1,1,0,0,0,.051-1.653ZM44,53.178V41.964l8.224,5.981Z" fill="#12263f"/>
      <path id="Trazado_103070" data-name="Trazado 103070" d="M12,57H6a1,1,0,0,0,0,2h6a1,1,0,0,0,0-2Z" fill="#12263f"/>
      <path id="Trazado_103071" data-name="Trazado 103071" d="M16,57H15a1,1,0,0,0,0,2h1a1,1,0,0,0,0-2Z" fill="#12263f"/>
      <path id="Trazado_103072" data-name="Trazado 103072" d="M44,25H38a1,1,0,0,0,0,2h6a1,1,0,0,0,0-2Z" fill="#12263f"/>
      <path id="Trazado_103073" data-name="Trazado 103073" d="M48,25H47a1,1,0,0,0,0,2h1a1,1,0,0,0,0-2Z" fill="#12263f"/>
      <path id="Trazado_103074" data-name="Trazado 103074" d="M59,21H38a1,1,0,0,0,0,2H59a1,1,0,0,0,0-2Z" fill="#12263f"/>
      <path id="Trazado_103075" data-name="Trazado 103075" d="M59,17H38a1,1,0,0,0,0,2H59a1,1,0,0,0,0-2Z" fill="#12263f"/>
      <path id="Trazado_103076" data-name="Trazado 103076" d="M38,15h9a1,1,0,0,0,1-1V6a1,1,0,0,0-1-1H38a1,1,0,0,0-1,1v8A1,1,0,0,0,38,15Zm1-8h7v6H39Z" fill="#12263f"/>
      <path id="Trazado_103077" data-name="Trazado 103077" d="M27,53H6a1,1,0,0,0,0,2H27a1,1,0,0,0,0-2Z" fill="#12263f"/>
      <path id="Trazado_103078" data-name="Trazado 103078" d="M27,49H6a1,1,0,0,0,0,2H27a1,1,0,0,0,0-2Z" fill="#12263f"/>
      <path id="Trazado_103079" data-name="Trazado 103079" d="M6,47h9a1,1,0,0,0,1-1V38a1,1,0,0,0-1-1H6a1,1,0,0,0-1,1v8A1,1,0,0,0,6,47Zm1-8h7v6H7Z" fill="#12263f"/>
    </g>
  </g>
</svg>
