<svg xmlns="http://www.w3.org/2000/svg" width="154.744" height="154.744" viewBox="0 0 154.744 154.744">
  <g id="Grupo_58564" data-name="Grupo 58564" transform="translate(-859.031 -2745.599)">
    <circle id="Elipse_4188" data-name="Elipse 4188" cx="54.71" cy="54.71" r="54.71" transform="translate(859.031 2822.971) rotate(-45)" fill="#01549e"/>
    <g id="storyboard_6_" data-name="storyboard (6)" transform="translate(904 2789.304)">
      <path id="Trazado_103100" data-name="Trazado 103100" d="M65.412,5.639H42.856V3.384A3.383,3.383,0,0,0,39.473,0H28.195a3.383,3.383,0,0,0-3.383,3.384V5.639H2.256A2.255,2.255,0,0,0,0,7.895V10.15a2.255,2.255,0,0,0,2.256,2.256V54.134a1.128,1.128,0,0,0,1.128,1.128H4.624a1.128,1.128,0,0,0,0-2.256H4.511v-40.6H63.156v40.6h-36.2a1.128,1.128,0,0,0,0,2.256H65.411v2.256H21.8c-.014,0-.027.008-.042.008a1.116,1.116,0,0,0-.247.051.986.986,0,0,0-.18.05,1.086,1.086,0,0,0-.185.125,1.182,1.182,0,0,0-.165.126,1.112,1.112,0,0,0-.113.168,1.092,1.092,0,0,0-.113.2c0,.014-.018.025-.022.039l-2.628,7.895a1.126,1.126,0,1,0,2.136.713l2.372-7.123h10.15l-.059,6.758a1.128,1.128,0,0,0,1.118,1.137h.01a1.128,1.128,0,0,0,1.128-1.119l.057-6.776H45.056L47.425,66.9a1.128,1.128,0,0,0,2.14-.713l-2.134-6.41h17.98a2.255,2.255,0,0,0,2.256-2.256V55.261a2.255,2.255,0,0,0-2.256-2.256v-40.6a2.255,2.255,0,0,0,2.256-2.256V7.895a2.255,2.255,0,0,0-2.256-2.256ZM27.067,3.384a1.128,1.128,0,0,1,1.128-1.128H39.473A1.128,1.128,0,0,1,40.6,3.384V5.639H27.067ZM64.284,10.15H2.256V7.895H65.412V10.15Zm0,0" transform="translate(0 0)" fill="#fff"/>
      <path id="Trazado_103101" data-name="Trazado 103101" d="M53.455,123.339H65.86a2.255,2.255,0,0,0,2.256-2.256v-7.895a2.255,2.255,0,0,0-2.256-2.256H53.455a2.255,2.255,0,0,0-2.256,2.256v7.895A2.255,2.255,0,0,0,53.455,123.339Zm2.347-2.256,2.164-2.707,2.165,2.707Zm10.059-5.741a1.68,1.68,0,0,1-2.154-2.154H65.86ZM61.4,113.189a3.911,3.911,0,0,0,4.465,4.465v3.43H63.018l-4.173-5.216a1.168,1.168,0,0,0-1.761,0l-3.629,4.539v-7.218Zm0,0" transform="translate(-44.432 -96.273)" fill="#fff"/>
      <path id="Trazado_103102" data-name="Trazado 103102" d="M198.521,123.339h12.406a2.255,2.255,0,0,0,2.256-2.256v-7.895a2.245,2.245,0,0,0-.894-1.786c-.011-.007-.019-.018-.031-.026a2.232,2.232,0,0,0-1.33-.443H198.521a2.239,2.239,0,0,0-1.329.443c-.013.008-.023.021-.036.029a2.247,2.247,0,0,0-.89,1.783v7.895a2.255,2.255,0,0,0,2.256,2.256Zm12.406-3.279-4.221-2.924,4.221-2.925Zm-2.481,1.023H201l3.722-2.575Zm-3.722-5.32L201,113.189h7.443Zm-1.981,1.373-4.221,2.924v-5.849Zm0,0" transform="translate(-170.327 -96.273)" fill="#fff"/>
      <path id="Trazado_103103" data-name="Trazado 103103" d="M343.587,123.339h12.406a2.255,2.255,0,0,0,2.255-2.256v-7.895a2.255,2.255,0,0,0-2.255-2.256H343.587a2.256,2.256,0,0,0-2.256,2.256v7.895A2.256,2.256,0,0,0,343.587,123.339Zm7.895-8.458a1.691,1.691,0,1,1-1.692-1.692A1.692,1.692,0,0,1,351.482,114.881Zm-7.895-1.692h2.651a3.947,3.947,0,1,0,7.1,0h2.651v7.895H343.587Zm0,0" transform="translate(-296.22 -96.273)" fill="#fff"/>
      <path id="Trazado_103104" data-name="Trazado 103104" d="M51.2,266.15a2.255,2.255,0,0,0,2.256,2.256h4.624a1.128,1.128,0,0,0,0-2.256H53.455v-7.895H65.86v3.564a1.128,1.128,0,1,0,2.256,0v-3.564A2.255,2.255,0,0,0,65.86,256H53.455a2.255,2.255,0,0,0-2.256,2.256Zm0,0" transform="translate(-44.432 -222.167)" fill="#fff"/>
      <path id="Trazado_103105" data-name="Trazado 103105" d="M196.266,260.026a1.128,1.128,0,0,0,2.256,0v-.748l4.223,2.925-.321.226a1.128,1.128,0,0,0,1.285,1.852l1.015-.7,3.722,2.574H201.5a1.128,1.128,0,1,0,0,2.255h9.428a2.255,2.255,0,0,0,2.256-2.255v-7.895a2.271,2.271,0,0,0-.594-1.5l-.007-.007a2.581,2.581,0,0,0-.2-.218c-.033-.028-.07-.047-.1-.073l-.025-.017a2.234,2.234,0,0,0-1.326-.443H198.521a2.241,2.241,0,0,0-1.312.436c-.021.012-.039.027-.058.041-.039.029-.081.053-.119.086a2.29,2.29,0,0,0-.766,1.693ZM201,258.256h7.443l-3.722,2.576Zm9.924,1.024v5.847l-4.22-2.924Zm0,0" transform="translate(-170.327 -222.167)" fill="#fff"/>
      <path id="Trazado_103106" data-name="Trazado 103106" d="M341.332,266.15a2.255,2.255,0,0,0,2.255,2.256h12.406a2.255,2.255,0,0,0,2.256-2.256v-7.895A2.255,2.255,0,0,0,355.993,256H343.588a2.255,2.255,0,0,0-2.255,2.256Zm4.6,0,2.165-2.707,2.164,2.707Zm10.059-5.74a1.681,1.681,0,0,1-2.154-2.154h2.154Zm-4.465-2.154a3.911,3.911,0,0,0,4.465,4.465v3.429h-2.842l-4.173-5.216a1.168,1.168,0,0,0-1.761,0l-3.629,4.539v-7.218Zm0,0" transform="translate(-296.221 -222.167)" fill="#fff"/>
      <path id="Trazado_103107" data-name="Trazado 103107" d="M52.327,224.123H66.988a1.128,1.128,0,0,0,0-2.256H52.327a1.128,1.128,0,1,0,0,2.256Zm0,0" transform="translate(-44.432 -192.545)" fill="#fff"/>
      <path id="Trazado_103108" data-name="Trazado 103108" d="M52.327,369.189h1.241a1.128,1.128,0,0,0,0-2.256H52.327a1.128,1.128,0,1,0,0,2.256Zm0,0" transform="translate(-44.432 -318.439)" fill="#fff"/>
      <path id="Trazado_103109" data-name="Trazado 103109" d="M214.8,366.934a1.128,1.128,0,0,0,0,2.256h12.361a1.128,1.128,0,0,0,0-2.256Zm0,0" transform="translate(-185.436 -318.439)" fill="#fff"/>
      <path id="Trazado_103110" data-name="Trazado 103110" d="M342.46,369.189h14.661a1.128,1.128,0,0,0,0-2.256H342.46a1.128,1.128,0,1,0,0,2.256Zm0,0" transform="translate(-296.221 -318.439)" fill="#fff"/>
      <path id="Trazado_103111" data-name="Trazado 103111" d="M197.394,224.123h14.661a1.128,1.128,0,0,0,0-2.256H197.394a1.128,1.128,0,1,0,0,2.256Zm0,0" transform="translate(-170.327 -192.545)" fill="#fff"/>
      <path id="Trazado_103112" data-name="Trazado 103112" d="M342.46,224.123h14.661a1.128,1.128,0,0,0,0-2.256H342.46a1.128,1.128,0,1,0,0,2.256Zm0,0" transform="translate(-296.221 -192.545)" fill="#fff"/>
      <path id="Trazado_103113" data-name="Trazado 103113" d="M23.656,326.953l-2.392,2.392a2.255,2.255,0,0,0,0,3.189l3.189,3.19a2.255,2.255,0,0,0,3.191,0L42.8,320.573v-.008a1.133,1.133,0,0,0,.2-.268l3.55-6.814a2.255,2.255,0,0,0-3.045-3.045l-6.813,3.55a.86.86,0,0,0-.129.1.977.977,0,0,0-.148.1L23.658,326.952Zm2.393,7.179-3.19-3.192,1.594-1.594,3.192,3.19Zm3.19-3.19-3.19-3.19,11.165-11.165,3.189,3.19Zm15.308-18.5L41.708,317.9,39.1,315.285Zm0,0" transform="translate(-17.88 -269.186)" fill="#fff"/>
    </g>
  </g>
</svg>
