<svg xmlns="http://www.w3.org/2000/svg" width="109.42" height="109.42" viewBox="0 0 109.42 109.42">
  <g id="Grupo_58565" data-name="Grupo 58565" transform="translate(-1084.637 -2965.409)">
    <circle id="Elipse_4184" data-name="Elipse 4184" cx="54.71" cy="54.71" r="54.71" transform="translate(1084.637 2965.409)" fill="#bfeffc"/>
    <g id="storyboard_7_" data-name="storyboard (7)" transform="translate(1107 2989.304)">
      <path id="Trazado_103114" data-name="Trazado 103114" d="M22,29H42V23H22Zm2-4H40v2H24Z" fill="#12263f"/>
      <path id="Trazado_103115" data-name="Trazado 103115" d="M22,31h2v2H22Z" fill="#12263f"/>
      <path id="Trazado_103116" data-name="Trazado 103116" d="M26,31H42v2H26Z" fill="#12263f"/>
      <path id="Trazado_103117" data-name="Trazado 103117" d="M22,35H42v2H22Z" fill="#12263f"/>
      <path id="Trazado_103118" data-name="Trazado 103118" d="M40,39h2v2H40Z" fill="#12263f"/>
      <path id="Trazado_103119" data-name="Trazado 103119" d="M22,39H38v2H22Z" fill="#12263f"/>
      <path id="Trazado_103120" data-name="Trazado 103120" d="M25,5H5v6H25ZM23,9H7V7H23Z" fill="#12263f"/>
      <path id="Trazado_103121" data-name="Trazado 103121" d="M5,13H7v2H5Z" fill="#12263f"/>
      <path id="Trazado_103122" data-name="Trazado 103122" d="M9,13H25v2H9Z" fill="#12263f"/>
      <path id="Trazado_103123" data-name="Trazado 103123" d="M5,17H16v2H5Z" fill="#12263f"/>
      <path id="Trazado_103124" data-name="Trazado 103124" d="M5,21H16v2H5Z" fill="#12263f"/>
      <path id="Trazado_103125" data-name="Trazado 103125" d="M5,53H25v2H5Z" fill="#12263f"/>
      <path id="Trazado_103126" data-name="Trazado 103126" d="M23,57h2v2H23Z" fill="#12263f"/>
      <path id="Trazado_103127" data-name="Trazado 103127" d="M5,57H21v2H5Z" fill="#12263f"/>
      <path id="Trazado_103128" data-name="Trazado 103128" d="M60,27a3,3,0,0,0,3-3V4a3,3,0,0,0-3-3H38a3,3,0,0,0-3,3v9H29V4a3,3,0,0,0-3-3H4A3,3,0,0,0,1,4V24a3,3,0,0,0,3,3h8V37H4a3,3,0,0,0-3,3V60a3,3,0,0,0,3,3H26a3,3,0,0,0,3-3V51h6v9a3,3,0,0,0,3,3H60a3,3,0,0,0,3-3V40a3,3,0,0,0-3-3H52V27ZM38,3H60a1,1,0,0,1,1,1V24a1,1,0,0,1-1,1H46V22a3,3,0,0,0-3-3H37V4A1,1,0,0,1,38,3ZM21,43a1,1,0,0,1-1-1V22a1,1,0,0,1,1-1H43a1,1,0,0,1,1,1V42a1,1,0,0,1-1,1Zm-2.816,0A3,3,0,0,0,21,45h2v4H7V43ZM41,45h2a3,3,0,0,0,2.816-2H57v6H41ZM35,15v4H29V15ZM3,24V4A1,1,0,0,1,4,3H26a1,1,0,0,1,1,1V19H21a3,3,0,0,0-3,3v3H4A1,1,0,0,1,3,24Zm11,3h4V37H14ZM26,61H4a1,1,0,0,1-1-1V40a1,1,0,0,1,1-1H18v2H5V51H25V45h2V60A1,1,0,0,1,26,61Zm3-12V45h6v4Zm32-9V60a1,1,0,0,1-1,1H38a1,1,0,0,1-1-1V45h2v6H59V41H46V39H60A1,1,0,0,1,61,40ZM50,37H46V27h4Z" fill="#12263f"/>
      <path id="Trazado_103129" data-name="Trazado 103129" d="M59,5H39v6H59ZM57,9H41V7H57Z" fill="#12263f"/>
      <path id="Trazado_103130" data-name="Trazado 103130" d="M39,13h2v2H39Z" fill="#12263f"/>
      <path id="Trazado_103131" data-name="Trazado 103131" d="M43,13H59v2H43Z" fill="#12263f"/>
      <path id="Trazado_103132" data-name="Trazado 103132" d="M48,17H59v2H48Z" fill="#12263f"/>
      <path id="Trazado_103133" data-name="Trazado 103133" d="M48,21H59v2H48Z" fill="#12263f"/>
      <path id="Trazado_103134" data-name="Trazado 103134" d="M39,53H59v2H39Z" fill="#12263f"/>
      <path id="Trazado_103135" data-name="Trazado 103135" d="M57,57h2v2H57Z" fill="#12263f"/>
      <path id="Trazado_103136" data-name="Trazado 103136" d="M39,57H55v2H39Z" fill="#12263f"/>
    </g>
  </g>
</svg>
