<?xml version="1.0" encoding="UTF-8" standalone="no"?><!DOCTYPE svg PUBLIC "-//W3C//DTD SVG 1.1//EN" "http://www.w3.org/Graphics/SVG/1.1/DTD/svg11.dtd"><svg width="100%" height="100%" viewBox="0 0 110 110" version="1.1" xmlns="http://www.w3.org/2000/svg" xmlns:xlink="http://www.w3.org/1999/xlink" xml:space="preserve" xmlns:serif="http://www.serif.com/" style="fill-rule:evenodd;clip-rule:evenodd;stroke-linejoin:round;stroke-miterlimit:2;"><rect id="Mesa-de-trabajo1" serif:id="Mesa de trabajo1" x="0" y="0" width="109.4" height="109.4" style="fill:none;"/><g id="Grupo_58419"><path id="Elipse_4188" d="M16.014,16.014c21.351,-21.351 56.021,-21.351 77.372,0c21.351,21.351 21.351,56.021 -0,77.372c-21.351,21.351 -56.021,21.351 -77.372,-0c-21.351,-21.351 -21.351,-56.021 0,-77.372Z" style="fill:#fff;"/><g id="storyboard"><rect id="Trazado_103010" x="24.248" y="32.141" width="60.9" height="42.856" style="fill:#607d8b;fill-rule:nonzero;"/><rect id="Trazado_103011" x="24.248" y="32.141" width="57.518" height="42.856" style="fill:#cfd8dc;fill-rule:nonzero;"/><path id="Trazado_103012" d="M29.888,55.824l12.405,-0c0.619,-0 1.128,0.509 1.128,1.128l0,7.895c-0,0.618 -0.509,1.127 -1.128,1.127l-12.405,-0c-0.618,-0 -1.127,-0.509 -1.128,-1.127l0,-7.895c0,-0.619 0.51,-1.128 1.128,-1.128Z" style="fill:#00bcd4;fill-rule:nonzero;"/><path id="Trazado_103013" d="M23.122,74.995l63.155,-0c0.619,-0 1.128,0.509 1.128,1.128l0,2.256c0,0.619 -0.509,1.128 -1.128,1.128l-63.155,-0c-0.618,-0 -1.128,-0.509 -1.128,-1.128l0,-2.256c0,-0.619 0.51,-1.128 1.128,-1.128Z" style="fill:#37474f;fill-rule:nonzero;"/><path id="Trazado_103014" d="M23.122,27.63l63.155,-0c0.619,-0 1.128,0.509 1.128,1.128l0,2.256c0,0.619 -0.509,1.128 -1.128,1.128l-63.155,-0c-0.618,-0 -1.128,-0.509 -1.128,-1.128l0,-2.257c0.001,-0.619 0.51,-1.127 1.128,-1.127Z" style="fill:#37474f;fill-rule:nonzero;"/><path id="Trazado_103015" d="M23.122,74.995l59.772,-0c0.619,-0 1.128,0.509 1.128,1.128l0,2.256c0,0.619 -0.509,1.128 -1.128,1.128l-59.772,-0c-0.618,-0 -1.128,-0.509 -1.128,-1.128l0,-2.256c0,-0.619 0.51,-1.128 1.128,-1.128Z" style="fill:#607d8b;fill-rule:nonzero;"/><path id="Trazado_103016" d="M23.122,27.63l59.772,-0c0.619,-0 1.128,0.509 1.128,1.128l0,2.256c0,0.619 -0.509,1.128 -1.128,1.128l-59.772,-0c-0.618,-0 -1.128,-0.509 -1.128,-1.128l0,-2.257c0.001,-0.619 0.51,-1.127 1.128,-1.127Z" style="fill:#607d8b;fill-rule:nonzero;"/><path id="Trazado_103017" d="M49.061,21.991l11.279,-0c0.001,-0 0.001,-0 0.002,-0c1.237,-0 2.255,1.018 2.255,2.255l-0.001,3.384l-15.791,-0l0,-3.384c0,-1.237 1.018,-2.255 2.255,-2.255c0.001,-0 0.001,-0 0.001,-0Z" style="fill:#37474f;fill-rule:nonzero;"/><path id="Trazado_103018" d="M29.888,36.652l12.405,-0c0.619,-0 1.128,0.509 1.128,1.128l0,7.895c0,0.619 -0.509,1.128 -1.128,1.128l-12.405,-0c-0.618,-0 -1.128,-0.509 -1.128,-1.128l0,-7.895c0,-0.619 0.51,-1.128 1.128,-1.128Z" style="fill:#00bcd4;fill-rule:nonzero;"/><path id="Trazado_103019" d="M68.233,36.652l12.405,-0c0.619,-0 1.128,0.509 1.128,1.128l0,7.895c0,0.619 -0.509,1.128 -1.128,1.128l-12.405,-0c-0.619,-0 -1.128,-0.509 -1.128,-1.128l-0,-7.895c-0,-0.619 0.509,-1.128 1.128,-1.128Z" style="fill:#00bcd4;fill-rule:nonzero;"/><path id="Trazado_103020" d="M38.911,46.802l-9.022,-0l3.63,-4.538c0.214,-0.268 0.539,-0.424 0.881,-0.424c0.343,0 0.668,0.156 0.881,0.424l3.63,4.538Z" style="fill:#4caf50;fill-rule:nonzero;"/><path id="Trazado_103021" d="M43.422,37.78l0,2.819c-0.488,0.366 -1.082,0.565 -1.693,0.565c-1.546,-0 -2.819,-1.273 -2.819,-2.819c0,-0.611 0.199,-1.205 0.565,-1.693l2.819,-0c0.619,-0 1.128,0.509 1.128,1.128Z" style="fill:#fec108;fill-rule:nonzero;"/><path id="Trazado_103022" d="M77.255,39.472c0,1.547 -1.272,2.82 -2.82,2.82c-1.547,-0 -2.82,-1.273 -2.82,-2.82c0,-1.547 1.273,-2.82 2.82,-2.82c0.001,-0 0.001,-0 0.002,-0c1.546,-0 2.819,1.272 2.819,2.819c-0,0 -0,0 -0,0.001Z" style="fill:#fec108;fill-rule:nonzero;"/><path id="Trazado_103023" d="M27.441,79.428l12.755,-12.755l4.782,4.782l-12.755,12.755l-4.782,-4.782Z" style="fill:#f44335;fill-rule:nonzero;"/><path id="Trazado_103024" d="M29.832,81.819l12.755,-12.755l2.391,2.391l-12.755,12.755l-2.391,-2.391Z" style="fill:#c52828;fill-rule:nonzero;"/><path id="Trazado_103025" d="M32.223,84.21l-2.391,2.391c-0.437,0.434 -1.152,0.434 -1.59,-0l-3.191,-3.191c-0.434,-0.437 -0.434,-1.153 0,-1.59l2.391,-2.391l4.781,4.781Z" style="fill:#c52828;fill-rule:nonzero;"/><path id="Trazado_103026" d="M49.06,36.652l12.406,-0c0.619,-0 1.128,0.509 1.128,1.128l0,7.895c0,0.619 -0.509,1.128 -1.128,1.128l-12.406,-0c-0.618,-0 -1.128,-0.509 -1.128,-1.128l0,-7.895c0,-0.619 0.51,-1.128 1.128,-1.128Z" style="fill:#00bcd4;fill-rule:nonzero;"/><path id="Trazado_103027" d="M68.233,55.824l12.405,-0c0.619,-0 1.128,0.509 1.128,1.128l0,7.895c-0,0.618 -0.509,1.127 -1.128,1.127l-12.405,-0c-0.619,-0 -1.128,-0.509 -1.128,-1.127l-0,-7.895c-0,-0.619 0.509,-1.128 1.128,-1.128Z" style="fill:#00bcd4;fill-rule:nonzero;"/><path id="Trazado_103028" d="M77.255,65.974l-9.021,-0l3.63,-4.538c0.214,-0.268 0.539,-0.424 0.881,-0.424c0.343,0 0.668,0.156 0.881,0.424l3.629,4.538Z" style="fill:#4caf50;fill-rule:nonzero;"/><path id="Trazado_103029" d="M81.767,56.952l-0,2.819c-0.489,0.366 -1.083,0.565 -1.694,0.565c-1.546,-0 -2.819,-1.273 -2.819,-2.819c0,-0.611 0.199,-1.205 0.566,-1.693l2.819,-0c0.618,-0 1.128,0.509 1.128,1.128Z" style="fill:#fec108;fill-rule:nonzero;"/><path id="Trazado_103030" d="M49.06,55.824l12.406,-0c0.619,-0 1.128,0.509 1.128,1.128l0,7.895c-0,0.618 -0.509,1.127 -1.128,1.127l-12.406,-0c-0.618,-0 -1.127,-0.509 -1.128,-1.127l0,-7.895c0,-0.619 0.51,-1.128 1.128,-1.128Z" style="fill:#00bcd4;fill-rule:nonzero;"/><path id="Trazado_103031" d="M48.535,64.644l-3.553,6.812l-4.782,-4.782l6.811,-3.553c0.162,-0.085 0.342,-0.129 0.525,-0.129c0.619,-0 1.128,0.509 1.128,1.128c-0,0.182 -0.045,0.362 -0.13,0.524l0.001,-0Z" style="fill:#fec108;fill-rule:nonzero;"/><path id="Trazado_103032" d="M86.278,26.502l-22.556,-0l0.001,-2.256c-0,-1.856 -1.528,-3.383 -3.383,-3.383l-11.279,-0c-1.855,-0 -3.383,1.527 -3.383,3.383l0,2.256l-22.556,-0c0,-0 -0,-0 -0.001,-0c-1.237,-0 -2.255,1.018 -2.255,2.255l0,2.257c0,1.237 1.018,2.255 2.255,2.255c0.001,-0 0.001,-0 0.001,-0l0,41.728c0,0.619 0.51,1.128 1.128,1.128l1.24,-0c0.619,-0 1.128,-0.509 1.128,-1.128c0,-0.619 -0.509,-1.128 -1.128,-1.128l-0.113,-0l0,-40.6l58.645,-0l0,40.6l-36.2,-0c-0.618,-0 -1.128,0.509 -1.128,1.128c0,0.619 0.51,1.128 1.128,1.128l38.455,-0l0,2.256l-43.611,-0c-0.014,-0 -0.027,0.008 -0.042,0.008c-0.083,0.007 -0.166,0.024 -0.247,0.051c-0.061,0.011 -0.121,0.027 -0.18,0.05c-0.065,0.035 -0.127,0.077 -0.185,0.125c-0.058,0.037 -0.113,0.079 -0.165,0.126c-0.042,0.052 -0.08,0.108 -0.113,0.168c-0.044,0.062 -0.082,0.129 -0.113,0.2c0,0.014 -0.018,0.025 -0.022,0.039l-2.628,7.895c-0.041,0.118 -0.062,0.243 -0.062,0.368c0,0.618 0.509,1.126 1.126,1.126c0.488,0 0.923,-0.317 1.072,-0.781l2.372,-7.123l10.15,-0l-0.059,6.758c-0.004,0.618 0.5,1.131 1.118,1.137l0.01,-0c0.616,-0 1.124,-0.504 1.128,-1.119l0.057,-6.776l10.039,-0l2.369,7.13c0.159,0.45 0.587,0.752 1.064,0.752c0.619,0 1.128,-0.509 1.128,-1.128c0,-0.114 -0.017,-0.228 -0.052,-0.337l-2.134,-6.41l17.98,-0c0.001,-0 0.001,-0 0.002,-0c1.237,-0 2.255,-1.018 2.255,-2.255l-0,-2.262c-0,-1.237 -1.018,-2.255 -2.255,-2.255c-0.001,-0 -0.001,-0 -0.002,-0l0,-40.6c0.001,-0 0.001,-0 0.002,-0c1.237,-0 2.255,-1.018 2.255,-2.255l-0,-2.256c-0,-1.237 -1.018,-2.255 -2.255,-2.255c-0.001,-0 -0.001,-0 -0.002,-0l0.001,-0Zm-38.345,-2.255c0,-0.619 0.51,-1.128 1.128,-1.128l11.278,-0c0.619,0 1.128,0.509 1.127,1.128l0,2.255l-13.533,-0l0,-2.255Zm38.345,6.766l-63.156,-0l0,-2.255l63.156,-0l0,2.255Z" style="fill-rule:nonzero;"/><path id="Trazado_103033" d="M29.889,47.929l12.405,-0c0.001,-0 0.001,-0 0.002,-0c1.237,-0 2.255,-1.018 2.255,-2.255l-0,-7.897c-0,-1.237 -1.018,-2.255 -2.255,-2.255c-0.001,-0 -0.001,-0 -0.002,-0l-12.405,-0c0,-0 -0,-0 -0.001,-0c-1.237,-0 -2.255,1.018 -2.255,2.255l0,7.897c0,1.237 1.018,2.255 2.255,2.255c0.001,-0 0.001,-0 0.001,-0Zm2.347,-2.256l2.164,-2.707l2.165,2.707l-4.329,-0Zm10.059,-5.741c-0.184,0.067 -0.379,0.101 -0.575,0.101c-0.922,0 -1.68,-0.758 -1.68,-1.68c-0,-0.196 0.034,-0.391 0.101,-0.575l2.153,-0l0.001,2.154Zm-4.461,-2.153c-0.03,0.198 -0.046,0.399 -0.046,0.6c0,2.146 1.766,3.911 3.911,3.911c0.201,0 0.402,-0.015 0.6,-0.046l0,3.429l-2.847,-0l-4.173,-5.216c-0.221,-0.255 -0.543,-0.401 -0.88,-0.401c-0.337,0 -0.659,0.146 -0.881,0.401l-3.629,4.539l0,-7.218l7.945,0.001Z" style="fill-rule:nonzero;"/><path id="Trazado_103034" d="M49.06,47.929l12.406,-0c0.001,-0 0.001,-0 0.002,-0c1.237,-0 2.255,-1.018 2.255,-2.255l-0.001,-7.896c-0.002,-0.702 -0.333,-1.364 -0.894,-1.786c-0.011,-0.007 -0.019,-0.018 -0.031,-0.026c-0.384,-0.287 -0.85,-0.442 -1.33,-0.443l-12.407,-0c-0.478,0.001 -0.944,0.157 -1.329,0.443c-0.013,0.008 -0.023,0.021 -0.036,0.029c-0.557,0.423 -0.887,1.083 -0.89,1.783l0,7.896c0,1.237 1.018,2.255 2.255,2.255Zm12.406,-3.279l-4.221,-2.924l4.221,-2.925l0,5.849Zm-2.481,1.023l-7.446,-0l3.722,-2.575l3.724,2.575Zm-3.722,-5.32l-3.724,-2.574l7.443,-0l-3.719,2.574Zm-1.981,1.373l-4.221,2.924l0,-5.849l4.221,2.925Z" style="fill-rule:nonzero;"/><path id="Trazado_103035" d="M68.233,47.929l12.406,-0c1.238,-0 2.256,-1.018 2.256,-2.255l-0,-7.897c-0,-1.237 -1.018,-2.255 -2.255,-2.255l-12.407,-0c0,-0 -0,-0 -0.001,-0c-1.237,-0 -2.255,1.018 -2.255,2.255l0,7.897c0,1.237 1.018,2.255 2.255,2.255c0.001,-0 0.001,-0 0.001,-0Zm7.895,-8.458c0,0.928 -0.763,1.692 -1.692,1.692c-0.928,-0 -1.692,-0.764 -1.692,-1.692c0,-0.928 0.764,-1.692 1.692,-1.692c0.929,-0 1.692,0.764 1.692,1.692Zm-7.895,-1.692l2.651,-0c-0.261,0.537 -0.397,1.127 -0.397,1.725c0,2.165 1.782,3.947 3.947,3.947c2.166,-0 3.947,-1.782 3.947,-3.947c0,-0.598 -0.135,-1.188 -0.397,-1.725l2.652,-0l0,7.895l-12.403,-0l0,-7.895Z" style="fill-rule:nonzero;"/><path id="Trazado_103036" d="M27.634,64.846c0,0 0,0 0,0.001c0,1.237 1.018,2.255 2.255,2.255l4.625,-0c0.619,-0 1.128,-0.509 1.128,-1.128c0,-0.619 -0.509,-1.128 -1.128,-1.128l-4.625,-0l0,-7.895l12.405,-0l0,3.564c0,0.619 0.51,1.128 1.128,1.128c0.619,-0 1.128,-0.509 1.128,-1.128l0,-3.564c0,-1.237 -1.017,-2.255 -2.255,-2.255c0,-0 -0,-0 -0.001,-0l-12.405,-0c0,-0 -0,-0 -0.001,-0c-1.237,-0 -2.255,1.018 -2.255,2.255c0,-0 0.001,7.895 0.001,7.895Z" style="fill-rule:nonzero;"/><path id="Trazado_103037" d="M46.805,58.722c0,0.619 0.51,1.128 1.128,1.128c0.619,-0 1.128,-0.509 1.128,-1.128l0,-0.748l4.223,2.925l-0.321,0.226c-0.281,0.213 -0.447,0.546 -0.447,0.9c-0,0.618 0.509,1.128 1.128,1.128c0.214,-0 0.424,-0.061 0.605,-0.176l1.014,-0.7l3.722,2.574l-6.946,-0c-0.618,-0 -1.128,0.509 -1.128,1.128c0,0.619 0.51,1.128 1.128,1.128l9.428,-0c1.238,-0 2.256,-1.018 2.256,-2.255l-0.001,-7.896c-0.007,-0.556 -0.219,-1.09 -0.594,-1.5l-0.007,-0.007c-0.062,-0.077 -0.129,-0.149 -0.2,-0.218c-0.033,-0.028 -0.07,-0.047 -0.1,-0.073l-0.025,-0.017c-0.383,-0.286 -0.848,-0.441 -1.326,-0.443l-12.41,-0c-0.472,0.003 -0.931,0.156 -1.312,0.436c-0.021,0.012 -0.039,0.027 -0.058,0.041c-0.039,0.029 -0.081,0.053 -0.119,0.086c-0.482,0.43 -0.761,1.046 -0.766,1.693l0,1.768Zm4.734,-1.77l7.443,-0l-3.722,2.576l-3.721,-2.576Zm9.924,1.024l0,5.847l-4.22,-2.924l4.22,-2.923Z" style="fill-rule:nonzero;"/><path id="Trazado_103038" d="M65.977,64.846c0,0 0,0 0,0.001c0,1.237 1.018,2.255 2.255,2.255l12.406,-0c0.001,-0 0.001,-0 0.002,-0c1.237,-0 2.255,-1.018 2.255,-2.255l-0.001,-7.896c0,-1.237 -1.017,-2.255 -2.255,-2.255c0,-0 -0,-0 -0.001,-0l-12.406,-0c0,-0 -0,-0 -0.001,-0c-1.237,-0 -2.254,1.018 -2.254,2.255c-0,-0 0,7.895 0,7.895Zm4.601,-0l2.165,-2.707l2.164,2.707l-4.329,-0Zm10.059,-5.74c-0.185,0.067 -0.379,0.101 -0.575,0.101c-0.922,-0 -1.681,-0.759 -1.681,-1.681c0,-0.196 0.035,-0.39 0.102,-0.574l2.154,-0l-0,2.154Zm-4.465,-2.154c-0.031,0.198 -0.047,0.399 -0.047,0.6c0,2.146 1.766,3.911 3.911,3.911c0.201,0 0.402,-0.015 0.6,-0.046l0.001,3.43l-2.842,-0l-4.173,-5.216c-0.222,-0.254 -0.544,-0.4 -0.881,-0.4c-0.337,-0 -0.659,0.146 -0.881,0.4l-3.629,4.539l0.001,-7.218l7.94,-0Z" style="fill-rule:nonzero;"/><path id="Trazado_103039" d="M28.761,52.441l14.661,-0c0.619,-0 1.128,-0.509 1.128,-1.128c0,-0.619 -0.509,-1.128 -1.128,-1.128l-14.661,-0c-0.618,-0 -1.128,0.509 -1.128,1.128c0,0.619 0.51,1.128 1.128,1.128Z" style="fill-rule:nonzero;"/><path id="Trazado_103040" d="M28.761,71.613l1.241,-0c0.619,-0 1.128,-0.509 1.128,-1.128c0,-0.619 -0.509,-1.128 -1.128,-1.128l-1.241,-0c-0.618,-0 -1.128,0.509 -1.128,1.128c0,0.619 0.51,1.128 1.128,1.128Z" style="fill-rule:nonzero;"/><path id="Trazado_103041" d="M50.23,69.358c-0.618,-0 -1.127,0.509 -1.127,1.128c-0,0.619 0.509,1.128 1.127,1.128l12.361,-0c0.619,-0 1.128,-0.509 1.128,-1.128c0,-0.619 -0.509,-1.128 -1.128,-1.128l-12.361,-0Z" style="fill-rule:nonzero;"/><path id="Trazado_103042" d="M67.105,71.613l14.661,-0c0.619,-0 1.128,-0.509 1.128,-1.128c0,-0.619 -0.509,-1.128 -1.128,-1.128l-14.661,-0c-0.618,-0 -1.128,0.509 -1.128,1.128c0,0.619 0.51,1.128 1.128,1.128Z" style="fill-rule:nonzero;"/><path id="Trazado_103043" d="M47.933,52.441l14.661,-0c0.619,-0 1.128,-0.509 1.128,-1.128c0,-0.619 -0.509,-1.128 -1.128,-1.128l-14.661,-0c-0.618,-0 -1.128,0.509 -1.128,1.128c0,0.619 0.51,1.128 1.128,1.128Z" style="fill-rule:nonzero;"/><path id="Trazado_103044" d="M67.105,52.441l14.661,-0c0.619,-0 1.128,-0.509 1.128,-1.128c0,-0.619 -0.509,-1.128 -1.128,-1.128l-14.661,-0c-0.618,-0 -1.128,0.509 -1.128,1.128c0,0.619 0.51,1.128 1.128,1.128Z" style="fill-rule:nonzero;"/><path id="Trazado_103045" d="M26.642,78.63l-2.392,2.392c-0.874,0.874 -0.874,2.314 0,3.189l3.189,3.19c0.423,0.423 0.998,0.661 1.596,0.661c0.598,0 1.173,-0.238 1.595,-0.661l15.156,-15.151l0,-0.008c0.08,-0.079 0.147,-0.17 0.2,-0.268l3.55,-6.814c0.17,-0.324 0.259,-0.684 0.259,-1.049c0,-1.237 -1.018,-2.255 -2.255,-2.255c-0.365,0 -0.725,0.089 -1.049,0.259l-6.813,3.55c-0.046,0.029 -0.089,0.062 -0.129,0.1c-0.052,0.029 -0.101,0.062 -0.148,0.1l-12.757,12.764l-0.002,0.001Zm2.393,7.179l-3.19,-3.192l1.594,-1.594l3.192,3.19l-1.596,1.596Zm3.19,-3.19l-3.19,-3.19l11.165,-11.165l3.189,3.19l-11.164,11.165Zm15.308,-18.5l-2.839,5.458l-2.608,-2.615l5.447,-2.843Z" style="fill-rule:nonzero;"/></g></g></svg>