<svg xmlns="http://www.w3.org/2000/svg" width="109.42" height="109.42" viewBox="0 0 109.42 109.42">
  <g id="Grupo_58422" data-name="Grupo 58422" transform="translate(-957.637 -716.105)">
    <circle id="Elipse_4184" data-name="Elipse 4184" cx="54.71" cy="54.71" r="54.71" transform="translate(957.637 716.105)" fill="#fff"/>
    <g id="storyboard_8_" data-name="storyboard (8)" transform="translate(981 739.937)">
      <g id="Grupo_57263" data-name="Grupo 57263">
        <g id="Grupo_57253" data-name="Grupo 57253">
          <path id="Trazado_103137" data-name="Trazado 103137" d="M26,2H4A2.006,2.006,0,0,0,2,4V24a2.006,2.006,0,0,0,2,2H19V22a2.006,2.006,0,0,1,2-2h7V4A2.006,2.006,0,0,0,26,2Z" fill="#e6e9ed"/>
        </g>
        <g id="Grupo_57254" data-name="Grupo 57254">
          <path id="Trazado_103138" data-name="Trazado 103138" d="M60,2H38a2.006,2.006,0,0,0-2,2V20h7a2.006,2.006,0,0,1,2,2v4H60a2.006,2.006,0,0,0,2-2V4A2.006,2.006,0,0,0,60,2Z" fill="#e6e9ed"/>
        </g>
        <g id="Grupo_57255" data-name="Grupo 57255">
          <path id="Trazado_103139" data-name="Trazado 103139" d="M60,62H38a2,2,0,0,1-2-2V40a2,2,0,0,1,2-2H60a2,2,0,0,1,2,2V60A2,2,0,0,1,60,62Z" fill="#e6e9ed"/>
        </g>
        <g id="Grupo_57256" data-name="Grupo 57256">
          <path id="Trazado_103140" data-name="Trazado 103140" d="M26,62H4a2,2,0,0,1-2-2V40a2,2,0,0,1,2-2H26a2,2,0,0,1,2,2V60A2,2,0,0,1,26,62Z" fill="#e6e9ed"/>
        </g>
        <g id="Grupo_57257" data-name="Grupo 57257">
          <path id="Trazado_103141" data-name="Trazado 103141" d="M24,44v6H6V42H19a2.006,2.006,0,0,0,2,2Z" fill="#fcd770"/>
        </g>
        <g id="Grupo_57258" data-name="Grupo 57258">
          <path id="Trazado_103142" data-name="Trazado 103142" d="M58,42v8H40V44h3a2.006,2.006,0,0,0,2-2Z" fill="#ff826e"/>
        </g>
        <g id="Grupo_57259" data-name="Grupo 57259">
          <path id="Trazado_103143" data-name="Trazado 103143" d="M6,6H24v4H6Z" fill="#ff826e"/>
        </g>
        <g id="Grupo_57260" data-name="Grupo 57260">
          <path id="Trazado_103144" data-name="Trazado 103144" d="M40,6H58v4H40Z" fill="#fcd770"/>
        </g>
        <g id="Grupo_57261" data-name="Grupo 57261">
          <path id="Trazado_103145" data-name="Trazado 103145" d="M45,26V42a2.006,2.006,0,0,1-2,2H21a2.006,2.006,0,0,1-2-2V22a2.006,2.006,0,0,1,2-2H43a2.006,2.006,0,0,1,2,2Z" fill="#f0d0b4"/>
        </g>
        <g id="Grupo_57262" data-name="Grupo 57262">
          <path id="Trazado_103146" data-name="Trazado 103146" d="M23,24H41v4H23Z" fill="#b4dd7f"/>
        </g>
      </g>
      <g id="Grupo_57264" data-name="Grupo 57264">
        <path id="Trazado_103147" data-name="Trazado 103147" d="M22,29H42V23H22Zm2-4H40v2H24Z"/>
        <path id="Trazado_103148" data-name="Trazado 103148" d="M22,31h2v2H22Z"/>
        <path id="Trazado_103149" data-name="Trazado 103149" d="M26,31H42v2H26Z"/>
        <path id="Trazado_103150" data-name="Trazado 103150" d="M22,35H42v2H22Z"/>
        <path id="Trazado_103151" data-name="Trazado 103151" d="M40,39h2v2H40Z"/>
        <path id="Trazado_103152" data-name="Trazado 103152" d="M22,39H38v2H22Z"/>
        <path id="Trazado_103153" data-name="Trazado 103153" d="M25,5H5v6H25ZM23,9H7V7H23Z"/>
        <path id="Trazado_103154" data-name="Trazado 103154" d="M5,13H7v2H5Z"/>
        <path id="Trazado_103155" data-name="Trazado 103155" d="M9,13H25v2H9Z"/>
        <path id="Trazado_103156" data-name="Trazado 103156" d="M5,17H16v2H5Z"/>
        <path id="Trazado_103157" data-name="Trazado 103157" d="M5,21H16v2H5Z"/>
        <path id="Trazado_103158" data-name="Trazado 103158" d="M5,53H25v2H5Z"/>
        <path id="Trazado_103159" data-name="Trazado 103159" d="M23,57h2v2H23Z"/>
        <path id="Trazado_103160" data-name="Trazado 103160" d="M5,57H21v2H5Z"/>
        <path id="Trazado_103161" data-name="Trazado 103161" d="M60,27a3,3,0,0,0,3-3V4a3,3,0,0,0-3-3H38a3,3,0,0,0-3,3v9H29V4a3,3,0,0,0-3-3H4A3,3,0,0,0,1,4V24a3,3,0,0,0,3,3h8V37H4a3,3,0,0,0-3,3V60a3,3,0,0,0,3,3H26a3,3,0,0,0,3-3V51h6v9a3,3,0,0,0,3,3H60a3,3,0,0,0,3-3V40a3,3,0,0,0-3-3H52V27ZM29,15h6v4H29ZM4,25a1,1,0,0,1-1-1V4A1,1,0,0,1,4,3H26a1,1,0,0,1,1,1V19H21a3,3,0,0,0-3,3v3ZM18.184,43A3,3,0,0,0,21,45h2v4H7V43ZM18,37H14V27h4Zm9,23a1,1,0,0,1-1,1H4a1,1,0,0,1-1-1V40a1,1,0,0,1,1-1H18v2H5V51H25V45h2Zm8-11H29V45h6ZM21,43a1,1,0,0,1-1-1V22a1,1,0,0,1,1-1H43a1,1,0,0,1,1,1V42a1,1,0,0,1-1,1Zm24.816,0H57v6H41V45h2A3,3,0,0,0,45.816,43ZM60,39a1,1,0,0,1,1,1V60a1,1,0,0,1-1,1H38a1,1,0,0,1-1-1V45h2v6H59V41H46V39ZM46,37V27h4V37Zm0-12V22a3,3,0,0,0-3-3H37V4a1,1,0,0,1,1-1H60a1,1,0,0,1,1,1V24a1,1,0,0,1-1,1Z"/>
        <path id="Trazado_103162" data-name="Trazado 103162" d="M39,11H59V5H39Zm2-4H57V9H41Z"/>
        <path id="Trazado_103163" data-name="Trazado 103163" d="M39,13h2v2H39Z"/>
        <path id="Trazado_103164" data-name="Trazado 103164" d="M43,13H59v2H43Z"/>
        <path id="Trazado_103165" data-name="Trazado 103165" d="M48,17H59v2H48Z"/>
        <path id="Trazado_103166" data-name="Trazado 103166" d="M48,21H59v2H48Z"/>
        <path id="Trazado_103167" data-name="Trazado 103167" d="M39,53H59v2H39Z"/>
        <path id="Trazado_103168" data-name="Trazado 103168" d="M57,57h2v2H57Z"/>
        <path id="Trazado_103169" data-name="Trazado 103169" d="M39,57H55v2H39Z"/>
      </g>
    </g>
  </g>
</svg>
