<svg xmlns="http://www.w3.org/2000/svg" width="211" height="203" viewBox="0 0 211 203">
  <g id="Grupo_58536" data-name="Grupo 58536" transform="translate(-157 -148)">
    <circle id="Elipse_4222" data-name="Elipse 4222" cx="101.5" cy="101.5" r="101.5" transform="translate(157 148)" fill="#bfeffc"/>
    <g id="guion_2_" data-name="guion (2)" transform="translate(170.67 148)">
      <path id="Trazado_103995" data-name="Trazado 103995" d="M301.261,0h-79.42L208.668,90.894l13.173,101.623,39.393,8.836s4.942-.029,5.025-.084a17.841,17.841,0,0,0,17.448-17.419L283.7,27.656Zm0,0" transform="translate(-126.605 0)" fill="#ffc157"/>
      <path id="Trazado_103996" data-name="Trazado 103996" d="M108.811,0a22.621,22.621,0,0,0-22.6,22.595L86.2,178.76l61.335,13.758V0Zm0,0" transform="translate(-52.302 0)" fill="#ffd27b"/>
      <path id="Trazado_103997" data-name="Trazado 103997" d="M166,324.332h11.8v11.8H166Zm0,0" transform="translate(-100.717 -196.782)" fill="#eb8d00"/>
      <path id="Trazado_103998" data-name="Trazado 103998" d="M416.965,0a17.523,17.523,0,0,0-17.5,17.5V27.655h35.007V17.5A17.523,17.523,0,0,0,416.965,0Zm0,0" transform="translate(-242.365 0)" fill="#eb9d2d"/>
      <path id="Trazado_103999" data-name="Trazado 103999" d="M271.948,112.13v-11.8h-37.1L230,107.018l4.85,5.113Zm0,0" transform="translate(-139.548 -60.874)" fill="#bd6800"/>
      <path id="Trazado_104000" data-name="Trazado 104000" d="M242.585,186.8V175H234.85L230,181.686l4.85,5.113Zm0,0" transform="translate(-139.548 -106.178)" fill="#bd6800"/>
      <path id="Trazado_104001" data-name="Trazado 104001" d="M271.948,261.462v-11.8h-37.1L230,256.219l4.85,5.243Zm0,0" transform="translate(-139.548 -151.479)" fill="#bd6800"/>
      <g id="Grupo_57829" data-name="Grupo 57829" transform="translate(65.283 39.458)">
        <path id="Trazado_104002" data-name="Trazado 104002" d="M166,100.332h30.019v11.8H166Zm0,0" transform="translate(-166 -100.332)" fill="#eb8d00"/>
        <path id="Trazado_104003" data-name="Trazado 104003" d="M166,175h30.019v11.8H166Zm0,0" transform="translate(-166 -145.635)" fill="#eb8d00"/>
        <path id="Trazado_104004" data-name="Trazado 104004" d="M166,249.664h30.019v11.8H166Zm0,0" transform="translate(-166 -190.936)" fill="#eb8d00"/>
      </g>
      <path id="Trazado_104005" data-name="Trazado 104005" d="M279.072,469.327v0a17.524,17.524,0,0,1-17.43-17.5V441.668H234.982L230,454.122l4.98,15.205Zm0,0" transform="translate(-139.548 -267.973)" fill="#ffdc82"/>
      <path id="Trazado_104006" data-name="Trazado 104006" d="M0,451.722a17.605,17.605,0,0,0,17.6,17.6H95.432V441.668H0Zm0,0" transform="translate(0 -267.973)" fill="#ffe899"/>
      <path id="Trazado_104007" data-name="Trazado 104007" d="M370.421,171.7l-.565-11.116L322.33,202.305l-36.947,42.754h33.081l22.229-22.229,2.612-7.941,5.73-.4,8-8A45.971,45.971,0,0,0,370.421,171.7Zm0,0" transform="translate(-173.15 -97.433)" fill="#189edb"/>
      <path id="Trazado_104008" data-name="Trazado 104008" d="M358.74,159.057l11.116.565L285.383,244.1V211.017l22.229-22.229,10.523-.031-2.181-8.312,8-8a45.973,45.973,0,0,1,34.783-13.383Zm0,0" transform="translate(-173.15 -96.469)" fill="#4bbaed"/>
      <path id="Trazado_104009" data-name="Trazado 104009" d="M350.24,213.527l7.73,7.73-8.343,8.342L341.9,221.87Zm0,0" transform="translate(-207.44 -129.553)" fill="#87d0ed"/>
      <path id="Trazado_104010" data-name="Trazado 104010" d="M414.092,294.069l-7.729-7.73L414.705,278l7.73,7.73Zm0,0" transform="translate(-246.553 -168.669)" fill="#4bbaed"/>
      <path id="Trazado_104011" data-name="Trazado 104011" d="M277.169,308.48l8.343,8.343-34.935,34.935-8.343-8.343Zm0,0" transform="translate(-146.971 -187.164)" fill="#cce4ed"/>
    </g>
  </g>
</svg>
