<svg xmlns="http://www.w3.org/2000/svg" width="273" height="273" viewBox="0 0 273 273">
  <g id="Grupo_58424" data-name="Grupo 58424" transform="translate(-157 -1072)">
    <circle id="Elipse_4223" data-name="Elipse 4223" cx="136.5" cy="136.5" r="136.5" transform="translate(157 1072)" fill="#ffc935"/>
    <g id="guion_3_" data-name="guion (3)" transform="translate(161.641 1080)">
      <path id="Trazado_104012" data-name="Trazado 104012" d="M252.76,476H75.8L64,491.73H244.895Z" transform="translate(-2.034 -242.016)" fill="#e6e9ed"/>
      <g id="Grupo_57831" data-name="Grupo 57831" transform="translate(61.966 233.984)" opacity="0.2">
        <path id="Trazado_104013" data-name="Trazado 104013" d="M75.8,476,64,491.73h7.865L83.662,476Z" transform="translate(-64 -476)"/>
      </g>
      <rect id="Rectángulo_6133" data-name="Rectángulo 6133" width="166" height="232" transform="translate(85.359 1.999)" fill="#ac92ec"/>
      <g id="Grupo_57832" data-name="Grupo 57832" transform="translate(61.966 1.812)">
        <rect id="Rectángulo_6134" data-name="Rectángulo 6134" width="12" height="232" transform="translate(11.393 0.188)" fill="#656d78"/>
        <path id="Trazado_104014" data-name="Trazado 104014" d="M75.8,236.017,64,251.747V19.73L75.8,4Z" transform="translate(-64 -3.846)" fill="#656d78"/>
      </g>
      <g id="Grupo_57833" data-name="Grupo 57833" transform="translate(61.966 1.966)" opacity="0.2">
        <path id="Trazado_104015" data-name="Trazado 104015" d="M75.8,236.017,64,251.747V19.73L75.8,4Z" transform="translate(-64 -4)"/>
      </g>
      <g id="Grupo_57834" data-name="Grupo 57834" transform="translate(120.954 44.024)">
        <path id="Trazado_104016" data-name="Trazado 104016" d="M184,115.327v-8.042l36.886-7.806L214.83,108.8Z" transform="translate(-184 -94.603)" fill="#656d78"/>
        <path id="Trazado_104017" data-name="Trazado 104017" d="M287.858,89.559l-6.094,9.321-11.521,2.438L276.3,92Z" transform="translate(-227.849 -89.559)" fill="#656d78"/>
      </g>
      <g id="Grupo_57835" data-name="Grupo 57835" transform="translate(151.784 41.585)">
        <path id="Trazado_104018" data-name="Trazado 104018" d="M264.339,94.52l-6.057,9.32-11.563,2.437,6.056-9.319Z" transform="translate(-246.719 -89.643)" fill="#ccd1d9"/>
        <path id="Trazado_104019" data-name="Trazado 104019" d="M311.3,84.6l-6.056,9.321L293.68,96.357l6.094-9.321Z" transform="translate(-270.596 -84.598)" fill="#ccd1d9"/>
      </g>
      <path id="Trazado_104020" data-name="Trazado 104020" d="M334.78,79.641l-6.056,9.319L317.2,91.4l6.056-9.321Z" transform="translate(-130.772 -40.492)" fill="#656d78"/>
      <g id="Grupo_57836" data-name="Grupo 57836" transform="translate(197.952 37.495)">
        <path id="Trazado_104021" data-name="Trazado 104021" d="M351.865,139.719h7.865v7.865H344Z" transform="translate(-342.349 -108.533)" fill="#ccd1d9"/>
        <path id="Trazado_104022" data-name="Trazado 104022" d="M354.4,76.277l1.651,7.708-15.415,3.264,6.056-9.319Z" transform="translate(-340.641 -76.277)" fill="#ccd1d9"/>
      </g>
      <g id="Grupo_57837" data-name="Grupo 57837" transform="translate(120.954 37.495)" opacity="0.3">
        <path id="Trazado_104023" data-name="Trazado 104023" d="M232.45,89.177l11.559-2.439L255.534,84.3l11.521-2.437,7.708-1.654.845,3.946.807-.171-1.651-7.708-7.708,1.654-11.521,2.437-11.525,2.439L232.45,85.245l-11.563,2.438L184,95.488v3.933l36.886-7.806Z" transform="translate(-184 -76.277)" fill="#fff"/>
      </g>
      <path id="Trazado_104024" data-name="Trazado 104024" d="M327.865,139.719h11.8l-7.865,7.865H320Z" transform="translate(-132.194 -71.038)" fill="#656d78"/>
      <path id="Trazado_104025" data-name="Trazado 104025" d="M303.865,139.719h11.8l-7.865,7.865H296Z" transform="translate(-119.991 -71.038)" fill="#ccd1d9"/>
      <path id="Trazado_104026" data-name="Trazado 104026" d="M279.865,139.719h11.8l-7.865,7.865H272Z" transform="translate(-107.789 -71.038)" fill="#656d78"/>
      <path id="Trazado_104027" data-name="Trazado 104027" d="M255.865,139.719h11.8l-7.865,7.865H248Z" transform="translate(-95.586 -71.038)" fill="#ccd1d9"/>
      <path id="Trazado_104028" data-name="Trazado 104028" d="M231.865,139.719h11.8l-7.865,7.865H224Z" transform="translate(-83.384 -71.038)" fill="#656d78"/>
      <path id="Trazado_104029" data-name="Trazado 104029" d="M195.8,135.651h15.73l-7.865,7.865H184v-11.8h11.8Z" transform="translate(-63.046 -66.971)" fill="#ccd1d9"/>
      <path id="Trazado_104030" data-name="Trazado 104030" d="M184,206.841V155.719h94.38v51.122a3.945,3.945,0,0,1-3.933,3.932H187.932A3.945,3.945,0,0,1,184,206.841Z" transform="translate(-63.046 -79.173)" fill="#ffce54"/>
      <g id="Grupo_57838" data-name="Grupo 57838" transform="translate(120.954 76.546)" opacity="0.5">
        <path id="Trazado_104031" data-name="Trazado 104031" d="M187.932,206.841V155.719H184v51.122a3.945,3.945,0,0,0,3.932,3.932h3.932A3.945,3.945,0,0,1,187.932,206.841Z" transform="translate(-184 -155.719)" fill="#fff"/>
      </g>
      <g id="Grupo_57839" data-name="Grupo 57839" transform="translate(207.469 76.546)" opacity="0.2">
        <path id="Trazado_104032" data-name="Trazado 104032" d="M363.932,206.841V155.719h3.933v51.122a3.945,3.945,0,0,1-3.933,3.932H360A3.945,3.945,0,0,0,363.932,206.841Z" transform="translate(-360 -155.719)"/>
      </g>
      <g id="Grupo_57840" data-name="Grupo 57840" transform="translate(132.751 68.681)" opacity="0.3">
        <rect id="Rectángulo_6135" data-name="Rectángulo 6135" width="82.582" height="3.932" fill="#fff"/>
      </g>
      <g id="Grupo_57841" data-name="Grupo 57841" transform="translate(120.954 64.749)" opacity="0.3">
        <rect id="Rectángulo_6136" data-name="Rectángulo 6136" width="11.797" height="3.932" fill="#fff"/>
      </g>
      <g id="Grupo_57842" data-name="Grupo 57842" transform="translate(242.626 1.812)" opacity="0.2">
        <rect id="Rectángulo_6137" data-name="Rectángulo 6137" width="9" height="232" transform="translate(-0.267 0.188)"/>
      </g>
      <g id="Grupo_57843" data-name="Grupo 57843" transform="translate(73.302 1.812)" opacity="0.2">
        <rect id="Rectángulo_6138" data-name="Rectángulo 6138" width="9" height="232" transform="translate(0.058 0.188)" fill="#fff"/>
      </g>
      <g id="Grupo_57844" data-name="Grupo 57844" transform="translate(60)">
        <path id="Trazado_104033" data-name="Trazado 104033" d="M262.929,235.95H85.966A1.965,1.965,0,0,1,84,233.984V1.966A1.965,1.965,0,0,1,85.966,0H262.929a1.965,1.965,0,0,1,1.966,1.966V233.984A1.965,1.965,0,0,1,262.929,235.95Zm-175-3.932h173.03V3.932H87.932Z" transform="translate(-72.203)" fill="#3a3847"/>
        <path id="Trazado_104034" data-name="Trazado 104034" d="M263.064,491.932H93.966a1.966,1.966,0,1,1,0-3.932h169.1a1.966,1.966,0,1,1,0,3.932Z" transform="translate(-76.27 -248.118)" fill="#3a3847"/>
        <path id="Trazado_104035" data-name="Trazado 104035" d="M242.861,507.932H61.966a1.966,1.966,0,1,1,0-3.932H242.861a1.966,1.966,0,1,1,0,3.932Z" transform="translate(-60 -256.253)" fill="#3a3847"/>
        <path id="Trazado_104036" data-name="Trazado 104036" d="M61.966,267.95A1.965,1.965,0,0,1,60,265.984V33.966a1.966,1.966,0,0,1,3.933,0V265.984A1.965,1.965,0,0,1,61.966,267.95Z" transform="translate(-60 -16.27)" fill="#3a3847"/>
        <path id="Trazado_104037" data-name="Trazado 104037" d="M61.967,491.663a1.966,1.966,0,0,1-1.574-3.146l11.8-15.73a1.967,1.967,0,0,1,3.149,2.358l-11.8,15.73A1.973,1.973,0,0,1,61.967,491.663Z" transform="translate(-60.001 -239.984)" fill="#3a3847"/>
        <path id="Trazado_104038" data-name="Trazado 104038" d="M61.967,19.665a1.968,1.968,0,0,1-1.574-3.146L72.19.789a1.967,1.967,0,0,1,3.149,2.358l-11.8,15.73A1.967,1.967,0,0,1,61.967,19.665Z" transform="translate(-60.001 -0.002)" fill="#3a3847"/>
        <path id="Trazado_104039" data-name="Trazado 104039" d="M181.974,194.852a1.965,1.965,0,0,1-1.966-1.966v-62.92a1.966,1.966,0,0,1,3.932,0v62.92A1.965,1.965,0,0,1,181.974,194.852Z" transform="translate(-121.017 -65.08)" fill="#3a3847"/>
        <path id="Trazado_104040" data-name="Trazado 104040" d="M373.958,198.92a1.965,1.965,0,0,1-1.966-1.966V137.966a1.966,1.966,0,1,1,3.932,0v58.987A1.965,1.965,0,0,1,373.958,198.92Z" transform="translate(-218.629 -69.148)" fill="#3a3847"/>
        <path id="Trazado_104041" data-name="Trazado 104041" d="M185.9,263.861a5.9,5.9,0,0,1-5.895-5.895,1.966,1.966,0,1,1,3.932,0,1.963,1.963,0,0,0,1.962,1.962,1.966,1.966,0,0,1,0,3.933Z" transform="translate(-121.017 -130.16)" fill="#3a3847"/>
        <path id="Trazado_104042" data-name="Trazado 104042" d="M365.966,263.861a1.966,1.966,0,0,1,0-3.933,1.963,1.963,0,0,0,1.962-1.962,1.966,1.966,0,0,1,3.933,0A5.9,5.9,0,0,1,365.966,263.861Z" transform="translate(-214.565 -130.16)" fill="#3a3847"/>
        <path id="Trazado_104043" data-name="Trazado 104043" d="M276.481,267.924H189.966a1.966,1.966,0,0,1,0-3.932h86.515a1.966,1.966,0,1,1,0,3.932Z" transform="translate(-125.08 -134.224)" fill="#3a3847"/>
        <path id="Trazado_104044" data-name="Trazado 104044" d="M288.545,139.932H205.966a1.966,1.966,0,1,1,0-3.932h82.579a1.966,1.966,0,1,1,0,3.932Z" transform="translate(-133.215 -69.148)" fill="#3a3847"/>
        <path id="Trazado_104045" data-name="Trazado 104045" d="M276.346,155.933H181.974a1.966,1.966,0,0,1,0-3.933h94.372a1.966,1.966,0,0,1,0,3.933Z" transform="translate(-121.017 -77.283)" fill="#3a3847"/>
        <path id="Trazado_104046" data-name="Trazado 104046" d="M341.966,147.8a1.966,1.966,0,0,1-1.39-3.356l7.865-7.865a1.966,1.966,0,0,1,2.78,2.78l-7.865,7.865A1.96,1.96,0,0,1,341.966,147.8Z" transform="translate(-202.362 -69.147)" fill="#3a3847"/>
        <path id="Trazado_104047" data-name="Trazado 104047" d="M317.966,147.8a1.966,1.966,0,0,1-1.39-3.356l7.865-7.865a1.966,1.966,0,0,1,2.78,2.78l-7.865,7.865A1.96,1.96,0,0,1,317.966,147.8Z" transform="translate(-190.16 -69.147)" fill="#3a3847"/>
        <path id="Trazado_104048" data-name="Trazado 104048" d="M293.966,147.8a1.966,1.966,0,0,1-1.39-3.356l7.865-7.865a1.966,1.966,0,0,1,2.78,2.78l-7.865,7.865A1.96,1.96,0,0,1,293.966,147.8Z" transform="translate(-177.957 -69.147)" fill="#3a3847"/>
        <path id="Trazado_104049" data-name="Trazado 104049" d="M269.966,147.8a1.966,1.966,0,0,1-1.39-3.356l7.865-7.865a1.966,1.966,0,1,1,2.78,2.78l-7.865,7.865A1.96,1.96,0,0,1,269.966,147.8Z" transform="translate(-165.755 -69.147)" fill="#3a3847"/>
        <path id="Trazado_104050" data-name="Trazado 104050" d="M245.966,147.8a1.966,1.966,0,0,1-1.39-3.356l7.865-7.865a1.966,1.966,0,0,1,2.78,2.78l-7.865,7.865A1.961,1.961,0,0,1,245.966,147.8Z" transform="translate(-153.552 -69.147)" fill="#3a3847"/>
        <path id="Trazado_104051" data-name="Trazado 104051" d="M221.966,147.8a1.966,1.966,0,0,1-1.39-3.356l7.865-7.865a1.966,1.966,0,0,1,2.78,2.78l-7.865,7.865A1.96,1.96,0,0,1,221.966,147.8Z" transform="translate(-141.35 -69.147)" fill="#3a3847"/>
        <path id="Trazado_104052" data-name="Trazado 104052" d="M201.264,99.677a1.966,1.966,0,0,1-.4-3.89l71.173-15.069-.822-3.852L182.369,95.529a1.966,1.966,0,1,1-.806-3.848l90.762-19.067a1.983,1.983,0,0,1,2.327,1.515l1.636,7.7a1.971,1.971,0,0,1-1.517,2.333l-73.1,15.476A1.938,1.938,0,0,1,201.264,99.677Z" transform="translate(-121.013 -36.899)" fill="#3a3847"/>
        <path id="Trazado_104053" data-name="Trazado 104053" d="M338.623,89.14a1.945,1.945,0,0,1-1.072-.319,1.967,1.967,0,0,1-.576-2.721l6.068-9.324a1.966,1.966,0,0,1,3.295,2.147l-6.068,9.324A1.963,1.963,0,0,1,338.623,89.14Z" transform="translate(-200.663 -38.582)" fill="#3a3847"/>
        <path id="Trazado_104054" data-name="Trazado 104054" d="M315.155,94.11a1.965,1.965,0,0,1-1.648-3.038l6.06-9.324a1.965,1.965,0,1,1,3.295,2.143l-6.06,9.325A1.96,1.96,0,0,1,315.155,94.11Z" transform="translate(-188.731 -41.11)" fill="#3a3847"/>
        <path id="Trazado_104055" data-name="Trazado 104055" d="M291.67,99.085a1.945,1.945,0,0,1-1.072-.319,1.967,1.967,0,0,1-.576-2.721l6.068-9.324a1.966,1.966,0,0,1,3.295,2.147l-6.068,9.324A1.963,1.963,0,0,1,291.67,99.085Z" transform="translate(-176.79 -43.638)" fill="#3a3847"/>
        <path id="Trazado_104056" data-name="Trazado 104056" d="M268.186,104.061a1.945,1.945,0,0,1-1.072-.319,1.967,1.967,0,0,1-.576-2.721l6.068-9.324a1.966,1.966,0,0,1,3.295,2.147l-6.068,9.324A1.963,1.963,0,0,1,268.186,104.061Z" transform="translate(-164.85 -46.168)" fill="#3a3847"/>
        <path id="Trazado_104057" data-name="Trazado 104057" d="M244.709,109.032a1.945,1.945,0,0,1-1.072-.319,1.965,1.965,0,0,1-.576-2.719l6.064-9.324a1.965,1.965,0,0,1,3.295,2.143l-6.064,9.324A1.959,1.959,0,0,1,244.709,109.032Z" transform="translate(-152.914 -48.697)" fill="#3a3847"/>
        <path id="Trazado_104058" data-name="Trazado 104058" d="M221.233,114a1.945,1.945,0,0,1-1.072-.319,1.965,1.965,0,0,1-.576-2.719l6.064-9.324a1.965,1.965,0,1,1,3.295,2.143l-6.064,9.324A1.961,1.961,0,0,1,221.233,114Z" transform="translate(-140.977 -51.222)" fill="#3a3847"/>
        <path id="Trazado_104059" data-name="Trazado 104059" d="M205.966,135.865A1.965,1.965,0,0,1,204,133.9v-3.933a1.966,1.966,0,0,1,3.932,0V133.9A1.965,1.965,0,0,1,205.966,135.865Z" transform="translate(-133.215 -65.08)" fill="#3a3847"/>
        <path id="Trazado_104060" data-name="Trazado 104060" d="M193.768,131.932H181.974a1.966,1.966,0,0,1,0-3.932h11.794a1.966,1.966,0,1,1,0,3.932Z" transform="translate(-121.017 -65.08)" fill="#3a3847"/>
        <path id="Trazado_104061" data-name="Trazado 104061" d="M276.751,195.932H205.966a1.966,1.966,0,0,1,0-3.932h70.785a1.966,1.966,0,1,1,0,3.932Z" transform="translate(-133.215 -97.62)" fill="#3a3847"/>
        <path id="Trazado_104062" data-name="Trazado 104062" d="M276.751,227.932H205.966a1.966,1.966,0,1,1,0-3.932h70.785a1.966,1.966,0,1,1,0,3.932Z" transform="translate(-133.215 -113.89)" fill="#3a3847"/>
        <path id="Trazado_104063" data-name="Trazado 104063" d="M276.346,323.932h-94.38a1.966,1.966,0,0,1,0-3.932h94.38a1.966,1.966,0,1,1,0,3.932Z" transform="translate(-121.013 -162.7)" fill="#3a3847"/>
        <path id="Trazado_104064" data-name="Trazado 104064" d="M276.346,347.932h-94.38a1.966,1.966,0,1,1,0-3.932h94.38a1.966,1.966,0,1,1,0,3.932Z" transform="translate(-121.013 -174.903)" fill="#3a3847"/>
        <path id="Trazado_104065" data-name="Trazado 104065" d="M277.021,371.932H221.966a1.966,1.966,0,1,1,0-3.932h55.055a1.966,1.966,0,0,1,0,3.932Z" transform="translate(-141.35 -187.105)" fill="#3a3847"/>
        <path id="Trazado_104066" data-name="Trazado 104066" d="M157.7,443.932h-15.73a1.966,1.966,0,1,1,0-3.932H157.7a1.966,1.966,0,1,1,0,3.932Z" transform="translate(-100.675 -223.713)" fill="#3a3847"/>
        <path id="Trazado_104067" data-name="Trazado 104067" d="M397.7,443.932h-15.73a1.966,1.966,0,1,1,0-3.932H397.7a1.966,1.966,0,1,1,0,3.932Z" transform="translate(-222.7 -223.713)" fill="#3a3847"/>
        <path id="Trazado_104068" data-name="Trazado 104068" d="M109.966,236.085A1.965,1.965,0,0,1,108,234.119V9.966a1.966,1.966,0,1,1,3.932,0V234.119A1.965,1.965,0,0,1,109.966,236.085Z" transform="translate(-84.405 -4.068)" fill="#3a3847"/>
      </g>
    </g>
  </g>
</svg>
