<svg xmlns="http://www.w3.org/2000/svg" width="800.773" height="411.698" viewBox="0 0 800.773 411.698">
  <g id="Grupo_58565" data-name="Grupo 58565" transform="translate(-450 -2738.302)">
    <g id="Grupo_57233" data-name="Grupo 57233" transform="translate(290.95 2590.309)">
      <g id="Grupo_57224" data-name="Grupo 57224" transform="translate(186.502 169.138)">
        <g id="Grupo_57220" data-name="Grupo 57220" transform="translate(104.78)">
          <path id="Trazado_102978" data-name="Trazado 102978" d="M422.573,118.786A366.341,366.341,0,0,0,162.652,226.362L422.573,486.283Z" transform="translate(-153.103 -112.034)" fill="#fed55f"/>
          <path id="Trazado_102979" data-name="Trazado 102979" d="M435.391,506.876,159.169,230.651l4.773-4.773c70.648-70.651,164.651-109.556,264.7-109.556h6.752ZM178.31,230.7,421.886,474.272V129.888A358.182,358.182,0,0,0,178.31,230.7Z" transform="translate(-159.169 -116.323)" fill="#fff"/>
        </g>
        <g id="Grupo_57221" data-name="Grupo 57221" transform="translate(367.497)">
          <path id="Trazado_102980" data-name="Trazado 102980" d="M517.386,226.362A366.343,366.343,0,0,0,257.462,118.786v367.5Z" transform="translate(-250.71 -112.034)" fill="#01549e"/>
          <path id="Trazado_102981" data-name="Trazado 102981" d="M255,506.876V116.323h6.752c100.045,0,194.051,38.9,264.7,109.556l4.773,4.773Zm13.5-376.988V474.272L512.083,230.7A358.194,358.194,0,0,0,268.5,129.888Z" transform="translate(-254.999 -116.323)" fill="#fff"/>
        </g>
        <g id="Grupo_57222" data-name="Grupo 57222" transform="translate(0 104.78)">
          <path id="Trazado_102982" data-name="Trazado 102982" d="M230.988,158.026A366.336,366.336,0,0,0,123.412,417.947h367.5Z" transform="translate(-116.66 -148.477)" fill="#8ecae4"/>
          <path id="Trazado_102983" data-name="Trazado 102983" d="M511.5,430.765H120.949v-6.749c0-100.048,38.9-194.051,109.553-264.7l4.776-4.776Zm-376.988-13.5H478.9L235.321,173.684A358.169,358.169,0,0,0,134.514,417.263Z" transform="translate(-120.949 -154.543)" fill="#fff"/>
        </g>
        <g id="Grupo_57223" data-name="Grupo 57223" transform="translate(357.949 104.78)">
          <path id="Trazado_102984" data-name="Trazado 102984" d="M624.962,417.947A366.337,366.337,0,0,0,517.386,158.026L257.462,417.947Z" transform="translate(-241.161 -148.477)" fill="#bfeffc"/>
          <path id="Trazado_102985" data-name="Trazado 102985" d="M642.069,430.765H251.516L527.741,154.543l4.776,4.776c70.646,70.646,109.553,164.649,109.553,264.7Zm-357.949-13.5H628.5A358.194,358.194,0,0,0,527.7,173.684Z" transform="translate(-251.516 -154.543)" fill="#fff"/>
        </g>
      </g>
      <path id="Trazado_102986" data-name="Trazado 102986" d="M467.744,241.554A156.634,156.634,0,0,0,200.328,352.334H513.6A156.139,156.139,0,0,0,467.744,241.554Z" transform="translate(203.791 191.053)" fill="#fff"/>
      <g id="Grupo_57227" data-name="Grupo 57227" transform="translate(159.05 345.141)">
        <circle id="Elipse_4181" data-name="Elipse 4181" cx="64.669" cy="64.669" r="64.669" fill="#8ecae4"/>
      </g>
      <g id="Grupo_57229" data-name="Grupo 57229" transform="translate(830.485 345.141)">
        <circle id="Elipse_4183" data-name="Elipse 4183" cx="64.669" cy="64.669" r="64.669" fill="#bfeffc"/>
      </g>
      <g id="Grupo_57230" data-name="Grupo 57230" transform="translate(353.832 147.994)">
        <circle id="Elipse_4185" data-name="Elipse 4185" cx="64.669" cy="64.669" r="64.669" transform="translate(0)" fill="#fed55f"/>
      </g>
      <g id="Grupo_57232" data-name="Grupo 57232" transform="translate(614.839 135.291)">
        <circle id="Elipse_4187" data-name="Elipse 4187" cx="64.669" cy="64.669" r="64.669" transform="translate(12.703 12.703)" fill="#01549e"/>
      </g>
    </g>
    <path id="Trazado_105321" data-name="Trazado 105321" d="M8.408-3.779a1.408,1.408,0,0,0-.532-1.172,6.615,6.615,0,0,0-1.87-.869,17.941,17.941,0,0,1-2.187-.869Q1.055-8.047,1.055-10.42A3.345,3.345,0,0,1,1.743-12.5a4.453,4.453,0,0,1,1.948-1.406,7.582,7.582,0,0,1,2.832-.5,6.632,6.632,0,0,1,2.749.547,4.352,4.352,0,0,1,1.89,1.558A4.068,4.068,0,0,1,11.836-10H8.418a1.719,1.719,0,0,0-.532-1.348,2.075,2.075,0,0,0-1.44-.479A2.339,2.339,0,0,0,5-11.421a1.243,1.243,0,0,0-.532,1.03,1.252,1.252,0,0,0,.586.991,7.389,7.389,0,0,0,2.061.918A12.623,12.623,0,0,1,9.531-7.461a4.07,4.07,0,0,1,2.3,3.662A3.472,3.472,0,0,1,10.43-.869,6.255,6.255,0,0,1,6.572.2a7.653,7.653,0,0,1-3.13-.62,4.719,4.719,0,0,1-2.109-1.7A4.428,4.428,0,0,1,.625-4.609H4.063a2.181,2.181,0,0,0,.591,1.685,2.793,2.793,0,0,0,1.919.542,2.206,2.206,0,0,0,1.343-.366A1.209,1.209,0,0,0,8.408-3.779Zm8.867-9.414v2.627h1.738v2.285H17.275v4.834a1.234,1.234,0,0,0,.215.83,1.152,1.152,0,0,0,.85.234,4.828,4.828,0,0,0,.82-.059V-.088A6.074,6.074,0,0,1,17.3.2a3.448,3.448,0,0,1-2.51-.8,3.282,3.282,0,0,1-.811-2.432V-8.281H12.637v-2.285h1.348v-2.627ZM19.6-5.381A6.236,6.236,0,0,1,20.215-8.2a4.4,4.4,0,0,1,1.768-1.9,5.323,5.323,0,0,1,2.705-.664,4.858,4.858,0,0,1,3.74,1.47,5.64,5.64,0,0,1,1.367,4v.117a5.472,5.472,0,0,1-1.372,3.921A4.871,4.871,0,0,1,24.707.2a4.927,4.927,0,0,1-3.623-1.353,5.29,5.29,0,0,1-1.475-3.667Zm3.291.205a3.932,3.932,0,0,0,.459,2.148,1.529,1.529,0,0,0,1.357.684q1.758,0,1.8-2.705v-.332q0-2.842-1.816-2.842-1.65,0-1.787,2.451ZM37.637-7.588l-1.084-.078a1.947,1.947,0,0,0-1.992.977V0H31.27V-10.566h3.086l.107,1.357a2.548,2.548,0,0,1,2.314-1.553,3.209,3.209,0,0,1,.918.117Zm5.586,2.979,1.758-5.957h3.525L44.2,1.768l-.186.449a3.272,3.272,0,0,1-3.242,2.051,5.158,5.158,0,0,1-1.357-.195V1.729h.43a2.251,2.251,0,0,0,1.06-.2A1.216,1.216,0,0,0,41.445.81l.264-.7L38.037-10.566h3.516ZM59.17-5.2A6.44,6.44,0,0,1,58.1-1.2,3.6,3.6,0,0,1,55.068.2a3.122,3.122,0,0,1-2.6-1.279L52.334,0H49.385V-15h3.291v5.283a3.013,3.013,0,0,1,2.373-1.045A3.6,3.6,0,0,1,58.1-9.346,6.473,6.473,0,0,1,59.17-5.361Zm-3.3-.21a4.3,4.3,0,0,0-.405-2.169,1.366,1.366,0,0,0-1.245-.648,1.576,1.576,0,0,0-1.543.848v4.192a1.585,1.585,0,0,0,1.563.838,1.4,1.4,0,0,0,1.475-1.131A8.121,8.121,0,0,0,55.869-5.405Zm4.336.024A6.236,6.236,0,0,1,60.82-8.2a4.4,4.4,0,0,1,1.768-1.9,5.323,5.323,0,0,1,2.705-.664,4.858,4.858,0,0,1,3.74,1.47,5.64,5.64,0,0,1,1.367,4v.117a5.472,5.472,0,0,1-1.372,3.921A4.871,4.871,0,0,1,65.313.2a4.927,4.927,0,0,1-3.623-1.353,5.29,5.29,0,0,1-1.475-3.667Zm3.291.205a3.932,3.932,0,0,0,.459,2.148,1.529,1.529,0,0,0,1.357.684q1.758,0,1.8-2.705v-.332q0-2.842-1.816-2.842-1.65,0-1.787,2.451ZM77.8,0a3.716,3.716,0,0,1-.312-.947A3.06,3.06,0,0,1,74.951.2a3.749,3.749,0,0,1-2.539-.9,2.875,2.875,0,0,1-1.045-2.271,2.955,2.955,0,0,1,1.27-2.6,6.468,6.468,0,0,1,3.691-.879h1.016v-.559q0-1.462-1.26-1.462a1.03,1.03,0,0,0-1.172,1.158H71.621a2.95,2.95,0,0,1,1.3-2.487,5.479,5.479,0,0,1,3.325-.956,4.8,4.8,0,0,1,3.193.986,3.429,3.429,0,0,1,1.2,2.705v4.678a4.79,4.79,0,0,0,.449,2.227V0ZM75.742-2.148a1.836,1.836,0,0,0,1.021-.264,1.653,1.653,0,0,0,.581-.6V-4.7h-.957q-1.719,0-1.719,1.543a.942.942,0,0,0,.3.728A1.1,1.1,0,0,0,75.742-2.148ZM88.857-7.588l-1.084-.078a1.947,1.947,0,0,0-1.992.977V0H82.49V-10.566h3.086l.107,1.357A2.548,2.548,0,0,1,88-10.762a3.209,3.209,0,0,1,.918.117Zm.586,2.227a6.455,6.455,0,0,1,1.084-3.955,3.568,3.568,0,0,1,3.027-1.445,3.035,3.035,0,0,1,2.383,1.113V-15h3.3V0H96.279l-.166-1.133A3.116,3.116,0,0,1,93.535.2,3.562,3.562,0,0,1,90.547-1.25,6.659,6.659,0,0,1,89.443-5.361Zm3.291.205q0,2.813,1.641,2.813a1.62,1.62,0,0,0,1.563-.918V-7.285a1.576,1.576,0,0,0-1.543-.937q-1.523,0-1.65,2.461ZM6.875,27a3.716,3.716,0,0,1-.312-.947A3.06,3.06,0,0,1,4.023,27.2a3.749,3.749,0,0,1-2.539-.9A2.875,2.875,0,0,1,.439,24.021a2.955,2.955,0,0,1,1.27-2.6A6.468,6.468,0,0,1,5.4,20.545H6.416v-.559q0-1.462-1.26-1.462a1.03,1.03,0,0,0-1.172,1.158H.693A2.95,2.95,0,0,1,2,17.194a5.479,5.479,0,0,1,3.325-.956,4.8,4.8,0,0,1,3.193.986,3.429,3.429,0,0,1,1.2,2.705v4.678a4.79,4.79,0,0,0,.449,2.227V27ZM4.814,24.852a1.836,1.836,0,0,0,1.021-.264,1.653,1.653,0,0,0,.581-.6V22.3H5.459q-1.719,0-1.719,1.543a.942.942,0,0,0,.3.728A1.1,1.1,0,0,0,4.814,24.852Zm9.746-8.418.107,1.24a3.583,3.583,0,0,1,3.018-1.436,3.015,3.015,0,0,1,2.466.986A4.7,4.7,0,0,1,21,20.193V27H17.7V20.33a1.783,1.783,0,0,0-.322-1.177,1.491,1.491,0,0,0-1.172-.376,1.569,1.569,0,0,0-1.436.762V27H11.475V16.434ZM26.289,27h-3.3V16.434h3.3Zm-3.5-13.3A1.482,1.482,0,0,1,23.3,12.54a2.149,2.149,0,0,1,2.637,0,1.577,1.577,0,0,1,0,2.319,2.149,2.149,0,0,1-2.637,0A1.482,1.482,0,0,1,22.793,13.7Zm8.633,2.734.107,1.24a3.633,3.633,0,0,1,3.018-1.436,2.675,2.675,0,0,1,2.705,1.592,3.517,3.517,0,0,1,3.105-1.592q3.213,0,3.3,3.887V27h-3.3V20.33a2.014,2.014,0,0,0-.273-1.182,1.164,1.164,0,0,0-1-.371,1.559,1.559,0,0,0-1.455.869l.01.137V27h-3.3V20.35a2.117,2.117,0,0,0-.264-1.2,1.161,1.161,0,0,0-1.006-.371,1.578,1.578,0,0,0-1.445.869V27H28.34V16.434ZM51.494,27a3.716,3.716,0,0,1-.312-.947A3.06,3.06,0,0,1,48.643,27.2a3.749,3.749,0,0,1-2.539-.9,2.875,2.875,0,0,1-1.045-2.271,2.955,2.955,0,0,1,1.27-2.6,6.468,6.468,0,0,1,3.691-.879h1.016v-.559q0-1.462-1.26-1.462A1.03,1.03,0,0,0,48.6,19.681H45.313a2.95,2.95,0,0,1,1.3-2.487,5.479,5.479,0,0,1,3.325-.956,4.8,4.8,0,0,1,3.193.986,3.429,3.429,0,0,1,1.2,2.705v4.678a4.79,4.79,0,0,0,.449,2.227V27Zm-2.061-2.148a1.836,1.836,0,0,0,1.021-.264,1.653,1.653,0,0,0,.581-.6V22.3h-.957q-1.719,0-1.719,1.543a.942.942,0,0,0,.3.728A1.1,1.1,0,0,0,49.434,24.852Zm6.309-3.213a6.455,6.455,0,0,1,1.084-3.955,3.568,3.568,0,0,1,3.027-1.445,3.035,3.035,0,0,1,2.383,1.113V12h3.3V27H62.578l-.166-1.133A3.116,3.116,0,0,1,59.834,27.2a3.562,3.562,0,0,1-2.988-1.445A6.659,6.659,0,0,1,55.742,21.639Zm3.291.205q0,2.813,1.641,2.813a1.62,1.62,0,0,0,1.563-.918V19.715a1.576,1.576,0,0,0-1.543-.937q-1.523,0-1.65,2.461Zm7.959-.225a6.236,6.236,0,0,1,.615-2.817,4.4,4.4,0,0,1,1.768-1.9,5.323,5.323,0,0,1,2.705-.664,4.858,4.858,0,0,1,3.74,1.47,5.64,5.64,0,0,1,1.367,4v.117a5.472,5.472,0,0,1-1.372,3.921A4.871,4.871,0,0,1,72.1,27.2a4.927,4.927,0,0,1-3.623-1.353A5.29,5.29,0,0,1,67,22.176Zm3.291.205a3.932,3.932,0,0,0,.459,2.148,1.529,1.529,0,0,0,1.357.684q1.758,0,1.8-2.705v-.332q0-2.842-1.816-2.842-1.65,0-1.787,2.451Z" transform="translate(582.758 3041.304)" fill="#fff"/>
    <path id="Trazado_105320" data-name="Trazado 105320" d="M-41.685-3.779a1.408,1.408,0,0,0-.532-1.172,6.615,6.615,0,0,0-1.87-.869,17.942,17.942,0,0,1-2.187-.869q-2.764-1.357-2.764-3.73A3.345,3.345,0,0,1-48.35-12.5,4.453,4.453,0,0,1-46.4-13.911a7.582,7.582,0,0,1,2.832-.5,6.632,6.632,0,0,1,2.749.547,4.352,4.352,0,0,1,1.89,1.558A4.068,4.068,0,0,1-38.257-10h-3.418a1.719,1.719,0,0,0-.532-1.348,2.075,2.075,0,0,0-1.44-.479,2.339,2.339,0,0,0-1.45.405,1.243,1.243,0,0,0-.532,1.03,1.252,1.252,0,0,0,.586.991,7.389,7.389,0,0,0,2.061.918,12.623,12.623,0,0,1,2.422,1.021,4.07,4.07,0,0,1,2.3,3.662,3.472,3.472,0,0,1-1.406,2.93A6.255,6.255,0,0,1-43.521.2a7.653,7.653,0,0,1-3.13-.62,4.719,4.719,0,0,1-2.109-1.7,4.428,4.428,0,0,1-.708-2.485h3.438a2.181,2.181,0,0,0,.591,1.685,2.793,2.793,0,0,0,1.919.542,2.206,2.206,0,0,0,1.343-.366A1.209,1.209,0,0,0-41.685-3.779Zm8.867-9.414v2.627h1.738v2.285h-1.738v4.834a1.234,1.234,0,0,0,.215.83,1.152,1.152,0,0,0,.85.234,4.828,4.828,0,0,0,.82-.059V-.088A6.074,6.074,0,0,1-32.788.2a3.448,3.448,0,0,1-2.51-.8,3.282,3.282,0,0,1-.811-2.432V-8.281h-1.348v-2.285h1.348v-2.627Zm2.324,7.813A6.236,6.236,0,0,1-29.878-8.2a4.4,4.4,0,0,1,1.768-1.9,5.323,5.323,0,0,1,2.705-.664,4.858,4.858,0,0,1,3.74,1.47,5.64,5.64,0,0,1,1.367,4v.117A5.472,5.472,0,0,1-21.67-1.255,4.871,4.871,0,0,1-25.386.2a4.927,4.927,0,0,1-3.623-1.353,5.29,5.29,0,0,1-1.475-3.667Zm3.291.205a3.932,3.932,0,0,0,.459,2.148,1.529,1.529,0,0,0,1.357.684q1.758,0,1.8-2.705v-.332q0-2.842-1.816-2.842-1.65,0-1.787,2.451Zm14.746-2.412-1.084-.078a1.947,1.947,0,0,0-1.992.977V0h-3.291V-10.566h3.086l.107,1.357a2.548,2.548,0,0,1,2.314-1.553,3.209,3.209,0,0,1,.918.117ZM-6.87-4.609l1.758-5.957h3.525L-5.894,1.768l-.186.449A3.272,3.272,0,0,1-9.321,4.268a5.158,5.158,0,0,1-1.357-.195V1.729h.43a2.251,2.251,0,0,0,1.06-.2A1.216,1.216,0,0,0-8.647.81l.264-.7-3.672-10.673H-8.54ZM9.077-5.2A6.44,6.44,0,0,1,8-1.2,3.6,3.6,0,0,1,4.976.2a3.122,3.122,0,0,1-2.6-1.279L2.241,0H-.708V-15H2.583v5.283a3.013,3.013,0,0,1,2.373-1.045A3.6,3.6,0,0,1,8-9.346,6.473,6.473,0,0,1,9.077-5.361Zm-3.3-.21a4.3,4.3,0,0,0-.405-2.169,1.366,1.366,0,0,0-1.245-.648,1.576,1.576,0,0,0-1.543.848v4.192a1.585,1.585,0,0,0,1.563.838A1.4,1.4,0,0,0,5.62-3.475,8.121,8.121,0,0,0,5.776-5.405Zm4.336.024A6.236,6.236,0,0,1,10.728-8.2,4.4,4.4,0,0,1,12.5-10.1a5.323,5.323,0,0,1,2.705-.664,4.858,4.858,0,0,1,3.74,1.47,5.64,5.64,0,0,1,1.367,4v.117a5.472,5.472,0,0,1-1.372,3.921A4.871,4.871,0,0,1,15.22.2,4.927,4.927,0,0,1,11.6-1.157a5.29,5.29,0,0,1-1.475-3.667Zm3.291.205a3.932,3.932,0,0,0,.459,2.148,1.529,1.529,0,0,0,1.357.684q1.758,0,1.8-2.705v-.332q0-2.842-1.816-2.842-1.65,0-1.787,2.451ZM27.71,0A3.716,3.716,0,0,1,27.4-.947,3.06,3.06,0,0,1,24.858.2a3.749,3.749,0,0,1-2.539-.9,2.875,2.875,0,0,1-1.045-2.271,2.955,2.955,0,0,1,1.27-2.6,6.468,6.468,0,0,1,3.691-.879h1.016v-.559q0-1.462-1.26-1.462a1.03,1.03,0,0,0-1.172,1.158H21.528a2.95,2.95,0,0,1,1.3-2.487,5.479,5.479,0,0,1,3.325-.956,4.8,4.8,0,0,1,3.193.986,3.429,3.429,0,0,1,1.2,2.705v4.678A4.79,4.79,0,0,0,31-.166V0ZM25.649-2.148a1.836,1.836,0,0,0,1.021-.264,1.653,1.653,0,0,0,.581-.6V-4.7h-.957q-1.719,0-1.719,1.543a.942.942,0,0,0,.3.728A1.1,1.1,0,0,0,25.649-2.148ZM38.765-7.588l-1.084-.078a1.947,1.947,0,0,0-1.992.977V0H32.4V-10.566h3.086l.107,1.357a2.548,2.548,0,0,1,2.314-1.553,3.209,3.209,0,0,1,.918.117Zm.586,2.227a6.455,6.455,0,0,1,1.084-3.955,3.568,3.568,0,0,1,3.027-1.445,3.035,3.035,0,0,1,2.383,1.113V-15h3.3V0H46.187l-.166-1.133A3.116,3.116,0,0,1,43.442.2,3.562,3.562,0,0,1,40.454-1.25,6.659,6.659,0,0,1,39.351-5.361Zm3.291.205q0,2.813,1.641,2.813a1.62,1.62,0,0,0,1.563-.918V-7.285A1.576,1.576,0,0,0,44.3-8.223q-1.523,0-1.65,2.461ZM-46.787,21.639A6.455,6.455,0,0,1-45.7,17.684a3.568,3.568,0,0,1,3.027-1.445,3.035,3.035,0,0,1,2.383,1.113V12h3.3V27h-2.959l-.166-1.133A3.116,3.116,0,0,1-42.7,27.2a3.562,3.562,0,0,1-2.988-1.445A6.659,6.659,0,0,1-46.787,21.639Zm3.291.205q0,2.813,1.641,2.813a1.62,1.62,0,0,0,1.563-.918V19.715a1.576,1.576,0,0,0-1.543-.937q-1.523,0-1.65,2.461ZM-31.65,27h-3.3V16.434h3.3Zm-3.5-13.3a1.482,1.482,0,0,1,.508-1.159,1.909,1.909,0,0,1,1.318-.452A1.909,1.909,0,0,1-32,12.54a1.482,1.482,0,0,1,.508,1.159A1.482,1.482,0,0,1-32,14.859a1.909,1.909,0,0,1-1.318.452,1.909,1.909,0,0,1-1.318-.452A1.482,1.482,0,0,1-35.146,13.7Zm5.137,7.939a7.134,7.134,0,0,1,.527-2.832,4.245,4.245,0,0,1,1.514-1.9,3.99,3.99,0,0,1,2.295-.669A3.173,3.173,0,0,1-23.1,17.352l.117-.918h2.988V26.6a4.455,4.455,0,0,1-.649,2.427,4.167,4.167,0,0,1-1.88,1.582,6.91,6.91,0,0,1-2.852.552,5.961,5.961,0,0,1-2.251-.439,4.063,4.063,0,0,1-1.665-1.143l1.377-1.934a3.018,3.018,0,0,0,2.422,1.084A1.96,1.96,0,0,0-23.3,26.482V26.15A3.09,3.09,0,0,1-25.693,27.2a3.819,3.819,0,0,1-3.125-1.479,6.13,6.13,0,0,1-1.191-3.96Zm3.3.205a3.759,3.759,0,0,0,.488,2.056,1.541,1.541,0,0,0,1.367.757,1.748,1.748,0,0,0,1.553-.713V19.5a1.7,1.7,0,0,0-1.533-.723,1.551,1.551,0,0,0-1.377.786A4.287,4.287,0,0,0-26.709,21.844ZM-14.648,27h-3.3V16.434h3.3Zm-3.5-13.3a1.482,1.482,0,0,1,.508-1.159,1.909,1.909,0,0,1,1.318-.452A1.909,1.909,0,0,1-15,12.54a1.482,1.482,0,0,1,.508,1.159A1.482,1.482,0,0,1-15,14.859a1.909,1.909,0,0,1-1.318.452,1.909,1.909,0,0,1-1.318-.452A1.482,1.482,0,0,1-18.145,13.7Zm8.633,2.734.107,1.24a3.633,3.633,0,0,1,3.018-1.436A2.675,2.675,0,0,1-3.682,17.83,3.517,3.517,0,0,1-.576,16.238q3.213,0,3.3,3.887V27h-3.3V20.33A2.014,2.014,0,0,0-.85,19.148a1.164,1.164,0,0,0-1-.371,1.559,1.559,0,0,0-1.455.869l.01.137V27h-3.3V20.35a2.117,2.117,0,0,0-.264-1.2,1.161,1.161,0,0,0-1.006-.371,1.578,1.578,0,0,0-1.445.869V27H-12.6V16.434ZM10.557,27a3.716,3.716,0,0,1-.312-.947A3.06,3.06,0,0,1,7.705,27.2a3.749,3.749,0,0,1-2.539-.9,2.875,2.875,0,0,1-1.045-2.271,2.955,2.955,0,0,1,1.27-2.6,6.468,6.468,0,0,1,3.691-.879H10.1v-.559q0-1.462-1.26-1.462a1.03,1.03,0,0,0-1.172,1.158H4.375a2.95,2.95,0,0,1,1.3-2.487A5.479,5.479,0,0,1,9,16.238a4.8,4.8,0,0,1,3.193.986,3.429,3.429,0,0,1,1.2,2.705v4.678a4.79,4.79,0,0,0,.449,2.227V27ZM8.5,24.852a1.836,1.836,0,0,0,1.021-.264,1.653,1.653,0,0,0,.581-.6V22.3H9.141q-1.719,0-1.719,1.543a.942.942,0,0,0,.3.728A1.1,1.1,0,0,0,8.5,24.852ZM19.053,13.807v2.627h1.738v2.285H19.053v4.834a1.234,1.234,0,0,0,.215.83,1.152,1.152,0,0,0,.85.234,4.828,4.828,0,0,0,.82-.059v2.354a6.074,6.074,0,0,1-1.855.283,3.448,3.448,0,0,1-2.51-.8,3.282,3.282,0,0,1-.811-2.432V18.719H14.414V16.434h1.348V13.807ZM25.557,27h-3.3V16.434h3.3Zm-3.5-13.3a1.482,1.482,0,0,1,.508-1.159,2.149,2.149,0,0,1,2.637,0,1.577,1.577,0,0,1,0,2.319,2.149,2.149,0,0,1-2.637,0A1.482,1.482,0,0,1,22.061,13.7Zm9.99,10.957a1.464,1.464,0,0,0,1.074-.376,1.379,1.379,0,0,0,.371-1.05h3.086a3.653,3.653,0,0,1-1.245,2.852A4.631,4.631,0,0,1,32.129,27.2,4.689,4.689,0,0,1,28.5,25.75a5.7,5.7,0,0,1-1.328-4v-.137a6.436,6.436,0,0,1,.591-2.827,4.3,4.3,0,0,1,1.7-1.885,5.081,5.081,0,0,1,2.637-.659,4.573,4.573,0,0,1,3.271,1.143,4.053,4.053,0,0,1,1.211,3.1H33.5a1.807,1.807,0,0,0-.4-1.26,1.382,1.382,0,0,0-1.074-.439q-1.279,0-1.494,1.631a11.508,11.508,0,0,0-.068,1.426,4.52,4.52,0,0,0,.381,2.207A1.319,1.319,0,0,0,32.051,24.656Zm11.455-.625a.76.76,0,0,0-.439-.674,6.684,6.684,0,0,0-1.67-.527,7.615,7.615,0,0,1-2.031-.718,3.4,3.4,0,0,1-1.221-1.079,2.577,2.577,0,0,1-.42-1.455,2.92,2.92,0,0,1,1.2-2.4,4.948,4.948,0,0,1,3.145-.942,5.482,5.482,0,0,1,3.359.947,2.962,2.962,0,0,1,1.27,2.49H43.4q0-1.27-1.338-1.27a1.326,1.326,0,0,0-.869.288.892.892,0,0,0-.352.718.819.819,0,0,0,.43.713,4.06,4.06,0,0,0,1.372.449,11.857,11.857,0,0,1,1.655.42,3.007,3.007,0,0,1,2.383,2.939A2.767,2.767,0,0,1,45.4,26.287a5.632,5.632,0,0,1-3.325.908,5.747,5.747,0,0,1-2.422-.488,4.05,4.05,0,0,1-1.66-1.328,3.007,3.007,0,0,1-.6-1.768h3.076a1.272,1.272,0,0,0,.488,1.069,2.009,2.009,0,0,0,1.2.337,1.58,1.58,0,0,0,1.011-.273A.875.875,0,0,0,43.506,24.031Z" transform="translate(761.758 2912.304)" fill="#12263f"/>
    <path id="Trazado_105319" data-name="Trazado 105319" d="M-41.685-3.779a1.408,1.408,0,0,0-.532-1.172,6.615,6.615,0,0,0-1.87-.869,17.942,17.942,0,0,1-2.187-.869q-2.764-1.357-2.764-3.73A3.345,3.345,0,0,1-48.35-12.5,4.453,4.453,0,0,1-46.4-13.911a7.582,7.582,0,0,1,2.832-.5,6.632,6.632,0,0,1,2.749.547,4.352,4.352,0,0,1,1.89,1.558A4.068,4.068,0,0,1-38.257-10h-3.418a1.719,1.719,0,0,0-.532-1.348,2.075,2.075,0,0,0-1.44-.479,2.339,2.339,0,0,0-1.45.405,1.243,1.243,0,0,0-.532,1.03,1.252,1.252,0,0,0,.586.991,7.389,7.389,0,0,0,2.061.918,12.623,12.623,0,0,1,2.422,1.021,4.07,4.07,0,0,1,2.3,3.662,3.472,3.472,0,0,1-1.406,2.93A6.255,6.255,0,0,1-43.521.2a7.653,7.653,0,0,1-3.13-.62,4.719,4.719,0,0,1-2.109-1.7,4.428,4.428,0,0,1-.708-2.485h3.438a2.181,2.181,0,0,0,.591,1.685,2.793,2.793,0,0,0,1.919.542,2.206,2.206,0,0,0,1.343-.366A1.209,1.209,0,0,0-41.685-3.779Zm8.867-9.414v2.627h1.738v2.285h-1.738v4.834a1.234,1.234,0,0,0,.215.83,1.152,1.152,0,0,0,.85.234,4.828,4.828,0,0,0,.82-.059V-.088A6.074,6.074,0,0,1-32.788.2a3.448,3.448,0,0,1-2.51-.8,3.282,3.282,0,0,1-.811-2.432V-8.281h-1.348v-2.285h1.348v-2.627Zm2.324,7.813A6.236,6.236,0,0,1-29.878-8.2a4.4,4.4,0,0,1,1.768-1.9,5.323,5.323,0,0,1,2.705-.664,4.858,4.858,0,0,1,3.74,1.47,5.64,5.64,0,0,1,1.367,4v.117A5.472,5.472,0,0,1-21.67-1.255,4.871,4.871,0,0,1-25.386.2a4.927,4.927,0,0,1-3.623-1.353,5.29,5.29,0,0,1-1.475-3.667Zm3.291.205a3.932,3.932,0,0,0,.459,2.148,1.529,1.529,0,0,0,1.357.684q1.758,0,1.8-2.705v-.332q0-2.842-1.816-2.842-1.65,0-1.787,2.451Zm14.746-2.412-1.084-.078a1.947,1.947,0,0,0-1.992.977V0h-3.291V-10.566h3.086l.107,1.357a2.548,2.548,0,0,1,2.314-1.553,3.209,3.209,0,0,1,.918.117ZM-6.87-4.609l1.758-5.957h3.525L-5.894,1.768l-.186.449A3.272,3.272,0,0,1-9.321,4.268a5.158,5.158,0,0,1-1.357-.195V1.729h.43a2.251,2.251,0,0,0,1.06-.2A1.216,1.216,0,0,0-8.647.81l.264-.7-3.672-10.673H-8.54ZM9.077-5.2A6.44,6.44,0,0,1,8-1.2,3.6,3.6,0,0,1,4.976.2a3.122,3.122,0,0,1-2.6-1.279L2.241,0H-.708V-15H2.583v5.283a3.013,3.013,0,0,1,2.373-1.045A3.6,3.6,0,0,1,8-9.346,6.473,6.473,0,0,1,9.077-5.361Zm-3.3-.21a4.3,4.3,0,0,0-.405-2.169,1.366,1.366,0,0,0-1.245-.648,1.576,1.576,0,0,0-1.543.848v4.192a1.585,1.585,0,0,0,1.563.838A1.4,1.4,0,0,0,5.62-3.475,8.121,8.121,0,0,0,5.776-5.405Zm4.336.024A6.236,6.236,0,0,1,10.728-8.2,4.4,4.4,0,0,1,12.5-10.1a5.323,5.323,0,0,1,2.705-.664,4.858,4.858,0,0,1,3.74,1.47,5.64,5.64,0,0,1,1.367,4v.117a5.472,5.472,0,0,1-1.372,3.921A4.871,4.871,0,0,1,15.22.2,4.927,4.927,0,0,1,11.6-1.157a5.29,5.29,0,0,1-1.475-3.667Zm3.291.205a3.932,3.932,0,0,0,.459,2.148,1.529,1.529,0,0,0,1.357.684q1.758,0,1.8-2.705v-.332q0-2.842-1.816-2.842-1.65,0-1.787,2.451ZM27.71,0A3.716,3.716,0,0,1,27.4-.947,3.06,3.06,0,0,1,24.858.2a3.749,3.749,0,0,1-2.539-.9,2.875,2.875,0,0,1-1.045-2.271,2.955,2.955,0,0,1,1.27-2.6,6.468,6.468,0,0,1,3.691-.879h1.016v-.559q0-1.462-1.26-1.462a1.03,1.03,0,0,0-1.172,1.158H21.528a2.95,2.95,0,0,1,1.3-2.487,5.479,5.479,0,0,1,3.325-.956,4.8,4.8,0,0,1,3.193.986,3.429,3.429,0,0,1,1.2,2.705v4.678A4.79,4.79,0,0,0,31-.166V0ZM25.649-2.148a1.836,1.836,0,0,0,1.021-.264,1.653,1.653,0,0,0,.581-.6V-4.7h-.957q-1.719,0-1.719,1.543a.942.942,0,0,0,.3.728A1.1,1.1,0,0,0,25.649-2.148ZM38.765-7.588l-1.084-.078a1.947,1.947,0,0,0-1.992.977V0H32.4V-10.566h3.086l.107,1.357a2.548,2.548,0,0,1,2.314-1.553,3.209,3.209,0,0,1,.918.117Zm.586,2.227a6.455,6.455,0,0,1,1.084-3.955,3.568,3.568,0,0,1,3.027-1.445,3.035,3.035,0,0,1,2.383,1.113V-15h3.3V0H46.187l-.166-1.133A3.116,3.116,0,0,1,43.442.2,3.562,3.562,0,0,1,40.454-1.25,6.659,6.659,0,0,1,39.351-5.361Zm3.291.205q0,2.813,1.641,2.813a1.62,1.62,0,0,0,1.563-.918V-7.285A1.576,1.576,0,0,0,44.3-8.223q-1.523,0-1.65,2.461Zm-103.9,26.795a6.455,6.455,0,0,1,1.084-3.955,3.568,3.568,0,0,1,3.027-1.445,3.035,3.035,0,0,1,2.383,1.113V12h3.3V27h-2.959l-.166-1.133A3.116,3.116,0,0,1-57.163,27.2a3.562,3.562,0,0,1-2.988-1.445A6.659,6.659,0,0,1-61.255,21.639Zm3.291.205q0,2.813,1.641,2.813a1.62,1.62,0,0,0,1.563-.918V19.715a1.576,1.576,0,0,0-1.543-.937q-1.523,0-1.65,2.461ZM-44.478,27.2a5.432,5.432,0,0,1-3.936-1.45,5.008,5.008,0,0,1-1.5-3.774V21.7a6.489,6.489,0,0,1,.6-2.861,4.395,4.395,0,0,1,1.753-1.919,5.292,5.292,0,0,1,2.734-.679,4.574,4.574,0,0,1,3.516,1.382,5.43,5.43,0,0,1,1.289,3.853v1.279h-6.543a2.372,2.372,0,0,0,.771,1.4,2.3,2.3,0,0,0,1.543.508,2.958,2.958,0,0,0,2.441-1.094l1.5,1.777a4.2,4.2,0,0,1-1.743,1.353A5.891,5.891,0,0,1-44.478,27.2Zm-.371-8.418q-1.445,0-1.719,1.914h3.32v-.254a1.63,1.63,0,0,0-.4-1.226A1.593,1.593,0,0,0-44.849,18.777Zm14.238-2.344.107,1.24a3.633,3.633,0,0,1,3.018-1.436A2.675,2.675,0,0,1-24.78,17.83a3.517,3.517,0,0,1,3.105-1.592q3.213,0,3.3,3.887V27h-3.3V20.33a2.014,2.014,0,0,0-.273-1.182,1.164,1.164,0,0,0-1-.371,1.559,1.559,0,0,0-1.455.869l.01.137V27h-3.3V20.35a2.117,2.117,0,0,0-.264-1.2,1.161,1.161,0,0,0-1.006-.371,1.578,1.578,0,0,0-1.445.869V27H-33.7V16.434ZM-13.022,27h-3.3V16.434h3.3Zm-3.5-13.3a1.482,1.482,0,0,1,.508-1.159,1.909,1.909,0,0,1,1.318-.452,1.909,1.909,0,0,1,1.318.452,1.482,1.482,0,0,1,.508,1.159,1.482,1.482,0,0,1-.508,1.159,1.909,1.909,0,0,1-1.318.452,1.909,1.909,0,0,1-1.318-.452A1.482,1.482,0,0,1-16.519,13.7Zm8.545,2.734.107,1.24a3.583,3.583,0,0,1,3.018-1.436,3.015,3.015,0,0,1,2.466.986,4.7,4.7,0,0,1,.845,2.969V27h-3.3V20.33a1.783,1.783,0,0,0-.322-1.177,1.491,1.491,0,0,0-1.172-.376,1.569,1.569,0,0,0-1.436.762V27H-11.06V16.434ZM3.755,27H.454V16.434h3.3ZM.259,13.7A1.482,1.482,0,0,1,.767,12.54a1.909,1.909,0,0,1,1.318-.452A1.909,1.909,0,0,1,3.4,12.54a1.577,1.577,0,0,1,0,2.319,1.909,1.909,0,0,1-1.318.452,1.909,1.909,0,0,1-1.318-.452A1.482,1.482,0,0,1,.259,13.7ZM11.733,27a3.716,3.716,0,0,1-.312-.947A3.06,3.06,0,0,1,8.882,27.2a3.749,3.749,0,0,1-2.539-.9A2.875,2.875,0,0,1,5.3,24.021a2.955,2.955,0,0,1,1.27-2.6,6.468,6.468,0,0,1,3.691-.879h1.016v-.559q0-1.462-1.26-1.462a1.03,1.03,0,0,0-1.172,1.158H5.552a2.95,2.95,0,0,1,1.3-2.487,5.479,5.479,0,0,1,3.325-.956,4.8,4.8,0,0,1,3.193.986,3.429,3.429,0,0,1,1.2,2.705v4.678a4.79,4.79,0,0,0,.449,2.227V27ZM9.673,24.852a1.836,1.836,0,0,0,1.021-.264,1.653,1.653,0,0,0,.581-.6V22.3h-.957Q8.6,22.3,8.6,23.846a.942.942,0,0,0,.3.728A1.1,1.1,0,0,0,9.673,24.852ZM20.229,13.807v2.627h1.738v2.285H20.229v4.834a1.234,1.234,0,0,0,.215.83,1.152,1.152,0,0,0,.85.234,4.828,4.828,0,0,0,.82-.059v2.354a6.074,6.074,0,0,1-1.855.283,3.448,3.448,0,0,1-2.51-.8,3.282,3.282,0,0,1-.811-2.432V18.719H15.591V16.434h1.348V13.807Zm9.326,12.051A3.393,3.393,0,0,1,26.733,27.2,3.328,3.328,0,0,1,24.1,26.185a4.251,4.251,0,0,1-.894-2.905V16.434H26.5V23.3a1.183,1.183,0,0,0,1.318,1.357,1.72,1.72,0,0,0,1.611-.811V16.434h3.311V27H29.653Zm11.377-6.445-1.084-.078a1.947,1.947,0,0,0-1.992.977V27H34.565V16.434h3.086l.107,1.357a2.548,2.548,0,0,1,2.314-1.553,3.209,3.209,0,0,1,.918.117ZM47.778,27a3.716,3.716,0,0,1-.312-.947A3.06,3.06,0,0,1,44.927,27.2a3.749,3.749,0,0,1-2.539-.9,2.875,2.875,0,0,1-1.045-2.271,2.955,2.955,0,0,1,1.27-2.6,6.468,6.468,0,0,1,3.691-.879h1.016v-.559q0-1.462-1.26-1.462a1.03,1.03,0,0,0-1.172,1.158H41.6a2.95,2.95,0,0,1,1.3-2.487,5.479,5.479,0,0,1,3.325-.956,4.8,4.8,0,0,1,3.193.986,3.429,3.429,0,0,1,1.2,2.705v4.678a4.79,4.79,0,0,0,.449,2.227V27Zm-2.061-2.148a1.836,1.836,0,0,0,1.021-.264,1.653,1.653,0,0,0,.581-.6V22.3h-.957q-1.719,0-1.719,1.543a.942.942,0,0,0,.3.728A1.1,1.1,0,0,0,45.718,24.852Zm12.256-.82a.76.76,0,0,0-.439-.674,6.684,6.684,0,0,0-1.67-.527,7.615,7.615,0,0,1-2.031-.718,3.4,3.4,0,0,1-1.221-1.079,2.577,2.577,0,0,1-.42-1.455,2.92,2.92,0,0,1,1.2-2.4,4.948,4.948,0,0,1,3.145-.942,5.482,5.482,0,0,1,3.359.947,2.962,2.962,0,0,1,1.27,2.49h-3.3q0-1.27-1.338-1.27a1.326,1.326,0,0,0-.869.288.892.892,0,0,0-.352.718.819.819,0,0,0,.43.713,4.06,4.06,0,0,0,1.372.449,11.857,11.857,0,0,1,1.655.42,3.007,3.007,0,0,1,2.383,2.939,2.767,2.767,0,0,1-1.284,2.354,5.632,5.632,0,0,1-3.325.908,5.747,5.747,0,0,1-2.422-.488,4.05,4.05,0,0,1-1.66-1.328,3.007,3.007,0,0,1-.6-1.768h3.076a1.272,1.272,0,0,0,.488,1.069,2.009,2.009,0,0,0,1.2.337,1.58,1.58,0,0,0,1.011-.273A.875.875,0,0,0,57.974,24.031Z" transform="translate(943.758 2912.304)" fill="#12263f"/>
    <path id="Trazado_105318" data-name="Trazado 105318" d="M-41.685-3.779a1.408,1.408,0,0,0-.532-1.172,6.615,6.615,0,0,0-1.87-.869,17.942,17.942,0,0,1-2.187-.869q-2.764-1.357-2.764-3.73A3.345,3.345,0,0,1-48.35-12.5,4.453,4.453,0,0,1-46.4-13.911a7.582,7.582,0,0,1,2.832-.5,6.632,6.632,0,0,1,2.749.547,4.352,4.352,0,0,1,1.89,1.558A4.068,4.068,0,0,1-38.257-10h-3.418a1.719,1.719,0,0,0-.532-1.348,2.075,2.075,0,0,0-1.44-.479,2.339,2.339,0,0,0-1.45.405,1.243,1.243,0,0,0-.532,1.03,1.252,1.252,0,0,0,.586.991,7.389,7.389,0,0,0,2.061.918,12.623,12.623,0,0,1,2.422,1.021,4.07,4.07,0,0,1,2.3,3.662,3.472,3.472,0,0,1-1.406,2.93A6.255,6.255,0,0,1-43.521.2a7.653,7.653,0,0,1-3.13-.62,4.719,4.719,0,0,1-2.109-1.7,4.428,4.428,0,0,1-.708-2.485h3.438a2.181,2.181,0,0,0,.591,1.685,2.793,2.793,0,0,0,1.919.542,2.206,2.206,0,0,0,1.343-.366A1.209,1.209,0,0,0-41.685-3.779Zm8.867-9.414v2.627h1.738v2.285h-1.738v4.834a1.234,1.234,0,0,0,.215.83,1.152,1.152,0,0,0,.85.234,4.828,4.828,0,0,0,.82-.059V-.088A6.074,6.074,0,0,1-32.788.2a3.448,3.448,0,0,1-2.51-.8,3.282,3.282,0,0,1-.811-2.432V-8.281h-1.348v-2.285h1.348v-2.627Zm2.324,7.813A6.236,6.236,0,0,1-29.878-8.2a4.4,4.4,0,0,1,1.768-1.9,5.323,5.323,0,0,1,2.705-.664,4.858,4.858,0,0,1,3.74,1.47,5.64,5.64,0,0,1,1.367,4v.117A5.472,5.472,0,0,1-21.67-1.255,4.871,4.871,0,0,1-25.386.2a4.927,4.927,0,0,1-3.623-1.353,5.29,5.29,0,0,1-1.475-3.667Zm3.291.205a3.932,3.932,0,0,0,.459,2.148,1.529,1.529,0,0,0,1.357.684q1.758,0,1.8-2.705v-.332q0-2.842-1.816-2.842-1.65,0-1.787,2.451Zm14.746-2.412-1.084-.078a1.947,1.947,0,0,0-1.992.977V0h-3.291V-10.566h3.086l.107,1.357a2.548,2.548,0,0,1,2.314-1.553,3.209,3.209,0,0,1,.918.117ZM-6.87-4.609l1.758-5.957h3.525L-5.894,1.768l-.186.449A3.272,3.272,0,0,1-9.321,4.268a5.158,5.158,0,0,1-1.357-.195V1.729h.43a2.251,2.251,0,0,0,1.06-.2A1.216,1.216,0,0,0-8.647.81l.264-.7-3.672-10.673H-8.54ZM9.077-5.2A6.44,6.44,0,0,1,8-1.2,3.6,3.6,0,0,1,4.976.2a3.122,3.122,0,0,1-2.6-1.279L2.241,0H-.708V-15H2.583v5.283a3.013,3.013,0,0,1,2.373-1.045A3.6,3.6,0,0,1,8-9.346,6.473,6.473,0,0,1,9.077-5.361Zm-3.3-.21a4.3,4.3,0,0,0-.405-2.169,1.366,1.366,0,0,0-1.245-.648,1.576,1.576,0,0,0-1.543.848v4.192a1.585,1.585,0,0,0,1.563.838A1.4,1.4,0,0,0,5.62-3.475,8.121,8.121,0,0,0,5.776-5.405Zm4.336.024A6.236,6.236,0,0,1,10.728-8.2,4.4,4.4,0,0,1,12.5-10.1a5.323,5.323,0,0,1,2.705-.664,4.858,4.858,0,0,1,3.74,1.47,5.64,5.64,0,0,1,1.367,4v.117a5.472,5.472,0,0,1-1.372,3.921A4.871,4.871,0,0,1,15.22.2,4.927,4.927,0,0,1,11.6-1.157a5.29,5.29,0,0,1-1.475-3.667Zm3.291.205a3.932,3.932,0,0,0,.459,2.148,1.529,1.529,0,0,0,1.357.684q1.758,0,1.8-2.705v-.332q0-2.842-1.816-2.842-1.65,0-1.787,2.451ZM27.71,0A3.716,3.716,0,0,1,27.4-.947,3.06,3.06,0,0,1,24.858.2a3.749,3.749,0,0,1-2.539-.9,2.875,2.875,0,0,1-1.045-2.271,2.955,2.955,0,0,1,1.27-2.6,6.468,6.468,0,0,1,3.691-.879h1.016v-.559q0-1.462-1.26-1.462a1.03,1.03,0,0,0-1.172,1.158H21.528a2.95,2.95,0,0,1,1.3-2.487,5.479,5.479,0,0,1,3.325-.956,4.8,4.8,0,0,1,3.193.986,3.429,3.429,0,0,1,1.2,2.705v4.678A4.79,4.79,0,0,0,31-.166V0ZM25.649-2.148a1.836,1.836,0,0,0,1.021-.264,1.653,1.653,0,0,0,.581-.6V-4.7h-.957q-1.719,0-1.719,1.543a.942.942,0,0,0,.3.728A1.1,1.1,0,0,0,25.649-2.148ZM38.765-7.588l-1.084-.078a1.947,1.947,0,0,0-1.992.977V0H32.4V-10.566h3.086l.107,1.357a2.548,2.548,0,0,1,2.314-1.553,3.209,3.209,0,0,1,.918.117Zm.586,2.227a6.455,6.455,0,0,1,1.084-3.955,3.568,3.568,0,0,1,3.027-1.445,3.035,3.035,0,0,1,2.383,1.113V-15h3.3V0H46.187l-.166-1.133A3.116,3.116,0,0,1,43.442.2,3.562,3.562,0,0,1,40.454-1.25,6.659,6.659,0,0,1,39.351-5.361Zm3.291.205q0,2.813,1.641,2.813a1.62,1.62,0,0,0,1.563-.918V-7.285A1.576,1.576,0,0,0,44.3-8.223q-1.523,0-1.65,2.461Zm-85.9,18.963v2.627h1.738v2.285h-1.738v4.834a1.234,1.234,0,0,0,.215.83,1.152,1.152,0,0,0,.85.234,4.828,4.828,0,0,0,.82-.059v2.354a6.074,6.074,0,0,1-1.855.283,3.448,3.448,0,0,1-2.51-.8,3.282,3.282,0,0,1-.811-2.432V18.719H-47.9V16.434h1.348V13.807Zm9.424,5.605-1.084-.078a1.947,1.947,0,0,0-1.992.977V27H-40.2V16.434h3.086l.107,1.357a2.548,2.548,0,0,1,2.314-1.553,3.209,3.209,0,0,1,.918.117ZM-26.987,27a3.716,3.716,0,0,1-.312-.947A3.06,3.06,0,0,1-29.839,27.2a3.749,3.749,0,0,1-2.539-.9,2.875,2.875,0,0,1-1.045-2.271,2.955,2.955,0,0,1,1.27-2.6,6.468,6.468,0,0,1,3.691-.879h1.016v-.559q0-1.462-1.26-1.462a1.03,1.03,0,0,0-1.172,1.158h-3.291a2.95,2.95,0,0,1,1.3-2.487,5.479,5.479,0,0,1,3.325-.956,4.8,4.8,0,0,1,3.193.986,3.429,3.429,0,0,1,1.2,2.705v4.678a4.79,4.79,0,0,0,.449,2.227V27Zm-2.061-2.148a1.836,1.836,0,0,0,1.021-.264,1.653,1.653,0,0,0,.581-.6V22.3H-28.4q-1.719,0-1.719,1.543a.942.942,0,0,0,.3.728A1.1,1.1,0,0,0-29.048,24.852Zm6.309-3.213a6.455,6.455,0,0,1,1.084-3.955,3.568,3.568,0,0,1,3.027-1.445,3.035,3.035,0,0,1,2.383,1.113V12h3.3V27H-15.9l-.166-1.133A3.116,3.116,0,0,1-18.647,27.2a3.562,3.562,0,0,1-2.988-1.445A6.659,6.659,0,0,1-22.739,21.639Zm3.291.205q0,2.813,1.641,2.813a1.62,1.62,0,0,0,1.563-.918V19.715a1.576,1.576,0,0,0-1.543-.937q-1.523,0-1.65,2.461ZM-7.6,27h-3.3V16.434h3.3Zm-3.5-13.3a1.482,1.482,0,0,1,.508-1.159,1.909,1.909,0,0,1,1.318-.452,1.909,1.909,0,0,1,1.318.452A1.482,1.482,0,0,1-7.446,13.7a1.482,1.482,0,0,1-.508,1.159,1.909,1.909,0,0,1-1.318.452,1.909,1.909,0,0,1-1.318-.452A1.482,1.482,0,0,1-11.1,13.7Zm9.99,10.957A1.464,1.464,0,0,0-.034,24.28a1.379,1.379,0,0,0,.371-1.05H3.423a3.653,3.653,0,0,1-1.245,2.852A4.631,4.631,0,0,1-1.03,27.2,4.689,4.689,0,0,1-4.663,25.75a5.7,5.7,0,0,1-1.328-4v-.137A6.436,6.436,0,0,1-5.4,18.782,4.3,4.3,0,0,1-3.7,16.9a5.081,5.081,0,0,1,2.637-.659,4.573,4.573,0,0,1,3.271,1.143,4.053,4.053,0,0,1,1.211,3.1H.337a1.807,1.807,0,0,0-.4-1.26,1.382,1.382,0,0,0-1.074-.439q-1.279,0-1.494,1.631A11.508,11.508,0,0,0-2.7,21.834a4.52,4.52,0,0,0,.381,2.207A1.319,1.319,0,0,0-1.108,24.656ZM8.286,27h-3.3V16.434h3.3ZM4.79,13.7A1.482,1.482,0,0,1,5.3,12.54a1.909,1.909,0,0,1,1.318-.452,1.909,1.909,0,0,1,1.318.452,1.577,1.577,0,0,1,0,2.319,1.909,1.909,0,0,1-1.318.452A1.909,1.909,0,0,1,5.3,14.859,1.482,1.482,0,0,1,4.79,13.7ZM9.9,21.619a6.236,6.236,0,0,1,.615-2.817,4.4,4.4,0,0,1,1.768-1.9,5.323,5.323,0,0,1,2.705-.664,4.858,4.858,0,0,1,3.74,1.47,5.64,5.64,0,0,1,1.367,4v.117a5.472,5.472,0,0,1-1.372,3.921A4.871,4.871,0,0,1,15,27.2a4.927,4.927,0,0,1-3.623-1.353,5.29,5.29,0,0,1-1.475-3.667Zm3.291.205a3.932,3.932,0,0,0,.459,2.148A1.529,1.529,0,0,0,15,24.656q1.758,0,1.8-2.705v-.332q0-2.842-1.816-2.842-1.65,0-1.787,2.451Zm11.377-5.391.107,1.24a3.583,3.583,0,0,1,3.018-1.436,3.015,3.015,0,0,1,2.466.986A4.7,4.7,0,0,1,31,20.193V27H27.7V20.33a1.783,1.783,0,0,0-.322-1.177,1.491,1.491,0,0,0-1.172-.376,1.569,1.569,0,0,0-1.436.762V27H21.479V16.434ZM38.774,27a3.716,3.716,0,0,1-.312-.947A3.06,3.06,0,0,1,35.923,27.2a3.749,3.749,0,0,1-2.539-.9,2.875,2.875,0,0,1-1.045-2.271,2.955,2.955,0,0,1,1.27-2.6,6.468,6.468,0,0,1,3.691-.879h1.016v-.559q0-1.462-1.26-1.462a1.03,1.03,0,0,0-1.172,1.158H32.593a2.95,2.95,0,0,1,1.3-2.487,5.479,5.479,0,0,1,3.325-.956,4.8,4.8,0,0,1,3.193.986,3.429,3.429,0,0,1,1.2,2.705v4.678a4.79,4.79,0,0,0,.449,2.227V27Zm-2.061-2.148a1.836,1.836,0,0,0,1.021-.264,1.653,1.653,0,0,0,.581-.6V22.3h-.957q-1.719,0-1.719,1.543a.942.942,0,0,0,.3.728A1.1,1.1,0,0,0,36.714,24.852ZM46.909,27h-3.3V12h3.3Z" transform="translate(1061.758 3041.304)" fill="#12263f"/>
    <g id="storyboard_1_" data-name="storyboard (1)" transform="translate(782.091 2994.637)">
      <path id="Trazado_102994" data-name="Trazado 102994" d="M119.506,15.312H75.635V9.828A1.828,1.828,0,0,0,73.807,8H55.527A1.828,1.828,0,0,0,53.7,9.828v5.484H9.828A1.828,1.828,0,0,0,8,17.14V93.914a1.828,1.828,0,0,0,1.828,1.828H40.9v5.484a1.828,1.828,0,0,0,1.828,1.828h4.611l-6.309,15.773a1.828,1.828,0,0,0,1.7,2.507h7.312a1.829,1.829,0,0,0,1.7-1.149l6.853-17.13H70.74l6.853,17.13a1.829,1.829,0,0,0,1.7,1.149H86.6a1.828,1.828,0,0,0,1.7-2.507l-6.309-15.773H86.6a1.828,1.828,0,0,0,1.828-1.828V95.742h31.075a1.828,1.828,0,0,0,1.828-1.828V17.14A1.828,1.828,0,0,0,119.506,15.312ZM57.355,11.656H71.979v3.656H57.355ZM48.8,117.678H45.432l5.849-14.624h3.373Zm35.1,0H80.529L74.68,103.054h3.373Zm.873-18.28H44.559V95.742H84.775Zm32.9-7.312H11.656V18.968H117.678Z" fill="#12263f"/>
      <path id="Trazado_102995" data-name="Trazado 102995" d="M184,73.828V95.764a1.828,1.828,0,0,0,1.828,1.828h29.247a1.828,1.828,0,0,0,1.828-1.828V73.828A1.828,1.828,0,0,0,215.075,72H185.828A1.828,1.828,0,0,0,184,73.828Zm3.656,1.828h25.592v18.28H187.656Z" transform="translate(-135.785 -49.376)" fill="#12263f"/>
      <path id="Trazado_102996" data-name="Trazado 102996" d="M63.075,72H33.828A1.828,1.828,0,0,0,32,73.828V95.764a1.828,1.828,0,0,0,1.828,1.828H63.075A1.828,1.828,0,0,0,64.9,95.764V73.828A1.828,1.828,0,0,0,63.075,72ZM61.247,93.936H35.656V75.656H61.247Z" transform="translate(-18.516 -49.376)" fill="#12263f"/>
      <path id="Trazado_102997" data-name="Trazado 102997" d="M337.828,97.592h29.247a1.828,1.828,0,0,0,1.828-1.828V73.828A1.828,1.828,0,0,0,367.075,72H337.828A1.828,1.828,0,0,0,336,73.828V95.764A1.828,1.828,0,0,0,337.828,97.592Zm1.828-21.936h25.592v18.28H339.656Z" transform="translate(-253.053 -49.376)" fill="#12263f"/>
      <path id="Trazado_102998" data-name="Trazado 102998" d="M215.075,192H185.828a1.828,1.828,0,1,0,0,3.656h29.247a1.828,1.828,0,1,0,0-3.656Z" transform="translate(-135.785 -141.957)" fill="#12263f"/>
      <path id="Trazado_102999" data-name="Trazado 102999" d="M63.075,192H33.828a1.828,1.828,0,1,0,0,3.656H63.075a1.828,1.828,0,1,0,0-3.656Z" transform="translate(-18.516 -141.957)" fill="#12263f"/>
      <path id="Trazado_103000" data-name="Trazado 103000" d="M337.828,195.656h29.247a1.828,1.828,0,0,0,0-3.656H337.828a1.828,1.828,0,0,0,0,3.656Z" transform="translate(-253.053 -141.957)" fill="#12263f"/>
      <path id="Trazado_103001" data-name="Trazado 103001" d="M215.075,224H185.828A1.828,1.828,0,0,0,184,225.828v21.936a1.828,1.828,0,0,0,1.828,1.828h29.247a1.828,1.828,0,0,0,1.828-1.828V225.828A1.828,1.828,0,0,0,215.075,224Zm-1.828,21.936H187.656v-18.28h25.592Z" transform="translate(-135.785 -166.645)" fill="#12263f"/>
      <path id="Trazado_103002" data-name="Trazado 103002" d="M63.075,224H33.828A1.828,1.828,0,0,0,32,225.828v21.936a1.828,1.828,0,0,0,1.828,1.828H63.075a1.828,1.828,0,0,0,1.828-1.828V225.828A1.828,1.828,0,0,0,63.075,224Zm-1.828,21.936H35.656v-18.28H61.247Z" transform="translate(-18.516 -166.645)" fill="#12263f"/>
      <path id="Trazado_103003" data-name="Trazado 103003" d="M337.828,249.592h29.247a1.828,1.828,0,0,0,1.828-1.828V225.828A1.828,1.828,0,0,0,367.075,224H337.828A1.828,1.828,0,0,0,336,225.828v21.936A1.828,1.828,0,0,0,337.828,249.592Zm1.828-21.936h25.592v18.28H339.656Z" transform="translate(-253.053 -166.645)" fill="#12263f"/>
      <path id="Trazado_103004" data-name="Trazado 103004" d="M215.075,344H185.828a1.828,1.828,0,1,0,0,3.656h29.247a1.828,1.828,0,1,0,0-3.656Z" transform="translate(-135.785 -259.225)" fill="#12263f"/>
      <path id="Trazado_103005" data-name="Trazado 103005" d="M63.075,344H33.828a1.828,1.828,0,1,0,0,3.656H63.075a1.828,1.828,0,1,0,0-3.656Z" transform="translate(-18.516 -259.225)" fill="#12263f"/>
      <path id="Trazado_103006" data-name="Trazado 103006" d="M337.828,347.656h29.247a1.828,1.828,0,0,0,0-3.656H337.828a1.828,1.828,0,0,0,0,3.656Z" transform="translate(-253.053 -259.225)" fill="#12263f"/>
    </g>
  </g>
</svg>
